<?xml version="1.0" encoding="UTF-8"?>
<svg id="Layer_2" data-name="Layer 2" xmlns="http://www.w3.org/2000/svg" width="131.3" height="148.8" viewBox="0 0 131.3 148.8">
  <defs>
    <style>
      .cls-1 {
        fill: #3e0121;
      }

      .cls-2 {
        fill: #c1fb9f;
      }

      .cls-3 {
        fill: #a5c987;
      }

      .cls-4 {
        fill: #71b24b;
      }

      .cls-5 {
        fill: #dcfcc9;
      }
    </style>
  </defs>
  <g id="Middle">
    <g>
      <path class="cls-1" d="m131.1,35.8c-.8,15.4-.3,31-5.1,45.9-5.8,18.1-15.3,34-29.5,46.8-13.1,11.7-28.3,18.6-46.3,20.2-9.2.8-17.6-.7-26.3-2.4-.9-.2-1.9-.5-2.6-1.1C10.6,136.2,3.1,125.6.8,111.4c-3.7-23.2,5.9-42.2,17.9-60.7C32,30.5,49.5,15.6,72.7,7.9,85.5,3.6,98.6.3,112.3,0c12-.2,16.5,3.7,17.7,15.6.7,6.7,1.8,13.4,1.1,20.2ZM19,79.6c-4.2,8.8-6.1,18.1-5,27.8,1.5,9.9,6,18.4,12.4,26,1,1.2,2,2,3.7,1.9,5.7-.2,11.2.6,17,.2,20.4-1.7,36.1-11.4,48.8-26.6,2.9-3.4,6.6-6.6,7.3-11.4,4.6-7.4,8.5-15.1,9.8-23.9,3.4-9.8,3.2-20.1,4-30.3.7-8.3.4-16.8-.8-25.1-.7-4.7-2.3-6.2-6.9-5.3-7.4,1.6-14.8,3-22.1,5-14.1,3.8-27.4,9.5-38.4,19.3-13.2,11.7-22.9,26.1-29.8,42.4Z"/>
      <path class="cls-2" d="m113,73.6c-1.3,8.8-5.1,16.5-9.8,23.9-4.6,1.4-7.3,5.4-11,8-17,12.1-35.8,17.6-56.6,16.8,0-2.3,2.1-3.3,3-5,14-25.8,33.1-47.9,52.8-69.3,2.1-2.3,6.2-5.2,3.9-8-2.7-3.4-6.7-.2-9.6,1.8-9.1,6.3-17.3,13.9-24.7,22-9.3,10.1-18.1,20.9-25,32.9-4.3,7.5-10.4,14.3-10.5,23.6-2.8.4-3.8-1.6-5.3-3.5-2.3-3.1-2.8-7.3-6.5-9.4-1.1-9.8.8-19,5-27.8,1.5,0,2.4-1.1,3.3-2,7.5-7.6,14.5-15.8,22.6-22.9,15.9-13.9,33.9-23.3,54.1-28.9,12.3-3.4,13.1-2.6,13.2,10.4,0,11.6.5,23.1-1.9,34.6-.3,1.4-1.2,4.8,2.7,2.9Z"/>
      <path class="cls-5" d="m113,73.6c-3.9,1.9-3-1.5-2.7-2.9,2.4-11.4,1.9-23,1.9-34.6,0-13-.9-13.8-13.2-10.4-20.2,5.6-38.2,15-54.1,28.9-8.1,7.1-15.1,15.3-22.6,22.9-.9.9-1.8,2-3.3,2,6.9-16.3,16.7-30.6,29.8-42.4,11-9.8,24.3-15.4,38.4-19.3,7.3-2,14.7-3.4,22.1-5,4.6-1,6.3.6,6.9,5.3,1.2,8.4,1.5,16.8.8,25.1-.8,10.1-.6,20.5-4,30.3Z"/>
      <path class="cls-3" d="m14,107.4c3.7,2.1,4.2,6.4,6.5,9.4,1.4,1.9,2.4,3.9,5.3,3.5,1.2,5.2,2.4,5.8,7,3.6,1-.5,2-1.1,3-1.6,20.7.8,39.6-4.7,56.6-16.8,3.7-2.6,6.4-6.7,11-8-.7,4.9-4.4,8-7.3,11.4-12.7,15.2-28.4,24.9-48.8,26.6-5.8.5-11.3-.4-17-.2-1.7,0-2.7-.8-3.7-1.9-6.5-7.6-11-16-12.4-26Z"/>
      <path class="cls-4" d="m35.7,122.3c-1,.5-2,1.1-3,1.6-4.5,2.2-5.8,1.6-7-3.6.2-9.4,6.2-16.2,10.5-23.6,6.9-12,15.7-22.8,25-32.9,7.4-8.1,15.6-15.7,24.7-22,2.8-2,6.8-5.1,9.6-1.8,2.2,2.8-1.8,5.7-3.9,8-19.8,21.5-38.8,43.5-52.8,69.3-.9,1.7-3.1,2.7-3,5Z"/>
    </g>
  </g>
</svg>