<?xml version="1.0" encoding="UTF-8"?>
<svg id="Layer_2" data-name="Layer 2" xmlns="http://www.w3.org/2000/svg" width="166.4" height="153" viewBox="0 0 166.4 153">
  <defs>
    <style>
      .cls-1 {
        fill: #f2dafe;
      }

      .cls-2 {
        fill: #e7bcfc;
      }

      .cls-3 {
        fill: #400424;
      }

      .cls-4 {
        fill: #b5bcca;
      }
    </style>
  </defs>
  <g id="Middle">
    <g>
      <path class="cls-3" d="m30.5,31.1c12.1,0,22.9-1.5,33.8-1.2,4.3.1,3.3-3.8,3.5-6.5.7-7.2,2.4-13.8,8.1-19,6.5-5.9,11.6-5.5,17.6-1.8,10.5,6.6,19.9,14.9,29.4,23,6.6,5.6,12.8,11.7,19,17.7,7.1,6.8,14,14.1,19.8,22.2,8.1,11.2,4.4,16.9-1.6,24.5-6,7.5-12.4,14.9-19.4,21.4-13.9,12.9-27.9,25.7-43.4,37-13.7,10-24,1.7-27.9-9.9-1.3-4-1.5-8.2-2.3-12.3-.6-2.9-1.7-2.9-3.8-2.9-9.9,0-19.9-.4-29.8.1-18.9,1-26.6-8.8-30.4-24.4C.9,89.4-.8,79.5.4,69.6c1.3-10.3,2.7-20.8,8.5-29.7,5.3-7.9,13.3-10.8,21.5-8.8Zm100,69.5c.4-.3.8-.7,1.2-1,.3-.3.5-.5.8-.8,4.7-4.6,9.6-9.1,14-14,1.9-2.1,4-4,4.2-7.5.3-4.5-2.4-7-5-9.6-11.7-11.8-23.1-24-35.8-34.8-5.9-5.1-11.9-10.1-18.1-14.7-6.4-4.8-8.5-3.7-10,4.4-.2.8,0,1.6.1,2.5l-.2,4c-1.5.6-.9,1.9-1,3-.3,9-2.9,11.5-11.9,12-13.4.8-26.9,1.1-40.3,1-6.8,0-9.5,2.6-10.2,9.9-2.3,3.5-1.8,7.5-2.4,11.3-1.9,12.4-.6,24.5,2.8,36.3.8,3,3,6.1,6.9,6,11.1-.4,22,1.7,33.1,1.1,3.3-.2,6.7-.4,9.9,0,7.3,1,12,1,12.2,12.1,0,4.8.5,9.7,2.7,14.2,1.2,2.4,2,3.6,4.9,1.5,15.2-10.9,29.4-22.9,42-36.8Z"/>
      <path class="cls-2" d="m81.7,29c0-1.3.1-2.6.2-4,2.2.3,4.4-.2,6.7,1.2,20.3,12.9,38.2,28.2,50.9,49,2.6,4.2,3.1,7.2-.2,11.4-2.8,3.6-6.7,7-6.9,12.2-.3.3-.5.5-.8.8-.4.3-.8.7-1.2,1-12.6,13.9-26.8,25.9-42,36.8-2.9,2.1-3.7.9-4.9-1.5-2.2-4.5-2.6-9.5-2.7-14.2-.2-11.2-4.9-11.1-12.2-12.1-3.2-.5-6.6-.2-9.9,0-11.1.6-22-1.5-33.1-1.1-3.9.1-6.1-3-6.9-6-3.4-11.9-4.7-24-2.8-36.3.6-3.8,0-7.9,2.4-11.3,4.4-.5,8.8-1,13.2-1.6,10.8-1.3,21.6-2.5,32.4-.5,10.8,2,17.9-3.9,17.9-14.8,0-3,0-5.9,0-8.9Z"/>
      <path class="cls-1" d="m132.5,98.9c.2-5.2,4.1-8.6,6.9-12.2,3.2-4.2,2.7-7.3.2-11.4-12.8-20.8-30.6-36.1-50.9-49-2.2-1.4-4.4-1-6.7-1.2,0-.8-.3-1.7-.1-2.5,1.6-8.1,3.6-9.1,10-4.4,6.2,4.6,12.2,9.7,18.1,14.7,12.6,10.9,24,23,35.8,34.8,2.6,2.6,5.2,5.1,5,9.6-.2,3.5-2.3,5.5-4.2,7.5-4.4,4.9-9.3,9.4-14,14Z"/>
      <path class="cls-1" d="m81.7,29c0,3,0,5.9,0,8.9,0,10.9-7.1,16.8-17.9,14.8-10.8-2-21.6-.8-32.4.5-4.4.5-8.8,1-13.2,1.6.7-7.2,3.4-9.9,10.2-9.9,13.4.1,26.9-.2,40.3-1,9.1-.5,11.6-3,11.9-12,0-1-.5-2.4,1-3Z"/>
      <path class="cls-4" d="m130.5,100.7c.4-.3.8-.7,1.2-1-.4.3-.8.7-1.2,1Z"/>
    </g>
  </g>
</svg>