<?xml version="1.0" encoding="UTF-8"?>
<svg id="Layer_2" data-name="Layer 2" xmlns="http://www.w3.org/2000/svg" width="156.1" height="160.3" viewBox="0 0 156.1 160.3">
  <defs>
    <style>
      .cls-1 {
        fill: #3e0121;
      }

      .cls-2 {
        fill: #febe6e;
      }
    </style>
  </defs>
  <g id="Back">
    <g>
      <path class="cls-1" d="m46.4,160.1c-5,.9-7.4-2.5-9-6.1-5.4-11.9-9.1-24.4-11.3-37.2-.4-2.4-1.1-3.8-3.7-4.8-5.4-2-10.7-4.3-15.6-7.6-9.6-6.5-9.1-16.6,1.1-22.1,4.9-2.7,9.7-5.7,15.4-6.6,2.1-.3,1.6-1.6,1.8-2.8,2.6-11.6,5.5-23.1,9.9-34.2.9-2.4,1.8-4.9,3.1-7,1.9-3,4.5-5.2,8.4-4.8,3.6.3,6.5,1.5,8.1,5.1,5.5,12.9,9.8,26.1,12.2,40,.4,2.3,1,3.1,3.4,3.8,6.1,2,12.3,4.3,17.4,8.3,7,5.5,7.4,13.8-.8,19.4-5.3,3.6-10.8,6.8-17.2,8.2-1.4.3-2.4,1.3-2.7,3.4-2.3,14.2-6.7,27.7-12.7,40.7-1.5,3.4-3.9,5.2-7.7,4.4Zm0-19.6c.7-1.7,1.3-2.7,1.6-3.9,2.7-8.3,5.1-16.7,8.1-24.9,1.5-3.9,1.9-8.7,6.7-10.8,4.7-2,9.2-4.5,14.1-7-4.1-3.6-8.9-5.3-13.4-7.4-2.6-1.3-4.8-3-5.5-5.9-1.8-6.7-4.6-13.1-6.2-19.9-1.2-4.8-3.5-9.4-5.9-15.5-3.6,11.2-6.9,20.8-9.7,30.6-1.7,5.7-4.5,9.7-10.3,11.9-3.5,1.3-6.6,3.7-10.2,5.9,1.5.8,2.4,1.6,3.4,1.9,11.4,4.1,17.6,12.2,20,24,1.4,7.1,3.8,13.9,7.3,21Z"/>
      <path class="cls-1" d="m113.2,111.4c-5.6.3-8-3.4-9.5-7.7-3.2-8.9-7.1-17.6-7-27.4,0-2.4-1.5-4-3.6-4.5-6.6-1.6-12.1-5.1-17.6-8.9-7.2-5-7.7-10.3-.6-14.7,5.6-3.5,11.3-7.4,18.1-8.5,2.9-.5,3.5-2.9,3.5-5.1.3-9.5,3.6-18.2,6.8-27C105.2,2.9,108.3,0,113.4,0c5.1,0,7.5,3.1,9,7.4,3.2,9.1,7,18,7.1,27.9,0,2.5,1.2,4,3.6,4.5,6.9,1.2,12.6,5,18.2,8.6,5.7,3.7,7.1,9.6-.5,14.5-5.8,3.7-11.3,7.8-18.4,8.9-1.7.2-2.9,1.3-3,3.7-.2,11-4.1,21-8.3,31-1.5,3.5-4.1,5.3-7.9,5Zm-.8-95.2c-1.9,6.1-4.1,11.3-4.8,17-.9,7.3-3.5,13.8-11,17-2.1.9-4.2,1.6-6.3,2.6-1.2.6-2.8,1.6-3,2.6-.2.9,1.4,2.1,2.8,2.4.4,0,.8.6,1.2.8,10,3.5,15.6,10,16.5,21.1.4,4.8,1.2,10.4,5.2,14.7,3.2-6,4.3-12.2,5.5-18.4,1.1-6.2,3.4-11.6,9.9-14.5,3.7-1.7,8-2.8,10.7-6.3-1.6-.9-2.9-2-4.5-2.4-11.7-3.4-15.8-12.3-17.2-23.4-.6-4.4-1.2-9-5.2-13.2Z"/>
      <path class="cls-2" d="m46.3,140.5c-3.5-7.1-5.9-13.9-7.3-21-2.3-11.8-8.6-19.9-20-24-1-.4-1.9-1.1-3.4-1.9,3.6-2.1,6.7-4.6,10.2-5.9,5.8-2.1,8.6-6.2,10.3-11.9,2.8-9.7,6.1-19.3,9.7-30.6,2.4,6,4.7,10.6,5.9,15.5,1.7,6.8,4.4,13.2,6.2,19.9.8,2.9,2.9,4.6,5.5,5.9,4.5,2.2,9.3,3.9,13.4,7.4-4.9,2.5-9.4,4.9-14.1,7-4.8,2.1-5.2,6.9-6.7,10.8-3,8.2-5.4,16.6-8.1,24.9-.4,1.1-.9,2.2-1.6,3.9Z"/>
      <path class="cls-2" d="m112.4,16.3c3.9,4.2,4.6,8.8,5.2,13.2,1.4,11.1,5.5,19.9,17.2,23.4,1.5.4,2.9,1.5,4.5,2.4-2.8,3.5-7,4.7-10.7,6.3-6.4,2.9-8.7,8.3-9.9,14.5-1.1,6.2-2.2,12.4-5.5,18.4-4-4.3-4.7-9.9-5.2-14.7-1-11.1-6.5-17.6-16.5-21.1-.5-.2-.8-.7-1.2-.8-1.4-.3-3-1.5-2.8-2.4.2-1,1.8-2,3-2.6,2-1,4.2-1.7,6.3-2.6,7.5-3.2,10.1-9.7,11-17,.7-5.7,2.9-10.8,4.8-17Z"/>
    </g>
  </g>
</svg>