<?xml version="1.0" encoding="UTF-8"?>
<svg id="Layer_2" data-name="Layer 2" xmlns="http://www.w3.org/2000/svg" width="286" height="209.1" viewBox="0 0 286 209.1">
  <defs>
    <style>
      .cls-1 {
        fill: #ffbae0;
      }

      .cls-2 {
        fill: #3d0020;
      }

      .cls-3 {
        fill: #ff8cd3;
      }

      .cls-4 {
        fill: #71b14b;
      }

      .cls-5 {
        fill: #c1fb9f;
      }

      .cls-6 {
        fill: #c9037c;
      }
    </style>
  </defs>
  <g id="Back">
    <g>
      <path class="cls-2" d="m40.7,136.6c-16-5.1-29.9-12.6-38.3-27.6-3.9-7.1-2.9-13,3.3-17.9,1.5-1.2.8-1.2.3-2.1-3.9-7.2-2.9-11.6,2.8-17.3,6.9-6.9,15.5-9.3,24.6-9.8,7.9-.5,15.8-.8,23.6,1.8,4,1.3,4.2-2,3.9-4.7-1.3-10.1,1.9-19.1,6.4-27.9,3.1-6,7.3-11.1,12.4-15.4,5-4.2,13-2.9,16.8,3,2.3,3.5,2.9,3.1,5.1,0,5.1-7.4,14.5-6.9,20.3.3,3.5,4.3,7,8.5,9.8,13.2.7,1.2,1.6,2.7,3.1.5,5.9-8.3,14.4-13.5,22.7-18.6C172.4,5,188.2-1,206,.1c9.2.6,17.8,3,26.1,6.7,4.1,1.8,5.4,5.9,5.5,9.5,0,20.2,0,40.4-10.9,58.5-1.5,2.5-2.9,5-4.3,7.6-.2.3,0,.7-.1,1.3,19.8,5.3,37.5,14.6,52,29.5,3.1,3.2,6,6.5,8.8,10,4.1,5.2,4,8.9-.1,14.9-7.9,11.5-19.6,18.6-31.2,25.2-20.4,11.5-42.7,15.4-66,13.6-.2,0-.4,0-.6,0-3.5-.5-7.7-4.1-10.2-1.6-2.1,2-1.2,6.9-2,10.4-1.9,8.1-4.8,10.6-13,11.4-1.2.1-2.2-.2-2.8,1.8-3,9.7-7,11.7-17.3,9.2-16.7-4-30-12.6-38.6-27.8-2.8-5-3.8-.6-4.9,1.3-10,16.1-24.4,24.9-43.3,26.9-6.1.6-9.7-1.4-11.2-7.4-.6-2.5-1.7-4-5.2-4-5.2,0-8.8-3.8-10.3-8.6-5.3-17.6-2.2-33.5,10.5-47.2,1.1-1.2,2.4-2.4,3.5-3.6.2-.2.2-.7.3-1.1Zm55.1,17h0c2-1.5,3.9-3.6,6.7-1h0c.2.5.4,1.1,1.2.9,1.2,1.5,2.4,3.1,3.6,4.6,0,1.3-.7,2.7,1.1,3.3,0,1.3.3,2.5.6,3.7,3.7,13.4,13.2,21.5,24.9,27.6,2.9,1.5,6,5,8.9,2.9,2.6-1.8,2.7-6.1,2.1-9.6,2.7-4.6,6.6-4,10.6-2.5,3.8,1.4,5.4,1,5.5-3.7.2-8.2-.4-16.1-4.8-23.2-1.2-1.9.2-4.2-2.2-6.1-8.7-7-17.1-14.5-25.6-21.7,1-5.5,3.7-7.5,8.7-6.2,4.2,1.1,8.8.9,12.6.3,12.2-1.9,23.2-6.6,31.3-16.8,3.3-4.1,1.8-4.9-2.2-5.2-6.3-6.2-6.2-7.9-1.9-14.7,2.6-4.2.8-5.3-2.4-6.8-5.3-2.3-11-2.6-16.6-2.9-4.1-.2-8.3-.6-12.5,1.2-7.5,3.1-14.1,7.4-20.2,12.6-2.7,2.4-5.7,3.3-9.2,2.8-4-3.2-2-6.5-.3-9.9.7-1.5,1.1-3.1,2-4.5,9.2-14.4,7.4-28.8-.4-42.8-4.3-7.7-5.5-7.6-11.7-1.3-2.9,3-6,5.2-10,2.7-2-1.3-3.7-3.2-5.2-5-3-3.6-4.8-2.9-7.2.8-10.6,16.2-10.7,32.4-.6,48.8,2,3.6,3.1,7.2.7,11-5.7,1.2-9.8-1.5-13.6-5.4-13.3-13.4-30.6-13.3-45.3-8.6-3.1,1-6.8,2.6-2.3,7.3,4.2,4.4,3.2,11.5-2,13.5-6.8,2.6-3.9,5.1-.8,8.1,1.2,1.2,2.5,2.2,3.7,3.3,10.9,9.8,23.7,13.8,38.1,11.4,6.2-1,9.6.4,9.9,5.1-7.5,7.5-16.3,13.6-23.3,21.7-7.1,8.3-9.5,17.9-10,28.2-.3,5.8,1.4,6.6,7,5.3,2.5-.6,5.1-.6,7.5.8,2.3,2.1,2.4,4.7,2.3,7.6-.1,5.3,1.3,6.2,6.2,3.6,4.7-2.5,9.1-5.4,13.6-8.2,6.6-4.1,10.9-10.1,13.7-17.4,1.9-5,3.4-10.3,6.7-14.8.4-.4.8-.7,1.2-1.1Zm68.1-92.1c4.9,0,9.7.2,14.6.2-.8,1.5-.9,2.6,1.1,3.3,3.8,1.5,6.8,4.2,10,6.6,5.6,4.2,6.7,8.8,3.9,15.1-.5,1.1-2.6,2.4-.7,3.8,1.2.8,2.3-.4,3.4-1.2,11.4-8.1,17.9-19.7,22.8-32.4,4-10.5,2.7-21.7,4.5-32.5.8-4.6-1.9-6.3-5.4-7.3-3-.8-6.1-1.3-9.2-1.4-28.9-.8-51.5,10.8-68.4,34.1-2.7,3.8-2.1,7.7-2,11.6,0,1.8,1,2.1,3,1.5,7.4-2.2,15.1-.9,22.6-1.6Zm-2.2,75.4c-2.9,1.5-2,3,0,4.5,4.3,3.5,6.2,8.6,9.1,13,.8,1.3,1,2.8,2.9,3.6,12.8,5.7,26.6,6,39.6,3.9,20.1-3.2,37.4-13.6,53.1-26.4,3.3-2.7,4-5.1.6-8.7-12.3-12.9-26.7-22.2-43.7-27.6-9.2-2.9-21.8-.8-25,5.8-3,6.2-8,10.4-11.7,15.9-.7.1-1.6,0-2.1.5-6.6,5.8-12.7,12.3-21.9,14-.3,0-.5.9-.8,1.4Z"/>
      <path class="cls-3" d="m115.5,83.1c-1.7,3.4-3.7,6.7.3,9.9-1.3.9-1.4,2.2-.9,3.5.5,1.1,1.6.9,2.3.3,4.6-3.6,10.4-2.3,15.6-3.4,12.1-2.4,18.6,3.9,17.2,16,0,.2-.1.3-.2.5-.5,2.2.4,3.2,2.6,2.9,6.4-1,12.9-2.1,18.7-5,3-1.5,6.7-2.7,7.4-6.9,4,.3,5.5,1.1,2.2,5.2-8.1,10.2-19.2,14.9-31.3,16.8-3.8.6-8.4.8-12.6-.3-4.9-1.3-7.6.7-8.7,6.2-3.2,5.7,2.4,8.3,4.6,11.9,3.2,5.2,3.7,14.5.3,18.6-4.3,5.2-10.3,5.9-17.6,2.6-2.8-1.3-5-4.1-8.4-3.8-1.2-1.5-2.4-3.1-3.6-4.6-.4-.3-.8-.7-1.2-1,0,0,0,0,0,0,0-2.6-.4-5.9-3.2-6.1-2.2-.1-2.7,3.4-3.4,5.6-.2.5,0,1.1,0,1.6,0,0,0,0,0,0-.4.4-.8.7-1.2,1.1-3.3,4.5-4.7,9.8-6.7,14.8-2.8,7.3-7.1,13.2-13.7,17.4-4.5,2.8-8.9,5.7-13.6,8.2-4.9,2.6-6.3,1.7-6.2-3.6,0-2.9,0-5.5-2.3-7.6.5-.9,1.5-.9,2.4-1.2,9.7-3.2,19-7.1,25-16.4-11.5-1.2-16.8-8.4-15.3-19.4.7-5.2,4-7.5,7.6-10.3,5.3-4.1,4.9-6.3-.9-8.9-.3-4.8-3.7-6.1-9.9-5.1-14.5,2.4-27.2-1.6-38.1-11.4,2.5-.3,4.7.9,6.9,1.7,6.1,2,12.2,4.3,18.7,4.9,1.3.1,3.2.8,4-.9.7-1.4-.9-2.3-1.8-3.1-4-3.6-5.8-8-3.5-12.9,2.5-5.3,7.1-8.3,13.2-8.8,5.9-.4,10.6,2.6,15.7,4.8,4.8,2,6.8.9,7.1-3.8,2.4-3.8,1.2-7.5-.7-11,2.9-.6,2.4-3.4,3.2-5.3,1.8-4.3,4.4-7.7,8.8-9.4,7.1-2.8,15.1,2.2,18.7,11.4.6,1.6-.2,4,2.5,4.4Zm-12.8,30.1c0,1.8,0,3.1,0,4.4,0,3.9,1.7,7.3,5.8,7.4,4.4,0,5.2-3.8,5.6-7.5.5-3.9-1-7.6-1.6-11.4-.3-1.8-1.5-3.9-4.2-3.6-2.3.3-3.9,1-4.9,3.6-.9,2.6-.3,5.1-.8,7.1Zm-15.7-4c-3.5,0-6.7,3.5-5.3,6.3,2.1,4.1,4.3,8.2,8.4,10.7,3,1.9,5.5.9,6.9-1.8,2.4-4.6-4.7-15.2-10-15.2Z"/>
      <path class="cls-5" d="m186.4,121.1c3.7-5.4,8.7-9.7,11.7-15.9,3.2-6.6,15.8-8.7,25-5.8,17,5.4,31.4,14.6,43.7,27.6,3.4,3.6,2.7,6-.6,8.7-15.8,12.7-33.1,23.1-53.1,26.4-13.1,2.1-26.8,1.8-39.6-3.9-1.9-.8-2.1-2.3-2.9-3.6-2.9-4.5-4.8-9.6-9.1-13-1.9-1.5-2.8-3.1,0-4.5.7,1.3,1.8,1.1,2.9.8,17.3-3.7,34.9-4.9,52.5-4.5,4.5,0,9,.1,13.4-.2,2.3-.2,5.2-.8,5-4.1-.2-2.9-2.7-3-4.9-3.4-12.8-2.4-25.7-3.7-38.7-3.5-1.9,0-3.7-.2-5.4-1Z"/>
      <path class="cls-5" d="m163.8,61.5c-7.5.7-15.2-.7-22.6,1.6-2,.6-3,.2-3-1.5,0-4-.7-7.9,2-11.6,16.9-23.3,39.6-34.9,68.4-34.1,3.1,0,6.2.5,9.2,1.4,3.5,1,6.2,2.7,5.4,7.3-1.8,10.8-.5,22-4.5,32.5-4.9,12.7-11.3,24.3-22.8,32.4-1.1.8-2.2,2-3.4,1.2-1.9-1.3.2-2.7.7-3.8,2.8-6.3,1.7-10.9-3.9-15.1-3.2-2.4-6.2-5.1-10-6.6-1.9-.8-1.9-1.9-1.1-3.3,8.1-6.8,16.2-13.5,24.1-20.4,1.9-1.6,4.8-3.7,3-6.4-1.8-2.6-4.9-1.2-7.6-.3-7.2,2.3-13.5,6.4-19.2,11-5.7,4.4-12.6,8.1-14.9,15.9Z"/>
      <path class="cls-1" d="m115.5,83.1c-2.6-.4-1.9-2.9-2.5-4.4-3.6-9.2-11.6-14.2-18.7-11.4-4.4,1.7-7.1,5.1-8.8,9.4-.8,1.9-.3,4.7-3.2,5.3-10-16.4-10-32.6.6-48.8,2.4-3.7,4.3-4.4,7.2-.8,1.5,1.9,3.2,3.8,5.2,5,4.1,2.6,7.1.4,10-2.7,6.1-6.3,7.4-6.4,11.7,1.3,7.8,14,9.5,28.4.4,42.8-.9,1.4-1.3,3-2,4.5Z"/>
      <path class="cls-1" d="m83.1,92.9c-.2,4.7-2.2,5.8-7.1,3.8-5.1-2.1-9.8-5.2-15.7-4.8-6.1.4-10.7,3.4-13.2,8.8-2.3,5-.5,9.3,3.5,12.9.9.8,2.5,1.7,1.8,3.1-.8,1.7-2.7,1-4,.9-6.5-.6-12.6-2.8-18.7-4.9-2.3-.7-4.4-2-6.9-1.7-1.2-1.1-2.5-2.1-3.7-3.3-3.1-3-6-5.5.8-8.1,5.1-2,6.2-9.1,2-13.5-4.5-4.7-.7-6.3,2.3-7.3,14.8-4.7,32-4.8,45.3,8.6,3.8,3.9,7.9,6.6,13.6,5.4Z"/>
      <path class="cls-1" d="m107,158.1c3.5-.3,5.6,2.6,8.4,3.8,7.3,3.3,13.2,2.6,17.6-2.6,3.4-4.1,2.9-13.4-.3-18.6-2.2-3.6-7.8-6.2-4.6-11.9,8.5,7.3,16.8,14.8,25.6,21.7,2.4,1.9,1,4.2,2.2,6.1,4.4,7.1,5,15,4.8,23.2-.1,4.7-1.7,5.1-5.5,3.7-4-1.5-8-2.1-10.6,2.5-12.8-1.9-22.1-9.4-30-19.1-1.8-2.3-3.3-5-6.5-5.6-1.9-.6-1.2-2.1-1.1-3.3Z"/>
      <path class="cls-1" d="m178.6,100.8c-.6,4.2-4.4,5.4-7.4,6.9-5.8,2.9-12.3,4.1-18.7,5-2.3.3-3.1-.6-2.6-2.9,0-.2.2-.3.2-.5,1.3-12.1-5.1-18.4-17.2-16-5.2,1-10.9-.3-15.6,3.4-.8.6-1.9.8-2.3-.3-.5-1.3-.4-2.6.9-3.5,3.5.5,6.4-.5,9.2-2.8,6.1-5.2,12.7-9.5,20.2-12.6,4.2-1.8,8.4-1.4,12.5-1.2,5.6.3,11.3.6,16.6,2.9,3.2,1.4,5,2.6,2.4,6.8-4.3,6.9-4.3,8.5,1.9,14.7Z"/>
      <path class="cls-1" d="m70.8,127.7c5.8,2.6,6.1,4.8.9,8.9-3.6,2.8-6.9,5.1-7.6,10.3-1.5,11,3.8,18.2,15.3,19.4-6,9.3-15.3,13.2-25,16.4-.9.3-1.8.2-2.4,1.2-2.4-1.5-4.9-1.4-7.5-.8-5.6,1.3-7.3.5-7-5.3.5-10.3,2.9-20,10-28.2,7-8.2,15.8-14.2,23.3-21.7Z"/>
      <path class="cls-4" d="m186.4,121.1c1.7.8,3.5,1,5.4,1,13-.2,25.9,1.1,38.7,3.5,2.3.4,4.8.5,4.9,3.4.2,3.3-2.7,3.9-5,4.1-4.4.4-8.9.3-13.4.2-17.7-.4-35.2.7-52.5,4.5-1.1.2-2.2.5-2.9-.8.2-.5.4-1.3.8-1.4,9.2-1.7,15.4-8.2,21.9-14,.5-.4,1.4-.3,2.1-.5Z"/>
      <path class="cls-4" d="m163.8,61.5c2.3-7.8,9.2-11.5,14.9-15.9,5.8-4.5,12-8.6,19.2-11,2.7-.9,5.8-2.2,7.6.3,1.8,2.6-1.1,4.8-3,6.4-8,6.9-16.1,13.6-24.1,20.4-4.9,0-9.7-.2-14.6-.2Z"/>
      <path class="cls-3" d="m108.1,161.4c3.2.6,4.7,3.3,6.5,5.6,7.9,9.7,17.1,17.2,30,19.1.6,3.5.5,7.8-2.1,9.6-2.9,2.1-6-1.4-8.9-2.9-11.7-6.2-21.2-14.3-24.9-27.6-.4-1.3-.6-2.5-.6-3.7Z"/>
      <path class="cls-1" d="m95.6,153.6c0-.5-.1-1.1,0-1.6.7-2.2,1.2-5.7,3.4-5.6,2.8.1,3.1,3.4,3.2,6.1-2.7-2.6-4.6-.5-6.7,1.1Z"/>
      <path class="cls-1" d="m102.2,152.5c.4.3.8.7,1.2,1-.8.2-1-.4-1.2-1Z"/>
      <path class="cls-1" d="m94.5,154.6c.4-.4.8-.7,1.2-1.1-.4.4-.8.7-1.2,1.1Z"/>
      <path class="cls-6" d="m102.8,113.3c.5-2-.1-4.5.8-7.1.9-2.6,2.6-3.3,4.9-3.6,2.7-.3,3.9,1.8,4.2,3.6.6,3.8,2,7.4,1.6,11.4-.4,3.7-1.2,7.5-5.6,7.5-4.2,0-5.7-3.5-5.8-7.4,0-1.3,0-2.6,0-4.4Z"/>
      <path class="cls-6" d="m87.1,109.2c5.3,0,12.4,10.6,10,15.2-1.4,2.7-3.9,3.7-6.9,1.8-4.1-2.6-6.3-6.7-8.4-10.7-1.5-2.9,1.7-6.3,5.3-6.3Z"/>
    </g>
  </g>
</svg>