<?xml version="1.0" encoding="UTF-8"?>
<svg id="Layer_2" data-name="Layer 2" xmlns="http://www.w3.org/2000/svg" width="268.8" height="268" viewBox="0 0 268.8 268">
  <defs>
    <style>
      .cls-1 {
        fill: #e25aa8;
      }

      .cls-2 {
        fill: #3d0020;
      }

      .cls-3 {
        fill: #ffb1e2;
      }

      .cls-4 {
        fill: #ff71ca;
      }
    </style>
  </defs>
  <g id="Middle">
    <g>
      <path class="cls-4" d="m255.9,201.2c0,1.7,0,3.4-.1,5.1-.2.3-.3.7-.5,1,0,1-.2,1.9-.3,2.9-5.9,5.1-12.9,7.3-20.4,8.9-6.2,1.4-7.9,4.2-8.2,11.2-.3,1.3-.6,2.6-1,3.8-4.8,2.6-8.4,7.1-14.8,7.1-51.1-.2-102.1-.1-153.2-.1-6.5,0-11.4-2.8-14.5-8.6-.5-.8-1-1.2-1.8-1.4-.4-1-.8-1.9-1.2-2.9,0-7.5-3.3-12-9.6-11.9-6.8.2-10.1-3.9-13.5-8.5-1-1.4-1.3-3.5-3.6-3.6-.1-10,.3-20.1.6-30.1.6-22.5,0-45,0-67.5.2-3,1-6.1-.6-9.1,0-13.6,0-27.2,0-40.8.6-.2,1.4-.2,1.8-.6,3.8-4.3,8.4-6.1,14.2-6.7,7.7-.8,10.4-4,10.7-9.7.4-.9.8-1.9,1.2-2.8,4-.5,3-4.7,5-6.8,6.6-7.3,15.3-9.9,24.5-10,13.7-.1,27.5-.3,41.2.6,14.8,1,29.8.3,44.7,1.1,11.2.6,22.6.2,33.8.2,13.6,0,26.5,1.5,35.9,12.9.4,1.3.8,2.6,1.2,4-1.7,4.6.9,8.8,6.9,9.9,6.4,1.2,11.3,4.3,15.5,9,2.1,2.3,3.3,5.5,6.2,7,.7,11.1-1.7,22-.9,33.1.1,1.9-.2,4,.9,5.7-1.8,3.7-.8,7.7-.8,11.6.2,7.5-1.1,15,.8,22.4-1.7,3.5-.6,7.2-.9,10.9,0,16,0,32,0,48,0,1.6-.4,3.3.6,4.8Z"/>
      <path class="cls-3" d="m226.2,34.7c-9.4-11.4-22.3-13-35.9-12.9-11.3,0-22.6.5-33.8-.2-14.9-.8-29.8,0-44.7-1.1-13.8-.9-27.5-.8-41.2-.6-9.2,0-17.9,2.7-24.5,10-1.9,2.1-1,6.3-5,6.8,0-3.7-.3-7.4.7-11.2,2-7.6,7.2-11.2,14.2-12.6,3.4-.7,6.9-.9,10.3-.9,37.3,0,74.7-.2,112,.3,8.1.1,16.1-.3,24.1-.6,4.9-.2,9.4,1.4,13.9,2.7,5.9,1.8,9.9,8,10,14.2,0,2,0,4-.1,6Z"/>
      <path class="cls-1" d="m13.3,204.2c2.3.1,2.6,2.2,3.6,3.6,3.3,4.6,6.7,8.7,13.5,8.5,6.3-.2,9.6,4.4,9.6,11.9-2.6-1.3-5.5-1-8.2-1.1-11.4-.6-17.1-7.2-19.4-16.7-.5-1.9.6-4.1,1-6.2Z"/>
      <path class="cls-3" d="m256.1,64.7c-3-1.5-4.2-4.7-6.2-7-4.2-4.7-9.2-7.9-15.5-9-6-1.1-8.6-5.3-6.9-9.9,2.1,2.2,4.5,3.4,7.8,3.1,10.3-1.1,18.8,4.4,19.6,14.8.2,2.7,1.9,5.2,1.3,8Z"/>
      <path class="cls-1" d="m226.4,230.2c.3-6.9,2-9.8,8.2-11.2,7.5-1.7,14.5-3.8,20.4-8.9-1.5,11.8-8,15.6-19.9,16.9-3.3.3-6.4.4-8.7,3.2Z"/>
      <path class="cls-3" d="m40,39.6c-.3,5.7-3.1,8.9-10.7,9.7-5.8.6-10.4,2.4-14.2,6.7-.4.4-1.2.4-1.8.6.9-9.5,6.7-14.9,16-14.9,3.8,0,7.4,0,10.7-2.2Z"/>
      <path class="cls-1" d="m255.9,201.2c-1.1-1.5-.6-3.2-.6-4.8,0-16,0-32,0-48,.2.4.7.8.7,1.2,0,17.2,0,34.4-.1,51.6Z"/>
      <path class="cls-1" d="m225.5,234.1c-4.8,2.6-8.4,7.1-14.8,7.1-51.1-.2-102.1-.1-153.2-.1-6.5,0-11.4-2.8-14.5-8.6-.5-.8-1-1.2-1.8-1.4,0,1.8,0,3.6-.1,5.4-.2,6.8,4.9,16.3,14,18.1,2.6.5,5.2.5,7.8.7,7-.4,14-.5,21.1,0,17.9,0,35.9-.2,53.8-.3,5.3,0,10.6,0,15.9,0,3.6,0,7.3,0,10.9,0,12,0,24,0,36,0,5.5.3,11,.4,16.3-1.8,7.1-2.8,11.2-11.5,8.7-19.1Z"/>
      <path class="cls-2" d="m268.6,102.6c-.2-13.7-.5-27.4-1.1-41.1-.8-18.2-9.6-28.7-25.6-32.5-2.1-.5-2.2-1.2-2.7-3-4.9-18.2-15-23.7-28.4-24.9-9.5-.9-19.2-.7-28.8-.8-42.1-.5-84.3,0-126.4.7-11.8.2-25.4,12.6-26.5,24.5-.2,2.1-.2,3.1-3,3.7C10.8,32.1,0,44.9.9,61c.9,15.9.2,31.9,0,47.9-.3,14.5.7,29.1-.6,43.6-.6,7,.4,14.1.7,21.2.5,11.1.3,22.2.1,33.3-.2,16.6,9.3,29,25.9,31.9,1.4.3,1.8.7,2,2.1,2.9,16,16.8,27.8,32.7,26.8,18.7-1.2,37.3.2,56-.5,18.1-.7,36.2-.2,54.3-.2,10.8,0,41.5-.9,42.5-1.1,12.7-1.3,19.5-9.7,23.2-20.6,1.5-4.5,3.5-6.3,7.8-7.6,10.5-3.4,17.6-10.4,20.6-21.2,2.3-8.2,1.4-16.7,1.7-24.9.9-29.7,1.1-59.4.6-89.1Zm-13.3-4.8c.1,1.9-.2,4,.9,5.7h0c-1.8,3.7-.8,7.7-.8,11.6.2,7.5-1.1,15,.8,22.4-1.7,3.5-.6,7.2-.9,10.9.2.4.7.8.7,1.2,0,17.2,0,34.4-.1,51.6,0,1.7,0,3.4-.1,5.1.3.6,0,.8-.5,1,0,1-.2,1.9-.3,2.9-1.5,11.8-8,15.6-19.9,16.9-3.3.3-6.4.4-8.7,3.2-.3,1.3-.6,2.6-1,3.8,2.5,7.5-1.6,16.2-8.7,19.1-5.3,2.1-10.8,2.1-16.3,1.8-12,0-24,0-36,0-3.6,0-7.3,0-10.9,0-5.3,0-10.6,0-15.9,0-17.9,0-35.9.2-53.8.3-3.5.6-7,.9-10.5.9,3.5,0,7-.3,10.5-.9-7-.4-14-.4-21.1,0-2.6-.2-5.3-.2-7.8-.7-9.2-1.8-14.2-11.2-14-18.1,0-1.8,0-3.6.1-5.4-.4-1-.8-1.9-1.2-2.9-2.6-1.3-5.5-1-8.2-1.1-11.4-.6-17.1-7.2-19.4-16.7-.5-1.9.6-4.1,1-6.2-.1-10,.3-20.1.6-30.1.6-22.5,0-45,0-67.5h0c.2-3,1-6.1-.6-9.1,0,.8,0,1.5,0,2.3,0-.8,0-1.5,0-2.3,0-13.6,0-27.2,0-40.8.9-9.5,6.7-14.9,16-14.9,3.8,0,7.4,0,10.7-2.2.4-.9.8-1.9,1.2-2.8,0-3.7-.3-7.4.7-11.2,2-7.6,7.2-11.2,14.2-12.6,3.4-.7,6.9-.9,10.3-.9,37.3,0,74.7-.2,112,.3,8.1.1,16.1-.3,24.1-.6,4.9-.2,9.4,1.4,13.9,2.7,5.9,1.8,9.9,8,10,14.2,0,2,0,4-.1,6,.4,1.3.8,2.6,1.2,4,2.1,2.2,4.5,3.4,7.8,3.1,10.3-1.1,18.8,4.4,19.6,14.8.2,2.7,1.9,5.2,1.3,8,.7,11.1-1.7,22-.9,33.1Z"/>
      <path class="cls-1" d="m255.3,207.2c.2-.3.3-.7.5-1,.3.6,0,.8-.5,1Z"/>
    </g>
  </g>
</svg>