<?xml version="1.0" encoding="UTF-8"?>
<svg id="Layer_2" data-name="Layer 2" xmlns="http://www.w3.org/2000/svg" width="351.8" height="351.6" viewBox="0 0 351.8 351.6">
  <defs>
    <style>
      .cls-1 {
        fill: #3d0020;
      }

      .cls-2 {
        fill: #ffb0e2;
      }

      .cls-3 {
        fill: #ff71ca;
      }

      .cls-4 {
        fill: #e35aa9;
      }

      .cls-5 {
        fill: #712d50;
      }
    </style>
  </defs>
  <g id="Middle">
    <g>
      <path class="cls-1" d="m1.2,288.4c0-4.8.2-9.6.2-14.4,0-64.9,0-129.9,0-194.8,0-8.5-.1-16.9-.2-25.4,0-11.6,9.4-23.4,20.8-25.5,3.5-.6,5.7-2,6-5.5,1.2-10.9,12.2-18.9,21.8-20.7C64.3-.5,78.8.1,93.3,0c66-.2,132-.2,197.9.4,12.7.1,25,3.9,31.1,17.2,1.5,3.1.8,8.1,3.1,9.8,2.4,1.7,6.9,1.1,10,2.8,9.9,5.3,14.8,13.8,15.1,25,0,1.3.1,2.7.2,4,.1,3.6-1.1,7.3.8,10.8.1,8.6.4,17.3.3,25.9-.2,60.1-.4,120.3-.5,180.4,0,10.1,1.1,20.4-2.8,30.1-3.5,8.8-9.1,15.6-19.4,17.1-2,.3-4,.7-4.7,4.1-2.8,13.4-12,20.4-25.2,22.8-3.4.6-6.8.9-10.2.9-76.7.9-153.4-.3-230-.3-13.2,0-24.2-4.9-29-17.2-2.6-6.5-5.7-9-11.8-11.6-11.2-4.8-16.6-14.5-16.7-26.9,1.4-2.4,1.5-4.7-.2-7ZM14.8,88.9c-1.4,4.7-.6,9.5-.5,14.3,0,6.6-.9,13.2.6,19.7,0,2.6,0,5.3,0,7.9-.2.9-.7,1.9-.7,2.8,0,46.3,0,92.6,0,138.9,0,4.6,0,9.2,0,13.8.5,4.6-2.1,9.2-.7,13.6,2,6.6,8,14,17.9,13.4,4.1-.3,6.7.9,6.9,6.1.2,5.5,1.3,10.9,6.3,14.8,4.8,3.8,10.1,5,16,5,21.7,0,43.5-.1,65.2-.2,1,0,2,.3,3,.3,50.2,0,100.4,0,150.6,0,.8,0,1.6-.2,2.5-.2,1.2,0,2.4,0,3.7,0,4.1.1,8.2,1,12.2-.5,10.6-2,15.9-8,15.8-18.2,0-1,0-2,.1-3,1.7-3,4-4.1,7.6-4.1,9.7,0,17.4-7.9,17.1-16.9,0-2.9.2-5.9.3-8.8.5-.2.9-.4.6-1.1,0-2.7.2-5.3.2-8,.1-45.9.2-91.7.3-137.6,1.5-12.1.9-24.2.4-36.4.2-16.5-.7-32.9-1.6-49.3-.5-8.7-6.6-16.6-16.5-16.1-1.6,0-3.3-.2-4.9-.3l-.2-.3c-2-1.9-3.3-3.8-3.5-6.9-.9-13.1-6.9-18.3-19.9-18.3-16,0-31.9,0-47.9,0-62.1,0-124.3,0-186.4-.2-12.7,0-22.3,9-19.9,19-.2,4-3.6,5-6.2,6.8-1.8,0-3.6,0-5.5.1-6.7.5-12.6,5.4-12.7,11.1,0,12.9.1,25.8.2,38.7l-.2-.2h-.2Z"/>
      <path class="cls-5" d="m1.2,288.4c1.7,2.3,1.6,4.6.2,7-1.9-2.3-1.7-4.6-.2-7Z"/>
      <path class="cls-3" d="m338.6,287.6c0,2.9-.2,5.9-.3,8.8-3.2,5.3-8.7,6.7-14.1,8.3-1.4.4-2.8.9-4.1,1.6-4.7,2.3-7.4,7.2-6.4,11.1,0,1,0,2-.1,3-3.6,4.9-8.1,7.1-14.4,7.1-79.1-.2-158.2-.2-237.4,0-8.3,0-14.7-1.6-18.6-9.2-4-7.8-9.7-13.3-18.6-15.3-3.2-.7-4.3-3.7-5.5-6.6-1.4-3.4-.9-7.7-4.6-10,0-4.6,0-9.2,0-13.8,1.6-1.7.8-3.8.8-5.7,0-43.7,0-87.4,0-131.1,0-1.7-.2-3.3-.3-5,0-2.6,0-5.3,0-7.9.5-11.3.6-22.7,0-34h.2c0-.1.2,0,.2,0,3.5-7.1,1.7-14.6,1.8-22,.3-13.6,2.4-17,15.1-22.1,3.3-1.3,3.7-3.5,1-5.9,2.5-1.9,6-2.9,6.2-6.8,1.8,0,2.3-1.5,3.3-2.6,4.9-5.9,10.6-9.6,19-9.5,73.6.3,147.1,0,220.7.2,12.2,0,22.4,4.1,28.2,15.8,1.4,2.8,3.4,4,6.5,2.5,0,0,.2.3.2.3-.9,2.5.4,4.2,2.5,5.2,10.5,5,14.4,13.8,14.9,24.8.5,10.2.7,20.4,2.9,30.5.4,2-.5,4.5,2.1,5.7,0,12,.2,24,.2,35.9-.1,45.9-.2,91.7-.3,137.6,0,2.7-.1,5.3-.2,8-.2.4-.4.7-.6,1.1Z"/>
      <path class="cls-4" d="m14.4,286.4c3.7,2.3,3.2,6.6,4.6,10,1.2,2.9,2.3,5.9,5.5,6.6,8.9,2,14.6,7.5,18.6,15.3,4,7.6,10.4,9.3,18.6,9.2,79.1-.3,158.2-.2,237.4,0,6.3,0,10.8-2.2,14.4-7.1,0,10.3-5.1,16.3-15.8,18.2-4.1,0-8.2-.8-12.2.6-1.2,0-2.4,0-3.7,0-1.8-1.1-3.9-.7-5.8-.7-48.4,0-96.9,0-145.3,0-1.6,0-3.3-.4-4.8.6-21.7,0-43.5,0-65.2.2-5.9,0-11.2-1.2-16-5-5-3.9-6.1-9.4-6.3-14.8-.2-5.2-2.8-6.4-6.9-6.1-9.9.6-15.8-6.7-17.9-13.4-1.4-4.5,1.2-9,.7-13.6Z"/>
      <path class="cls-2" d="m317,38.5c-3.1,1.5-5.1.3-6.5-2.5-5.8-11.7-16.1-15.8-28.2-15.8-73.6,0-147.1,0-220.7-.2-8.4,0-14.1,3.6-19,9.5-1,1.1-1.5,2.6-3.3,2.6-2.4-10,7.3-19.1,19.9-19,62.1.1,124.3.1,186.4.2,16,0,31.9,0,47.9,0,13.1,0,19,5.2,19.9,18.3.2,3.1,1.6,5,3.5,6.9Z"/>
      <path class="cls-2" d="m339.5,105c-2.6-1.2-1.7-3.7-2.1-5.7-2.1-10.1-2.4-20.3-2.9-30.5-.5-11-4.4-19.8-14.9-24.8-2.1-1-3.4-2.7-2.5-5.2,1.6.1,3.3.4,4.9.3,9.9-.4,16,7.4,16.5,16.1.9,16.4,1.8,32.8,1.6,49.3-.3,0-.5.2-.7.4Z"/>
      <path class="cls-2" d="m33.1,39c2.7,2.4,2.3,4.6-1,5.9-12.6,5.1-14.7,8.4-15.1,22.1-.2,7.3,1.6,14.9-1.8,22,0-12.9-.3-25.8-.2-38.7,0-5.8,5.9-10.7,12.7-11.1,1.8-.1,3.6,0,5.5-.1Z"/>
      <path class="cls-4" d="m313.6,317.4c-1-4,1.8-8.8,6.4-11.1,1.3-.7,2.7-1.2,4.1-1.6,5.4-1.6,10.9-3,14.1-8.3.3,9-7.4,16.9-17.1,16.9-3.6,0-5.9,1.1-7.6,4.1Z"/>
      <path class="cls-5" d="m125.8,339.1c1.5-1,3.2-.6,4.8-.6,48.4,0,96.9,0,145.3,0,2,0,4-.4,5.8.7-.8,0-1.6.2-2.5.2-50.2,0-100.4,0-150.6,0-1,0-2-.2-3-.3Z"/>
      <path class="cls-5" d="m14.9,130.8c0,1.7.3,3.3.3,5,0,43.7,0,87.4,0,131.1,0,1.9.8,4-.8,5.7,0-46.3,0-92.6,0-138.9,0-.9.4-1.9.7-2.8Z"/>
      <path class="cls-5" d="m339.5,105c.2-.2.4-.4.7-.4.5,12.1,1,24.3-.4,36.4,0-12-.2-24-.2-35.9Z"/>
      <path class="cls-5" d="m14.8,88.9c.6,11.3.5,22.7,0,34-1.5-6.5-.6-13.2-.6-19.7,0-4.7-.9-9.6.5-14.3Z"/>
      <path class="cls-5" d="m285.5,339.2c4-1.3,8.1-.6,12.2-.6-4,1.5-8.1.7-12.2.6Z"/>
      <path class="cls-4" d="m338.6,287.6c.2-.4.4-.7.6-1.1.3.6-.2.9-.6,1.1Z"/>
    </g>
  </g>
</svg>