<?xml version="1.0" encoding="UTF-8"?>
<svg id="Layer_2" data-name="Layer 2" xmlns="http://www.w3.org/2000/svg" width="176.6" height="174.1" viewBox="0 0 176.6 174.1">
  <defs>
    <style>
      .cls-1 {
        fill: #cba0dd;
      }

      .cls-2 {
        fill: #ffa1e9;
      }

      .cls-3 {
        fill: #ea5ebb;
      }

      .cls-4 {
        fill: #f2dafe;
      }

      .cls-5 {
        fill: #3d0020;
      }

      .cls-6 {
        fill: #e7bcfc;
      }

      .cls-7 {
        fill: #d795ba;
      }

      .cls-8 {
        fill: #ffbbe1;
      }

      .cls-9 {
        fill: #f47fd3;
      }

      .cls-10 {
        fill: #dd4ba9;
      }

      .cls-11 {
        fill: #b6bccb;
      }

      .cls-12 {
        fill: #c9037c;
      }
    </style>
  </defs>
  <g id="Top">
    <g>
      <g>
        <path class="cls-5" d="m87.2,171.4c-44.4,0-81-35.9-80.6-81.7C7,45.5,42.6,9.2,88.2,9.5c44.7.3,81.7,36.3,80.2,84.4-1.3,41.7-36.6,78-81.2,77.5ZM24.3,68.9c-1,.4-.9,1.2-.8,2.1-1.3,1.5-1.1,3.3-1.1,5-.2.2-.7.4-.7.6-3.2,17.3-.7,33.5,8.5,48.7,15.7,25.9,44,37,72.7,30.7,14.1-3.1,25.6-10.5,35.1-21.2,9.4-10.6,14.9-22.9,16.2-37,.4-8,1.1-16.1-1.8-23.8-.8-7.1-4.2-13-7.9-18.9-12.4-20-31.1-29.7-53.9-31.6-17.5-1.4-33.2,4.5-46.5,15.7-9.4,7.9-16.6,17.7-19.9,29.9h.1Z"/>
        <path class="cls-6" d="m22.4,76c0-1.7-.2-3.6,1.1-5,.7-.5.9-1.2.8-2.1,0,0-.1,0-.1,0,1.9.2,2.6-1.1,3.3-2.4,9.6-16.9,24.2-25.9,43.3-28.5,20.1-2.8,38.5,1.6,55.8,11.7,10.4,6.1,18.3,15,25.8,24.3,2.9,7.8,2.2,15.8,1.8,23.8-3.1,1.8-3.7,5.3-5.2,8.2-13.5,26.4-43,41-72.1,35.5-27.4-5.3-49.7-24.4-53.3-54.3-.5-3.7.8-7.6-1.2-11.2Z"/>
        <path class="cls-1" d="m22.4,76c2.1,3.5.8,7.4,1.2,11.2,3.6,29.9,25.9,49.1,53.3,54.3,29.1,5.6,58.6-9.1,72.1-35.5,1.5-2.9,2.1-6.4,5.2-8.2-1.3,14.1-6.8,26.4-16.2,37-9.5,10.7-21.1,18.1-35.1,21.2-28.6,6.3-57-4.8-72.7-30.7-9.2-15.1-11.8-31.4-8.5-48.7,0-.2.5-.4.7-.6Z"/>
        <path class="cls-4" d="m152.4,74c-7.5-9.3-15.3-18.1-25.8-24.3-17.3-10.2-35.7-14.5-55.8-11.7-19,2.7-33.7,11.6-43.3,28.5-.7,1.3-1.5,2.6-3.3,2.4,3.3-12.2,10.5-22,19.9-29.9,13.4-11.2,29-17.1,46.5-15.7,22.8,1.9,41.5,11.6,53.9,31.6,3.7,5.9,7.1,11.9,7.9,18.9Z"/>
        <path class="cls-11" d="m24.3,68.9c.2.9,0,1.6-.8,2.1-.2-.9-.3-1.7.8-2.1Z"/>
      </g>
      <g>
        <path class="cls-5" d="m139.9,109.5c6.6,7,12.2,14.6,13.9,24.1,1.5,8.2,1.4,16.5-2.1,24.4-1.3,2.9-3.6,5.6-6.3,5.3-4.7-.5-5.7,1.9-7,5.5-1.8,4.9-7,6.1-14.4,4.5-14.9-3.5-26.7-11.2-34.3-24.8-1.6-2.8-2.5-2.1-4,.3-6,10.1-14.1,17.8-25.4,21.7-5.8,2-11.8,3.4-18.1,3-4.3-.3-4.1-4-5.4-6.6-1-2-1.5-3.7-4.7-3.6-4.6.2-9.1-5.5-10.3-10.8-1.5-6.4,0-12.5.5-18.8.8-10.2,6.7-17.3,14.2-24.1-12.9-3.1-22.8-9.6-31.2-18.7C1.2,86.4-.5,81.1.1,75c0-.6.1-1.6.5-1.8,5.1-2.8,3.7-6.9,2.5-11.3-1.6-5.9,4.7-11.6,11-14.6,11.1-5.4,22.9-5.4,34.7-2.7,4.3,1,5.1,0,4.9-4.2-.7-15.6,5.7-28.3,17.1-38.5,3.9-3.5,11.2-2.2,14.3,2.4,2,3.1,2.8,3.9,5.1.2,4.5-7,14.1-4.8,17.8-.2,5.6,7.1,10.9,14.5,12.8,23.6,1,4.6,2.1,9.2,1.7,14-.3,3.1.9,3.5,3.7,2.9,14.9-3.3,29.3-3.2,42,7.1,5,4.1,6.2,7.6,3.4,13.3-.7,1.5-2,2.7,0,4.6,5.6,5.3,6.2,9.2,2,16.1-7.7,12.7-19.8,19.3-33.9,23.4Zm-20.2-.8c-2-2.3-4.1-4.5-6.1-6.8,0-1.3,0-2.7.1-4,4.5-2.1,9-.2,13.4-.1,11.7.1,22-3.8,30.4-12.2,1.8-1.9,4.6-3.7,5.1-5.9.4-1.9-4-1.1-5.2-3.3-.1-.2-.5-.4-.8-.5-1.6-2-2.3-4.3-2.2-6.9.7-1.4,1.2-3.2,2.2-4.3,3.1-3.2,1.1-4.4-1.7-5.9-3.2-1.7-6.6-1.3-9.9-2-12.5-2.7-22.9.9-31.5,10.2-1.8-.1-2.5,1.4-3.6,2.3-3.1,2.2-6.1,2.7-9.1-.2-.7-3.8,1.6-6.7,2.7-10,8.2-11.7,7.5-24,1.8-36.4-4.4-9.4-5.6-9.5-13-2.5-3.2,3-6.3,3.1-9.4,0-1.3-1.3-2.7-2.5-3.8-3.9-2-2.5-3.6-1.3-5,.4-7.6,9.5-8.3,20.7-7,32,.3,2.2.8,5.2,3.6,6.6-.1,3.3,2,5.7,3.3,8.4,1.3,2.6,1.2,5-.5,6.7-1.7,1.6-4.2.8-6.4,0-1.5-.6-2.3-2.5-4.2-2.3-10.9-12-24.4-14.2-39.3-10.1-7.2,2-7.3,2.6-3.5,8.6.2.3.5.4.7.6.4,3.5.5,6.8-1.9,9.8-1.3,1.8-8.3-.4-4.2,5,6.1,8.1,14.5,12.8,24.5,15.1,6.6,1.5,13,.2,19.5,0,1.7.5,3.6.9,4.3,2.9-.5,3.2-3.8,4.3-5.2,6.9-2.2.9-3.6,2.9-5.2,4.3-7.3,6.3-15.6,11.9-17.3,22.5-1.5,3.2-1.5,6.6-1.5,10.1-2.3,2.8-.5,5.7.8,7.9,1,1.7,3.3-.3,5-.7,1.1-.3,2.2-.2,3.4-.3h.5c0,.1.5,0,.5,0,2.6,1.4,3.7,3.6,4,6.5.6,7,1.6,7.4,7.7,3.4,1-.6,1.9-1.2,2.9-1.7,12.4-5.8,19.8-15.4,22.2-28.9,1.4-1.6,3-3,4.2-4.7,2.3-3.1,4.4-2.7,6.8-.2,1.5,3.4,3.8,6.4,4.7,10.1,3.4,14.2,14.8,20.8,26.3,27.1,2.7,1.5,4.6,1.1,5.4-2.8.5-2.5-.5-5.4,1.6-7.5,3.2-2.3,6.3-.8,9.3.3,1.8.6,3.3.7,3.4-1.1.4-8.1.8-16.2-4.6-23.2-3.8-8.5-10.5-14.1-18-19.1Z"/>
        <path class="cls-2" d="m73.8,45.2c-1,3.4-1.4,6.9-3.1,10-2.8-1.3-3.3-4.3-3.6-6.6-1.3-11.4-.7-22.5,7-32,1.4-1.7,3.1-2.9,5-.4,1.1,1.4,2.6,2.6,3.8,3.9,3.1,3.2,6.2,3.1,9.4,0,7.3-6.9,8.6-6.8,13,2.5,5.7,12.3,6.4,24.6-1.8,36.4-.6-1-1.2-2-1.8-3,0-3.6,0-7.2-.1-10.9.6-5.5-1.3-10.4-3.9-15-.9-1.6-1.8-3.2-4.2-2.5-3.6,1.1-6.8.1-9.8-2-1.8-1.3-3-1-4.7.5-5.7,5.3-5.4,12-5.3,18.8Z"/>
        <path class="cls-9" d="m106.8,136.8c11.8,1.4,16.9-6.5,15.9-19,2.1,0,2.9,1.9,4.4,2.8,3.6,2.3,6,6.6,10.7,7.1,5.4,7,5.1,15.1,4.6,23.2,0,1.7-1.6,1.7-3.4,1.1-3-1.1-6.2-2.5-9.3-.3-10.2-1-17.5-6.5-22.9-14.9Z"/>
        <path class="cls-9" d="m132.6,89.1c4.7-9.9,1.4-17.1-9.2-19.8-1.9-.5-3.9-.8-5.8-1.2,4-4.5,9.6-4.1,14.7-4.8,8-1.1,14.9,2.9,22,5.9,0,2.6.7,4.8,2.2,6.9,0,1.7-1,2.8-2.2,3.7-6.3,5.3-13.3,9.2-21.8,9.4Z"/>
        <path class="cls-9" d="m58,68c-1.7.4-3.5.8-5.2,1.1-9.9,1.8-18.4,6.2-12.8,19.9-8.5-1.4-15.2-5.9-21-12.1,2.4-2.9,2.3-6.3,1.9-9.8,8.2-3.3,16.7-4.9,25.4-4,4.3.4,8.8.6,11.6,4.8Z"/>
        <path class="cls-10" d="m106.8,136.8c5.4,8.4,12.7,13.9,22.9,14.9-2.1,2.1-1.1,5.1-1.6,7.5-.8,3.9-2.7,4.3-5.4,2.8-11.5-6.3-22.9-12.9-26.3-27.1-.9-3.7-3.1-6.7-4.7-10.1,2.5-2.3,4.2,0,5.8,1.3,3.8,2.9,6,7.2,9.2,10.6Z"/>
        <path class="cls-9" d="m51.8,120.8c.2,5.2-.5,10.5,2.2,15.4,1.8,3.3,4,6,8,6.6-.2,2-2,2.3-3.4,3.1-4.5,2.6-9.7,3.4-14.7,4.6h-.5c0,.1-.5,0-.5,0-1.4-4.5-5.7-5.1-9.1-6.8,0-3.4,0-6.9,1.5-10.1,2.6.4,3.7-1.7,5.2-3,3.9-3.2,6.3-7.9,11.2-9.9Z"/>
        <path class="cls-10" d="m43.9,150.5c5-1.2,10.1-2,14.7-4.6,1.4-.8,3.2-1.1,3.4-3.1,5.7,0,9.3-3.7,12.6-7.7,1.8-2.1,3-4.8,6.1-5.3-2.4,13.5-9.8,23.1-22.2,28.9-1,.5-2,1.1-2.9,1.7-6.1,3.9-7,3.5-7.7-3.4-.3-2.9-1.4-5.1-4-6.5Z"/>
        <path class="cls-10" d="m132.6,89.1c8.6-.2,15.5-4.1,21.8-9.4,1.1-1,2.2-2,2.2-3.7.3.2.7.3.8.5,1.2,2.2,5.5,1.4,5.2,3.3-.4,2.2-3.2,4-5.1,5.9-8.3,8.5-18.7,12.4-30.4,12.2-4.5,0-9-2-13.4.1-2,0-3-1.1-2.9-3.1,0-1.8,1.2-2.7,2.8-2.9,5-.7,10-1.3,14.9-1.9,1.4-.2,3,.4,4.1-1Z"/>
        <path class="cls-2" d="m154.4,69.1c-7.1-2.9-14-6.9-22-5.9-5.1.7-10.8.3-14.7,4.8-1.4,0-3,.5-4.1-.9,8.6-9.2,19-12.9,31.5-10.2,3.3.7,6.7.3,9.9,2,2.9,1.6,4.8,2.7,1.7,5.9-1.1,1.1-1.5,2.8-2.2,4.3Z"/>
        <path class="cls-10" d="m19,76.9c5.7,6.2,12.5,10.7,21,12.1,4,3.6,9.3,3.3,13.9,5,1.8.7,4.5.1,4.9,3-6.5.2-12.9,1.6-19.5,0-10-2.3-18.4-7.1-24.5-15.1-4.1-5.4,2.8-3.3,4.2-5Z"/>
        <path class="cls-2" d="m58,68c-2.8-4.1-7.4-4.4-11.6-4.8-8.8-.9-17.3.7-25.4,4-.2-.2-.5-.4-.7-.6-3.8-6-3.7-6.6,3.5-8.6,15-4.1,28.4-1.9,39.3,10.1-1.7,0-3.4,0-5.1,0Z"/>
        <path class="cls-2" d="m51.8,120.8c-4.9,1.9-7.3,6.7-11.2,9.9-1.6,1.3-2.7,3.4-5.2,3,1.7-10.6,10-16.3,17.3-22.5,1.7-1.4,3-3.4,5.2-4.3.4,1,.7,2.1,1.1,3.1-2.4,3.6-6.6,6-7.1,10.9Z"/>
        <path class="cls-2" d="m137.8,127.8c-4.8-.5-7.1-4.8-10.7-7.1-1.5-.9-2.3-2.8-4.4-2.8,0-1.7-1.4-2.6-2.1-3.9-.3-1.7-.6-3.5-.9-5.2,7.5,4.9,14.3,10.6,18,19.1Z"/>
        <path class="cls-10" d="m33.9,143.7c3.5,1.7,7.7,2.3,9.1,6.8-1.1.1-2.3,0-3.4.3-1.7.4-4,2.4-5,.7-1.3-2.2-3.1-5-.8-7.9Z"/>
        <path class="cls-2" d="m119.7,108.7c.3,1.7.6,3.5.9,5.2-4.2-1.8-6.1-5.9-9-8.9-1.8-1.8.2-2.7,2-3.1,2,2.3,4.1,4.5,6.1,6.8Z"/>
        <path class="cls-2" d="m58.9,109.9c-.4-1-.7-2.1-1.1-3.1,1.4-2.6,4.7-3.6,5.2-6.9,4,1.1,3.5,3.5,1.3,5.8-1.5,1.6-3.6,2.8-5.4,4.2Z"/>
        <path class="cls-8" d="m101.8,56.2c.6,1,1.2,2,1.8,3-1.1,3.3-3.4,6.2-2.7,10-2.6-4.5-.5-8.7.9-12.9Z"/>
        <path class="cls-3" d="m123.4,69.2c-1.9-.5-3.9-.8-5.8-1.2-1.4,0-3,.5-4.1-.9-1.8-.1-2.5,1.4-3.6,2.3-3.1,2.2-6.1,2.7-9.1-.2-2.6-4.5-.5-8.7.9-12.9,0-3.6,0-7.2-.1-10.9-2.9-.4-4.1-3.2-6.4-4.4-8.8-4.6-14.9-3.5-21.4,4.3-1,3.4-1.4,6.9-3.1,10-.1,3.3,2,5.7,3.3,8.4,1.3,2.6,1.2,5-.5,6.7-1.7,1.6-4.2.8-6.4,0-1.5-.6-2.3-2.5-4.2-2.3-1.7,0-3.4,0-5.1,0-1.7.4-3.5.8-5.2,1.1-9.9,1.8-18.4,6.2-12.8,19.9,4,3.6,9.3,3.3,13.9,5,1.8.7,4.5.1,4.9,3,1.7.5,3.6.9,4.3,2.9,4,1.1,3.5,3.5,1.3,5.8-1.5,1.6-3.6,2.8-5.4,4.2-2.4,3.6-6.6,6-7.1,10.9.2,5.2-.5,10.5,2.2,15.4,1.8,3.3,4,6,8,6.6,5.7,0,9.3-3.7,12.6-7.7,1.8-2.1,3-4.8,6.1-5.3,1.4-1.6,3-3,4.2-4.7,2.3-3.1,4.4-2.7,6.8-.2,2.5-2.3,4.2,0,5.8,1.3,3.8,2.9,6,7.2,9.2,10.6,11.8,1.4,16.9-6.5,15.9-19,0-1.7-1.4-2.6-2.1-3.9-4.2-1.8-6.1-5.9-9-8.9-1.8-1.8.2-2.7,2-3.1,0-1.3,0-2.7.1-4-2,0-3-1.1-2.9-3.1,0-1.8,1.2-2.7,2.8-2.9,5-.7,10-1.3,14.9-1.9,1.4-.2,3,.4,4.1-1,4.7-9.9,1.4-17.1-9.2-19.8Zm-23.5,11.9c.2.3.5.6.7,1,0,.3.2.7.3,1-.4,3.5,1.4,6.7.9,10.2-.4,3.2-1.3,6-4.7,6.6-3.7.7-5.5-1.6-6.5-5.1-2-6.6-.3-13.6,4.1-15.9,1.9.2,4.2-.3,5.2,2.2Zm-27.6,10.8c-1.1-3.3-.3-6,3.6-7,5.9.3,11.3,6.4,10.9,12.4-.1,1.8-.7,3.8-2.5,4.5-1.8.7-3.8.6-5.4-1.1-.9-.9-2-1.7-3-2.5-1.2-2.1-2.8-4-3.5-6.3Zm7,13.1s0,0,0,0c0,0,0,0,0,0Zm1.4,1.2c.9.7,1.9,1.3,3,1.7-1.1-.4-2.1-1-3-1.7Z"/>
        <path class="cls-9" d="m73.8,45.2c0-6.8-.4-13.6,5.3-18.8,1.6-1.5,2.9-1.8,4.7-.5,2.9,2.1,6.2,3.1,9.8,2,2.4-.8,3.3.9,4.2,2.5,2.6,4.6,4.5,9.5,3.9,15-2.9-.4-4.1-3.2-6.4-4.4-8.8-4.6-14.9-3.5-21.4,4.3Z"/>
        <path class="cls-12" d="m100.9,83.1c-.4,3.5,1.4,6.7.9,10.2-.4,3.2-1.3,6-4.7,6.6-3.7.7-5.5-1.6-6.5-5.1-2-6.6-.3-13.6,4.1-15.9,1.9.2,4.2-.3,5.2,2.2-.2.6.2.9.7,1,0,.3.2.7.3,1Z"/>
        <path class="cls-12" d="m75.9,84.8c5.9.3,11.3,6.4,10.9,12.4-.1,1.8-.7,3.8-2.5,4.5-1.8.7-3.8.6-5.4-1.1-.9-.9-2-1.7-3-2.5-1.2-2.1-2.8-4-3.5-6.3-1.1-3.3-.3-6,3.6-7Z"/>
        <path class="cls-7" d="m100.6,82.1c-.5,0-.9-.3-.7-1,.2.3.5.6.7,1Z"/>
      </g>
    </g>
  </g>
</svg>