<?xml version="1.0" encoding="UTF-8"?>
<svg id="Layer_2" data-name="Layer 2" xmlns="http://www.w3.org/2000/svg" width="604.1" height="122.4" viewBox="0 0 604.1 122.4">
  <defs>
    <style>
      .cls-1 {
        fill: #fff;
      }

      .cls-2 {
        fill: #d67bb8;
      }
    </style>
  </defs>
  <g id="Middle">
    <g>
      <g>
        <path class="cls-1" d="m44.6,117c-4.5,0-8.8-.6-12.9-1.7-4.1-1.1-7.5-2.5-10.2-4.3-5.1-3.1-8.7-6.1-10.9-9.3l-1.1-1.3c-3-3.7-4.5-7.2-4.5-10.6s2.3-7.6,7.1-12.4c3.1-3,6.6-4.5,10.4-4.5s8.2,2.5,13.7,8l.2.2.2.2c.8,1,2.2,2.1,3.9,3.1,1.4.9,2.7,1.3,3.7,1.3,7.1,0,7.1-2.7,7.1-4.9,0,0-.2-.3-.9-.7-1.7-1-3.9-1.8-6.6-2.3-3.5-.6-7.4-1.7-11.4-3.1-4.1-1.4-7.9-3.1-11.4-5.1-4.1-2.3-7.5-5.8-10.2-10.6-2.6-4.7-4-10.3-4-16.7s3.4-16.9,10-23.5,15.6-10,26.7-10,11,.8,15.7,2.2c5,1.6,8.3,3.1,10.5,5l3.4,2.6.2.2c3.8,3.6,5.6,6.8,5.6,10s-1.3,6-4,10c-3.9,5.7-8.4,8.7-13.2,8.7s-5.9-1.1-9.5-3.4c-.4-.3-1-.7-2.2-1.9-.5-.5-.9-.9-1.3-1.2-1-.6-2.4-.9-4.2-.9s-3.1.4-4.1,1.1c-.5.4-.7.7-.7,1.5s0,.9,1.1,1.6c1.6,1.1,3.7,1.8,6.3,2.2,3.5.5,7.3,1.4,11.3,2.5,4.2,1.2,8.1,2.6,11.6,4.3,4.2,2,7.7,5.4,10.5,10.2,2.6,4.6,4,10.2,4,16.7s-1.3,12.2-4,17.2c-2.7,5-6.2,9-10.6,11.8-7.8,5.1-16.3,7.7-25.2,7.7Z"/>
        <path class="cls-2" d="m43.4,13.9c5.2,0,9.9.7,14.2,2,4.3,1.3,7.3,2.7,8.9,4.1l3.2,2.5c2.7,2.5,4,4.6,4,6.4s-1,4.1-3.1,7.2c-2.9,4.3-6,6.5-9.1,6.5s-4.1-.9-6.8-2.6c-.3-.2-.8-.6-1.5-1.3-.7-.7-1.4-1.3-2-1.7-1.8-1.1-4.1-1.7-7-1.7s-5.2.7-7,2c-1.9,1.3-2.8,3.2-2.8,5.6s1.1,4.3,3.3,5.8c2.2,1.5,5,2.5,8.3,3,3.3.5,6.9,1.3,10.8,2.4,3.9,1.1,7.5,2.4,10.8,4,3.3,1.6,6,4.3,8.3,8.1,2.2,3.9,3.3,8.6,3.3,14.2s-1.1,10.6-3.4,14.9c-2.3,4.3-5.2,7.6-8.8,9.9-7,4.6-14.5,6.9-22.5,6.9s-7.9-.5-11.6-1.5c-3.6-1-6.6-2.2-8.8-3.7-4.6-2.8-7.8-5.5-9.6-8.1l-1.2-1.4c-2.3-2.8-3.4-5.3-3.4-7.5s1.9-5.1,5.6-8.8c2.2-2.1,4.5-3.1,6.9-3.1s5.8,2.2,10.1,6.5c1.2,1.5,2.9,2.9,5.2,4.2,2.3,1.3,4.3,2,6.2,2,8.1,0,12.1-3.3,12.1-9.9s-1.1-3.7-3.3-5c-2.2-1.3-5-2.3-8.3-2.9-3.3-.6-6.8-1.6-10.7-2.9-3.8-1.3-7.4-2.9-10.7-4.7-3.3-1.8-6-4.7-8.3-8.6-2.2-3.9-3.3-8.7-3.3-14.2s2.8-14.3,8.5-20c5.7-5.7,13.4-8.5,23.2-8.5m0-10c-12.5,0-22.7,3.9-30.3,11.4C5.5,22.9,1.7,32,1.7,42.4s1.5,13.7,4.6,19.1c2,3.5,4.3,6.5,7.1,8.9-1.5.9-3.1,2-4.7,3.5h0s0,0,0,0c-3.7,3.6-8.6,9.2-8.6,15.9s1.9,9.2,5.6,13.8l1,1.2c2.6,3.6,6.7,7.1,12.3,10.5,3.1,2,6.9,3.6,11.5,4.9,4.5,1.2,9.3,1.8,14.2,1.8,9.9,0,19.3-2.9,27.9-8.5,5.1-3.3,9.2-7.9,12.3-13.7,3-5.7,4.5-12.3,4.5-19.5s-1.6-13.8-4.6-19.2c-3.2-5.6-7.4-9.7-12.5-12.1,2.5-1.8,4.8-4.2,6.9-7.4,3.3-4.8,4.9-8.9,4.9-12.8,0-6.9-5.4-12-7.2-13.7l-.4-.4-.4-.3-3.1-2.4c-2.7-2.2-6.6-4.1-12.1-5.8-5.2-1.6-11-2.5-17.2-2.5h0Z"/>
      </g>
      <g>
        <path class="cls-1" d="m148.6,115.6c-2.5,0-9.6,0-13.3-4.4-.3.2-.5.4-.8.6h-.1c-3.8,2.5-7.9,3.8-12.3,3.8-10.2,0-18.8-3.9-25.5-11.7-6.5-7.5-9.9-16.8-9.9-27.5v-22.8c0-2.4,0-4,.2-5.2.2-1.5.7-3,1.5-4.8v-.2c3.3-6.2,11.9-6.2,14.7-6.2,10.4,0,14.1,4.5,15.4,8.3.7,2,1.1,4.6,1.1,8.3v22.8c0,3.2,1.2,4.4,1.6,4.7.7.7,1.9,1.6,4.7,1.6s4.1-1,4.8-1.7c.7-.7,1.7-2,1.7-4.6v-23c0-2.2,0-3.9.2-5.1.2-1.6.8-3.3,1.8-5.1,3.1-6.1,11.6-6.1,14.4-6.1s11.2,0,14.4,6.2v.2c.9,1.8,1.4,3.4,1.6,4.9.2,1.2.2,2.9.2,5.1v46c0,2.1,0,3.8-.2,5-.2,1.7-.8,3.3-1.9,5.1-3.4,5.9-11.6,5.9-14.4,5.9Z"/>
        <path class="cls-2" d="m148.7,42.1c5.5,0,8.8,1.2,10,3.5.6,1.3,1,2.4,1.1,3.4.1,1,.2,2.5.2,4.5v46c0,1.9,0,3.4-.2,4.4-.1,1-.5,2.1-1.2,3.3-1.3,2.3-4.6,3.4-10,3.4s-8.5-1-9.8-3.1c-.9-1.5-1.3-3.2-1.3-5.3-.3.6-1.1,1.5-2.3,2.6-1.2,1.1-2.4,2.1-3.5,2.9-2.9,1.9-6.2,2.9-9.6,2.9-8.8,0-16-3.3-21.8-9.9-5.8-6.6-8.6-14.7-8.6-24.2v-22.8c0-2.1,0-3.6.2-4.5.1-1,.5-2.1,1.1-3.4,1.2-2.3,4.6-3.5,10.1-3.5s9.6,1.6,10.7,4.9c.5,1.4.8,3.6.8,6.6v22.8c0,3.6,1,6.3,3.1,8.3,2,2,4.8,3,8.2,3s6.2-1,8.3-3.1c2.1-2.1,3.2-4.8,3.2-8.2v-23c0-2,0-3.5.2-4.5.1-1,.5-2.1,1.2-3.4,1.1-2.3,4.5-3.4,10-3.4m0-10c-9.5,0-15.9,3-18.9,8.8-1.2,2.4-2,4.6-2.3,6.8-.2,1.5-.3,3.3-.3,5.8v23c0,.2,0,.9-.2,1-.2.2-.9.3-1.3.3-.6,0-1,0-1.1-.1,0-.2-.1-.6-.1-1.2v-22.8c0-4.2-.4-7.4-1.3-9.9-1.5-4.5-6.1-11.7-20.1-11.7s-16,3-19,8.9v.2c0,0-.2.2-.2.2-1,2.2-1.7,4.3-2,6.3-.2,1.4-.3,3.3-.3,5.9v22.8c0,12,3.7,22.3,11.1,30.8,7.6,8.8,17.7,13.4,29.3,13.4s8.8-1,12.7-3.1c5,3.2,11.3,3.2,13.8,3.2,9.2,0,15.5-2.8,18.7-8.4,1.4-2.4,2.2-4.7,2.5-7,.2-1.5.3-3.3.3-5.6v-46c0-2.5,0-4.3-.3-5.8-.3-2-.9-4.1-2-6.4v-.2c0,0-.2-.2-.2-.2-3.1-5.9-9.4-8.9-18.9-8.9h0Z"/>
      </g>
      <g>
        <path class="cls-1" d="m185.6,115.6c-2.8,0-11.2,0-14.4-6.2v-.2c-.9-1.8-1.4-3.4-1.6-4.9-.2-1.2-.2-2.9-.2-5.1V21.6c0-2.2,0-3.9.2-5.1.2-1.5.7-3.2,1.6-4.9,3.3-6.3,11.8-6.3,14.6-6.3s11.2,0,14.3,6.2c1,1.8,1.5,3.5,1.7,5.1.2,1.2.2,2.9.2,5.1v17.4c2.9-1.1,6.2-1.7,9.8-1.7,9.1,0,17.5,4,24.9,11.8,7.3,7.8,11,17,11,27.3s-3.7,19.5-11,27.2c-7.4,7.8-15.5,11.8-24.3,11.8s-10.7-1.2-14.6-3.5c-2.4,2.1-6.2,3.7-12.3,3.7Zm23-45.5c-2.5,0-3.7,1-4.4,1.9-1.3,1.5-1.9,3-1.9,4.7s.6,3,1.9,4.4c1.2,1.3,2.5,1.9,4.3,1.9s3.3-.6,4.6-2c1.8-1.8,2-3.4,2-4.3,0-1.6-.6-3.1-1.9-4.6-1.1-1.3-2.5-1.9-4.6-1.9Z"/>
        <path class="cls-2" d="m185.8,10.3c5.5,0,8.8,1.2,9.9,3.5.7,1.3,1.1,2.5,1.2,3.4.1,1,.2,2.5.2,4.5v27c3.5-4.2,8.4-6.4,14.8-6.4s14.8,3.4,21.3,10.3c6.5,6.8,9.7,14.8,9.7,23.9s-3.2,17-9.6,23.8c-6.4,6.8-13.3,10.2-20.7,10.2s-12.6-2.1-15.7-6.2c-.7,4.2-4.4,6.4-11.2,6.4s-8.8-1.2-10-3.5c-.6-1.3-1-2.4-1.1-3.4-.1-1-.2-2.5-.2-4.5V21.6c0-2,0-3.5.2-4.5.1-1,.5-2.1,1.1-3.3,1.2-2.3,4.6-3.5,10.1-3.5m22.8,77.6c3.2,0,5.9-1.2,8.2-3.5,2.3-2.3,3.4-4.9,3.4-7.8s-1-5.5-3.1-7.9c-2.1-2.4-4.9-3.6-8.3-3.6s-6.2,1.2-8.3,3.6c-2,2.4-3.1,5-3.1,7.9s1.1,5.4,3.2,7.7c2.1,2.3,4.8,3.5,8,3.5M185.8.3c-9.6,0-16,3-19,8.9h0c0,0,0,.1,0,.1-1.1,2.2-1.8,4.4-2.1,6.5-.2,1.5-.3,3.3-.3,5.8v77.6c0,2.5,0,4.3.3,5.8.3,2,.9,4.1,2,6.4v.2c0,0,.2.2.2.2,3.1,5.9,9.4,8.9,18.9,8.9s9.7-1.2,12.7-2.9c3.7,1.6,8.3,2.7,14.2,2.7,10.2,0,19.6-4.5,27.9-13.3,8.2-8.7,12.3-19,12.3-30.6s-4.2-22-12.4-30.7c-8.4-8.9-18-13.4-28.5-13.4s-3.3.1-4.8.3v-11c0-2.5,0-4.3-.3-5.8-.3-2.2-1-4.4-2.2-6.7-3-5.9-9.3-9-18.8-9h0Zm22.3,74.9c0,0,.3,0,.6,0,.5,0,.7,0,.7,0,0,0,0,0,0,0,.7.7.7,1.1.7,1.3s-.4.7-.6.9c-.4.4-.6.4-1,.4s-.4,0-.4,0c0,0,0,0-.2-.2-.6-.7-.6-.9-.6-1,0-.2,0-.6.7-1.4,0,0,0,0,0,0h0Z"/>
      </g>
      <g>
        <path class="cls-1" d="m290.1,115.8c-10.2,0-18.2-2.5-23.8-7.3-5.8-5-8.7-13.3-8.7-24.4v-13.9c-.1,0-.2,0-.3,0-3.4,0-6.3-1.4-8.6-4-2.1-2.4-3.1-6-3.1-10.8s.3-7,.8-9c.7-2.6,1.8-4.5,3.3-5.9h.2c2.1-1.9,4.7-2.8,7.6-2.9v-7.9c0-2.2,0-3.9.2-5.1.2-1.6.8-3.3,1.8-4.9,3.2-5.8,11.6-5.8,14.4-5.8,10.2,0,13.9,4.4,15.2,8.2v.2c.7,1.9.9,4.5.9,8.1v7.3c1.4,0,2.6-.1,3.6-.1,2.2,0,3.8,0,5.1.2,1.6.2,3.3.8,5.1,1.8,6.1,3.1,6.1,11.6,6.1,14.4s0,11.2-6.2,14.4h-.2c-1.8.9-3.4,1.4-4.9,1.6-1.2.2-2.9.2-5.1.2h-.2l-3.3-.2v12.6c0,.7,0,1.3.1,1.6,0,0,.1,0,.2,0,2.3,0,4,0,5.3.2,1.7.2,3.5.8,5.3,1.9,5.5,3.1,5.5,10.6,5.5,13.1,0,7.5-2.2,12.4-6.4,14.5h-.1c-1.8.9-3.4,1.4-4.9,1.6-1.2.2-2.9.2-5,.2Z"/>
        <path class="cls-2" d="m274,18.8c5.9,0,9.4,1.6,10.5,4.8.4,1.4.7,3.6.7,6.6v12.7c3.8-.3,6.7-.5,8.6-.5s3.4,0,4.4.2c1,.1,2.1.5,3.4,1.2,2.3,1.1,3.4,4.5,3.4,10s-1.2,8.8-3.5,10c-1.3.6-2.4,1-3.4,1.1-1,.1-2.5.2-4.5.2l-8.5-.5v17.9c0,2.3.4,4,1.1,5.1.7,1,2.1,1.6,4.2,1.6s3.6,0,4.7.2c1.1.1,2.2.5,3.4,1.2,2,1.1,3,4,3,8.7s-1.2,8.8-3.6,10c-1.3.6-2.5,1-3.4,1.1-1,.1-2.4.2-4.4.2-9,0-15.9-2-20.5-6.1-4.7-4.1-7-11-7-20.7v-19.2c-1.6.3-3.4.4-5.3.4s-3.5-.7-4.7-2.2c-1.3-1.5-1.9-4-1.9-7.5s.2-6.1.7-7.7c.4-1.6,1-2.8,1.8-3.4,1.4-1.1,3.1-1.7,5.2-1.7l4.3.5v-13.4c0-2,0-3.5.2-4.4.1-1,.5-2,1.2-3.1,1.1-2.2,4.5-3.2,10-3.2m0-10c-3.5,0-14.1,0-18.7,8.3-1.3,2.2-2.2,4.5-2.5,6.7-.2,1.4-.3,3.3-.3,5.8v3.7c-2.1.7-4.1,1.7-5.8,3.1h-.2c0,.1-.2.3-.2.3-2.3,2-3.9,4.8-4.8,8.3-.7,2.5-1,5.8-1,10.3s1.4,10.7,4.3,14c2.1,2.5,4.7,4.2,7.7,5v9.5c0,12.7,3.5,22.2,10.5,28.2,6.5,5.7,15.6,8.6,27.1,8.6s4.2,0,5.6-.3c2-.3,4.1-.9,6.4-2h.1c0,0,.1-.1.1-.1,6.1-3,9.2-9.4,9.2-19s-2.7-14.4-8.1-17.4c-2.3-1.3-4.8-2.2-7.2-2.5-.4,0-.7,0-1.1-.1v-4.2c1.7,0,3.1-.1,4.2-.3,2-.3,4.1-.9,6.4-2h.2c0,0,.2-.2.2-.2,5.9-3.1,8.9-9.4,8.9-18.9s-3-15.9-8.8-18.9c-2.4-1.2-4.6-2-6.8-2.3-1.2-.2-2.6-.2-4.4-.3v-2.2c0-4.1-.4-7.2-1.1-9.6v-.2c0,0-.1-.2-.1-.2-1.5-4.3-6.1-11.5-20-11.5h0Z"/>
      </g>
      <g>
        <path class="cls-1" d="m327.5,115.8c-2.8,0-11.2,0-14.4-6.2v-.2c-.9-1.8-1.4-3.4-1.6-4.8-.2-1.2-.2-2.9-.2-5.2v-45.6c0-2.2,0-3.9.2-5.1.2-1.5.7-3.1,1.5-4.9h0c0-.1,0-.3,0-.3,2-3.7,6.1-5.2,9.5-5.7-1.1-.2-2.2-.4-3.1-.7-3.7-1.2-5.5-3.5-6.4-5.3-.9-1.8-1.5-3.5-1.7-5-.2-1.2-.2-2.9-.2-5.1s0-3.9.2-5.1c.2-1.5.7-3.2,1.6-4.9,3.3-6.3,11.8-6.3,14.6-6.3s11.2,0,14.3,6.2c1,1.8,1.5,3.5,1.7,5.1.2,1.2.2,2.9.2,5.1s0,3.9-.2,5.1c-.2,1.6-.8,3.2-1.7,5-.9,1.7-2.7,4-6.4,5.1-1,.3-2.1.5-3.3.7,3.1.5,5.5,1.5,7.3,3.1,1.7,1.4,3.9,4.2,4.1,9.1,0,1,.1,2.4.1,4.1v45.5c0,2.2,0,3.9-.2,5.1-.2,1.6-.8,3.3-1.8,5.1-3.1,6.1-11.6,6.1-14.4,6.1Z"/>
        <path class="cls-2" d="m327.6,10.3c5.5,0,8.8,1.2,9.9,3.5.7,1.3,1.1,2.5,1.2,3.4.1,1,.2,2.5.2,4.5s0,3.5-.2,4.5c-.1,1-.5,2.1-1.2,3.4-.6,1.3-1.8,2.1-3.4,2.7-1.6.5-3.8.8-6.6.8s-4.9-.3-6.6-.8c-1.6-.5-2.8-1.4-3.4-2.7-.7-1.3-1-2.4-1.2-3.4-.1-1-.2-2.5-.2-4.5s0-3.5.2-4.5c.1-1,.5-2.1,1.1-3.3,1.2-2.3,4.6-3.5,10.1-3.5m0,32.1c4.2,0,7.1.7,8.8,2.2,1.5,1.2,2.3,3.1,2.3,5.6,0,.9.1,2.1.1,3.8v45.5c0,2,0,3.5-.2,4.5-.1,1-.5,2.1-1.2,3.4-1.1,2.3-4.5,3.4-10,3.4s-8.8-1.2-10-3.5c-.6-1.3-1-2.4-1.1-3.4-.1-1-.2-2.5-.2-4.6v-45.6c0-2,0-3.5.2-4.5.1-1,.5-2.1,1.1-3.4,1.2-2.3,4.6-3.4,10.1-3.4m0-42.1c-9.6,0-16,3-19,8.9h0c0,0,0,.1,0,.1-1.1,2.2-1.8,4.4-2.1,6.5-.2,1.5-.3,3.3-.3,5.8s0,4.3.3,5.8c.3,2.1,1,4.3,2.1,6.6.6,1.1,1.4,2.4,2.6,3.7-1,1-1.8,2.1-2.5,3.4v.2c-.1,0-.3.3-.3.3-1.1,2.3-1.7,4.3-2,6.4-.2,1.5-.3,3.3-.3,5.8v45.6c0,2.6,0,4.5.3,5.9.3,2,.9,4,2,6.3v.2c0,0,.2.2.2.2,3.1,5.9,9.4,8.9,18.9,8.9s15.9-3,18.9-8.8c1.2-2.4,2-4.6,2.3-6.8.2-1.5.3-3.3.3-5.8v-45.5c0-1.8,0-3.3-.1-4.4-.3-5.8-2.7-9.5-5-11.7,1.2-1.2,2-2.5,2.6-3.6,1.2-2.3,1.9-4.5,2.2-6.7.2-1.5.3-3.3.3-5.8s0-4.3-.3-5.8c-.3-2.2-1-4.4-2.2-6.7-3-5.9-9.3-9-18.8-9h0Z"/>
      </g>
      <g>
        <path class="cls-1" d="m389.5,115.8c-10.2,0-18.2-2.5-23.8-7.3-5.8-5-8.7-13.3-8.7-24.4v-13.9c-.1,0-.2,0-.3,0-3.4,0-6.3-1.4-8.6-4-2.1-2.4-3.1-6-3.1-10.8s.3-7,.8-9c.7-2.6,1.8-4.5,3.3-5.9h.2c2.1-1.9,4.7-2.8,7.6-2.9v-7.9c0-2.2,0-3.9.2-5.1.2-1.6.8-3.3,1.8-4.9,3.2-5.8,11.6-5.8,14.4-5.8,10.2,0,13.9,4.4,15.2,8.2v.2c.7,1.9.9,4.5.9,8.1v7.3c1.4,0,2.6-.1,3.6-.1,2.2,0,3.8,0,5.1.2,1.6.2,3.3.8,5.1,1.8,6.1,3.1,6.1,11.6,6.1,14.5s0,11.2-6.2,14.4h-.2c-1.8.9-3.4,1.4-4.9,1.6-1.2.2-2.9.2-5.1.2h-.2l-3.3-.2v12.6c0,.7,0,1.3.1,1.6,0,0,.1,0,.2,0,2.3,0,4,0,5.3.2,1.7.2,3.5.8,5.3,1.9,5.5,3.1,5.5,10.6,5.5,13.1,0,7.5-2.2,12.4-6.4,14.5h-.1c-1.8.9-3.4,1.4-4.9,1.6-1.2.2-2.9.2-5,.2Z"/>
        <path class="cls-2" d="m373.3,18.8c5.9,0,9.4,1.6,10.5,4.8.4,1.4.6,3.6.6,6.6v12.7c3.8-.3,6.7-.5,8.6-.5s3.4,0,4.4.2c1,.1,2.1.5,3.4,1.2,2.3,1.1,3.4,4.5,3.4,10s-1.2,8.8-3.5,10c-1.3.6-2.5,1-3.4,1.1-1,.1-2.5.2-4.5.2l-8.5-.5v17.9c0,2.3.4,4,1.1,5.1.7,1,2.1,1.6,4.2,1.6s3.6,0,4.7.2c1.1.1,2.2.5,3.4,1.2,2,1.1,3,4,3,8.7s-1.2,8.8-3.6,10c-1.3.6-2.4,1-3.4,1.1-1,.1-2.5.2-4.4.2-9,0-15.9-2-20.5-6.1-4.7-4.1-7-11-7-20.7v-19.2c-1.6.3-3.4.4-5.3.4s-3.5-.7-4.7-2.2c-1.3-1.5-1.9-4-1.9-7.5s.2-6.1.6-7.7c.4-1.6,1-2.8,1.8-3.4,1.4-1.1,3.1-1.7,5.2-1.7l4.3.5v-13.4c0-2,0-3.5.2-4.4.1-1,.5-2,1.2-3.1,1.1-2.2,4.5-3.2,10-3.2m0-10c-3.5,0-14.1,0-18.7,8.3-1.3,2.2-2.2,4.5-2.5,6.7-.2,1.4-.3,3.3-.3,5.8v3.7c-2.1.7-4.1,1.7-5.8,3.1h-.2c0,.1-.2.3-.2.3-2.3,2-3.9,4.8-4.8,8.3-.7,2.5-1,5.8-1,10.3s1.4,10.7,4.3,14c2.1,2.4,4.7,4.2,7.7,5v9.5c0,12.7,3.5,22.2,10.5,28.2,6.5,5.7,15.6,8.6,27.1,8.6s4.2,0,5.6-.3c2-.3,4.1-.9,6.4-2h.1c0,0,.1-.1.1-.1,6.1-3,9.2-9.4,9.2-19s-2.7-14.4-8.1-17.4c-2.3-1.3-4.8-2.2-7.2-2.5-.4,0-.7,0-1.1-.1v-4.2c1.7,0,3.1-.1,4.2-.3,2-.3,4.1-.9,6.4-2h.2c0,0,.2-.2.2-.2,5.9-3.1,8.9-9.4,8.9-18.9s-3-15.9-8.8-18.9c-2.4-1.2-4.6-2-6.8-2.3-1.2-.2-2.6-.2-4.4-.3v-2.2c0-4.1-.4-7.2-1.1-9.6v-.2c0,0-.1-.2-.1-.2-1.5-4.3-6.1-11.5-20-11.5h0Z"/>
      </g>
      <g>
        <path class="cls-1" d="m440.8,115.9c-2.6,0-5.7-.2-9.3-.7-8.3-1.1-14-4.2-16.8-9.1-2.9-5-4.3-12.5-4.3-22.7V21.4c0-2.2,0-3.9.2-5.1.2-1.5.7-3.1,1.5-4.9v-.2c3.3-6.2,11.9-6.2,14.7-6.2s10.9,0,14.3,6.1c1,1.9,1.6,3.7,1.8,5.3.2,1.3.2,3,.2,5.2v60.2c0,.9,0,1.6,0,2.2,1.8,0,2.9.1,3.8.3,1.3.3,2.6.9,4,1.9,4.3,2.9,4.8,9,4.8,13.4,0,7.5-1.5,11.8-4.7,14.1-2.3,1.6-5.5,2.3-10.3,2.3Z"/>
        <path class="cls-2" d="m426.9,10c5.3,0,8.6,1.2,9.9,3.5.7,1.3,1.1,2.5,1.2,3.5.1,1,.2,2.6.2,4.6v60.2c0,3.1.3,5.1.8,5.9.5.8,1.7,1.2,3.4,1.2s3,0,3.6.2c.6.1,1.3.5,2.2,1.1,1.7,1.1,2.6,4.2,2.6,9.2s-.9,8.8-2.6,10c-1.4.9-3.8,1.4-7.4,1.4s-5.3-.2-8.7-.6c-6.7-.9-11-3.1-13-6.6-2.4-4.2-3.6-11-3.6-20.3V21.4c0-2,0-3.5.2-4.5.1-1,.5-2.1,1.1-3.4,1.2-2.3,4.6-3.5,10.1-3.5m0-10c-9.6,0-16,3-19,8.9v.2c0,0-.2.2-.2.2-1.1,2.3-1.7,4.3-2,6.4-.2,1.5-.3,3.3-.3,5.8v61.9c0,11.1,1.6,19.4,4.9,25.2,3.6,6.4,10.5,10.3,20.4,11.6h0s0,0,0,0c3.8.5,7.1.7,9.9.7,5.8,0,10-1,13.1-3.2h0s0,0,0,0c6.2-4.3,6.9-12.5,6.9-18.2s-.7-13.3-7-17.5c-1.9-1.3-3.8-2.2-5.6-2.6V21.6c0-2.5,0-4.3-.3-5.8-.3-2.3-1-4.6-2.3-7h0c0,0,0-.2,0-.2-3.2-5.7-9.5-8.7-18.6-8.7h0Z"/>
      </g>
      <g>
        <path class="cls-1" d="m495.5,117.4c-7.1,0-13.5-1.3-19.1-3.7-5.7-2.5-10.3-6-13.6-10.3-6.1-7.8-9.2-16.8-9.2-26.6s4.1-22.4,12.2-29.9c8-7.4,18-11.1,29.9-11.1s24.1,5,30.7,15c3.5,5.3,5.3,11.2,5.3,17.5s-1.8,11.9-5.5,15.4c-1.4,1.3-2.8,2.4-4.3,3.2,1.5,1.3,2.9,3.1,4.2,5.7h0c1.5,3.2,2.2,5.8,2.2,8.3,0,11-11,16.6-32.7,16.6Zm3.3-50.3s0,0,0,0c-.6-.5-1.8-.7-3.4-.7s-1.9.3-3,.8h6.4Z"/>
        <path class="cls-2" d="m495.7,40.8c12,0,20.9,4.2,26.5,12.7,2.9,4.5,4.4,9.4,4.4,14.8s-1.3,9.3-4,11.8c-2.6,2.6-5.6,3.8-8.8,3.8h-30.8c0,2.4,1.4,4.5,4.3,6.1,2.9,1.6,5.7,2.5,8.6,2.5,5,0,9-.5,11.8-1.6l1.4-.5c2.1-1,3.8-1.4,5.2-1.4,2.8,0,5.2,2,7.2,5.8,1.1,2.3,1.7,4.3,1.7,6,0,7.7-9.2,11.6-27.7,11.6s-12.1-1.1-17.1-3.3c-5-2.2-8.9-5.1-11.6-8.8-5.5-7-8.2-14.9-8.2-23.5s3.5-19.7,10.6-26.2c7.1-6.5,15.9-9.8,26.5-9.8m-12.9,31.3h16.4c3.3,0,4.9-1.4,4.9-4.2s-.8-3.6-2.3-4.8c-1.5-1.2-3.7-1.8-6.5-1.8s-5.6,1.2-8.4,3.4c-2.8,2.3-4.2,4.7-4.2,7.3m12.9-41.3c-13.1,0-24.3,4.2-33.3,12.5-9.2,8.5-13.8,19.8-13.8,33.5s3.5,20.9,10.3,29.6c3.8,5,9,8.9,15.5,11.8,6.2,2.8,13.4,4.2,21.1,4.2s18.7-1.2,24.6-3.7c8.3-3.5,13.1-10,13.1-17.9s-.9-6.6-2.7-10.3h0c0-.1,0-.2,0-.2-.5-.9-.9-1.7-1.4-2.5.2-.2.4-.4.6-.5,4.7-4.5,7-10.9,7-19s-2-14.1-6-20.2h0s0,0,0,0c-5.2-7.9-15.5-17.2-34.9-17.2h0Z"/>
      </g>
      <g>
        <path class="cls-1" d="m563.6,116.9c-9.3,0-18.3-2.7-26.8-8-3.1-2-4.8-5.2-4.8-9.2s1.8-7.5,5.8-13.1c1.2-1.8,2.8-3,4.8-3.7-2.1-1.9-3.9-4.3-5.3-7.3-2-4-3-8.8-3-14.1,0-11.7,5.8-25.5,33.2-25.5s13.9,1.6,21,4.9c6.2,2.8,7.5,6.9,7.5,9.8s-1.2,6.4-3.6,10.3c-1.8,2.9-3.8,4.8-6,5.9.3.2.7.3,1,.5,3.4,1.6,6.2,4.4,8.4,8.3,2.1,3.7,3.2,8.3,3.2,13.7s-1.1,10-3.1,13.9c-2.2,4.1-5.3,7.1-9.2,9.2h-.1c-6.2,3.1-14,4.6-23,4.6Z"/>
        <path class="cls-2" d="m567.6,40.9c6.2,0,12.5,1.5,19,4.4,3,1.4,4.6,3.1,4.6,5.2s-1,4.6-2.9,7.7c-1.9,3-3.9,4.5-5.8,4.5s-3-.7-5.8-2c-2.8-1.3-5.9-2-9.2-2-5.1,0-7.7,1-7.7,2.9s2.9,4.3,8.8,5.1c5.7.6,11.3,2.3,16.6,4.9,2.5,1.2,4.6,3.3,6.3,6.3,1.7,3,2.5,6.7,2.5,11.2s-.8,8.3-2.5,11.5c-1.7,3.2-4.1,5.5-7.1,7.1-5.5,2.7-12.5,4-20.9,4s-16.4-2.4-24.1-7.3c-1.6-1-2.5-2.7-2.5-4.9s1.6-5.7,4.9-10.3c1-1.5,2.5-2.2,4.6-2.2s5,1.1,8.6,3.2c3.6,2.1,6.9,3.2,9.9,3.2,5.3,0,7.9-1,7.9-3.1s-2.9-2.9-8.7-3.6c-5.5-.8-10.9-2.8-16.2-6.1-2.5-1.6-4.6-4-6.2-7.3-1.6-3.3-2.5-7.3-2.5-11.9,0-13.7,9.4-20.5,28.2-20.5m0-10c-11.7,0-20.5,2.3-27,7.1-5.1,3.7-11.2,10.8-11.2,23.5s1.2,11.6,3.5,16.3c.7,1.5,1.5,2.8,2.4,4.1-.5.6-1.1,1.2-1.5,1.9-4.6,6.5-6.7,11.4-6.7,15.9s2.6,10.5,7.1,13.4c9.3,5.9,19.2,8.8,29.5,8.8s18.3-1.7,25.2-5h.1c0,0,.1-.1.1-.1,4.9-2.5,8.7-6.3,11.3-11.3,2.5-4.6,3.7-10.1,3.7-16.2s-1.3-11.7-3.8-16.2c-1.5-2.7-3.4-5-5.5-6.9.6-.8,1.3-1.7,1.9-2.7,3-4.7,4.4-9,4.4-13s-1.4-10.2-10.4-14.3c-7.8-3.5-15.6-5.3-23.1-5.3h0Z"/>
      </g>
    </g>
  </g>
</svg>