<?xml version="1.0" encoding="UTF-8"?>
<svg id="Layer_2" data-name="Layer 2" xmlns="http://www.w3.org/2000/svg" width="514.6" height="235.4" viewBox="0 0 514.6 235.4">
  <defs>
    <style>
      .cls-1 {
        fill: #fff;
      }

      .cls-2 {
        fill: #94bad6;
      }

      .cls-3 {
        fill: #3d0020;
      }

      .cls-4 {
        fill: #ace9ff;
      }

      .cls-5 {
        fill: #d2f3ff;
      }

      .cls-6 {
        fill: #58c1dd;
      }
    </style>
  </defs>
  <g id="Top">
    <g>
      <g>
        <path class="cls-3" d="m257.4,0c50.9,0,101.8,0,152.7,0,14.8,0,28.1,4.5,39.8,13.5,2.6,2,5.1,4.8,5.7,7.8,1.1,5.6,5,6.2,9.2,6.5,16,1.3,28.8,14.4,31.3,29.9,1.2,7.1.5,13.6-2.2,19.9-1.4,3.2-.5,4.6,2.2,6.2,12.2,7.4,18.3,18.9,18.5,32.5.2,14.2-6.5,26-18.5,34-2.8,1.9-3,3.4-2.1,5.7,8.4,21.9-4.3,44.3-26.2,50-.2,0-.3.1-.5.2-2.9.8-12.3,7-13.7,9.1-4.4,6.6-11.2,9.8-18.2,13.1-12.9,5.9-26.6,5.9-40.3,5.9-91.5,0-182.9,0-274.4,0-4.3,0-8.4,1.5-12.8.9-14.6-1.8-29-4.3-41-13.9-2.5-2-4.9-4.4-6.2-7.3-2.2-4.9-5.8-6.9-11-7.7-16.2-2.6-26.3-12.4-30.3-28-2-7.6-1.2-15.7,1.6-23.2.8-2,1.2-3.5-.8-4.6-11.1-5.6-15.8-15.8-19.3-26.8-4-12.7,6.3-35.2,18.3-40.1,2.9-1.2,3.2-2.3,1.9-5.6-4.6-11.2-3.1-28.4,6.4-38.9,7.6-8.2,17.2-10.8,27.2-13.1,2.2-.5,2.7-1.2,3.5-3,4.1-9,11.6-14.5,20.4-18C88.7,1.2,99.3,0,110.2,0c49.1.3,98.1.1,147.2.1h0Zm240.6,103.5h0c-.8-4.2-4.1-6.4-7.2-8.9-3.7-3-8.8-4-11.8-8-.9-5.5,3.1-9.8,3.7-14.9,2.5-8.2.7-15.6-3.8-22.7-4.6-7.3-11.4-9.5-19.7-9.2-8,.3-10.4-1.7-12.3-9.4-.7-2.6-1.9-4.8-3.7-6.8-6.2-6.6-14.4-9-22.8-9.5-13.4-.7-26.9-.2-40.3-.1-11.3-.4-22.6-.4-33.9,0-20.4,0-40.9-.4-61.3-.2-64.8.6-129.5-1.7-194.3,1.1-10.3.4-20.1,6.6-22.9,16.3-2,6.7-3.5,7.7-10.6,7.5-2.2,0-4.1.7-6.2,1-16.1,2.6-22.5,19.1-17.9,33.9.4,4.5,3.8,8.2,3,13-2,2.4-4.8,3.5-7.4,5.1-3.8,2.2-8.1,4.1-9.8,8.8-3.5,4.4-5.6,9.3-5.6,15-.3,2.3-.5,4.6.1,6.9,2.6,9.3,8.1,16.1,17,20.2,2.9,1.3,6.3,2.6,5.7,6.9-.1.3-.1.6,0,.9-2.1,6.5-6,12.6-5.1,19.7,1.9,15.7,12,24.8,27.4,25,5.3.1,8.1,1.7,9.6,6.8,2.1,7.1,6.5,12.5,13.9,14.9,7.4,2.4,14.7,3.9,22.8,3.9,102-.4,203.9-.2,305.9-.2,3.9,0,7.8.6,11.6-.3,11.5-2.8,22.2-6.6,25.7-19.6.5-1.7,1.6-2.8,2.1-4.3h0c2.4-1.6,5.1-.8,7.7-1,19.7-1.2,31.3-19.7,24.3-35.9-.2-4.4-4.3-8.2-2-12.9,2.3-2.5,5.1-4.2,7.9-6,9.5-6,15.7-13.8,13.7-26,.6-3.2-.4-6.1-1.9-8.9,0-1.2-1-1.6-1.8-2.1Z"/>
        <path class="cls-4" d="m482.8,71.9c-.6,5.1-4.7,9.4-3.7,14.9-4.6,3.2-4.4,7.5,1.2,10,5.8,2.6,12.1,4.1,17.8,7,0,0,0,0,0,0,0,1.3.4,2,1.8,2.1,1.5,2.8,2.5,5.7,1.9,8.9-.3,0-.8,0-.9.3-4.4,7.8-10.8,13.6-18.1,18.7-3.6,2.5-4.4,8.6-2.7,13-2.4,4.8,1.7,8.6,2,12.9-1.5,1-1.9,2.7-2.6,4.2-4.3,10.4-10.4,18.5-22.3,21.4-4.9,1.2-7.7,5.6-7.2,11.2,0,0,0,0,0,0-1.8-.3-3.2.8-4.7,1.3-4.5,1.5-8.7,3.9-13.5,4.8-11.8,2-23.7,2.3-35.6,2.6-26.5.6-52.9,2.5-79.4,3.2-39.5,1-79-.1-118.5.8-31.9.7-64,2.4-95.7-3.5-11.5-2.1-22.6-4.7-32.3-11.8-1.5-1.1-3.2-1.9-3.4-4-.7-7.6-6-10.9-12.4-13.3-6.8-2.5-11.3-7.1-13.6-14.1-1.3-4-1.9-8.4-4.8-11.8-.2-.3-.2-.6,0-.9,1.4-.3,1.7-1.3,1.8-2.5,1-6.5-.4-12-7-14.7-8.2-3.4-12.4-9.4-13.2-18.1-1.8.4-2.9,1.7-4.5,1.3,0-5.7,2.1-10.6,5.6-15,.9,3.4-2.1,6.8-.2,10.8,4.5-4.9,9.7-7.8,15.5-9.8,1.7-.6,3.2-1.6,4.4-3.1,4.1-4.8,2.9-10.5-2.5-11.7.8-4.8-2.6-8.5-3-13,3.2-2.6,2.2-6.4,2.7-9.6,1.5-9.6,9-16.6,18.7-17.3,9.3-.6,18-2.2,25.1-9.7,5.1-5.5,12.8-8.2,20.2-8.9,13.7-1.3,27.2-3.3,41.2-2.5,26.8,1.5,53.8-.6,80.7,1.2,16.2,1,32.5.2,48.8.8,31,1.2,62.1-.4,93.2,1.1,16.6.8,33.3.5,49.9,0,10.7-.3,20.2,3.1,29.6,7.2,1.3.5,2.8.9,2.8,3,.2,8,2.5,10.9,9.8,10.8,10.3,0,16.7,4.5,20.8,13.7,1.4,3,2.2,7.1,6.3,8.3Z"/>
        <path class="cls-5" d="m482.8,71.9c-4.1-1.2-5-5.3-6.3-8.3-4.1-9.2-10.5-13.8-20.8-13.7-7.3,0-9.6-2.8-9.8-10.8,0-2.1-1.6-2.4-2.8-3-9.5-4-18.9-7.5-29.6-7.2-16.6.5-33.3.8-49.9,0-31.1-1.5-62.1.1-93.2-1.1-16.3-.7-32.6.2-48.8-.8-26.9-1.7-53.8.4-80.7-1.2-14-.8-27.5,1.3-41.2,2.5-7.4.7-15.1,3.4-20.2,8.9-7,7.6-15.8,9.1-25.1,9.7-9.8.7-17.2,7.7-18.7,17.3-.5,3.2.5,7.1-2.7,9.6-4.5-14.8,1.9-31.3,17.9-33.9,2.1-.3,4-1.1,6.2-1,7,.2,8.6-.8,10.6-7.5,2.8-9.7,12.6-15.9,22.9-16.3,64.7-2.8,129.5-.5,194.3-1.1,20.4-.2,40.9,0,61.3.2,1.3,1.4,3.1.9,4.6.9,7.9,0,15.8,0,23.6,0,1.9,0,4,.7,5.6-.9,13.4,0,26.9-.6,40.3.1,8.4.4,16.6,2.9,22.8,9.5,1.8,2,3.1,4.2,3.7,6.8,2,7.7,4.3,9.7,12.3,9.4,8.2-.3,15.1,2,19.7,9.2,4.5,7.1,6.3,14.5,3.8,22.7Z"/>
        <path class="cls-2" d="m36,150.6c2.9,3.4,3.5,7.7,4.8,11.8,2.2,7,6.8,11.7,13.6,14.1,6.4,2.4,11.7,5.7,12.4,13.3.2,2.1,1.9,2.9,3.4,4,9.6,7.1,20.7,9.6,32.3,11.8,31.8,5.9,63.8,4.2,95.7,3.5,39.5-.9,79,.3,118.5-.8,26.5-.7,52.9-2.6,79.4-3.2,11.8-.3,23.8-.6,35.6-2.6,4.8-.8,9-3.3,13.5-4.8,1.6-.5,2.9-1.6,4.7-1.3-.6,1.5-1.7,2.6-2.1,4.3-3.5,13-14.3,16.9-25.7,19.6-3.8.9-7.7.3-11.6.3-102,0-203.9-.2-305.9.2-8.1,0-15.4-1.5-22.8-3.9-7.4-2.4-11.7-7.8-13.9-14.9-1.5-5.1-4.3-6.7-9.6-6.8-15.3-.3-25.5-9.4-27.4-25-.9-7.1,3.1-13.2,5.1-19.7Z"/>
        <path class="cls-2" d="m449.9,196.4c-.5-5.6,2.3-10,7.2-11.2,11.8-2.9,18-11,22.3-21.4.6-1.5,1.1-3.2,2.6-4.2,7,16.2-4.6,34.7-24.3,35.9-2.6.2-5.3-.6-7.7.9Z"/>
        <path class="cls-2" d="m13.1,115.7c1.6.4,2.7-.9,4.5-1.3.7,8.7,5,14.7,13.2,18.1,6.6,2.7,7.9,8.2,7,14.7-.2,1.3-.4,2.3-1.8,2.5.7-4.4-2.8-5.6-5.7-6.9-8.9-4.1-14.4-10.9-17-20.2-.7-2.3-.5-4.6-.1-6.9Z"/>
        <path class="cls-5" d="m36,86.8c5.4,1.3,6.6,6.9,2.5,11.7-1.2,1.4-2.7,2.5-4.4,3.1-5.8,2-11.1,5-15.5,9.8-1.8-4,1.2-7.3.2-10.8,1.6-4.7,6-6.6,9.8-8.8,2.6-1.5,5.4-2.7,7.4-5.1Z"/>
        <path class="cls-2" d="m480,146.6c-1.8-4.3-.9-10.4,2.7-13,7.2-5.1,13.6-10.9,18.1-18.7.1-.2.6-.2.9-.3,2,12.1-4.2,20-13.7,26-2.8,1.8-5.7,3.5-7.9,6Z"/>
        <path class="cls-5" d="m498,103.7c-5.7-2.8-12-4.3-17.8-7-5.5-2.5-5.7-6.8-1.2-10,3,4.1,8.1,5,11.8,8,3.1,2.5,6.4,4.7,7.2,8.9Z"/>
        <path class="cls-4" d="m380.1,14.1c-1.7,1.6-3.7.9-5.6.9-7.9,0-15.8,0-23.6,0-1.6,0-3.3.5-4.6-.9,11.3-.4,22.6-.4,33.9,0Z"/>
        <path class="cls-5" d="m499.7,105.7c-1.3,0-1.9-.8-1.8-2.1.8.5,1.8.9,1.8,2.1Z"/>
      </g>
      <g>
        <g>
          <path class="cls-1" d="m245.4,170.7c-4.3,0-7.2-.4-9.3-1.2-2.3-.9-4.3-2.4-5.8-4.4-11.6-15.4-20.8-27.7-27.7-36.8v25c0,2.4,0,4.1-.3,5.4-.2,1.7-.8,3.4-1.9,5.4-3.5,6.7-12.5,6.7-15.4,6.7-7.8,0-12.9-2.3-15.2-6.7-1-1.9-1.6-3.7-1.9-5.5-.2-1.3-.2-3-.2-5.3v-72.5c0-4.4.6-7.6,2-10.1,1.6-2.9,4-4.9,7.2-5.9,2.3-.7,4.9-1.1,8.2-1.1s5.8.3,8,1c2.3.7,4.1,1.7,5.4,2.9.7.6,1.6,1.5,3.6,4.1h.1c0,.1.1.3.1.3,10.6,14.5,19.3,26.2,25.8,34.9v-26c0-4.4.6-7.6,2-10.1,1.6-2.9,4-4.9,7.2-5.9,2.3-.7,4.9-1.1,8-1.1s5.5.3,7.6.9c2.3.7,4.2,1.6,5.5,2.7,1.6,1.4,2.8,3.2,3.5,5.5.7,2.1,1.1,4.8,1.1,8.5v72.1c0,2.4,0,4.1-.2,5.4-.2,1.7-.8,3.4-1.9,5.4-3.5,6.7-12.5,6.7-15.4,6.7Z"/>
          <path class="cls-6" d="m245.2,69.5c2.5,0,4.5.2,6,.7,1.5.4,2.6,1,3.4,1.6.7.6,1.3,1.5,1.6,2.7.5,1.4.8,3.6.8,6.6v72.1c0,2.1,0,3.6-.2,4.5-.1,1-.5,2.1-1.2,3.4-1.2,2.3-4.6,3.5-10.1,3.5s-5.7-.3-7-.8c-1.3-.5-2.4-1.3-3.2-2.5-19.5-26-32.3-43-38.5-51v42.8c0,2.1,0,3.6-.2,4.5-.1,1-.5,2.1-1.2,3.4-1.2,2.3-4.6,3.5-10.1,3.5s-8.7-1.2-9.9-3.5c-.7-1.3-1.1-2.5-1.2-3.5s-.2-2.6-.2-4.5v-72.5c0-3.3.4-5.7,1.2-7.2.8-1.5,2.1-2.5,3.7-3.1,1.6-.5,3.8-.8,6.4-.8s4.7.2,6.2.7c1.5.5,2.6,1,3.2,1.6.3.3,1.3,1.4,3,3.4,18.3,24.9,30.5,41.3,36.7,49.3v-43.9c0-3.3.4-5.7,1.2-7.2.8-1.5,2.1-2.5,3.7-3.1,1.6-.5,3.7-.8,6.2-.8m0-12c-3.7,0-6.9.4-9.8,1.3-4.6,1.5-8.3,4.5-10.6,8.8-1.8,3.4-2.7,7.5-2.7,12.9v7.9c-4.4-6-9.4-12.8-15-20.3l-.2-.3-.2-.3c-2.1-2.6-3.3-3.8-4.3-4.7-1.9-1.8-4.4-3.1-7.5-4.1-2.7-.9-5.9-1.3-9.8-1.3s-7.1.4-10,1.3c-4.6,1.5-8.3,4.5-10.6,8.8-1.8,3.4-2.7,7.5-2.7,12.9v72.5c0,2.5,0,4.5.3,6,.3,2.5,1.1,5,2.5,7.6,3.4,6.6,10.3,9.9,20.5,9.9s17.3-3.3,20.8-9.9c1.4-2.6,2.2-5,2.5-7.4.2-1.5.3-3.5.3-6.2v-7.1c4.9,6.6,10.6,14.1,16.9,22.5h0c0,0,0,.1,0,.1,2.2,2.9,5,5,8.3,6.3,2.8,1.1,6.4,1.6,11.5,1.6,10.3,0,17.3-3.3,20.8-9.9,1.4-2.6,2.2-5,2.5-7.4.2-1.5.3-3.5.3-6.2v-72.1c0-4.3-.4-7.7-1.4-10.4-1-3.3-2.9-6.2-5.4-8.2-2.1-1.7-4.6-2.9-7.7-3.8-2.6-.8-5.7-1.1-9.3-1.1h0Z"/>
        </g>
        <g>
          <path class="cls-1" d="m305.1,171.9c-6.7,0-13.2-1.7-19.4-4.9-6.2-3.3-11.6-8.1-15.8-14.5-4.3-6.5-6.5-13.9-6.5-22,0-12.1,4.3-22.2,12.8-30.1,8.4-7.8,18.2-11.7,29-11.7s20.6,3.9,28.9,11.7c8.4,7.9,12.7,18,12.7,30.1s-2.2,15.9-6.6,22.5c-4.3,6.5-9.7,11.3-15.9,14.4-6.1,3-12.6,4.6-19.2,4.6Zm0-48.4c-1.7,0-3.3.6-4.9,1.9-.5.4-1.8,1.4-1.8,4.9s1,4.1,1.8,4.7c1.7,1.3,3.3,2,4.8,2s3.2-.7,5-2c.9-.7,1.9-1.8,1.9-4.8s-1.2-4.4-1.7-4.7c-1.6-1.3-3.2-1.9-5-1.9Z"/>
          <path class="cls-6" d="m305.2,94.6c9.4,0,17.6,3.4,24.8,10.1,7.2,6.7,10.8,15.3,10.8,25.7s-1.9,13.6-5.6,19.2c-3.7,5.6-8.3,9.7-13.6,12.4-5.3,2.6-10.9,4-16.6,4s-11.3-1.4-16.6-4.2c-5.4-2.8-9.9-7-13.6-12.5-3.7-5.5-5.5-11.7-5.5-18.7,0-10.4,3.6-19,10.9-25.7,7.3-6.8,15.6-10.1,25-10.1m-.3,48.4c2.9,0,5.7-1.1,8.6-3.2,2.9-2.2,4.3-5.4,4.3-9.6s-1.3-7.4-4-9.5c-2.7-2.1-5.6-3.1-8.7-3.1s-6,1.1-8.7,3.2c-2.7,2.2-4,5.4-4,9.6s1.4,7.4,4.2,9.5c2.8,2.1,5.6,3.2,8.5,3.2m.3-60.4c-12.4,0-23.6,4.5-33.1,13.3-9.8,9.1-14.8,20.7-14.8,34.5s2.5,17.8,7.6,25.3c4.8,7.2,10.8,12.7,18,16.4,7.1,3.7,14.6,5.6,22.2,5.6s14.9-1.8,21.9-5.2c7.2-3.6,13.3-9.1,18.2-16.4,5-7.6,7.6-16.3,7.6-25.8,0-13.8-4.9-25.4-14.6-34.4-9.5-8.8-20.6-13.3-33-13.3h0Zm-.8,47.1c.4-.3.6-.3.7-.3.1,0,.4,0,.7.2,0,.1,0,.3,0,.4s0,.3,0,.4c-.4.3-.7.4-.9.5-.1,0-.3-.1-.6-.3,0,0,0-.2,0-.3,0-.2,0-.4,0-.5h0Z"/>
        </g>
      </g>
    </g>
  </g>
</svg>