<?xml version="1.0" encoding="UTF-8"?>
<svg id="Layer_2" data-name="Layer 2" xmlns="http://www.w3.org/2000/svg" width="480.7" height="122.6" viewBox="0 0 480.7 122.6">
  <defs>
    <style>
      .cls-1 {
        fill: #fff;
      }

      .cls-2 {
        fill: #d67bb8;
      }
    </style>
  </defs>
  <g id="Middle">
    <g>
      <g>
        <path class="cls-1" d="m21.4,115.9c-10.4,0-14.1-4.5-15.4-8.3-.7-2-1.1-4.6-1.1-8.3V27c0-5.9,1.3-10,4-12.6,2.6-2.6,6.8-3.8,12.8-3.8h51.2c2.2,0,3.9,0,5.1.2,1.6.2,3.3.8,5.1,1.8,6.2,3.2,6.2,11.7,6.2,14.6,0,10.5-4.4,14.2-8.2,15.4-2.1.7-4.7,1-8.4,1h-34.9v3.1h20.7c2.2,0,3.9,0,5.1.2,1.6.2,3.3.8,5.2,1.8,6.2,3.2,6.2,11.7,6.2,14.6,0,10.5-4.5,14.2-8.4,15.4-2,.7-4.8,1-8.3,1h-20.5v3.1h35c2.2,0,3.9,0,5.1.2,1.6.2,3.3.8,5.1,1.8,6.2,3.2,6.2,11.7,6.2,14.6,0,10.5-4.4,14.2-8.2,15.4-2.1.7-4.7,1-8.4,1H21.4Z"/>
        <path class="cls-2" d="m73,15.6c2,0,3.5,0,4.5.2,1,.1,2.1.5,3.4,1.2,2.3,1.2,3.5,4.6,3.5,10.1s-1.6,9.6-4.8,10.7c-1.5.5-3.7.8-6.8.8h-39.9v13.1h25.7c2,0,3.5,0,4.5.2,1,.1,2.1.5,3.4,1.2,2.3,1.2,3.5,4.6,3.5,10.1s-1.6,9.6-4.9,10.7c-1.5.5-3.7.8-6.8.8h-25.5v13.1h40c2,0,3.5,0,4.5.2,1,.1,2.1.5,3.4,1.2,2.3,1.2,3.5,4.6,3.5,10.1s-1.6,9.6-4.8,10.7c-1.5.5-3.7.8-6.8.8H21.4c-6.1,0-9.6-1.6-10.7-4.9-.5-1.4-.8-3.6-.8-6.6V27c0-4.4.8-7.4,2.5-9,1.6-1.6,4.8-2.4,9.4-2.4h51.2m0-10H21.8c-7.4,0-12.7,1.7-16.3,5.2C1.8,14.4,0,19.7,0,27v72.3c0,4.2.4,7.4,1.3,9.9,1.5,4.5,6.1,11.7,20.1,11.7h51.5c4.2,0,7.4-.4,10-1.3,4.4-1.5,11.6-6,11.6-20.1s-3-15.9-8.8-19c-2.4-1.3-4.6-2-6.8-2.3-.8-.1-1.7-.2-2.7-.2,2.3-3.1,4.1-7.7,4.1-14.6s-1.3-11.3-3.9-14.8c2.6-.2,4.8-.6,6.6-1.2,4.4-1.5,11.6-6,11.6-20.1s-3-15.9-8.8-19c-2.4-1.3-4.6-2-6.8-2.3-1.5-.2-3.3-.3-5.8-.3h0Z"/>
      </g>
      <g>
        <path class="cls-1" d="m162.7,115.9c-3.3,0-5.9-.4-8.1-1.1-2.7-1-4.9-2.7-6.2-5-1-1.8-1.6-3.6-1.8-5.2-.2-1.3-.2-3-.2-5.2v-29.2c-2,0-3.7.1-5.3.1h-.2s-7.5-.3-7.5-.3v29.6c0,4.1-.6,7.3-1.8,9.6-1.4,2.8-3.8,4.8-6.7,5.7-2.2.7-4.8,1-8,1s-5.9-.4-8.1-1.1c-2.7-1-4.9-2.7-6.2-5-1-1.8-1.6-3.6-1.8-5.2-.2-1.3-.2-2.9-.2-5.2v-29.1c-.1,0-.2,0-.3,0-3.4,0-6.3-1.4-8.6-4-2.1-2.4-3.1-6-3.1-10.8s.3-7,.8-9c.7-2.6,1.8-4.5,3.3-5.9h.2c2.1-1.9,4.7-2.8,7.6-2.9v-1.4c0-7.9,2.8-15.1,8.4-21.4,5.7-6.5,14-9.8,24.4-9.8s3.9,0,5.1.2c1.5.2,3.1.7,4.9,1.5h.2c6.2,3.3,6.2,11.9,6.2,14.7s0,.5,0,.7c1.3-2.6,3-5,5-7.3,5.7-6.5,14-9.8,24.4-9.8s4,0,5.2.2c1.5.2,3,.7,4.8,1.5h.2c6.2,3.3,6.2,11.9,6.2,14.7,0,5.4-1.1,9.4-3.4,12.1-1.2,1.5-3.5,3.3-7.3,3.9,8.8.6,12,4.8,13.1,8.4.7,2.2,1,4.8,1,8s-.4,5.9-1.1,8.1c-1,2.7-2.7,4.8-4.9,6.1-2.6,1.5-6,2.2-10.4,2.2h-.2l-3.2-.2v29.5c0,4.1-.6,7.3-1.8,9.6-1.4,2.8-3.8,4.8-6.7,5.7-2.2.7-4.8,1-8,1Zm-22-78.2l5.7.3v-1.6c0-1,0-2,.1-2.9,0,0-.1.1-.2.2-1.4,1.7-4.2,3.9-9.2,4.1-.9,0-2.1.1-3.8.1h0c2.6,0,5-.1,7.1-.1h.2Z"/>
        <path class="cls-2" d="m179.3,10c2.1,0,3.6,0,4.5.2,1,.1,2.1.5,3.4,1.1,2.3,1.2,3.5,4.6,3.5,10.1s-.7,7.1-2.2,8.8c-1.2,1.5-3.1,2.3-5.6,2.3-.9,0-2.1.1-3.8.1-3.2,0-4.8,1.1-4.8,3.2v7.1l8.4-.8c6,0,9.5,1.6,10.5,4.9.5,1.6.8,3.8.8,6.5s-.3,4.8-.8,6.4c-.6,1.6-1.5,2.8-2.7,3.4-1.8,1-4.5,1.6-7.9,1.6l-8.3-.5v34.8c0,3.3-.4,5.7-1.2,7.3-.8,1.6-2.1,2.7-3.8,3.2-1.7.5-3.9.8-6.6.8s-4.8-.3-6.4-.8c-1.6-.6-2.8-1.5-3.4-2.7-.7-1.3-1.1-2.4-1.2-3.4-.1-1-.2-2.6-.2-4.6v-34.4c-4.2.3-7.6.4-10.3.4l-12.7-.5v34.8c0,3.3-.4,5.7-1.2,7.3-.8,1.6-2.1,2.7-3.8,3.2-1.7.5-3.9.8-6.6.8s-4.8-.3-6.4-.8c-1.6-.6-2.8-1.5-3.4-2.7-.7-1.3-1.1-2.4-1.2-3.4-.1-1-.2-2.6-.2-4.6v-34.4c-1.6.3-3.4.4-5.3.4s-3.5-.7-4.7-2.2c-1.3-1.5-1.9-4-1.9-7.5s.2-6.1.6-7.7c.4-1.6,1-2.8,1.8-3.4,1.4-1.1,3.1-1.7,5.2-1.7l4.3.5v-6.9c0-6.7,2.4-12.7,7.1-18.1,4.8-5.4,11.7-8.1,20.7-8.1s3.5,0,4.5.2c1,.1,2.1.5,3.4,1.1,2.3,1.2,3.5,4.6,3.5,10.1s-.7,7.1-2.2,8.8c-1.2,1.5-3.1,2.3-5.7,2.3-.8,0-2,.1-3.6.1-3.2,0-4.8,1.1-4.8,3.2v7.1c4.7-.3,8.7-.5,12.1-.5l10.9.5v-6.9c0-6.7,2.4-12.7,7.2-18.1,4.8-5.4,11.7-8.1,20.7-8.1m0-10c-11,0-20,3.3-26.6,9.8-1.5-3.3-3.8-5.8-6.8-7.4h-.2c0,0-.2-.2-.2-.2-2.3-1.1-4.3-1.7-6.4-2-1.4-.2-3.3-.3-5.8-.3-12,0-21.5,3.9-28.2,11.5-5.7,6.5-8.9,13.9-9.5,21.9-2.2.7-4.2,1.7-5.9,3.1h-.2c0,.1-.2.3-.2.3-2.3,2-3.9,4.8-4.8,8.3-.7,2.5-1,5.8-1,10.3s1.4,10.7,4.3,14c2.1,2.4,4.7,4.2,7.7,5v24.7c0,2.5,0,4.3.3,5.8.3,2.3,1.1,4.7,2.4,7,1.9,3.4,5,5.9,8.9,7.3,2.7.9,5.9,1.4,9.7,1.4s6.8-.4,9.5-1.2c4.3-1.3,7.7-4.1,9.7-8.2,1.6-3.1,2.3-7,2.3-11.9v-24.4h2.3c0,0,.2.1.2.1h.2c0,0,.2,0,.3,0v24.1c0,2.5,0,4.3.3,5.8.3,2.3,1.1,4.7,2.4,7,1.9,3.4,5,5.9,8.9,7.3,2.7.9,5.9,1.4,9.7,1.4s6.8-.4,9.5-1.2c4.3-1.3,7.7-4.1,9.7-8.2,1.6-3.1,2.3-7,2.3-11.9v-24.4c4.5-.2,8.2-1.1,11.2-2.8,3.3-1.9,5.8-4.9,7.1-8.8,1-2.7,1.4-5.9,1.4-9.8s-.4-6.9-1.2-9.5c-.8-2.4-2.5-5.8-6.1-8.3,2.7-3.6,4-8.3,4-14.6,0-9.6-3-15.9-8.9-19h-.2c0,0-.2-.2-.2-.2-2.2-1-4.3-1.7-6.3-1.9-1.4-.2-3.3-.3-5.9-.3h0Z"/>
      </g>
      <g>
        <path class="cls-1" d="m240.1,117.6c-7.1,0-13.5-1.3-19.1-3.7-5.7-2.5-10.3-6-13.6-10.3-6.1-7.8-9.2-16.8-9.2-26.6s4.1-22.4,12.2-29.9c8-7.4,18-11.1,29.9-11.1s24.1,5,30.7,15c3.5,5.3,5.3,11.2,5.3,17.5s-1.8,11.9-5.5,15.4c-1.4,1.3-2.8,2.4-4.3,3.2,1.5,1.3,2.9,3.1,4.2,5.7h0c1.5,3.2,2.2,5.8,2.2,8.3,0,11-11,16.6-32.7,16.6Zm3.3-50.3s0,0,0,0c-.6-.5-1.8-.7-3.4-.7s-1.9.3-3,.8h6.4Z"/>
        <path class="cls-2" d="m240.2,40.9c12,0,20.9,4.2,26.5,12.7,2.9,4.5,4.4,9.4,4.4,14.8s-1.3,9.3-4,11.8c-2.6,2.6-5.6,3.8-8.8,3.8h-30.8c0,2.4,1.4,4.5,4.3,6.1,2.9,1.6,5.7,2.5,8.6,2.5,5,0,9-.5,11.8-1.6l1.4-.5c2.1-1,3.8-1.4,5.2-1.4,2.8,0,5.2,2,7.1,5.8,1.1,2.3,1.7,4.3,1.7,6,0,7.7-9.2,11.6-27.7,11.6s-12.1-1.1-17.1-3.3c-5-2.2-8.9-5.1-11.6-8.8-5.5-7-8.2-14.9-8.2-23.5s3.5-19.7,10.6-26.2c7.1-6.5,15.9-9.8,26.5-9.8m-12.9,31.3h16.4c3.3,0,4.9-1.4,4.9-4.2s-.8-3.6-2.3-4.8c-1.5-1.2-3.7-1.8-6.5-1.8s-5.6,1.2-8.4,3.4c-2.8,2.3-4.2,4.7-4.2,7.3m12.9-41.3c-13.1,0-24.3,4.2-33.3,12.5-9.2,8.5-13.8,19.8-13.8,33.5s3.5,20.9,10.3,29.6c3.8,5,9,8.9,15.5,11.8,6.2,2.8,13.4,4.2,21.1,4.2s18.7-1.2,24.6-3.7c8.3-3.5,13.1-10,13.1-17.9s-.9-6.6-2.7-10.3h0c0-.1,0-.2,0-.2-.5-.9-.9-1.7-1.4-2.5.2-.2.4-.4.6-.5,4.7-4.5,7-10.9,7-19s-2-14.1-6-20.2h0s0,0,0,0c-5.2-7.9-15.5-17.2-34.9-17.2h0Z"/>
      </g>
      <g>
        <path class="cls-1" d="m316.9,116.5c-9.2,0-18-3.3-26.3-9.8-4.1-3.2-7.6-7.6-10.1-12.9-2.6-5.3-3.9-11.2-3.9-17.5s1.3-12.2,3.9-17.4c2.6-5.2,6-9.5,10.1-12.7,8-6.4,16.8-9.6,26.1-9.6s7.5.5,11,1.6c3.5,1,6.2,2.1,8,3.2l2.3,1.5c1.6,1.1,2.8,1.9,3.7,2.5h.2c4.4,3.5,5.3,7.4,5.3,10s-1.2,6.6-3.5,10.2c-4.1,6.3-8.4,9.4-13.2,9.4s-5.7-1.2-9.7-3.6l-.4-.3-.4-.3c-.7-.7-2.2-.8-3.3-.8-1.7,0-3.3.6-4.9,2-.9.8-2,2-2,4.8s1,4,1.9,4.7c1.5,1.3,3,1.9,4.5,1.9s3.3-.5,4.9-1.6c3.3-2.2,6-3.3,8.6-3.3,4.3,0,8.5,2.8,13.4,8.7,2.8,3.5,4.1,6.7,4.1,9.9,0,5.1-3.2,9.6-9.4,13.4-5.7,4-12.8,6-20.9,6Z"/>
        <path class="cls-2" d="m316.7,41.6c3.3,0,6.5.5,9.6,1.4,3.1.9,5.4,1.8,6.9,2.7l2.1,1.3c1.6,1,2.8,1.9,3.6,2.5,2.3,1.7,3.4,3.7,3.4,5.9s-.9,4.7-2.7,7.5c-3.1,4.8-6.1,7.1-9,7.1s-4-1-7-2.9c-1.6-1.5-3.8-2.2-6.7-2.2s-5.6,1-8.1,3.1c-2.5,2.1-3.8,5-3.8,8.6s1.2,6.5,3.6,8.6c2.4,2,5,3.1,7.7,3.1s5.3-.8,7.7-2.4c2.4-1.6,4.3-2.4,5.8-2.4,2.6,0,5.8,2.3,9.5,6.9,2,2.5,3,4.8,3,6.8,0,3.3-2.4,6.4-7.1,9.2-4.9,3.5-11,5.2-18.2,5.2s-15.8-2.9-23.3-8.7c-3.6-2.8-6.5-6.5-8.7-11.1-2.3-4.6-3.4-9.8-3.4-15.3s1.1-10.7,3.4-15.2c2.3-4.6,5.2-8.2,8.7-11,7.2-5.7,14.9-8.6,23-8.6m0-10c-10.4,0-20.2,3.6-29.2,10.7-4.7,3.7-8.6,8.5-11.5,14.4-2.9,5.9-4.4,12.5-4.4,19.6s1.5,13.7,4.4,19.7c2.9,6,6.8,10.9,11.6,14.6,9.2,7.2,19.1,10.8,29.4,10.8s17.1-2.3,23.6-6.8c9.7-5.9,11.7-12.8,11.7-17.6s-1.7-8.7-5.2-13h0s0,0,0,0c-1.9-2.3-4.3-5-7.2-7.1,2.9-1.9,5.6-4.9,8.1-8.7,2.9-4.4,4.4-8.8,4.4-13s-2.6-10.2-7.3-13.8h-.2c0-.1-.2-.3-.2-.3-1-.7-2.2-1.5-3.8-2.6h-.1c0,0-.1-.2-.1-.2l-2.1-1.3h-.1c0,0-.1-.1-.1-.1-2.2-1.3-5.2-2.5-9.1-3.6-4-1.2-8.2-1.8-12.4-1.8h0Zm-1.6,44.1s0,0,0,0c1-.8,1.5-.8,1.8-.8s.3,0,.4,0h.1c0,.1.8.7.8.7.6.4,1.2.7,1.7,1-.5.3-1,.6-1.5,1-.9.6-1.6.7-2.1.7s-1-.4-1.3-.7c0-.1,0-.4,0-.9s0-.8,0-.9h0Z"/>
      </g>
      <g>
        <path class="cls-1" d="m389.6,115.9c-10.2,0-18.2-2.5-23.8-7.3-5.8-5-8.7-13.3-8.7-24.4v-13.9c-.1,0-.2,0-.3,0-3.4,0-6.3-1.4-8.6-4-2.1-2.4-3.1-6-3.1-10.8s.3-7,.8-9c.7-2.6,1.8-4.5,3.3-5.9h.2c2.1-1.9,4.7-2.8,7.6-2.9v-7.9c0-2.2,0-3.9.2-5.1.2-1.6.8-3.3,1.8-4.9,3.2-5.8,11.6-5.8,14.4-5.8,10.2,0,13.9,4.4,15.2,8.2v.2c.7,1.9.9,4.5.9,8.1v7.3c1.4,0,2.6-.1,3.6-.1,2.2,0,3.8,0,5.1.2,1.6.2,3.3.8,5.1,1.8,6.1,3.1,6.1,11.6,6.1,14.4s0,11.2-6.2,14.4h-.2c-1.8.9-3.4,1.4-4.9,1.6-1.2.2-2.9.2-5.1.2h-.2l-3.3-.2v12.6c0,.7,0,1.3.1,1.6,0,0,.1,0,.2,0,2.3,0,4,0,5.3.2,1.7.2,3.5.8,5.3,1.9,5.5,3.1,5.5,10.6,5.5,13.1,0,7.5-2.2,12.4-6.4,14.5h-.1c-1.8.9-3.4,1.4-4.9,1.6-1.2.2-2.9.2-5,.2Z"/>
        <path class="cls-2" d="m373.5,19c5.9,0,9.4,1.6,10.5,4.8.4,1.4.6,3.6.6,6.6v12.7c3.8-.3,6.7-.5,8.6-.5s3.4,0,4.4.2c1,.1,2.1.5,3.4,1.2,2.3,1.1,3.4,4.5,3.4,10s-1.2,8.8-3.5,10c-1.3.6-2.4,1-3.4,1.1-1,.1-2.5.2-4.5.2l-8.5-.5v17.9c0,2.3.4,4,1.1,5.1.7,1,2.1,1.6,4.2,1.6s3.6,0,4.7.2c1.1.1,2.2.5,3.4,1.2,2,1.1,3,4,3,8.7s-1.2,8.8-3.6,10c-1.3.6-2.4,1-3.4,1.1-1,.1-2.4.2-4.4.2-9,0-15.9-2-20.5-6.1-4.7-4.1-7-11-7-20.7v-19.2c-1.6.3-3.4.4-5.3.4s-3.5-.7-4.7-2.2c-1.3-1.5-1.9-4-1.9-7.5s.2-6.1.6-7.7c.4-1.6,1-2.8,1.8-3.4,1.4-1.1,3.1-1.7,5.2-1.7l4.3.5v-13.4c0-2,0-3.5.2-4.4.1-1,.5-2,1.2-3.1,1.1-2.2,4.5-3.2,10-3.2m0-10c-3.5,0-14.1,0-18.7,8.3-1.3,2.2-2.2,4.5-2.5,6.7-.2,1.4-.3,3.3-.3,5.8v3.7c-2.1.7-4.1,1.7-5.8,3.1h-.2c0,.1-.2.3-.2.3-2.3,2-3.9,4.8-4.8,8.3-.7,2.5-1,5.8-1,10.3s1.4,10.7,4.3,14c2.1,2.4,4.7,4.2,7.7,5v9.5c0,12.7,3.5,22.2,10.5,28.2,6.5,5.7,15.6,8.6,27.1,8.6s4.2,0,5.6-.3c2-.3,4.1-.9,6.4-2h.1c0,0,.1-.1.1-.1,6.1-3,9.2-9.4,9.2-19s-2.7-14.4-8.1-17.4c-2.3-1.3-4.8-2.2-7.2-2.5-.4,0-.7,0-1.1-.1v-4.2c1.7,0,3.1-.1,4.2-.3,2-.3,4.1-.9,6.4-2h.2c0,0,.2-.2.2-.2,5.9-3.1,8.9-9.4,8.9-18.9s-3-15.9-8.8-18.9c-2.4-1.2-4.6-2-6.8-2.3-1.2-.2-2.6-.2-4.4-.3v-2.2c0-4.1-.4-7.2-1.1-9.6v-.2c0,0-.1-.2-.1-.2-1.5-4.3-6.1-11.5-20-11.5h0Z"/>
      </g>
      <g>
        <path class="cls-1" d="m440.2,117c-9.3,0-18.3-2.7-26.8-8-3.1-2-4.8-5.2-4.8-9.2s1.8-7.5,5.8-13.1c1.2-1.8,2.8-3,4.8-3.7-2.1-1.9-3.9-4.3-5.3-7.3-2-4-3-8.8-3-14.1,0-11.7,5.8-25.5,33.2-25.5s13.9,1.6,21,4.9c6.2,2.8,7.5,6.9,7.5,9.8s-1.2,6.4-3.6,10.3c-1.8,2.9-3.8,4.8-6,5.9.3.2.7.3,1,.5,3.4,1.6,6.2,4.4,8.4,8.3,2.1,3.7,3.2,8.3,3.2,13.7s-1.1,10-3.1,13.9c-2.2,4.1-5.3,7.1-9.2,9.2h-.1c-6.2,3.1-14,4.6-23,4.6Z"/>
        <path class="cls-2" d="m444.2,41.1c6.2,0,12.5,1.5,19,4.4,3,1.4,4.6,3.1,4.6,5.2s-1,4.6-2.9,7.7c-1.9,3-3.9,4.5-5.9,4.5s-3-.7-5.8-2c-2.8-1.3-5.9-2-9.2-2-5.1,0-7.7,1-7.7,2.9s2.9,4.3,8.8,5.1c5.7.6,11.3,2.3,16.6,4.9,2.5,1.2,4.6,3.3,6.3,6.3,1.7,3,2.5,6.7,2.5,11.2s-.8,8.3-2.5,11.5c-1.7,3.2-4.1,5.5-7.1,7.1-5.5,2.7-12.5,4-20.9,4s-16.4-2.4-24.1-7.3c-1.6-1-2.5-2.7-2.5-4.9s1.6-5.7,4.9-10.3c1-1.5,2.5-2.2,4.6-2.2s5,1.1,8.6,3.2c3.6,2.1,6.9,3.2,9.9,3.2,5.3,0,7.9-1,7.9-3.1s-2.9-2.9-8.7-3.6c-5.5-.8-10.9-2.8-16.2-6.1-2.5-1.6-4.6-4-6.2-7.3-1.6-3.3-2.5-7.3-2.5-11.9,0-13.7,9.4-20.5,28.2-20.5m0-10c-11.7,0-20.5,2.3-27,7.1-5.1,3.7-11.2,10.8-11.2,23.5s1.2,11.6,3.5,16.3c.7,1.5,1.5,2.8,2.4,4.1-.5.6-1.1,1.2-1.5,1.9-4.6,6.5-6.7,11.4-6.7,15.9s2.6,10.5,7.1,13.4c9.3,5.9,19.2,8.8,29.5,8.8s18.3-1.7,25.2-5h.1c0,0,.1-.1.1-.1,4.9-2.5,8.7-6.3,11.3-11.3,2.5-4.6,3.7-10.1,3.7-16.2s-1.3-11.7-3.8-16.2c-1.5-2.7-3.4-5-5.5-6.9.6-.8,1.3-1.7,1.9-2.7,3-4.7,4.4-9,4.4-13s-1.4-10.2-10.4-14.3c-7.8-3.5-15.6-5.3-23.1-5.3h0Z"/>
      </g>
    </g>
  </g>
</svg>