<?xml version="1.0" encoding="UTF-8"?>
<svg id="Layer_2" data-name="Layer 2" xmlns="http://www.w3.org/2000/svg" width="1139.9" height="345" viewBox="0 0 1139.9 345">
  <defs>
    <style>
      .cls-1 {
        fill: #94bad6;
      }

      .cls-2 {
        fill: #3d0020;
      }

      .cls-3 {
        fill: #ace9ff;
      }

      .cls-4 {
        fill: #d2f3ff;
      }

      .cls-5 {
        fill: #400424;
      }
    </style>
  </defs>
  <g id="Top">
    <g>
      <path class="cls-2" d="m1125.7,205c-3.9,3.1-8.1,5.7-12.6,7.8-2.1.9-2.3,1.3-.9,3.3,4.1,5.9,7.1,12.9,7.2,19.7.2,9.9-2.5,19.7-9.5,27.5-7.7,8.6-17.2,13.4-28.9,13.5-4.3,0-7.3-.8-6.7,6.3.6,6.5-3.8,12.8-8.4,18.1-.8.9-1.5,1.7-2.3,2.6-.3.4-.5.7-.8,1.1-8.8,6.9-18.7,10.7-30,9.7-.3-.3-.7-.5-1-.8-1.3,0-2.6-.1-3.9-.2-.1-1.2-.5-2.5-1.8-2.4-1.6,0-1,1.7-1.2,2.7-3.2,4.7-5.9,9.8-10.3,13.7-9.2,8.2-19.7,13.3-31.9,15.2-12.8,1.9-25.6,2.4-38.5,2.4-255.3,0-510.6,0-766-.2-11,0-22.2-.7-32.6-5.4-.3-.3-.7-.5-1-.8-3.6-2-7.7-2.8-11-5.2-.4-.3-.8-.5-1.2-.8l-1.8-1.2-1.1-.8c-6.1-4.2-10.9-9.5-12.9-16.8,0-1.1.4-2.4-1-2.9-1.3-.4-1.7.5-1.9,1.5-5.5,2.2-11.4,1.1-17,2-.4-.3-.7-.5-1.1-.8-10.9-1.5-18.6-7.7-24.5-16.4-3.4-5-5.7-10.4-5.3-16.6,0-1.5.3-3-2-3.1-2.8-3.3-5.9-2-9-.7-15.4-1.5-24.3-11.2-30.9-24.1,1.1-2.3.4-4-1.9-5-2.7-11.4-.8-21.8,6-31.4,2.5-3.5-1.3-3.5-2.7-4.2-11.6-5.3-18.6-14.4-22.4-26.2-.3-.3-.5-.7-.8-1-3.5-7.9-1.6-15.9-.2-23.8,0-.4,0-.8,0-1.2.4-6.3,3.8-11.4,7.3-16.1,5-6.7,11.2-12.4,19.7-14.8.5-.1.9-.2,1.4-.4-.4-.2-.8-.4-1.2-.6-1.8-3.3-4.3-6.1-5.2-9.9-.2-.3-.5-.7-.7-1,0-.6-.2-1.3-.3-1.9-.3-.4-.5-.7-.8-1.1,0-.3,0-.7,0-1,1.1-1.7,1.5-3.2-1.1-4,0-3.3,0-6.6,0-10,1.3-.2,2.3-.6.8-2,3.7-16,13.3-26.5,29.4-30.6,3.4-.9,7.3-.4,10.9-.3,2.5,0,3.6-.9,3.6-3.5-.1-13.9,11.3-28.5,25.6-32.6,6.4-1.8,13-1.3,19.5-.2,3,.5,4.7.4,6-2.7,2.2-5.6,5.8-10.2,10.6-13.9.4-.3.8-.6,1.3-.9,8.3-6.5,17.7-9.8,28.2-10.2,128.3-4.7,256.7-1.2,385-1.8,136.4-.6,272.7-.3,409.1-.2,14.7,0,29.6.3,43.9,4.2,12.9,3.5,23.8,10.6,28.8,23.9,1.3,3.4,3.2,1.7,4.6,1.4,21-4.1,38.4,4.8,45,25.4.7,2.2.6,4.3.4,6.4-.2,3.5,1.1,4.8,4.6,4.5,8.4-.7,16.1,1.4,23.2,5.9,17.9,11.4,23,37.1,10.5,54-1.9,2.5-.6,2.9,1.1,3.7,14.1,6.1,22.4,16.9,25.6,31.6,3.4,15.6-.7,29.3-11.3,41.2-.3.4-.6.8-.9,1.2-.3.4-.5.7-.8,1.1Zm-62.9-128.7c-.3,0-.6-.2-.9-.2,0,0,.1.1.1.1,0-.6-.2-1.2-.2-1.8-.3-.3-.5-.7-.8-1,0-1,0-2,0-3,.3-.4.5-.7.8-1.1,0-3.3,0-6.5,0-9.8-.2-.4-.5-.7-.7-1.1-.5-3.3-2.1-6.1-4.4-8.5-8.5-9.2-18.9-10.1-30.3-6.7-2.4.7-4.9,2-7.6,1.1-.3-.3-.7-.5-1-.8-2.2-1.4-4.2-3-3.9-6,1.5-1.4.4-1.7-.9-2,0-1.9-.8-3.4-1.8-5-5.5-9.3-15.1-11-24.4-13.1-.4-.3-.8-.5-1.1-.8-3.6,0-7.2-.1-10.9-.2-.4-.3-.7-.5-1.1-.8-8.6.3-17-1.8-25.7-1.8-142.4,0-284.9,0-427.3,0-101.5,0-203,0-304.5,0-22.6,0-45.1,0-67.5,4.6-14.1,2.9-22.2,10.2-22.9,23.1h-.5c-.2.2-.5.5-.7.9,0,.3-.1.6-.2.9-6.2,2.4-12-.3-17.9-1.5-14.8-2.9-28.4,7.9-28.7,21.6-1,4.3,2.7,8.6-.2,12.9-2.4,1.6-4.9,2-7.8,2.1-6.2.2-12.5-1.1-18.6,1-14.7,4.9-21.5,21.1-15.6,35,.9,1.9,1.3,4.3,2.7,5.6,4.7,4.5,6.2,9.9,5.6,16.2-1.7,1.9-3.5,3.5-6.3,4-14.6,2.8-23.4,14.6-25,27.9-2.6,2.9-.5,6,.3,8.7,3,11.2,8.7,20.3,20.3,24.6,4.3,1.6,9.4,1.8,11.9,6.7-.8,5.9-3.3,10.9-7.2,15.4-1.9,2.2-2.7,4.7-3.2,7.5-2.7,4.5-2.4,9.1-.9,13.9,4.2,13.4,14.5,20.2,28.1,20.8,4.4.2,9.1-.9,13.7-.7,2.1,2.2,3.9,4.5,3.5,7.8-1.9,2.8-2.1,6.2-1.2,9.1,2.7,9.2,8.1,15.9,17.6,19,6.9,2.2,13.3,0,19.8-1.6,6.9-1.7,10.1.2,11.4,7,1,5.3,4,9.2,8,12.5,12.2,10.2,27.2,11.2,41.9,12.6,9.4.9,19,.2,28.5.2,117.6.1,235.2.3,352.8.3,124.3,0,248.7-.2,373-.3,2.3,0,4.7.1,7,.2.3,1.4.7,2.3,2.1.7,2.5.3,4.7-1.1,7.2-1,9.7.4,19.4.2,29-1.8,9.2-1.9,18.8-2.7,26.6-9,5.4-4.4,10.7-8.7,11.2-16.5,0-1.5,1.2-2.9,1.9-4.4.3,0,.5,0,.8,0,.4-.2.8-.5,1.1-.7,2,0,4-.2,6-.3,1.5,1.7,3.8,1.3,5.7,2,8.8,3.2,22.7-.8,28.8-9.8,3.7-5.5,3.5-11.2,3.5-17.1-.3-.3-.5-.7-.8-1-1.2-3.5,1-5.6,2.9-7.9,1.9,0,3.9-.1,5.8-.2,5.4.6,10.6,1,16.3-.4,21.7-5.3,27.5-32,11.6-46.2,0-.3,0-.6,0-.9-.3-1.8,1.3-4.3-1.7-5.2-.2-1-.4-1.9-.7-2.9.7-5.5,5.4-5.9,9.3-7.1,12.6-3.8,22-14.7,22-25.9,1.5-3.3,1.7-6.7-.1-10,0-1,0-1.9.1-2.9-.2-.4-.5-.7-.7-1.1-1.1-4.5-3.5-8.3-6.3-11.9.3-2.3-.7-3.4-3.1-3.1-3.7-3.4-8-5.4-12.9-6.2-.3-.3-.7-.5-1-.8-.7,0-1.3-.1-2-.2-.3-.3-.7-.5-1-.8-2.1-.6-3.4-2-4.2-4,1.4-1.6-.4-3.4.4-5,2.7-.6,1.6-2.6,1.7-4.3,2.3-3.6,4.5-7.1,6.8-10.7.2-.7.4-1.3.5-2,.2-.4.5-.7.7-1.1,0-3.6,1.7-7.1,1-10.9,1.5-1.4.5-1.8-.8-2,0-1-.1-1.9-.2-2.9-.3-.4-.5-.7-.8-1.1-2.2-6.5-6.7-10.7-12.6-14.1-6.6-3.9-13.6-2.5-20.6-2.7-1.3-1.6-1.8-.6-2,.7-1,0-2,0-3,0-.8-1.7-2.4-2.2-4-2.8Z"/>
      <path class="cls-5" d="m54.7,276.8c3.1-1.3,6.3-2.5,9,.7-3-.1-6.2,1.2-9-.7Z"/>
      <path class="cls-5" d="m21.9,247.8c2.4,1,3,2.6,1.9,5-1.5-1.3-1.8-3.1-1.9-5Z"/>
      <path class="cls-5" d="m1024.8,313.7c.1-1-.4-2.6,1.2-2.7,1.3,0,1.7,1.2,1.8,2.4-1,0-2,.2-3,.3Z"/>
      <path class="cls-5" d="m113.7,312.4c.2-1.1.7-2,1.9-1.5,1.5.5,1,1.8,1,2.9-.8-.7-1.7-1.5-2.9-1.4Z"/>
      <path class="cls-5" d="m21,109.2c2.6.7,2.2,2.2,1.1,4,.3-1.5-1.8-2.3-1.1-4Z"/>
      <path class="cls-5" d="m21.8,97.3c1.5,1.4.4,1.7-.8,2-.2-.8-.4-1.7.8-2Z"/>
      <path class="cls-5" d="m28.9,128.1c.4.2.8.4,1.2.6-.5.1-.9.2-1.4.4,0-.3.1-.7.2-1Z"/>
      <path class="cls-5" d="m128.7,12.7c-.4.3-.8.6-1.3.9.2-.5.5-1.1,1.3-.9Z"/>
      <path class="cls-5" d="m1.8,160c0,.4,0,.8,0,1.2-.2-.3-.5-.5-.7-.8.3-.1.5-.3.8-.4Z"/>
      <path class="cls-5" d="m2,185c.3.3.5.7.8,1-.6,0-1-.3-.8-1Z"/>
      <path class="cls-5" d="m1125.7,205c.3-.4.5-.7.8-1.1.2.7-.3.9-.8,1.1Z"/>
      <path class="cls-5" d="m1062.8,304.7c.3-.4.5-.7.8-1.1.2.7-.3.9-.8,1.1Z"/>
      <path class="cls-5" d="m22,114.2c.3.4.5.7.8,1.1-.6,0-1-.4-.8-1.1Z"/>
      <path class="cls-5" d="m23,117.2c.2.3.5.7.7,1-.6,0-1-.3-.7-1Z"/>
      <path class="cls-5" d="m95.6,313.6c.4.3.7.5,1.1.8-.7.2-1-.2-1.1-.8Z"/>
      <path class="cls-5" d="m1031.7,313.6c.3.3.7.5,1,.8-.7.2-1-.2-1-.8Z"/>
      <path class="cls-5" d="m129.5,330.6l1.1.8c-.7.2-1-.2-1.1-.8Z"/>
      <path class="cls-5" d="m132.4,332.5c.4.3.8.5,1.2.8-.7.3-1-.3-1.2-.8Z"/>
      <path class="cls-5" d="m144.6,338.5c.3.3.7.5,1,.8-.7.2-.9-.2-1-.8Z"/>
      <path class="cls-3" d="m1104.4,115.2c-2.3,3.6-4.5,7.1-6.8,10.7-1.5,1-2.3,2.4-1.7,4.3-.8,1.6,1,3.4-.4,5-4.2,5.1-2.7,10.4,4.2,12.7,6.1,2.1,12.1,4.2,17.3,8.2,3.7,2.9,6,6.9,9.6,9.9,1.8,3.3,1.7,6.6.1,10-2.3,0-3.4,2-4.7,3.4-4.3,4.5-9.4,7.7-15.1,10.1-3.2,1.3-6.5,2.6-9.5,4.3-5.5,3.1-6.6,11.6-2,15.3.2,1,.4,1.9.7,2.9-.5,2.1-.5,4,1.7,5.2,0,.3,0,.6,0,.9,3.2,6.8-.1,13.2-1.4,19.6-2.8,13.8-10.6,22.8-25,25.2-1,.2-1.3.9-1.5,1.7-1.9,0-3.9.1-5.8.2-6.7,0-10.1,2.3-12.2,9.2-2.7,8.9-6.9,16.4-15.7,20.7-3.9,1.9-8.3,1.9-12.1,3.8-2,0-4,.2-6,.3-.7-.3-1,.2-1.1.7-.3,0-.5,0-.8,0-3.2-.2-5.7,1.6-7.1,3.8-2.8,4.4-7.1,6-11.6,7-20.5,4.8-41.2,6.4-62.4,6.4-249.1-.4-498.1-.3-747.2-.2-11.2,0-22.1-1.7-33.2-2.2-8.4-.4-15.7-3.6-21-10.6-1.4-1.8-3.3-3.3-4.9-5-4.9-5.5-10.5-8.5-18.2-7.3-3.9.6-8,.3-12,0-6.3-.4-11.4-2.5-14.3-8.9-1.5-3.4-1.8-7.4-4.8-10.1.5-3.3-1.4-5.6-3.5-7.8-1.7-6.1-6.9-7.3-11.9-7.9-13.9-1.7-22.7-8.9-26.4-22.4-.4-1.4-.2-3.6-2.6-3.7.5-2.7,1.3-5.3,3.2-7.5,3.8-4.5,6.4-9.5,7.2-15.4,2.3-.7,1.2-2.1,1-3.6-1.5-8.6-8.1-13-14.8-17.1-7.2-4.4-12.1-10.6-15.7-18.1.4-.5,1-1,1.2-1.5,3.2-10.4,10.1-16.6,20.9-18.9,3.1-.6,5.8-2.5,7.8-5.1,2.3-3,1.6-6.3-1.6-7.6.6-6.2-1-11.7-5.6-16.2-1.4-1.4-1.8-3.7-2.7-5.6,4-3.4,3.6-8.7,5.2-13.1,3.9-10.7,6.8-13,18.2-13,4.6,0,9.3.6,13.7-1.4,4.8-2.2,6.7-6,5-10.6,2.9-4.3-.8-8.6.2-12.9,3.8-1,5.5-4.6,8.2-6.9,5.3-4.6,10.9-7.6,18.4-6.2,3.6.6,7.1,1.4,10.7,2,3.6.6,7-.3,9.4-3.3,1.5-1.8,1.9-3.8,0-5.7,0-.3.1-.6.2-.9.6,0,1-.3.7-1,0,0,.5,0,.5,0,1.2,0,2.5,0,3.2-1.1,6.4-9.7,16-13.1,27-14.2,12.7-1.3,25-3.9,38-4,257.9-.3,515.7,1.5,773.6-.6,16-.1,30.2,5.5,39.5,20,1.9,3,4.4,5.1,9,5.9,5.9,1,11.6-.9,17.4.8,7.4,2.1,14.4,4.4,18.1,11.8,1.6,3.2,2.1,7,3.5,10.3,1.2,3.1,2.7,6.3,7,5.8,0,0-.1-.1-.1-.1.2.4.5.8.7,1.2.7.7,1.4,1.4,2.1,2.2,5.2,3,11.1,4.1,16.8,5.6,10.4,2.7,16.8,9.1,19.3,19.6.9,3.6.3,7.7,3.6,10.5Z"/>
      <path class="cls-1" d="m79.2,272.6c3,2.7,3.3,6.7,4.8,10.1,2.9,6.4,8,8.6,14.3,8.9,4,.2,8.1.5,12,0,7.7-1.2,13.4,1.8,18.2,7.3,1.5,1.7,3.5,3.2,4.9,5,5.3,7,12.5,10.2,21,10.6,11.1.5,22.1,2.2,33.2,2.2,249.1,0,498.1-.2,747.2.2,21.2,0,41.9-1.7,62.4-6.4,4.5-1.1,8.8-2.6,11.6-7,1.4-2.2,4-4.1,7.1-3.8-.7,1.5-1.8,2.9-1.9,4.4-.5,7.8-5.8,12.1-11.2,16.5-7.8,6.3-17.4,7.1-26.6,9-9.6,2-19.3,2.3-29,1.8-2.6-.1-4.7,1.3-7.2,1-.4-1.1-1.2-.9-2.1-.7-2.3,0-4.7-.2-7-.2-124.3,0-248.7.3-373,.3-117.6,0-235.2-.2-352.8-.3-9.5,0-19.1.7-28.5-.2-14.7-1.4-29.8-2.4-41.9-12.6-4-3.4-7-7.2-8-12.5-1.3-6.8-4.5-8.6-11.4-7-6.5,1.6-12.8,3.8-19.8,1.6-9.5-3.1-15-9.9-17.6-19-.8-2.9-.6-6.3,1.2-9.1Z"/>
      <path class="cls-4" d="m1062,76.2c-4.3.5-5.8-2.7-7-5.8-1.3-3.4-1.9-7.1-3.5-10.3-3.6-7.4-10.7-9.7-18.1-11.8-5.8-1.6-11.5.2-17.4-.8-4.6-.8-7-2.9-9-5.9-9.3-14.5-23.5-20.1-39.5-20-257.9,2-515.7.3-773.6.6-13,0-25.3,2.7-38,4-11,1.1-20.6,4.5-27,14.2-.7,1.1-2,1-3.2,1.1.7-13,8.8-20.2,22.9-23.1,22.4-4.6,44.9-4.6,67.5-4.6,101.5,0,203,0,304.5,0,142.4,0,284.9.1,427.3,0,8.6,0,17.1,2.1,25.7,1.8.1.6.4,1,1.1.8,3.6,0,7.2.1,10.9.2.2.6.4,1,1.1.8,9.3,2.2,18.9,3.9,24.4,13.1.9,1.6,1.8,3.1,1.8,5-.1.8-.4,1.7.9,2-.3,3,1.7,4.6,3.9,6,0,.6.4,1,1,.8,2.7.9,5.1-.4,7.6-1.1,11.4-3.4,21.7-2.5,30.3,6.7,2.3,2.4,3.9,5.2,4.4,8.5-.3.7.1.9.7,1.1,0,3.3,0,6.5,0,9.8-.6.1-1,.4-.8,1.1,0,1,0,2,0,3-.2.7.2,1,.8,1,0,.6.2,1.2.2,1.8Z"/>
      <path class="cls-4" d="m77.7,76.2c1.7,4.6-.2,8.3-5,10.6-4.4,2-9.1,1.4-13.7,1.4-11.4,0-14.3,2.3-18.2,13-1.6,4.4-1.2,9.6-5.2,13.1-5.9-13.9.9-30.1,15.6-35,6.1-2,12.4-.7,18.6-1,2.9-.1,5.5-.5,7.8-2.1Z"/>
      <path class="cls-1" d="m1023.8,298.6c3.8-1.9,8.2-1.9,12.1-3.8,8.8-4.3,13-11.8,15.7-20.7,2.1-7,5.5-9.3,12.2-9.2-1.9,2.3-4.2,4.5-2.9,7.9-.1.6.2.9.8,1,0,5.9.2,11.6-3.5,17.1-6.1,8.9-20,13-28.8,9.8-1.9-.7-4.2-.3-5.7-2Z"/>
      <path class="cls-1" d="m1069.7,264.6c.2-.8.5-1.6,1.5-1.7,14.4-2.4,22.2-11.5,25-25.2,1.3-6.4,4.6-12.8,1.4-19.6,15.8,14.1,10.1,40.8-11.6,46.2-5.7,1.4-10.9,1-16.3.4Z"/>
      <path class="cls-1" d="m34.8,230.8c2.4,0,2.2,2.3,2.6,3.7,3.7,13.5,12.5,20.7,26.4,22.4,5,.6,10.2,1.8,11.9,7.9-4.6-.2-9.2.9-13.7.7-13.6-.6-23.9-7.4-28.1-20.8-1.5-4.7-1.8-9.4.9-13.9Z"/>
      <path class="cls-1" d="m15.6,169.3c3.5,7.5,8.4,13.7,15.7,18.1,6.7,4.1,13.3,8.4,14.8,17.1.3,1.4,1.4,2.9-1,3.6-2.4-4.9-7.6-5.1-11.9-6.7-11.6-4.3-17.3-13.3-20.3-24.6-.7-2.7-2.9-5.7-.3-8.7,1.2-.2,2,.7,2.9,1.2Z"/>
      <path class="cls-4" d="m124.5,43.3c2,1.9,1.6,3.9,0,5.7-2.4,2.9-5.8,3.8-9.4,3.3-3.6-.6-7.1-1.4-10.7-2-7.5-1.3-13.1,1.6-18.4,6.2-2.7,2.3-4.4,5.9-8.2,6.9.3-13.6,13.9-24.5,28.7-21.6,5.9,1.2,11.7,3.9,17.9,1.5Z"/>
      <path class="cls-1" d="m1095.3,209c-4.5-3.7-3.5-12.2,2-15.3,3-1.7,6.3-2.9,9.5-4.3,5.7-2.4,10.8-5.6,15.1-10.1,1.3-1.4,2.4-3.3,4.7-3.4,0,11.2-9.4,22.2-22,25.9-4,1.2-8.6,1.6-9.3,7.1Z"/>
      <path class="cls-4" d="m1104.4,115.2c-3.3-2.8-2.7-6.9-3.6-10.5-2.6-10.5-8.9-16.9-19.3-19.6-5.7-1.5-11.6-2.6-16.8-5.6l2-.3c1,0,2,0,3,0,.8.2,1.7.3,2-.7,6.9.2,13.9-1.2,20.6,2.7,5.9,3.5,10.4,7.7,12.6,14.1-.2.7.2,1,.8,1.1,0,1,.1,1.9.2,2.9-.2.8-.4,1.7.8,2,.7,3.7-1,7.2-1,10.9-.5.2-1,.4-.7,1.1-.2.7-.4,1.3-.5,2Z"/>
      <path class="cls-4" d="m15.6,169.3c-.9-.6-1.7-1.4-2.9-1.2,1.5-13.4,10.4-25.1,25-27.9,2.8-.5,4.6-2.1,6.3-4,3.2,1.3,3.9,4.6,1.6,7.6-2,2.6-4.7,4.5-7.8,5.1-10.8,2.2-17.7,8.4-20.9,18.9-.2.6-.8,1-1.2,1.5Z"/>
      <path class="cls-4" d="m1126.5,166c-3.5-3-5.8-7-9.6-9.9-5.2-4-11.2-6.1-17.3-8.2-6.8-2.3-8.4-7.6-4.2-12.7.8,2,2.1,3.4,4.2,4,0,.6.3,1,1,.8.7,0,1.3.1,2,.2,0,.6.3,1,1,.8,4.9.8,9.2,2.8,12.9,6.2,1,1,2.1,2,3.1,3.1,2.8,3.6,5.1,7.4,6.3,11.9-.3.7.1.9.7,1.1,0,1,0,1.9-.1,2.9Z"/>
      <path class="cls-5" d="m1097.6,217.1c-2.2-1.2-2.1-3.2-1.7-5.2,3,1,1.4,3.4,1.7,5.2Z"/>
      <path class="cls-5" d="m1066.8,79.1c-.7.1-1.3.2-2,.3-.7-.7-1.4-1.4-2.1-2.2.1-.3.2-.6.2-1,1.5.6,3.2,1.2,4,2.8Z"/>
      <path class="cls-5" d="m1095.9,130.1c-.6-1.9.2-3.2,1.7-4.3-.1,1.6.9,3.7-1.7,4.3Z"/>
      <path class="cls-5" d="m1119.7,150.2c-1-1-2.1-2-3.1-3.1,2.3-.3,3.4.7,3.1,3.1Z"/>
      <path class="cls-5" d="m1071.8,78.4c-.4,1.1-1.2.9-2,.7.3-1.4.7-2.3,2-.7Z"/>
      <path class="cls-5" d="m1013.8,37.4c-1.2-.3-1-1.1-.9-2,1.3.2,2.3.6.9,2Z"/>
      <path class="cls-5" d="m1106.7,101.2c-1.2-.3-1-1.2-.8-2,1.3.3,2.4.6.8,2Z"/>
      <path class="cls-5" d="m937.9,331.7c.8-.2,1.7-.4,2.1.7-1.3,1.6-1.8.7-2.1-.7Z"/>
      <path class="cls-5" d="m1126.7,163.1c-.6-.1-1-.4-.7-1.1.2.4.5.7.7,1.1Z"/>
      <path class="cls-5" d="m974.8,16.3c-.7.2-1-.2-1.1-.8.4.3.7.5,1.1.8Z"/>
      <path class="cls-5" d="m986.8,17.3c-.7.2-1-.2-1.1-.8.4.3.8.5,1.1.8Z"/>
      <path class="cls-5" d="m125.4,41.4c.3.7,0,.9-.7,1,.2-.3.5-.6.7-1Z"/>
      <path class="cls-5" d="m1018.8,44.2c-.7.2-1-.2-1-.8.3.3.7.5,1,.8Z"/>
      <path class="cls-5" d="m1061.7,59.4c-.6-.1-1-.4-.7-1.1.2.4.5.7.7,1.1Z"/>
      <path class="cls-5" d="m1060.9,70.3c-.2-.7.2-1,.8-1.1-.3.4-.5.7-.8,1.1Z"/>
      <path class="cls-5" d="m1061.8,74.3c-.6,0-1-.3-.8-1,.3.3.5.7.8,1Z"/>
      <path class="cls-4" d="m1062.8,76.3c0,.3,0,.7-.2,1-.2-.4-.5-.8-.7-1.2.3,0,.6.1.9.2Z"/>
      <path class="cls-5" d="m1105.7,96.3c-.6-.1-1-.4-.8-1.1.3.4.5.7.8,1.1Z"/>
      <path class="cls-5" d="m1016.6,299.6c.2-.5.5-1,1.1-.7-.4.2-.8.5-1.1.7Z"/>
      <path class="cls-5" d="m1105,113.2c-.3-.7.2-.9.7-1.1-.2.4-.5.7-.7,1.1Z"/>
      <path class="cls-5" d="m1061.7,273.8c-.6,0-.9-.4-.8-1,.3.3.5.7.8,1Z"/>
      <path class="cls-5" d="m1100.7,140c-.7.2-1-.2-1-.8.3.3.7.5,1,.8Z"/>
      <path class="cls-5" d="m1103.7,140.9c-.7.2-1-.2-1-.8.3.3.7.5,1,.8Z"/>
    </g>
  </g>
</svg>