<?xml version="1.0" encoding="UTF-8"?>
<svg id="Layer_2" data-name="Layer 2" xmlns="http://www.w3.org/2000/svg" width="1146.7" height="359" viewBox="0 0 1146.7 359">
  <defs>
    <style>
      .cls-1 {
        fill: #3d0020;
      }

      .cls-2 {
        fill: #ffb1e2;
      }

      .cls-3 {
        fill: #ff71ca;
      }

      .cls-4 {
        fill: #733555;
      }

      .cls-5 {
        fill: #e35aa9;
      }
    </style>
  </defs>
  <g id="Top">
    <g>
      <path class="cls-1" d="m67.6.6C85.1.4,102.5,0,120,0,260.2,0,400.4,0,540.6,0c172.7,0,345.4.1,518.2.2,8.2,0,16.4-.5,24.5.2,16.6,1.5,27.6,11.5,29.5,27.9.4,3.3.9,4.8,5,5.4,15.4,2.4,27.5,11.8,28.2,30,1.4,36,.5,72,.7,108,.2,39.1.2,78.1,0,117.2-.1,18-11,31.1-29.4,32.8-3.4.3-4,2.6-4.2,5-2,17.9-14.5,28-31.7,29.7-40.8,4-81.9,1.9-122.8,2-118,.2-236.1.1-354.1,0-164.7,0-329.3,0-494-.1-13.7,0-27.4-.7-41-1.9-14.7-1.4-27.3-6.6-32.4-22.2-.7-2.1-2.1-4.4-1.8-6.4,1-5.4-2.8-5.6-6-6-14.5-1.8-25.1-13.2-27.1-26.9-2.5-16.5-1-33.1-1.4-49.6C-.2,223.2,0,200.9.1,178.7c.2-29.7-.2-59.4.4-89.2.1-6.8,0-13.6.5-20.4.6-7.5,1.2-15.1,5.6-21.8,5.2-8,13-11.6,21.7-13.5,4.3-.9,6-1.9,6.8-6.8C37.3,14,48.7-.6,64.1,1.7c.6,0,1.3-.1,2-.2.8.2,1.6.4,1.6-.9ZM14.1,294.7c.1.4.2.9.4,1.3,1.4,7.9,7.2,11.1,14.1,13.7,5,1.8,10.7,0,15.3,3.2,1.4,1.7,2.3,3.6,2.2,6-.9,2.6.8,4.8,1,7.2.7,8.9,8.2,16.3,17,17.8,5.2.9,10.5.9,15.8,1.2.3.6.7.7,1.2.2,1.7,0,3.3-.1,5-.1,63.4,0,126.8,0,190.2,0,89.7,0,179.4,0,269.1,0,.4.2.8.4,1.2.6,5.5.9,10.9-.9,16.3-.8,14.5.1,29,.2,43.4.2,81.4,0,162.8,0,244.2,0,70.6,0,141.2,0,211.7,0h.4c5.9.2,11.9.9,17.8-.2,8.6-1.7,16.8-4.2,19.8-13.9,1.2-3.9,1.5-7.9,1.5-12,0-2.8,2.1-4.6,3.2-6.9,3.1-.7,6.1-1,9.2-1.3,5.3-.4,10.4-2,14.6-5.5,2.3-1.9,4.3-4.2,4.3-7.5-.1-15.2-.2-30.5-.3-45.7.1-4.6.3-9.3.3-13.9,0-34.5,0-69.1.1-103.6,1.1-5.4,1.1-10.7,0-16.1-.1-.6-.2-1.3-.3-1.9,0-19.4.2-38.7.2-58.1,0-1.5,0-2.9-1.2-4.2-4.4-5-9.6-8.5-16.5-8.5-3.6,0-7.1-.7-10.4-2.1-1.1-1-2.1-2-3.2-2.9.5-3.6-.5-7.2-.8-10.7-.9-10.6-7-16.5-17.7-16.5-38.9,0-77.9.1-116.8.1-141,0-282,0-422.9,0-160,0-319.9,0-479.9-.3-7.6,0-11.8,3.7-14.8,10-2.1,4.5-2.7,9.4-2.9,14.2-.2,3.9-2.5,5.8-5.8,7.1-2.8,1.1-5.8,1-8.7,1.1-9.8.3-17.6,8.9-17.4,17,.4,17.9.3,35.9.4,53.8-.6,3.3-.6,6.5,0,9.8,0,24-.2,48-.2,72,0,14.9.2,29.8.3,44.7,0,17.2-.2,34.5-.3,51.7Z"/>
      <path class="cls-5" d="m67.6.6c0,1.3-.8,1.1-1.6.9-.1-.6-.1-1.3.6-1.4.3,0,.6.3,1,.5Z"/>
      <path class="cls-3" d="m46,318.8c.2-2.3-.7-4.2-2.2-6-.2-7.4-2-10.7-8.9-11.6-9.7-1.2-13.5-6.8-15.2-15.5-2.5-12.5-1.8-25.3-2.9-37.9-.2-1.9,1.2-4.6-2.4-4.9,0-14.9-.3-29.8-.3-44.7,0-24,.1-48,.2-72,1.3-2.9,0-6,.7-8.9.6-5,1.3-10.1,1.8-15.1,1.2-12.6,1.3-25.4,3.6-38,1.1-6.1,3.1-9.4,9.3-10.6,4.1-.8,9.6-1.2,11.7-4.7,2.9-4.6,7.2-8,9.9-12.6,1.1-2,2.6-3.2,4.8-4,7.7-2.9,15.5-5.6,24-5.7,157.6-.5,315.3.6,472.9-.6,93-.7,186.1-.7,279.1.4,80.7,1,161.5.2,242.3.2,1,0,2,.2,3,0,9.7-2.1,15.6,3.2,20.8,10.2,1,1.4,1,3.7,3.4,3.9,1.1,1,2.1,2,3.2,2.9-.9,5.1,1.1,7.9,6.3,8.3,1.1,0,2.2.5,3.4.7,7.3,1.3,13.8,8.8,14.2,16.3.6,11,.9,22.1,2.3,33,.6,4.8-.4,9.9,1.7,14.5.1.6.2,1.3.3,1.9-.5,5.4-.5,10.7,0,16.1,0,34.5,0,69.1-.1,103.6,0,4.6-.2,9.3-.3,13.9-1.5.2-1.6,1.2-1.9,2.5-2.1,10.4-1.7,20.9-2.8,31.4-1,9.3-2.4,11.8-11.4,15-1.9.7-3.7,1.5-5.6,2.1-4.3,1.5-6.5,4.4-6.1,9-1.1,2.3-3.3,4-3.2,6.9-4,1.4-6.1,5-8.9,7.7-5,4.8-10.4,7.5-17.7,7.4-59.5-.8-119.1-.6-178.7-.8-274.7-.7-549.3-.3-824-.2-8.6,0-14.9-3.3-20.8-8.8-1.9-1.8-2.4-4.9-5.5-5.4Z"/>
      <path class="cls-2" d="m1101.7,40.6c-2.4-.2-2.4-2.5-3.4-3.9-5.2-7-11.1-12.3-20.8-10.2-1,.2-2,0-3,0-80.8,0-161.5.8-242.3-.2-93-1.1-186.1-1.2-279.1-.4-157.6,1.2-315.3,0-472.9.6-8.5,0-16.2,2.7-24,5.7-2.2.8-3.7,2.1-4.8,4-2.7,4.7-7,8-9.9,12.6-2.2,3.5-7.6,3.9-11.7,4.7-6.2,1.2-8.2,4.6-9.3,10.6-2.3,12.6-2.4,25.3-3.6,38-.5,5.1-1.2,10.1-1.8,15.1-.2-.3-.5-.6-.7-.9-.1-17.9,0-35.9-.4-53.8-.2-8.1,7.6-16.7,17.4-17,3,0,5.9,0,8.7-1.1,3.2-1.2,5.6-3.2,5.8-7.1.2-4.9.8-9.7,2.9-14.2,3-6.3,7.1-10,14.8-10,160,.2,319.9.2,479.9.3,141,0,282,0,422.9,0,38.9,0,77.9,0,116.8-.1,10.6,0,16.8,5.9,17.7,16.5.3,3.6,1.3,7.1.8,10.7Z"/>
      <path class="cls-5" d="m46,318.8c3.1.4,3.6,3.6,5.5,5.4,5.9,5.5,12.3,8.8,20.8,8.8,274.7-.2,549.3-.5,824,.2,59.5.1,119.1,0,178.7.8,7.3,0,12.7-2.6,17.7-7.4,2.8-2.7,4.9-6.3,8.9-7.7,0,4.1-.4,8.1-1.5,12-2.9,9.7-11.2,12.2-19.8,13.9-5.9,1.2-11.8.4-17.8.2,0-.3-.1-.5-.2-.8,0,.3-.1.5-.2.8-70.6,0-141.2,0-211.7,0-81.4,0-162.8,0-244.2,0-14.5,0-29,0-43.4-.2-5.5,0-10.8,1.8-16.3.8-.4-.2-.8-.4-1.2-.6-89.7,0-179.4,0-269.1,0-63.4,0-126.8,0-190.2,0-1.7,0-3.3,0-5,.1-.4,0-.8-.2-1.2-.2-5.3-.3-10.5-.3-15.8-1.2-8.8-1.4-16.3-8.9-17-17.8-.2-2.4-1.9-4.7-1-7.2Z"/>
      <path class="cls-5" d="m14.4,242.9c3.6.3,2.2,3,2.4,4.9,1.1,12.6.4,25.4,2.9,37.9,1.7,8.6,5.6,14.3,15.2,15.5,6.9.9,8.7,4.2,8.9,11.6-4.6-3.3-10.3-1.4-15.3-3.2-6.9-2.5-12.6-5.7-14.1-13.7-.1-.4-.2-.9-.4-1.3,0-17.2.2-34.5.3-51.7Z"/>
      <path class="cls-5" d="m1104.8,311.9c-.4-4.6,1.8-7.5,6.1-9,1.9-.6,3.7-1.4,5.6-2.1,9-3.1,10.4-5.6,11.4-15,1.1-10.5.7-21,2.8-31.4.2-1.2.4-2.3,1.9-2.5,0,15.2.2,30.5.3,45.7,0,3.3-1.9,5.6-4.3,7.5-4.2,3.5-9.3,5.1-14.6,5.5-3.1.3-6.2.6-9.2,1.3Z"/>
      <path class="cls-2" d="m1132.7,116.4c-2.1-4.7-1-9.7-1.7-14.5-1.4-10.9-1.6-22-2.3-33-.4-7.4-6.9-15-14.2-16.3-1.1-.2-2.2-.6-3.4-.7-5.3-.4-7.3-3.2-6.3-8.3,3.3,1.3,6.8,2.1,10.4,2.1,7,0,12.1,3.5,16.5,8.5,1.1,1.2,1.2,2.7,1.2,4.2,0,19.4-.1,38.7-.2,58.1Z"/>
      <path class="cls-4" d="m1133,134.4c-.5-5.4-.5-10.7,0-16.1,1.1,5.4,1.1,10.7,0,16.1Z"/>
      <path class="cls-5" d="m14.3,116.5c.2.3.5.6.7.9-.6,2.9.6,6-.7,8.9-.5-3.3-.6-6.5,0-9.8Z"/>
      <path class="cls-4" d="m14.1,294.7c.1.4.2.9.4,1.3-.1-.4-.2-.9-.4-1.3Z"/>
      <path class="cls-4" d="m1062.1,345c0-.3.1-.5.2-.8,0,.3.1.5.2.8,0,0-.4,0-.4,0Z"/>
      <path class="cls-4" d="m79.7,344.9c.4,0,.8.2,1.2.2-.5.5-.9.3-1.2-.2Z"/>
      <path class="cls-4" d="m545.2,345c.4.2.8.4,1.2.6-.4-.2-.8-.4-1.2-.6Z"/>
    </g>
  </g>
</svg>