<?xml version="1.0" encoding="UTF-8"?>
<svg id="Layer_2" data-name="Layer 2" xmlns="http://www.w3.org/2000/svg" width="1146.7" height="359" viewBox="0 0 1146.7 359">
  <defs>
    <style>
      .cls-1 {
        fill: #fff;
      }

      .cls-2 {
        fill: #3d0020;
      }

      .cls-3 {
        fill: #ffb1e2;
      }

      .cls-4 {
        fill: #ff71ca;
      }

      .cls-5 {
        fill: #733555;
      }

      .cls-6 {
        fill: #e35aa9;
      }

      .cls-7 {
        fill: #c13d8e;
      }
    </style>
  </defs>
  <g id="Top">
    <g>
      <g>
        <path class="cls-2" d="m67.6.6C85.1.4,102.5,0,120,0,260.2,0,400.4,0,540.6,0c172.7,0,345.4.1,518.2.2,8.2,0,16.4-.5,24.5.2,16.6,1.5,27.6,11.5,29.5,27.9.4,3.3.9,4.8,5,5.4,15.4,2.4,27.5,11.8,28.2,30,1.4,36,.5,72,.7,108,.2,39.1.2,78.1,0,117.2-.1,18-11,31.1-29.4,32.8-3.4.3-4,2.6-4.2,5-2,17.9-14.5,28-31.7,29.7-40.8,4-81.9,1.9-122.8,2-118,.2-236.1.1-354.1,0-164.7,0-329.3,0-494-.1-13.7,0-27.4-.7-41-1.9-14.7-1.4-27.3-6.6-32.4-22.2-.7-2.1-2.1-4.4-1.8-6.4,1-5.4-2.8-5.6-6-6-14.5-1.8-25.1-13.2-27.1-26.9-2.5-16.5-1-33.1-1.4-49.6C-.2,223.2,0,200.9.1,178.7c.2-29.7-.2-59.4.4-89.2.1-6.8,0-13.6.5-20.4.6-7.5,1.2-15.1,5.6-21.8,5.2-8,13-11.6,21.7-13.5,4.3-.9,6-1.9,6.8-6.8C37.3,14,48.7-.6,64.1,1.7c.6,0,1.3-.1,2-.2.8.2,1.6.4,1.6-.9ZM14.1,294.7c.1.4.2.9.4,1.3,1.4,7.9,7.2,11.1,14.1,13.7,5,1.8,10.7,0,15.3,3.2,1.4,1.7,2.3,3.6,2.2,6-.9,2.6.8,4.8,1,7.2.7,8.9,8.2,16.3,17,17.8,5.2.9,10.5.9,15.8,1.2.3.6.7.7,1.2.2,1.7,0,3.3-.1,5-.1,63.4,0,126.8,0,190.2,0,89.7,0,179.4,0,269.1,0,.4.2.8.4,1.2.6,5.5.9,10.9-.9,16.3-.8,14.5.1,29,.2,43.4.2,81.4,0,162.8,0,244.2,0,70.6,0,141.2,0,211.7,0h.4c5.9.2,11.9.9,17.8-.2,8.6-1.7,16.8-4.2,19.8-13.9,1.2-3.9,1.5-7.9,1.5-12,0-2.8,2.1-4.6,3.2-6.9,3.1-.7,6.1-1,9.2-1.3,5.3-.4,10.4-2,14.6-5.5,2.3-1.9,4.3-4.2,4.3-7.5-.1-15.2-.2-30.5-.3-45.7.1-4.6.3-9.3.3-13.9,0-34.5,0-69.1.1-103.6,1.1-5.4,1.1-10.7,0-16.1-.1-.6-.2-1.3-.3-1.9,0-19.4.2-38.7.2-58.1,0-1.5,0-2.9-1.2-4.2-4.4-5-9.6-8.5-16.5-8.5-3.6,0-7.1-.7-10.4-2.1-1.1-1-2.1-2-3.2-2.9.5-3.6-.5-7.2-.8-10.7-.9-10.6-7-16.5-17.7-16.5-38.9,0-77.9.1-116.8.1-141,0-282,0-422.9,0-160,0-319.9,0-479.9-.3-7.6,0-11.8,3.7-14.8,10-2.1,4.5-2.7,9.4-2.9,14.2-.2,3.9-2.5,5.8-5.8,7.1-2.8,1.1-5.8,1-8.7,1.1-9.8.3-17.6,8.9-17.4,17,.4,17.9.3,35.9.4,53.8-.6,3.3-.6,6.5,0,9.8,0,24-.2,48-.2,72,0,14.9.2,29.8.3,44.7,0,17.2-.2,34.5-.3,51.7Z"/>
        <path class="cls-6" d="m67.6.6c0,1.3-.8,1.1-1.6.9-.1-.6-.1-1.3.6-1.4.3,0,.6.3,1,.5Z"/>
        <path class="cls-4" d="m46,318.8c.2-2.3-.7-4.2-2.2-6-.2-7.4-2-10.7-8.9-11.6-9.7-1.2-13.5-6.8-15.2-15.5-2.5-12.5-1.8-25.3-2.9-37.9-.2-1.9,1.2-4.6-2.4-4.9,0-14.9-.3-29.8-.3-44.7,0-24,.1-48,.2-72,1.3-2.9,0-6,.7-8.9.6-5,1.3-10.1,1.8-15.1,1.2-12.6,1.3-25.4,3.6-38,1.1-6.1,3.1-9.4,9.3-10.6,4.1-.8,9.6-1.2,11.7-4.7,2.9-4.6,7.2-8,9.9-12.6,1.1-2,2.6-3.2,4.8-4,7.7-2.9,15.5-5.6,24-5.7,157.6-.5,315.3.6,472.9-.6,93-.7,186.1-.7,279.1.4,80.7,1,161.5.2,242.3.2,1,0,2,.2,3,0,9.7-2.1,15.6,3.2,20.8,10.2,1,1.4,1,3.7,3.4,3.9,1.1,1,2.1,2,3.2,2.9-.9,5.1,1.1,7.9,6.3,8.3,1.1,0,2.2.5,3.4.7,7.3,1.3,13.8,8.8,14.2,16.3.6,11,.9,22.1,2.3,33,.6,4.8-.4,9.9,1.7,14.5.1.6.2,1.3.3,1.9-.5,5.4-.5,10.7,0,16.1,0,34.5,0,69.1-.1,103.6,0,4.6-.2,9.3-.3,13.9-1.5.2-1.6,1.2-1.9,2.5-2.1,10.4-1.7,20.9-2.8,31.4-1,9.3-2.4,11.8-11.4,15-1.9.7-3.7,1.5-5.6,2.1-4.3,1.5-6.5,4.4-6.1,9-1.1,2.3-3.3,4-3.2,6.9-4,1.4-6.1,5-8.9,7.7-5,4.8-10.4,7.5-17.7,7.4-59.5-.8-119.1-.6-178.7-.8-274.7-.7-549.3-.3-824-.2-8.6,0-14.9-3.3-20.8-8.8-1.9-1.8-2.4-4.9-5.5-5.4Z"/>
        <path class="cls-3" d="m1101.7,40.6c-2.4-.2-2.4-2.5-3.4-3.9-5.2-7-11.1-12.3-20.8-10.2-1,.2-2,0-3,0-80.8,0-161.5.8-242.3-.2-93-1.1-186.1-1.2-279.1-.4-157.6,1.2-315.3,0-472.9.6-8.5,0-16.2,2.7-24,5.7-2.2.8-3.7,2.1-4.8,4-2.7,4.7-7,8-9.9,12.6-2.2,3.5-7.6,3.9-11.7,4.7-6.2,1.2-8.2,4.6-9.3,10.6-2.3,12.6-2.4,25.3-3.6,38-.5,5.1-1.2,10.1-1.8,15.1-.2-.3-.5-.6-.7-.9-.1-17.9,0-35.9-.4-53.8-.2-8.1,7.6-16.7,17.4-17,3,0,5.9,0,8.7-1.1,3.2-1.2,5.6-3.2,5.8-7.1.2-4.9.8-9.7,2.9-14.2,3-6.3,7.1-10,14.8-10,160,.2,319.9.2,479.9.3,141,0,282,0,422.9,0,38.9,0,77.9,0,116.8-.1,10.6,0,16.8,5.9,17.7,16.5.3,3.6,1.3,7.1.8,10.7Z"/>
        <path class="cls-6" d="m46,318.8c3.1.4,3.6,3.6,5.5,5.4,5.9,5.5,12.3,8.8,20.8,8.8,274.7-.2,549.3-.5,824,.2,59.5.1,119.1,0,178.7.8,7.3,0,12.7-2.6,17.7-7.4,2.8-2.7,4.9-6.3,8.9-7.7,0,4.1-.4,8.1-1.5,12-2.9,9.7-11.2,12.2-19.8,13.9-5.9,1.2-11.8.4-17.8.2,0-.3-.1-.5-.2-.8,0,.3-.1.5-.2.8-70.6,0-141.2,0-211.7,0-81.4,0-162.8,0-244.2,0-14.5,0-29,0-43.4-.2-5.5,0-10.8,1.8-16.3.8-.4-.2-.8-.4-1.2-.6-89.7,0-179.4,0-269.1,0-63.4,0-126.8,0-190.2,0-1.7,0-3.3,0-5,.1-.4,0-.8-.2-1.2-.2-5.3-.3-10.5-.3-15.8-1.2-8.8-1.4-16.3-8.9-17-17.8-.2-2.4-1.9-4.7-1-7.2Z"/>
        <path class="cls-6" d="m14.4,242.9c3.6.3,2.2,3,2.4,4.9,1.1,12.6.4,25.4,2.9,37.9,1.7,8.6,5.6,14.3,15.2,15.5,6.9.9,8.7,4.2,8.9,11.6-4.6-3.3-10.3-1.4-15.3-3.2-6.9-2.5-12.6-5.7-14.1-13.7-.1-.4-.2-.9-.4-1.3,0-17.2.2-34.5.3-51.7Z"/>
        <path class="cls-6" d="m1104.8,311.9c-.4-4.6,1.8-7.5,6.1-9,1.9-.6,3.7-1.4,5.6-2.1,9-3.1,10.4-5.6,11.4-15,1.1-10.5.7-21,2.8-31.4.2-1.2.4-2.3,1.9-2.5,0,15.2.2,30.5.3,45.7,0,3.3-1.9,5.6-4.3,7.5-4.2,3.5-9.3,5.1-14.6,5.5-3.1.3-6.2.6-9.2,1.3Z"/>
        <path class="cls-3" d="m1132.7,116.4c-2.1-4.7-1-9.7-1.7-14.5-1.4-10.9-1.6-22-2.3-33-.4-7.4-6.9-15-14.2-16.3-1.1-.2-2.2-.6-3.4-.7-5.3-.4-7.3-3.2-6.3-8.3,3.3,1.3,6.8,2.1,10.4,2.1,7,0,12.1,3.5,16.5,8.5,1.1,1.2,1.2,2.7,1.2,4.2,0,19.4-.1,38.7-.2,58.1Z"/>
        <path class="cls-5" d="m1133,134.4c-.5-5.4-.5-10.7,0-16.1,1.1,5.4,1.1,10.7,0,16.1Z"/>
        <path class="cls-6" d="m14.3,116.5c.2.3.5.6.7.9-.6,2.9.6,6-.7,8.9-.5-3.3-.6-6.5,0-9.8Z"/>
        <path class="cls-5" d="m14.1,294.7c.1.4.2.9.4,1.3-.1-.4-.2-.9-.4-1.3Z"/>
        <path class="cls-5" d="m1062.1,345c0-.3.1-.5.2-.8,0,.3.1.5.2.8,0,0-.4,0-.4,0Z"/>
        <path class="cls-5" d="m79.7,344.9c.4,0,.8.2,1.2.2-.5.5-.9.3-1.2-.2Z"/>
        <path class="cls-5" d="m545.2,345c.4.2.8.4,1.2.6-.4-.2-.8-.4-1.2-.6Z"/>
      </g>
      <g>
        <g>
          <path class="cls-1" d="m219.5,256.8c-15.4,0-20.8-6.6-22.7-12.3-1.1-2.9-1.5-6.8-1.5-12.1v-105.6c0-3.3.1-5.7.3-7.5.3-2.4,1.2-4.9,2.6-7.6,4.7-9.1,17.3-9.1,21.4-9.1,15.4,0,20.9,6.5,22.8,12v.2c0,0,.1.2.1.2.8,2.9,1.3,6.8,1.3,12v86.7h44.2c5.5,0,9.4.7,12.5,2.2,3.7,1.9,6.4,4.9,7.6,8.9.9,2.8,1.3,6.2,1.3,10.3s-.4,7.5-1.3,10.3c-1.6,5-4.6,7.4-7,8.6-3.5,1.8-7.9,2.7-13.3,2.7h-68.4Z"/>
          <path class="cls-7" d="m219.7,110c8.9,0,14.1,2.3,15.8,7,.6,2.2,1,5.4,1,9.9v94.2h51.7c4.2,0,7.2.5,9.1,1.4,1.9.9,3.2,2.4,3.8,4.5.6,2,.9,4.7.9,8.1s-.3,6.1-.9,8.1c-.6,2-1.7,3.4-3.2,4.2-2.4,1.3-5.7,1.9-9.9,1.9h-68.4c-8.9,0-14.1-2.4-15.6-7.2-.8-2-1.1-5.3-1.1-9.7v-105.6c0-2.9,0-5.1.3-6.6.2-1.5.8-3.1,1.8-5,1.8-3.4,6.7-5.1,14.8-5.1m0-15c-14.1,0-23.5,4.4-28.1,13.1-1.9,3.5-3,6.8-3.4,10.1-.3,2.2-.4,4.9-.4,8.5v105.6c0,6.2.6,10.8,2,14.6,2.2,6.6,9,17.3,29.8,17.3h68.4c6.7,0,12.1-1.2,16.7-3.6,3.6-1.8,8.4-5.6,10.7-13,1.1-3.5,1.6-7.6,1.6-12.6s-.5-9-1.6-12.5c-1.9-5.9-5.9-10.7-11.4-13.4-4.1-2.1-9.1-3-15.8-3h-36.7v-79.2c0-6-.5-10.5-1.6-14.1v-.4c-.1,0-.2-.4-.2-.4-2.2-6.4-9.1-17.1-29.9-17.1h0Z"/>
        </g>
        <g>
          <path class="cls-1" d="m336.7,256.8c-15.4,0-20.8-6.6-22.7-12.3-1.1-2.9-1.5-6.8-1.5-12.1v-105.6c0-8.6,1.9-14.7,5.9-18.6,3.9-3.8,10.1-5.6,18.9-5.6h74.9c3.3,0,5.7.1,7.5.3,2.4.3,4.9,1.2,7.6,2.6,9.1,4.7,9.1,17.3,9.1,21.4,0,15.4-6.6,20.8-12.1,22.7-3,1-6.9,1.5-12.3,1.5h-50.8v4.2h30.1c3.3,0,5.7.1,7.5.3,2.4.3,4.9,1.2,7.6,2.6,9.1,4.7,9.1,17.3,9.1,21.4,0,15.4-6.7,20.9-12.3,22.7-3,1-6.9,1.5-12.3,1.5h-29.7v4.2h51c3.3,0,5.7.1,7.5.3,2.4.3,4.9,1.2,7.6,2.6,9.1,4.7,9.1,17.3,9.1,21.4,0,15.4-6.6,20.8-12.1,22.7-3,1-6.9,1.5-12.3,1.5h-75.2Z"/>
          <path class="cls-7" d="m412.1,110c2.9,0,5.1,0,6.6.3,1.5.2,3.1.8,5,1.8,3.4,1.8,5.1,6.7,5.1,14.8s-2.3,14.1-7,15.6c-2.2.8-5.4,1.1-9.9,1.1h-58.3v19.2h37.6c2.9,0,5.1,0,6.6.3,1.5.2,3.1.8,5,1.8,3.4,1.8,5.1,6.7,5.1,14.8s-2.4,14.1-7.2,15.6c-2.2.8-5.4,1.1-9.9,1.1h-37.2v19.2h58.5c2.9,0,5.1,0,6.6.3,1.5.2,3.1.8,5,1.8,3.4,1.8,5.1,6.7,5.1,14.8s-2.3,14.1-7,15.6c-2.2.8-5.4,1.1-9.9,1.1h-75.2c-8.9,0-14.1-2.4-15.6-7.2-.8-2-1.1-5.3-1.1-9.7v-105.6c0-6.5,1.2-10.9,3.6-13.2,2.4-2.3,7-3.5,13.7-3.5h74.9m0-15h-74.9c-10.9,0-18.8,2.5-24.1,7.8-5.5,5.3-8.1,13.2-8.1,24v105.6c0,6.2.6,10.8,2,14.6,2.2,6.6,9,17.3,29.8,17.3h75.2c6.2,0,10.9-.6,14.7-1.9,6.5-2.2,17.2-8.9,17.2-29.8s-4.4-23.5-13.1-28.1c-3.5-1.9-6.8-3-10.1-3.4-1-.1-2-.2-3.3-.3,3.2-4.6,5.6-11.2,5.6-21s-1.8-16.1-5.4-21.3c3.6-.3,6.5-.8,9.1-1.7,6.5-2.2,17.2-8.9,17.2-29.8s-4.4-23.5-13.1-28.1c-3.5-1.9-6.8-3-10.1-3.4-2.2-.3-4.9-.4-8.5-.4h0Z"/>
        </g>
        <g>
          <path class="cls-1" d="m512.8,256.6c-4.5,0-8.9-1.2-12.9-3.6-4.1-2.4-7.2-5.8-9.2-9.8l-52.5-106.6c-2.4-5.2-3.6-9.1-3.6-12.3,0-7.5,5.2-13.8,15.3-18.9,5.4-2.8,9.5-4,13-4s5.9.5,8.1,1.4c2.2,1,4.3,2.6,6,4.8l.2.2c1.4,1.8,2.7,3.9,3.8,6.1.6,1.3,2.1,4.3,7.5,16.1,3.9,8.5,8.1,17.8,12.6,27.6v.2c4.5,9.6,8.7,18.6,12.6,27.1l31.2-68.3c1.1-2.6,2.1-4.7,2.9-6.3l.2-.3.2-.3c4.7-7,10.5-8.5,14.6-8.5s9.3,1.3,14.6,4c10.2,5,15.3,11.4,15.3,18.9s-1.1,7.1-3.6,12.3l-52.5,106.5c-2.1,4.1-5.2,7.4-9.2,9.9-4,2.4-8.3,3.6-12.7,3.6h-1.9Z"/>
          <path class="cls-7" d="m562.8,108.9c3.3,0,7,1.1,11.2,3.2,7.5,3.7,11.2,7.7,11.2,12.2s-.9,5.1-2.9,9.1l-52.4,106.4c-1.4,2.8-3.5,5-6.4,6.7s-5.8,2.6-8.8,2.6h-1.9c-3.2,0-6.2-.9-9-2.6s-5-4-6.4-6.7l-52.4-106.4c-1.9-4.1-2.9-7.1-2.9-9.1,0-4.4,3.7-8.5,11.2-12.2,4.2-2.2,7.4-3.2,9.6-3.2s3.9.3,5,.8c1.1.5,2.2,1.4,3.2,2.7,1.1,1.5,2.2,3.2,3.1,5,.9,1.8,3.4,7.1,7.3,15.8,3.9,8.7,8.1,17.9,12.6,27.6,4.5,9.8,8.7,19,12.7,27.6,4,8.7,6.2,13.5,6.7,14.5l38-83.2c1-2.4,1.9-4.3,2.7-5.7,2.3-3.4,5.1-5.1,8.4-5.1m0-15c-8.4,0-15.8,4.2-20.8,11.8l-.4.6-.3.6c-1,1.8-2,4.1-3.2,6.8l-24.3,53.3c-1.8-4-3.7-8.1-5.7-12.3v-.2c-4.6-9.8-8.8-19-12.7-27.5-5.4-11.9-6.9-15-7.7-16.5-1.3-2.6-2.8-5-4.5-7.2v-.2c-.1,0-.3-.2-.3-.2-2.5-3.1-5.5-5.5-8.8-7-3.1-1.4-6.8-2.1-11.1-2.1s-9.9,1.5-16.3,4.8c-16.1,8-19.5,18.3-19.5,25.6s1.3,9.2,4.3,15.5h0c0,.1,0,.3,0,.3l52.4,106.4h0s0,0,0,0c2.7,5.4,6.7,9.7,12.1,12.9,5.2,3.1,10.8,4.7,16.7,4.7h1.9c5.8,0,11.4-1.6,16.6-4.7,5.3-3.2,9.4-7.5,12.1-12.9h0s0,0,0,0l52.4-106.4h0c0-.1,0-.3,0-.3,3-6.3,4.3-11.1,4.3-15.5,0-7.3-3.4-17.6-19.5-25.6-6.3-3.2-12.3-4.8-18-4.8h0Z"/>
        </g>
        <g>
          <path class="cls-1" d="m618.1,256.8c-15.4,0-20.8-6.6-22.7-12.3-1.1-2.9-1.5-6.8-1.5-12.1v-105.6c0-8.6,1.9-14.7,5.9-18.6,3.9-3.8,10.1-5.6,18.9-5.6h74.9c3.3,0,5.7.1,7.5.3,2.4.3,4.9,1.2,7.6,2.6,9.1,4.7,9.1,17.3,9.1,21.4,0,15.4-6.6,20.8-12.1,22.7-3,1-6.9,1.5-12.3,1.5h-50.8v4.2h30.1c3.3,0,5.7.1,7.5.3,2.4.3,4.9,1.2,7.6,2.6,9.1,4.7,9.1,17.3,9.1,21.4,0,15.4-6.7,20.9-12.3,22.7-3,1-6.9,1.5-12.3,1.5h-29.7v4.2h51c3.3,0,5.7.1,7.5.3,2.4.3,4.9,1.2,7.6,2.6,9.1,4.7,9.1,17.3,9.1,21.4,0,15.4-6.6,20.8-12.1,22.7-3,1-6.9,1.5-12.3,1.5h-75.2Z"/>
          <path class="cls-7" d="m693.5,110c2.9,0,5.1,0,6.6.3,1.5.2,3.1.8,5,1.8,3.4,1.8,5.1,6.7,5.1,14.8s-2.3,14.1-7,15.6c-2.2.8-5.4,1.1-9.9,1.1h-58.3v19.2h37.6c2.9,0,5.1,0,6.6.3,1.5.2,3.1.8,5,1.8,3.4,1.8,5.1,6.7,5.1,14.8s-2.4,14.1-7.2,15.6c-2.2.8-5.4,1.1-9.9,1.1h-37.2v19.2h58.5c2.9,0,5.1,0,6.6.3,1.5.2,3.1.8,5,1.8,3.4,1.8,5.1,6.7,5.1,14.8s-2.3,14.1-7,15.6c-2.2.8-5.4,1.1-9.9,1.1h-75.2c-8.9,0-14.1-2.4-15.6-7.2-.8-2-1.1-5.3-1.1-9.7v-105.6c0-6.5,1.2-10.9,3.6-13.2,2.4-2.3,7-3.5,13.7-3.5h74.9m0-15h-74.9c-10.9,0-18.8,2.5-24.1,7.8-5.5,5.3-8.1,13.2-8.1,24v105.6c0,6.2.6,10.8,2,14.6,2.2,6.6,9,17.3,29.8,17.3h75.2c6.2,0,10.9-.6,14.7-1.9,6.5-2.2,17.2-8.9,17.2-29.8s-4.4-23.5-13.1-28.1c-3.5-1.9-6.8-3-10.1-3.4-1-.1-2-.2-3.3-.3,3.2-4.6,5.6-11.2,5.6-21s-1.8-16.1-5.4-21.3c3.6-.3,6.5-.8,9.1-1.7,6.5-2.2,17.2-8.9,17.2-29.8s-4.4-23.5-13.1-28.1c-3.5-1.9-6.8-3-10.1-3.4-2.2-.3-4.9-.4-8.5-.4h0Z"/>
        </g>
        <g>
          <path class="cls-1" d="m745,256.8c-15.4,0-20.8-6.6-22.7-12.3-1.1-2.9-1.5-6.8-1.5-12.1v-105.6c0-3.3.1-5.7.3-7.5.3-2.4,1.2-4.9,2.6-7.6,4.7-9.1,17.3-9.1,21.4-9.1,15.4,0,20.9,6.5,22.8,12v.2c0,0,.1.2.1.2.8,2.9,1.3,6.8,1.3,12v86.7h44.2c5.5,0,9.4.7,12.5,2.2,3.7,1.9,6.4,4.9,7.6,8.9.9,2.8,1.3,6.2,1.3,10.3s-.4,7.5-1.3,10.3c-1.6,5-4.6,7.4-7,8.6-3.5,1.8-7.9,2.7-13.3,2.7h-68.4Z"/>
          <path class="cls-7" d="m745.2,110c8.9,0,14.1,2.3,15.8,7,.6,2.2,1,5.4,1,9.9v94.2h51.7c4.2,0,7.2.5,9.1,1.4,1.9.9,3.2,2.4,3.8,4.5.6,2,.9,4.7.9,8.1s-.3,6.1-.9,8.1c-.6,2-1.7,3.4-3.2,4.2-2.4,1.3-5.7,1.9-9.9,1.9h-68.4c-8.9,0-14.1-2.4-15.6-7.2-.8-2-1.1-5.3-1.1-9.7v-105.6c0-2.9,0-5.1.3-6.6.2-1.5.8-3.1,1.8-5,1.8-3.4,6.7-5.1,14.8-5.1m0-15c-14.1,0-23.5,4.4-28.1,13.1-1.9,3.5-3,6.8-3.4,10.1-.3,2.2-.4,4.9-.4,8.5v105.6c0,6.2.6,10.8,2,14.6,2.2,6.6,9,17.3,29.8,17.3h68.4c6.7,0,12.1-1.2,16.7-3.6,3.6-1.8,8.4-5.6,10.7-13,1.1-3.5,1.6-7.6,1.6-12.6s-.5-9-1.6-12.5c-1.9-5.9-5.9-10.7-11.4-13.4-4.1-2.1-9.1-3-15.8-3h-36.7v-79.2c0-6-.5-10.5-1.6-14.1v-.4c-.1,0-.2-.4-.2-.4-2.2-6.4-9.1-17.1-29.9-17.1h0Z"/>
        </g>
        <g>
          <path class="cls-1" d="m893.2,258.7c-6.6,0-12.9-.8-18.9-2.5-6.1-1.7-11-3.7-14.9-6.3-7.5-4.5-12.7-9-16-13.6l-1.5-1.9c-4.5-5.5-6.6-10.6-6.6-15.7s3.3-11.2,10.4-18.2c4.6-4.5,9.8-6.7,15.3-6.7s12,3.6,20.1,11.7l.3.3.2.3c1.2,1.5,3.1,3,5.6,4.5,2.1,1.2,3.9,1.9,5.3,1.9,10.1,0,10.2-3.8,10.2-6.9-.1-.2-.5-.5-1.2-1-2.4-1.5-5.6-2.6-9.5-3.3-5.2-1-10.8-2.5-16.7-4.6-5.9-2.1-11.6-4.6-16.7-7.4-6-3.3-11.1-8.6-15-15.5-3.8-6.9-5.8-15.1-5.8-24.5s4.9-24.8,14.6-34.5c9.7-9.7,22.9-14.6,39.2-14.6s16.1,1.1,23,3.3c7.3,2.3,12.2,4.6,15.4,7.3l4.9,3.7.3.3c5.6,5.3,8.3,10,8.3,14.8s-1.9,8.8-5.9,14.7c-5.8,8.5-12.3,12.8-19.5,12.8s-8.7-1.6-13.9-5c-.7-.4-1.5-1-3.3-2.8-.7-.7-1.4-1.2-1.9-1.7-1.4-.8-3.5-1.2-6-1.2s-4.4.5-5.9,1.5c-.7.5-1,.9-1,2.1s0,1.2,1.5,2.2c2.3,1.5,5.4,2.6,9.1,3.2,5.1.8,10.7,2,16.6,3.7,6.1,1.7,11.8,3.8,17,6.2,6.2,2.9,11.4,8,15.4,14.9,3.9,6.8,5.8,15,5.8,24.5s-2,17.9-5.8,25.2c-3.9,7.4-9.1,13.2-15.5,17.4-11.4,7.5-23.8,11.3-36.9,11.3Z"/>
          <path class="cls-7" d="m891.5,107.8c7.6,0,14.5,1,20.8,2.9,6.3,2,10.6,4,13,6l4.8,3.6c3.9,3.7,5.9,6.8,5.9,9.3s-1.5,6-4.6,10.5c-4.3,6.3-8.7,9.5-13.3,9.5s-6-1.3-9.9-3.8c-.4-.3-1.1-.9-2.2-1.9-1.1-1-2.1-1.8-2.9-2.5-2.7-1.6-6.1-2.5-10.2-2.5s-7.5,1-10.3,2.9c-2.7,2-4.1,4.7-4.1,8.2s1.6,6.3,4.8,8.5c3.2,2.2,7.2,3.6,12.1,4.4,4.8.8,10.1,1.9,15.8,3.5,5.7,1.6,11,3.5,15.8,5.8,4.8,2.3,8.8,6.2,12.1,11.9,3.2,5.6,4.8,12.6,4.8,20.8s-1.6,15.5-4.9,21.8c-3.3,6.3-7.6,11.1-12.9,14.5-10.3,6.7-21.2,10.1-32.9,10.1s-11.6-.7-16.9-2.2c-5.3-1.5-9.6-3.3-12.9-5.4-6.7-4.1-11.4-8-14.1-11.8l-1.7-2.1c-3.3-4.1-4.9-7.7-4.9-10.9s2.7-7.5,8.2-12.8c3.2-3,6.5-4.6,10.1-4.6s8.5,3.2,14.8,9.5c1.8,2.2,4.3,4.2,7.6,6.2,3.3,2,6.3,2.9,9.1,2.9,11.8,0,17.7-4.8,17.7-14.4s-1.6-5.3-4.8-7.3c-3.2-2-7.3-3.4-12.1-4.3-4.8-.9-10-2.3-15.6-4.3-5.6-2-10.8-4.3-15.6-6.9-4.8-2.7-8.8-6.9-12.1-12.6-3.2-5.8-4.8-12.7-4.8-20.8s4.1-20.9,12.4-29.2c8.3-8.3,19.6-12.4,33.9-12.4m0-15c-18.4,0-33.3,5.7-44.5,16.8-11.2,11.2-16.8,24.6-16.8,39.8s2.3,20.1,6.8,28.1c2.8,5,6.2,9.3,10,12.8-2.1,1.2-4.3,2.8-6.4,4.9h0s0,0,0,0c-5.4,5.3-12.7,13.5-12.7,23.6s2.8,13.6,8.3,20.4l1.4,1.7c3.9,5.3,9.8,10.4,18,15.4,4.6,3,10.1,5.3,16.9,7.2,6.6,1.8,13.6,2.7,20.9,2.7,14.6,0,28.4-4.2,41-12.5,7.5-4.8,13.5-11.6,18-20.1,4.4-8.4,6.7-18.1,6.7-28.7s-2.3-20.4-6.8-28.3c-4.6-8.1-10.6-14-17.9-17.6,3.4-2.6,6.6-6.1,9.6-10.4,4.9-7.1,7.2-13.2,7.2-18.9,0-10.3-8-17.8-10.6-20.3l-.6-.5-.6-.5-4.5-3.4c-4-3.3-9.7-6-17.8-8.5-7.7-2.4-16.2-3.6-25.3-3.6h0Z"/>
        </g>
      </g>
    </g>
  </g>
</svg>