<?xml version="1.0" encoding="UTF-8"?>
<svg id="Layer_2" data-name="Layer 2" xmlns="http://www.w3.org/2000/svg" width="1139.9" height="345" viewBox="0 0 1139.9 345">
  <defs>
    <style>
      .cls-1 {
        fill: #fff;
      }

      .cls-2 {
        fill: #94bad6;
      }

      .cls-3 {
        fill: #3d0020;
      }

      .cls-4 {
        fill: #ace9ff;
      }

      .cls-5 {
        fill: #d2f3ff;
      }

      .cls-6 {
        fill: #58c1dd;
      }

      .cls-7 {
        fill: #400424;
      }
    </style>
  </defs>
  <g id="Top">
    <g>
      <g>
        <path class="cls-3" d="m1125.7,205c-3.9,3.1-8.1,5.7-12.6,7.8-2.1.9-2.3,1.3-.9,3.3,4.1,5.9,7.1,12.9,7.2,19.7.2,9.9-2.5,19.7-9.5,27.5-7.7,8.6-17.2,13.4-28.9,13.5-4.3,0-7.3-.8-6.7,6.3.6,6.5-3.8,12.8-8.4,18.1-.8.9-1.5,1.7-2.3,2.6-.3.4-.5.7-.8,1.1-8.8,6.9-18.7,10.7-30,9.7-.3-.3-.7-.5-1-.8-1.3,0-2.6-.1-3.9-.2-.1-1.2-.5-2.5-1.8-2.4-1.6,0-1,1.7-1.2,2.7-3.2,4.7-5.9,9.8-10.3,13.7-9.2,8.2-19.7,13.3-31.9,15.2-12.8,1.9-25.6,2.4-38.5,2.4-255.3,0-510.6,0-766-.2-11,0-22.2-.7-32.6-5.4-.3-.3-.7-.5-1-.8-3.6-2-7.7-2.8-11-5.2-.4-.3-.8-.5-1.2-.8l-1.8-1.2-1.1-.8c-6.1-4.2-10.9-9.5-12.9-16.8,0-1.1.4-2.4-1-2.9-1.3-.4-1.7.5-1.9,1.5-5.5,2.2-11.4,1.1-17,2-.4-.3-.7-.5-1.1-.8-10.9-1.5-18.6-7.7-24.5-16.4-3.4-5-5.7-10.4-5.3-16.6,0-1.5.3-3-2-3.1-2.8-3.3-5.9-2-9-.7-15.4-1.5-24.3-11.2-30.9-24.1,1.1-2.3.4-4-1.9-5-2.7-11.4-.8-21.8,6-31.4,2.5-3.5-1.3-3.5-2.7-4.2-11.6-5.3-18.6-14.4-22.4-26.2-.3-.3-.5-.7-.8-1-3.5-7.9-1.6-15.9-.2-23.8,0-.4,0-.8,0-1.2.4-6.3,3.8-11.4,7.3-16.1,5-6.7,11.2-12.4,19.7-14.8.5-.1.9-.2,1.4-.4-.4-.2-.8-.4-1.2-.6-1.8-3.3-4.3-6.1-5.2-9.9-.2-.3-.5-.7-.7-1,0-.6-.2-1.3-.3-1.9-.3-.4-.5-.7-.8-1.1,0-.3,0-.7,0-1,1.1-1.7,1.5-3.2-1.1-4,0-3.3,0-6.6,0-10,1.3-.2,2.3-.6.8-2,3.7-16,13.3-26.5,29.4-30.6,3.4-.9,7.3-.4,10.9-.3,2.5,0,3.6-.9,3.6-3.5-.1-13.9,11.3-28.5,25.6-32.6,6.4-1.8,13-1.3,19.5-.2,3,.5,4.7.4,6-2.7,2.2-5.6,5.8-10.2,10.6-13.9.4-.3.8-.6,1.3-.9,8.3-6.5,17.7-9.8,28.2-10.2,128.3-4.7,256.7-1.2,385-1.8,136.4-.6,272.7-.3,409.1-.2,14.7,0,29.6.3,43.9,4.2,12.9,3.5,23.8,10.6,28.8,23.9,1.3,3.4,3.2,1.7,4.6,1.4,21-4.1,38.4,4.8,45,25.4.7,2.2.6,4.3.4,6.4-.2,3.5,1.1,4.8,4.6,4.5,8.4-.7,16.1,1.4,23.2,5.9,17.9,11.4,23,37.1,10.5,54-1.9,2.5-.6,2.9,1.1,3.7,14.1,6.1,22.4,16.9,25.6,31.6,3.4,15.6-.7,29.3-11.3,41.2-.3.4-.6.8-.9,1.2-.3.4-.5.7-.8,1.1Zm-62.9-128.7c-.3,0-.6-.2-.9-.2,0,0,.1.1.1.1,0-.6-.2-1.2-.2-1.8-.3-.3-.5-.7-.8-1,0-1,0-2,0-3,.3-.4.5-.7.8-1.1,0-3.3,0-6.5,0-9.8-.2-.4-.5-.7-.7-1.1-.5-3.3-2.1-6.1-4.4-8.5-8.5-9.2-18.9-10.1-30.3-6.7-2.4.7-4.9,2-7.6,1.1-.3-.3-.7-.5-1-.8-2.2-1.4-4.2-3-3.9-6,1.5-1.4.4-1.7-.9-2,0-1.9-.8-3.4-1.8-5-5.5-9.3-15.1-11-24.4-13.1-.4-.3-.8-.5-1.1-.8-3.6,0-7.2-.1-10.9-.2-.4-.3-.7-.5-1.1-.8-8.6.3-17-1.8-25.7-1.8-142.4,0-284.9,0-427.3,0-101.5,0-203,0-304.5,0-22.6,0-45.1,0-67.5,4.6-14.1,2.9-22.2,10.2-22.9,23.1h-.5c-.2.2-.5.5-.7.9,0,.3-.1.6-.2.9-6.2,2.4-12-.3-17.9-1.5-14.8-2.9-28.4,7.9-28.7,21.6-1,4.3,2.7,8.6-.2,12.9-2.4,1.6-4.9,2-7.8,2.1-6.2.2-12.5-1.1-18.6,1-14.7,4.9-21.5,21.1-15.6,35,.9,1.9,1.3,4.3,2.7,5.6,4.7,4.5,6.2,9.9,5.6,16.2-1.7,1.9-3.5,3.5-6.3,4-14.6,2.8-23.4,14.6-25,27.9-2.6,2.9-.5,6,.3,8.7,3,11.2,8.7,20.3,20.3,24.6,4.3,1.6,9.4,1.8,11.9,6.7-.8,5.9-3.3,10.9-7.2,15.4-1.9,2.2-2.7,4.7-3.2,7.5-2.7,4.5-2.4,9.1-.9,13.9,4.2,13.4,14.5,20.2,28.1,20.8,4.4.2,9.1-.9,13.7-.7,2.1,2.2,3.9,4.5,3.5,7.8-1.9,2.8-2.1,6.2-1.2,9.1,2.7,9.2,8.1,15.9,17.6,19,6.9,2.2,13.3,0,19.8-1.6,6.9-1.7,10.1.2,11.4,7,1,5.3,4,9.2,8,12.5,12.2,10.2,27.2,11.2,41.9,12.6,9.4.9,19,.2,28.5.2,117.6.1,235.2.3,352.8.3,124.3,0,248.7-.2,373-.3,2.3,0,4.7.1,7,.2.3,1.4.7,2.3,2.1.7,2.5.3,4.7-1.1,7.2-1,9.7.4,19.4.2,29-1.8,9.2-1.9,18.8-2.7,26.6-9,5.4-4.4,10.7-8.7,11.2-16.5,0-1.5,1.2-2.9,1.9-4.4.3,0,.5,0,.8,0,.4-.2.8-.5,1.1-.7,2,0,4-.2,6-.3,1.5,1.7,3.8,1.3,5.7,2,8.8,3.2,22.7-.8,28.8-9.8,3.7-5.5,3.5-11.2,3.5-17.1-.3-.3-.5-.7-.8-1-1.2-3.5,1-5.6,2.9-7.9,1.9,0,3.9-.1,5.8-.2,5.4.6,10.6,1,16.3-.4,21.7-5.3,27.5-32,11.6-46.2,0-.3,0-.6,0-.9-.3-1.8,1.3-4.3-1.7-5.2-.2-1-.4-1.9-.7-2.9.7-5.5,5.4-5.9,9.3-7.1,12.6-3.8,22-14.7,22-25.9,1.5-3.3,1.7-6.7-.1-10,0-1,0-1.9.1-2.9-.2-.4-.5-.7-.7-1.1-1.1-4.5-3.5-8.3-6.3-11.9.3-2.3-.7-3.4-3.1-3.1-3.7-3.4-8-5.4-12.9-6.2-.3-.3-.7-.5-1-.8-.7,0-1.3-.1-2-.2-.3-.3-.7-.5-1-.8-2.1-.6-3.4-2-4.2-4,1.4-1.6-.4-3.4.4-5,2.7-.6,1.6-2.6,1.7-4.3,2.3-3.6,4.5-7.1,6.8-10.7.2-.7.4-1.3.5-2,.2-.4.5-.7.7-1.1,0-3.6,1.7-7.1,1-10.9,1.5-1.4.5-1.8-.8-2,0-1-.1-1.9-.2-2.9-.3-.4-.5-.7-.8-1.1-2.2-6.5-6.7-10.7-12.6-14.1-6.6-3.9-13.6-2.5-20.6-2.7-1.3-1.6-1.8-.6-2,.7-1,0-2,0-3,0-.8-1.7-2.4-2.2-4-2.8Z"/>
        <path class="cls-7" d="m54.7,276.8c3.1-1.3,6.3-2.5,9,.7-3-.1-6.2,1.2-9-.7Z"/>
        <path class="cls-7" d="m21.9,247.8c2.4,1,3,2.6,1.9,5-1.5-1.3-1.8-3.1-1.9-5Z"/>
        <path class="cls-7" d="m1024.8,313.7c.1-1-.4-2.6,1.2-2.7,1.3,0,1.7,1.2,1.8,2.4-1,0-2,.2-3,.3Z"/>
        <path class="cls-7" d="m113.7,312.4c.2-1.1.7-2,1.9-1.5,1.5.5,1,1.8,1,2.9-.8-.7-1.7-1.5-2.9-1.4Z"/>
        <path class="cls-7" d="m21,109.2c2.6.7,2.2,2.2,1.1,4,.3-1.5-1.8-2.3-1.1-4Z"/>
        <path class="cls-7" d="m21.8,97.3c1.5,1.4.4,1.7-.8,2-.2-.8-.4-1.7.8-2Z"/>
        <path class="cls-7" d="m28.9,128.1c.4.2.8.4,1.2.6-.5.1-.9.2-1.4.4,0-.3.1-.7.2-1Z"/>
        <path class="cls-7" d="m128.7,12.7c-.4.3-.8.6-1.3.9.2-.5.5-1.1,1.3-.9Z"/>
        <path class="cls-7" d="m1.8,160c0,.4,0,.8,0,1.2-.2-.3-.5-.5-.7-.8.3-.1.5-.3.8-.4Z"/>
        <path class="cls-7" d="m2,185c.3.3.5.7.8,1-.6,0-1-.3-.8-1Z"/>
        <path class="cls-7" d="m1125.7,205c.3-.4.5-.7.8-1.1.2.7-.3.9-.8,1.1Z"/>
        <path class="cls-7" d="m1062.8,304.7c.3-.4.5-.7.8-1.1.2.7-.3.9-.8,1.1Z"/>
        <path class="cls-7" d="m22,114.2c.3.4.5.7.8,1.1-.6,0-1-.4-.8-1.1Z"/>
        <path class="cls-7" d="m23,117.2c.2.3.5.7.7,1-.6,0-1-.3-.7-1Z"/>
        <path class="cls-7" d="m95.6,313.6c.4.3.7.5,1.1.8-.7.2-1-.2-1.1-.8Z"/>
        <path class="cls-7" d="m1031.7,313.6c.3.3.7.5,1,.8-.7.2-1-.2-1-.8Z"/>
        <path class="cls-7" d="m129.5,330.6l1.1.8c-.7.2-1-.2-1.1-.8Z"/>
        <path class="cls-7" d="m132.4,332.5c.4.3.8.5,1.2.8-.7.3-1-.3-1.2-.8Z"/>
        <path class="cls-7" d="m144.6,338.5c.3.3.7.5,1,.8-.7.2-.9-.2-1-.8Z"/>
        <path class="cls-4" d="m1104.4,115.2c-2.3,3.6-4.5,7.1-6.8,10.7-1.5,1-2.3,2.4-1.7,4.3-.8,1.6,1,3.4-.4,5-4.2,5.1-2.7,10.4,4.2,12.7,6.1,2.1,12.1,4.2,17.3,8.2,3.7,2.9,6,6.9,9.6,9.9,1.8,3.3,1.7,6.6.1,10-2.3,0-3.4,2-4.7,3.4-4.3,4.5-9.4,7.7-15.1,10.1-3.2,1.3-6.5,2.6-9.5,4.3-5.5,3.1-6.6,11.6-2,15.3.2,1,.4,1.9.7,2.9-.5,2.1-.5,4,1.7,5.2,0,.3,0,.6,0,.9,3.2,6.8-.1,13.2-1.4,19.6-2.8,13.8-10.6,22.8-25,25.2-1,.2-1.3.9-1.5,1.7-1.9,0-3.9.1-5.8.2-6.7,0-10.1,2.3-12.2,9.2-2.7,8.9-6.9,16.4-15.7,20.7-3.9,1.9-8.3,1.9-12.1,3.8-2,0-4,.2-6,.3-.7-.3-1,.2-1.1.7-.3,0-.5,0-.8,0-3.2-.2-5.7,1.6-7.1,3.8-2.8,4.4-7.1,6-11.6,7-20.5,4.8-41.2,6.4-62.4,6.4-249.1-.4-498.1-.3-747.2-.2-11.2,0-22.1-1.7-33.2-2.2-8.4-.4-15.7-3.6-21-10.6-1.4-1.8-3.3-3.3-4.9-5-4.9-5.5-10.5-8.5-18.2-7.3-3.9.6-8,.3-12,0-6.3-.4-11.4-2.5-14.3-8.9-1.5-3.4-1.8-7.4-4.8-10.1.5-3.3-1.4-5.6-3.5-7.8-1.7-6.1-6.9-7.3-11.9-7.9-13.9-1.7-22.7-8.9-26.4-22.4-.4-1.4-.2-3.6-2.6-3.7.5-2.7,1.3-5.3,3.2-7.5,3.8-4.5,6.4-9.5,7.2-15.4,2.3-.7,1.2-2.1,1-3.6-1.5-8.6-8.1-13-14.8-17.1-7.2-4.4-12.1-10.6-15.7-18.1.4-.5,1-1,1.2-1.5,3.2-10.4,10.1-16.6,20.9-18.9,3.1-.6,5.8-2.5,7.8-5.1,2.3-3,1.6-6.3-1.6-7.6.6-6.2-1-11.7-5.6-16.2-1.4-1.4-1.8-3.7-2.7-5.6,4-3.4,3.6-8.7,5.2-13.1,3.9-10.7,6.8-13,18.2-13,4.6,0,9.3.6,13.7-1.4,4.8-2.2,6.7-6,5-10.6,2.9-4.3-.8-8.6.2-12.9,3.8-1,5.5-4.6,8.2-6.9,5.3-4.6,10.9-7.6,18.4-6.2,3.6.6,7.1,1.4,10.7,2,3.6.6,7-.3,9.4-3.3,1.5-1.8,1.9-3.8,0-5.7,0-.3.1-.6.2-.9.6,0,1-.3.7-1,0,0,.5,0,.5,0,1.2,0,2.5,0,3.2-1.1,6.4-9.7,16-13.1,27-14.2,12.7-1.3,25-3.9,38-4,257.9-.3,515.7,1.5,773.6-.6,16-.1,30.2,5.5,39.5,20,1.9,3,4.4,5.1,9,5.9,5.9,1,11.6-.9,17.4.8,7.4,2.1,14.4,4.4,18.1,11.8,1.6,3.2,2.1,7,3.5,10.3,1.2,3.1,2.7,6.3,7,5.8,0,0-.1-.1-.1-.1.2.4.5.8.7,1.2.7.7,1.4,1.4,2.1,2.2,5.2,3,11.1,4.1,16.8,5.6,10.4,2.7,16.8,9.1,19.3,19.6.9,3.6.3,7.7,3.6,10.5Z"/>
        <path class="cls-2" d="m79.2,272.6c3,2.7,3.3,6.7,4.8,10.1,2.9,6.4,8,8.6,14.3,8.9,4,.2,8.1.5,12,0,7.7-1.2,13.4,1.8,18.2,7.3,1.5,1.7,3.5,3.2,4.9,5,5.3,7,12.5,10.2,21,10.6,11.1.5,22.1,2.2,33.2,2.2,249.1,0,498.1-.2,747.2.2,21.2,0,41.9-1.7,62.4-6.4,4.5-1.1,8.8-2.6,11.6-7,1.4-2.2,4-4.1,7.1-3.8-.7,1.5-1.8,2.9-1.9,4.4-.5,7.8-5.8,12.1-11.2,16.5-7.8,6.3-17.4,7.1-26.6,9-9.6,2-19.3,2.3-29,1.8-2.6-.1-4.7,1.3-7.2,1-.4-1.1-1.2-.9-2.1-.7-2.3,0-4.7-.2-7-.2-124.3,0-248.7.3-373,.3-117.6,0-235.2-.2-352.8-.3-9.5,0-19.1.7-28.5-.2-14.7-1.4-29.8-2.4-41.9-12.6-4-3.4-7-7.2-8-12.5-1.3-6.8-4.5-8.6-11.4-7-6.5,1.6-12.8,3.8-19.8,1.6-9.5-3.1-15-9.9-17.6-19-.8-2.9-.6-6.3,1.2-9.1Z"/>
        <path class="cls-5" d="m1062,76.2c-4.3.5-5.8-2.7-7-5.8-1.3-3.4-1.9-7.1-3.5-10.3-3.6-7.4-10.7-9.7-18.1-11.8-5.8-1.6-11.5.2-17.4-.8-4.6-.8-7-2.9-9-5.9-9.3-14.5-23.5-20.1-39.5-20-257.9,2-515.7.3-773.6.6-13,0-25.3,2.7-38,4-11,1.1-20.6,4.5-27,14.2-.7,1.1-2,1-3.2,1.1.7-13,8.8-20.2,22.9-23.1,22.4-4.6,44.9-4.6,67.5-4.6,101.5,0,203,0,304.5,0,142.4,0,284.9.1,427.3,0,8.6,0,17.1,2.1,25.7,1.8.1.6.4,1,1.1.8,3.6,0,7.2.1,10.9.2.2.6.4,1,1.1.8,9.3,2.2,18.9,3.9,24.4,13.1.9,1.6,1.8,3.1,1.8,5-.1.8-.4,1.7.9,2-.3,3,1.7,4.6,3.9,6,0,.6.4,1,1,.8,2.7.9,5.1-.4,7.6-1.1,11.4-3.4,21.7-2.5,30.3,6.7,2.3,2.4,3.9,5.2,4.4,8.5-.3.7.1.9.7,1.1,0,3.3,0,6.5,0,9.8-.6.1-1,.4-.8,1.1,0,1,0,2,0,3-.2.7.2,1,.8,1,0,.6.2,1.2.2,1.8Z"/>
        <path class="cls-5" d="m77.7,76.2c1.7,4.6-.2,8.3-5,10.6-4.4,2-9.1,1.4-13.7,1.4-11.4,0-14.3,2.3-18.2,13-1.6,4.4-1.2,9.6-5.2,13.1-5.9-13.9.9-30.1,15.6-35,6.1-2,12.4-.7,18.6-1,2.9-.1,5.5-.5,7.8-2.1Z"/>
        <path class="cls-2" d="m1023.8,298.6c3.8-1.9,8.2-1.9,12.1-3.8,8.8-4.3,13-11.8,15.7-20.7,2.1-7,5.5-9.3,12.2-9.2-1.9,2.3-4.2,4.5-2.9,7.9-.1.6.2.9.8,1,0,5.9.2,11.6-3.5,17.1-6.1,8.9-20,13-28.8,9.8-1.9-.7-4.2-.3-5.7-2Z"/>
        <path class="cls-2" d="m1069.7,264.6c.2-.8.5-1.6,1.5-1.7,14.4-2.4,22.2-11.5,25-25.2,1.3-6.4,4.6-12.8,1.4-19.6,15.8,14.1,10.1,40.8-11.6,46.2-5.7,1.4-10.9,1-16.3.4Z"/>
        <path class="cls-2" d="m34.8,230.8c2.4,0,2.2,2.3,2.6,3.7,3.7,13.5,12.5,20.7,26.4,22.4,5,.6,10.2,1.8,11.9,7.9-4.6-.2-9.2.9-13.7.7-13.6-.6-23.9-7.4-28.1-20.8-1.5-4.7-1.8-9.4.9-13.9Z"/>
        <path class="cls-2" d="m15.6,169.3c3.5,7.5,8.4,13.7,15.7,18.1,6.7,4.1,13.3,8.4,14.8,17.1.3,1.4,1.4,2.9-1,3.6-2.4-4.9-7.6-5.1-11.9-6.7-11.6-4.3-17.3-13.3-20.3-24.6-.7-2.7-2.9-5.7-.3-8.7,1.2-.2,2,.7,2.9,1.2Z"/>
        <path class="cls-5" d="m124.5,43.3c2,1.9,1.6,3.9,0,5.7-2.4,2.9-5.8,3.8-9.4,3.3-3.6-.6-7.1-1.4-10.7-2-7.5-1.3-13.1,1.6-18.4,6.2-2.7,2.3-4.4,5.9-8.2,6.9.3-13.6,13.9-24.5,28.7-21.6,5.9,1.2,11.7,3.9,17.9,1.5Z"/>
        <path class="cls-2" d="m1095.3,209c-4.5-3.7-3.5-12.2,2-15.3,3-1.7,6.3-2.9,9.5-4.3,5.7-2.4,10.8-5.6,15.1-10.1,1.3-1.4,2.4-3.3,4.7-3.4,0,11.2-9.4,22.2-22,25.9-4,1.2-8.6,1.6-9.3,7.1Z"/>
        <path class="cls-5" d="m1104.4,115.2c-3.3-2.8-2.7-6.9-3.6-10.5-2.6-10.5-8.9-16.9-19.3-19.6-5.7-1.5-11.6-2.6-16.8-5.6l2-.3c1,0,2,0,3,0,.8.2,1.7.3,2-.7,6.9.2,13.9-1.2,20.6,2.7,5.9,3.5,10.4,7.7,12.6,14.1-.2.7.2,1,.8,1.1,0,1,.1,1.9.2,2.9-.2.8-.4,1.7.8,2,.7,3.7-1,7.2-1,10.9-.5.2-1,.4-.7,1.1-.2.7-.4,1.3-.5,2Z"/>
        <path class="cls-5" d="m15.6,169.3c-.9-.6-1.7-1.4-2.9-1.2,1.5-13.4,10.4-25.1,25-27.9,2.8-.5,4.6-2.1,6.3-4,3.2,1.3,3.9,4.6,1.6,7.6-2,2.6-4.7,4.5-7.8,5.1-10.8,2.2-17.7,8.4-20.9,18.9-.2.6-.8,1-1.2,1.5Z"/>
        <path class="cls-5" d="m1126.5,166c-3.5-3-5.8-7-9.6-9.9-5.2-4-11.2-6.1-17.3-8.2-6.8-2.3-8.4-7.6-4.2-12.7.8,2,2.1,3.4,4.2,4,0,.6.3,1,1,.8.7,0,1.3.1,2,.2,0,.6.3,1,1,.8,4.9.8,9.2,2.8,12.9,6.2,1,1,2.1,2,3.1,3.1,2.8,3.6,5.1,7.4,6.3,11.9-.3.7.1.9.7,1.1,0,1,0,1.9-.1,2.9Z"/>
        <path class="cls-7" d="m1097.6,217.1c-2.2-1.2-2.1-3.2-1.7-5.2,3,1,1.4,3.4,1.7,5.2Z"/>
        <path class="cls-7" d="m1066.8,79.1c-.7.1-1.3.2-2,.3-.7-.7-1.4-1.4-2.1-2.2.1-.3.2-.6.2-1,1.5.6,3.2,1.2,4,2.8Z"/>
        <path class="cls-7" d="m1095.9,130.1c-.6-1.9.2-3.2,1.7-4.3-.1,1.6.9,3.7-1.7,4.3Z"/>
        <path class="cls-7" d="m1119.7,150.2c-1-1-2.1-2-3.1-3.1,2.3-.3,3.4.7,3.1,3.1Z"/>
        <path class="cls-7" d="m1071.8,78.4c-.4,1.1-1.2.9-2,.7.3-1.4.7-2.3,2-.7Z"/>
        <path class="cls-7" d="m1013.8,37.4c-1.2-.3-1-1.1-.9-2,1.3.2,2.3.6.9,2Z"/>
        <path class="cls-7" d="m1106.7,101.2c-1.2-.3-1-1.2-.8-2,1.3.3,2.4.6.8,2Z"/>
        <path class="cls-7" d="m937.9,331.7c.8-.2,1.7-.4,2.1.7-1.3,1.6-1.8.7-2.1-.7Z"/>
        <path class="cls-7" d="m1126.7,163.1c-.6-.1-1-.4-.7-1.1.2.4.5.7.7,1.1Z"/>
        <path class="cls-7" d="m974.8,16.3c-.7.2-1-.2-1.1-.8.4.3.7.5,1.1.8Z"/>
        <path class="cls-7" d="m986.8,17.3c-.7.2-1-.2-1.1-.8.4.3.8.5,1.1.8Z"/>
        <path class="cls-7" d="m125.4,41.4c.3.7,0,.9-.7,1,.2-.3.5-.6.7-1Z"/>
        <path class="cls-7" d="m1018.8,44.2c-.7.2-1-.2-1-.8.3.3.7.5,1,.8Z"/>
        <path class="cls-7" d="m1061.7,59.4c-.6-.1-1-.4-.7-1.1.2.4.5.7.7,1.1Z"/>
        <path class="cls-7" d="m1060.9,70.3c-.2-.7.2-1,.8-1.1-.3.4-.5.7-.8,1.1Z"/>
        <path class="cls-7" d="m1061.8,74.3c-.6,0-1-.3-.8-1,.3.3.5.7.8,1Z"/>
        <path class="cls-5" d="m1062.8,76.3c0,.3,0,.7-.2,1-.2-.4-.5-.8-.7-1.2.3,0,.6.1.9.2Z"/>
        <path class="cls-7" d="m1105.7,96.3c-.6-.1-1-.4-.8-1.1.3.4.5.7.8,1.1Z"/>
        <path class="cls-7" d="m1016.6,299.6c.2-.5.5-1,1.1-.7-.4.2-.8.5-1.1.7Z"/>
        <path class="cls-7" d="m1105,113.2c-.3-.7.2-.9.7-1.1-.2.4-.5.7-.7,1.1Z"/>
        <path class="cls-7" d="m1061.7,273.8c-.6,0-.9-.4-.8-1,.3.3.5.7.8,1Z"/>
        <path class="cls-7" d="m1100.7,140c-.7.2-1-.2-1-.8.3.3.7.5,1,.8Z"/>
        <path class="cls-7" d="m1103.7,140.9c-.7.2-1-.2-1-.8.3.3.7.5,1,.8Z"/>
      </g>
      <g>
        <g>
          <path class="cls-1" d="m271.1,234c-21.3,0-39.6-7.8-54.5-23.2-14.8-15.3-22.3-33.8-22.3-55s2.1-22.4,6.3-32.4c4.2-10.1,9.9-18.7,16.9-25.6,7-6.8,15.1-12.3,24.1-16.2,9.1-3.9,18.7-5.9,28.4-5.9,20.7,0,38.9,7.6,54.1,22.5,15.2,15,23,33.7,23,55.8s-7.3,40.9-21.8,56.4c-14.6,15.6-32.8,23.6-54.1,23.6Zm-.6-109.6c-7,0-13.3,2.8-19.1,8.4-5.8,5.6-8.6,12.8-8.6,22.1s2.8,16.5,8.6,22.1c5.9,5.7,12.2,8.4,19.2,8.4s13.3-2.7,19.2-8.2c5.7-5.4,8.5-12.6,8.5-22.1s-2.8-16.8-8.6-22.3c-5.9-5.6-12.2-8.4-19.2-8.4Z"/>
          <path class="cls-6" d="m269.9,83.3c18.7,0,35,6.8,48.8,20.3,13.8,13.6,20.7,30.4,20.7,50.4s-6.6,37.2-19.8,51.3c-13.2,14.1-29.4,21.2-48.6,21.2s-35.6-7-49.1-20.9c-13.5-13.9-20.2-30.5-20.2-49.8s1.9-20.4,5.7-29.5c3.8-9.2,8.9-16.9,15.2-23.1,6.3-6.2,13.6-11.1,21.9-14.6,8.2-3.5,16.7-5.3,25.5-5.3m.8,109.6c9,0,17.1-3.4,24.3-10.3,7.2-6.8,10.8-16,10.8-27.6s-3.6-20.8-10.9-27.7c-7.3-7-15.4-10.5-24.4-10.5s-17.1,3.5-24.3,10.5c-7.2,7-10.8,16.2-10.8,27.5s3.6,20.4,10.9,27.5c7.3,7,15.4,10.5,24.4,10.5m-.8-124.6c-10.7,0-21.3,2.2-31.4,6.5-9.9,4.3-18.8,10.2-26.4,17.7-7.8,7.6-14,17-18.6,28.1-4.5,11-6.8,22.8-6.8,35.3,0,23.2,8.2,43.5,24.5,60.2,16.4,16.9,36.5,25.5,59.9,25.5s43.5-8.7,59.6-26c15.8-16.9,23.8-37.6,23.8-61.5s-8.5-44.7-25.2-61.1c-16.7-16.3-36.6-24.6-59.3-24.6h0Zm.8,109.6c-5.1,0-9.5-2-14-6.3-4.3-4.2-6.3-9.5-6.3-16.7s2-12.5,6.3-16.7c4.4-4.3,8.8-6.3,13.9-6.3s9.6,2,14,6.3c2.7,2.6,6.3,7.1,6.3,16.9s-3.5,14.2-6.1,16.7c-4.4,4.2-8.9,6.1-14,6.1h0Z"/>
        </g>
        <g>
          <path class="cls-1" d="m373.9,275.1c-4.8,0-8.6-.5-11.7-1.5-5.3-1.7-7.9-5-9.2-7.4-1.4-2.6-2.2-5-2.5-7.3-.2-1.8-.4-4.2-.4-7.5v-111c0-3.3.1-5.7.4-7.5.3-2.2,1.1-4.6,2.3-7.1h0c3.2-6.2,9.7-9.3,19.4-9.3s14.3,1.3,18,4c.6.5,1.2.9,1.8,1.5,5.6-3.5,12.4-5.3,20.6-5.3,12.4,0,24.1,5.7,34.8,17,10.6,11.2,15.9,24.3,15.9,39.2s-5.3,28-15.8,39.2c-10.6,11.3-22.3,17-34.8,17s-10.7-.8-15.1-2.3v24.4c0,3.3-.1,5.7-.4,7.5-.3,2.3-1.1,4.6-2.5,7.3-1.9,3.6-5,6.2-9.1,7.6-3.1,1-6.9,1.5-11.7,1.5Zm33-110.8c-3.4,0-5,1.3-6,2.5-1.8,2.1-2.6,4.1-2.6,6.3s.8,4.2,2.6,6.1c1.6,1.8,3.3,2.5,5.8,2.5s4.6-.8,6.4-2.7c2.4-2.5,2.7-4.6,2.7-6,0-2.3-.8-4.3-2.6-6.3-1.6-1.8-3.6-2.6-6.3-2.6Z"/>
          <path class="cls-6" d="m372.1,124.1c6.7,0,11.2.9,13.6,2.6,2.3,1.7,3.7,4.2,4.1,7.5,4.8-6.6,12.4-9.9,22.7-9.9s20.1,4.9,29.4,14.6c9.2,9.8,13.9,21.1,13.9,34s-4.6,24.3-13.8,34c-9.2,9.8-19,14.6-29.4,14.6s-17.9-2.9-22.6-8.7v38.4c0,2.9,0,5.1-.3,6.5-.2,1.4-.8,3-1.7,4.8-1,1.8-2.6,3.1-4.8,3.9-2.3.8-5.4,1.1-9.3,1.1s-7.1-.4-9.4-1.1c-2.3-.8-4-2-4.9-3.8-1-1.8-1.5-3.4-1.7-4.8-.2-1.4-.3-3.5-.3-6.5v-111c0-2.9,0-5.1.3-6.5.2-1.4.7-3,1.6-4.8,1.8-3.4,6-5.1,12.7-5.1m34.5,65.2c4.6,0,8.6-1.6,11.8-4.9,3.2-3.3,4.8-7,4.8-11.2s-1.5-7.9-4.6-11.3c-3-3.4-7-5-11.9-5s-8.8,1.7-11.7,5.1c-2.9,3.4-4.4,7.2-4.4,11.2s1.5,7.8,4.5,11.1c3,3.4,6.8,5,11.4,5m-34.5-80.2c-15.9,0-22.9,7.2-26,13.2h0c0,0,0,.2,0,.2-1.6,3.3-2.6,6.4-3.1,9.4-.3,2.1-.4,4.8-.4,8.5v111c0,3.7.1,6.4.4,8.5.4,3.2,1.5,6.4,3.3,9.8,2,3.6,5.9,8.5,13.5,11,3.9,1.3,8.5,1.9,14,1.9s10.2-.6,14.1-1.9c6-2,10.7-5.9,13.4-11.2,1.8-3.4,2.8-6.6,3.3-9.7.3-2.1.4-4.8.4-8.5v-15.1c2.4.3,5,.4,7.6.4,14.6,0,28.2-6.5,40.3-19.3,11.8-12.6,17.9-27.5,17.9-44.3s-6.1-31.7-18-44.3c-12.2-12.8-25.7-19.3-40.2-19.3s-14.7,1.6-19.9,4c-4.9-2.9-11.4-4.2-20.4-4.2h0Zm34.3,62.7c0,0,.2,0,.4,0,.4,0,.6,0,.7,0,0,0,0,0,0,0,.7.7.7,1,.7,1.2s0,0,0,0c0,.1-.2.3-.6.7-.4.4-.5.4-1.1.4s-.1,0-.2,0c-.7-.8-.7-1-.7-1.1,0-.2,0-.5.7-1.3h0Z"/>
        </g>
        <g>
          <path class="cls-1" d="m524.9,231.8c-15,0-26.7-3.6-34.9-10.8-8.5-7.4-12.8-19.5-12.8-35.9v-20.1c0,0-.2,0-.3,0-5,0-9.4-2-12.6-5.9-3.1-3.6-4.5-8.8-4.5-15.9s.4-10.2,1.2-13.3c1-3.8,2.6-6.6,4.9-8.7h.1c0-.1.1-.2.1-.2,3.1-2.5,6.8-3.9,11.1-4.1v-11.3c0-3.3.1-5.7.4-7.5.3-2.4,1.2-4.8,2.7-7.3,4.7-8.5,17-8.5,21.1-8.5,15.1,0,20.5,6.5,22.5,12v.3c1,2.8,1.4,6.6,1.4,11.9v10.5c2-.1,3.7-.2,5.1-.2,3.2,0,5.6.1,7.4.3,2.4.3,4.8,1.2,7.5,2.6,9,4.6,9,17.1,9,21.3s0,16.5-9.2,21.3h-.3c-2.6,1.4-5,2.1-7.2,2.4-1.8.2-4.3.3-7.5.3h-.2l-4.6-.3v18.2c0,1,0,1.7.1,2.2,0,0,0,0,0,0,3.3,0,5.8.1,7.7.3,2.6.3,5.2,1.2,7.9,2.7,8.2,4.6,8.2,15.6,8.2,19.2,0,11-3.2,18.2-9.5,21.3h-.2c-2.6,1.3-5,2-7.2,2.3-1.8.2-4.2.3-7.3.3Z"/>
          <path class="cls-6" d="m501.3,89.9c8.6,0,13.7,2.3,15.4,7,.6,2,1,5.3,1,9.7v18.6c5.6-.5,9.8-.8,12.6-.8s5,0,6.5.3c1.5.2,3.1.8,5,1.8,3.3,1.6,4.9,6.5,4.9,14.6s-1.7,12.9-5.1,14.6c-1.9.9-3.6,1.4-5,1.6-1.5.2-3.6.3-6.6.3l-12.4-.8v26.2c0,3.4.5,5.9,1.6,7.4,1.1,1.5,3.1,2.3,6.1,2.3s5.3,0,6.8.3c1.6.2,3.3.8,5,1.8,2.9,1.6,4.4,5.9,4.4,12.7s-1.8,12.9-5.3,14.6c-1.9.9-3.6,1.4-5,1.6-1.5.2-3.6.3-6.4.3-13.2,0-23.2-3-30-8.9-6.8-6-10.3-16-10.3-30.2v-28.1c-2.4.4-5,.6-7.8.6s-5.1-1.1-6.9-3.2c-1.8-2.2-2.8-5.8-2.8-11s.3-9,.9-11.3c.6-2.3,1.5-4,2.7-5,2-1.6,4.6-2.5,7.6-2.5l6.3.8v-19.6c0-2.9,0-5.1.3-6.5.2-1.4.8-2.9,1.8-4.6,1.6-3.2,6.5-4.8,14.6-4.8m0-15c-5.2,0-20.8,0-27.6,12.3-2,3.3-3.2,6.7-3.7,10-.3,2.1-.4,4.8-.4,8.5v5.1c-3,1-5.9,2.5-8.3,4.5l-.3.2-.3.2c-3.4,3-5.8,7.1-7.2,12.3-1,3.7-1.5,8.5-1.5,15.2s2.1,15.8,6.3,20.8c3,3.6,6.9,6.1,11.1,7.4v13.6c0,18.7,5.2,32.6,15.4,41.5,9.6,8.4,23,12.6,39.9,12.6s6.2-.1,8.3-.4c3-.4,6.1-1.3,9.4-2.9h.2c0,0,.2-.2.2-.2,9-4.5,13.6-14,13.6-28s-4-21.3-11.9-25.8c-3.5-2-7.1-3.2-10.7-3.7-.4,0-.9,0-1.3-.1v-5.4c2.4,0,4.2-.2,5.8-.4,3-.4,6.1-1.3,9.4-2.9h.3c0-.1.3-.3.3-.3,8.8-4.5,13.2-14,13.2-27.9s-4.4-23.5-13-27.9c-3.5-1.8-6.8-2.9-10-3.4-1.7-.2-3.6-.3-6-.4v-2.9c0-6.1-.5-10.6-1.6-14.2v-.3c0,0-.2-.3-.2-.3-2.2-6.4-9.1-17.1-29.5-17.1h0Z"/>
        </g>
        <g>
          <path class="cls-1" d="m579.4,231.8c-4.1,0-16.5,0-21.3-9.2v-.3c-1.4-2.6-2.1-4.9-2.4-7.1-.2-1.8-.4-4.2-.4-7.7v-66.7c0-3.3.1-5.7.3-7.5.3-2.3,1-4.6,2.3-7.2v-.2c0,0,.2-.2.2-.2,2.8-5.1,8.1-7.3,12.9-8.2-1.2-.2-2.4-.5-3.5-.8-5.5-1.7-8.2-5.2-9.5-7.8-1.3-2.7-2.1-5.1-2.4-7.4-.2-1.8-.3-4.3-.3-7.5s.1-5.7.3-7.5c.3-2.3,1.1-4.7,2.3-7.2h0c4.8-9.3,17.3-9.3,21.5-9.3s16.5,0,21.1,9.2c1.4,2.7,2.3,5.1,2.6,7.5.2,1.8.3,4.3.3,7.5s-.1,5.7-.3,7.5c-.3,2.4-1.1,4.8-2.5,7.4-1.3,2.5-4,5.9-9.4,7.6-1.1.4-2.3.6-3.6.9,4,.8,7.1,2.2,9.6,4.3,2.6,2.2,5.8,6.3,6.1,13.4.1,1.5.2,3.5.2,6v66.5c0,3.3-.1,5.7-.3,7.5-.3,2.4-1.2,4.8-2.6,7.5-4.6,9-17.1,9-21.3,9Z"/>
          <path class="cls-6" d="m579.6,77.4c8,0,12.8,1.7,14.4,5.1,1,1.9,1.6,3.6,1.8,5,.2,1.5.3,3.6.3,6.6s0,5.1-.3,6.6c-.2,1.5-.8,3.1-1.7,4.9-1,1.8-2.6,3.1-5,3.9-2.4.8-5.6,1.1-9.6,1.1s-7.2-.4-9.6-1.1c-2.4-.8-4.1-2.1-5-4-1-1.9-1.5-3.6-1.7-5-.2-1.5-.3-3.6-.3-6.6s0-5.1.3-6.6c.2-1.5.7-3.1,1.6-4.8,1.8-3.4,6.7-5.1,14.8-5.1m0,46.9c6.1,0,10.4,1.1,12.9,3.2,2.2,1.8,3.3,4.5,3.4,8.2.1,1.3.2,3.1.2,5.5v66.5c0,2.9,0,5.1-.3,6.6-.2,1.5-.8,3.1-1.8,5-1.6,3.3-6.5,4.9-14.6,4.9s-12.9-1.7-14.6-5.1c-.9-1.9-1.4-3.5-1.6-4.9-.2-1.4-.3-3.6-.3-6.7v-66.7c0-2.9,0-5.1.3-6.6.2-1.5.7-3.1,1.6-5,1.8-3.3,6.7-4.9,14.8-4.9m0-61.9c-14.1,0-23.6,4.5-28.1,13.2h0c0,0,0,.2,0,.2-1.6,3.3-2.7,6.5-3.1,9.6-.3,2.2-.4,4.9-.4,8.5s.1,6.3.4,8.5c.4,3.2,1.4,6.4,3.2,9.8.8,1.6,1.9,3.4,3.6,5.2-1.4,1.4-2.5,3-3.5,4.7l-.2.4-.2.4c-1.6,3.3-2.5,6.4-2.9,9.4-.3,2.2-.4,4.9-.4,8.5v66.7c0,3.8.1,6.6.4,8.7.4,2.9,1.3,6,2.9,9.3v.3c.1,0,.3.3.3.3,4.5,8.8,14,13.2,27.9,13.2s23.5-4.4,27.9-13c1.8-3.5,2.9-6.8,3.4-10,.3-2.1.4-4.8.4-8.5v-66.5c0-2.7,0-4.8-.2-6.5-.4-8.3-3.8-13.8-7.1-17.1,1.7-1.7,2.8-3.5,3.6-5.1,1.8-3.4,2.8-6.7,3.3-9.9.3-2.1.4-4.8.4-8.5s-.1-6.3-.4-8.5c-.4-3.2-1.5-6.5-3.3-9.9-4.4-8.8-13.8-13.3-27.8-13.3h0Z"/>
        </g>
        <g>
          <path class="cls-1" d="m666.4,233.5c-9.5,0-18.9-2.4-27.8-7-8.9-4.7-16.5-11.6-22.6-20.7-6.2-9.3-9.3-19.8-9.3-31.4,0-17.3,6.2-31.8,18.4-43.1,12-11.2,26-16.8,41.6-16.8s29.5,5.6,41.4,16.7c12,11.2,18.2,25.7,18.2,43s-3.2,22.8-9.4,32.2c-6.2,9.2-13.8,16.2-22.8,20.6-8.8,4.4-18.1,6.6-27.6,6.6Zm0-70.7c-2.8,0-5.4,1-8,3.1-1.3,1.1-3.1,3.1-3.1,8.1s1.8,6.9,3.1,7.9c2.7,2.1,5.3,3.1,7.8,3.1s5.1-1.1,8-3.2c1.5-1.2,3.3-3.1,3.3-8.1s-1.7-6.9-3-7.9c-2.6-2-5.3-3-8.1-3Z"/>
          <path class="cls-6" d="m666.6,121.8c13.7,0,25.8,4.9,36.3,14.7,10.5,9.8,15.8,22.3,15.8,37.5s-2.7,19.9-8.2,28c-5.4,8.2-12.1,14.2-19.9,18-7.8,3.9-15.9,5.8-24.2,5.8s-16.5-2.1-24.3-6.2c-7.9-4.1-14.5-10.2-19.9-18.2-5.4-8-8.1-17.1-8.1-27.3,0-15.2,5.3-27.7,16-37.6,10.6-9.9,22.8-14.8,36.5-14.8m-.4,70.7c4.2,0,8.4-1.6,12.5-4.7,4.2-3.2,6.3-7.9,6.3-14.1s-2-10.8-5.9-13.9c-3.9-3-8.2-4.6-12.7-4.6s-8.8,1.6-12.7,4.8c-3.9,3.2-5.9,7.8-5.9,14s2,10.8,6.1,13.9c4.1,3.1,8.2,4.7,12.4,4.7m.4-85.7c-17.5,0-33.2,6.3-46.7,18.8-13.8,12.8-20.8,29.1-20.8,48.6s3.6,25.1,10.6,35.6c6.8,10.1,15.3,17.9,25.4,23.2,10,5.2,20.5,7.9,31.3,7.9s21.1-2.5,30.9-7.4c10.1-5,18.8-12.8,25.7-23.2,7.1-10.6,10.7-22.9,10.7-36.3,0-19.4-6.9-35.8-20.5-48.5-13.3-12.5-29-18.8-46.5-18.8h0Zm-3.5,64.9c1.8-1.4,2.8-1.4,3.3-1.4.8,0,1.9.2,3.4,1.3,0,.3.2.9.2,2.1s-.2,1.9-.3,2.1c0,0,0,0,0,0-1.4,1.1-2.7,1.7-3.5,1.7s-2.4-1-3.2-1.5c0-.2-.2-.9-.2-2s.2-2.1.3-2.3h0Z"/>
        </g>
        <g>
          <path class="cls-1" d="m820,231.6c-15.6,0-21-6.6-22.7-12.2-1-3-1.5-6.9-1.5-12v-33.4c0-4.6-1.7-6.3-2.2-6.8-1-1-2.7-2.2-6.7-2.2s-5.9,1.4-6.9,2.4c-1,1-2.4,2.8-2.4,6.6v33.6c0,3.3-.1,5.7-.3,7.5-.3,2.4-1.2,4.8-2.6,7.4-4.6,9.1-17.1,9.1-21.3,9.1s-16.5,0-21.3-9.2h0c0-.1,0-.3,0-.3-1.2-2.6-2-5-2.3-7.2-.2-1.8-.3-4.3-.3-7.5v-67.3c0-3.1.1-5.5.3-7.3.3-2.5,1.2-4.9,2.7-7.6,4.8-8.5,17.1-8.5,21.1-8.5s14.1,0,19.5,6.3c.4-.3.8-.5,1.2-.8,5.5-3.7,11.7-5.6,18.3-5.6,14.9,0,27.4,5.8,37.3,17.1,9.6,11.1,14.5,24.6,14.5,40.4v33.4c0,3.3-.1,5.7-.3,7.5-.3,2.3-1.1,4.7-2.3,7.2h0c-4.8,9.3-17.3,9.3-21.5,9.3Z"/>
          <path class="cls-6" d="m792.4,124.1c12.7,0,23.2,4.8,31.6,14.5,8.4,9.7,12.6,21.5,12.6,35.4v33.4c0,2.9,0,5.1-.3,6.6-.2,1.5-.7,3.1-1.6,4.8-1.8,3.4-6.7,5.1-14.8,5.1s-14.2-2.3-15.6-7c-.8-2.2-1.1-5.4-1.1-9.7v-33.4c0-5.2-1.5-9.2-4.5-12.2-3-2.9-7-4.4-12-4.4s-9.1,1.5-12.2,4.6c-3.1,3-4.7,7-4.7,12v33.6c0,2.9,0,5.1-.3,6.6-.2,1.5-.8,3.1-1.8,4.8-1.6,3.4-6.5,5.1-14.6,5.1s-12.9-1.7-14.6-5.1c-.9-1.9-1.4-3.6-1.6-5-.2-1.5-.3-3.6-.3-6.6v-67.3c0-2.8,0-4.9.3-6.4.2-1.5.8-3.1,1.8-4.8,1.8-3.2,6.6-4.8,14.6-4.8s12.5,1.5,14.2,4.4c1.3,2.2,1.9,4.8,1.9,7.8.5-.9,1.6-2.2,3.4-3.8,1.8-1.6,3.5-3,5.1-4,4.3-2.9,9.1-4.4,14.2-4.4m0-15c-6.7,0-13,1.6-18.8,4.6-7.4-4.6-16.5-4.6-20.2-4.6-13.7,0-23.1,4.2-27.7,12.4-2,3.4-3.2,6.9-3.6,10.3-.3,2.2-.4,4.8-.4,8.3v67.3c0,3.7.1,6.4.4,8.5.4,3,1.3,6.1,2.9,9.4v.3c.1,0,.3.3.3.3,4.5,8.8,14,13.2,27.9,13.2s23.4-4.4,27.9-13.1c1.9-3.3,3-6.7,3.4-9.9.3-2.1.4-4.8.4-8.5v-33.6c0-.8.1-1.1.1-1.2,0,0,0,0,0,0,.2-.2,1-.3,1.7-.3s1.1,0,1.3.1c0,.3.1.7.1,1.4v33.4c0,6,.6,10.6,1.9,14.3,2.1,6.7,8.8,17.4,29.8,17.4s23.6-4.4,28.1-13.2h0c0-.1,0-.2,0-.2,1.7-3.3,2.7-6.5,3.1-9.6.3-2.1.4-4.8.4-8.5v-33.4c0-17.6-5.5-32.8-16.3-45.3-11.2-12.9-26.1-19.7-43-19.7h0Z"/>
        </g>
        <g>
          <path class="cls-1" d="m893.6,233.5c-13.6,0-26.8-4-39.2-11.8-4.6-2.9-7.1-7.7-7.1-13.6s2.6-11,8.5-19.3c1.7-2.5,4-4.4,6.8-5.4-3-2.8-5.5-6.3-7.6-10.5-2.9-5.9-4.4-12.9-4.4-20.7,0-12.5,4.5-22.1,13.4-28.6,8.3-6,19.8-8.9,35.3-8.9s20.4,2.4,30.8,7.1c9.1,4.2,11.1,10.2,11.1,14.4s-1.7,9.5-5.3,15.2c-2.5,4.1-5.4,6.9-8.4,8.5.4.2.7.4,1.1.5,5,2.4,9.2,6.5,12.4,12.2,3.1,5.5,4.7,12.3,4.7,20.1s-1.5,14.6-4.6,20.3c-3.2,6-7.7,10.5-13.5,13.5h-.2c-9.1,4.5-20.5,6.7-33.8,6.7Z"/>
          <path class="cls-6" d="m899.4,122.2c9,0,18.2,2.2,27.7,6.5,4.4,2,6.6,4.6,6.6,7.6s-1.4,6.8-4.2,11.2c-2.8,4.4-5.6,6.6-8.5,6.6s-4.3-1-8.5-2.9c-4.1-1.9-8.6-2.9-13.4-2.9-7.5,0-11.2,1.4-11.2,4.2s4.3,6.3,12.9,7.4c8.4.9,16.5,3.3,24.3,7.2,3.7,1.8,6.7,4.8,9.2,9.2,2.5,4.4,3.7,9.9,3.7,16.4s-1.2,12.2-3.7,16.8c-2.5,4.6-5.9,8.1-10.4,10.4-8.1,3.9-18.3,5.9-30.5,5.9s-24-3.5-35.2-10.6c-2.4-1.5-3.6-3.9-3.6-7.2s2.4-8.3,7.2-15c1.4-2.2,3.6-3.2,6.7-3.2s7.3,1.6,12.6,4.7c5.3,3.1,10.1,4.7,14.4,4.7,7.7,0,11.6-1.5,11.6-4.6s-4.2-4.2-12.7-5.3c-8-1.1-15.9-4.1-23.8-8.9-3.7-2.3-6.7-5.9-9.1-10.7-2.4-4.9-3.6-10.7-3.6-17.4,0-20,13.7-30,41.2-30m0-15c-17.2,0-30.2,3.4-39.8,10.4-7.5,5.5-16.5,15.9-16.5,34.6s1.7,17.1,5.2,24c1,2,2.1,4,3.3,5.7-.7.8-1.4,1.7-2,2.6-6.8,9.6-9.9,16.8-9.9,23.5s3.9,15.6,10.6,19.9c13.7,8.6,28.2,13,43.3,13s26.9-2.5,37-7.4h.2c0,0,.2-.2.2-.2,7.2-3.7,12.8-9.3,16.7-16.6,3.6-6.8,5.5-14.8,5.5-23.9s-1.9-17.2-5.6-23.8c-2.2-3.9-4.8-7.2-7.8-9.9.9-1.1,1.7-2.3,2.6-3.7,4.4-6.9,6.5-13.2,6.5-19.2s-1.5-14.9-15.4-21.2h0s0,0,0,0c-11.4-5.2-22.8-7.8-33.9-7.8h0Z"/>
        </g>
      </g>
    </g>
  </g>
</svg>