<?xml version="1.0" encoding="UTF-8"?>
<svg id="Layer_2" data-name="Layer 2" xmlns="http://www.w3.org/2000/svg" width="162.7" height="276.3" viewBox="0 0 162.7 276.3">
  <defs>
    <style>
      .cls-1 {
        fill: #febae0;
      }

      .cls-2 {
        fill: #3d0020;
      }

      .cls-3 {
        fill: #dcfcc8;
      }

      .cls-4 {
        fill: #c0fb9e;
      }

      .cls-5 {
        fill: #71b24b;
      }
    </style>
  </defs>
  <g id="Top">
    <g>
      <path class="cls-2" d="m25.5,19c11.4-1.2,19.9,4.9,28.3,11.2,4.5,3.4,9.2,6.6,12,11.9.1.3.4.5.7.7,1.1.9,14.8-2.8,15.3-4.3,6.6-20.8,21.4-32.1,42.1-36.3,7.2-1.5,14.5-2.4,21.9-2.1,2.7,0,4.9,1,6.4,3,3.5,4.9,6.4,10.1,7.5,16.1,1.3,7.8,2.5,15.8,3,23.7.9,14-1.5,27.5-6.8,40.6-3.3,8.3-7.1,16.3-12.6,23.4-1.4,1.8-.7,2.7.9,3.8,12.5,8.5,10.4,24.2,1.9,33-1.9,2-2.2,3.6-1.2,5.9,6,14-1.5,25.1-14.1,26-2.1.1-1.8,1.5-2.1,2.6-1.7,5.8-5.6,10-10.7,12.7-2.7,1.4-2.1,3.4-1.9,5.4,1.1,18.1-4.1,34.5-14.1,49.1-8.3,12.1-19.2,21.9-31.6,29.8-2.9,1.8-6,1.7-9.5-.6-10.3-6.8-15-17.5-20.6-27.6-5.4-9.7-8.9-20-10.8-30.8-.4-2.6-2.4-1.9-3.3-1.5-2.9,1.5-6.1,1.3-9,1.6-12.7,1.2-18.5-4.7-16.4-18.5,1.6-10.5,4.2-20.8,10.6-29.7,6.3-8.7,6.1-8.8,6.1-19.6,0-1.2-.4-2.7.1-3.4,3.9-4.9.6-8-1.9-12.1-4.6-7.3-3.4-19.7,5.5-28.1,3.2-3,2.9-4.6.2-7.7-7-8.2-10.1-18.2-11.9-28.7-1.6-9-.8-18.1-.7-27.1,0-6.7,2.4-13.3,5.8-19.2,2.6-4.5,7.3-2.5,11.2-2.9Zm20.6,32.7h9.6c.2-.4.3-.6.3-.7-.1-.4-.2-1-.5-1.3-6.9-7.8-15.2-13.7-25.3-16.7-1.7-.5-4-.7-5,1.9-1.1,1.2-1.7,2.6-2,4.3-1.8,10-1.4,19.9.6,29.8,1.4,6.8,3.2,13.7,7.9,19.1,3.4,3.9,7,8.1,13.5,8.8-2.9-3.5-5.4-6.4-7.8-9.3-12-14.6-4.9-33.1,8.8-35.8Zm99.4-29.7c-.7-7.2-3.1-9.1-9.6-7.5-1.1.3-2.2.4-3.4.5-14.1,1.6-26.2,6.3-33.9,19.4-5.5,9.4-5.9,9.2.4,17.4.6,2.8,1.3,5.6,1.8,8.4.5,2.8,1.8,3.2,3.9,1.4,2.8,2.9,7.9,1.5,10.2,5.3-.2,2.7,1.7,4.4,2.7,6.6,3.7,8,2.9,21.4-4.7,27.6-4.4,3.7-8.9,7-14.5,8.7-3.4,1-3.9,3.9-3.7,7.1.1,2.6,2.1,2,3.3,1.7,14-3,26.1-9.7,34.5-21.2,13.2-18.3,18.7-39,14.8-61.5-.8-4.6.7-9.6-1.9-13.9Zm-70.5,156.7c-5,.3-10.3-1.8-15,1.7-4.2-.4-7.4-3.2-10.5-5.3-1.9.9-1.6,2.6-1.8,3.6-1.8,7.2-6.6,13.8-5.4,21.7-.8,4.4,1.4,8.5,1,12.9-.7,1.4.6,2.4.8,3.7,2.5,16,11,29.2,19.7,42.3.9,1.3,1.9,2.6,3.9.7,6.4-5.9,13.3-11,18.9-17.8,14.2-17,16.7-36.8,15-57.7-.6-7.6-4.1-14.6-7.9-21.2-.8-1.4-1.7-2.8-3.8-2.7-2,0-2.6,1.7-2.8,2.9-1.1,7.5-6.5,11.4-12.2,15.1Zm-16-18.1c0,6.6,3,8.6,8.7,5.9,1-.5,2.1-.9,3.1-1.5,3.2-1.9,4.3-4.1,1.8-7.5-1.5-2.1-2.7-4.5-4-6.7-1-1.8-1.4-4,0-5.5,1.6-1.6,3.8-2.6,6.3-1.3.8.4,2,.3,2.7.9,3.2,2.5,5.3,2.8,8.5-.8,3.7-4.1,4.3-3.9-.9-6.4-.9-.4-1.8-.8-2.6-1.1-8.6-3.4-10.1-8.4-4.9-15.7,4.7-6.6,5-9.8,1.5-15.4-2.5-4-11.2-6.1-16.3-3.7-5.2,2.5-3.1,7.1-2.5,10.9.6,3.5.9,6.8-1,10-2.5,4.1-5.9,4-8.5-.1-1.3-2.1-2.3-4.3-3.8-6.2-3-3.9-7-6.9-12.1-5.4-4.6,1.4-6.7,6-8,10.3-1.1,4.1,1.3,7.4,6,8.3,3.3.6,6.2,1.8,9.1,3.2,3.3,1.5,3.9,6.4,1.1,8.8-1.5,1.3-3.3,1.7-5.3,2.2-3,.7-6.9.8-7.2,5.7-.2,4,2.5,5.3,5.1,6.6,2.4,1.1,5,1.3,7.2-1.1,2.4-2.7,5.1-5.2,7.7-7.7,2.5-2.4,5.5-2.3,8.2-.8,2.5,1.4,2,3.9,1.3,6.6-.8,2.6-2,5.2-1.4,7.8Zm11.9-86.3c.3,2.9.3,6.3-3,7.5-3.9,1.5-6-2-7.8-4.6-1.8-2.5-2.8-5.5-4.3-8.2-1.9-3.5-4.7-4-7.3-2.7-3.1,1.6-4.6,4.9-3,8.4,1.5,3.4,4.1,6.2,6,9.4,2.6,4.4,5.5,5,10.1,3.7,10.4-2.9,19.7-.1,27.4,7,2.1,1.9,3.9,2.4,6,1.8,5.1-1.5,9.4-4.4,11.3-9.8,1.3-3.7.3-7.1-2.4-9.3-2.7-2-6-.8-8.5,1.3-1.8,1.5-3,3.9-5,4.7-2.5,1.1-3.7,5.9-7.5,3.1-3.7-2.7-1.8-6.5-1.3-9.9.1-1.1,1-2,1.4-3.1,1.2-3,2.7-5.9,3.6-9,.8-2.8,1.7-6.2-1.4-8.1-3.1-1.9-6.6-2.9-10.2-1.2-3.5,1.6-4.4,4.8-4.9,8.4-.5,3.5,1.3,6.8,1,10.4Zm43.9,102.6c.9-3.6,2.8-5.6,1.7-7.8-1.7-3.4-.6-6.1,1.7-8.5,2.5-2.5,5.2-.3,7.8.2,1.6.3,2.7,2.3,4.8,1.3,1.8-.9,3.5-1.9,2.7-4-1.1-2.8-.5-7.1-5-7.4-4.3-.3-8-1.4-8.8-6-.6-3.8,4.2-7.5,9.6-7.9,3.3-.2,5.9-1.7,8-4.1,2.4-2.8,2.4-9.9-.2-10.3-4.1-.7-8.7-1.7-12.6.4-7.5,4.1-15,8.1-24,9.6,3.2,4.3,4.5,8.9,2.6,13.2-1.9,4.3-1,7.3,1.6,10.5,4.6,5.7,6.6,12.9,10,20.9Zm-79.1-6.8c-9.1-1.4-10.9-.5-15.1,7.5-2.4,4.5-4.1,9.2-5,14.1-.6,3.4-3.6,7.4-.3,10.1,3,2.4,6.8-.4,10.2-1.2,2-.5,2.6-1.6,2.6-3.5,0-2.1-.4-4.3.4-6.4,2.4-6.8,4.8-13.7,7.2-20.5Z"/>
      <path class="cls-4" d="m42.2,200.4c-1.2-8,3.6-14.5,5.4-21.7.3-1,0-2.7,1.8-3.6,3.1,2.1,6.3,4.9,10.5,5.3,1.3.5,2.9-.4,4.1.8-.4,2.5-2.1,4.4-2.3,7.1-.9,10.7-.9,21.4-.8,32.1.1,6.1,1.5,12,3.9,17.6.9,2.1,2.3,4.4,5.1,3.9,2.4-.5,2.6-2.8,3.1-5,1.6-7.2.4-14.5.8-21.7.2-3.6-.7-7.4.9-10.9,1.7.3,2.2,2.8,4.5,2.4,3.9-.7,5.3-3.7,5.3-6.7,0-3.9,2.6-8.8-2.1-11.7-3.4-2.1-4.8,1.5-6.7,3.1-2.3-4.1,1.6-8.7-.8-12.8,5.7-3.7,11-7.6,12.2-15.1.2-1.2.8-2.8,2.8-2.9,2.1-.1,3,1.3,3.8,2.7,3.8,6.6,7.3,13.6,7.9,21.2,1.7,20.9-.9,40.7-15,57.7-5.6,6.8-12.6,11.9-18.9,17.8-2,1.9-3,.6-3.9-.7-8.7-13.1-17.2-26.3-19.7-42.3-.2-1.3-1.5-2.3-.8-3.7,7,3.2,10.7,2.3,11.6-3.1.8-5.2.8-10.5,1.2-15.7.1-2.1-.7-3.4-2.6-4.3-2-1-3.5-.3-5.1.7-1.9,1.2-2.6,3.3-3.4,5.3-.6,1.5-.2,3.8-2.7,4.3Z"/>
      <path class="cls-4" d="m104.8,61.6c-2.1,1.8-3.4,1.4-3.9-1.4-.6-2.8-1.2-5.6-1.8-8.4,6-4.8,10.4-11,14.8-17.1,2.9-4,6.5-6.7,10.6-9.3,6.7-4.2,13.9-3.4,21.1-3.5,2.7,4.3,1.1,9.3,1.9,13.9,3.9,22.5-1.6,43.2-14.8,61.5-8.3,11.5-20.5,18.2-34.5,21.2-1.2.3-3.1.8-3.3-1.7-.1-3.1.3-6,3.7-7.1,5.6-1.7,10.1-5,14.5-8.7,7.6-6.3,8.4-19.6,4.7-27.6-1-2.2-3-3.9-2.7-6.6,5.8-9.2,11.4-18.4,15.1-28.6.8-2.1,1.5-4.3-.7-5.8-2.1-1.5-4.3,0-5.8,1.3-2.3,2.1-4.3,4.5-6.2,7-4.9,6.5-9.9,13-12.6,20.8Z"/>
      <path class="cls-1" d="m59,160.6c-.5-2.5.7-5.2,1.4-7.8.8-2.6,1.3-5.2-1.3-6.6-2.6-1.5-5.7-1.6-8.2.8-2.6,2.5-5.3,5-7.7,7.7-2.2,2.4-4.7,2.3-7.2,1.1-2.7-1.2-5.3-2.6-5.1-6.6.3-4.9,4.1-4.9,7.2-5.7,2-.5,3.8-.9,5.3-2.2,2.8-2.5,2.2-7.3-1.1-8.8-2.9-1.4-5.9-2.6-9.1-3.2-4.7-.9-7.2-4.2-6-8.3,1.2-4.4,3.3-8.9,8-10.3,5.1-1.5,9.1,1.4,12.1,5.4,1.5,1.9,2.5,4.2,3.8,6.2,2.6,4.2,6,4.2,8.5.1,1.9-3.1,1.6-6.4,1-10-.6-3.8-2.7-8.4,2.5-10.9,5.1-2.4,13.8-.3,16.3,3.7,3.6,5.6,3.3,8.8-1.5,15.4-5.2,7.3-3.7,12.3,4.9,15.7.9.4,1.8.7,2.6,1.1,5.2,2.5,4.5,2.3.9,6.4-3.3,3.6-5.4,3.4-8.5.8-.7-.6-1.9-.5-2.7-.9-2.5-1.3-4.7-.3-6.3,1.3-1.5,1.5-1.1,3.6,0,5.5,1.3,2.3,2.5,4.6,4,6.7,2.5,3.4,1.3,5.7-1.8,7.5-1,.6-2,1-3.1,1.5-5.8,2.6-8.8.7-8.7-5.9Z"/>
      <path class="cls-1" d="m70.9,74.3c.3-3.6-1.5-6.9-1-10.4.5-3.5,1.4-6.7,4.9-8.4,3.6-1.7,7.2-.7,10.2,1.2,3.1,1.9,2.2,5.3,1.4,8.1-.8,3.1-2.3,6-3.6,9-.4,1-1.3,2-1.4,3.1-.5,3.4-2.4,7.2,1.3,9.9,3.8,2.8,5.1-2,7.5-3.1,2-.9,3.3-3.2,5-4.7,2.5-2.2,5.8-3.3,8.5-1.3,2.8,2.1,3.7,5.6,2.4,9.3-1.9,5.4-6.2,8.2-11.3,9.8-2,.6-3.9.2-6-1.8-7.7-7.2-17.1-9.9-27.4-7-4.6,1.3-7.5.7-10.1-3.7-1.9-3.2-4.5-6-6-9.4-1.5-3.5,0-6.8,3-8.4,2.7-1.4,5.5-.8,7.3,2.7,1.4,2.7,2.5,5.7,4.3,8.2,1.9,2.6,3.9,6.1,7.8,4.6,3.2-1.2,3.2-4.6,3-7.5Z"/>
      <path class="cls-1" d="m114.9,176.8c-3.4-8-5.4-15.1-10-20.9-2.6-3.3-3.5-6.3-1.6-10.5,1.9-4.3.6-9-2.6-13.2,8.9-1.5,16.5-5.5,24-9.6,3.9-2.1,8.5-1.1,12.6-.4,2.6.5,2.6,7.5.2,10.3-2.1,2.4-4.7,3.9-8,4.1-5.4.4-10.2,4.1-9.6,7.9.7,4.7,4.5,5.8,8.8,6,4.5.3,3.9,4.6,5,7.4.8,2.1-.9,3.1-2.7,4-2.2,1.1-3.2-1-4.8-1.3-2.6-.5-5.3-2.6-7.8-.2-2.3,2.3-3.4,5-1.7,8.5,1.1,2.2-.7,4.2-1.7,7.8Z"/>
      <path class="cls-5" d="m75,178.7c2.4,4.1-1.5,8.7.8,12.8-1,4.2-2.6,8.4-.9,12.9-1.6,3.5-.7,7.3-.9,10.9-.4,7.2.8,14.5-.8,21.7-.5,2.3-.7,4.5-3.1,5-2.7.5-4.1-1.8-5.1-3.9-2.4-5.6-3.8-11.5-3.9-17.6-.2-10.7-.2-21.4.8-32.1.2-2.6,1.9-4.5,2.3-7.1-1.2-1.2-2.8-.3-4.1-.8,4.6-3.5,9.9-1.4,15-1.7Z"/>
      <path class="cls-3" d="m145.5,22c-7.2.1-14.4-.8-21.1,3.5-4.1,2.6-7.7,5.3-10.6,9.3-4.4,6.1-8.8,12.3-14.8,17.1-6.2-8.2-5.9-8-.4-17.4,7.7-13.1,19.8-17.8,33.9-19.4,1.1-.1,2.3-.3,3.4-.5,6.4-1.6,8.9.3,9.6,7.5Z"/>
      <path class="cls-4" d="m46.1,51.7c-13.7,2.7-20.8,21.3-8.8,35.8,2.4,2.9,4.8,5.8,7.8,9.3-6.5-.7-10.1-4.9-13.5-8.8-4.7-5.4-6.5-12.2-7.9-19.1-2-9.9-2.4-19.8-.6-29.8.3-1.7.9-3.1,2-4.3-.7,5.2,3.6,6.4,6.8,8.4,4.6,3,10.4,4,14.1,8.4Z"/>
      <path class="cls-4" d="m35.8,170c-2.4,6.8-4.8,13.7-7.2,20.5-.8,2.1-.4,4.3-.4,6.4,0,1.9-.6,3-2.6,3.5-3.4.9-7.2,3.7-10.2,1.2-3.3-2.7-.3-6.7.3-10.1.9-4.9,2.6-9.6,5-14.1,4.3-8,6-8.9,15.1-7.5Z"/>
      <path class="cls-5" d="m104.8,61.6c2.7-7.8,7.7-14.3,12.6-20.8,1.9-2.5,3.9-4.9,6.2-7,1.5-1.4,3.6-2.8,5.8-1.3,2.2,1.5,1.5,3.7.7,5.8-3.7,10.2-9.3,19.5-15.1,28.6-2.4-3.8-7.4-2.4-10.2-5.3Z"/>
      <path class="cls-3" d="m42.2,200.4c2.5-.4,2.1-2.7,2.7-4.3.8-2,1.5-4.1,3.4-5.3,1.5-1,3.1-1.8,5.1-.7,1.9,1,2.7,2.3,2.6,4.3-.4,5.3-.4,10.6-1.2,15.7-.8,5.5-4.6,6.3-11.6,3.1.4-4.4-1.8-8.5-1-12.9Z"/>
      <path class="cls-3" d="m46.1,51.7c-3.7-4.5-9.5-5.5-14.1-8.4-3.2-2-7.5-3.2-6.8-8.4.9-2.5,3.3-2.4,5-1.9,10.1,3,18.4,8.8,25.3,16.7.3.3.4.8.5,1.3,0,.1-.1.3-.3.7h-9.6Z"/>
      <path class="cls-3" d="m74.8,204.3c-1.7-4.4,0-8.6.9-12.9,2-1.6,3.4-5.2,6.7-3.1,4.7,2.9,2.1,7.8,2.1,11.7,0,3-1.4,6-5.3,6.7-2.3.4-2.8-2-4.5-2.4Z"/>
    </g>
  </g>
</svg>