<?xml version="1.0" encoding="UTF-8"?>
<svg id="Layer_2" data-name="Layer 2" xmlns="http://www.w3.org/2000/svg" width="126.9" height="192.6" viewBox="0 0 126.9 192.6">
  <defs>
    <style>
      .cls-1 {
        fill: #3d0020;
      }

      .cls-2 {
        fill: #ff8cd3;
      }

      .cls-3 {
        fill: #fdb9df;
      }

      .cls-4 {
        fill: #c0fa9e;
      }

      .cls-5 {
        fill: #71b24b;
      }
    </style>
  </defs>
  <g id="Top">
    <g>
      <path class="cls-1" d="m9.8,60.1c-6.8-6.1-8.2-13.8-5.6-22.5,1.2-4.2,4.4-7,7.7-9.3,2.3-1.6,3.4-3.1,3.3-5.9C14.7,10.6,29,.2,40.7,7.4c1.4.8,2.3,1.6,3.5-.5,6.6-11.2,24.6-8.5,29.4,5.7,1.3,3.8,2.4,3.6,5.3,2,9.2-5,19.1-7.7,29.7-7.5,12.2.1,15.2,2.7,17.2,14.5,2.9,17,.3,33.1-8.4,47.8-3.2,5.4-3.8,8,.8,13,4.2,4.6,4.3,12.2-.6,18-1.6,1.9-1.5,3.1-.7,5.1,4.6,10.9.8,18.7-10.7,22.3-1.8.6-2.6,1.9-3.4,3.7-2.4,5.7-6.7,9.5-13.1,10.2-1.6.2-2.6,0-2.9,2.3-1.8,15.9-9.4,29.1-20.4,40.4-3.5,3.6-7.4,7.2-12.8,8.2-5.9,1.1-9.7-2.6-13-6.3-10.8-12.1-17.5-26.3-20.1-42.3-.9-5.5-.5-11.3-.1-16.9.1-2,0-2.7-1.8-3.5-10.7-4.6-13.4-15.1-10.3-25.9.6-2.1,1.3-4-1.2-5.3-8.9-4.7-8.9-19.9-2.4-27.2,1.6-1.8,3.4-3.3,5.2-5Zm48.5-27.3c3.3-4.4,4.4-9.3,3.6-14.6-.4-2.4-2-4.2-4.7-3.9-2.5.2-2.3,2.4-2.2,4.2.3,3.3-.5,6.4-1,9.6-2.2,2.1-4.5,3.9-7.8,3-1.5-2.5-2.6-5.3-4.5-7.5-2.4-2.6-5.4-4.7-9.3-4.4-2.3.2-2.7,2.4-3.2,3.9-.9,3,2,4.5,3.1,6.8,1.1,2.3,2.7,4.6,1.2,7.3-1.4,2.5-3.9,2-6.2,2-1.5,0-3,0-4.5,0-4.3,0-7.1,3.9-5.6,8,1,2.8,3.8,3.4,6.1,4.5,2.4,1.1,2.3-1.5,3.3-2.6,3.7-3.9,7.3-8.1,13.4-8.1,2.3,0,4.7.6,6.8,0,2.8-.8,5.6,2.6,8.1-.3,2-2.2,2.3-5.2,3.3-7.8Zm37.4,70c0-1-1-1.7-.3-3.2,1.6-3.4,4.1-4.6,7.7-4.9,2-.2,4.4-.8,4.8-3.4.4-2.6-1.7-3.6-3.6-4.6-1.8-1-3.2-.7-5,.1-6.6,3-12.4,5.9-17.7,11.9-4.7,5.5-3.7,7.9-.4,12.1,2.2,4.3,3.8,8.8,4.8,13.6.4,1.9,1.5,2.3,3.2,2.4,2.5,0,1.7-1.9,1.8-3.2.4-3-1.4-5.6-1.1-8.7.5-4.3,3-6.3,6.9-4.6,1.4.6,2.8,1.7,3.9,2.9,1.1,1.1,2,1.5,3.3.6,1.7-1.1,1-2.7.4-3.8-.8-1.7-2.8-2.2-4.3-3-1.8-1-4.1-1.4-4.4-4.1Zm-55.4-26.9c-.8,1.9-2.8,2.1-4.2,3.2-3.9,0-6.3-2.6-8.5-5.3-2.9-3.7-6.3-3.4-10.1-1.9-2.9,1.2-3.2,3.7-3.4,6.4-.2,2.6,1.6,4,3.4,4.1,5.4.4,10.4,2.4,15.6,3.3,2,2.1.6,4.7,1,7-2.9,2.7-7,3.2-10.2,5.2-3,1.8-4.2,5-3.4,8,.7,2.8,2.4,5.7,6.3,5.9,3.4.1,6.7.1,7.8-4,1-3.6,3.3-6.5,4.7-9.9,3.3-3.2,6.5-2.9,9.8,0-.1,4.1.8,8,1.9,12,.4,1.6.9,2.9,2.8,2.9,3.3,0,7.5,1.2,8.8-3.1,1-3.4,2.1-7.3-2.7-9.7-2.7-1.4-4.6-4.2-5.9-7.1.5-2.3-1-5.7,3.1-6.1,4.6-2.2,8.1.4,11.7,2.5.9.5,1.6,2.3,2.8,1.3,3.1-2.5,2.2-6.2,2.5-9.6.2-2.5-.8-4.5-3.1-4.9-2.2-.3-4-1.3-5.9-1.9-2.3-.7-5.2-1.1-7.3,1.4-1.1,1.4-2.8,2.1-4.7,2.4-2.7-.1-3-2.5-4.2-4.2,0-3.8,1-7.3,3.2-10.5,2.4-3.5,1.3-7.1-2.8-8.6-3.5-1.3-7.4-2.3-10.4.9-3,3.1-3.9,7-1.4,11,1.7,2.8,2.9,5.8,2.7,9.2Zm3.7,45.1c-5.3,0-9.4,3.2-9.8,8-1.5,17.9,4.7,33.2,15.8,46.9,1.3,1.6,2.6,2.1,4.6.6,13.2-10.6,24-34.6,17.5-52.3-1-2.7-2.4-3-3.7-1.8-3.1,2.8-6.7,2.3-10.2,2.7-4.4-2.7-9.1-4.1-14.2-4Zm36.6-55.7c3.1,2.4,5.4,5.3,6.3,9,.4,1.7.8,2.7,2.8,1.6,6.5-3.8,12.8-7.4,16.4-14.6,6-12.1,8.1-24.5,5.8-37.9-.4-2.5-1.7-2.3-3.3-2.3-10.5,0-20.1,3.1-28.9,8.6-7.9,4.9-12.4,12.5-14.9,21.3-1.4,2.7-1.4,5.4,0,8.1.7.7,1.3,1.5,2,2.2.2,1.2.9,1.8,2,1.6,4.2-.6,7.9,1,11.7,2.4Z"/>
      <path class="cls-4" d="m66.8,61.3c-.7-.7-1.3-1.5-2-2.2,0-2.7,0-5.4,0-8.1,2.5-8.8,7-16.4,14.9-21.3,8.8-5.5,18.4-8.6,28.9-8.6,1.7,0,2.9-.2,3.3,2.3,2.3,13.3.2,25.8-5.8,37.9-3.6,7.2-10,10.9-16.4,14.6-2,1.2-2.4,0-2.8-1.6-1-3.8-3.3-6.7-6.3-9,.4-.9.8-1.8,1.3-2.6,5.3-8,10.5-15.9,15.9-23.9,1.3-2,2-4.1.2-5.9-1.6-1.6-3.7-1-5.5,0-2.3,1.3-4.4,2.9-6.4,4.5-8.1,6.6-13.1,15.6-19.2,23.8Z"/>
      <path class="cls-4" d="m58.1,125c3.5-.3,7.1.1,10.2-2.7,1.3-1.2,2.7-.8,3.7,1.8,6.6,17.7-4.3,41.7-17.5,52.3-2,1.6-3.2,1.1-4.6-.6-11.1-13.6-17.3-29-15.8-46.9.4-4.8,4.5-8.1,9.8-8,1.4,1.7,2.4,3.4,1.8,5.8-2.3,10.4.2,20.1,4.3,29.6.6,1.5,1.5,3.2,3.6,2.7,1.8-.4,2.2-1.8,2.5-3.7,1.8-10.1,0-20.4,2-30.5Z"/>
      <path class="cls-5" d="m66.8,61.3c6.1-8.2,11.1-17.2,19.2-23.8,2.1-1.7,4.1-3.3,6.4-4.5,1.8-1,3.9-1.6,5.5,0,1.7,1.8,1.1,3.9-.2,5.9-5.3,7.9-10.6,15.9-15.9,23.9-.5.8-.9,1.8-1.3,2.6-3.8-1.4-7.5-3-11.7-2.4-1.1.2-1.8-.5-2-1.6Z"/>
      <path class="cls-2" d="m36.1,79.1c1.4-1.1,3.4-1.3,4.2-3.2,2.9-.7,5.8-1.3,8.7-2,1.2,1.6,1.5,4,4.2,4.2,2.5,2.4,2.6,5.8,3.9,8.6-4.1.5-2.6,3.8-3.1,6.1-1.7,1.6-4.6,2-4.9,5-3.3-2.9-6.5-3.2-9.8,0-2.2-1.2-4.9-1.9-5.2-5.1-.3-2.3,1-4.9-1-7-.3-2.8,2.2-4.4,3-6.7Z"/>
      <path class="cls-5" d="m58.1,125c-2,10.1-.2,20.4-2,30.5-.3,1.8-.8,3.3-2.5,3.7-2,.5-2.9-1.3-3.6-2.7-4.1-9.5-6.6-19.2-4.3-29.6.5-2.4-.4-4.1-1.8-5.8,5.1,0,9.8,1.4,14.2,4Z"/>
      <path class="cls-3" d="m40,40.9c-6.1,0-9.7,4.2-13.4,8.1-1,1-.9,3.7-3.3,2.6-2.3-1.1-5.1-1.7-6.1-4.5-1.5-4.1,1.2-8,5.6-8,1.5,0,3,0,4.5,0,2.3,0,4.8.5,6.2-2,1.5-2.7,0-5-1.2-7.3-1.1-2.3-4-3.9-3.1-6.8.5-1.5.9-3.7,3.2-3.9,3.9-.3,6.9,1.8,9.3,4.4,1.9,2.1,3,5,4.5,7.5-4.6,1.7-7.3,4.6-6.1,9.9Z"/>
      <path class="cls-2" d="m81.1,110.8c-3.2-4.2-4.3-6.6.4-12.1,5.2-6.1,11.1-9,17.7-11.9,1.8-.8,3.2-1.1,5-.1,2,1.1,4,2,3.6,4.6-.4,2.6-2.8,3.2-4.8,3.4-3.6.3-6.1,1.6-7.7,4.9-.7,1.4.3,2.1.3,3.2-4.8,2.7-8.4,7.7-14.5,8Z"/>
      <path class="cls-3" d="m48.9,73.9c-2.9.7-5.8,1.3-8.7,2,.2-3.4-1-6.4-2.7-9.2-2.5-4.1-1.6-7.9,1.4-11,3-3.1,6.9-2.2,10.4-.9,4,1.5,5.1,5.1,2.8,8.6-2.2,3.2-3.1,6.7-3.2,10.5Z"/>
      <path class="cls-3" d="m57,86.7c-1.3-2.9-1.5-6.3-3.9-8.6,1.8-.3,3.5-1.1,4.7-2.4,2.1-2.6,5-2.1,7.3-1.4,1.9.6,3.7,1.6,5.9,1.9,2.3.3,3.3,2.3,3.1,4.9-.2,3.4.6,7.1-2.5,9.6-1.2,1-1.9-.8-2.8-1.3-3.6-2.1-7.2-4.7-11.7-2.5Z"/>
      <path class="cls-3" d="m34,92.8c.3,3.2,2.9,3.9,5.2,5.1-1.4,3.4-3.7,6.3-4.7,9.9-1.1,4.1-4.4,4.1-7.8,4-3.9-.1-5.6-3.1-6.3-5.9-.8-3,.4-6.2,3.4-8,3.3-2,7.3-2.5,10.2-5.2Z"/>
      <path class="cls-3" d="m36.1,79.1c-.8,2.3-3.3,3.9-3,6.7-5.2-.9-10.2-2.9-15.6-3.3-1.8-.1-3.6-1.5-3.4-4.1.2-2.7.5-5.2,3.4-6.4,3.8-1.5,7.1-1.8,10.1,1.9,2.1,2.7,4.6,5.2,8.5,5.3Z"/>
      <path class="cls-3" d="m49,97.9c.2-3,3.2-3.4,4.9-5,1.3,2.9,3.2,5.7,5.9,7.1,4.8,2.4,3.7,6.4,2.7,9.7-1.3,4.3-5.5,3-8.8,3.1-1.8,0-2.3-1.2-2.8-2.9-1.1-3.9-2-7.9-1.9-12Z"/>
      <path class="cls-3" d="m81.1,110.8c6.2-.3,9.7-5.3,14.5-8,.2,2.7,2.5,3.1,4.4,4.1,1.6.8,3.5,1.4,4.3,3,.6,1.2,1.3,2.7-.4,3.8-1.3.8-2.2.5-3.3-.6-1.1-1.1-2.4-2.3-3.9-2.9-4-1.7-6.5.3-6.9,4.6-.3,3.1,1.5,5.7,1.1,8.7-.2,1.3.7,3.2-1.8,3.2-1.7,0-2.8-.5-3.2-2.4-1-4.7-2.6-9.2-4.8-13.6Z"/>
      <path class="cls-2" d="m40,40.9c-1.1-5.3,1.5-8.2,6.1-9.9,3.4,1,5.6-.9,7.8-3,.8,2.1,3.9,2.3,4.3,4.8-1,2.7-1.4,5.6-3.3,7.8-2.5,2.8-5.3-.5-8.1.3-2.1.6-4.5,0-6.8,0Z"/>
      <path class="cls-3" d="m58.3,32.8c-.5-2.5-3.5-2.6-4.3-4.8.5-3.2,1.3-6.3,1-9.6-.2-1.8-.4-3.9,2.2-4.2,2.7-.3,4.3,1.6,4.7,3.9.8,5.3-.3,10.3-3.6,14.6Z"/>
      <path class="cls-5" d="m64.9,51c0,2.7,0,5.4,0,8.1-1.4-2.7-1.3-5.4,0-8.1Z"/>
    </g>
  </g>
</svg>