<?xml version="1.0" encoding="UTF-8"?>
<svg id="Layer_2" data-name="Layer 2" xmlns="http://www.w3.org/2000/svg" width="278" height="261.7" viewBox="0 0 278 261.7">
  <defs>
    <style>
      .cls-1 {
        fill: #94bad6;
      }

      .cls-2 {
        fill: #3d0020;
      }

      .cls-3 {
        fill: #ace9ff;
      }

      .cls-4 {
        fill: #1e90d6;
      }

      .cls-5 {
        fill: #d2f3ff;
      }

      .cls-6 {
        fill: #fed8ec;
      }

      .cls-7 {
        fill: #98d4f9;
      }
    </style>
  </defs>
  <g id="Examples">
    <g>
      <path class="cls-2" d="m191.6,64.1c-.2,2-.5,3.9.3,6.2,10.6-5.7,21.9-8,33.8-7.2,14.8,1,27.7,6.6,38.6,16.6,5.6,5.2,5.3,9.1-.5,17.1q-3.3,4.6,2,6c.9.2,2,.1,2.9.4,9.6,2.8,10.3,3.8,8.5,13.8-.2,1,.1,2,.2,3-1.7,4.6-3.4,9.3-5.1,13.9-4.4,5-7.3,11.1-12.2,15.8-9.3,9-20.3,14-32.8,16.2-1.2.2-2.4.8-3.9,1.3,12.5,13.4,18.1,29.5,17.7,47.5-.2,7.8-1.8,15.7-4.9,23.1-3.5,8.5-7,9.9-15.8,6.8-4-1.4-5.4-.4-6.1,3.5-1.7,9.9-5.6,13-15.9,13.5-13.2.7-24.6-4-34.9-11.5-10.5-7.6-18.2-17.6-24-29.3-5.2,6.2-8.9,13.3-14,19-8.4,9.6-18.9,16.7-31.6,19.7-6.8,1.6-13.5,3.3-20.6,1.2-8.1-2.4-10.2-4.3-10.4-12.4-.1-4.4-1.2-5.4-5.6-3.9-2.7.9-5.2,3-8.7,1.6-5-2-7-6.6-8.2-10.7-6.7-22.9-5.2-44.7,10.2-64.2,1.1-1.4,3.3-1.6,3.7-4.1-9.4-.8-18.5-3.9-26.3-9.3C11.2,146.3-.1,131.3,0,109.8c0-2.7.9-4.2,3.8-4.8,3.4-.8,6.8-1.9,10.1-3,1.8-.6,2.9-1.5,1.1-3.5-1.2-1.3-2.2-2.8-3.3-4.3-3.8-5.3-3.7-10.1,1.2-14.3,11.8-10.2,25.2-16.4,41.1-16.9,10.4-.4,19.9,2,29.1,6.3,1.1.5,2.1,1.4,3.1.7,1.4-1-.4-2-.5-3-1.4-19.3,2.2-36.9,15.5-51.9,5-5.7,10.6-10.5,17.4-13.5,7.1-3.1,13.6-1.1,17.7,5.4,2,3.2,3,2.7,4.8.3C146.4,0,151.9-1.4,160,2.2c9.6,4.3,16.7,11.6,22,20.3,5.2,8.4,8.9,17.6,9.6,27.7,0,4.7,0,9.3,0,14Zm-110.9,99.5c-8.9,3-16.1,8.5-21.7,15.8-5,6.5-8.7,13.8-9,22.4-.9,2.1-1.1,4.3-1.2,6.6-.3,5.2.6,10.3,1.2,15.4.3,1.4.7,2.8.9,4.2,1,6.2,2.2,7,7.6,4.3,4.6-2.4,9-2.2,13.4.4.8,4.1,2.4,8,1.8,12.3-.6,4.9,1.3,6.7,6,5.6,4.5.8,8.2-.9,12.2-2.6,5.7-2.3,11.5-4.4,16.4-8.3,3.3-2.6,8.3-3.2,10.3-6.9,1.4-2.6,3-4.4,5.2-6,1.3-.9,2.5-2.4,2.9-3.9,1.9-7.7,6.9-14.5,6.9-22.9,0-3.4,3-4.6,6.3-4.2,5,.7,3.2,4.4,3.8,7.1,1.2,5.5,3.4,10.6,7,15,.7,4.1,3.2,7.3,5.8,10.3,10,11.5,22,19.6,37.5,22,7.2,1.1,8.2,1,9.7-5.4,0-.3.2-.6.3-.9.5-4.6,0-9.6,4.3-13,3.1,0,6.2-.4,9.2.9,7.2,3.1,7.2,3.1,9.4-4.9.6-5.7,1.9-11.3,1.1-17,.7-3.6-.3-7.1-.8-10.7-1.2-9.7-5.9-18.1-12.6-24.6-5.5-5.3-12.5-9.6-20.4-11.6-2.9-1.6-6.3-2.7-6.2-6.9,2.5-5.3,6.2-6.7,10.8-3.7,1.8,1.2,3.7,1.9,5.7,2.4,6.3,1.8,12.5,1.3,18.9.2,12.2-2,22.8-6.7,30.4-17,5.7-5.1,8.4-12,11-19,2-3.4,3.2-6.4-2.9-6.1-1.1,0-2.5-.6-3.7-1-7.3-1.9-10-4.8-10.3-10.9,1.7-3,3.3-6,5-9,1.3-1.5,2.6-3,3.8-4.5-24.7-20.4-58.4-16.4-76.6,4.4-1.3,1.1-2.6,2.2-3.9,3.3-3.1.6-4.9-1.6-6.9-3.2,0-2-.4-4.1,1-5.9,6.8-9.6,9.9-20.2,8.8-32,0-1.4.9-3-.8-4.1h0c0-1.6.2-3.3-.3-4.9-4.2-13.2-10.7-24.8-22.3-33-2.1-1.5-3.2-1-4.4.9-2,3.1-4.1,6.2-6.1,9.4-3.2,5.1-8.4,5.4-11.9.8-2.4-3.3-4.9-6.5-7.4-9.8-1.6-2.2-3.1-2.9-5.7-.8-16,13.1-23.4,29.9-22.7,50.5,1.9,8.2,3.6,16.5,9.7,23,0,2.3,2.2,4.5.3,6.9-2.4,2.5-5.1,2.8-8,1-11.3-13-26-18.8-42.9-19.9-10.4-.7-19.7,2.8-28.5,7.8-8.7,5-8.8,4.9-2.3,12.1,1,2.3,2,4.7,3,7,.5,5.4-2.6,7.8-7.2,9.6-3.6,1.4-8.2.4-10.8,4.3.5,2.9,1.9,5.4,3.1,8,9.5,22.9,27,33.3,51.4,32.9,2.9,0,5.4-.8,8.1-1.6,4.6-1.3,9-4,14.1-1.7.3.1.6.2.9.4.4,1,.8,2,1.2,2.9-1.1,4.9-5.9,5.5-9.2,7.7Z"/>
      <path class="cls-7" d="m170.5,86.1c-1.4,1.8-1,3.9-1,5.9-.9,2.1-1.7,4.3-1.3,7.1,3-1.4,5.6-2.6,8.2-3.9,1.3-1.1,2.6-2.2,3.9-3.3,2,1.9,4-.7,6,0,5.9.6,12.2-1.2,17.8.7,16.7,5.9,21,19.8,14.6,35.2-3.5,8.5-8.8,16.1-16.2,21.9,1.3,1.6,2.5,1.2,3.6,1.1,12.6-.8,24.9-2.5,36.5-8.1,3.7-1.8,7-4.5,11.3-4.8-7.5,10.3-18.1,14.9-30.4,17-6.4,1-12.6,1.6-18.9-.2-2-.6-3.9-1.2-5.7-2.4-4.7-3.1-8.3-1.7-10.8,3.7-4.1,1.2-3.6,4-1.7,6.4,2.6,3.3,5.6,6.4,9.9,7.6.7.7,1.3,1.3,2,2,1.1,5.2,1.1,10.5,1.1,15.8-.1,12.1-8.6,22.7-20.2,26-10.5,3-19.1-1-27.6-6.3-2.6-1.6-4.3-4.8-7.9-4.6-.6-2.7,1.2-6.4-3.8-7.1-3.3-.5-6.4.8-6.3,4.2,0,8.4-4.9,15.2-6.9,22.9-.4,1.5-1.6,2.9-2.9,3.9-2.2,1.7-3.8,3.4-5.2,6-2,3.7-7,4.3-10.3,6.9-4.8,3.8-10.6,5.9-16.4,8.3-4.1,1.7-7.8,3.4-12.2,2.6.2-2.1,2.1-2.4,3.6-3,6.1-2.5,11.7-6.1,17.2-9.7,9.7-6.3,15.8-15.8,22-25.1.6-.9,1.6-2.1.5-3.1-1.2-1.2-2,.5-2.9.9-2.4,1.1-4.7,2.5-7.1,3.5-16.3,7.1-32.2-.7-36.5-18-1.9-7.7-.6-15.4.2-23.1l3-4c3.2-.9,5.1-3.9,8.2-5.1,4.3-1.7,4.9-4.3,1.9-7.8-.4-1-.8-2-1.2-2.9.6-1.9,3-2.6,3.3-5-8.7-1.4-17.3-3-25-7.6-8.1-4.9-15.5-10.6-17.1-20.7-1.6-10.8,6.7-20.4,18.9-22.8,14.6-2.8,28.2-.3,40.9,7.4,1,.6,2,1.9,3.9.4-2.6-3.6-2-8.8-5.9-11.9,1.9-2.4-.4-4.6-.3-6.9,1.5-1.1,1.1-2.7,1.1-4.1-.2-6.4,1.4-12.4,3.9-18.3,6.8-16,24-22.2,38.6-13.8,8.7,5,13.4,13.1,16.3,22.3,1.4,4.5,2.1,9.2,3.1,13.8Zm-24.7,27.6c-.3-2.7.4-5.5-.9-8.3-1.4-3.2-2.9-5.7-6.7-5.4-3.9.3-5.3,3.5-5.6,6.6-.5,7.1.2,14.1,2.8,20.8.8,2,1.9,3.6,4.2,3.5,2.5-.1,3.5-1.8,4.2-4.2,1.1-4.3,2.1-8.6,1.9-13.1Zm-13.1,21.7c0-1,0-2-.7-2.8-4.1-5-9.2-8.5-15.7-9.6-3.3-.5-6.2.5-7.4,3.6-1.3,3.1.9,5.6,3.1,7.2,4.3,3.1,8.7,6.2,14.4,6.8,4.2.5,6.3-1,6.3-5.2Zm28.1,27.8c-1.2-7.6-6.8-11.8-12.7-15.7-1.8-1.1-3.8-1.2-5.6.1-1.8,1.4-1.4,3.5-.9,5.1,2,6,5.5,11,10.1,15.4,2.1,2,4.2,1.8,6.7.8,2.8-1.1,1.9-3.4,2.4-5.6Zm-45.2-1.7c-.3,2.3.5,4,2.5,5,2.2,1.1,4.3.4,6-1,4.8-3.7,8.3-8.5,11-13.8,1.8-3.6.3-5.5-3.6-6-3.6-.4-5.8,1.3-8.1,3.7-3.4,3.6-7.4,6.7-7.9,12.1Zm40-21.3c4.8-.9,10.4-2.9,15.3-6.2,3.7-2.6,3.3-7.5-.3-8.8-6-2.3-17.9,2.6-20.6,8.4-1.9,4.1,0,6.7,5.6,6.7Z"/>
      <path class="cls-3" d="m143.8,202.8c3.6-.1,5.3,3,7.9,4.6,8.5,5.3,17.1,9.2,27.6,6.3,11.6-3.3,20-13.8,20.2-26,0-5.3,0-10.6-1.1-15.8,7.7,6,14.1,13.2,20.4,20.6,4.4,5.1,6,11.7,9.4,17.3.8,5.7-.5,11.4-1.1,17-2.6-.1-5.2-.1-7.8-.8-5.7-1.3-8.9.3-10.8,4.7-4.2,3.4-3.8,8.3-4.3,13-.8,0-1.7,0-2.5,0-19.1.6-34.3-6.9-45.9-22.1-1.2-1.6-2.5-3.6-4.9-3.8-3.6-4.4-5.9-9.4-7-15Z"/>
      <path class="cls-3" d="m254.1,137.9c-4.3.3-7.6,3-11.3,4.8-11.5,5.6-23.9,7.3-36.5,8.1-1.1,0-2.3.4-3.6-1.1,7.3-5.8,12.6-13.4,16.2-21.9,6.4-15.4,2.1-29.3-14.6-35.2-5.6-2-11.9-.2-17.8-.7.1-1.4,1.1-2,2.2-2.4,19.2-6.9,38.4-10.6,57.5.5,2.1,1.2,4.3,2.5,7,2.1-1.7,3-3.3,6-5,9-3,1.2-2.8,3.3-2.4,6.1,1,7,11,11.6,19.3,11.9-2.5,7-5.3,13.8-11,19Z"/>
      <path class="cls-3" d="m107.9,93c3.9,3.1,3.3,8.2,5.9,11.9-1.9,1.4-2.9.2-3.9-.4-12.7-7.7-26.3-10.2-40.9-7.4-12.3,2.4-20.6,11.9-18.9,22.8,1.5,10.1,9,15.8,17.1,20.7,7.6,4.6,16.3,6.1,25,7.6-.3,2.4-2.8,3-3.3,5-.3-.1-.6-.2-.9-.4.2-2.5-1-3.7-3.5-3.7-2.3,0-4.6-.1-6.9,0-21.6,1.1-39.5-7.2-55.3-21.2-2.2-2-4.2-4.8-7.8-4.7-1.2-2.6-2.6-5.2-3.1-8,5.5.5,10.7-.8,15.7-3.1,5.3-2.4,6.4-7.5,2.3-10.8-1-2.3-2-4.7-3-7,2.3.3,4.1-.8,6.1-1.6,8.5-3.5,16.6-7.9,26.4-7.5,12.5.5,24.5,3.1,35.9,8.1,1.7.8,3.4,1.2,5.3,1,2.9,1.8,5.6,1.5,8-1Z"/>
      <path class="cls-3" d="m76.9,172.9c-.8,7.7-2.1,15.4-.2,23.1,4.3,17.2,20.2,25.1,36.5,18,2.4-1.1,4.7-2.4,7.1-3.5.9-.4,1.7-2.1,2.9-.9,1,1,0,2.2-.5,3.1-6.2,9.3-12.3,18.8-22,25.1-5.5,3.6-11.1,7.2-17.2,9.7-1.4.6-3.3.9-3.6,3-4.8,1.1-6.7-.7-6-5.6.5-4.2-1.1-8.2-1.8-12.3,0-4.6-3.5-7.6-9.3-7.9-4.2-.2-8.5.6-12.6-1-.6-5.1-1.5-10.2-1.2-15.4.1-2.3.3-4.5,1.2-6.6,2.1,2.7,2.6-.3,3.2-1.1,7.2-9.9,13.8-20.2,23.6-27.8Z"/>
      <path class="cls-3" d="m170.5,86.1c-1-4.6-1.7-9.3-3.1-13.8-2.9-9.2-7.6-17.3-16.3-22.3-14.6-8.4-31.7-2.2-38.6,13.8-2.5,5.9-4.1,11.8-3.9,18.3,0,1.4.4,3-1.1,4.1-6-6.5-7.8-14.8-9.7-23,4.5,1.2,3.2-3,3.6-4.6,3.2-11.8,8.9-22,17.3-30.8,3-3.2,5.8-4.3,9.8-.2,7.4,7.5,14.6,7.1,22.4-.2,2.1-2,4.2-2.7,6.7-1.3,4.8,2.6,9.3,5.5,12.5,10.2,3.1,4.5,4.7,9.8,8.4,14,0,0,0,0,0,0,0,1.4-.5,2.9.8,4.1,1.2,11.8-2,22.4-8.8,32Z"/>
      <path class="cls-5" d="m178.6,50.1c-3.6-4.2-5.2-9.5-8.4-14-3.3-4.7-7.8-7.6-12.5-10.2-2.5-1.4-4.6-.6-6.7,1.3-7.8,7.3-15,7.7-22.4.2-4-4-6.8-2.9-9.8.2-8.4,8.8-14.1,19.1-17.3,30.8-.4,1.6.9,5.8-3.6,4.6-.7-20.5,6.7-37.4,22.7-50.5,2.6-2.1,4-1.3,5.7.8,2.5,3.3,4.9,6.5,7.4,9.8,3.4,4.6,8.7,4.2,11.9-.8,2-3.2,4.1-6.2,6.1-9.4,1.2-1.9,2.3-2.3,4.4-.9,11.6,8.2,18.1,19.8,22.3,33,.5,1.5.2,3.3.3,4.9Z"/>
      <path class="cls-5" d="m99.8,94c-1.9.2-3.5-.2-5.3-1-11.4-5-23.4-7.6-35.9-8.1-9.8-.4-17.9,4-26.4,7.5-2,.8-3.9,1.9-6.1,1.6-6.5-7.2-6.4-7.2,2.3-12.1,8.9-5,18.1-8.5,28.5-7.8,16.9,1.1,31.5,6.9,42.9,19.9Z"/>
      <path class="cls-5" d="m253.1,92c-2.6.4-4.8-.8-7-2.1-19.1-11.1-38.3-7.4-57.5-.5-1.1.4-2.1,1-2.2,2.4-2-.7-4,1.9-6,0,18.2-20.8,51.9-24.9,76.6-4.4-1.3,1.5-2.6,3-3.8,4.5Z"/>
      <path class="cls-1" d="m14.2,123c3.6,0,5.6,2.7,7.8,4.7,15.8,14,33.7,22.3,55.3,21.2,2.3-.1,4.6,0,6.9,0,2.5,0,3.6,1.3,3.5,3.7-5-2.4-9.5.4-14.1,1.7-2.7.8-5.2,1.5-8.1,1.6-24.4.4-41.9-10-51.4-32.9Z"/>
      <path class="cls-5" d="m228.2,209.7c-3.4-5.6-4.9-12.2-9.4-17.3-6.4-7.3-12.8-14.6-20.4-20.6-.7-.7-1.3-1.3-2-2,.4-2.7-1.9-4.5-2-7.1,7.9,2,14.9,6.3,20.4,11.6,6.6,6.5,11.3,14.9,12.6,24.6.4,3.6,1.4,7.1.8,10.7Z"/>
      <path class="cls-5" d="m76.9,172.9c-9.8,7.6-16.4,17.9-23.6,27.8-.6.9-1.1,3.8-3.2,1.1.2-8.6,4-15.8,9-22.4,5.6-7.3,12.8-12.7,21.7-15.8-.3,1.7-.6,3.5-.9,5.2l-3,4Z"/>
      <path class="cls-1" d="m150.8,217.7c2.5.2,3.7,2.2,4.9,3.8,11.6,15.2,26.8,22.6,45.9,22.1.8,0,1.7,0,2.5,0-.1.3-.2.6-.3.9-1.5,6.5-2.5,6.6-9.7,5.4-15.5-2.4-27.5-10.4-37.5-22-2.6-3-5.1-6.2-5.8-10.3Z"/>
      <path class="cls-1" d="m50,223.7c4.1,1.6,8.4.8,12.6,1,5.8.3,9.3,3.3,9.3,7.9-4.4-2.6-8.7-2.8-13.4-.4-5.4,2.8-6.6,2-7.6-4.3-.2-1.4-.6-2.8-.9-4.2Z"/>
      <path class="cls-5" d="m265,119c-8.4-.2-18.3-4.9-19.3-11.9-.4-2.7-.6-4.9,2.4-6.1.3,6.1,3,9,10.3,10.9,1.2.3,2.6,1,3.7,1,6.1-.3,4.9,2.7,2.9,6.1Z"/>
      <path class="cls-1" d="m208.4,230.7c1.9-4.5,5.1-6.1,10.8-4.7,2.6.6,5.2.6,7.8.8-2.2,8-2.2,8-9.4,4.9-3-1.3-6.1-1-9.2-.9Z"/>
      <path class="cls-5" d="m29.1,101c4.1,3.3,3.1,8.4-2.3,10.8-5,2.2-10.1,3.6-15.7,3.1,2.6-3.9,7.2-2.9,10.8-4.3,4.6-1.8,7.7-4.2,7.2-9.6Z"/>
      <path class="cls-5" d="m194.4,162.8c0,2.5,2.4,4.4,2,7.1-4.3-1.2-7.3-4.3-9.9-7.6-1.8-2.3-2.4-5.2,1.7-6.4,0,4.2,3.3,5.3,6.2,6.9Z"/>
      <path class="cls-5" d="m79.8,168.9c.3-1.7.6-3.5.9-5.2,3.3-2.3,8.1-2.8,9.2-7.7,3,3.5,2.3,6.1-1.9,7.8-3,1.2-4.9,4.2-8.2,5.1Z"/>
      <path class="cls-3" d="m176.4,95.2c-2.6,1.2-5.2,2.4-8.2,3.9-.4-2.8.4-5,1.3-7.1,2,1.7,3.8,3.8,6.9,3.2Z"/>
      <path class="cls-6" d="m179.3,54.1c-1.2-1.2-.7-2.7-.8-4.1,1.6,1.1.7,2.7.8,4.1Z"/>
      <path class="cls-4" d="m145.8,113.7c.3,4.5-.7,8.8-1.9,13.1-.6,2.4-1.7,4-4.2,4.2-2.3.1-3.4-1.5-4.2-3.5-2.6-6.7-3.4-13.7-2.8-20.8.2-3.1,1.7-6.3,5.6-6.6,3.8-.3,5.3,2.2,6.7,5.4,1.2,2.8.6,5.5.9,8.3Z"/>
      <path class="cls-4" d="m132.8,135.4c0,4.1-2.1,5.6-6.3,5.2-5.6-.6-10-3.7-14.4-6.8-2.3-1.6-4.4-4.1-3.1-7.2,1.3-3.1,4.1-4.1,7.4-3.6,6.5,1,11.6,4.5,15.7,9.6.7.8.8,1.8.7,2.8Z"/>
      <path class="cls-4" d="m160.8,163.2c-.5,2.2.4,4.5-2.4,5.6-2.5,1-4.6,1.3-6.7-.8-4.6-4.4-8.1-9.4-10.1-15.4-.5-1.5-.9-3.7.9-5.1,1.8-1.4,3.8-1.3,5.6-.1,5.9,3.9,11.5,8.1,12.7,15.7Z"/>
      <path class="cls-4" d="m115.6,161.5c.5-5.4,4.5-8.5,7.9-12.1,2.2-2.4,4.5-4.1,8.1-3.7,3.9.5,5.4,2.4,3.6,6-2.7,5.3-6.2,10.1-11,13.8-1.8,1.4-3.9,2-6,1-2-1-2.8-2.7-2.5-5Z"/>
      <path class="cls-4" d="m155.6,140.2c-5.7,0-7.5-2.6-5.6-6.7,2.7-5.9,14.6-10.7,20.6-8.4,3.6,1.4,4,6.3.3,8.8-4.9,3.4-10.5,5.3-15.3,6.2Z"/>
    </g>
  </g>
</svg>