<?xml version="1.0" encoding="UTF-8"?>
<svg id="Layer_2" data-name="Layer 2" xmlns="http://www.w3.org/2000/svg" width="1551" height="308.5" viewBox="0 0 1551 308.5">
  <defs>
    <style>
      .cls-1 {
        fill: #94bad6;
      }

      .cls-2 {
        fill: #7d647d;
      }

      .cls-3 {
        fill: #3d0020;
      }

      .cls-4 {
        fill: #ace9ff;
      }

      .cls-5 {
        fill: #d2f3ff;
      }
    </style>
  </defs>
  <g id="Middle">
    <g>
      <path class="cls-3" d="m1473,272.9c-4.8,13.3-15.4,20.4-27.8,25-17.6,6.6-35.8,8.8-54.7,9.1-152.8,2.4-305.6.5-458.4,1.1-48.3.2-96.6.2-144.9.2-95.2,0-190.5.3-285.7.2-100.2,0-200.5-.5-300.7-.7-11.3,0-22.6,0-34,0-8.5,0-16.8-.7-25.2-2.5-7.7-1.7-15.9-1-23.6-3.5-10.2-3.4-20.7-6-29.1-13.2-4.9-4.3-8.7-9.4-10.7-15.6,0-4.6-1.6-5.9-6.4-5.1-12.7,2.8-28.1-8.5-31.3-19.5-1.1-3.7-.9-7.4-1.5-11.1.2-2,2.9-5.4-2.4-4.5-.6,0-1.3-.1-1.9-.2-10.7-.4-23.1-15-23.8-25.3-.3-4.3-1.1-8.4-.4-12.9.6-4,2.2-7.1,4.7-9.9,2.2-2.5,1.8-3.7-.9-5.3C4.1,173.1,0,163.2,0,152c0-11.4,5.6-20.6,14.7-27.4,1.9-1.4,1.6-1.7.6-3.4-11-17.3-4.4-36.1,9.5-44.9,2.8-1.8,6.2-2.9,9.4-3.6,3.6-.8,4.7-2.3,4.8-6.1.1-13.1,7.4-24.5,20.6-28.3,4.4-1.3,8.9-.6,13.3-.5,2.9,0,4-1,4.7-3.4,3.9-15.1,22-28.3,38.3-28.9,10.3-.4,20.7-2.5,31.1-3.6,1.8-.2,3.7-.3,5.5-.3,10.8-.3,21.5-.6,32.3-.7C273.8,0,362.9.4,452,.2c102.4-.1,204.8-.1,307.2-.2,54.5,0,108.9-.2,163.4,0,148,.6,296.1-.6,444.1.9,10.7.1,21.6,0,32.3.8,15.9,1.2,32.2,1.4,47.5,6.2,12.4,3.9,22.7,11.3,26.3,24.8,1.1,4.2,3.1,5.3,7.2,5,7.4-.6,14.5.2,20.8,5.3,7.3,5.9,11,13.1,10.9,22.3,0,7.2,0,7,6.9,8.3,11.9,2.2,20.6,12.7,21.9,24.4.9,8.1.9,16.5-5.2,23.3-1.3,1.5-.7,2.3.9,3.4,11.5,7.9,15.8,19.4,14.4,32.8-.6,6.3-3.3,12.2-8.1,16.9-.1.1-.3.1-.4.2-2.1,2.4-5.4,4.3-6.8,6.8-1.6,2.8,2.6,5.2,3.5,8.3,5,16.1,1,30.8-14.3,40-1.3.8-2.6,1.3-4,2-6.8,1.2-8.8,3.3-8.8,9.4-1.1,14.7-12.6,26.1-27.3,27-1.6,0-3.3.1-4.9.2-4.4-1.5-6.3.5-6.7,4.6ZM31.1,124.5c.1,3.2-2.3,4.3-4.5,5.8-4.9,3.3-10.4,6.1-10.6,13.2h-.1c-3.4,2.6-4.3,14.4-1.6,18.4,4.3,6.4,9.3,12.1,16.5,15.5.2,3.3,1.5,7.2-.8,9.7-1.9,2-3.5,4-5,6.3-.5.2-1.2.2-1.4.5-4.5,10.7,5.8,27.1,16.6,26.4,3.9-.3,7.9-.8,11.8.8,1,.4,1.1,1.2.9,2.1-2.2,1.6,1.1,3.1,0,4.7-2.2,3.6-.9,7.6-.9,11.4,0,10.1,10.2,16.8,20.2,15.8,5.1-.6,10.3-2.5,15.3.5,2,4.3,2,9.2,4.5,13.4,0,2.5,1.2,4.3,2.6,6.2,6.8,9.2,17.3,11.5,27.3,14.6,7.7,2.4,15.8,2.7,23.8,3.5,10.5,1.1,21,1.6,31.4,2.3,10,.7,20.2-.5,30.3-.6,93.2-.2,186.5-.4,279.7-.4,150.5,0,301,.2,451.6.2,77.4,0,154.9,0,232.3,0,62.4,0,124.9.2,187.3.4,5.8,0,11.6.8,17.4.5,10.7-.6,21.3-1.8,31.9-2.9,12.5-1.3,24.9-3.4,36.4-8.3,7.2-3.1,13.5-8.3,15.6-16.7.7-2.3,1.2-4.7,2.2-6.9,1.3-2.9,1.8-6.5,5.9-7.3,6.5-.5,12.8,3.1,19.5.3,5.2-2.1,12.6-9.6,12.6-14-.7-6.3-3.6-12.4-1-18.8,2.8-1.2,5.7-1.1,8.7-.9,13.9,1.2,21.7-10.2,20.3-20.2-.4-3.9-.9-7.7-4.2-10.4-3.3-2.8-4.6-6.2-3.9-10.4,1.7-2,3.8-3.5,5.9-5.1,6.9-4.9,12.4-10.8,12.8-19.9.4-3.2.7-6.3-1.7-8.9-.7-4.2-3.2-7.3-6-10.4-3.3-3.7-8.4-5.3-11.2-9.6-.3-3.6.4-6.8,3.5-9.1.9-.7,1.7-1.6,1.7-2.9.4-.3,1-.5,1.1-.9,5.6-12.2-1.5-29-16.2-27.2-3.7.4-7.6.9-10.8-2-.4-1.3-.9-2.6-1.3-3.9.5-3,.4-6.1,1-9.2.8-4.8,0-9.6-3.2-13.8-5.7-7.5-13.9-6.2-21.5-5.5-3.2.3-6,.6-9-.5-1.1-2.3-2.1-4.6-3.2-6.9-1.6-13.9-10.6-21-23.1-24.3-4.8-1.3-10.1-1-15.1-1.8-16.4-2.6-33-2.2-49.5-3.9-6.3-1.9-12.7-.8-19-.4-6,0-12,.1-18,.1-138.2.1-276.4.3-414.5.4-110.9,0-221.8,0-332.6,0-124,0-248.1-.2-372.1-.3-.6-1-1.3-1-2,0-12-.2-24-1.3-35.9-.3-20.9,1.9-41.9,2.5-62.8,5.4-12,1.7-20.9,7-26.1,18.1-.7,3.3-1.5,6.6-2.2,9.9-2.9,4.5-6.8,5.6-11.9,4.3-9.8-2.4-17.7.6-22.1,7.4-3.2,4.9-1.5,10.2-1.7,15.3,0,2.9-.2,5.9-.2,8.8-2.8,3.3-6.7,1.9-10.2,2.1-10.1.5-15.6,3.8-17.9,12-2.1,3.1-2.1,6.5-1.7,9.9,1.1,3,1.7,6.4,4.2,8.6,3.1,2.6,4.1,5.7,3.8,9.5Z"/>
      <path class="cls-4" d="m92,269c-2.5-4.1-2.5-9.1-4.5-13.4-.6-5.2-3.7-7.9-9.6-8.5-13-1.5-18.6-6.2-21-16.7-.6-2.6-.4-6.2-4.1-7.2.2-.9.1-1.7-.9-2.1.2-4.5-2.1-7.6-6-9.3-3.3-1.5-6.8-2.4-10.2-3.7-7.4-2.7-10.8-7.4-10.7-14.7,1.5-2.3,3.1-4.3,5-6.3,2.3-2.5,1-6.4.8-9.7,2.7-2.5.7-4.8-.8-6.4-7.4-7.9-14.2-15.9-14-27.5,0,0,.1,0,.1,0,6.2-2,11.2-5.8,16-9.9,2.7-2.3,2.5-5.9.9-9.1,3-6.1-.9-10.9-3-16.1-1.6-4.1-3.4-5.2-6.8-1.8-.4-3.5-.4-6.9,1.7-9.9,1.9,1.3,1.1,4,2.9,5.4.5-.4,1-.6,1.2-1,3.9-6,8.6-10,16.6-9.5,4.9.3,7.3-3.3,7.3-9,0-2.9.2-5.9.2-8.8,1.5,0,2.5-.9,3.2-2,4.6-7.4,11.3-10.1,19.8-11.2,11.9-1.5,13.3-3.2,12.7-13.8.7-3.3,1.5-6.6,2.2-9.9,6.1-1.3,11.8-4.3,18-5.6,12-2.6,23.7-7.2,35.9-7.2,158,.4,316-1.3,474,.8,64.9.9,129.8.2,194.7.7,121.6,1,243.1,0,364.7.4,75.6.2,151.1-1.4,226.7,1,9.9.3,19.8,1.3,29.3,4.8,9.4,3.4,18.1,8.2,27.3,12,1.1,2.3,2.1,4.6,3.2,6.9-.2,3.4,1.5,5.6,4.6,6.9,3.5,1.4,7,3,10.6,4,4.6,1.3,8.5,3.4,11,7.7,2,3.6,4.4,6.9,6.6,10.3.4,1.3.9,2.6,1.3,3.9-2.3,5.3.7,10.6,8.1,12.1,10.3,2.1,14.3,9.6,17.7,17.9,0,1.3-.7,2.2-1.7,2.9-3.1,2.3-3.8,5.5-3.5,9.1-2.9,3.5-2.7,7.4.3,10.3,5.1,5,10.9,9.4,13.8,16,3.1-1.6,1-4.9,3.2-6.4,2.4,2.6,2.1,5.8,1.7,8.9-1.6,0-3.3-2.2-4.8.3-3.2,5.4-8.2,9.4-11.9,14.4-2.3,3-4.4,6.4-2,10.4-.7,4.2.6,7.7,3.9,10.4,3.3,2.7,3.8,6.5,4.2,10.4-4.9,6.8-11.3,10.7-20,11.1-5.6.3-8.2,3.7-9.1,9.9-2.6,6.4.3,12.6,1,18.8-.8.3-1.7.3-2.2.8-5,5.4-11,8.2-18.6,7.2-2.7-.3-5.5.8-8.1,1.8-1.7.7-3.4,1.5-3.1,3.8-4,.7-4.6,4.4-5.9,7.3-1,2.2-1.5,4.6-2.2,6.9-1,.2-2,.2-2.9.6-20.8,9.4-42.7,14.4-65.3,16.2-14.2,1.1-28.6,1-42.8,1-385.3.2-770.6.2-1156,.3-13.3,0-26.6-.8-39.8-1.3-9-.4-18.1-1.8-27-3.5-12-2.3-22.5-8.5-33.9-12.3Zm22.9-16.9h0c.6.7,1.1,1.7,1.8,2.2,11,8,23.1,12.8,36.9,12.7,313.4-.6,626.9,1.1,940.3-.9,94.9-.6,189.8,0,284.7-.1,11.4,0,22.7-1.8,33.6-5.3,2-.6,4.7-.7,5.6-3.4,28.4-6.6,50.4-22,63.9-48.1,7.8-15,13-30.9,12.2-48.2-.4-8.6.6-17.3-.4-25.8-1.9-15.3-8-29.3-15.3-42.8,1.1-2-.2-3.5-1.1-5.1-6-11.1-14.2-20.3-24.5-27.6-22-15.7-47.2-22.2-73.6-22.6-38.6-.6-77.2-.1-115.8.4-88.6,1.3-177.1-.5-265.7,1.1-67.2,1.2-134.5,0-201.7.9-123.4,1.4-246.7-.5-370.1,1.2-85.7,1.1-171.5-.8-257.2,1.1-7.5.2-14.9.2-22.4.8-19.1,1.4-35.8,8.1-50.5,20-3.2,2.6-6.6,5.4-5.7,10.3-8.2,7.7-14.9,16.6-20.3,26.5-6.8,12.4-11.2,25.7-12.5,39.6-1,10.7-.7,21.7.5,32.6,1.3,11.4,5,21.7,9.4,32,2.3,5.2,5.6,9.9,8.5,14.7,2.8,4.6,6,8.6,9.6,12.5,7.8,8.7,17.8,14.3,27.7,20.2.4.9,1.2,1,2,1Z"/>
      <path class="cls-5" d="m1461.7,43.7c-9.2-3.8-18-8.6-27.3-12-9.5-3.5-19.4-4.5-29.3-4.8-75.6-2.4-151.1-.8-226.7-1-121.6-.3-243.1.6-364.7-.4-64.9-.5-129.8.1-194.7-.7-158-2.1-316-.4-474-.8-12.2,0-24,4.6-35.9,7.2-6.2,1.3-11.8,4.3-18,5.6,5.2-11.1,14-16.4,26.1-18.1,20.9-2.9,41.9-3.6,62.8-5.4,11.9-1.1,23.9.1,35.9.3,0,.7.4,1.3,1.2,1.1.3,0,.5-.7.8-1.1,124,0,248.1.2,372.1.3,110.9,0,221.8,0,332.6,0,138.2,0,276.4-.2,414.5-.4,6,0,12,0,18-.1,6.3,1.1,12.7.2,19,.4,16.5,1.7,33.1,1.3,49.5,3.9,5,.8,10.3.5,15.1,1.8,12.5,3.3,21.5,10.4,23.1,24.3Z"/>
      <path class="cls-1" d="m92,269c11.4,3.8,21.9,9.9,33.9,12.3,9,1.7,18,3.1,27,3.5,13.3.6,26.5,1.3,39.8,1.3,385.3-.1,770.6,0,1156-.3,14.3,0,28.6,0,42.8-1,22.6-1.7,44.5-6.8,65.3-16.2.9-.4,1.9-.4,2.9-.6-2.2,8.4-8.4,13.6-15.6,16.7-11.5,4.9-23.9,7-36.4,8.3-10.6,1.1-21.3,2.2-31.9,2.9-5.8.3-11.6-.5-17.4-.5-62.4-.2-124.9-.3-187.3-.4-77.4,0-154.9,0-232.3,0-150.5,0-301-.2-451.6-.2-93.2,0-186.5.2-279.7.4-10.1,0-20.3,1.3-30.3.6-10.5-.7-21-1.3-31.4-2.3-8-.8-16.1-1.1-23.8-3.5-9.9-3.1-20.5-5.4-27.3-14.6-1.4-1.9-2.6-3.8-2.6-6.2Z"/>
      <path class="cls-5" d="m88.8,46.6c.6,10.6-.8,12.3-12.7,13.8-8.5,1.1-15.2,3.8-19.8,11.2-.7,1.1-1.7,2-3.2,2,.2-5.1-1.5-10.4,1.7-15.3,4.4-6.8,12.3-9.8,22.1-7.4,5.2,1.3,9.1.2,11.9-4.3Z"/>
      <path class="cls-1" d="m52.8,223.2c3.7,1,3.6,4.6,4.1,7.2,2.3,10.5,7.9,15.3,21,16.7,5.9.7,9,3.3,9.6,8.5-5-3.1-10.1-1.1-15.3-.5-10,1.1-20.1-5.7-20.2-15.8,0-3.8-1.3-7.8.9-11.4,1-1.6-2.2-3.1,0-4.7Z"/>
      <path class="cls-5" d="m1497.6,79.6c-2.2-3.4-4.6-6.8-6.6-10.3-2.5-4.4-6.3-6.4-11-7.7-3.6-1-7.1-2.6-10.6-4-3.1-1.2-4.7-3.5-4.6-6.9,3,1.1,5.8.8,9,.5,7.6-.7,15.8-2,21.5,5.5,3.1,4.1,4.1,9,3.2,13.8-.5,3.1-.4,6.2-1,9.2Z"/>
      <path class="cls-5" d="m1524.8,113.6c-3.4-8.4-7.4-15.9-17.7-17.9-7.5-1.5-10.4-6.9-8.1-12.1,3.2,2.9,7.1,2.4,10.8,2,14.8-1.7,21.9,15,16.2,27.2-.2.4-.8.6-1.1.9Z"/>
      <path class="cls-1" d="m24.9,193.3c0,7.3,3.3,11.9,10.7,14.7,3.4,1.3,6.9,2.2,10.2,3.7,3.9,1.7,6.3,4.8,6,9.3-3.8-1.6-7.9-1-11.8-.8-10.8.7-21.1-15.7-16.6-26.4.1-.3.9-.3,1.4-.5Z"/>
      <path class="cls-1" d="m1498.9,221.3c.8-6.3,3.4-9.7,9.1-9.9,8.6-.4,15.1-4.3,20-11.1,1.3,10-6.5,21.4-20.3,20.2-3-.3-5.9-.3-8.7.9Z"/>
      <path class="cls-5" d="m52.8,82.4c0,5.6-2.4,9.3-7.3,9-7.9-.5-12.7,3.5-16.6,9.5-.2.4-.7.6-1.2,1-1.8-1.4-1.1-4.1-2.9-5.4,2.3-8.2,7.8-11.5,17.9-12,3.5-.2,7.3,1.2,10.2-2.1Z"/>
      <path class="cls-1" d="m15.8,143.4c-.2,11.7,6.6,19.7,14,27.5,1.5,1.6,3.5,3.9.8,6.4-7.2-3.4-12.1-9.1-16.5-15.5-2.7-4-1.8-15.7,1.6-18.4Z"/>
      <path class="cls-5" d="m1536.9,145.4c-2.1,1.6,0,4.8-3.2,6.4-3-6.6-8.7-10.9-13.8-16-3-3-3.2-6.8-.3-10.3,2.8,4.3,7.9,5.8,11.2,9.6,2.8,3.1,5.3,6.1,6,10.4Z"/>
      <path class="cls-1" d="m1519.8,179.3c-2.4-4-.3-7.4,2-10.4,3.7-5,8.7-8.9,11.9-14.4,1.5-2.5,3.2-.2,4.8-.3-.4,9.1-5.9,15-12.8,19.9-2.1,1.5-4.2,3-5.9,5.1Z"/>
      <path class="cls-1" d="m1467.8,253.9c-.3-2.4,1.4-3.1,3.1-3.8,2.6-1.1,5.4-2.2,8.1-1.8,7.6.9,13.5-1.9,18.6-7.2.5-.5,1.5-.6,2.2-.8,0,4.5-7.4,11.9-12.6,14-6.7,2.8-13-.8-19.5-.3Z"/>
      <path class="cls-5" d="m32.9,124.5c1.6,3.2,1.8,6.8-.9,9.1-4.8,4.1-9.9,7.9-16,9.9.2-7,5.7-9.9,10.6-13.2,2.2-1.5,4.6-2.6,4.5-5.8.6,0,1.2,0,1.8,0Z"/>
      <path class="cls-1" d="m32.9,124.5c-.6,0-1.2,0-1.8,0,.3-3.8-.7-6.9-3.8-9.5-2.5-2.1-3.1-5.5-4.2-8.6,3.4-3.4,5.1-2.2,6.8,1.8,2.1,5.2,6,10,3,16.1Z"/>
      <path class="cls-1" d="m1373.9,13.8c-6.3-.2-12.7.7-19-.4,6.4-.4,12.7-1.5,19,.4Z"/>
      <path class="cls-2" d="m217.7,13.6c-.2.4-.4,1-.8,1.1-.8.2-1.1-.4-1.2-1.1.7-.9,1.3-.9,2,0Z"/>
      <path class="cls-3" d="m1478.2,92.3c7.3,13.5,13.3,27.6,15.3,42.8,1.1,8.5,0,17.2.4,25.8.8,17.3-4.4,33.3-12.2,48.2-13.5,26.1-35.4,41.5-63.9,48.1-2,.6-3.9,1.6-6,1.8-11.2.8-22.4,1.8-33.5,1.9-151.9.8-303.7-.3-455.6.7-56.1.4-112.2-.4-168.3-.2-96.3.3-192.5.2-288.8-.2-59.1-.3-118.2,0-177.4,0-40,0-79.9-.2-119.9,0-3.2,0-5.5-2.8-8.4-2-9.6,2.5-18.7-1-28-2.1-6.1-.7-11.3-3.9-17.2-5.1,0,0,0,0,0,0-.3-1-1.3-.9-2-1-9.9-5.8-19.9-11.5-27.7-20.2-3.5-3.9-6.7-8-9.6-12.5-3-4.8-6.3-9.5-8.5-14.7-4.4-10.3-8.2-20.6-9.4-32-1.2-10.9-1.5-21.9-.5-32.6,1.3-13.9,5.7-27.2,12.5-39.6,5.4-9.9,12.1-18.7,20.3-26.5,7.9-6.6,16.6-11.9,26.1-16.2,16.8-7.6,34.9-8.3,52.8-8.8,37.8-1.2,75.6-.8,113.4-.6,65.4.3,130.8,0,196.3-.2,176-.4,352-.4,527.9.2,95.2.3,190.5-.2,285.7,0,33.6,0,67.2-.8,100.7,1.4,9.1.6,18.1.9,26.9,3.2,17.1,4.5,32.7,11.4,45.2,24.7,4.7,5.1,8.7,10.6,13.4,15.7Zm-706.7-31.7c-102.6,0-205.2,0-307.7,0-94.4,0-188.8,0-283.3,0-14.8,0-29.6.3-44.3,3.1-16,3-29.6,10.7-41,21.7-8.2,7.9-14.1,17.9-18.5,28.7-4.1,10.3-6.8,21-7.6,31.9-.9,11.8-.5,23.6,2.9,35.2,3.9,13.1,8.9,25.6,18,36.2,8.1,9.4,17.4,16.8,28.9,22.1,10,4.6,20.3,8.5,31.1,8.5,107.7.2,215.5-.1,323.2-.2,105.2,0,210.5,0,315.7,0,49.6,0,99.2-.2,148.9,0,145.5.4,291.1.4,436.6.4,9.6,0,19.2.8,28.8-.9,11.6-2.1,22.9-4.5,33.5-10.2,27.6-14.8,40.5-39.2,44.7-68.4,2.3-15.8.7-32-4.4-47.6-7.2-22.1-20.6-38.8-41.3-49.8-16.9-8.9-35.4-10.1-53.7-10.3-41-.5-81.9-.2-122.9-.2-162.5,0-325.1,0-487.6,0Z"/>
      <path class="cls-1" d="m1478.2,92.3c-4.6-5.1-8.6-10.6-13.4-15.7-12.4-13.4-28.1-20.3-45.2-24.7-8.8-2.3-17.8-2.6-26.9-3.2-33.6-2.2-67.1-1.4-100.7-1.4-95.2-.1-190.5.4-285.7,0-176-.6-352-.6-527.9-.2-65.4.1-130.8.5-196.3.2-37.8-.2-75.6-.6-113.4.6-17.9.5-35.9,1.2-52.8,8.8-9.4,4.3-18.1,9.6-26.1,16.2-.9-5,2.5-7.7,5.7-10.3,14.7-11.9,31.4-18.6,50.5-20,7.5-.6,14.9-.6,22.4-.8,85.7-2,171.5,0,257.2-1.1,123.4-1.7,246.7.3,370.1-1.2,67.3-.8,134.5.3,201.7-.9,88.6-1.6,177.1.2,265.7-1.1,38.6-.6,77.2-1,115.8-.4,26.4.4,51.6,6.9,73.6,22.6,10.2,7.3,18.4,16.5,24.5,27.6.8,1.5,2.2,3.1,1.1,5.1Z"/>
      <path class="cls-5" d="m114.8,252c5.9,1.2,11.1,4.4,17.2,5.1,9.3,1.1,18.4,4.6,28,2.1,2.9-.8,5.1,2,8.4,2,40-.2,79.9,0,119.9,0,59.1,0,118.2-.2,177.4,0,96.3.4,192.5.5,288.8.2,56.1-.2,112.2.6,168.3.2,151.9-1.1,303.7,0,455.6-.7,11.2,0,22.4-1.1,33.5-1.9,2-.1,4-1.1,6-1.8-.9,2.7-3.6,2.8-5.6,3.4-10.9,3.5-22.1,5.3-33.6,5.3-94.9,0-189.8-.5-284.7.1-313.4,2-626.9.2-940.3.9-13.8,0-26-4.7-36.9-12.7-.8-.6-1.2-1.5-1.8-2.3Z"/>
      <path class="cls-5" d="m112.9,251c.8.2,1.7,0,2,1-.9,0-1.6-.2-2-1Z"/>
    </g>
  </g>
</svg>