<?xml version="1.0" encoding="UTF-8"?>
<svg id="Layer_2" data-name="Layer 2" xmlns="http://www.w3.org/2000/svg" width="1130.4" height="507.6" viewBox="0 0 1130.4 507.6">
  <defs>
    <style>
      .cls-1 {
        fill: #c297d1;
      }

      .cls-2 {
        fill: #fff;
      }

      .cls-3 {
        fill: #f2d9fd;
      }

      .cls-4 {
        fill: #3d0020;
      }

      .cls-5 {
        fill: #e7bcfc;
      }

      .cls-6 {
        fill: #bf86e0;
      }
    </style>
  </defs>
  <g id="Middle">
    <g>
      <g>
        <path class="cls-4" d="m164.9,455.7c-6.3,1.7-12.6,3.5-18.9,5.2-.7-.2-1,.2-1.2.8-16.4,3.9-32.8,7.8-49,12.6-7.6,2.2-15.2,4.4-22.8,6.6-.7-.2-1,.2-1.1.8-4,1.4-7.9,2.9-11.9,4.3-.7-.3-1,.1-1.1.7-3,1.1-5.9,2.2-8.9,3.3-.7-.3-1,.1-1.1.7-2,.8-3.9,1.5-5.9,2.3-.7-.3-1,.1-1.1.7-1.3.4-2.6.8-3.9,1.3-.7-.3-1,.1-1.2.7-.6,0-1.2.2-1.8.2-.7-.2-1,.2-1.1.8-2,.8-3.9,1.5-5.9,2.3-.7-.3-.9.2-1,.7-.3,0-.7.2-1,.3-.7-.3-.9.2-1,.7-.3,0-.7.2-1,.3-.7-.3-.9.2-1,.7-.3,0-.7.2-1,.3-.7-.3-.9.1-1.1.7-.3,0-.6,0-.9.2-.7-.2-1,.1-1.1.7-.3,0-.6,0-.9.2-.7-.2-1,.1-1.2.7-1.3.4-2.5.8-3.8,1.3-.8-.2-1.7-.5-2.1.7-1.3.1-2.6.3-3.9.4-.9-.3-1.7-.5-2,.7-3.6-.7-5-3-5.1-6.6-.1-8.4,2.1-16.5,2.8-24.8.4-4.9.9-9.8,1.2-14.7.8-13.5,2-27,4-40.5,1.6-11,2.2-22.1,3.1-33.2.8-10.6,1.2-21.3,2.1-32,1.3-14.1.8-28-1-42-1-8.1-1.3-16.3-2.1-24.5-.9-8.9-2.3-17.7-3.5-26.6-1.3-10.2-3.8-20.2-3.4-30.6,2.3-1.2-.2-2-.3-3,0-.3,0-.7,0-1,.2-.7-.2-1-.8-1.1-4.6-11.5-2.1-19.9,8.5-27.8,14.3-10.6,30.2-18.4,46.6-25.2,8.1-3.3,15.9-7.3,24.5-9.2,1.4-.3,2.9-.5,4.3-.8q5.5.3,5.1-2.9c-.7-6.1-1.7-12.3-2-18.4-.9-18.2,7.5-31.6,22.4-41.3,22.1-14.3,46-25.1,70.7-34.1,33-12,66.5-22,100.6-30.4,19.4-4.7,38.9-8.9,58.5-12.7,15.9-3.1,31.9-5.5,47.8-8.6,3.5-.7,7.1-.9,10.7-1.3.7.2.9-.2,1.1-.8,9.9-.4,19.6-2.6,29.5-3.8,1.8-.2,3.6-.3,5.4-.4.8.2,1.7.4,2.1-.7,2-.1,4-.2,5.9-.3.8.2,1.6.4,2.1-.6,2.3-.1,4.6-.2,6.9-.4.8.2,1.6.4,2.1-.7l16.9-1.3c.7.2.9-.2,1.1-.8,3.3,0,6.6-.1,9.9-.2,1.4,0,2.9.9,4-.7,2.7,0,5.3-.2,8-.3,1.4,0,2.9.9,4-.7,3.3,0,6.6-.2,9.9-.3,2,0,4.2.9,6-.7,4.6,0,9.3-.2,13.9-.3,2.3-.2,4.9,1.1,7-.8,18.6-1.1,37.3-.7,55.9,0,3.6,1.9,7.4.5,11,.7,3.7,0,7.3.2,11,.2,2.5,1.8,5.3.6,8,.7l8,.2c1.8,1.7,4,.7,6,.8,3,.1,6,.2,8.9.3,1.1,1.5,2.7.6,4.1.7,2.3.1,4.6.2,6.9.3.8,1.4,2,.7,3.1.7l6,.3c1.1,1.7,2.7.7,4,.7,2.3.1,4.6.2,6.9.4.8,1.3,2,.7,3.1.6l4.9.3c.7,1.4,2,.7,3,.7,2,.1,3.9.2,5.9.4.4,1.1,1.3.8,2.1.6,1.7,0,3.3.2,5,.3.7,1.5,2,.7,3,.7,1.6.1,3.3.2,4.9.3.4,1.1,1.2.8,2.1.7,1.7,0,3.3.2,5,.3.7,1.5,2,.7,3,.7,1.3,0,2.6.2,4,.3.4,1.1,1.2.9,2,.7,1.6.1,3.3.2,4.9.3.4,1.1,1.2.8,2,.7,1.6.1,3.3.2,4.9.3.4,1.1,1.3.8,2.1.7.3,0,.7,0,1,0,1.7,0,3.1,1.9,5,1.1.3,0,.7,0,1,0,1.7.4,3.3.7,5,1.1,3.3.4,6.6.9,9.9,1.3.4,1.1,1.2.9,2,.7,3,.4,6,.8,9,1.3.4,1.2,1.2.9,2,.7,3.2.4,6.5.8,9.7,1.3.2.6.5.9,1.2.7,1,.1,2,.2,3,.3.4,1.2,1.2.9,2,.7.3,0,.7,0,1,0,1.5-.2,2.4,1.8,4,1,5.7,1.1,11.3,2.1,17,3.2.3,1.2,1.2.9,2,.8,4,.7,7.9,1.5,11.9,2.2.1.6.3,1,1.1.7,2.7,0,5.1,2,7.9,1.3.1.6.4,1,1.1.7,1,.1,1.9.2,2.9.3.1.6.4,1,1.1.7,1,.1,2,.2,2.9.3.1.6.3,1,1,.7,2.3.4,4.7.9,7,1.3.3,1.2,1.2.9,2,.8.6,0,1.3.1,1.9.2.2.5.4,1,1.1.6,1,.1,2,.2,3,.3.1.6.3,1,1,.7,1,.1,2,.2,3,.3.1.6.3,1,1,.7,1,.1,2,.2,2.9.3.1.6.4,1,1.1.7,1,.1,1.9.2,2.9.3.1.6.4,1,1.1.8.3,0,.7,0,1,0,.9.5,1.7,1.7,3,.7,2,.3,3.7,1.9,5.9,1.5.1.6.4,1,1.1.8,2,.4,3.9.8,5.9,1.2.1.6.4,1,1.1.8l5.9,1.2c.1.6.4,1,1.1.8,1.9.4,3.9.8,5.8,1.2.2.6.5,1,1.2.8.6,0,1.3.1,1.9.2.1.6.4,1,1.1.8,4.9,1.4,9.9,2.8,14.8,4.2.1.6.5,1,1.1.8.6,0,1.2.1,1.9.2.1.6.4,1,1.1.8,5.3,1.7,10.6,3.4,15.9,5.2,0,.6.3,1,1,.8l1.9.2c.1.6.4,1,1.1.8,2.3.7,4.6,1.5,7,2.2,0,.6.3,1,1,.8l6.9,2.2c.1.6.4,1,1.1.7,1.3.4,2.6.9,3.9,1.3.1.6.4,1,1.1.7,4,1.8,8,3.5,12,5.3.4,1.1,1.1,1,2,.7.3,0,.6.2.9.3.1.6.3,1,1,.7,6.3,3.1,12.7,6.2,19,9.2,0,.6.3,1,1,.8.3.1.6.2,1,.3,0,.6.3,1,1,.8.3.1.6.2.9.2.1.6.4,1,1.1.8,1.3.7,2.6,1.5,4,2.2,0,.6.3,1,1,.8.7.4,1.4.8,2,1.2,0,.6.3,1,1,.8,3.7,2.4,7.4,4.8,11,7.2,0,.6.3,1,1,.8.7.4,1.3.8,2,1.2.4,2.3,1.8,3.5,4,4,2.1,4.5,5.8,8.1,7.2,13-.2.7.2,1,.8,1.1.1,1,.2,2,.4,2.9-.4.7.1.9.7,1,0,1,.1,2,.2,3-.2.8-.4,1.7.8,2,0,3,0,6,0,8.9-1.9,1.8-.6,4-.8,6-.1,1.6-.2,3.3-.3,4.9-1.6,1.1-.6,2.7-.7,4.1-.3,2.4-.7,4.8,2.8,5.1.4,1.1,1.2.8,2.1.7,1,.1,2,.2,2.9.3.5,1.2,1.3.7,2.1.5,3.6,1.1,7.3,2.3,10.9,3.4.1.6.4,1,1.1.7,2.1.4,3.7,2.3,5.9,2.3.1.6.3,1,1,.7,2,.8,4,1.5,5.9,2.3.1.6.4,1,1.1.7l1,.2c0,.6.3,1,1,.8,1.3.4,2.6.8,3.9,1.2.1.6.4,1,1.1.7,2.6,1.1,5.3,2.2,7.9,3.3.1.6.4,1,1.1.8.3.1.6.2.9.2.1.6.4,1,1.1.8,3.3,1.7,6.6,3.5,10,5.2,0,.6.3,1,1,.8,1.3.7,2.7,1.5,4,2.2,0,.6.3,1,1,.8,1.7,1.1,3.3,2.1,5,3.2,0,.6.3,1,1,.8,4,3.7,9.1,6.2,12.4,10.8,1,1.4,1.8,2.7,1.9,4.4-.3.7.1.9.7,1.1.7,4.3-.7,8.5-1,12.7-.6.2-1,.4-.7,1.1-.1,1-.3,2-.4,3-1.7,1.5-.6,3.3-.7,5-.1,1.3-.2,2.6-.3,3.9-1.6,1.2-.7,2.7-.5,4.1-.1,1-.3,2-.4,3-1.8,1.4-.7,3.3-.8,5-.4,3.6-.9,7.3-1.3,10.9-1.5.7-.8,2-.7,3l-1.4,11.9c-1.1.4-.8,1.3-.6,2.1-.1,2-.2,3.9-.4,5.9-1.1.4-.8,1.3-.6,2.1-.1,2.3-.2,4.6-.3,6.9-1.4.7-.7,2-.7,3-.1,2.6-.3,5.3-.4,7.9-1,.4-.8,1.3-.6,2.1-.1,2.3-.2,4.6-.3,6.9-1.6,1.1-.6,2.7-.7,4.1-.4,16.6-.4,33.3,0,49.9,0,1.7-1,3.6.7,5.1.1,3.3.2,6.6.3,9.9.1,1.7-1,3.6.7,5,0,2.3.2,4.6.3,6.9,0,1.1-.7,2.3.7,3.1.4,5.3.9,10.6,1.3,15.9,0,1.1-.8,2.3.7,3,.4,4.6.9,9.3,1.3,13.9,0,1.1-.8,2.3.7,3,0,2,.2,4,.3,5.9,0,1.1-.7,2.3.7,3.1.1,2.3.2,4.6.3,6.9,0,1.7-1,3.6.7,5,0,3,.2,6,.3,8.9,0,1.4-.9,2.9.7,4.1.1,2.6.2,5.3.3,7.9,0,1.7-1,3.6.7,5,0,1,.2,2,.3,2.9,0,1.4-.9,2.9.7,4.1.1,1,.3,1.9.4,2.9-.1,1.1-.7,2.3.6,3.1.2,1,.3,1.9.5,2.9,0,2.3,0,4.7,0,7-.2,2.1-1.7,3.2-3.2,4.3-2.4.9-4.6-2.7-7-.3h-.4c0,0-.4,0-.4,0-1.1-3-3.4-3.4-6.1-2.7-12-5.1-24-10.2-36-15.3-1.1-1.1-2.4-1.9-4-1.9,0,0,0,0,0,0-.1-.3-.3-.5-.4-.8-.1.3-.3.5-.4.8-5.1-1.7-10.3-3.4-15-6-.4-1.1-1.2-1-2-.7-8-1-15.5-4.1-23.3-6.1-15.7-4.2-31.5-8.2-47.2-12.2-2.8-.7-5.4-2.3-8.5-1.8-1.5-2-3.8-1.8-5.9-2-2.7-2-5.9-2.8-9-3.8-.9-.6-1.7-1.4-2.9-1-2.6-1.3-5.2-2.6-7.7-4-5.6-3.2-6.5-5.8-5.3-14.1,1.3-.7,1.4-1.3,0-2v-1.9c.5-.2,1-.4.8-1.1.7-6.3,1.4-12.7,2.1-19,.3-.8-.3-.9-.9-1-15-5.5-30.6-9-46.1-12.8-17.6-4.3-35.2-8.3-52.9-11.9-22.8-4.7-45.8-8.8-68.7-13.1-14.9-2.8-29.9-5.4-44.9-8.1-1.3-.7-2.4-2.8-4.3-.9l-4-.9c-.6-1.4-1.2-1.5-2-.1-1.8.3-3.1-1.6-5-1l-.3-.7-.7.7c-7.2-1.1-14.4-2.1-21.6-3.2-8.7-1.3-17.4-2.5-26-3.8-9-1.3-18-3.1-27.1-3.8-6.9-.5-13.7-1.2-20.5-2.2-17.5-2.5-35.1-2.8-52.6-3.6-14-.6-28.1.2-42.1,1.5-6.2.6-12.5.8-18.8,1.2-.7-.2-.9.2-1.1.8-2.6,0-5.3.1-7.9.2-.8-.2-1.7-.4-2,.7l-7,.3c-.8-.2-1.7-.4-2,.7-7.3.8-14.6,1.5-21.9,2.3-.8-.2-1.7-.4-2,.8-1.7.3-3.4.2-5-.7-1.6-.5-2.4.5-3.1,1.7-5.6.8-11.3,1.6-16.9,2.4-.8-.3-1.7-.5-2,.7-3.6.4-7.3.8-10.9,1.3-4.9-.3-9.7,0-14.1,2.6-1.6.1-3.3.3-4.9.4-.7-.2-.9.2-1.1.8-5.6.7-11.3,1.5-16.9,2.2-.7-.2-.9.2-1.1.8-1.3,0-2.6.2-3.9.3-.8-.2-1.6-.5-2.1.5-14.5,2.7-29,5.4-43.6,7.9-13.5,2.3-26.6,6.1-40.2,7.5-.7-.2-.9.2-1.1.8-13.9,2-27.5,5.4-41.2,8.3-22.6,4.7-44.9,10.7-67.3,16.7-2.2.6-4.3,1.3-6.4,2-1.3.5-2.4,1.2-1.5,2.9-.2.8-.7,1.6.6,2,0,2.3.2,4.6.3,6.9-.2.8-.4,1.7.7,2,.1,1.6.2,3.3.3,4.9,0,1.4-.9,2.9.8,4l.2,1c-.2.8-.4,1.6.6,2.1,1.3,9-1.6,12.8-12.7,17.1-.7-.3-.9.1-1.1.7-2,.8-4,1.5-5.9,2.3-.7-.3-1,.1-1.1.7Zm937.9-109.8c0-1.3,0-2.7,0-4,0-10-1-20.2.6-30,1.7-10.9,2.2-21.8,3.6-32.7,1.6-12.3,4.1-24.3,5.9-36.6,1.3-8.6,3.8-17,3.2-25.8-.1-2-.4-3.4-2.4-4.9-8.4-6.6-17.5-11.8-26.9-16.7-8.1-4.2-16.4-8.2-24.9-11.4-6.2-2.4-11.9-6.2-18.8-6.7-2.7-1-6.4-2.8-6.8,1.7-1.9,17.1-6.6,33.7-8.2,50.8-1.5,14.8-5.4,29.3-7.2,44.2-1.5,12.7-1.7,25.3-1.4,38-.1,1.3-.3,2.6-.3,3.9-.3,22.9-.4,45.8,1,68.6.7,10.9.6,21.9.9,32.9.1,5.3-.7,10.5-2,15.6-1.1,4.1-3.2,8.4-8,8.6-7.5.4-15,.5-22.5-.5-8.2-1.1-16.5.5-24.8-1,5.3,2.9,10.7,4.7,16.4,6.3,18.9,5.3,38.1,9.4,57,15,15.9,4.8,31.8,9.4,47,15.9,9.5,4.1,19,8.1,27.8,13.5,1.2.8,2.3,2.6,3.7,1.5,1.2-.9.3-2.7,0-4.2-1.8-9.5-2.4-19.1-3.3-28.7-.5-5.5,0-11.4-2.4-16.7,0-1.7,0-3.3,0-5,.2-.2.5-.4.7-.6-.2-.1-.5-.2-.7-.3-3.3-28.5-7-57-7.2-85.8.3-1.7.4-3.4-.1-5ZM18.4,460.6c-2.6,3.7-.8,8.1-1.7,12.1-1.3,6.1-1.6,12.4-2.4,19.2,1.1-.5,1.6-.8,2.2-1.1,17.1-8.4,34.6-15.9,52.5-22.2,26.2-9.1,53.3-15,80.1-22.1,5.7-1.5,11.7-2.3,17.8-6.8-2.6,0-3.7-.1-4.8,0-13.6,2-27.3,2.2-41,2-1.8,0-3.5.3-5-1.4-3.3-4-6-8-6.2-13.5-.7-16.3,1.2-32.7-.3-49,0-1.6.2-3.3.3-4.9,1.6-.7,1-1.9.7-3.1.6-18.7,1.8-37.4,1-56.2-.3-8.1-.3-16.3-.9-24.3-.5-6.5-1.6-12.9-2.6-19.4-1.4-8.8-3.6-17.6-4.1-26.4-.6-10-3.2-19.5-4.8-29.3-1.5-9-3-17.9-4.5-26.9.3-1.8-.9-3.3-1-5.2-.2-5.9-1.5-6.7-7.2-5.1-8.8,2.4-17,6.5-25.4,10-15.6,6.6-30.8,13.8-44.1,24.4-2.2,1.7-3,3.4-3.2,6.1-.6,7.3,1.1,14.4,2.5,21.4,2.7,13.4,4.3,26.9,6.7,40.3,1,5.3-.6,10.9,2,15.9,0,2.5-.5,5,0,7.4,2.2,12.3,2.2,24.8,2.7,37.3.3,7.2-.4,14.5-.8,21.8-.9,13.7-1.6,27.5-3,41.2-.7,6.6-1.3,13.3-2.1,20-1.6,12.6-3.8,25.2-3.6,38Zm989.6-197.6c1-4.8,2-9.5,2.9-14.3,1.6-9.1,3.8-18.1,4.3-27.4.5-8.8,1.8-17.5,4.1-25.9,2-7.6,3.2-15.1,4-22.9.9-9.6,2-19.1,3.7-28.6,1.6-8.8-2.3-22.5-8.8-26.9-15.1-10.3-31.1-19-47.9-26-26.1-10.8-52.7-20.1-79.8-28.1-28.3-8.4-56.9-15.6-85.9-21.6-21.6-4.5-43.2-8.4-65-12.1-17.3-3-34.8-5.3-52.2-7.6-15.4-2.1-30.9-3.7-46.4-5-16.4-1.4-32.9-2.6-49.4-3-25.7-.5-51.5-.3-77.2.9-.5,0-1,0-1.5,0-13.8,2.5-27.8,2.1-41.6,3.8-8.1,1-16.3,1.8-24.5,2.4-10.7.8-21.3,3.4-32,4.7-15.6,1.8-31,4.6-46.4,7.3-18.2,3.2-36.2,7-54.3,10.8-19.7,4.2-39.4,9-58.8,14.5-23.3,6.6-46.3,13.6-69,22.2-23.4,8.9-46.2,19-67.7,32-11,6.7-16.1,15.9-16,28.7,0,4.7,1.9,8.9,2.2,13.5.6,9.1,1.9,18.2,3.5,27.1,1.7,9.9,3,19.8,4.5,29.8,1.3,8.2,3,16.3,3.8,24.5.8,8.8,3.5,17.2,4.4,25.9.6,6.1.8,12.3,2.9,18.2.4,8.6.8,17.1,1.2,25.7,1.5,29.3-1.2,58.4-1.7,87.7-.1,8.1-.5,16.3-.7,24.4,0,2.3,0,4.1,3.2,2.3,12.9-6.9,25.9-13.3,40.1-17.3,8.6-2.4,16.9-5.7,25.5-8.1,22.6-6.5,45.4-11.9,68.3-17.5,15.7-3.8,31.6-7.1,47.4-10.3,15.2-3.1,30.5-5.8,45.7-8.6,10.4-1.9,20.9-3.6,31.3-5.4,9.8-1.7,19.9-2.7,29.6-4.5,11.6-2.2,23.2-3.3,34.8-5.3,12.6-2.2,25.3-3.2,37.9-5.2,13.3-2.1,26.9-3.1,40.2-3.4,17.8-.4,35.6-2.3,53.6-.9,15.3,1.1,30.6,1.9,46,2.5,4.7.2,9.4.6,14.1,1.5,5.6,1.1,11.3,1.5,17,2.3,8.8,1.1,17.5,2.2,26.3,3.5,6.7,1,13.3,2.9,20,3.4,4.6.3,9.2.7,13.7,1.4,16.7,2.6,33.4,5.9,50.1,8.7,20.3,3.5,40.6,7.4,60.8,11.8,18.4,4,36.8,7.9,55.1,12.3,23.9,5.7,47.8,11.4,71.1,19,13.1,4.2,26.4,8.2,38.6,14.7,4.4,2.3,8.6,5,13.6,7.5,0-2.2,0-3.8,0-5.4.2-15.9-1.3-31.7-1.8-47.5-.8-24.2-.1-48.5,0-72.8,0-3.9,0-7.9.2-11.8.2-7.3,4.3-14,2.4-21.5Zm-19.1,165c.2-1.1-.6-1.5-1.3-1.9-7.7-4.8-16.7-6.7-24.8-10.7-1.6-.8-2.1.1-2.5,1.3-.6,2-1.5,4.1-1.4,6.1,0,1.9-.5,4.3,3.7,4.2,8.6-.4,17.3.6,26.2,1.1Zm-819.9-13.7c-9.6,4.9-19.1,7.7-28,13.3,9.9.9,19-1.4,28.1-.9,1.5,0,1.8-.5,1.4-2.1-.7-3.2-1.8-6.3-1.5-10.3Z"/>
        <path class="cls-5" d="m1008,263.1c1.9,7.4-2.2,14.2-2.4,21.5-.1,3.9-.2,7.9-.2,11.8-.1,24.3-.8,48.6,0,72.8.5,15.8,2,31.6,1.8,47.5,0,1.6,0,3.2,0,5.4-5-2.6-9.2-5.2-13.6-7.5-12.2-6.5-25.5-10.5-38.6-14.7-23.4-7.5-47.3-13.3-71.1-19-18.3-4.3-36.7-8.3-55.1-12.3-20.2-4.4-40.4-8.3-60.8-11.8-16.7-2.9-33.3-6.1-50.1-8.7-4.5-.7-9.1-1.1-13.7-1.4-6.7-.5-13.3-2.4-20-3.4-8.7-1.3-17.5-2.3-26.3-3.5-5.7-.7-11.4-1.2-17-2.3-4.7-.9-9.4-1.3-14.1-1.5-15.3-.6-30.7-1.4-46-2.5-18-1.3-35.8.6-53.6.9-13.3.3-26.9,1.3-40.2,3.4-12.6,2-25.4,3-37.9,5.2-11.6,2-23.2,3.1-34.8,5.3-9.7,1.8-19.8,2.9-29.6,4.5-10.4,1.8-20.9,3.5-31.3,5.4-15.3,2.8-30.5,5.5-45.7,8.6-15.8,3.2-31.7,6.5-47.4,10.3-22.8,5.5-45.7,11-68.3,17.5-8.6,2.4-16.9,5.7-25.5,8.1-14.2,4-27.2,10.4-40.1,17.3-3.3,1.8-3.3,0-3.2-2.3.2-8.1.6-16.3.7-24.4.4-29.2,3.2-58.4,1.7-87.7-.4-8.6-.8-17.1-1.2-25.7,2.5-.5,1.7-2.5,1.8-4,.5-9.5-.7-18.9-2.3-28.1-3.3-18.4-3.6-37.1-6.7-55.5-.6-3.7.5-8.1-1.2-10.9-2.4-4.2-2.4-8.9-2.2-12.5.4-6-1.5-12,.2-18.1,1-3.6,1.8-7.9,1.3-11.4-.7-5.9,1.6-8.9,6-11.8,31.4-21.1,65.5-36.4,101-49,38.5-13.6,77.9-23.7,118-31.5,23.5-4.6,47.2-8.3,70.9-11.4,20-2.7,40.1-4.5,60.2-6,20-1.5,40-2.8,60.1-2.9,22.9-.2,45.8-.6,68.8.6,19.2,1,38.4,1.8,57.6,3.1,15.7,1,31.3,2.5,46.9,4.4,21.9,2.7,43.9,5.8,65.6,9.8,36.2,6.6,71.9,14.9,107,25.8,44.6,13.9,87.3,31.7,127.3,56,6,3.6,9.5,8,10.7,14.5,2.4,13.2.7,26.4-.4,39.6-.2,2.4.7,4.7-.2,7.3-2.6,7.8-3.9,16-4.8,24.2-1,8.7-2.7,17.3-3.2,26.1-.5,8.5.7,16.7,1.4,25Z"/>
        <path class="cls-5" d="m110.1,372.9c0,1.6-.2,3.3-.3,4.9-3.4,2.6-2.1,6.7-2.6,10-2.9,18-6.3,35.8-12.3,53.1-.8,2.4-2.2,4.2-4.9,5.1-20,6.3-39.1,14.7-58.3,23-2.8,1.2-4.9.7-7.2-1.2-2.5-2-3-5.5-6-7-.2-12.8,2-25.3,3.6-38,.8-6.6,1.4-13.3,2.1-20,1.4-13.7,2.1-27.4,3-41.2.5-7.2,1.1-14.5.8-21.8-.5-12.4-.6-24.9-2.7-37.3-.4-2.4,0-5,0-7.4,1.1-.2,1.8-.8,1.8-2,0-1.3,0-2.7,0-4,.9-19.2-1.8-38.3-1.9-57.4,0-4.8.4-9.9,4.4-13.2,6.1-5,12.3-10.1,19.7-13.3,15-6.5,30.1-12.8,45.7-17.9,1.5,9,3.1,17.9,4.5,26.9,1.6,9.8,4.2,19.3,4.8,29.3.6,8.9,2.8,17.6,4.1,26.4,1,6.4,2.1,12.9,2.6,19.4.6,8.1.5,16.2.9,24.3.8,18.8-.5,37.5-1,56.2-2.1.6-2.2,1.7-.7,3.1Z"/>
        <path class="cls-5" d="m1110.1,437.7c0,1.7,0,3.3,0,5-1.5,3-1.9,6.2-2,9.5,0,6.1-1.9,11.7-4.8,17-1.5,2.7-3.2,3.9-6.4,2.5-3.6-1.6-7.4-2.9-11.2-4.1-15.8-4.9-31.6-9.8-47.6-14.4-4.3-1.2-6.4-3.6-6.8-7.8-.4-3.3-.7-6.6-1.1-9.8-1.7-14.9-3-29.9-4.1-44.9-1.6-20.6-3.6-41.2-3.9-61.9,0-4.9-.7-9.9-1-14.8,0-1.1-.6-1.9-1.7-2.1-.3-12.7-.1-25.3,1.4-38,1.8-14.9,5.8-29.4,7.2-44.2,1.7-17.1,6.4-33.7,8.2-50.8.5-4.5,4.1-2.7,6.8-1.7.6,3.3,3.2,4.8,5.7,6.4,9.1,5.9,19,10.2,28.5,15.1,3.3,1.7,6.3,4.1,9.8,5.3,6.8,2.4,11.3,6.9,14.1,13.5,2.9,6.9,1.5,13.9.8,20.8-.5,5-1.1,10.1-1.4,15-.6,8.8-2.3,17.4-3.6,26-1.1,7.2-2.3,14.5-1.7,21.7.6,6.2.4,12.5,1.7,18.7,1.9,9,2,18.3,4.9,27.1.3,1.3-.3,2.9.9,4,.2,28.8,3.8,57.3,7.2,85.8,0,.3,0,.6,0,1Z"/>
        <path class="cls-3" d="m1008,263.1c-.7-8.3-1.9-16.6-1.4-25,.5-8.8,2.3-17.4,3.2-26.1.9-8.2,2.2-16.4,4.8-24.2.9-2.6,0-4.8.2-7.3,1.1-13.2,2.8-26.4.4-39.6-1.2-6.5-4.8-10.9-10.7-14.5-40-24.2-82.8-42.1-127.3-56-35.1-10.9-70.9-19.2-107-25.8-21.8-4-43.7-7.1-65.6-9.8-15.6-1.9-31.2-3.3-46.9-4.4-19.2-1.3-38.4-2.1-57.6-3.1-23-1.2-45.9-.8-68.8-.6-20,.2-40.1,1.4-60.1,2.9-20.1,1.5-40.2,3.4-60.2,6-23.7,3.2-47.4,6.8-70.9,11.4-40.1,7.8-79.5,17.9-118,31.5-35.5,12.6-69.6,27.9-101,49-4.4,2.9-6.7,5.9-6,11.8.4,3.5-.3,7.8-1.3,11.4-1.7,6.1.2,12.1-.2,18.1-.2,3.6-.3,8.4,2.2,12.5,1.7,2.9.6,7.2,1.2,10.9,3.1,18.4,3.4,37.1,6.7,55.5,1.6,9.2,2.9,18.7,2.3,28.1,0,1.5.6,3.5-1.8,4-2.1-5.9-2.3-12.2-2.9-18.2-.9-8.8-3.6-17.2-4.4-25.9-.8-8.2-2.5-16.3-3.8-24.5-1.5-9.9-2.8-19.9-4.5-29.8-1.5-8.9-2.9-18-3.5-27.1-.3-4.6-2.1-8.8-2.2-13.5-.2-12.8,4.9-22,16-28.7,21.5-13,44.3-23,67.7-32,22.6-8.6,45.7-15.7,69-22.2,19.4-5.5,39-10.3,58.8-14.5,18-3.8,36.1-7.7,54.3-10.8,15.4-2.7,30.8-5.5,46.4-7.3,10.7-1.3,21.2-3.9,32-4.7,8.2-.6,16.4-1.4,24.5-2.4,13.9-1.7,27.9-1.3,41.6-3.8.5,0,1,0,1.5,0,25.7-1.2,51.5-1.4,77.2-.9,16.5.3,32.9,1.6,49.4,3,15.5,1.3,31,2.9,46.4,5,17.4,2.3,34.8,4.7,52.2,7.6,21.7,3.7,43.4,7.6,65,12.1,28.9,6,57.5,13.2,85.9,21.6,27.1,8,53.7,17.4,79.8,28.1,16.9,7,32.9,15.7,47.9,26,6.5,4.4,10.4,18.1,8.8,26.9-1.7,9.4-2.8,19-3.7,28.6-.7,7.8-2,15.3-4,22.9-2.2,8.4-3.6,17.1-4.1,25.9-.5,9.3-2.7,18.3-4.3,27.4-.9,4.8-1.9,9.5-2.9,14.3Z"/>
        <path class="cls-1" d="m18.4,460.6c3,1.5,3.5,5,6,7,2.4,2,4.5,2.5,7.2,1.2,19.2-8.3,38.3-16.7,58.3-23,2.8-.9,4.1-2.7,4.9-5.1,6-17.2,9.4-35.1,12.3-53.1.5-3.3-.8-7.3,2.6-10,1.5,16.3-.4,32.7.3,49,.2,5.5,2.9,9.5,6.2,13.5,1.5,1.7,3.2,1.4,5,1.4,13.7.2,27.4,0,41-2,1.1-.2,2.2,0,4.8,0-6.1,4.5-12.2,5.4-17.8,6.8-26.8,7-53.9,13-80.1,22.1-18,6.2-35.4,13.8-52.5,22.2-.6.3-1.1.6-2.2,1.1.8-6.7,1.1-13.1,2.4-19.2.9-4-.9-8.4,1.7-12.1Z"/>
        <path class="cls-1" d="m1019.4,311.9c1.2.2,1.6,1,1.7,2.1.3,4.9.9,9.9,1,14.8.3,20.7,2.4,41.3,3.9,61.9,1.1,15,2.4,30,4.1,44.9.4,3.3.8,6.6,1.1,9.8.5,4.2,2.5,6.6,6.8,7.8,15.9,4.6,31.7,9.5,47.6,14.4,3.8,1.2,7.6,2.5,11.2,4.1,3.2,1.4,4.9.2,6.4-2.5,2.9-5.3,4.8-10.9,4.8-17,0-3.3.5-6.5,2-9.5,2.5,5.3,1.9,11.2,2.4,16.7.9,9.6,1.6,19.2,3.3,28.7.3,1.5,1.2,3.3,0,4.2-1.4,1.1-2.5-.7-3.7-1.5-8.8-5.4-18.3-9.4-27.8-13.5-15.3-6.5-31.1-11.2-47-15.9-18.9-5.6-38.1-9.8-57-15-5.6-1.6-11.1-3.4-16.4-6.3,8.3,1.5,16.6,0,24.8,1,7.5,1,15,.9,22.5.5,4.7-.2,6.9-4.5,8-8.6,1.4-5.1,2.1-10.3,2-15.6-.2-11-.2-21.9-.9-32.9-1.4-22.9-1.3-45.7-1-68.6,0-1.3.2-2.6.3-3.9Z"/>
        <path class="cls-3" d="m1102,346.9c-3-8.8-3.1-18.1-4.9-27.1-1.3-6.2-1.1-12.5-1.7-18.7-.7-7.2.5-14.5,1.7-21.7,1.4-8.6,3.1-17.2,3.6-26,.3-4.9.9-10,1.4-15,.7-6.9,2.1-13.9-.8-20.8-2.8-6.6-7.3-11.1-14.1-13.5-3.5-1.2-6.5-3.6-9.8-5.3-9.6-4.9-19.5-9.2-28.5-15.1-2.5-1.6-5.1-3.1-5.7-6.4,6.9.5,12.6,4.3,18.8,6.7,8.5,3.3,16.8,7.3,24.9,11.4,9.4,4.8,18.6,10.1,26.9,16.7,1.9,1.5,2.2,2.9,2.4,4.9.6,8.8-1.9,17.2-3.2,25.8-1.8,12.2-4.4,24.3-5.9,36.6-1.4,10.9-1.8,21.8-3.6,32.7-1.5,9.8-.5,20-.6,30,0,1.3,0,2.7,0,4-.3.3-.5.7-.8,1Z"/>
        <path class="cls-3" d="m94.9,187.3c-15.6,5-30.6,11.4-45.7,17.9-7.4,3.2-13.5,8.3-19.7,13.3-4,3.3-4.4,8.5-4.4,13.2.1,19.2,2.8,38.2,1.9,57.4,0,1.3,0,2.7,0,4,0,1.2-.7,1.8-1.8,2-2.6-5-1-10.6-2-15.9-2.5-13.4-4.1-26.9-6.7-40.3-1.4-7-3.1-14.1-2.5-21.4.2-2.7,1-4.4,3.2-6.1,13.4-10.6,28.5-17.8,44.1-24.4,8.4-3.5,16.5-7.6,25.4-10,5.7-1.6,7-.8,7.2,5.1,0,1.9,1.2,3.4,1,5.2Z"/>
        <path class="cls-1" d="m988.9,428.1c-8.9-.4-17.6-1.4-26.2-1.1-4.3.2-3.7-2.2-3.7-4.2,0-2,.8-4.1,1.4-6.1.3-1.1.9-2,2.5-1.3,8.1,4,17.1,5.9,24.8,10.7.7.4,1.5.8,1.3,1.9Z"/>
        <path class="cls-1" d="m168.9,414.4c-.3,4.1.9,7.2,1.5,10.3.3,1.7.1,2.2-1.4,2.1-9.1-.6-18.2,1.8-28.1.9,8.9-5.6,18.5-8.4,28-13.3Z"/>
      </g>
      <g>
        <g>
          <path class="cls-2" d="m388,175.9c-9.8,0-13.8-4.3-15.5-8.1-1.1-2.2-1.7-5-2.1-8.9l-6.3-72c-.2-2.4-.3-4.1-.2-5.5.1-2,.7-4,1.8-6.2,3.4-7.3,13.5-8.1,16.8-8.4,1.2,0,2.4-.1,3.5-.1,10,0,14.1,4.3,15.9,7.9v.2c0,0,.2.2.2.2.9,2.2,1.5,5,1.8,8.8l4.3,57.3c10.5-.8,21.1-1.4,31.6-2,.9,0,1.7,0,2.5,0,3,0,5.4.4,7.3,1.1,3.3,1.3,5.6,3.6,6.9,6.8.8,2.1,1.3,4.6,1.5,7.7.2,3.1,0,5.6-.7,7.8-1.1,4.1-3.7,6.2-5.6,7.2-2.7,1.5-6,2.3-10.2,2.5-15.9.9-32.3,2-50.2,3.5-1.1,0-2.2.1-3.2.1Z"/>
          <path class="cls-6" d="m386,73.7c5.1,0,8.3,1.3,9.6,4,.6,1.4,1,3.7,1.2,6.7,1.6,21.4,3.2,42.9,4.9,64.3,12.8-1,25.6-1.8,38.4-2.6.7,0,1.4,0,2.1,0,2.1,0,3.7.2,4.8.7,1.4.6,2.4,1.5,3,2.9.5,1.4.9,3.2,1,5.5.1,2.3,0,4.1-.4,5.6-.4,1.4-1.1,2.4-2.2,3-1.7,1-4.1,1.5-7.2,1.7-16.8,1-33.6,2.1-50.4,3.5-.9,0-1.8.1-2.7.1-5,0-8-1.3-9.2-4.1-.7-1.3-1.2-3.5-1.4-6.5-2.1-24-4.2-48-6.3-72-.2-2-.2-3.5-.2-4.5,0-1,.4-2.2,1.1-3.6,1.2-2.4,4.9-3.9,11.1-4.5,1,0,2-.1,2.9-.1m0-14h0c-1.3,0-2.6,0-4,.2-4.3.3-17.3,1.4-22.6,12.3-1.5,3-2.3,5.9-2.5,8.8-.1,1.7,0,3.8.2,6.5l6.3,72c.4,4.8,1.3,8.4,2.7,11.3,2.2,4.7,7.8,12,21.9,12s2.5,0,3.8-.2c17.9-1.4,34.3-2.6,50.1-3.5,5.2-.3,9.5-1.4,13.1-3.4,4.4-2.4,7.6-6.5,9-11.5.8-2.9,1.1-6.2.9-10.1-.2-3.9-.9-7.1-2-9.9-2-4.9-5.8-8.7-10.8-10.7-2.8-1.1-6-1.6-9.9-1.6s-1.9,0-2.9,0c-8.2.5-16.5,1-24.7,1.6l-1.2-16.2-2.6-34.2c-.3-4.6-1.1-8.1-2.3-11l-.2-.4-.2-.4c-2.2-4.4-7.9-11.8-22.2-11.8h0Z"/>
        </g>
        <g>
          <path class="cls-2" d="m495.1,171.6c-7,0-13.4-1-19.1-3.1-6.5-2.4-11.8-5.8-15.7-10.1-7-7.5-11-16.7-11.8-27.2-.9-11,4.7-25.3,12.7-32.5,8-7.2,22.1-12.5,33.6-12.7.3,0,.7,0,1,0,14.9,0,27.2,5.2,34.5,14.8,4.3,5.7,6.5,12,6.6,18.8.1,7.4-2,13.2-6.4,17.2-.8.8-1.7,1.4-2.5,2,1,1.1,2,2.5,2.9,4.1v.2c2.1,3.7,3,6.9,2.9,9.7-1.1,17.9-26.8,18.6-36.4,18.9-.7,0-1.4,0-2.1,0Zm5.1-54.5h0Z"/>
          <path class="cls-6" d="m495.7,92.9c10.5,0,22.1,3.1,28.9,12,3.3,4.4,5,9.3,5.1,14.7,0,5.3-1.3,9.3-4.2,11.9-2.8,2.6-6,3.9-9.5,4-11.2.3-22.4.6-33.7,1,0,2.4,1.7,4.4,4.9,5.9,3,1.4,5.9,2.2,8.9,2.2s.4,0,.6,0c5.5-.2,9.7-.8,12.8-1.9.6-.2.9-.3,1.5-.6,2.2-1,4.1-1.5,5.6-1.6,0,0,.1,0,.2,0,3,0,5.5,1.9,7.7,5.7,1.3,2.3,2,4.4,1.9,5.9-.7,11.3-20.5,12-29.7,12.3-.6,0-1.3,0-1.9,0-6.1,0-11.7-.9-16.7-2.7-5.5-2-9.8-4.7-13-8.2-6.2-6.7-9.4-14.7-10-23.1-.7-8.8,3.9-20.8,10.4-26.7,7-6.3,19.7-10.8,29-10.9.3,0,.6,0,.9,0m-14,31.8c7.2-.3,10.8-.4,18-.6,3.6-.1,5.4-1.5,5.3-4.3,0-2-.9-3.6-2.6-4.7-1.6-1.1-3.8-1.6-6.5-1.6s-.5,0-.7,0c-3.1,0-6.2,1.3-9.1,3.8-3,2.4-4.4,4.9-4.3,7.5m14-45.8h0c-.4,0-.7,0-1.1,0-13.2.2-28.9,6.2-38.2,14.5-9.8,8.8-16.1,24.9-15,38.3,1,11.9,5.7,22.7,13.7,31.4,4.7,5.1,10.9,9.2,18.5,11.9,6.4,2.3,13.6,3.5,21.5,3.5s1.5,0,2.3,0c4.6-.1,13.2-.4,21.2-2.5,18.9-5,21.7-17.7,22.1-23,.3-4.1-.9-8.5-3.5-13.3,3.5-4,6.9-10.5,6.7-20.4-.1-8.3-2.8-16-7.9-22.9h0c0,0,0-.1,0-.1-8.6-11.3-22.9-17.5-40-17.5h0Z"/>
        </g>
        <g>
          <path class="cls-2" d="m578.8,169.5c-3.1,0-6.1-.7-8.8-2.1-2.7-1.4-4.7-2.8-6.1-4.6l-1.5-1.7-.3-.5c-9.7-15.3-19.7-30.8-29.7-46-2.8-4.1-4.1-7.5-4.2-10.8,0-4.1,1.8-10,11.1-15,4.7-2.5,8.6-3.7,12-3.8h.1c4.9,0,8.1,2,9.8,3.7,1.7,1.6,3.3,3.9,5,6.8,4.3,7.3,8.5,14.8,12.7,22.2,4.3-7.4,8.7-14.7,13-22h0c0-.1,0-.3,0-.3,1.2-1.7,2-3,2.7-3.8,1.1-1.5,2.6-2.8,4.5-4,2.2-1.4,4.9-2,8-2h.4c3.2,0,6.8,1.3,11.2,3.8,7.3,4.2,11,9.2,10.8,15,0,3.1-1.4,6.6-4.2,10.8-10.2,15.1-20.4,30.4-30.3,45.5-1.6,2.4-3.9,4.5-7,6.2-3.1,1.7-6.3,2.6-9.4,2.6h-.1Z"/>
          <path class="cls-6" d="m551.4,92c2.1,0,3.7.6,4.9,1.7,1.2,1.2,2.5,2.9,3.8,5.3,6.3,10.9,12.5,21.8,18.7,32.8,6.3-10.9,12.7-21.7,19.2-32.5,1.1-1.6,1.9-2.8,2.4-3.5.5-.7,1.4-1.4,2.6-2.2,1.1-.7,2.6-1,4.4-1,0,0,.2,0,.3,0,1.9,0,4.6,1,7.9,2.9,4.9,2.8,7.4,5.7,7.3,8.8,0,1.7-1.1,4.1-3.1,7.1-10.2,15.1-20.3,30.3-30.3,45.6-1,1.5-2.5,2.8-4.5,3.9-2,1.1-4.1,1.7-6,1.7s0,0,0,0c-2,0-3.9-.5-5.7-1.4-1.8-.9-3.1-1.9-3.9-2.8-.5-.6-.8-.9-1.3-1.4-9.8-15.5-19.7-30.8-29.8-46.1-1.9-2.8-2.9-5.2-3-7,0-3.1,2.4-6.1,7.4-8.8,3.6-1.9,6.5-2.9,8.7-2.9,0,0,0,0,0,0m0-14h-.1c-4.6,0-9.6,1.5-15.3,4.6-13,7-14.8,16.3-14.8,21.3,0,4.7,1.8,9.4,5.3,14.6,10,15.1,19.9,30.6,29.6,45.8l.6.9.7.8,1.1,1.2c2,2.4,4.7,4.5,8.2,6.3,3.8,1.9,7.8,2.9,12,2.9h.2c4.4,0,8.7-1.2,12.8-3.5,4.1-2.3,7.3-5.1,9.5-8.5,9.9-15.1,20-30.4,30.2-45.4h0s0,0,0,0c3.6-5.4,5.3-9.9,5.4-14.5.2-5.9-2.2-14.4-14.4-21.3-5.5-3.1-10.1-4.6-14.5-4.7-.2,0-.4,0-.6,0-4.4,0-8.3,1-11.7,3.1-2.7,1.7-4.9,3.6-6.5,5.7-.7.9-1.6,2.3-2.9,4.1l-.2.3-.2.3c-2.3,3.9-4.6,7.8-6.9,11.7-2.3-3.9-4.5-7.9-6.8-11.8-2-3.5-4.1-6.2-6.2-8.3-2.7-2.6-7.4-5.7-14.7-5.7h0Z"/>
        </g>
        <g>
          <path class="cls-2" d="m674.2,173.3c-3,0-5.6-.1-7.9-.2-7.8-.4-14.8-2-20.8-4.8-6.3-2.9-11.3-6.7-14.9-11.3-6.4-8.1-9.6-17.5-9.6-28.1,0-11,6.7-24.8,15.3-31.4,7.8-5.9,20.9-10.1,31.9-10.1s1.7,0,2.6,0c15.1,1,27.6,7.4,34.2,17.5,3.8,6,5.5,12.5,5,19.3-.5,7.4-3.1,13-7.8,16.6-.9.7-1.8,1.3-2.7,1.8.9,1.2,1.8,2.6,2.6,4.3v.2c1.8,3.9,2.5,7.1,2.1,9.9-1.5,10.7-11.6,16.1-29.9,16.1Z"/>
          <path class="cls-6" d="m668.1,94.4c.7,0,1.4,0,2.1,0,10.8.7,22.5,4.7,28.7,14.4,3,4.7,4.3,9.7,3.9,15-.3,5.3-2,9.2-5.1,11.5-2.8,2.2-5.8,3.3-9,3.3s-.5,0-.8,0c-11.2-.6-22.4-1.2-33.6-1.7-.1,2.4,1.4,4.5,4.4,6.3,3,1.8,6.1,2.8,9.2,2.9,1.3,0,2.5,0,3.7,0,3.7,0,6.8-.3,9.2-1,.6-.2,1-.3,1.6-.4,2.1-.7,3.9-1.1,5.3-1.1s.3,0,.5,0c3,.2,5.5,2.3,7.4,6.3,1.1,2.4,1.7,4.6,1.5,6.1-1.2,8.7-13.3,10.1-23,10.1s-5.5-.1-7.6-.2c-6.9-.4-13-1.7-18.3-4.1-5.3-2.4-9.4-5.5-12.3-9.2-5.7-7.2-8.2-15.4-8.2-23.8,0-8.8,5.5-20.5,12.5-25.8,6.9-5.3,18.6-8.6,27.7-8.6m5.1,31.6c3.2,0,4.8-1.3,5-3.9.1-2-.6-3.6-2.3-4.9-1.6-1.3-4-2-7.1-2.2-.2,0-.4,0-.6,0-2.9,0-5.8,1-8.8,3-3.2,2.2-4.8,4.5-4.9,7.1,7.2.3,10.8.5,18,.8.2,0,.4,0,.7,0m-5.1-45.6h0c-12.6,0-27.1,4.6-36.2,11.5-10.5,8-18.1,23.5-18.1,37,0,11.9,3.9,23.1,11.1,32.4,4.3,5.5,10.1,10,17.5,13.4,6.8,3.1,14.7,4.9,23.4,5.4,2.4.1,5.1.3,8.3.3,7.7,0,13.9-.8,19-2.5,10-3.3,16.5-10.5,17.8-19.6.6-4.1-.2-8.5-2.4-13.6,3.8-3.7,7.7-9.9,8.3-19.8.5-8.3-1.5-16.2-6.1-23.4h0c0,0,0-.1,0-.1-7.8-12.1-22.2-19.6-39.6-20.7-1,0-2,0-3,0h0Z"/>
        </g>
        <g>
          <path class="cls-2" d="m743.8,176.5c-3.6,0-8-.5-13.7-1.7-9.3-1.8-15.4-5.6-18.4-11.3-2.9-5.7-4-13.6-3.3-24.2l4.4-61.7c.2-2.4.4-4.1.7-5.5.4-1.8,1.2-3.6,2.4-5.5h0c0-.1,0-.3,0-.3,4-5.8,11.8-5.8,14.4-5.8s2.3,0,3.6.1c3.2.2,12.8,1,16.5,8.1h0c1.1,2.4,1.7,4.4,1.8,6.4,0,1.4,0,3.2-.2,5.5,0,0-5,60.1-5,60.2,1.2.2,2.1.3,2.8.5,1.5.4,3,1.2,4.6,2.4,5.8,4.3,5,12.8,4.8,15.7-.5,5.1-1.7,12.3-7.4,15.3-2.2,1.1-4.8,1.7-8.3,1.7Z"/>
          <path class="cls-6" d="m730.5,67.5c.9,0,2,0,3.1.1,6,.5,9.6,1.9,10.9,4.4.7,1.4,1,2.6,1.1,3.6,0,1,0,2.6-.2,4.6-1.7,20-3.3,40-5,60-.3,3.1-.1,5.1.4,6,.5.9,1.7,1.4,3.6,1.5,1.9.2,3.2.3,3.9.5.6.2,1.4.6,2.3,1.3,1.8,1.3,2.5,4.4,2,9.4-.5,5.4-1.7,8.7-3.7,9.7-1.1.6-2.8.9-5.1.9s-7.2-.5-12.3-1.5c-7.1-1.4-11.6-4-13.5-7.7-2.3-4.4-3.2-11.3-2.5-20.5,1.5-20.6,2.9-41.1,4.4-61.7.1-2,.3-3.5.5-4.5.2-1,.7-2.1,1.5-3.3,1.3-1.8,4.1-2.8,8.6-2.8m0-14v14-14h0c-9.4,0-16.1,3-20.2,8.9l-.2.3-.2.3c-1.6,2.6-2.7,5.2-3.3,7.7-.4,1.7-.6,3.7-.8,6.5l-2.2,30.9-2.2,30.9c-.8,11.9.5,21.1,4,27.9,4,7.7,11.8,12.7,23.2,15,6.1,1.2,11.1,1.8,15.1,1.8s8.4-.8,11.6-2.5c9.7-5.1,10.8-17,11.1-20.9.9-10.1-1.6-17.5-7.5-21.9-1.4-1.1-2.8-1.9-4.2-2.6l2.8-33.4,1.7-21.1c.2-2.7.3-4.8.2-6.5-.2-2.9-1-6-2.5-9h0c0-.1,0-.2,0-.2-3.7-7-11.1-11-22.2-11.9-1.4-.1-2.8-.2-4.1-.2h0Z"/>
        </g>
        <g>
          <path class="cls-2" d="m293.2,307.9c-2.2,0-4.5-.1-6.8-.4-5-.5-10.2-1.9-15.7-4-5.5-2.1-10.6-4.9-15.3-8.4-4.9-3.6-9.2-8.5-12.9-14.6-3.7-6.1-6.2-13-7.4-20.5-1.2-7.6-.9-14.9.8-21.6,1.7-6.7,4.5-12.5,8.2-17.4,3.5-4.6,7.8-8.7,12.7-12.2,8-6.1,19.6-10.8,29.4-12,2.3-.3,4.6-.4,6.9-.4s5.6.2,8.3.6c5.2.8,9.2,1.8,12.2,3l3.6,1.4c1.9.8,3.4,1.5,4.5,2h.2c0,.1.2.2.2.2,5.7,3.4,7.3,7.8,7.7,10.9.4,3.8-.6,7.8-3,11.9-4.2,7.1-8.7,10.9-13.9,11.5-.5,0-1,0-1.5,0-3,0-6.4-1-9.9-2.8-2.4-1.2-5.2-1.9-8.4-1.9s-2.2,0-3.3.2c-4.5.6-8.7,2.7-12.8,6.4-1.5,1.4-2.8,3.5-3.7,6.1-.9,2.6-1.1,5.5-.7,8.7.5,3.2,1.5,5.9,3.1,8.2,1.6,2.3,3.5,3.9,5.5,5,3.7,1.9,7.3,2.8,10.8,2.8h0c.9,0,1.8,0,2.7-.2,2.1-.3,4.1-.8,5.8-1.6,2.2-.9,3-1.5,3.2-1.6l2.3-2.1.3-.2c4-3,6.8-4.4,9.4-4.7.5,0,1,0,1.4,0,4.9,0,9.6,2.8,14.6,8.7,3.3,4,5,7.3,5.4,10.6.4,3.6-.5,7-2.7,9.8-1.4,1.8-3.1,3.5-5,5l-4.2,3.3c-1.8,1.4-4.9,3-9.9,5.3-4.9,2.2-9.8,3.7-14.6,4.3-2.5.3-5.1.5-7.7.5Z"/>
          <path class="cls-6" d="m293.2,203.5c2.4,0,4.8.2,7.3.5,4.6.7,8.1,1.5,10.6,2.6,1.4.6,2.1.8,3.5,1.4,1.8.8,3.1,1.4,4.1,1.9,2.6,1.5,4,3.4,4.3,5.7.3,2.3-.4,4.8-2,7.5-3,5.1-5.9,7.8-8.7,8.1-.2,0-.4,0-.7,0-1.6,0-4-.6-6.6-2-3.2-1.7-7.1-2.7-11.6-2.7-1.3,0-2.8,0-4.2.3-5.9.8-11.5,3.5-16.6,8.2-2.4,2.3-4.3,5.3-5.6,8.9-1.3,3.7-1.6,7.7-1,12,.6,4.3,2.1,8.1,4.4,11.3,2.3,3.2,4.9,5.5,8,7.1,4.7,2.4,9.4,3.6,14.1,3.6s2.4,0,3.6-.2c2.7-.4,5.3-1,7.6-2.1,2.3-1,4-1.9,5-2.7.9-.8,1.3-1.2,2.2-2,2.8-2.1,4.8-3.2,6.1-3.4.2,0,.4,0,.6,0,2.6,0,5.7,2.1,9.2,6.2,2.3,2.8,3.6,5.1,3.8,6.9.2,1.8-.2,3.4-1.3,4.7-1.1,1.3-2.3,2.6-3.8,3.7-1.5,1.1-2.9,2.2-4.2,3.3-1.3,1-4.2,2.5-8.5,4.5-4.3,1.9-8.5,3.2-12.7,3.7-2.2.3-4.5.4-6.8.4s-4-.1-6.1-.3c-4.4-.5-9-1.7-13.9-3.5-4.9-1.9-9.4-4.3-13.6-7.4-4.2-3.1-7.9-7.3-11.1-12.6-3.2-5.3-5.4-11.3-6.5-18-1.1-6.7-.9-12.9.6-18.7,1.5-5.8,3.8-10.8,7-14.9,3.1-4.1,6.9-7.7,11.3-10.8,7-5.4,17.4-9.7,26.1-10.7,2-.2,4-.4,6.1-.4m0-14c-2.6,0-5.2.2-7.8.5-11.1,1.3-23.6,6.4-32.7,13.3-5.5,3.9-10.2,8.4-14.2,13.6-4.3,5.6-7.4,12.3-9.4,19.9-2,7.6-2.3,15.8-.9,24.4,1.3,8.4,4.1,16.2,8.3,23.1,4.2,6.8,9.1,12.4,14.7,16.6,5.2,3.8,10.9,7,16.9,9.3,6,2.3,11.9,3.8,17.4,4.4,2.5.3,5.1.4,7.6.4s5.8-.2,8.6-.6c5.5-.7,11.1-2.4,16.6-4.9,5.6-2.5,9-4.4,11.3-6.1,1.3-1,2.8-2.1,4.2-3.3,2.4-1.8,4.5-3.9,6.3-6.2,3.3-4.2,4.8-9.5,4.1-15-.5-4.7-2.7-9.2-6.9-14.2h0c0,0,0-.1,0-.1-2.3-2.8-9.4-11.1-19.9-11.1-.8,0-1.5,0-2.3.1-3.9.5-7.7,2.3-12.8,6.1l-.5.4-.5.4-1.6,1.4c-.3.1-.8.4-1.7.8-1.2.5-2.5.9-4,1.1-.6,0-1.2.1-1.8.1-2.4,0-4.9-.7-7.6-2-1.1-.6-2-1.5-3-2.9-1-1.3-1.6-3-1.9-5.1-.3-2.1-.2-3.8.3-5.3.5-1.5,1.2-2.6,1.9-3.3,3-2.7,5.9-4.2,9-4.6.8-.1,1.6-.2,2.4-.2,2.5,0,4.2.6,5.1,1.1,4.5,2.4,9.1,3.6,13.2,3.6s1.6,0,2.3-.1c11-1.3,17.1-11.5,19-14.9,3.2-5.4,4.5-10.9,3.9-16.3-.8-6.7-4.7-12.4-11.1-16.2l-.4-.2-.4-.2c-1.3-.6-2.9-1.4-4.9-2.2h-.1c0,0-.1-.1-.1-.1-1.4-.6-2.1-.8-3.5-1.4-3.6-1.5-8.1-2.6-13.8-3.4-3.1-.5-6.2-.7-9.3-.7h0Z"/>
        </g>
        <g>
          <path class="cls-2" d="m375.8,298.6c-5.5,0-11.1-1.1-16.5-3.2-6.8-2.7-12.8-7-17.9-12.9-5-5.8-8.1-13.1-9.3-21.5-1.5-10.5,3-24.5,10.4-32.5,7-7.6,19.7-14,29.6-14.9,1,0,2-.1,3.1-.1,9.6,0,21.4,3.8,28.7,9.3,8.6,6.5,15.5,19.4,16,30,.4,8.8-1.4,16.7-5.2,23.4-4,6.9-9.1,12.2-15.4,15.9-6.1,3.6-12.6,5.8-19.4,6.4-1.3.1-2.7.2-4,.2Zm.3-48.4c-.2,0-.5,0-.7,0-1.7.2-3.1.9-4.6,2.2-.4.4-1.4,1.3-1.1,4.1.3,2.8,1.3,3.4,1.9,3.7,1.5.9,3,1.4,4.2,1.4s.3,0,.5,0c1.4-.1,2.9-.9,4.5-2.3.8-.7,1.4-1.6,1.2-4.1-.2-2.8-1.3-3.5-1.7-3.7-1.4-.9-2.8-1.3-4.3-1.3Z"/>
          <path class="cls-6" d="m375.2,220.4c8.1,0,18.4,3.3,24.5,7.9,6.8,5.1,12.8,16.1,13.2,24.7.3,7-.9,13.7-4.3,19.6-3.4,5.9-7.7,10.3-12.9,13.4-5.2,3.1-10.7,4.9-16.5,5.4-1.1.1-2.2.2-3.3.2-4.7,0-9.3-.9-14-2.7-5.7-2.3-10.8-5.9-15.1-11-4.4-5.1-6.8-11.3-7.7-17.9-1.2-8.6,2.8-20.5,8.6-26.8,5.7-6.2,16.7-11.9,25.1-12.7.8,0,1.6-.1,2.4-.1m.6,48.3c.4,0,.8,0,1.1,0,2.9-.3,5.8-1.6,8.5-4,2.7-2.4,4-5.7,3.6-10-.4-4.2-2-7.3-5-9.1-2.6-1.6-5.2-2.4-8-2.4s-.9,0-1.4,0c-3.2.3-6.2,1.7-8.7,4.1-2.6,2.4-3.7,5.7-3.2,9.9.4,4.2,2.2,7.2,5.2,9,2.7,1.6,5.3,2.4,7.8,2.4m-.6-62.3h0c-1.3,0-2.5,0-3.7.2-11.6,1.1-26,8.3-34.1,17.1-8.8,9.5-13.9,25.6-12.1,38.2,1.4,9.8,5.1,18.3,10.9,25.1,5.8,6.8,12.8,11.8,20.6,14.9,6.3,2.5,12.7,3.7,19.1,3.7s3.1,0,4.6-.2c7.9-.7,15.4-3.2,22.3-7.3,7.3-4.3,13.3-10.5,17.8-18.5,4.5-7.9,6.6-17,6.2-27.2-.6-12.7-8.5-27.6-18.8-35.3-8.5-6.4-21.7-10.7-32.9-10.7h0Z"/>
        </g>
        <g>
          <path class="cls-2" d="m437.3,292.7c-6.9,0-11.7-2.1-14.2-6.2v-.2c-1.2-1.9-1.9-3.6-2.3-5.3-.3-1.3-.5-3-.6-5.5l-3.1-45.7c-.2-2.4-.2-4.1,0-5.4.1-2,.7-4,1.8-6.1,2.4-4.7,7.5-7.4,15.3-7.9,1,0,2,0,3,0,5.2,0,9.1,1.1,11.8,3.2,4.6-3.5,9.3-4.6,13.1-4.8.6,0,1.3,0,1.9,0,7.7,0,14.3,2.3,19.6,6.8,1.7-1.5,3.8-3,6.5-4.6,4.1-2.4,8.4-3.7,12.8-3.8.4,0,.7,0,1,0,8.8,0,16.7,3.4,22.7,9.7,7.3,7.7,10.2,21.2,9.7,31.2l.4,22.5c0,2.4,0,4.1-.2,5.4-.2,1.8-.8,3.7-1.9,5.8-3.6,7.3-13.1,7.5-16.2,7.6-.3,0-.7,0-1,0-7.8,0-13.1-2.4-15.6-7v-.2c-1.1-2-1.7-3.7-2-5.5-.2-1.3-.3-3-.4-5.4l-.6-22.7c0-2.8-.6-3.9-.8-4.2,0,0-.3,0-.5,0h-.2c-.2,0-.4,0-.6,0-.2.7-.5,2.1-.4,4.4l.8,22.7c0,2.5,0,4.2,0,5.5-.2,1.8-.8,3.7-1.8,5.8-3.5,7.3-13,7.7-16.2,7.8-.6,0-1.2,0-1.8,0-7.4,0-12.4-2.3-15-6.7v-.2c-1.1-1.9-1.8-3.7-2.1-5.4-.2-1.3-.4-3.1-.5-5.4l-1.1-22.7c-.1-2.8-.7-3.9-.9-4.2,0,0-.2,0-.5,0s-.2,0-.2,0c-.2,0-.4,0-.5,0-.2.4-.6,1.6-.4,4.3l1.3,23c.1,2.4.1,4.1,0,5.4-.1,1.9-.7,3.8-1.7,6v.2c-3.7,7-13,7.6-16,7.8-.9,0-1.7,0-2.5,0Z"/>
          <path class="cls-6" d="m503.8,214c6.9,0,12.9,2.5,17.7,7.6,5.9,6.2,8.2,18.1,7.8,26.3.2,9.1.2,13.6.4,22.7,0,2,0,3.5-.1,4.5-.1,1-.5,2.2-1.2,3.5-1.1,2.4-4.5,3.6-10.1,3.7-.3,0-.6,0-.8,0-5.1,0-8.2-1.1-9.5-3.4-.7-1.3-1.1-2.4-1.2-3.4-.2-1-.3-2.5-.3-4.5-.3-9.1-.4-13.6-.6-22.7-.2-7.4-3-11.1-8.3-11.1-.1,0-.3,0-.4,0-3.2.1-5.3,1.2-6.3,3.2-1.1,2-1.5,4.9-1.4,8.5.3,9.1.5,13.6.8,22.7,0,2.1,0,3.6,0,4.6,0,1-.5,2.1-1.1,3.4-1.2,2.4-4.5,3.7-10.2,3.9-.5,0-1,0-1.5,0-4.7,0-7.7-1.1-8.9-3.2-.7-1.3-1.1-2.4-1.3-3.4-.2-1-.3-2.5-.4-4.5-.4-9.1-.7-13.6-1.1-22.7-.3-7.3-3.1-10.9-8.3-10.9-.2,0-.4,0-.6,0-5.4.3-7.9,4.2-7.5,11.7.5,9.2.8,13.8,1.3,23,.1,2,.1,3.5,0,4.5,0,1-.4,2.2-1.1,3.5-1.2,2.3-4.6,3.6-10.1,4-.7,0-1.4,0-2.1,0-4.3,0-7.1-1-8.3-2.9-.7-1.3-1.2-2.4-1.4-3.3-.2-.9-.4-2.5-.5-4.5-1-15.2-2.1-30.4-3.1-45.7-.1-2-.2-3.5,0-4.5,0-1,.4-2.1,1.1-3.4,1.2-2.4,4.4-3.8,9.5-4.1.9,0,1.7,0,2.5,0,3.7,0,6.2.6,7.6,1.8,1.6,1.5,2.5,3.7,2.7,6.6,3.9-6.4,8.9-9.7,14.9-10,.5,0,1.1,0,1.6,0,8.5,0,15.1,3.5,19.6,10.4.9-1.3,2.1-2.7,3.5-4.2,1.4-1.5,3.6-3.1,6.6-4.9,3-1.8,6.2-2.7,9.5-2.8.3,0,.6,0,.8,0m0-14c-.4,0-.8,0-1.2,0-5.7.2-11.1,1.8-16.2,4.8-1.1.6-2.1,1.3-3.1,1.9-5.6-3.4-12.2-5.1-19.5-5.1s-1.5,0-2.3,0c-3.8.2-8.3,1.1-13,3.6-3.2-1.4-7.1-2-11.6-2s-2.2,0-3.4.1c-12.9.8-18.6,6.8-21.1,11.8-1.5,2.9-2.4,5.9-2.6,8.8-.1,1.7,0,3.7,0,6.4l1.9,27.4,1.2,18.3c.2,2.8.4,4.8.8,6.4.5,2.4,1.4,4.8,2.9,7.3v.3c.1,0,.3.2.3.2,2.7,4.4,8.4,9.6,20.2,9.6s2,0,3,0c8.8-.5,15.3-3.2,19.3-8,3.4,3.3,8.9,6,17.7,6s1.4,0,2.1,0c8.8-.4,15.4-2.9,19.5-7.6,3.5,3.5,9.2,6.4,18.5,6.4s.7,0,1.1,0c11.2-.3,18.7-4.1,22.3-11.5,1.4-2.8,2.3-5.4,2.6-8.1.2-1.6.3-3.7.2-6.3l-.4-22.3c.4-10.7-2.4-26.4-11.7-36.1-7.4-7.8-17-11.9-27.8-11.9h0Z"/>
        </g>
        <g>
          <path class="cls-2" d="m555.8,318.5c-3.4,0-6.1-.4-8.4-1.1-4.2-1.3-6.4-3.9-7.4-5.9-1.1-2-1.7-3.8-2-5.6-.2-1.3-.3-3-.3-5.4l-.7-75.9c0-2.4,0-4.1.2-5.4.2-1.8.8-3.6,1.8-5.5h0c2.6-4.9,7.7-7.3,15.3-7.4h.3c6.3,0,10.6.9,13.5,3,.2.2.4.3.7.5,3.5-1.9,8.2-3.3,14.3-3.3h.4c9.4,0,18.1,4.3,25.9,12.5,7.8,8.1,11.6,17.7,11.3,28.5-.3,10.6-4.4,20-12.3,27.8-7.8,7.8-16.4,11.7-25.4,11.7h-.3c-3.2,0-6.1-.4-8.7-1.1v14.3c0,2.4-.1,4.1-.3,5.4-.2,1.8-.9,3.6-1.9,5.6-1.5,2.9-4,5-7.3,6.1-2.3.8-5.1,1.1-8.6,1.2h-.2Zm23.3-75.7c-1.8,0-2.5.5-3,1.1-1.2,1.3-1.3,2.3-1.3,3,0,.7.1,1.6,1.3,2.9.6.7,1.4,1.2,2.9,1.2h0c1.4,0,2.5-.4,3.4-1.3,1.2-1.2,1.4-2,1.4-2.7,0-.7-.1-1.7-1.3-2.9-.6-.6-1.4-1.2-3.3-1.3h0Z"/>
          <path class="cls-6" d="m554.6,213.3c4.7,0,7.9.6,9.5,1.7,1.7,1.2,2.7,2.9,2.9,5.1,3.4-4.4,8.8-6.7,16-6.7s.2,0,.3,0c7.4,0,14.5,3.5,20.9,10.3,6.5,6.8,9.6,14.6,9.4,23.5-.2,8.8-3.7,16.5-10.2,23-6.5,6.5-13.3,9.7-20.4,9.7s-.2,0-.2,0c-7.2,0-12.5-2.1-15.8-6.1,0,10.5,0,15.8,0,26.3,0,2,0,3.5-.2,4.4-.1,1-.5,2.1-1.2,3.3-.7,1.3-1.8,2.1-3.3,2.7s-3.7.8-6.4.8c0,0-.1,0-.2,0-2.6,0-4.7-.2-6.3-.7-1.6-.5-2.8-1.4-3.4-2.6-.7-1.2-1.1-2.3-1.2-3.2-.1-1-.2-2.4-.2-4.4-.2-25.3-.5-50.6-.7-75.9,0-2,0-3.5.2-4.4.1-1,.5-2,1.1-3.3,1.3-2.4,4.3-3.5,9.1-3.6,0,0,.2,0,.2,0m24.4,44.6c3.2,0,6-1.1,8.2-3.3,2.3-2.2,3.5-4.8,3.5-7.6,0-2.9-1-5.5-3.1-7.8-2.1-2.3-4.9-3.5-8.4-3.5,0,0,0,0-.1,0-3.4,0-6.2,1.2-8.2,3.5-2.1,2.3-3.1,4.9-3.1,7.7,0,2.8,1,5.3,3.1,7.6,2.1,2.3,4.8,3.5,8,3.5,0,0,0,0,.1,0m-24.4-58.6h-.3c-12.9,0-18.8,6-21.4,11h0c0,0,0,.2,0,.2-1.4,2.7-2.2,5.2-2.6,7.8-.2,1.7-.3,3.7-.3,6.4l.4,37.8.4,38.1c0,2.7.1,4.7.4,6.3.4,2.6,1.3,5.2,2.8,7.9,2.4,4.4,6.4,7.6,11.5,9.2,3,.9,6.4,1.4,10.5,1.4h.2c4.2,0,7.7-.5,10.8-1.5,5-1.7,9-5,11.3-9.5,1.4-2.7,2.3-5.3,2.6-7.9.2-1.6.3-3.6.3-6.3v-6.3c.6,0,1.1,0,1.7,0h.4c10.9,0,21.1-4.6,30.3-13.8,9.2-9.2,14-20.1,14.3-32.6.3-12.5-4.3-24.1-13.2-33.5-9.2-9.6-19.6-14.5-30.9-14.7h-.5c-5.5,0-10.1.9-13.9,2.4-3.8-1.8-8.4-2.6-14.6-2.6h0Z"/>
        </g>
        <g>
          <path class="cls-2" d="m652.8,290.9c-3.1,0-6.9-.4-11.6-1.1-9-1.5-15-5.1-18.1-10.7-3-5.5-4.2-13.4-3.9-23.9l1.9-61.9c0-2.4.2-4.1.4-5.4.3-1.8,1-3.6,2-5.6h0c0-.1,0-.3,0-.3,3.9-6.6,12.6-6.6,15.5-6.6s1.1,0,1.7,0c3.1.1,12.5.5,16.3,7.6h0c1.1,2.3,1.7,4.3,1.9,6.2.1,1.4.1,3.2,0,5.5,0,0-2.6,60.3-2.6,60.4,1,0,1.8.2,2.5.4,1.5.4,3,1.2,4.6,2.3,5.1,3.6,5.3,10.5,5.1,15.3-.3,5.1-1.2,12.2-6.5,15.5-2.4,1.5-5.5,2.1-9.7,2.1Z"/>
          <path class="cls-6" d="m639.3,182.5c.5,0,1,0,1.5,0,5.6.2,9.1,1.5,10.4,3.9.7,1.3,1.1,2.5,1.2,3.6,0,1,0,2.6,0,4.6-.9,20-1.7,40.1-2.6,60.1-.1,3.1,0,5.1.6,5.9.5.8,1.7,1.3,3.5,1.4,1.8,0,3,.2,3.7.4.6.2,1.4.6,2.2,1.2,1.7,1.2,2.5,4.3,2.2,9.3-.3,5.5-1.3,8.8-3.1,9.9-1.2.7-3.2,1.1-6,1.1s-6.2-.3-10.4-1c-6.7-1.1-11.1-3.5-13-7.1-2.3-4.3-3.4-11.1-3.1-20.4l1.9-61.9c0-2,.2-3.5.3-4.5.2-1,.6-2.1,1.3-3.4,1.3-2.1,4.4-3.2,9.5-3.2m0-14h0c-10.3,0-17.6,3.4-21.5,10l-.2.3v.3c-1.6,2.6-2.5,5.2-2.9,7.7-.3,1.7-.5,3.7-.5,6.4l-1.9,61.8c-.4,11.8,1.2,20.8,4.7,27.4,4.1,7.7,11.9,12.5,23.1,14.3,5,.8,9.2,1.2,12.7,1.2,5.6,0,9.8-1,13.3-3.2,8.1-5,9.5-14.4,9.8-21.1.2-3.7.7-15.1-7.9-21.3-1.3-1-2.6-1.8-4-2.4l1-24.4,1.3-30.4c.1-2.7,0-4.7,0-6.4-.3-2.8-1.2-5.8-2.7-8.7h0c0-.1,0-.2,0-.2-3.8-7.1-11.3-10.9-22.2-11.3-.7,0-1.3,0-2,0h0Z"/>
        </g>
        <g>
          <path class="cls-2" d="m715.3,296c-3.3,0-6.4-.2-9.1-.4-7.5-.6-14.1-2.3-19.8-5.2-6-3-10.6-7-13.9-11.7-5.8-8.2-8.6-17.6-8.4-28.1.2-11.1,6.8-24.4,15.2-30.9,7.4-5.7,19.4-9.6,30-9.6s2.2,0,3.3.1c14.5,1.3,26.3,8,32.3,18.4,3.4,6,4.8,12.5,4.2,19.2-.6,7.3-3.3,12.8-7.8,16.3-.9.7-1.8,1.3-2.7,1.9.9,1.3,1.7,2.7,2.5,4.5v.2c1.6,3.8,2.1,7,1.7,9.7-1.1,7.1-6.8,15.6-27.5,15.6Z"/>
          <path class="cls-6" d="m709.3,217.1c.9,0,1.8,0,2.7.1,10.3.9,21.3,5.3,26.8,14.9,2.7,4.8,3.8,9.8,3.3,15.1-.5,5.3-2.2,9.1-5.1,11.4-2.6,2.1-5.4,3.1-8.3,3.1s-.7,0-1,0c-10.6-.9-21.1-1.6-31.7-2.3-.2,2.4,1.2,4.5,4,6.4,2.8,1.8,5.7,2.9,8.6,3.1,1.6.1,3.2.2,4.6.2,3,0,5.6-.3,7.7-.8.6-.2.9-.2,1.5-.4,1.9-.7,3.6-1,4.9-1s.4,0,.6,0c2.8.2,5.1,2.4,6.8,6.4,1,2.4,1.5,4.6,1.2,6.1-1.3,8.1-11.6,9.7-20.6,9.7s-6.2-.2-8.5-.4c-6.5-.5-12.2-2-17.2-4.5-4.9-2.5-8.7-5.7-11.3-9.5-5.2-7.3-7.3-15.6-7.1-24,.2-8.7,5.6-20.2,12.5-25.5,6.4-4.9,17.2-8.1,25.7-8.1m4.9,31.7c2.9,0,4.4-1.3,4.6-3.8.2-2-.5-3.6-2-5-1.5-1.3-3.7-2.1-6.6-2.3-.3,0-.5,0-.8,0-2.7,0-5.4,1-8.2,2.9-3,2.1-4.6,4.4-4.8,7,6.8.4,10.2.7,17,1.2.3,0,.6,0,.8,0m-4.9-45.7v14-14h0c-12,0-25.8,4.4-34.3,11-10.1,7.8-17.6,23.1-17.9,36.3-.3,11.8,3.1,23,9.7,32.3,3.9,5.7,9.5,10.3,16.4,13.9,6.5,3.3,14.1,5.3,22.5,6,2.7.2,6,.4,9.6.4,7.2,0,13.1-.9,17.9-2.6,9.1-3.3,15.1-10.2,16.5-18.9.6-4,0-8.3-2-13.4v-.2c0,0,0,0,0,0,3.7-3.6,7.6-9.7,8.5-19.5.7-8.2-1-16-5.1-23.2h0s0,0,0,0c-7.1-12.4-20.9-20.4-37.7-21.9-1.3-.1-2.6-.2-3.9-.2h0Z"/>
        </g>
        <g>
          <path class="cls-2" d="m790.7,301.6c-1.3,0-2.9-.1-5-.4-10.8-1.2-19-4.7-24.5-10.4-5.8-6.1-8.2-15.1-7-26.8l1.2-11.9c-3.3-.7-6.2-2.5-8.2-5.3-2.2-3-3.1-7.1-2.6-12.5.4-4.3,1-7.3,1.8-9.5,1.1-2.9,2.7-5,4.7-6.5h.1c0,0,.1-.2.1-.2,2.2-1.4,4.8-2.2,7.6-2.3l.6-6c.2-2.4.5-4.1.8-5.4.5-1.9,1.4-3.7,2.8-5.5,2.5-3.4,6.8-5.2,12.9-5.2s2.8,0,4.4.2c11.8,1.2,15.6,6.8,16.7,11.2v.3c.5,2.2.6,5,.1,8.9l-.6,5.2c.8,0,1.5.1,2.1.2,2.3.3,4.1.6,5.5.9,1.8.4,3.7,1.3,5.6,2.6,4.6,3,6.5,8.7,5.5,17.1-1,8.2-4.2,13.4-9.4,15.3h-.3c-2.1.7-4,1.1-5.7,1.1h-.2c-1.3,0-3.1-.1-5.3-.4h-.2s-1.1-.2-1.6-.3l-1.1,10.1c1.6.2,3,.4,4,.7,2,.5,4,1.4,5.9,2.8,4.1,2.9,5.8,8.2,4.9,15.5-1,8.3-4.2,13.4-9.5,15.3h-.2c-2.1.7-3.9,1.1-5.7,1.1h-.3Z"/>
          <path class="cls-6" d="m775.9,200.9c1.1,0,2.3,0,3.7.2,6.2.6,9.8,2.7,10.6,6,.3,1.4.3,3.7,0,6.7-.6,5.1-.8,7.6-1.4,12.7,4,0,7.1.3,9.1.5,2,.2,3.6.5,4.6.7,1,.3,2.2.8,3.5,1.6,2.2,1.4,3,4.9,2.3,10.4-.6,5.4-2.3,8.6-4.8,9.5-1.4.4-2.7.7-3.7.7,0,0,0,0-.1,0-1,0-2.6-.1-4.6-.3-3.5-.6-5.2-.9-8.7-1.5-.8,7.1-1.2,10.7-2,17.8-.3,2.3,0,4,.6,5.2.6,1.1,2,1.8,4.1,2,2.1.2,3.7.5,4.8.7,1.1.3,2.2.8,3.4,1.6,1.9,1.4,2.6,4.4,2,9-.6,5.4-2.3,8.6-4.9,9.5-1.4.4-2.6.7-3.6.7,0,0-.1,0-.2,0-1,0-2.4-.1-4.3-.3-9.1-1-15.9-3.8-20.2-8.3-4.3-4.5-6.1-11.6-5.1-21.3.7-7.7,1.1-11.5,1.9-19.1-.6,0-1.1,0-1.7,0-1.2,0-2.5,0-3.8-.2-2-.2-3.6-1.1-4.7-2.7-1.2-1.6-1.6-4.1-1.3-7.7.3-3.5.8-6.1,1.4-7.6.6-1.6,1.3-2.6,2.2-3.3,1.3-.8,2.8-1.2,4.5-1.2s.7,0,1.1,0c1.8.4,2.7.6,4.5,1,.5-5.3.8-8,1.3-13.3.2-2,.4-3.4.6-4.4.2-.9.8-1.9,1.6-3,1.1-1.6,3.5-2.4,7.3-2.4m0-14h0c-10.3,0-15.7,4.2-18.4,7.9-2,2.6-3.4,5.3-4,8.1-.4,1.6-.7,3.7-1,6.4v.8c-1.8.6-3.4,1.3-4.9,2.3l-.3.2-.3.2c-3.2,2.2-5.6,5.5-7.3,9.7-1.1,2.9-1.8,6.4-2.3,11.4-.6,7,.7,12.8,3.9,17.3,1.8,2.4,3.9,4.3,6.4,5.7l-.6,6.6c-1.4,13.8,1.7,24.7,9,32.3,6.6,6.9,16.3,11.1,28.8,12.5,2.4.3,4.2.4,5.8.4h.4c2.5,0,5-.5,7.8-1.4h.2c0,0,.2-.1.2-.1,5.5-2,12.5-7.2,14.1-21.1,1.5-12.6-3.4-18.9-7.8-22.1-.3-.2-.6-.4-.9-.6,1-.2,2.1-.5,3.2-.8h.3c0,0,.3-.2.3-.2,5.5-2,12.4-7.2,14-21,1.7-13.9-3.7-20.6-8.6-23.8-2.6-1.7-5.2-2.9-7.8-3.5-.5-.1-1-.2-1.6-.3.3-3.9.2-6.9-.3-9.5v-.3c0,0-.1-.3-.1-.3-1.4-5.4-6.2-14.7-22.8-16.4-1.8-.2-3.5-.3-5.1-.3h0Z"/>
        </g>
        <g>
          <path class="cls-2" d="m858.2,311.6c-5,0-9.8-.6-13.9-1.2-7.4-1.1-14-3.3-19.4-6.6-5.7-3.5-10.1-7.7-13.1-12.7-5.2-8.5-7.4-18.2-6.4-28.6,1-11.1,8.5-23.9,17.3-29.8,6.9-4.6,17.6-7.6,27.5-7.6s4.4.2,6.4.5c14.4,2.3,25.7,9.8,30.9,20.6,3,6.2,4,12.8,2.9,19.4-1.1,7.2-4.1,12.5-8.9,15.7-.9.6-1.9,1.2-2.9,1.7.8,1.3,1.5,2.9,2.2,4.7v.2c1.3,3.9,1.6,7.2,1,9.8-1.4,6.3-6.7,13.8-23.6,13.8Z"/>
          <path class="cls-6" d="m850.1,232.2c1.9,0,3.7.1,5.4.4,10.2,1.6,20.9,6.8,25.7,16.7,2.4,4.9,3.1,10,2.3,15.3-.8,5.3-2.8,8.9-5.9,11-2.5,1.7-5.1,2.6-7.7,2.6s-1.2,0-1.9-.1c-10.5-1.6-21-3.1-31.5-4.5-.3,2.4.9,4.6,3.6,6.7,2.7,2,5.5,3.3,8.4,3.7,2.8.4,5.4.6,7.6.6s3.3-.1,4.7-.4c.6-.1.9-.2,1.5-.3,1.7-.5,3.1-.7,4.3-.7s.8,0,1.2,0c2.8.4,5,2.7,6.4,6.9.8,2.5,1.1,4.7.8,6.2-1.5,6.7-9.1,8.4-16.8,8.4s-9.5-.6-12.9-1.1c-6.5-.9-12.1-2.8-16.8-5.7-4.8-2.9-8.3-6.3-10.7-10.2-4.7-7.7-6.2-16-5.5-24.4.8-8.7,7-19.8,14.2-24.6,6-4,15.5-6.4,23.6-6.4m6,32c2.5,0,3.9-1.2,4.2-3.5.3-2-.3-3.7-1.7-5.1-1.4-1.4-3.6-2.4-6.5-2.8-.5,0-1.1-.1-1.6-.1-2.4,0-5,.8-7.6,2.3-3.2,1.9-4.9,4.1-5.3,6.7,6.8.9,10.1,1.4,16.9,2.4.5,0,1,.1,1.4.1m-6-46v14-14h0c-11.3,0-23.3,3.3-31.4,8.7-10.6,7.1-19.2,21.8-20.4,35-1.1,11.8,1.5,23.1,7.4,32.9,3.5,5.9,8.7,11,15.4,15,6.3,3.8,13.7,6.3,22,7.5,4.3.6,9.5,1.3,14.9,1.3,23.6,0,29.2-13.5,30.5-19.3.9-3.9.5-8.3-1.1-13.5v-.2c3.9-3.4,8.2-9.1,9.8-18.9,1.3-8.1.1-16-3.5-23.5h0s0,0,0,0c-6.3-12.9-19.4-21.8-36.2-24.4-2.4-.4-4.9-.6-7.5-.6h0Z"/>
        </g>
      </g>
    </g>
  </g>
</svg>