<?xml version="1.0" encoding="UTF-8"?>
<svg id="Layer_2" data-name="Layer 2" xmlns="http://www.w3.org/2000/svg" width="1525.7" height="1521.2" viewBox="0 0 1525.7 1521.2">
  <defs>
    <style>
      .cls-1 {
        fill: #fe8bd1;
      }

      .cls-2 {
        fill: #febae0;
      }

      .cls-3 {
        fill: #c0fa9f;
      }

      .cls-4 {
        fill: #d5cbd3;
      }

      .cls-5 {
        fill: #9660a6;
      }

      .cls-6 {
        fill: #8f7d6f;
      }

      .cls-7 {
        fill: #3d0020;
      }

      .cls-8 {
        fill: #935173;
      }

      .cls-9 {
        fill: #72b24c;
      }

      .cls-10 {
        fill: #e7bcfc;
      }

      .cls-11 {
        fill: #ffd9ee;
      }

      .cls-12 {
        fill: #ddfdc9;
      }

      .cls-13 {
        fill: #c8017c;
      }

      .cls-14 {
        fill: #ff8bd2;
      }

      .cls-15 {
        fill: #ffbbe1;
      }

      .cls-16 {
        fill: #71b14b;
      }

      .cls-17 {
        fill: #fed8ed;
      }

      .cls-18 {
        fill: #8e5873;
      }

      .cls-19 {
        fill: #ff8cd2;
      }

      .cls-20 {
        fill: #c0fa9e;
      }

      .cls-21 {
        fill: #c0f99e;
      }

      .cls-22 {
        fill: #d896bb;
      }

      .cls-23 {
        fill: #dcfdc9;
      }

      .cls-24 {
        fill: #c1fb9f;
      }

      .cls-25 {
        fill: #a5c987;
      }

      .cls-26 {
        fill: #71b24b;
      }

      .cls-27 {
        fill: #c9037c;
      }

      .cls-28 {
        fill: #dcfcc9;
      }

      .cls-29 {
        fill: #a5c887;
      }
    </style>
  </defs>
  <g id="Top">
    <g>
      <g>
        <path class="cls-7" d="m756.7,1521c-180.3,0-360.7-.1-541,.1-24.2,0-47.7-3.6-70.8-10.4-24.7-7.2-47.2-18.8-67.8-34.1-17.5-13-31-29.7-42.1-48.3-13.8-23-22.4-48-27.9-74.1-3.8-18.1-4.6-36.5-4.1-54.9.1-4.8,0-9.7,0-14.5,0-345.5,0-691.1,0-1036.6s.2-13.3,0-20c-1-29.3,4.8-57.5,14.5-85,8.6-24.2,21.3-46.1,38.2-65.5,13-14.9,28.9-25.8,45.7-35.8,20.3-12.1,42.5-18.7,65.1-24.4,7.8-2,16-2.8,24.1-3.5,23.1-1.9,46.1-.8,69.2-.8,349.7-.1,699.4,0,1049.1,0,18.5,0,36.4,3.7,54.2,8.5,16,4.4,31.4,10.1,46,18.1,12.1,6.6,23.5,14.1,34.1,23,22.4,18.8,37.6,42.6,49.1,69.1,7.8,18.1,12.9,37,16.4,56.3,1.7,9.6,2.4,19.5,2.4,29.4,0,114.7,0,229.4-.1,344.1,0,61.1-.2,122.2.1,183.3,0,10.4.8,20.9.7,31.3,0,6.9-1,13.8-1,20.8,0,174.8,0,349.6,0,524.4,0,16.5-3.3,32.6-7.5,48.5-4.8,18-11.2,35.5-20.4,51.8-10.5,18.3-22.6,35.2-39,48.9-13.7,11.5-28.7,20.9-44.8,28.6-17.8,8.4-36.6,13.5-55.8,17.7-18.8,4.1-37.9,3.9-56.9,3.9-176.5,0-353,0-529.5,0Zm740.1-753.5h0c0-143.2,0-286.4,0-429.6,0-21.3.1-42.6.4-63.9.3-25.3,2-50.7-1-76-1.7-14.5-4.4-28.7-9.1-42.5-9.7-28.9-23.7-55.2-45.8-76.5-14.5-14-31.4-24.5-49.8-32.9-29.7-13.6-60.9-20.2-93.4-19.7-21.4.3-42.8.7-64.3.7-327.9,0-655.8,0-983.6.2-17.4,0-34.7-2.5-52.1-.3-11.2,1.4-22.5,2.4-33.5,4.8-19.4,4.2-37.5,12-55.2,21-22.5,11.5-40.6,28.1-55.4,48.1-11.2,15.1-18.9,32.3-25.4,50.1-5.4,14.8-8.9,30.1-10.6,45.6-1,9.3-2.8,18.5-1.8,28,.9,8.6.7,17.4.7,26.1,0,349.2,0,698.4,0,1047.7,0,8.6-1.5,17-.3,25.7,1.5,11.2,2,22.7,4.7,33.7,7.1,29.3,18.1,56.8,37.1,80.8,13.1,16.5,28.4,30.3,46.7,40.6,36.1,20.4,75,30,116.4,28.7,17.8-.6,35.6-.7,53.4-.7,224.3,0,448.6,0,672.9,0s245.6,0,368.5-.1c11,0,21.9-2.3,32.6-4.5,12.7-2.7,24.8-7.2,36.8-12.1,20.3-8.3,38.8-19.5,54.7-34.5,12.4-11.7,22.5-25.4,30.6-40.5,17.6-32.7,26.6-67.6,26.5-104.7,0-27.3-.8-54.6-.8-81.9,0-153.7,0-307.4,0-461.1Z"/>
        <path class="cls-10" d="m1496.8,767.6c0,153.7,0,307.4,0,461.1,0,27.3.8,54.6.8,81.9,0,37.1-9,72-26.5,104.7-8.1,15.1-18.2,28.7-30.6,40.5-16,15-34.4,26.2-54.7,34.5-12,4.9-24.1,9.5-36.8,12.1-10.7,2.3-21.6,4.5-32.6,4.5-122.8.2-245.6.1-368.5.1-224.3,0-448.6,0-672.9,0-17.8,0-35.6.1-53.4.7-41.4,1.3-80.3-8.3-116.4-28.7-18.3-10.3-33.6-24.1-46.7-40.6-19-24-30-51.6-37.1-80.8-2.7-11-3.2-22.4-4.7-33.7-1.2-8.7.3-17.1.3-25.7,0-349.2,0-698.4,0-1047.7,0-8.7.2-17.5-.7-26.1-1-9.5.8-18.8,1.8-28,1.6-15.5,5.2-30.8,10.6-45.6,6.5-17.7,14.2-35,25.4-50.1,14.8-20,32.9-36.6,55.4-48.1,17.7-9,35.7-16.8,55.2-21,11-2.4,22.3-3.3,33.5-4.8,17.4-2.3,34.7.3,52.1.3,327.9-.2,655.8-.2,983.6-.2,21.4,0,42.8-.4,64.3-.7,32.4-.5,63.7,6.1,93.4,19.7,18.4,8.4,35.3,18.9,49.8,32.9,22.1,21.3,36.1,47.6,45.8,76.5,4.6,13.9,7.3,28,9.1,42.5,3,25.3,1.3,50.7,1,76-.2,21.3-.3,42.6-.4,63.9,0,143.2,0,286.4,0,429.6h0ZM445.9,1489.9c31.5.4,69.8.3,108.1.7,74.6.8,149.2.1,223.8.1,75.5,0,150.9.2,226.4-.7,64.5-.7,129.1-.2,193.7,0,31.4,0,62.9.5,94.3.9,15.5.2,30.6-1.7,45.7-5.1,26.6-5.9,52.1-14.8,75.1-29.9,10.8-7.1,19.7-16.3,27.8-26.2,11.5-14,18.9-30.3,25.1-47.1,8.5-23.4,14.8-47.4,14.8-72.4-.1-73.6.9-147.2-.7-220.8-.4-19.8.5-39.6.5-59.4.1-177.2,1.4-354.3-.5-531.5-.3-31.9.1-63.9.5-95.9.8-59.6.2-119.2.4-178.9,0-8.3-.8-16.6-2.3-24.7-5-27.8-13.1-54.5-27.2-79.3-9.2-16.2-21.6-29.4-36.4-40.2-18-13.1-38.5-21.3-59.7-27.3-21.7-6.1-43.7-10.1-66.5-9.4-16.1.4-32.2.1-48.3.2-12.5,0-25,.6-37.4.6-74.6,0-149.2.6-223.7-.4-70.6-1-141.2-.5-211.8-.3-91.9.3-183.8-.3-275.7.7-64.6.7-129.2,1-193.8-.5-28-.7-55.9-.2-83.9-.2-10.3,0-20.4,1.8-30.4,3.6-18.8,3.4-36.9,8.7-54.4,16.4-16.1,7.2-31.3,15.8-44.1,28.1-14.4,13.8-24.4,30.4-32.1,48.5-12.7,29.7-19.6,60.5-20.1,92.8-.2,16.6,1,33.2,1,49.8-.5,158,1.3,316-.9,474-.1,10.6.8,21.3.7,31.8-.4,165.6,1.5,331.2-.8,496.7-.3,17.8-.1,35.5,3.2,53,5.3,27.9,13.8,54.8,28.5,79.3,7.1,11.9,16.2,22,26.8,31,12.1,10.3,26,17.4,40.6,23.5,27.4,11.5,55.9,18.5,85.8,18.8,15.8.2,31.5,0,47.3-.5,26.3-.8,52.7-.4,79.1-.4,31.6,0,63.3,0,101.7,0Z"/>
        <path class="cls-5" d="m445.9,1489.9c-38.4,0-70.1,0-101.7,0-26.4,0-52.8-.4-79.1.4-15.8.5-31.6.7-47.3.5-29.8-.4-58.3-7.3-85.8-18.8-14.5-6.1-28.4-13.1-40.6-23.5-10.6-9-19.7-19.2-26.8-31-14.7-24.5-23.3-51.4-28.5-79.3-3.3-17.5-3.4-35.3-3.2-53,2.3-165.6.4-331.2.8-496.7,0-10.6-.9-21.2-.7-31.8,2.2-158,.4-316,.9-474,0-16.6-1.2-33.2-1-49.8.4-32.3,7.4-63.2,20.1-92.8,7.7-18.2,17.7-34.7,32.1-48.5,12.9-12.4,28-21,44.1-28.1,17.4-7.8,35.6-13,54.4-16.4,10.1-1.8,20.2-3.6,30.4-3.6,28,0,56-.4,83.9.2,64.6,1.5,129.2,1.2,193.8.5,91.9-1,183.8-.5,275.7-.7,70.6-.2,141.2-.7,211.8.3,74.6,1,149.2.4,223.7.4,12.5,0,24.9-.6,37.4-.6,16.1,0,32.2.2,48.3-.2,22.7-.6,44.8,3.3,66.5,9.4,21.2,6,41.7,14.1,59.7,27.3,14.8,10.8,27.2,24,36.4,40.2,14.1,24.7,22.2,51.5,27.2,79.3,1.5,8.1,2.3,16.3,2.3,24.7-.1,59.6.4,119.2-.4,178.9-.4,32-.8,63.9-.5,95.9,1.8,177.2.6,354.3.5,531.5,0,19.8-.9,39.6-.5,59.4,1.7,73.6.6,147.2.7,220.8,0,25-6.2,49.1-14.8,72.4-6.2,16.8-13.6,33.1-25.1,47.1-8.1,9.9-17,19.1-27.8,26.2-23,15-48.5,23.9-75.1,29.9-15,3.3-30.2,5.3-45.7,5.1-31.4-.4-62.9-.8-94.3-.9-64.6-.2-129.1-.7-193.7,0-75.5.9-150.9.7-226.4.7-74.6,0-149.2.6-223.8-.1-38.3-.4-76.6-.3-108.1-.7Zm863.9-13c1.4,0,6-1,7-1,.7,0,1.3.2,2,.1,26.1-4.2,51.3-11.6,74.7-24.3,15.8-8.6,29.5-19.7,39.7-34.6,13.1-19.1,21.6-40.3,27.5-62.5,3.8-14.2,6-28.7,6.9-43.4.2-15.3-.1-30.6-.6-45.9-.6-20.8.4-41.6.4-62.3.2-69.7,0-139.5-.3-209.2-.5-156.1-1.5-312.3.5-468.4.4-29,0-57.9,0-86.9,0-12.7,0-25.3,0-38,.1-12.3-.3-24.7,0-37,.2-10.2,0-20.3-.2-30.5-.2-3.3-.7-6.6-.7-9.9,0-19.2,0-38.3,0-57.5,0-2.5-.2-5,0-7.5,1.8-16.1,1.6-32.2-.3-48.2-2.4-20.1-7.4-39.7-15.2-58.4-7-16.7-15.2-32.8-27.8-46.2-13.4-14.2-29.8-23.6-47.5-31.1-26.7-11.2-54.5-17.3-83.4-18.1-8.8-.2-17.5,1.2-26.4,1.1-62.2-.7-124.5.8-186.7-.9-19.3-.5-38.6.6-57.8.6-181.3-.1-362.6,1.4-543.9-.6-27.4-.3-54.9-.3-82.3.7-21.5.8-43,.2-64.4.2-41.9,0-83.8-.4-125.6.2-15.2.2-30,3.8-44.5,8.6-8.9,3-17.8,6.1-26.4,9.8-23.2,9.9-42.8,24.2-56.5,45.8-7.7,12.1-13.7,25-18.5,38.5-5.4,15.2-9.1,30.8-11.5,46.7-.9,5.9-2.2,11.9-2.2,17.8,0,7.2.6,14.4.9,21.5.8,19,.3,38,.4,56.9,0,7.3-.2,14.5-.2,21.8,0,319.3,0,638.5,0,957.8,0,6.3.4,12.6-.8,18.9-.7,3.8-.8,8,1,11.8-1.1,6.1.8,11.9,1.7,17.9,4.1,26.2,11.7,51.1,24.7,74.3,5.1,9.1,11.2,17.7,18.4,25.2,9.5,9.9,21,17.2,33.1,23.6,14.5,7.6,29.9,12.7,45.6,16.9,8.9,2.4,17.9,4.6,27.2,4.9,7.7,1.4,15.4,2.3,23.2,2.2,7.8,0,15.5-1.2,23.4-1.1,58.8.7,117.5-.7,176.3.8,26.4.7,52.9-.5,79.3-.5,181.5,0,363-1.4,544.4.6,19.9.2,39.9-.2,59.9-.6,35.8-.8,71.6.1,107.4-.4,32.7-.5,65.5,1.8,98.2,0Z"/>
        <path class="cls-15" d="m1467.5,333c0,10.2.3,20.3.2,30.5-.2,12.3.2,24.7,0,37-.1,12.7,0,25.3,0,38,0,29,.3,57.9,0,86.9-2,156.1-1.1,312.3-.5,468.4.2,69.7.5,139.5.3,209.2,0,20.8-1,41.6-.4,62.3.4,15.3.7,30.6.6,45.9-1.8.2-1.7,1.7-2,3-2,7.4-3.7,14.8-6,22-11.7,37.4-30.6,70.2-60,96.8-23,20.9-49.5,34.7-79.8,41.1-1.3.3-2.7,0-3,1.9-1,0-4.5,3.4-105.2,1.1-35.8.5-71.6-.4-107.4.4-20,.4-39.9.8-59.9.6-181.5-2-363-.6-544.4-.6-26.4,0-52.9,1.1-79.3.5-58.8-1.5-117.5-.1-176.3-.8-7.8,0-15.6,1-23.4,1.1-7.8,0-15.5-.8-23.2-2.2-.2-1.5-1.3-1.6-2.5-1.9-11.7-3.2-23.1-7-34.3-11.6-28.3-11.8-52.4-29.3-71.4-53.3-21.2-26.8-34-57.5-39.8-91.1-.3-1.8-.2-4.1-2.7-4.8-1.8-3.8-1.7-8-1-11.8,1.2-6.3.8-12.6.8-18.9,0-319.3,0-638.5,0-957.8,0-7.3.1-14.5.2-21.8,1.4-.3,1.8-1.2,1.8-2.5,0-9.6,1.6-19.1,1.9-28.7.4-13.8,3.4-27.2,4.5-40.9,1-12.3,3.8-24.4,5.6-36.6,1.6-11.2,3.7-22.1,9.4-32.2,7.5-13.3,15.6-26.2,24-38.9,10.4-15.7,25.3-25.6,41.3-34.1,9.6-5.1,20.6-7.3,31.1-10.3,24.2-7.1,48.8-9.7,74.1-9.7,354.3.3,708.6.2,1062.9.2,4.5,0,9,.4,13.3,1.4,29.8,6.7,58.4,16.5,82.9,35.7,11.4,8.9,22.9,17.6,31.2,29.7,8.6,12.5,12.6,27,16.5,41.4,4.8,17.6,7.3,35.6,9.2,53.7,1.4,13.1,2.9,26.3,4,39.4.5,5.5.4,10.9,1,16.4,1.3,12.2,2.2,24.4,1.7,36.7-.1,3.4-.8,7.8,3.9,9.6Z"/>
        <path class="cls-22" d="m1467.5,333c-4.7-1.8-4-6.2-3.9-9.6.5-12.3-.5-24.5-1.7-36.7-.6-5.4-.5-10.9-1-16.4-1.1-13.2-2.7-26.3-4-39.4-1.9-18.1-4.4-36.1-9.2-53.7-4-14.4-7.9-28.8-16.5-41.4-8.3-12.1-19.8-20.8-31.2-29.7-24.6-19.2-53.1-29-82.9-35.7-4.3-1-8.8-1.4-13.3-1.4-354.3,0-708.6.2-1062.9-.2-25.3,0-49.9,2.6-74.1,9.7-10.5,3.1-21.5,5.2-31.1,10.3-16,8.5-30.9,18.4-41.3,34.1-8.4,12.8-16.5,25.6-24,38.9-5.7,10.1-7.8,21-9.4,32.2-1.8,12.2-4.5,24.4-5.6,36.6-1.1,13.7-4.2,27.1-4.5,40.9-.2,9.6-1.8,19.1-1.9,28.7,0,1.3-.4,2.3-1.8,2.5,0-19,.4-38-.4-56.9-.3-7.1-.8-14.4-.9-21.5,0-5.9,1.3-11.9,2.2-17.8,2.4-15.9,6.1-31.5,11.5-46.7,4.8-13.5,10.7-26.4,18.5-38.5,13.8-21.5,33.3-35.9,56.5-45.8,8.7-3.7,17.5-6.8,26.4-9.8,14.5-4.8,29.3-8.4,44.5-8.6,41.9-.6,83.8-.2,125.6-.2,21.5,0,43,.6,64.4-.2,27.4-1,54.9-1,82.3-.7,181.3,2,362.6.5,543.9.6,19.3,0,38.6-1.1,57.8-.6,62.2,1.7,124.5.3,186.7.9,8.8,0,17.6-1.3,26.4-1.1,28.9.8,56.7,6.8,83.4,18.1,17.7,7.5,34.1,16.9,47.5,31.1,12.6,13.4,20.9,29.5,27.8,46.2,7.8,18.7,12.7,38.3,15.2,58.4,1.9,16,2.1,32.1.3,48.2-.3,2.5,0,5,0,7.5,0,19.2,0,38.3,0,57.5,0,3.3.5,6.6.7,9.9Z"/>
        <path class="cls-22" d="m1316.9,1475.9c.3-1.8,1.7-1.6,3-1.9,30.3-6.4,56.8-20.2,79.8-41.1,29.3-26.6,48.3-59.4,60-96.8,2.3-7.3,4-14.7,6-22,.3-1.3.2-2.8,2-3-.9,14.7-3.2,29.2-6.9,43.4-5.9,22.2-14.4,43.4-27.5,62.5-10.2,15-23.9,26-39.7,34.6-23.4,12.7-48.5,20.1-74.7,24.3-.6.1-1.3,0-2-.1Z"/>
        <path class="cls-22" d="m47.1,1313.2c2.5.7,2.4,3,2.7,4.8,5.8,33.6,18.6,64.3,39.8,91.1,19,24,43.1,41.5,71.4,53.3,11.2,4.7,22.6,8.5,34.3,11.6,1.2.3,2.3.4,2.5,1.9-9.3-.3-18.3-2.6-27.2-4.9-15.7-4.2-31.2-9.3-45.6-16.9-12.1-6.3-23.5-13.7-33.1-23.6-7.3-7.5-13.3-16.1-18.4-25.2-13-23.2-20.7-48.1-24.7-74.3-.9-6-2.8-11.8-1.7-17.9Z"/>
      </g>
      <g>
        <path class="cls-7" d="m75.2,108.3c-8.4-31.9,2.7-58.5,22.9-82.5,6.5-7.7,14.8-13.7,23.2-19.4,1.5-1,3.1-2,4.7-2.7,10-4.6,14.8-3,19.7,6.8,8.4,16.7,11.9,34.3,10.7,52.9-.2,2.9.2,3.3,3,2.8,16.4-3,30.4,6.8,32.9,23,.9,5.5-.1,10.5-3.1,15.2-.6,1-2.1,1.9-.4,3.3,11.4,9.3,11.5,21.1,7.1,33.8-.4.5-.9.9-1.3,1.5-6,9.3-13.6,15-25.4,11.3-2.5-.8-2.7,1.2-3.3,2.6-1.8,4.1-4.4,7.4-8.4,9.5-12,6.3-28,2.5-34.4-9.4-3.2-6-6.2-9.4-13.1-8.1-.9-.7-1.5-.8-1.8.5-2.5,3.6-5.4,6.7-9.2,9-.3.1-.5.3-.8.4.2.2.5.3.7.5,2.9.5,5.8.9,8.7,1.4,10.5,6.6,13.8,16.7,13.7,28.4-.9,2.3-1.8,4.7-2.7,7-.7.3-1,.8-1.1,1.6-2.1,2.1-4.1,4.4-6.4,6.2-5.2,4.1-5.7,5.1-6.8,11.6-1.5,9.2-6.1,16.4-15,20.1-9.2,3.8-17.3.7-24.5-4.8-3.1-2.4-5.1-2.9-7.8-.2-9.8,3.1-17.8-.3-24-7.7-6.3-7.4-10.8-15.8-6.3-26,1.1-2.5.2-3.4-1.4-4.9-8.3-8-9.8-14.9-5.3-25.5,1.1-2.7-.4-3.1-2-4-6.4-3.7-12.1-8-15.9-14.7-2.8-4.8-3-9.3-.6-14.2,7.3-14.8,20.3-21.9,35.3-26,12.5-3.4,25-2.1,37.2,1.8.9.3,1.4.2,1-.9Zm-24.9,84.7c-.3.4-.5.8-.8,1.1-2.1,2.5-5.4,3-7.9,5-2.2,1.8-3.9,3.8-2.9,6.8,1.3,3.9,3.1,7.7,6.4,10.4,5.6,4.6,9.9,3.1,11.3-4,.7-3.4,1.3-6.8,1.9-10.2l1.7-1.3c.4-.3.8-.6,1.2-.8h0c2.5-.8,4.3.9,6.3,1.8.4.5.7.9,1.1,1.4.6,4.1,1,8.2,1.8,12.2.9,4.4,5.5,8,10.5,8.5,4.6.4,7.5-2.3,9.2-6.2,2.6-5.9.4-11-3.3-15.5-2.3-2.8-4.4-5.3-3.9-9.2l.4-1.4c4.4-3.2,8.4-1.8,12.3.9,2,1.4,3.8,3.2,6.7,2,5.9-2.4,7.9-8.5,5-15.5-2.9-6.9-6.5-8.5-13.2-5.3-3.7,1.8-7.2,4-10.8,6-3.4-.4-5.4-2-5.2-5.7,1.4-2.3,2.6-4.6,4.1-6.8,6.9-10.4,3.2-18.5-9.1-20-.8-.1-1.7-.1-2.5-.2-9.2-.3-13.7,6.2-10.1,14.8,1.4,3.4,3.1,6.6,3.8,10.2-1.7,5.5-2.1,5.7-8.8,3.8-3.9-2-7.9-4-11.8-6.1-3.4-1.9-6.5-2-9.6.6-2.4,2-3.6,4.5-2.5,7.5,1.2,3.5,3.3,6.6,7.4,7.1,3.4.5,6.9.8,10.3,1.1,1.3,1,2.6,2.1,2.2,4-1.1.7-1.4,1.8-1.2,3,0,0,0,0,0,0Zm9.9-73.5c-5.2-.5-10.5-.5-15.7,0-.9-.3-1.6-.2-2.2.6-6.9,1.3-13.3,3.9-18.9,8.2-14.7,10.6-11.2,13.3-.8,21.1,1.8,1.4,3.9,2.5,5.8,3.8,2.4,1.6,5,2.6,7.9,1.7,1.7,0,3.5,0,5.2.1,1.6-.8,5,3.7,5-1.7,1-1.2,1-2.7.8-4.2.7-1.7,1.3-3.3,2-5,3.2-4.9,8.5-6.7,13.1-9.7,1.3-.2,2.5-.5,3.8-.7l9.2.2c7.1,1.3,13.8,3.6,18.6,9.4,1.2,1.4,2,2.4,3.9.7,1.7-1.5,1.9-2.5.3-4.4-8.5-9.9-19.5-15.3-31.8-18.6-.8-1-2-.8-3.1-1-.9-.9-2-1-3.2-.6Zm64-53c.4,0,.7-.2,1.1-.2l2.8-.9c2.4,0,4.7,0,7.1,0,1.9.4,3.9.8,5.8,1.2,4.4,2.2,2.8-1.3,3-3.1,0-4.6,0-9.2,0-13.8.2-1.8.4-3.6-.8-5.1-.9-7.5-2.4-14.9-5.4-21.9-.3-.9-.6-1.9-1-2.8-2.9-6.1-3.2-6.2-8.8-2.3-7.9,5.5-15.4,11.5-21.8,18.7-10.3,11.7-16.9,25.2-19.9,40.4-1.2,1.3-.8,3.1-1.2,4.6-1.5,5.8-1.4,11.5,0,17.3.8,3.2,1.5,6.5,2.3,9.7-.2.9,0,1.6.8,2.1.9,2.2,1.4,4.7,3.6,6.6,1.2-6.1,4.9-10.3,9.9-13.1,2.9-1.6,2.5-3.3,1.4-5.5.2-1.2.2-2.3-.7-3.2-.2-4-.5-7.9.9-11.8.7-.5,1-1.1.8-2v-.2c5.1-7.1,10.7-13.5,20.1-14.7,0,0,.1,0,.1,0Zm28.7,66.7c1.1-2.7,2.7-4.8,6-4.9,3.9.9,5.2,4.2,6.9,7.3,3.5,6.2,9.7,8.9,13.8,5.8,5.3-4.1,7.1-9.5,5.9-16.3-1.1-6.3-5-8.9-10.7-10.1-2.6-.6-5.2-.7-7.4-2.6-2.3-1.9-2.6-3.5,0-5.4,2.9-2.2,5.7-4.5,8.5-6.8,4.1-3.5,4.7-7.8,2.6-12.6-2.6-5.9-8.3-9.5-14.2-9-5.6.5-8.8,3.3-10.3,9.1-.3,1-.5,1.9-.9,2.8-1.6,3.4-2.8,7.8-7.7,7-5.1-.9-3.3-5.4-3.2-8.6.2-4.8-1.6-8.3-6.2-9.6-5.1-1.4-10.2-.7-14.7,2.6-7.3,5.4-7.5,12.5-.5,18.2,2.7,2.2,5.7,4,7.6,7.1,1.3,2.1-.3,3.4-1.3,4.9-3.7,3.2-8.1,2-12.4,1.9-7.8-.2-11.6,5-9,12.4,1,2.9,2.8,5.3,4.9,7.4,3.7,3.7,6.2,3.5,9.2-.9,1.8-2.7,3.5-5.4,7.3-5,1.9,1.9,5.6,1.6,6.2,5.1-.1,4.3-.5,8.6-.2,12.9.3,4.9,3.6,7.7,8,9.2,4.3,1.5,8.8,1.6,12.1-1.7,3.2-3.2,3.2-7.5,1.6-11.7-1.1-2.8-1.9-5.7-1.8-8.7Z"/>
        <path class="cls-22" d="m107.7,160.5c-2.9-.5-5.8-.9-8.7-1.4.2-.3.2-.6.1-.9,3.7-2.3,6.7-5.4,9.2-9,.6-.2,1.2-.3,1.8-.5,6.9-1.3,9.9,2.1,13.1,8.1,6.4,11.9,22.4,15.6,34.4,9.4,4-2.1,6.6-5.4,8.4-9.5.6-1.4.8-3.4,3.3-2.6,11.7,3.7,19.4-2,25.4-11.3.3-.5.8-1,1.3-1.5,3,12-5.7,23.4-18.7,23.5-5.7,0-9.8,1.1-14,5.8-12.1,13.6-41.4,8-47.1-10.3-1.3-4.2-2.9-5.5-6-1.3-.5.7-1.7.9-2.6,1.3Z"/>
        <path class="cls-22" d="m118.8,195.9c.9-2.3,1.8-4.7,2.7-7,3,4.5,1.9,14.2-3,19-5,4.8-8.9,9.1-9.3,16.9-.4,8.2-6.6,13.7-14.8,16.2-8.5,2.5-16.9,3-25.2-.3-5.2-2-9.8-4.8-12-10.4,2.7-2.6,4.7-2.2,7.8.2,7.2,5.6,15.4,8.6,24.5,4.8,8.9-3.7,13.5-10.9,15-20.1,1.1-6.6,1.6-7.5,6.8-11.6,2.3-1.8,4.3-4.1,6.4-6.2,1,0,1.1-.8,1.1-1.6Z"/>
        <path class="cls-2" d="m128.3,107.3c-1.9-3.1-4.9-4.9-7.6-7.1-7-5.7-6.7-12.8.5-18.2,4.5-3.3,9.6-4,14.7-2.6,4.6,1.2,6.3,4.8,6.2,9.6-.1,3.2-2,7.7,3.2,8.6,5,.9,6.1-3.6,7.7-7,.4-.9.7-1.9.9-2.8,1.5-5.7,4.7-8.6,10.3-9.1,5.9-.5,11.6,3,14.2,9,2.1,4.8,1.5,9.1-2.6,12.6-2.8,2.4-5.6,4.7-8.5,6.8-2.6,1.9-2.2,3.5,0,5.4,2.2,1.8,4.9,2,7.4,2.6,5.6,1.2,9.6,3.8,10.7,10.1,1.2,6.8-.6,12.2-5.9,16.3-4,3.1-10.3.3-13.8-5.8-1.7-3-3-6.4-6.9-7.3.5-1.7,1.3-3.4,1.5-5.2.5-4.5,2.1-9.3-2.5-12.8-1.1-8.4-1.8-9.1-7.9-8.7-1.2-1.9-3.1-2.5-5.1-2.1-4.4.8-8.5,2.6-11.9,5.5-1.4,1.2-2.5,2.7-4.6,2.4Z"/>
        <path class="cls-3" d="m85,81.2c.4-1.6,0-3.3,1.2-4.6.1,1.3,0,3,2.1,1.7,2-1.2,3.5-2.9,4.9-4.9,5.7-8.1,11.2-16.3,17.1-24.2,7.7-10.3,15.9-20.2,27.4-26.7,3,7,4.6,14.3,5.4,21.9-.3,1.8-.3,3.6.8,5.1,0,4.6,0,9.2,0,13.8-1,1-.6,3.3-3,3.1-1.9-.4-3.9-.8-5.8-1.2-2.4-1.1-4.7-1.2-7.1,0-.9.3-1.8.6-2.8.9-.5-.4-.8-.3-1.1.2,0,0-.1,0-.1,0-2.4-.1-3.8-.7-2.3-3.6,2.2-4.3,4.2-8.6,6.2-13,1.1-2.3,2.1-5-.4-6.7-2.7-1.9-5,.5-6.4,2.2-8.7,10.4-14.7,22.3-17,35.8,0,0-.1.2-.1.2-.9.4-1,1.1-.8,2-1.4,3.8-1.1,7.8-.9,11.8-.4,1.2-.2,2.3.7,3.2,1.1,2.2,1.5,3.9-1.4,5.5-5,2.8-8.7,6.9-9.9,13.1-2.2-1.9-2.7-4.4-3.6-6.6.2-.9-.1-1.6-.8-2.1-.8-3.2-1.5-6.5-2.3-9.7,0-5.8,0-11.5,0-17.3Z"/>
        <path class="cls-3" d="m36.2,154.9c-2.9.8-5.5,0-7.9-1.7-1.9-1.3-3.9-2.4-5.8-3.8-10.4-7.7-13.9-10.5.8-21.1,1.2,2.2,3.2,1.8,5.2,2,8.6.6,16.6-2.6,24.7-4.4,4.5-1,9.5-1.1,13.1-4.8,12.3,3.3,23.3,8.7,31.8,18.6,1.6,1.9,1.4,2.8-.3,4.4-1.9,1.7-2.7.7-3.9-.7-4.8-5.8-11.5-8-18.6-9.4-3.1-1.4-6.1-1.3-9.2-.2-1.3.2-2.5.5-3.8.7-3.2-.6-6.4-1.4-9.7-1.8-7.2-.9-14.1-.1-20.8,2.8-2.6,1.1-4.1,2.9-3.2,5.8.8,2.7,3.1,3.1,5.6,2.9,1.3-.1,2.6-.5,3.9-.6,3.7-.1,7.5-1.3,11.1.6-.7,1.7-1.3,3.3-2,5-1.1,1.2-1.2,2.7-.8,4.2,0,5.4-3.4.9-5,1.7-1.7-1.2-3.5-1.3-5.2-.1Z"/>
        <path class="cls-12" d="m137.6,22.6c-11.5,6.4-19.7,16.3-27.4,26.7-5.9,7.9-11.4,16.1-17.1,24.2-1.3,1.9-2.9,3.6-4.9,4.9-2.2,1.3-2-.4-2.1-1.7,3-15.2,9.6-28.8,19.9-40.4,6.4-7.2,13.9-13.2,21.8-18.7,5.5-3.9,5.9-3.8,8.8,2.3.4.9.7,1.8,1,2.8Z"/>
        <path class="cls-14" d="m157.9,110.3c4.6,3.5,3,8.3,2.5,12.8-.2,1.8-1,3.5-1.5,5.2-3.3,0-4.9,2.2-6,4.9-6.6,3.2-13.1,2.3-19.7,0-.6-3.5-4.3-3.2-6.2-5.1-1-5.3-.9-10.6,0-15.9,1-1.5,2.6-2.8,1.3-4.9,2.1.3,3.2-1.2,4.6-2.4,3.5-2.9,7.5-4.7,11.9-5.5,2-.4,3.9.2,5.1,2.1-3.9,5.2-3.4,11.2-3,17.1.2,2.7,2.3,3.9,5,3.8,2.7,0,4.3-1.4,5-4,.7-2.7-.4-5.6,1-8.3Zm-13.7,9.4c.2-6.2-1.9-10.6-5.2-10.4-4.5.3-4.6,4.1-4.9,7.3-.4,5.1,1.8,8.4,5.4,8.5,3.8.1,4.7-2.3,4.7-5.5Z"/>
        <path class="cls-2" d="m64.2,172c-.7-3.6-2.4-6.9-3.8-10.2-3.6-8.6.9-15.1,10.1-14.8.8,0,1.7,0,2.5.2,12.3,1.5,16,9.7,9.1,20-1.5,2.2-2.7,4.5-4.1,6.8-4.4-1.7-9.1-2.2-13.8-2Z"/>
        <path class="cls-14" d="m64.2,172c4.7-.2,9.3.3,13.8,2-.2,3.7,1.8,5.3,5.2,5.7,0,4,0,7.9,0,11.9-.1.5-.3.9-.4,1.4-4.4,3.8-7.9,9.1-14.3,10.2-.4-.5-.7-.9-1.1-1.4-1.4-3.1-3.3-4.2-6.3-1.8,0,0,0,0,0,0-.4.3-.8.6-1.2.8-.6.4-1.1.9-1.7,1.3-2.4-3-6.1-4.6-8.1-8.1,0-.4,0-.7,0-1.1,0,0,0,0,0,0,1.3-.6,1.3-1.8,1.2-3,.4-1.9-.9-3-2.2-4-.2-4.8,4.3-6.7,6.2-10.2,6.7,1.9,7.1,1.7,8.8-3.8Zm13.2,11.7s0,0-.1,0c0-.8,0-1.7,0-2.5,0-2.6-1.1-4.6-3.8-5-2.7-.5-4.5,1-5.3,3.5-1.3,3.8-2.2,7.8,1.3,11.1,1.7,1.6,3.6,1.6,5.4.2,1.2-.9,2-2.2,2.3-3.7.2-1.1.2-2.3.3-3.5Zm-23.3,5.9c0,3.7.6,7.2,5,7.3,4.1.1,5-3.3,5.1-6.6,0-3.4-.7-7.1-5-7.2-4,0-5,3.1-5,6.4Z"/>
        <path class="cls-2" d="m68.6,203.2c6.4-1.1,9.8-6.3,14.3-10.2-.6,3.9,1.6,6.4,3.9,9.2,3.7,4.5,5.9,9.6,3.3,15.5-1.7,3.8-4.6,6.6-9.2,6.2-5-.4-9.6-4.1-10.5-8.5-.8-4-1.2-8.2-1.8-12.2Z"/>
        <path class="cls-2" d="m133.2,133.2c6.6,2.3,13.1,3.2,19.7,0,0,3,.6,5.9,1.8,8.7,1.7,4.1,1.7,8.5-1.6,11.7-3.3,3.3-7.9,3.2-12.1,1.7-4.4-1.5-7.7-4.3-8-9.2-.3-4.3.1-8.6.2-12.9Z"/>
        <path class="cls-2" d="m83.2,191.6c0-4,0-7.9,0-11.9,3.6-2,7.1-4.2,10.8-6,6.7-3.2,10.4-1.6,13.2,5.3,2.9,7,.9,13.1-5,15.5-2.9,1.2-4.7-.6-6.7-2-3.9-2.8-7.9-4.1-12.3-.9Z"/>
        <path class="cls-2" d="m127,112.2c-.8,5.3-.9,10.6,0,15.9-3.9-.4-5.5,2.3-7.3,5-2.9,4.4-5.4,4.6-9.2.9-2.1-2.1-3.9-4.5-4.9-7.4-2.6-7.4,1.2-12.6,9-12.4,4.3.1,8.6,1.2,12.4-1.9Z"/>
        <path class="cls-2" d="m50.3,194c1.9,3.5,5.7,5.1,8.1,8.1-.6,3.4-1.3,6.8-1.9,10.2-1.4,7.1-5.7,8.6-11.3,4-3.3-2.7-5.1-6.5-6.4-10.4-1-3,.7-5,2.9-6.8,2.4-2,5.8-2.5,7.9-5,0,0,.4,0,.4,0h.4Z"/>
        <path class="cls-6" d="m104.1,81.2c2.3-13.5,8.3-25.3,17-35.8,1.5-1.7,3.7-4.1,6.4-2.2,2.5,1.8,1.5,4.4.4,6.7-2,4.3-4,8.7-6.2,13-1.5,2.9,0,3.5,2.3,3.6-9.4,1.2-15,7.5-20,14.7Z"/>
        <path class="cls-2" d="m55.4,175.8c-1.9,3.5-6.4,5.4-6.2,10.2-3.4-.4-6.9-.7-10.3-1.1-4.2-.6-6.2-3.6-7.4-7.1-1-3,.2-5.5,2.5-7.5,3.1-2.6,6.2-2.5,9.6-.6,3.9,2.1,7.9,4.1,11.8,6.1Z"/>
        <path class="cls-6" d="m49.2,144.1c-3.6-1.8-7.4-.7-11.1-.6-1.3,0-2.6.5-3.9.6-2.5.2-4.8-.2-5.6-2.9-.9-2.9.7-4.7,3.2-5.8,6.7-2.9,13.7-3.7,20.8-2.8,3.3.4,6.5,1.2,9.7,1.8-4.6,3-10,4.8-13.1,9.7Z"/>
        <path class="cls-12" d="m66.4,121.1c-3.6,3.7-8.6,3.8-13.1,4.8-8.2,1.8-16.1,5-24.7,4.4-2-.1-4.1.2-5.2-2,5.6-4.3,11.9-7,18.9-8.2.9.3,1.6.1,2.2-.6,5.2-.5,10.5-.5,15.7,0,.9.9,2,.9,3.2.6,1,.3,2.2,0,3.1,1Z"/>
        <path class="cls-6" d="m85,81.2c0,5.8,0,11.5,0,17.3-1.5-5.8-1.5-11.5,0-17.3Z"/>
        <path class="cls-6" d="m66.1,133.8c3.1-1.1,6.2-1.1,9.2.2-3.1,0-6.2-.2-9.2-.2Z"/>
        <path class="cls-13" d="m61.2,200c2.9-2.4,4.9-1.3,6.3,1.8-2-.9-3.8-2.6-6.3-1.8Z"/>
        <path class="cls-6" d="m128,65.4c2.4-1.2,4.7-1.1,7.1,0-2.4,0-4.7,0-7.1,0Z"/>
        <path class="cls-6" d="m140.9,66.5c2.3.2,1.9-2.1,3-3.1-.2,1.8,1.5,5.3-3,3.1Z"/>
        <path class="cls-6" d="m143.9,49.6c-1.1-1.6-1.1-3.3-.8-5.1,1.2,1.6,1.1,3.3.8,5.1Z"/>
        <path class="cls-6" d="m36.2,154.9c1.8-1.2,3.5-1.1,5.2.1-1.7,0-3.5,0-5.2-.1Z"/>
        <path class="cls-6" d="m46.4,153.3c-.4-1.5-.3-2.9.8-4.2.2,1.5.3,2.9-.8,4.2Z"/>
        <path class="cls-6" d="m103,98.4c-.9-.9-1.1-2-.7-3.2.9.9,1,2,.7,3.2Z"/>
        <path class="cls-6" d="m63.3,120.1c-1.2.3-2.3.3-3.2-.6,1.2-.4,2.3-.3,3.2.6Z"/>
        <path class="cls-13" d="m51.4,190c.1,1.2.2,2.4-1.2,3-.2-1.2.1-2.3,1.2-3Z"/>
        <path class="cls-6" d="m103.2,83.4c-.2-.8-.1-1.5.8-2,.3.9,0,1.5-.8,2Z"/>
        <path class="cls-6" d="m87.3,108.2c.7.5,1,1.3.8,2.1-.7-.5-1.1-1.2-.8-2.1Z"/>
        <path class="cls-6" d="m118.8,195.9c0,.8,0,1.5-1.1,1.6,0-.7.3-1.3,1.1-1.6Z"/>
        <path class="cls-6" d="m110.2,148.8c-.6.2-1.2.3-1.8.5.3-1.3,1-1.2,1.8-.5Z"/>
        <path class="cls-6" d="m44.4,119.5c-.6.7-1.4.9-2.2.6.6-.8,1.3-.9,2.2-.6Z"/>
        <path class="cls-6" d="m99.2,158.3c0,.3,0,.6-.1.9-.2-.2-.5-.3-.7-.5.3-.1.5-.3.8-.4Z"/>
        <path class="cls-6" d="m124.2,66.5c.3-.5.6-.7,1.1-.2-.4,0-.7.2-1.1.2Z"/>
        <path class="cls-13" d="m50.3,194h-.4c0,0-.4,0-.4,0,.3-.4.5-.8.8-1.1,0,.4,0,.7,0,1.1Z"/>
        <path class="cls-13" d="m60,200.8c.4-.3.8-.6,1.2-.8-.4.3-.8.6-1.2.8Z"/>
        <path class="cls-13" d="m157.9,110.3c-1.4,2.6-.3,5.6-1,8.3-.7,2.6-2.3,4-5,4-2.7,0-4.8-1.2-5-3.8-.5-5.9-.9-11.9,3-17.1,6.1-.4,6.8.4,7.9,8.7Z"/>
        <path class="cls-13" d="m144.2,119.7c0,3.2-.8,5.6-4.6,5.5-3.5-.1-5.8-3.5-5.4-8.5.3-3.2.3-7,4.9-7.3,3.3-.2,5.3,4.1,5.2,10.3Z"/>
        <path class="cls-13" d="m77.4,183.8c0,1.2,0,2.3-.3,3.5-.3,1.5-1,2.8-2.3,3.7-1.8,1.4-3.8,1.4-5.4-.2-3.5-3.3-2.6-7.2-1.3-11.1.8-2.4,2.6-3.9,5.3-3.5,2.7.5,3.8,2.4,3.8,5,0,.8,0,1.7,0,2.5,0,0,0,0,.1,0Z"/>
        <path class="cls-13" d="m54.1,189.6c0-3.4,1-6.5,5-6.4,4.4,0,5.1,3.7,5,7.2,0,3.3-1,6.7-5.1,6.6-4.3-.1-5-3.6-5-7.3Z"/>
      </g>
      <g>
        <path class="cls-7" d="m1361.7,137.8c-14.3-8.1-17.8-20.5-9.2-34.1,1.3-2.1,1.1-3.1-.7-4.4-1-.6-1.8-1.5-2.8-2.1-31.7-16.4-44.4-51.1-39.1-83.3,2-12.1,7.3-15.6,19.5-13.2,21.5,4.2,40.8,12.7,55.4,29.8,3.2,3.8,6.3,7.8,8.1,12.5,1.1,3,2.8,3.6,5.9,3.6,10.7,0,19.7,4.2,26.4,12.6,4.9,6.1,6.5,13,3.4,20.5-.9,2.2-.2,2.8,1.5,4.5,5.4,5.5,10.8,4.1,17.2,2.5,13-3,26.1-2.3,38.5,3.4,12.4,5.7,24.5,11.8,34,22,6.7,7.2,8.4,9.3.6,18.8-8.6,10.4-20,17.8-33.7,20.8-1.6.3-3.3.1-4.6,1.5-1.6,1.7-3.2,2.7-.7,5.4,7.2,7.8,7.9,17.7,2.3,25.4-6.7,9.3-17.8,12.8-27.6,8.7-1.6-.7-2.7-1.7-4.5.4-6.5,7.5-15.9,9.6-23.2,5.8-8.1-4.3-12.6-14.9-10.2-24.4,1.4-5.5,4.5-10.3,7.3-15.1,3.6-3,7.3-5.9,12-7.6-6.9-1.3-12.7-4.4-17.5-9.1-1.4-1.4-2.2-1.1-3.6.1-11.1,9.6-26.3,8.1-35.3-3.4-1-1.3-1.6-2.4-3.5-1.6-5.3,2.3-10.7,1.1-16-.1Zm97.8-14.2h0c1.3.4,2.4.3,3-1.1h0c5,.2,10,.4,15,.7,5.4,2.4,8.2,6.6,9.1,12.3.7,1.3-2.3,4.3,1.9,4.1,8.5-3.5,15.7-8.9,22.8-14.7,2.3-1.9,2-3,0-5-6.3-6.2-13.9-10.5-21.8-14.2-5.4-3.7-11.6-5.6-17.9-7.2-.9-1-2-1-3.2-.6-3.6,0-7.3,0-10.9,0-.3,0-.7-.1-1-.2-2.7-.1-5.4-.7-7.9.9-.3,0-.7,0-1,.1-1.2-.3-2.2-.2-3.1.8-1.3.4-2.8,0-3.9,1.1-1.7,1.8-.9,4-.9,6.1,0,.6.2,1.2.3,1.9-1.7,4.1-3.4,8.2-5.1,12.3-3.4,1.5-6.2,4.3-10.1,4.9-1.1-.2-2.4-.8-2.8,1,1.2,3.1,5.2,4,6,7.4-1.1,2.3-.5,4.3,1.6,5.6,2.2,1.3,4.4,1.1,6.2-1.1.3,0,.6,0,.9,0,.3,0,.5.2.8.2,2.3,1.1,3.4.4,4.3-2,2.2-6,6.6-10,12.7-12.1.4.4.6.3.8-.2.4-.1.7-.2,1.1-.3,1.2.3,2.4.7,3.2-.8Zm-138.6-103.4v10.5c0,1.8-.3,3.6.9,5.2,0,.7.1,1.3.2,2-.3,1.4-.3,2.8.8,4,0,.4,0,.7.1,1.1-.3,1.1-.2,2.2.8,3,3.6,13.2,10.6,24.2,21.5,33.2,1.9-6.6,5.5-11.3,10-15.4,2.3-4.2,7.1-3.2,10.5-5,3.8,0,7.6-.3,11.4.6,1.5.3,3.4,2.8,4.7.4,1.3-2.3,3.7-4.5,2.2-7.7-2.7-5.7-5.6-11.2-10.7-15.3-8.4-10.2-19.7-15.6-31.9-19.7l-.2-.3h-.3c-.4,0-.8-.2-1.2-.3-1.3-.5-2.7-1-4-1.4-.8-1-1.8-1.1-3-.8-.7-.1-1.5-.2-2.2-.3-.4-.7-.9-.8-1.5-.5-1.2-.2-2.3-.4-3.5-.5-1.2-.8-2.4-1.4-3.6,0-.1.7-.3,1.4-.4,2.1-1.3,1.6-.8,3.5-.8,5.2Zm138.6,143.3c-.6-.2-1.2-.5-1.8-.7-4.1-4.2-3.8-5.9,1.8-10.2,4.8-2.6,10.8-3.5,13.6-9.1,1.6-2.6,1.7-5.4,0-7.8-2-2.6-4.9-2-7.7-1.4-4.1.8-7.8,2.2-11,5-3.6,2.1-4.7,5.6-5.7,9.3-1.5,6.7-4.7,12.4-10.3,16.7-6.4,4.1-9.7,12.6-7.3,18.7,1,2.6,2.5,4.7,5.7,4.6,3.3,0,5.6-1.5,6.8-4.7,1.1-3,1-6.1.6-9.2,2.3-6.7,4.8-7,10.4-1.1,1.2,1.7,2.4,3.5,3.8,5.1,3.4,4.3,8,4.8,12.5,1.4,4.4-3.3,4.9-6.8,1.7-11.8-3.2-4.9-8.5-3.6-13.1-4.6Zm-64.8-96.7c-.7.5-.9,1.1-.7,1.9-.7,1.8-.5,3.6,0,5.3,1.4,3.8,1.4,7.7.5,11.6-2.1,1.3-4.3,2.2-6.9,1.3-2.6-3.4-5.3-6.7-7.9-10.1-4.8-6-10.6-6.4-16.5-1.3-1.7,1-2.7,2.4-3.2,4.2-2.5,5.4-1.4,8.7,4,11.2,4.5,2,9.4,3,13.6,5.9,0,.3,0,.6.2.9,0,1.3,0,2.7.1,4-.8,1-1.5,1.9-2.3,2.9-2.4.6-4.8,1-7.2,1.8-4.1,1.3-7.9,6.5-7.6,10.6.3,4.2,2,7.6,6.3,9.2,4.9,1.9,8.6.3,11.6-3.8,1.6-2.3,3.5-4.4,5.2-6.6,2.2-.7,3.5-4,6.2-2.9,2.6,1,.9,3.7,1.2,5.6-.4,2.1-.7,4.2-1.1,6.3-.9,4.1-.3,7.6,3.7,9.8,4.3,2.4,8.8,3.1,13.2.6,1.9-1,2.3-3,2.6-5.1.8-5.5-2.2-9.5-5-13.6-.4-6.3,0-6.7,6-7.2,2.3,1,4.5,2.2,6.8,3,5.3,1.9,7,1,9.1-4.1.8-1.9,1.1-3.8,1.2-5.8,0-5.8-1.8-7.7-7.6-7.8-2.8,0-5.6.2-8.4.3-2-.9-5.1.8-6.2-2.4,0-1.3,0-2.7,0-4,.1-.3.1-.6.1-.9,2.7-2.4,5.4-4.7,8-7.2,6.1-5.7,5.7-10.4-1.1-15.7-1.8-2.1-4.2-2.8-6.7-3.5-7-2.4-8.2-2-10.3,3.5-.2.3-.4.7-.6,1,0,.3-.2.7-.3,1Z"/>
        <path class="cls-22" d="m1361.7,137.8c5.3,1.2,10.7,2.4,16,.1,1.9-.8,2.5.4,3.5,1.6,9,11.5,24.2,12.9,35.3,3.4,1.4-1.2,2.2-1.5,3.6-.1,4.8,4.8,10.5,7.9,17.5,9.1-4.7,1.6-8.4,4.5-12,7.6-1.1-.4-2.4-.5-3.2-1.2-3.4-2.9-6.9-3.2-11-1.8-8.5,2.8-15.4-1.8-22-6-2-1.3-3.4-1.6-5.8-1.2-8.6,1.7-19.9-4.4-21.8-11.5Z"/>
        <path class="cls-20" d="m1355.3,63.7c-4.5,4.1-8.1,8.7-10,15.4-10.9-9-17.9-20-21.5-33.2.2-1.1,0-2.1-.8-3,0-.4,0-.7-.1-1.1.2-1.4.1-2.8-.8-4,0-.7-.1-1.3-.2-2,0-1.7-.1-3.4-.2-5.1l-.2-10.7c0-1.7.2-3.5.2-5.2.1-.7.3-1.4.4-2.1,1.2,0,2.4,0,3.6,0,1.2.2,2.3.4,3.5.5.4.7.9.8,1.6.5.7.1,1.5.2,2.2.3.9.8,1.8,1.1,3,.8,1.3.5,2.7,1,4,1.4-.1,3.9,1.4,7,4.3,9.5,5.3,4.8,11.2,8.5,17.8,11.3,4.3,1.8,7.8,2.2,11.5-.6,5,4.1,7.9,9.6,10.7,15.3,1.5,3.2-.9,5.4-2.2,7.7-1.4,2.5-3.2,0-4.7-.4-3.8-.9-7.6-.5-11.4-.6-3-6.9-7.3-12.9-12.3-18.5-4.1-4.5-7.9-9.4-13.7-12.1-1.3-.6-3.1-2.1-4.5-.6-1.4,1.4-.2,3.1.5,4.6,2.4,4.9,5.5,9.4,8.5,13.9,3.9,5.7,8.5,11,10.9,17.6Z"/>
        <path class="cls-20" d="m1489.4,105.6c7.9,3.7,15.4,8,21.8,14.2,2,1.9,2.3,3.1,0,5-7.1,5.8-14.3,11.2-22.8,14.7-1.7-.8-.7-3-1.9-4.1-.8-5.7-3.7-10-9.1-12.3-4.9-2.7-9.9-2.6-15-.6,0,0,0,0,0,0-1.2-.2-2.4-.4-3,1.1,0,0,0,0,0,0-1.2-.4-2.3-.3-3.2.8-.4.1-.7.2-1.1.3-.3,0-.6.1-.8.2-6.1,2.1-10.5,6.1-12.7,12.1-.9,2.5-2.1,3.1-4.3,2-.3,0-.5-.2-.8-.2-.3,0-.6,0-.9,0-2.7-1.3-4.7-3.8-7.8-4.5-.8-3.4-4.7-4.3-6-7.4,1,0,2.1,0,2.8-1,3.9-.6,6.7-3.4,10.1-4.9,13.2-4.6,27-4.9,40.8-4.4.7,0,1.3,0,2,0,1.9-.3,4.3,0,4.7-2.6.4-2.6-1.9-3.3-3.6-4.1-2.7-1.3-5.7-1.7-8.6-2.2-10.1-1.9-20.1-.6-30.1,1.1,0-.6-.2-1.2-.3-1.9,1.3-1.9.8-4,.9-6.1,1.1-1,2.6-.8,3.9-1.1,1.1.3,2.2,0,3.1-.8.3,0,.7,0,1-.1,2.5-.1,5-.3,7.6-.4.2,2.2.9,4.4,3.4,4.9,9.9,1.9,19.6,5.4,29.9,2.5Z"/>
        <path class="cls-1" d="m1391.3,118.4c-.4-1.9,1.4-4.6-1.2-5.6-2.7-1.1-4,2.2-6.2,2.9-4.7-2.3-6.1-7-8.3-11.2.8-1,1.5-1.9,2.3-2.9,1.1-1.4,1-2.7-.1-4,0-.3-.1-.6-.2-.9,3.4-3.2,7.6-5.7,10.1-9.9,2.5.9,4.7,0,6.9-1.3,3.5,1.6,7.2,2.1,11,2.1,0,.3,0,.6-.1.9-1.2,1.3-1.2,2.6,0,4,1.1,3.3,4.2,1.5,6.2,2.4-.3,4.8.7,9.7-1,14.3-6,.5-6.4.9-6,7.2-4.4.6-8.9,1.3-13.3,1.9Zm3.2-20.2c.1,2.9-.2,5.6,1.9,7.8,1.4,1.5,3,2,4.9,1.5,1.8-.5,2.8-1.8,3.1-3.6.5-3.7.4-7.3-1.7-10.5-1-1.6-2.4-2.9-4.5-2.6-2.3.4-3.2,2.2-3.6,4.3-.2,1.1-.2,2.3-.2,3.1Zm-2.8,4.8c-.2-3.5-.8-6.9-5.1-7.1-3.5-.2-4.1,2.6-4,5.5,0,3.6.9,6.9,5,7.2,3.2.2,4.2-2.6,4.1-5.5Z"/>
        <path class="cls-9" d="m1440,108.6c10-1.7,20-3,30.1-1.1,2.9.5,5.9.9,8.6,2.2,1.7.8,4.1,1.5,3.6,4.1-.4,2.6-2.8,2.3-4.7,2.6-.7,0-1.3,0-2,0-13.8-.5-27.5-.2-40.8,4.4,1.7-4.1,3.4-8.2,5.1-12.3Z"/>
        <path class="cls-9" d="m1355.3,63.7c-2.4-6.6-7-11.9-10.9-17.6-3.1-4.5-6.1-9-8.5-13.9-.7-1.5-1.9-3.1-.5-4.6,1.5-1.5,3.2,0,4.5.6,5.7,2.6,9.6,7.5,13.7,12.1,5,5.5,9.2,11.6,12.3,18.5-3.4,1.8-8.2.8-10.5,5Z"/>
        <path class="cls-2" d="m1375.6,104.5c2.2,4.1,3.6,8.9,8.3,11.2-1.8,2.2-3.6,4.3-5.2,6.6-3,4.1-6.7,5.7-11.6,3.8-4.3-1.6-6-5-6.3-9.2-.3-4.1,3.5-9.2,7.6-10.6,2.3-.8,4.8-1.2,7.2-1.8Z"/>
        <path class="cls-2" d="m1391.3,118.4c4.4-.6,8.9-1.3,13.3-1.9,2.8,4.1,5.8,8.1,5,13.6-.3,2.1-.7,4.1-2.6,5.1-4.5,2.4-8.9,1.8-13.2-.6-4-2.2-4.6-5.7-3.7-9.8.5-2.1.8-4.2,1.1-6.3Z"/>
        <path class="cls-1" d="m1438.4,165.1c5.6-4.2,8.7-10,10.3-16.7,4.2,0,8.4-.4,10.8,4.1-5.6,4.4-5.9,6.1-1.8,10.2-.6,1.5-1.5,2.9-1.2,4.7,0,1,0,1.9,0,2.9-.7,1-1.3,2-2,3-5.7-5.8-8.1-5.6-10.4,1.1-4.2-1.7-5.7-5-5.8-9.3Z"/>
        <path class="cls-28" d="m1373.5,36.7c-3.7,2.8-7.2,2.4-11.5.6-6.6-2.9-12.5-6.6-17.8-11.3-2.9-2.6-4.4-5.7-4.3-9.5.4.1.8.3,1.2.4,0,0,.2.2.2.2h.3c12.2,4,23.5,9.4,31.9,19.7Z"/>
        <path class="cls-2" d="m1410.6,109.4c1.7-4.7.7-9.6,1-14.3,2.8-.1,5.6-.3,8.4-.3,5.8,0,7.6,1.9,7.6,7.8,0,2-.4,3.9-1.2,5.8-2.1,5.2-3.7,6-9.1,4.1-2.3-.8-4.5-2-6.8-3Z"/>
        <path class="cls-2" d="m1387.7,86.9c-2.5,4.1-6.7,6.7-10.1,9.9-4.1-2.9-9.1-3.8-13.6-5.9-5.4-2.4-6.5-5.8-4-11.2.2.6.7,1.2.7,1.8-.3,3.2.9,5.8,3.8,6.8,3.2,1,6.6.9,9.4-1.4,2.3-2,4.8-4.3,3.3-7.6-1.6-3.3-4.7-5.2-8.6-4.3-1.8.4-3.5.9-5.4.5,6-5.1,11.7-4.7,16.5,1.3,2.7,3.3,5.3,6.7,7.9,10.1Z"/>
        <path class="cls-11" d="m1393.9,68.7c-.1-.8,0-1.4.7-1.9.1,0,.4-.1.4-.2,0-.3,0-.5-.1-.8.2-.3.4-.7.6-1,3.3-1.7,7.3-1.1,10.3-3.5,2.5.7,4.9,1.5,6.7,3.5-1.1.9-.5,1.7.1,2.5,1.8,2.5,3.1,5.1.8,8.1-2.2,2.8-4.9,2.4-8.1,1.8-5.4-.9-9-3.8-11.4-8.5Z"/>
        <path class="cls-2" d="m1393.9,68.7c2.4,4.7,6,7.6,11.4,8.5,3.1.5,5.9,1,8.1-1.8,2.3-3,1-5.6-.8-8.1-.6-.8-1.2-1.6-.1-2.5,6.8,5.3,7.2,10,1.1,15.7-2.6,2.5-5.4,4.8-8,7.2-3.8,0-7.5-.5-11-2.1.8-3.9.8-7.7-.5-11.6-.6-1.7-.7-3.5,0-5.3Z"/>
        <path class="cls-2" d="m1438.4,165.1c0,4.3,1.5,7.6,5.8,9.3.3,3.1.5,6.2-.6,9.3-1.2,3.2-3.5,4.7-6.8,4.7-3.2,0-4.7-2-5.7-4.6-2.4-6,1-14.5,7.3-18.7Z"/>
        <path class="cls-11" d="m1363.2,75.5c1.8.4,3.6,0,5.4-.5,3.9-.9,7.1,1,8.6,4.3,1.5,3.2-1,5.6-3.3,7.6-2.8,2.4-6.3,2.4-9.4,1.4-3-.9-4.1-3.6-3.8-6.8,0-.6-.4-1.2-.7-1.8.6-1.8,1.6-3.3,3.2-4.2Z"/>
        <path class="cls-28" d="m1489.4,105.6c-10.3,2.8-20-.6-29.9-2.5-2.5-.5-3.1-2.6-3.4-4.9h.1c.4-.1.8-.2,1.2-.3,3.6,0,7.3,0,10.9,0,.9.7,2,.9,3.2.6,6.3,1.5,12.5,3.4,17.9,7.2Z"/>
        <path class="cls-11" d="m1454.3,139.2c3.1-2.8,6.9-4.2,11-5,2.8-.6,5.7-1.2,7.7,1.4,1.8,2.4,1.7,5.2,0,7.8-2.7-.3-5.2.7-7.7,1.3-7.4,1.7-8.2,1.4-11.1-5.5Z"/>
        <path class="cls-2" d="m1454.6,173.3c.7-1,1.3-2,2-3,1.9.8,3.8,1.8,5.8,2.5,4.7,1.5,8.3-.3,10.2-4.7,3.2,5.1,2.7,8.6-1.7,11.8-4.5,3.3-9.1,2.8-12.5-1.4-1.3-1.7-2.5-3.4-3.8-5.1Z"/>
        <path class="cls-2" d="m1454.3,139.2c2.9,6.9,3.6,7.2,11.1,5.5,2.5-.6,5-1.6,7.7-1.3-2.8,5.6-8.8,6.5-13.6,9.1-2.4-4.5-6.7-4.2-10.8-4.1.9-3.7,2.1-7.2,5.7-9.3Z"/>
        <path class="cls-11" d="m1472.6,168c-1.9,4.5-5.5,6.2-10.2,4.7-2-.6-3.9-1.6-5.8-2.5,0-1,0-1.9,0-2.9,2.2-.4,2.6-2.2,2.9-4,4.6.9,9.9-.3,13.1,4.6Z"/>
        <path class="cls-9" d="m1427.9,134.2c3.1.7,5.1,3.2,7.8,4.5-1.7,2.1-4,2.4-6.2,1.1-2.1-1.3-2.7-3.3-1.6-5.6Z"/>
        <path class="cls-2" d="m1405.8,61.3c-3,2.4-7,1.8-10.3,3.5,2.1-5.5,3.2-5.9,10.3-3.5Z"/>
        <path class="cls-9" d="m1462.4,122.5c5.1-1.9,10.1-2,15,.6-5-.2-10-.4-15-.6Z"/>
        <path class="cls-9" d="m1321.5,20.1c0,3.6.1,7.1.2,10.7-.2,0-.5,0-.7,0,0-3.5,0-7,0-10.5,0,0,.3,0,.3,0,0,0,.3,0,.3,0Z"/>
        <path class="cls-2" d="m1459.5,163.5c-.4,1.8-.7,3.6-2.9,4-.4-1.7.5-3.2,1.2-4.7.6.2,1.2.5,1.8.7Z"/>
        <path class="cls-8" d="m1456.1,98.2c-2.5.1-5,.3-7.6.4,2.5-1.6,5.2-1,7.9-.9,0,.2-.1.4-.2.5,0,0-.1,0-.1,0Z"/>
        <path class="cls-8" d="m1440.6,100.7c0,2.1.5,4.2-.9,6.1,0-2.1-.8-4.3.9-6.1Z"/>
        <path class="cls-8" d="m1486.5,135.5c1.2,1.1.1,3.2,1.9,4.1-4.1.3-1.2-2.8-1.9-4.1Z"/>
        <path class="cls-8" d="m1321,30.7c.2,0,.4.1.7,0,0,1.7.1,3.4.2,5.1-1.2-1.6-.9-3.4-.9-5.2Z"/>
        <path class="cls-8" d="m1321.5,20.1h-.3s-.3,0-.3,0c0-1.8-.5-3.6.8-5.2,0,1.7-.2,3.5-.2,5.2Z"/>
        <path class="cls-8" d="m1322,37.9c.9,1.2,1.1,2.5.8,4-1.1-1.2-1.1-2.5-.8-4Z"/>
        <path class="cls-8" d="m1377.7,97.7c1.2,1.3,1.2,2.6.1,4,0-1.3,0-2.7-.1-4Z"/>
        <path class="cls-8" d="m1405.4,92.6c-1.1-1.3-1.2-2.7,0-4,0,1.3,0,2.7,0,4Z"/>
        <path class="cls-9" d="m1325.6,12.8c-1.2,0-2.4,0-3.6,0,1.2-1.4,2.4-.8,3.6,0Z"/>
        <path class="cls-8" d="m1335.8,14.9c-1.1.2-2.1,0-3-.8,1.2-.3,2.2-.1,3,.8Z"/>
        <path class="cls-8" d="m1323,42.9c.7.9,1.1,1.8.8,3-1-.8-1.1-1.8-.8-3Z"/>
        <path class="cls-8" d="m1471.5,98.5c-1.2.3-2.2,0-3.2-.6,1.2-.4,2.3-.4,3.2.6Z"/>
        <path class="cls-9" d="m1459.5,123.6c.6-1.5,1.8-1.3,3-1.1-.6,1.4-1.7,1.5-3,1.1Z"/>
        <path class="cls-8" d="m1447.5,98.8c-.9.8-1.9,1-3.1.8.8-1,1.9-1,3.1-.8Z"/>
        <path class="cls-9" d="m1456.3,124.4c.8-1.1,1.9-1.3,3.2-.8-.7,1.5-2,1.2-3.2.8Z"/>
        <path class="cls-8" d="m1424.7,125.8c-.7,1-1.8.9-2.8,1,.4-1.7,1.7-1.2,2.8-1Z"/>
        <path class="cls-9" d="m1330.7,13.8c-.7.3-1.2.2-1.6-.5.7-.3,1.2-.2,1.6.5Z"/>
        <polygon class="cls-20" points="1341.6 17 1341.3 17 1341.1 16.8 1341.4 16.6 1341.6 17"/>
        <path class="cls-4" d="m1456.2,98.2c0-.2.1-.4.2-.5.3,0,.7.1,1,.2-.4.1-.8.2-1.2.4Z"/>
        <path class="cls-9" d="m1436.6,138.8c.3,0,.5.2.8.2-.3,0-.5-.2-.8-.2Z"/>
        <path class="cls-2" d="m1394.9,65.8c0,.3.1.5.1.8,0,0-.3.1-.4.2,0-.3.2-.7.3-1Z"/>
        <path class="cls-8" d="m1454.4,124.9c.3,0,.6-.1.8-.2-.2.5-.5.5-.8.2Z"/>
        <path class="cls-13" d="m1394.5,98.2c0-.8,0-2,.2-3.1.4-2,1.2-3.9,3.6-4.3,2.1-.4,3.4,1,4.5,2.6,2.1,3.2,2.2,6.9,1.7,10.5-.2,1.7-1.3,3.1-3.1,3.6-1.9.5-3.5,0-4.9-1.5-2.1-2.2-1.8-4.9-1.9-7.8Z"/>
        <path class="cls-13" d="m1391.7,103c0,3-.9,5.7-4.1,5.5-4.1-.2-5-3.6-5-7.2,0-2.9.6-5.7,4-5.5,4.2.2,4.9,3.7,5.1,7.1Z"/>
      </g>
      <g>
        <path class="cls-7" d="m120.6,1382c3.7.4,7.1.5,10.6,1.1,10.5,1.7,18.2,9.2,20.3,19.7.4,1.9.9,2.7,2.8,2.1,12.7-3.7,23.4,7.3,25.9,21.2.7,4.2.9,8.6-.6,12.8-.7,1.9-.5,2.8,1.6,3.6,25.3,9.6,35.9,25,35.9,52.1,0,9-5.8,16.2-14.9,18.4-25.8,6-47-1.2-63.9-21.7-3.4-4.1-9.6-4.2-13.5-7.8-.2-.1-1.1.6-1.7.9-10.4,5.5-23.3,3.4-31.2-5.4-5.5-6.1-5.6-13.3-3.2-20.5.8-2.4.7-3.4-1.8-4.3-2.8-1-12.5-2.4-15.9-2.4-10.6.2-20.6-2.1-30.4-6.2-8.3-3.6-16-8-22.7-14.2-9.1-8.4-9.3-16.1-.6-24.8,3.7-3.8,7.8-7.3,12.7-9.4,2.2-.9,2.8-1.5,1.7-4.2-4.2-10-5.8-19.9,3.8-28.1,1.4-1.2.4-2-.2-2.8-6.2-7.9-4.9-18.9,2.4-26.8,6.7-7.2,15.6-8.6,25.4-3.5,2.1,1.1,3.2,1,4.4-.9,5.6-8.6,18.3-9.9,24.5-7.3,8.5,3.6,13.8,12.7,13.4,23,0,1.6-1.1,3.2,1.5,4.4,13.8,6.4,17.6,14.7,13.9,29.5,0,.3,0,.6-.2,1.4Zm-76.8,23.4c-.9-.2-1.6,0-2.2.7-6.6.7-11.1,4.8-15.4,9.2-2.4,2.5-2.3,4.5.3,6.6,8.9,7.3,18.7,13,30.1,15.3.9.7,1.9,1,3,.7,1,0,2,.1,3,.2v.3c1.1,1,2.5.9,3.9.7,2,.1,3.9.2,5.9.3,1.5.9,3.2,1.1,3-1.1-.2-3,1-6.2-.9-9l-1-1.1c-.2-5.2-3.1-8.9-6.9-12-.4-.9-1.1-1.6-2.1-1.9-2-2.4-4.1-4.8-5.2-7.8-.9-2.6-2.5-2.7-4.6-2-2.7,0-5.5-.4-8.1.7-.9,0-1.9.2-2.8.2Zm148.2,97.4c2.7,0,5.5.6,8-.9.3,0,.7-.2,1-.2.9.3,1.5,0,2-.8.3,0,.6,0,.9-.2,2-3.9,1.2-7.9.3-11.9-1.8-15.3-7.8-27.7-23.1-33.7-.5-.6-1.1-1-1.9-.7-.4,0-.8-.1-1.2-.2-1.3-1.4-3.2-1.5-4.9-2.1-.8-.9-1.8-1.1-2.9-.9-2.8-1-5.2.6-7.8,1.1-2.1.8-1.3,1.7-.1,2.7,2.4,3.6,4.7,7.3,3.9,12-1.6,5-3.1,10-4.7,15-1.4,3.2-4.7,4.4-7.5,6.8,7.3,6.8,15.5,11.3,25.2,13.1,4.2,1.8,8.6.7,12.9.9Zm-89.5-107.2c-2.2-.4-3.9-.4-3.6,2.7.2,2.1-.2,4.3-.7,6.3-.3,1.4-.9,2.5,1.3,2.7,2,.2,2-1,2.2-2.4.4-2.9,1-5.8,1.6-8.7.3-.8-.1-.8-.7-.7Zm-21-59.9c-5.7,2-7.7,5-7.5,11.8-.8,3.9,0,8.1-1.5,11.9-1,.4-2,.9-2.9,1.3-4.2-2.2-4.8-7.2-8-10.2-.4-1.1-.8-2.2-1.3-3.2-2.6-4.7-6.1-6.4-10-4.9-4.2,1.6-6.6,6.3-5.8,11.1.5,1,.8,2.2,1.4,3.1,2.5,3.4,5.7,5.9,9,8.4,1.6,1.2,3.2,2.5,2.8,4.9-.4,2.6-2.5,3.4-4.6,3.9-2.2.5-4.6.6-6.8.9-3.2.3-4.6,1.9-4.6,5.2,0,5.8,2.5,11.1,7.1,12.5,5.1,1.5,8.8-1.2,12-4.9,2.5-1.6,5.1-3.6,8.1-1.7,3,1.9,1.4,5,1.1,7.6-.9,4.2.6,7.8,3.1,11.1,3.8,4.8,9.7,4.1,12.2-1.5,2.1-4.5,1-8.7-1.3-12.7-3.1-7.8-.3-12,6.6-9.9,1.8.8,3.6,1.5,5.5,2.3,8.6,3.4,13.1.4,13.7-9,.6-1.1.6-2.1,0-3.2-1-5.6-2.9-7.2-9.3-7.5-1-.3-2.1-.4-3,.2-1.2.1-2.4.3-3.2,1.3-1.8.6-3.5,1.3-5.3,1.9-2.2-.8-3.8-2.1-3.6-4.7,1-2.5,2.6-4.5,4.1-6.6,2.9-4,4.7-8.3,2.8-13.3-1.1-3.3-3-5.6-6.6-6.2-1.5-1-2.8-.3-4.1.4Zm85.3,91.5c-.2-.6-.5-1.3-.7-1.9l-.3-1c-1.5-3.5-3.1-6.7-7.6-6.8-.9-.3-1.7-.2-2.5.3-4.7.8-8.8,2.4-10.5,7.4-.9,1-1.8,2-2.7,3-1.1,0-2.2,0-3.3-.1-.9-.9-1.8-1.8-2.7-2.7,0,0-.3-.1-.3-.1,1.2-4.2,2.6-8.4,3.6-12.7.8-3.4,2.4-7-.7-10.2-4.3-6.5-10.6-7.9-17.8-6.8-.9-.2-1.6,0-2.1.8-1.7.7-2.7,1.9-3,3.7-1,.8-1.2,2-1.3,3.2,0,.7-.2,1.4-.3,2.1-.9,3.1.3,5.8,1.4,8.6,1,2.8,2.3,5.5,2.4,8.5,0,4-1.9,5.5-5.5,3.8-2.4-1.1-4.4-2.8-6.7-4.2-9.5-6-17.9-1.8-18.7,9.4,0,1.2,0,2.3,0,3.5.1,5.9,2.3,8.2,8.1,9.3,5.2.9,10.5,1,15.8.7,3.1,1.3,3.6,3.4,2,6.2-3.4,2.3-6.8,4.6-10.1,7-3.9,2.9-5.2,7.1-3.5,11.4,1.7,4.6,6.1,6,10.7,6.6,4.7.6,7.4-1.5,9.2-5.7,1.6-3.9,2.5-8.2,5.7-11.4,1.7-1.2,3.4-1.2,5,.3.5,2.8,1.6,5.4,1.3,8.3-.5,5.3,2.6,8.2,7.2,9.1,4.4.9,9.6,2.3,13-2,3.5-4.4,2.6-9.3-.6-13.8-2.3-3.3-3.8-6.9-4.8-10.8.2-3.2.8-6.2,4.1-7.6,3-.9,6-1.7,9-2.6,7.8-2.4,9.1-4.6,7.5-12.8Z"/>
        <path class="cls-24" d="m201,1501.7c-.3,0-.7.2-1,.2-2.6,0-5.2.2-7.7.2-4.4,0-8.8-.1-13.2-.2-9.6-1.9-17.9-6.3-25.2-13.1,2.7-2.4,6.1-3.5,7.5-6.8,6.2,3.1,11.6,7.8,18.7,9,1.7,1.4,3.3,1.3,5,0,1.7-.1,3.5-.3,3.8-2.4.2-2.1-1.6-3.2-3.1-4.1-6.7-3.9-12.9-8.3-18.7-13.4,1.8-6.8,4.5-13,10.8-16.9.4,0,.8.1,1.2.2.5.7,1.1.8,1.9.7,15.3,6,21.3,18.5,23.1,33.7,0,4-.2,7.9-.3,11.9-.3.1-.6.2-.9.2-.8-.1-1.5,0-2,.8Z"/>
        <path class="cls-2" d="m139.1,1402.3c3.1,3.2,1.4,6.8.7,10.2-1,4.3-2.4,8.5-3.6,12.7-5.6.3-11.3.5-14.9,6-.2.2-.4.2-.6.3-6,1-9,5.3-9.4,13.3-5.3.2-10.5.2-15.8-.7-5.8-1-8-3.4-8.1-9.3,0-1.2,0-2.3,0-3.5.7-11.2,9.1-15.4,18.7-9.4,2.2,1.4,4.3,3.2,6.7,4.2,3.7,1.7,5.6.2,5.5-3.8,0-3.1-1.3-5.8-2.4-8.5-1-2.8-2.3-5.5-1.4-8.6,5.1,1.8,10.2,3.5,15.2,5.3,4.2,1.5,6.6.2,7.4-4.3.3-1.5-.7-3.5,1.8-3.9Z"/>
        <path class="cls-24" d="m56.5,1437.2c-11.5-2.3-21.2-8-30.1-15.3-2.6-2.1-2.7-4.1-.3-6.6,4.4-4.4,8.9-8.5,15.4-9.2.7,0,1.3,0,2,0,1.7,0,3.5.5,5.1-.6,1.6,0,3.2,0,4.8,0,.4,2.3,2.5,3.3,3.8,4.9,1.2,1.6,2.4,3.1-.7,3.8-.6,0-1.3,0-1.9-.1-2.7-1.4-5.4-1.3-8,0-1.9.3-3.9.5-5.8.9-1.2.3-2.8.5-2.8,2.2,0,1.3,1.3,1.7,2.2,2.4,2.5,2,5.4,3,8.4,3.8.8,1,1.9.9,3.1.8.3,0,.6,0,.9,0,1.1,1.3,2.6.9,4.1.9.6,0,1.3.1,1.9.2,1.1,1.2,2.6.8,4,.9.6.1,1.2.2,1.8.3,1,4.1-.8,7.8-1.8,11.6-1,0-2-.1-3-.2-.8-1-1.9-.9-3-.7Z"/>
        <path class="cls-14" d="m121.3,1431.2c3.5-5.6,9.2-5.7,14.9-6,0,0,.3.1.3.1-.1,1.9,1,2.6,2.7,2.7,1.1,0,2.2,0,3.3.1,2.6-.4,3.9,1.4,5.2,3.1,2.6,3.3,2.8,7.3,2.7,11.3-3.4,1.4-4,4.4-4.1,7.6-4.3,5-10.3,6.8-16,9.1-1.6-1.5-3.2-1.4-5-.3-4.6-1.7-9.3-3.4-11.9-8.1,1.6-2.8,1.2-4.9-2-6.2.4-8,3.4-12.3,9.4-13.3-3.3,4-3.1,8.7-2.2,13.2.6,3,2.7,5,6.1,4.5,3.1-.4,3.9-2.7,3.9-5.4,0-2.1,0-4.3-.4-6.4-.6-3.8-2.4-6.5-6.9-6.2Zm21,7.8c0-.6-.2-2.2-.6-3.8-.5-2.3-.9-4.8-3.9-4.9-3,0-4.3,2-5.3,4.4-1.1,2.8-1.5,5.7-1.3,8.7.1,2.9,1,5.2,4.2,5.8,3.2.6,4.9-1.3,6.1-3.9.8-1.7.9-3.5.9-6.4Z"/>
        <path class="cls-14" d="m90.5,1380.3c-6.9-2.1-9.7,2-6.6,9.9-4.5,1.7-8.9,4.1-14.1,3.2.4-2.7,1.9-5.7-1.1-7.6-3-1.9-5.6,0-8.1,1.7-4.6-13.9-3.4-17.7,8.3-26,.3-.2.4-.5.6-.8,1-.4,2-.9,2.9-1.3,4,2.1,8.7.3,12.8,2.1-.2,2.7,1.4,3.9,3.6,4.7.2.4.4.8.6,1.2-1.7,1.8-1.4,4.2-.7,6,1,2.3,1.9,4.4,1.7,6.9Zm-17.2-7.7c0,3.9.1,7.7,4.8,7.6,4.2,0,4.9-3.6,4.5-6.9-.4-3.5.7-8.8-4.7-8.7-4.9,0-3.9,5.1-4.6,8Zm-2.6,1.7c-.7-2.5-.5-5.9-4.6-6.1-2.8-.1-3.5,1.8-3.5,4.2,0,3.3.9,6.1,4.5,6.5,2.5.2,3.6-1.9,3.7-4.6Z"/>
        <path class="cls-2" d="m69.5,1360.7c-.2.3-.3.6-.6.8-11.7,8.3-12.9,12.1-8.3,26-3.1,3.7-6.9,6.4-12,4.9-4.6-1.4-7.2-6.7-7.1-12.5,0-3.3,1.5-4.9,4.6-5.2,2.3-.2,4.6-.3,6.8-.9,2.1-.5,4.2-1.3,4.6-3.9.4-2.3-1.3-3.7-2.8-4.9-3.3-2.5-6.5-5.1-9-8.4-.7-.9-1-2-1.4-3.1,3.6,0,7.3-.2,10.9,0,2.8.2,4.8-.7,6.2-3,3.3,2.9,3.8,8,8,10.2Z"/>
        <path class="cls-2" d="m130.1,1459.3c5.8-2.3,11.8-4.2,16-9.1,1,3.9,2.5,7.5,4.8,10.8,3.2,4.5,4.2,9.3.6,13.8-3.4,4.3-8.6,2.9-13,2-4.6-.9-7.7-3.8-7.2-9.1.3-2.9-.8-5.5-1.3-8.3Z"/>
        <path class="cls-2" d="m113.3,1451c2.6,4.7,7.3,6.3,11.9,8.1-3.1,3.2-4,7.5-5.7,11.4-1.7,4.1-4.4,6.3-9.2,5.7-4.6-.6-9-2-10.7-6.6-1.6-4.3-.3-8.5,3.5-11.4,3.3-2.5,6.7-4.7,10.1-7Z"/>
        <path class="cls-16" d="m48.6,1423.3c-3-.8-5.9-1.8-8.4-3.8-.9-.7-2.2-1.1-2.2-2.4,0-1.7,1.6-1.9,2.8-2.2,1.9-.4,3.8-.6,5.8-.9,2.7,0,5.4,0,8,0,.6,0,1.3,0,1.9.1,2.4,1.9,5.3.5,7.9,1.2.7.2,1.5.5,2.2.7,3.8,3.1,6.8,6.8,6.9,12-3.1-.6-6.2-1.1-9.2-1.7-.6-.1-1.2-.2-1.8-.3-1.1-1.3-2.6-1-4-.9-.6,0-1.3-.1-1.9-.2-1.1-1.3-2.6-.9-4.1-.9-.3,0-.6,0-.9,0-.8-1.1-1.9-1-3.1-.8Z"/>
        <path class="cls-16" d="m167.1,1471.1c5.8,5.1,12.1,9.5,18.7,13.4,1.5.9,3.3,2,3.1,4.1-.2,2.1-2.1,2.3-3.8,2.4-1.7,0-3.4,0-5,0-7.1-1.2-12.5-5.8-18.7-9,1.6-5,3.1-10,4.7-15,.4,1.3-.5,3,1,4.1Z"/>
        <path class="cls-17" d="m139.1,1402.3c-2.6.4-1.6,2.5-1.8,3.9-.8,4.5-3.2,5.8-7.4,4.3-5.1-1.8-10.1-3.5-15.2-5.3,0-.7.2-1.4.3-2.1,1.8-.5,1.4-1.9,1.3-3.2.4-1.8,1.3-3,3-3.7.8,0,1.6,0,2.1-.8,7.2-1.1,13.5.3,17.8,6.8Z"/>
        <path class="cls-17" d="m145.1,1425.1c1.7-5,5.8-6.7,10.5-7.4.9.5,1.8.5,2.5-.3,4.5,0,6.1,3.3,7.6,6.8,0,.1-.3.3-.2.4.1.2.3.4.5.6.2.6.5,1.3.7,1.9-4,5-8.8,6-14.6,3.1-2.8-1.3-4.6-3.7-7.1-5.2Z"/>
        <path class="cls-17" d="m89.4,1367.4c-.2-.4-.4-.8-.6-1.2,1.8-.6,3.5-1.3,5.3-1.9,1.3,0,2.6.4,3.2-1.3,1-.6,2-.5,3-.2,1.8,4.1,6.4,4.8,9.3,7.5.6,1,.6,2.1,0,3.2-.6.2-1.5.1-1.8.5-2.6,3.9-6.2,3.5-10.4,3.6-5.8.1-6.1-3.7-7-7.5-.2-.9-.7-1.8-1.1-2.8Z"/>
        <path class="cls-2" d="m69.7,1393.3c5.1.9,9.5-1.5,14.1-3.2,2.3,4.1,3.3,8.3,1.3,12.7-2.6,5.6-8.5,6.3-12.2,1.5-2.5-3.2-4-6.8-3.1-11.1Z"/>
        <path class="cls-2" d="m85.3,1361.5c-4.1-1.8-8.8,0-12.8-2.1,1.5-3.9.7-8,1.5-11.9.6.2,1.2.5,1.9.6,10.9,2.7,14.3,1.3,16.3-6.5,1.9,5,.1,9.3-2.8,13.3-1.6,2.1-3.1,4.2-4.1,6.6Z"/>
        <path class="cls-17" d="m92.2,1341.6c-2.1,7.9-5.5,9.2-16.3,6.5-.6-.2-1.2-.4-1.9-.6-.1-6.8,1.8-9.8,7.5-11.8,1.5,1.3,2.9,1.3,4.1-.4,3.6.6,5.5,3,6.6,6.2Z"/>
        <path class="cls-2" d="m145.1,1425.1c2.6,1.4,4.4,3.8,7.1,5.2,5.8,2.8,10.6,1.8,14.6-3.1,1.6,8.2.3,10.4-7.5,12.8-3,.9-6,1.7-9,2.6,0-4,0-7.9-2.7-11.3-1.3-1.7-2.7-3.5-5.2-3.1.9-1,1.8-2,2.7-3Z"/>
        <path class="cls-17" d="m61.5,1350.5c-1.4,2.3-3.4,3.2-6.2,3-3.6-.2-7.3,0-10.9,0-.8-4.8,1.6-9.5,5.8-11.1,3.9-1.5,7.4.2,10,4.9.5,1,.9,2.1,1.3,3.2Z"/>
        <path class="cls-29" d="m167.1,1471.1c-1.6-1.1-.6-2.8-1-4.1.8-4.7-1.4-8.4-3.9-12,0-.9,0-1.8.1-2.7,2.6-.5,5-2.1,7.8-1.1.8.9,1.8,1,2.9.9,1.7.6,3.6.7,4.9,2.1-6.3,3.9-9,10.1-10.8,16.9Z"/>
        <path class="cls-2" d="m89.4,1367.4c.4.9.8,1.8,1.1,2.8,1,3.8,1.2,7.6,7,7.5,4.1,0,7.8.3,10.4-3.6.3-.4,1.2-.4,1.8-.5-.6,9.5-5.1,12.4-13.7,9-1.8-.7-3.7-1.5-5.5-2.3.3-2.5-.6-4.6-1.7-6.9-.8-1.7-1.1-4.1.7-6Z"/>
        <path class="cls-29" d="m64.3,1426.5c3.1.6,6.2,1.1,9.2,1.7.3.4.6.7,1,1.1,0,1.8,0,3.6,0,5.4,0,1.8.9,4.1-2.1,4.7-2-.1-3.9-.2-5.9-.3-1.2-1.1-2.6-1-4.1-.7,0,0,.1-.3.1-.3,1-3.8,2.7-7.5,1.8-11.6Z"/>
        <path class="cls-29" d="m64.4,1415.4c-2.6-.7-5.5.7-7.9-1.2,3.1-.7,2-2.2.7-3.8-1.3-1.6-3.4-2.6-3.8-4.9.4-.4.8-.7,1.2-1.1,2.1-.8,3.7-.6,4.6,2,1.1,3,3.2,5.4,5.2,7.8,0,.4,0,.8-.1,1.2Z"/>
        <path class="cls-2" d="m103.2,1396.3c-.5,2.9-1.1,5.8-1.6,8.7-.2,1.4-.2,2.6-2.2,2.4-2.2-.2-1.6-1.3-1.3-2.7.4-2.1.8-4.2.7-6.3-.2-3.1,1.4-3.2,3.6-2.7.2.2.5.4.7.7Z"/>
        <path class="cls-2" d="m109.6,1370.3c-2.9-2.8-7.4-3.5-9.3-7.5,6.4.4,8.3,1.9,9.3,7.5Z"/>
        <path class="cls-18" d="m72.4,1439.4c3-.6,2-2.9,2.1-4.7,0-1.8,0-3.6,0-5.4,1.9,2.8.7,6,.9,9,.1,2.3-1.5,2-3,1.1Z"/>
        <path class="cls-29" d="m179.1,1501.9c4.4,0,8.8.1,13.2.2,0,.2-.2.4-.3.7-4.3-.2-8.7.9-12.9-.9Z"/>
        <path class="cls-18" d="m203.9,1500.7c0-4,.2-7.9.3-11.9.9,4,1.7,8-.3,11.9Z"/>
        <path class="cls-18" d="m192,1502.8c0-.2.2-.4.3-.7,2.6,0,5.2-.2,7.7-.2-2.5,1.5-5.3,1-8,.9Z"/>
        <path class="cls-18" d="m54.7,1404.5c-.4.4-.8.7-1.2,1.1-1.6,0-3.2,0-4.8,0-.7-.1-1.4-.2-2.1-.3,2.6-1.2,5.4-.7,8.1-.7Z"/>
        <path class="cls-2" d="m85.6,1335.3c-1.2,1.7-2.6,1.6-4.1.4,1.3-.7,2.6-1.3,4.1-.4Z"/>
        <path class="cls-29" d="m46.6,1405.2c.7.1,1.4.2,2.1.3-1.6,1-3.4.6-5.1.6,0-.2.1-.4.2-.7.9,0,1.9-.2,2.8-.2Z"/>
        <path class="cls-27" d="m139.1,1428.1c-1.7-.1-2.8-.8-2.7-2.7.9.9,1.8,1.8,2.7,2.7Z"/>
        <path class="cls-18" d="m62.5,1438.4c1.4-.3,2.9-.4,4.1.7-1.4.2-2.8.3-4.1-.7Z"/>
        <path class="cls-2" d="m97.3,1363c-.5,1.7-1.9,1.4-3.2,1.3.8-1,2-1.1,3.2-1.3Z"/>
        <path class="cls-29" d="m56.5,1437.2c1.1-.2,2.2-.3,3,.7-1.1.3-2.1,0-3-.7Z"/>
        <path class="cls-18" d="m64.4,1415.4c0-.4,0-.8.1-1.2,1,.3,1.7,1,2.1,1.9-.7-.2-1.5-.5-2.2-.7Z"/>
        <path class="cls-18" d="m173,1452.1c-1.1.1-2.1,0-2.9-.9,1.1-.3,2.1,0,2.9.9Z"/>
        <path class="cls-18" d="m162.3,1452.3c0,.9,0,1.8-.1,2.7-1.2-1-2-1.9.1-2.7Z"/>
        <path class="cls-2" d="m116.2,1400c0,1.3.4,2.7-1.3,3.2.2-1.2.3-2.4,1.3-3.2Z"/>
        <path class="cls-2" d="m121.3,1395.5c-.5.8-1.2.9-2.1.8.4-.9,1.2-1,2.1-.8Z"/>
        <path class="cls-14" d="m158.2,1417.5c-.8.8-1.6.8-2.5.3.8-.5,1.6-.6,2.5-.3Z"/>
        <path class="cls-18" d="m43.7,1405.4c0,.2-.1.5-.2.7-.7,0-1.3,0-2,0,.6-.7,1.3-.9,2.2-.7Z"/>
        <path class="cls-29" d="m181,1455.1c-.8.1-1.4,0-1.9-.7.8-.3,1.4,0,1.9.7Z"/>
        <path class="cls-29" d="m201,1501.7c.5-.7,1.2-.9,2-.8-.5.7-1.1,1-2,.8Z"/>
        <path class="cls-14" d="m103.2,1396.3c-.2-.2-.5-.4-.7-.7.6-.1,1,0,.7.7Z"/>
        <path class="cls-2" d="m166.1,1425.2c-.2-.2-.4-.4-.5-.6,0,0,.2-.2.2-.4,0,.3.2.7.3,1Z"/>
        <path class="cls-29" d="m180.1,1491c1.7,0,3.4,0,5,0-1.7,1.3-3.4,1.3-5,0Z"/>
        <path class="cls-27" d="m121.3,1431.2c4.5-.4,6.3,2.4,6.9,6.2.3,2.1.3,4.3.4,6.4,0,2.7-.8,5-3.9,5.4-3.4.4-5.6-1.5-6.1-4.5-.8-4.6-1.1-9.3,2.2-13.2.2,0,.4-.1.6-.3Z"/>
        <path class="cls-29" d="m54.6,1414.2c-2.7,0-5.4,0-8,0,2.7-1.3,5.4-1.3,8,0Z"/>
        <path class="cls-29" d="m58.5,1425.3c1.4,0,2.9-.5,4,.9-1.4,0-2.9.4-4-.9Z"/>
        <path class="cls-29" d="m52.6,1424.3c1.4,0,2.9-.4,4.1.9-1.4,0-2.9.4-4.1-.9Z"/>
        <path class="cls-29" d="m48.6,1423.3c1.1-.2,2.3-.2,3.1.8-1.1,0-2.2.2-3.1-.8Z"/>
        <path class="cls-27" d="m142.3,1439c0,2.9-.1,4.7-.9,6.4-1.2,2.6-2.9,4.5-6.1,3.9-3.2-.6-4.1-2.9-4.2-5.8-.1-3,.2-5.9,1.3-8.7,1-2.4,2.3-4.5,5.3-4.4,3.1,0,3.4,2.6,3.9,4.9.3,1.6.5,3.2.6,3.8Z"/>
        <path class="cls-27" d="m73.2,1372.6c.6-2.9-.4-8,4.6-8,5.4,0,4.3,5.3,4.7,8.7.4,3.3-.3,6.8-4.5,6.9-4.6,0-4.8-3.7-4.8-7.6Z"/>
        <path class="cls-27" d="m70.6,1374.4c-.1,2.7-1.2,4.9-3.7,4.6-3.6-.3-4.5-3.2-4.5-6.5,0-2.4.7-4.3,3.5-4.2,4.1.2,4,3.6,4.6,6.1Z"/>
      </g>
      <g>
        <path class="cls-7" d="m1416.1,1372.8c-11.6-35.1,15.6-73.4,45-87.8,9.7-4.7,19.8-7.3,30.3-9.1,7-1.2,10.4,1.4,11.4,8.3,2,13.7,1.8,27.4-1,41.1-1.6,8.1-6,14.6-11.2,20.8-1.6,1.9-1.8,2.8.5,4.4,12.2,8.4,12.2,25.7,0,34.4-1.6,1.1-2.8,1.7-1.9,4.2,2.7,7.8,1.4,15-5.2,20.2-7.3,5.8-15.7,6.7-24.4,3.2-2-.8-3.8-1.9-5.7-2.8-.3-.4-.7-.8-1-1.2-.4-.1-1-.5-1-.4-.6,1,.1,1.4.8,1.8.3.3.6.5.9.8,5.5,13.8,1.9,27.5-10.8,33-2.4,1.1-1.8,2.8-1.5,4.5,3.5,19.4-2.4,36.5-13.7,51.8-7.1,9.8-15.9,10.6-26.1,4-5.1-3.3-9.4-7.4-12.6-12.5-1.5-2.4-2.4-2.2-4.3-.3-14.5,14.7-32.1,22.5-52.6,23.9-1.2,0-2.3.1-3.5.1-11.8,0-17.2-4.9-17.6-16.5-1-24.6,9.1-44.1,28.2-59.1,7.2-5.6,15-10.4,24-12.8,2.2-.6,1.8-1.4,1.5-3.1-2.7-13.9.2-19.7,12.9-25.9,1.4-.7,2.1-1.1,1.8-2.8-1.9-9.4,2.3-16.3,10-20.9,8.5-5.1,17.3-4.4,25.9.5,0,0,0,.1,0,.1.3.8,1.1,1.6,1.6,1.2.7-.6.3-1.7-.5-2.4,0-.3,0-.6-.3-.7Zm33.1-63l-.3.3c-.3,0-.5.2-.6.5-.7.2-1.2.6-1.3,1.4-.3.3-.6.7-.9,1-.2,0-.4,0-.4.3l-.3.3c-.3.3-.5.6-.8.9l-.2.2c-.3,0-.4.3-.4.6-.3.4-.6.7-.9,1.1-8.3,8.3-12.7,18.7-16.1,29.6-.9.8-1.1,1.9-.8,3.1,0,.6,0,1.3,0,1.9,0,3,0,6,0,8.9v3c-.2,1.1-.2,2.2.7,3.1.1.9.2,1.9.4,2.8-.2.9-.1,1.6.7,2.1h0c2.9,1.5,3.4,1.3,3.3-1.2-.6-4.3,0-8.6.4-12.9,2.5-7.9,5.6-15.6,11.2-21.9,2-1.3,3.9-2.7,5.9-4,4.1-2.1,9.3-.7,13.1-4,3.6-.6,6.2,2.2,9.3,3.2-.5,1.8-1.6,3.4.5,5.2,2.5,2.2,3.6,5.4,4.4,8.6-.2.3-.2.6-.1.9v3.4c1.4-1,1.8-2,1.8-3.3.1-.3.1-.6,0-.9,2.9-6.2,8.3-11,10.1-17.8.2-.4.3-.8.5-1.1.2-.6.3-1.3.5-1.9.7-.6.9-1.3.7-2.2,0-.3,0-.6-.1-.9.2-1,.3-1.9.5-2.9.9-.9.9-2,.7-3.2,0-.6,0-1.3,0-1.9.1-.6.2-1.3.3-1.9,2-6.3.7-12.6.7-19,0-1.8-1.1-2.8-2.9-1.2-.9.2-1.8.3-2.7.5-1.2-.4-2.2-.2-3.2.7-.3,0-.7.2-1,.3-.9-.2-1.6-.1-2.2.6-2.8.5-5.4,1.5-7.7,3.1-7.5,2.6-14.1,6.8-19.9,12.1-.5.4-1,.8-1.4,1.2-.2,0-.3.2-.4.4-.2,0-.4.2-.4.4-.4,0-.6.3-.7.7Zm-112.6,191.4c1.5.3,2.9.3,4.1-.8,21-4.7,36.8-15.7,44.6-36.6.6-1.5,1.4-3,2.1-4.5.9-.4,1.1-1.1.8-2,.2-1.1.4-2.3.7-3.4,1.4-4.8,1.2-5.2-1.6-6.3-.3.2-.6.5-.9.7-.2,0-.5,0-.7,0-.4-4.3-4.3-5.4-6.8-7.9-4.5-2.4-8.5-7.8-14.1-1.9-2,.5-3.7,1.5-5.1,3.1l-1.1.7c-.9,0-1.5.4-1.9,1.2-.4.3-.7.5-1.1.8-1.8.4-3.1,1.5-4.1,2.9h0c-1.3.3-2.3.9-2.9,2.1,0,0,0,0,0,0-.4.3-.8.6-1.2.9-9.8,8-17.1,17.6-20.4,30-1.1,1.8-1.3,3.8-1.3,5.9-.9,1.3-.9,2.7-.7,4.1,0,.3-.2.7-.2,1-1.1,1.6-1,3.3-.7,5.1,0,1.6,0,3.1,0,4.7,3.2,2.2,6.5,1.1,9.7.2.3,0,.7-.2,1-.2.6,0,1.3,0,1.9,0Zm113.2-94.2c.4.1.8.3,1.2.4-.1-.4-.3-.7-.4-1.1-.5-1-1.2-2-2.4-2.1-.3,0-.9.6-.8.8.3,1.2,1.4,1.6,2.5,2Zm-70.9,16v.2c3,5.1,5.3,6.1,10.5,4.2,2.9-1.1,5.5-2.8,8.3-4.2l4.6-.5h0c.7,1.9,2,3.7,1.4,5.9-1.2,2.4-2.5,4.6-3.6,7.1-1.2,2.8-1,5.6,1.4,7.8,3.5,3.2,7.7,3.7,12.1,2.5,3.5-1,3.4-4.2,3.4-7,0-3.5-.6-6.9-.9-10.4.5-4.7,3-6,7.2-4.1,1,1.5,2,3.1,3.1,4.5,2.5,3.1,5.5,5.4,9.8,3.9,4.3-1.5,7.3-4.2,7.7-9.3.3-4.5-1.1-7.3-5.8-8.1-2.9-.5-5.8-1.4-8.6-2.1-2.9-2.4-3-5.1-1-8,2.1-1.3,4.8-1.8,6-4.4,3-2.3,4.8-5,2.8-8.8-1.7-3.3-3.1-7.5-7.7-7.3-4,.2-6.9,2.7-7.9,6.9-1,2.6-2,5.3-3,7.9-.4.6-.9,1.3-1.3,1.9-2.5,1.6-5.1,3.6-7.6,0,0-2.6-.3-5.2-.2-7.8.3-9-3.5-11.6-12.4-8.2-5.7,3.5-5.9,5.2-1.3,12.1,1.3,2.9,2.3,5.8,1.9,9-.8,1-1.5,1.9-2.3,2.9-.3.1-.6.2-.9.3-2,0-4,0-5.9-.2-3.9-.3-7.6,0-10,3.7-1,.5-1,1.3-.8,2.2,0,1,0,2,0,3v1c.4.6.6,1.3.9,1.9l.4,1.4Zm99.1-47.3c1,0,2,0,3-.1,3.9,0,6.6-1.4,6.8-5.8.5-8.6-2.9-11.1-10.9-7.9-2.9,1.2-5.7,2.5-7.7,5.1-.8.5-1.6,1.1-2.4,1.6-1.8,1-3.6,3-5.8,1.7-2.5-1.5-1.6-4-1.2-6.3,2.1-5.9,4.9-11.7,3.1-18.2-2.6-3.9-6.1-4.3-10-.6-4.7,4.4-6.8,10.3-7.9,16.5-1,6.9-2.4,14.1,1.3,20.3,4.1,6.7,9.4,12.8,16,17.4,3,2.1,6.3,2.9,9.9,2.2,2.5-.5,4.8-1.6,5.6-4.3.8-2.8-.7-4.6-2.7-6.4-3.3-2.8-7.7-3.9-10.6-7.3-1.5-5.2,1.7-6.9,5.8-8,.6,0,1.2,0,1.9,0,2,.6,3.9.7,5.9.1Zm-79.3,87.9c-1.1,3.6-2.3,7.2-3.4,10.8-1.1,1.1-1.2,2.2,0,3.2.7,1,1.4,2,2.1,3,3.4,6,8.3,10.6,13.5,15,2.3,1.9,3.5,2,5.5-.5,6.3-7.8,9.9-16.7,12.1-26.3.2-.4.3-.9.5-1.3.1-.7.2-1.3.3-2,.8-.9,1-1.9.7-3,.1-.6.2-1.3.3-1.9,1.4-3.4,1.2-6.7,0-10.1-.3-1.5.4-3.3-.8-4.7-7.6,10.1-8.8,11.1-14.9,12.3-4.1.8-8.2.8-12.3-.2-1.5-.4-3-1-2.9,1.6-1,1.2-1,2.6-.8,4Z"/>
        <path class="cls-17" d="m1416.1,1372.8c.3.2.4.4.3.7-.4.4-.7.8-1.1,1.3,0,0,0-.1,0-.1,0-.8.1-1.4.8-1.9Z"/>
        <path class="cls-2" d="m1453,1408.4c.3.4.7.8,1,1.2-.1.3-.2.6-.3.9-.3-.3-.6-.5-.9-.8,0-.5.1-.9.2-1.4Z"/>
        <path class="cls-21" d="m1388.8,1454c-.2,1.1-.4,2.3-.7,3.4-.8.5-.9,1.1-.8,2-.7,1.5-1.6,2.9-2.1,4.5-7.8,20.9-23.6,31.9-44.6,36.6-1.3,0-2.5,0-3.8,0-.8-.2-1.6,0-2.1.7-.3,0-.7.2-1,.2-2.9,0-5.9-.2-8.8-.2,0-1.6,0-3.2-.1-4.8,0-1.6,0-3.3,0-4.9,0-.3.2-.7.2-1,1.2-1.2.9-2.7.7-4.1,0-2,.3-4,1.3-5.9,3.5.5,6.6-.7,9.2-3,9.2-8,18.9-15.4,28.6-22.7,3.9-3,7.1-6.5,5.7-12.1,1.9,1.1,4.6,1.1,5.1,4-5.1,7-10.9,13.2-17.3,19.1-6.2,5.7-13.8,9.8-18.6,17.1-1,1.5-2.8,2.9-1.7,4.8,1,1.6,3,.6,4.6.8,1.1.1,2.2.2,3.1-.8,3.1-.8,5.8-2.3,8.5-4,12.3-8.1,22.4-18.5,30.3-30.9,1.6,0,3.3-.3,4.4,1.4Z"/>
        <path class="cls-21" d="m1462.1,1326.8c-3.7,3.3-8.9,2-13.1,4,4-6.7,10.3-11.2,15.5-16.9,3.4-3.7,6.8-7.3,9.3-11.5,1.7-2.8,2.6-6-1.9-7.5,2.3-1.6,4.9-2.6,7.7-3.1.9.3,1.7.2,2.2-.6.3,0,.7-.2,1-.3,1.2.3,2.3.3,3.2-.7.9-.2,1.8-.3,2.7-.5,2.5.3,2,2.3,2,3.8.1,5.5.1,10.9.2,16.4-.1.6-.2,1.3-.3,1.9-.7.6-.8,1.3-.7,2.1v2.9c0,1-.2,1.9-.4,2.9-.2.4-.4.8-.6,1.1,0,.6,0,1.3,0,1.9-.2.6-.3,1.3-.5,1.9-.2.4-.3.8-.5,1.1-1.8,6.8-7.2,11.6-10.1,17.8-.6,0-1.1,0-1.7,0-.8-3.2-1.9-6.4-4.4-8.6-2-1.8-1-3.4-.5-5.2,4.7-3.5,5.9-8.9,7.7-14,1-.8.9-2,.8-3.1,0-.6,0-1.2,0-1.8-.2-.4-.5-.8-.7-1.2-2.5-2.3-3.9,0-5.1,1.5-4.1,5-8,10.2-11.9,15.4Z"/>
        <path class="cls-21" d="m1428.4,1468.8c-2.2,9.6-5.8,18.6-12.1,26.3-2,2.4-3.3,2.4-5.5.5-5.2-4.4-10.1-9-13.5-15,8.2-11.9,19.5-19.7,32.8-24.9,0,1.7.2,3.3.3,5-.1.6-.2,1.3-.3,1.9-1,.8-.9,1.9-.7,3-.1.7-.2,1.3-.3,2-.2.4-.3.9-.5,1.3Z"/>
        <path class="cls-26" d="m1384.4,1452.6c-7.9,12.5-18,22.8-30.3,30.9-2.6,1.7-5.4,3.2-8.5,4-1.1-.2-2.2-.2-3.1.8-1.6-.2-3.7.8-4.6-.8-1.1-1.9.7-3.3,1.7-4.8,4.8-7.3,12.4-11.4,18.6-17.1,6.4-5.9,12.2-12.1,17.3-19.1,1.6-1.7,3-3.6,3.3-6,2.5,2.5,6.4,3.6,6.8,7.9-.4,1.4-.7,2.7-1.1,4.1Z"/>
        <path class="cls-23" d="m1370.4,1442.6c1.4,5.6-1.8,9.1-5.7,12.1-9.7,7.4-19.4,14.7-28.6,22.7-2.5,2.2-5.6,3.4-9.2,3,3.4-12.4,10.7-22,20.4-30,.4-.3.8-.6,1.2-.9,0,0,0,0,0,0,1.5,0,2.6-.5,2.9-2.2,0,0,0,0,0,0,2.2.3,3.3-1.1,4.1-2.9.4-.3.7-.5,1.1-.8,1.5.9,1.6-.3,1.9-1.2.4-.2.7-.5,1.1-.7,2.8,2.2,5.3-1,8-.3.9.4,1.9.8,2.8,1.2Z"/>
        <path class="cls-23" d="m1472,1295c4.5,1.5,3.5,4.8,1.9,7.5-2.6,4.2-6,7.9-9.3,11.5-5.2,5.6-11.6,10.1-15.5,16.9-2,1.3-3.9,2.7-5.9,4-5.5-2.2-5.8-3.4-3.8-9.2,1.1-3.2,4.3-5.6,3.9-9.4.3-.4.6-.7.9-1.1.2,0,.5,0,.7.1-.1-.2-.2-.5-.3-.7,0,0,.2-.2.2-.2.8.2,1.1,0,.8-.9,0,0,.3-.3.3-.3.2.1.5.2.7.3,0-.2-.2-.4-.3-.6.3-.3.6-.7.9-1,.8,0,1.7-.1,1.3-1.4.1-.3.3-.4.6-.5.2,0,.4,0,.6,0,0,0-.2-.2-.3-.3,0-.4.3-.6.7-.7.2,0,.4,0,.7,0,0-.1-.2-.2-.2-.4,0-.2.2-.4.4-.4,1.1.4,1.4-.4,1.4-1.2,5.8-5.3,12.4-9.6,19.9-12.1Z"/>
        <path class="cls-2" d="m1462.7,1345.8c1.8,6.6-1,12.3-3.1,18.2-3.6-.7-6.2,1.1-8,3.9-2.8,4.2-2.3,9.3-1.8,13.8.4,3.5,3.7,5.8,7.9,4.2,2.2-.8,4.3-1.6,6.5-2.4,2.9,3.4,7.3,4.5,10.6,7.3,2.1,1.7,3.5,3.6,2.7,6.4-.8,2.7-3.1,3.8-5.6,4.3-3.6.7-6.9-.1-9.9-2.2-6.6-4.6-11.9-10.7-16-17.4-3.8-6.1-2.4-13.4-1.3-20.3,4.6.7,7.7-1.1,10.1-5.1,2.3-3.8,5.2-7.2,7.8-10.8Z"/>
        <path class="cls-19" d="m1403.7,1428.7c.6-2.2-.7-4-1.4-5.9,1.3,0,2.6,0,3.9-.3,3.5-1,4.6-3.7,3.9-6.9-.7-3.1-1.8-6.5-6-5.8-4,.6-3.9,3.8-3.6,6.9.2,2.1,2.2,3.7,1.8,6-1.5.2-3.1.3-4.6.5-.8-1.9-1.6-3.7-2.4-5.6,0-2,0-3.9.1-5.9,1.2-.7.9-1.4,0-2.1.8-1,1.5-1.9,2.3-2.9,1.6.1,2.8-.7,4-1.7,2.3-1.9,4.9-3.3,8-3.5,2.5,3.7,5.1,1.6,7.6,0,2.3,3.9,5.4,4,9,2.1,1.1,0,2,.3,2.1,1.7-2,3-1.8,5.7,1,8-2,3.7-4.1,7.4-6.1,11.1-4.2-1.9-6.7-.6-7.2,4.1-4.1.2-8.2,2.1-12.3,0Zm7.6-14.9c-.2,4,.5,6.6,3.9,6.8,3.6.2,4.9-2.3,4.8-5.5,0-2.9-1-5.9-4.4-6.1-3.7-.2-4.2,3-4.3,4.8Z"/>
        <path class="cls-25" d="m1430,1455.6c-13.3,5.2-24.6,13-32.8,24.9-.7-1-1.4-2-2.1-3,0-1.1,0-2.2,0-3.2,1.1-3.6,2.3-7.2,3.4-10.8,1.1-1.2.9-2.6.8-4-.1-2.6,1.4-1.9,2.9-1.6,4.1.9,8.2,1,12.3.2,6.1-1.2,7.3-2.3,14.9-12.3,1.2,1.4.5,3.2.8,4.7,0,1.7-.2,3.4-.2,5.1Z"/>
        <path class="cls-2" d="m1423.2,1424.6c2-3.7,4.1-7.4,6.1-11.1,2.9.7,5.7,1.6,8.6,2.1,4.7.8,6.1,3.7,5.8,8.1-.3,5.1-3.3,7.8-7.7,9.3-4.3,1.5-7.3-.8-9.8-3.9-1.1-1.4-2.1-3-3.1-4.5Z"/>
        <path class="cls-19" d="m1464.4,1383.6c-2.2.8-4.4,1.5-6.5,2.4-4.3,1.6-7.6-.6-7.9-4.2-.5-4.5-1-9.6,1.8-13.8,1.8-2.7,4.3-4.6,8-3.9-.4,2.3-1.3,4.8,1.2,6.3,2.2,1.3,4-.7,5.8-1.7.8-.5,1.6-1.1,2.4-1.6,0,1.2,0,2.5,0,3.7,0,.8,0,1.6.9,2,0,.9.1,1.9.2,2.8-4.1,1.1-7.3,2.8-5.8,8Z"/>
        <path class="cls-21" d="m1443.2,1316.3c.4,3.8-2.8,6.2-3.9,9.4-2,5.8-1.6,7,3.8,9.2-5.6,6.3-8.7,14-11.2,21.9-2.3.1-3,3.2-5.5,3,0-3,0-6,0-8.9.7-.6.8-1.3.6-2.2,0-.9,0-1.9.1-2.8,3.3-11,7.8-21.3,16.1-29.6Z"/>
        <path class="cls-2" d="m1403.7,1428.7c4.1,2,8.2.2,12.3,0,.3,3.5.8,6.9.9,10.4,0,2.8,0,6-3.4,7-4.4,1.3-8.6.7-12.1-2.5-2.3-2.1-2.6-5-1.4-7.8,1.1-2.4,2.4-4.7,3.6-7.1Z"/>
        <path class="cls-17" d="m1470.2,1375.6c0-.9-.1-1.9-.2-2.8,1.6-1.5.4-1.8-.9-2,0-1.2,0-2.5,0-3.7,2-2.6,4.8-3.9,7.7-5.1,8-3.3,11.4-.7,10.9,7.9-2.5,1.7-6.4,1.7-6.8,5.8-1,0-2,0-3,.1-1.9-1.4-3.9-1.3-5.9-.1-.6,0-1.2,0-1.9,0Z"/>
        <path class="cls-17" d="m1395.3,1411.7c0,2,0,3.9-.1,5.9-4.7,4-10.3,5.5-16.3,5.6,0,0,0-.2,0-.2.1-.6,1.4-1.4-.4-1.4-.2-.6-.5-1.3-.7-1.9.1-.1.3-.3.3-.3-.1-.2-.3-.5-.4-.7,0-1,0-2,0-3,.8-.5.9-1.3.8-2.2,2.4-3.8,6.1-4,10-3.7,2,.2,4,.1,5.9.2,0,.8.3,1.4,1,1.8Z"/>
        <path class="cls-26" d="m1479.9,1311.1c0,.6,0,1.2,0,1.8-1,.9-.9,2-.8,3.1-1.8,5.1-3,10.5-7.7,14-3.1-.9-5.7-3.7-9.3-3.2,4-5.1,7.8-10.4,11.9-15.4,1.2-1.5,2.6-3.8,5.1-1.5.2.4.5.8.7,1.2Z"/>
        <path class="cls-17" d="m1462.7,1345.8c-2.6,3.6-5.5,7-7.8,10.8-2.4,4-5.6,5.8-10.1,5.1,1.1-6.3,3.2-12.1,7.9-16.5,3.9-3.6,7.4-3.3,10,.6Z"/>
        <path class="cls-2" d="m1409.6,1401.6c-3.1.1-5.7,1.5-8,3.5-1.2,1-2.3,1.8-4,1.7.5-3.2-.5-6.2-1.9-9,6.3,0,8.4-1.5,8.7-6.1.4-5.6-3.3-6-7.3-6,8.8-3.4,12.7-.8,12.4,8.2,0,2.6,0,5.2.2,7.8Z"/>
        <path class="cls-17" d="m1428.3,1405.4c0-1.4-1-1.6-2.1-1.7-1-4.4-4.5-3.9-7.7-4,1-2.6,2-5.3,3-7.9,9.6-2.5,13.5-.2,12.7,9.2-1.2,2.5-3.9,3-6,4.4Z"/>
        <path class="cls-17" d="m1397,1385.6c4.1,0,7.7.5,7.3,6-.3,4.6-2.3,6.1-8.7,6.1-4.6-6.9-4.4-8.6,1.3-12.1Z"/>
        <path class="cls-2" d="m1434.3,1401c.8-9.5-3.1-11.7-12.7-9.2,1-4.2,3.8-6.7,7.9-6.9,4.5-.2,5.9,4,7.7,7.3,2,3.8.2,6.5-2.8,8.8Z"/>
        <path class="cls-2" d="m1378.9,1423.2c6-.1,11.6-1.6,16.3-5.6.8,1.9,1.6,3.7,2.4,5.6-2.8,1.4-5.4,3.1-8.3,4.2-5.1,1.9-7.4.8-10.4-4.2Z"/>
        <path class="cls-25" d="m1370.4,1442.6c-.9-.4-1.9-.8-2.8-1.2-1-.9-2-1.9-2.9-2.8,5.6-5.9,9.6-.4,14.1,1.9-.3,2.4-1.6,4.3-3.3,6-.5-2.9-3.2-2.9-5.1-4Z"/>
        <path class="cls-25" d="m1426.4,1359.8c2.5.2,3.2-2.9,5.5-3-.5,4.3-1,8.6-.4,12.9-.8,1.3-2.1,1.2-3.3,1.3,0,0,0,0,0,0,.1-.8,0-1.6-.7-2.1-.1-.9-.2-1.9-.4-2.8.3-1.1.3-2.2-.6-3.1v-3Z"/>
        <path class="cls-2" d="m1418.5,1399.7c3.2.1,6.8-.4,7.7,4-3.6,1.8-6.8,1.8-9-2.1.4-.6.9-1.3,1.3-1.9Z"/>
        <path class="cls-2" d="m1480.9,1375.6c.4-4.1,4.3-4.1,6.8-5.8-.2,4.4-2.9,5.8-6.8,5.8Z"/>
        <path class="cls-18" d="m1491,1310.1c0-5.5,0-10.9-.2-16.4,0-1.5.5-3.5-2-3.8,1.8-1.5,2.9-.6,2.9,1.2,0,6.3,1.3,12.7-.7,19Z"/>
        <path class="cls-25" d="m1384.4,1452.6c.4-1.4.7-2.7,1.1-4.1.2,0,.5,0,.7,0,.3-.2.6-.5.9-.7,2.9,1.1,3,1.5,1.6,6.3-1.1-1.7-2.7-1.5-4.4-1.4Z"/>
        <path class="cls-21" d="m1364.6,1438.7c1,.9,2,1.9,2.9,2.8-2.7-.7-5.3,2.5-8,.3,1.4-1.6,3-2.6,5.1-3.1Z"/>
        <path class="cls-18" d="m1430,1455.6c0-1.7.2-3.4.2-5.1,1.2,3.4,1.4,6.7,0,10.1,0-1.7-.2-3.3-.3-5Z"/>
        <path class="cls-18" d="m1324.8,1501.2c2.9,0,5.9.2,8.8.2-3.3.9-6.5,2-9.7-.2,0,0,.4,0,.4,0h.4Z"/>
        <path class="cls-21" d="m1355.5,1444.5c-.8,1.8-1.9,3.2-4.1,2.9,1.1-1.4,2.4-2.5,4.1-2.9Z"/>
        <path class="cls-18" d="m1477.9,1344.8c0,1.3-.4,2.4-1.8,3.3,0-1.3,0-2.3,0-3.4.6,0,1.2,0,1.8,0Z"/>
        <path class="cls-19" d="m1472,1375.6c2-1.2,4-1.3,5.9.1-2,.6-4,.5-5.9-.1Z"/>
        <path class="cls-18" d="m1428.1,1370.9c1.2,0,2.6,0,3.3-1.3.1,2.5-.4,2.7-3.3,1.3Z"/>
        <path class="cls-18" d="m1324.7,1491.5c0,1.6,0,3.3,0,4.9-.2,0-.5.2-.7.2-.3-1.8-.4-3.5.7-5.1Z"/>
        <path class="cls-25" d="m1324,1496.6c.2,0,.5-.1.7-.2,0,1.6,0,3.2.1,4.8,0,0-.4,0-.4,0,0,0-.4,0-.4,0,0-1.6,0-3.1,0-4.7Z"/>
        <path class="cls-18" d="m1399.4,1459.6c.2,1.4.3,2.8-.8,4-.3-1.4-.3-2.8.8-4Z"/>
        <path class="cls-21" d="m1351.4,1447.3c-.3,1.6-1.4,2.2-2.9,2.2.6-1.2,1.6-1.9,2.9-2.2Z"/>
        <path class="cls-2" d="m1395.3,1411.7c-.7-.3-1-1-1-1.8.3-.1.6-.2.9-.4,1,.7,1.3,1.4,0,2.1Z"/>
        <path class="cls-25" d="m1325.6,1486.3c.2,1.5.5,2.9-.7,4.1-.2-1.5-.2-2.9.7-4.1Z"/>
        <path class="cls-18" d="m1336.8,1500.5c1.3,0,2.5,0,3.8,0-1.2,1.1-2.6,1.1-4.1.8,0-.2.2-.5.2-.7Z"/>
        <path class="cls-18" d="m1486.1,1290.4c-.9.9-2,.9-3.2.7.9-.8,2-1,3.2-.7Z"/>
        <path class="cls-21" d="m1358.5,1442.5c-.3.9-.4,2.1-1.9,1.2.4-.8,1.1-1.2,1.9-1.2Z"/>
        <path class="cls-18" d="m1490.1,1317.1c0-1,0-2,0-2.9.2,0,.5-.2.7-.2.2,1.2.3,2.3-.7,3.2Z"/>
        <path class="cls-18" d="m1427.2,1345.9c0,.9,0,1.9-.1,2.8-.2,0-.5.2-.7.2-.3-1.2-.1-2.2.8-3.1Z"/>
        <path class="cls-18" d="m1426.4,1362.8c.9.9.9,2,.6,3.1-.9-.9-.9-2-.6-3.1Z"/>
        <path class="cls-25" d="m1429.2,1465.6c-.2-1.1-.2-2.2.7-3,.3,1.1,0,2.2-.7,3Z"/>
        <path class="cls-18" d="m1395.2,1474.3c0,1.1,0,2.2,0,3.2-1.3-1.1-1.2-2.1,0-3.2Z"/>
        <path class="cls-25" d="m1426.3,1349c.2,0,.5-.2.7-.2.2.8,0,1.6-.6,2.2,0-.6,0-1.3,0-1.9Z"/>
        <path class="cls-2" d="m1378.5,1421.6c1.8,0,.6.9.4,1.4-.1-.5-.3-.9-.4-1.4Z"/>
        <path class="cls-25" d="m1477.9,1344.8c-.6,0-1.2,0-1.8,0,0-.3,0-.6.1-.9.6,0,1.1,0,1.7,0,0,.3,0,.6,0,.9Z"/>
        <path class="cls-18" d="m1489,1323c0-.6,0-1.3,0-1.9.2,0,.5-.2.7-.2.2.9,0,1.6-.7,2.2Z"/>
        <path class="cls-25" d="m1490.8,1313.9c-.2,0-.5.2-.7.2-.2-.8,0-1.6.7-2.1,0,.6,0,1.3,0,1.9Z"/>
        <path class="cls-25" d="m1448.3,1310.6c.4,1.3-.4,1.3-1.3,1.4,0-.8.6-1.1,1.3-1.4Z"/>
        <path class="cls-26" d="m1387.4,1459.4c-.1-.8,0-1.5.8-2,.3.9.2,1.6-.8,2Z"/>
        <path class="cls-25" d="m1482,1291.3c-.6.8-1.4.9-2.2.6.6-.7,1.4-.8,2.2-.6Z"/>
        <path class="cls-25" d="m1452.1,1307.1c0,.9-.3,1.6-1.4,1.2.5-.4,1-.8,1.4-1.2Z"/>
        <path class="cls-18" d="m1453,1408.4c0,.5-.1.9-.2,1.4-.7-.4-1.4-.8-.8-1.8,0,0,.7.3,1,.4Z"/>
        <path class="cls-18" d="m1427.4,1368.8c.7.6.8,1.3.7,2.1-.8-.5-.9-1.3-.7-2.1Z"/>
        <path class="cls-25" d="m1336.8,1500.5c0,.2-.2.5-.2.7-.6,0-1.3,0-1.9,0,.6-.7,1.3-.8,2.1-.7Z"/>
        <path class="cls-2" d="m1378.4,1413.5c.1.9,0,1.7-.8,2.2-.2-.9-.2-1.7.8-2.2Z"/>
        <path class="cls-21" d="m1445.5,1313.6c.3.8,0,1.1-.8.9.3-.3.5-.6.8-.9Z"/>
        <path class="cls-25" d="m1450.3,1308.8c0,.1.2.2.2.4-.2,0-.4,0-.7,0,0-.2.2-.3.4-.4Z"/>
        <path class="cls-2" d="m1377.6,1418.7c.1.2.3.4.4.7,0,0-.2.2-.3.3,0-.3,0-.7-.1-1Z"/>
        <path class="cls-25" d="m1428.4,1468.8c.2-.4.3-.9.5-1.3-.2.4-.3.9-.5,1.3Z"/>
        <path class="cls-21" d="m1446.2,1313c0,.2.2.4.3.6-.2-.1-.5-.2-.7-.3,0-.2.2-.3.4-.3Z"/>
        <path class="cls-21" d="m1444.5,1314.6c.1.2.2.5.3.7-.2,0-.5,0-.7-.1,0-.3,0-.5.4-.6Z"/>
        <path class="cls-26" d="m1387.2,1447.7c-.3.2-.6.5-.9.7.3-.2.6-.5.9-.7Z"/>
        <path class="cls-21" d="m1348.5,1449.5c-.4.3-.8.6-1.2.9.4-.3.8-.6,1.2-.9Z"/>
        <path class="cls-25" d="m1489.8,1320.9c-.2,0-.5.1-.7.2.2-.4.4-.8.6-1.1.2.3.2.6.1.9Z"/>
        <path class="cls-25" d="m1488,1326.1c.2-.4.3-.8.5-1.1-.2.4-.3.8-.5,1.1Z"/>
        <path class="cls-25" d="m1449.2,1309.8c0,0,.2.2.3.3-.2,0-.4,0-.6,0,0,0,.3-.3.3-.3Z"/>
        <path class="cls-25" d="m1342.6,1488.4c.8-1,1.9-1,3.1-.8-.8,1-1.9.9-3.1.8Z"/>
        <path class="cls-25" d="m1479.1,1316c-.2-1.1-.2-2.3.8-3.1.1,1.1.3,2.3-.8,3.1Z"/>
        <path class="cls-25" d="m1479.9,1311.1c-.2-.4-.5-.8-.7-1.2.2.4.5.8.7,1.2Z"/>
        <path class="cls-27" d="m1402.3,1422.7c.5-2.3-1.6-3.9-1.8-6-.3-3.1-.4-6.3,3.6-6.9,4.2-.7,5.3,2.7,6,5.8.7,3.2-.4,5.9-3.9,6.9-1.2.3-2.6.2-3.9.3,0,0,0,0,0,0Z"/>
        <path class="cls-27" d="m1411.3,1413.8c.1-1.9.6-5,4.3-4.8,3.4.2,4.4,3.2,4.4,6.1,0,3.1-1.3,5.7-4.8,5.5-3.4-.2-4-2.8-3.9-6.8Z"/>
        <path class="cls-2" d="m1469.1,1370.8c1.3.3,2.4.6.9,2-.8-.5-1-1.2-.9-2Z"/>
      </g>
    </g>
  </g>
</svg>