<?xml version="1.0" encoding="UTF-8"?>
<svg id="Layer_2" data-name="Layer 2" xmlns="http://www.w3.org/2000/svg" width="416.2" height="121.8" viewBox="0 0 416.2 121.8">
  <defs>
    <style>
      .cls-1 {
        fill: #fff;
      }

      .cls-2 {
        fill: #d67bb8;
      }
    </style>
  </defs>
  <g id="Middle">
    <g>
      <g>
        <path class="cls-1" d="m44.6,116.8c-4.5,0-8.8-.6-12.9-1.7-4.1-1.1-7.5-2.5-10.2-4.3-5.1-3.1-8.7-6.1-10.9-9.3l-1.1-1.3c-3-3.7-4.5-7.2-4.5-10.6s2.3-7.6,7.1-12.4c3.1-3,6.6-4.5,10.4-4.5s8.2,2.5,13.7,8l.2.2.2.2c.8,1,2.1,2.1,3.9,3.1,1.4.9,2.7,1.3,3.7,1.3,7.1,0,7.1-2.7,7.1-4.9,0,0-.2-.3-.9-.7-1.7-1-3.9-1.8-6.6-2.3-3.5-.6-7.4-1.7-11.4-3.1-4.1-1.4-7.9-3.1-11.4-5.1-4.1-2.3-7.5-5.8-10.2-10.6-2.6-4.7-4-10.3-4-16.7s3.4-16.9,10-23.5c6.6-6.6,15.6-10,26.7-10s11,.8,15.7,2.2c5,1.6,8.3,3.1,10.5,5l3.4,2.6.2.2c3.8,3.6,5.6,6.8,5.6,10s-1.3,6-4,10c-3.9,5.7-8.4,8.7-13.2,8.7s-5.9-1.1-9.5-3.4c-.4-.3-1-.7-2.2-1.9-.5-.5-.9-.9-1.3-1.2-1-.6-2.4-.9-4.2-.9s-3.1.4-4.1,1.1c-.5.4-.7.7-.7,1.5s0,.9,1.1,1.6c1.6,1.1,3.7,1.8,6.3,2.2,3.5.5,7.3,1.4,11.3,2.5,4.2,1.2,8.1,2.6,11.6,4.3,4.2,2,7.7,5.4,10.5,10.2,2.6,4.6,4,10.2,4,16.7s-1.3,12.2-4,17.2c-2.7,5-6.2,9-10.6,11.8-7.8,5.1-16.3,7.7-25.2,7.7Z"/>
        <path class="cls-2" d="m43.4,13.6c5.2,0,9.9.7,14.2,2,4.3,1.3,7.3,2.7,8.9,4.1l3.2,2.5c2.7,2.5,4,4.6,4,6.4s-1,4.1-3.1,7.2c-2.9,4.3-6,6.5-9.1,6.5s-4.1-.9-6.8-2.6c-.3-.2-.8-.6-1.5-1.3-.7-.7-1.4-1.3-2-1.7-1.8-1.1-4.1-1.7-7-1.7s-5.2.7-7,2c-1.9,1.3-2.8,3.2-2.8,5.6s1.1,4.3,3.3,5.8c2.2,1.5,5,2.5,8.3,3,3.3.5,6.9,1.3,10.8,2.4,3.9,1.1,7.5,2.4,10.8,4,3.3,1.6,6,4.3,8.3,8.1,2.2,3.9,3.3,8.6,3.3,14.2s-1.1,10.6-3.4,14.9c-2.3,4.3-5.2,7.6-8.8,9.9-7,4.6-14.5,6.9-22.5,6.9s-7.9-.5-11.6-1.5c-3.6-1-6.6-2.2-8.8-3.7-4.6-2.8-7.8-5.5-9.6-8.1l-1.2-1.4c-2.3-2.8-3.4-5.3-3.4-7.5s1.9-5.1,5.6-8.8c2.2-2.1,4.5-3.1,6.9-3.1s5.8,2.2,10.1,6.5c1.2,1.5,2.9,2.9,5.2,4.2,2.3,1.3,4.3,2,6.2,2,8.1,0,12.1-3.3,12.1-9.9s-1.1-3.7-3.3-5c-2.2-1.3-5-2.3-8.3-2.9-3.3-.6-6.8-1.6-10.7-2.9-3.8-1.3-7.4-2.9-10.7-4.7-3.3-1.8-6-4.7-8.3-8.6-2.2-3.9-3.3-8.7-3.3-14.2s2.8-14.3,8.5-20c5.7-5.7,13.4-8.5,23.2-8.5m0-10c-12.5,0-22.7,3.9-30.3,11.4C5.5,22.7,1.7,31.8,1.7,42.1s1.5,13.7,4.6,19.1c2,3.5,4.3,6.5,7.1,8.9-1.5.9-3.1,2-4.7,3.5h0s0,0,0,0c-3.7,3.6-8.6,9.2-8.6,15.9s1.9,9.2,5.6,13.8l1,1.2c2.6,3.6,6.7,7.1,12.3,10.5,3.1,2,6.9,3.6,11.5,4.9,4.5,1.2,9.3,1.8,14.2,1.8,9.9,0,19.3-2.9,27.9-8.5,5.1-3.3,9.2-7.9,12.2-13.7,3-5.7,4.5-12.3,4.5-19.5s-1.6-13.8-4.6-19.2c-3.2-5.6-7.4-9.7-12.5-12.1,2.5-1.8,4.8-4.2,6.9-7.4,3.3-4.8,4.9-8.9,4.9-12.8,0-6.9-5.4-12-7.2-13.7l-.4-.4-.4-.3-3.1-2.4c-2.7-2.2-6.6-4.1-12.1-5.8-5.2-1.6-11-2.5-17.2-2.5h0Z"/>
      </g>
      <g>
        <path class="cls-1" d="m125.4,116.7c-6.5,0-12.9-1.6-19-4.8-6.1-3.2-11.3-7.9-15.4-14.1-4.2-6.3-6.4-13.5-6.4-21.4,0-11.8,4.2-21.7,12.5-29.4,8.2-7.6,17.7-11.5,28.4-11.5s20.1,3.8,28.2,11.4c8.2,7.7,12.4,17.5,12.4,29.3s-2.2,15.5-6.4,21.9c-4.2,6.3-9.4,11-15.5,14.1-6,3-12.3,4.5-18.8,4.5Zm0-48.4c-2,0-3.8.7-5.6,2.1-.9.8-2.2,2.2-2.2,5.7s1.3,4.8,2.2,5.5c1.9,1.5,3.7,2.2,5.4,2.2s3.6-.7,5.6-2.2c1-.8,2.3-2.2,2.3-5.6s-1.2-4.8-2.1-5.5c-1.8-1.4-3.6-2.1-5.6-2.1Z"/>
        <path class="cls-2" d="m125.6,40.4c9.4,0,17.6,3.4,24.8,10.1,7.2,6.7,10.8,15.3,10.8,25.7s-1.9,13.6-5.6,19.2c-3.7,5.6-8.3,9.7-13.6,12.3-5.3,2.6-10.9,4-16.6,4s-11.3-1.4-16.6-4.2c-5.4-2.8-9.9-7-13.6-12.5-3.7-5.5-5.5-11.7-5.5-18.7,0-10.4,3.6-19,10.9-25.7,7.3-6.8,15.6-10.1,25-10.1m-.3,48.4c2.9,0,5.7-1.1,8.6-3.2,2.9-2.2,4.3-5.4,4.3-9.6s-1.3-7.4-4-9.5c-2.7-2.1-5.6-3.1-8.7-3.1s-6,1.1-8.7,3.2c-2.7,2.2-4,5.4-4,9.6s1.4,7.4,4.2,9.5c2.8,2.1,5.6,3.2,8.5,3.2m.3-58.4c-11.9,0-22.6,4.3-31.8,12.8-9.4,8.7-14.1,19.8-14.1,33.1s2.4,17.1,7.2,24.2c4.6,6.9,10.4,12.2,17.3,15.8,6.8,3.6,14,5.4,21.3,5.4s14.3-1.7,21-5c6.9-3.4,12.8-8.7,17.5-15.8,4.8-7.2,7.3-15.6,7.3-24.7,0-13.2-4.7-24.3-14-33-9.1-8.5-19.7-12.8-31.7-12.8h0Zm-2.6,44s0,0,0,0c1.1-.9,1.9-1,2.4-1s1.4.1,2.5,1c0,.2.2.7.2,1.6s-.2,1.6-.2,1.6c0,0,0,0,0,0-1,.8-2,1.2-2.5,1.2s-1.8-.7-2.4-1.1c0,0,0,0,0,0h0s-.2-.4-.2-1.5.2-1.6.3-1.7h0Z"/>
      </g>
      <g>
        <path class="cls-1" d="m230.5,115.4c-2.5,0-9.6,0-13.3-4.4-.3.2-.5.4-.8.6h-.1c-3.8,2.5-7.9,3.8-12.3,3.8-10.2,0-18.8-3.9-25.5-11.7-6.5-7.5-9.9-16.8-9.9-27.5v-22.8c0-2.4,0-4,.2-5.2.2-1.5.7-3,1.5-4.8v-.2c3.3-6.2,11.9-6.2,14.7-6.2,10.4,0,14.1,4.5,15.4,8.3.7,2,1.1,4.6,1.1,8.3v22.8c0,3.2,1.2,4.4,1.6,4.7.7.7,1.9,1.6,4.7,1.6s4.1-1,4.8-1.7c.7-.7,1.7-2,1.7-4.6v-23c0-2.2,0-3.9.2-5.1.2-1.6.8-3.3,1.8-5.1,3.1-6.1,11.6-6.1,14.4-6.1s11.2,0,14.4,6.2v.2c.9,1.8,1.4,3.4,1.6,4.9.2,1.2.2,2.9.2,5.1v46c0,2.1,0,3.8-.2,5-.2,1.7-.8,3.3-1.9,5.1-3.4,5.9-11.6,5.9-14.4,5.9Z"/>
        <path class="cls-2" d="m230.6,41.9c5.5,0,8.8,1.2,10,3.5.6,1.3,1,2.4,1.1,3.4.1,1,.2,2.5.2,4.5v46c0,1.9,0,3.4-.2,4.4-.1,1-.5,2.1-1.2,3.3-1.3,2.3-4.6,3.4-10,3.4s-8.5-1-9.8-3.1c-.9-1.5-1.3-3.2-1.3-5.3-.3.6-1.1,1.5-2.3,2.6-1.2,1.1-2.4,2.1-3.5,2.9-2.9,1.9-6.2,2.9-9.6,2.9-8.8,0-16-3.3-21.8-9.9-5.8-6.6-8.6-14.7-8.6-24.2v-22.8c0-2.1,0-3.6.2-4.5.1-1,.5-2.1,1.1-3.4,1.2-2.3,4.6-3.5,10.1-3.5s9.6,1.6,10.7,4.9c.5,1.4.8,3.6.8,6.6v22.8c0,3.6,1,6.3,3.1,8.3,2,2,4.8,3,8.2,3s6.2-1,8.3-3.1c2.1-2.1,3.2-4.8,3.2-8.2v-23c0-2,0-3.5.2-4.5.1-1,.5-2.1,1.2-3.4,1.1-2.3,4.5-3.4,10-3.4m0-10c-9.5,0-15.9,3-18.9,8.8-1.2,2.4-2,4.6-2.3,6.8-.2,1.5-.3,3.3-.3,5.8v23c0,.2,0,.9-.2,1-.2.2-.9.3-1.3.3-.6,0-1,0-1.1-.1,0-.2-.1-.6-.1-1.2v-22.8c0-4.2-.4-7.4-1.3-9.9-1.5-4.5-6.1-11.7-20.1-11.7s-16,3-19,8.9v.2c0,0-.2.2-.2.2-1,2.2-1.7,4.3-2,6.3-.2,1.4-.3,3.3-.3,5.9v22.8c0,12,3.7,22.3,11.1,30.8,7.6,8.8,17.7,13.4,29.3,13.4s8.8-1,12.7-3.1c5,3.2,11.3,3.2,13.8,3.2,9.2,0,15.5-2.8,18.7-8.4,1.4-2.4,2.2-4.7,2.5-7,.2-1.5.3-3.2.3-5.6v-46c0-2.5,0-4.3-.3-5.8-.3-2-.9-4.1-2-6.4v-.2c0,0-.2-.2-.2-.2-3.1-5.9-9.4-8.9-18.9-8.9h0Z"/>
      </g>
      <g>
        <path class="cls-1" d="m313.2,115.4c-10.6,0-14.2-4.5-15.4-8.3-.7-2-1-4.7-1-8.2v-22.9c0-3.2-1.2-4.4-1.6-4.7-.7-.7-1.9-1.6-4.7-1.6s-4.1,1-4.8,1.7c-.7.7-1.7,2-1.7,4.6v23c0,2.2,0,3.9-.2,5.1-.2,1.6-.8,3.3-1.8,5-3.1,6.2-11.6,6.2-14.4,6.2s-11.2,0-14.4-6.2v-.2c-.9-1.8-1.4-3.4-1.6-4.9-.2-1.2-.2-2.9-.2-5.1v-46c0-2.1,0-3.8.2-5,.2-1.7.8-3.3,1.9-5.2,3.2-5.8,11.6-5.8,14.4-5.8s9.7,0,13.3,4.4c.3-.2.6-.4.9-.6,3.8-2.5,7.9-3.8,12.5-3.8,10.1,0,18.7,3.9,25.4,11.7,6.6,7.5,9.9,16.8,9.9,27.5v22.9c0,2.2,0,3.9-.2,5.1-.2,1.6-.7,3.2-1.6,4.9-3.3,6.3-11.8,6.3-14.6,6.3Z"/>
        <path class="cls-2" d="m294.3,42c8.7,0,15.9,3.3,21.6,9.9,5.8,6.6,8.6,14.7,8.6,24.2v22.9c0,2,0,3.5-.2,4.5-.1,1-.5,2.1-1.1,3.3-1.2,2.3-4.6,3.5-10.1,3.5s-9.7-1.6-10.7-4.8c-.5-1.5-.8-3.7-.8-6.6v-22.9c0-3.6-1-6.3-3.1-8.3-2-2-4.8-3-8.2-3s-6.2,1-8.3,3.1c-2.1,2.1-3.2,4.8-3.2,8.2v23c0,2,0,3.5-.2,4.5-.1,1-.5,2.1-1.2,3.3-1.1,2.3-4.5,3.5-10,3.5s-8.8-1.2-10-3.5c-.6-1.3-1-2.4-1.1-3.4-.1-1-.2-2.5-.2-4.5v-46c0-1.9,0-3.4.2-4.4.1-1,.5-2.1,1.2-3.3,1.2-2.2,4.6-3.2,10-3.2s8.5,1,9.8,3c.9,1.5,1.3,3.2,1.3,5.3.3-.6,1.1-1.5,2.3-2.6,1.2-1.1,2.4-2,3.5-2.7,2.9-2,6.2-3,9.8-3m0-10c-4.6,0-8.9,1.1-12.9,3.2-5-3.2-11.3-3.2-13.8-3.2s-14,0-18.7,8.3c-1.3,2.3-2.2,4.7-2.5,7-.2,1.5-.3,3.3-.3,5.6v46c0,2.5,0,4.3.3,5.8.3,2,.9,4.1,2,6.4v.2c0,0,.2.2.2.2,3.1,5.9,9.4,8.9,18.9,8.9s15.8-3,18.8-8.8c1.3-2.3,2-4.5,2.3-6.7.2-1.5.3-3.3.3-5.8v-23c0-.2,0-.9.2-1,.2-.2.9-.3,1.3-.3.6,0,1,0,1.1.1,0,.2.1.5.1,1.2v22.9c0,4.1.4,7.2,1.3,9.7,1.4,4.5,5.9,11.7,20.2,11.7s15.9-3,19-8.9h0c0,0,0-.1,0-.1,1.1-2.2,1.8-4.4,2.1-6.5.2-1.5.3-3.3.3-5.8v-22.9c0-12-3.7-22.3-11.1-30.8-7.6-8.8-17.7-13.4-29.2-13.4h0Z"/>
      </g>
      <g>
        <path class="cls-1" d="m393.8,115.4c-5.7,0-9.2-1.6-11.4-3.7-3.9,2.4-8.5,3.6-13.9,3.6-9.2,0-17.6-4-25-11.8-7.3-7.7-11-16.9-11-27.2s3.7-19.5,11-27.3c7.4-7.9,15.8-11.8,24.9-11.8s7,.6,10,1.8v-17.6c0-2.2,0-3.9.2-5.1.2-1.6.8-3.2,1.7-5,.9-1.7,2.7-4,6.4-5.1,2.2-.7,4.8-1,8.1-1s5.9.3,8.1,1c3.7,1.2,5.5,3.5,6.4,5.3.9,1.8,1.5,3.5,1.7,5,.2,1.2.2,2.9.2,5.1v77.6c0,2.2,0,3.9-.2,5.1-.2,1.7-.8,3.3-1.9,5.1-3.3,6-12.4,6-15.3,6Zm-22-45.5c-2,0-3.4.6-4.6,1.9-1.3,1.5-1.9,2.9-1.9,4.6s.2,2.5,2,4.3c1.3,1.4,2.7,2,4.6,2s3.1-.6,4.3-1.9c1.3-1.4,1.9-2.8,1.9-4.4s-.6-3.1-1.9-4.7c-.7-.9-1.9-1.9-4.4-1.9Z"/>
        <path class="cls-2" d="m394.9,10c2.7,0,4.9.3,6.6.8,1.6.5,2.8,1.4,3.4,2.7s1,2.5,1.2,3.4c.1,1,.2,2.5.2,4.5v77.6c0,2,0,3.5-.2,4.5-.1,1-.5,2.1-1.2,3.3-1.3,2.3-5,3.5-11,3.5s-9.4-2.1-10.1-6.4c-3.6,4.2-8.7,6.2-15.2,6.2s-14.9-3.4-21.3-10.2c-6.4-6.8-9.6-14.7-9.6-23.8s3.2-17,9.7-23.9c6.5-6.8,13.5-10.3,21.3-10.3s11.4,2.2,15,6.5v-27.3c0-2,0-3.5.2-4.5.1-1,.5-2.1,1.2-3.4.7-1.3,1.8-2.1,3.4-2.7,1.6-.5,3.8-.8,6.6-.8m-22.9,77.6c3.2,0,5.9-1.2,8-3.5,2.1-2.3,3.2-4.9,3.2-7.7s-1-5.4-3.1-7.9c-2-2.4-4.8-3.6-8.3-3.6s-6.2,1.2-8.3,3.6c-2.1,2.4-3.1,5-3.1,7.9s1.1,5.5,3.4,7.8c2.3,2.3,5,3.5,8.2,3.5M394.9,0c-3.8,0-6.9.4-9.6,1.2-5.3,1.7-8,5.1-9.3,7.6-1.2,2.3-1.9,4.5-2.2,6.7-.2,1.5-.3,3.3-.3,5.8v11.1c-1.6-.2-3.2-.3-5-.3-10.5,0-20.1,4.5-28.5,13.4-8.2,8.7-12.4,19.1-12.4,30.7s4.2,22,12.3,30.7c8.3,8.9,18,13.3,28.6,13.3s9.8-1.1,13.4-2.7c2.9,1.7,6.7,2.8,11.9,2.8s14.9,0,19.7-8.6c1.3-2.3,2.1-4.7,2.4-6.9.2-1.5.3-3.3.3-5.8V21.4c0-2.5,0-4.3-.3-5.8-.3-2.1-1-4.3-2.1-6.6-1.3-2.6-4-6.1-9.4-7.8-2.6-.8-5.8-1.2-9.6-1.2h0Zm-23.8,74.9s.2,0,.7,0,.5,0,.6,0c0,0,0,0,0,0,.7.8.7,1.3.7,1.4s0,.4-.6,1c-.1.1-.2.2-.2.2,0,0-.1,0-.4,0-.4,0-.6,0-1-.4-.1-.1-.6-.6-.6-.9s0-.5.7-1.3c0,0,0,0,0,0,0,0,0,0,0,0h0Z"/>
      </g>
    </g>
  </g>
</svg>