<?xml version="1.0" encoding="UTF-8"?>
<svg id="Layer_2" data-name="Layer 2" xmlns="http://www.w3.org/2000/svg" width="383" height="121.7" viewBox="0 0 383 121.7">
  <defs>
    <style>
      .cls-1 {
        fill: #fff;
      }

      .cls-2 {
        fill: #d67bb8;
      }
    </style>
  </defs>
  <g id="Middle">
    <g>
      <g>
        <path class="cls-1" d="m101.5,115.4c-3,0-5.4-.3-7.4-.9-2.1-.6-3.7-1.4-5-2.4-1.5-1.2-2.7-2.8-3.4-4.8v-.2c0,0-.1-.2-.1-.2-.6-2-.9-4.6-.9-8.2v-28.4c-.1.2-.3.4-.4.6-4.2,5.8-6.9,9.6-8,11.1-1.1,1.5-1.9,2.5-2.4,3.1-.9,1.1-2.2,2.2-4.6,3.6-2.5,1.5-5.1,2.2-8,2.2s-5.4-.7-7.8-2c-2.2-1.2-3.8-2.5-4.9-3.9v-.2c-.1,0-1.1-1.3-1.1-1.3-1.7-2.2-4.9-6.4-9.6-12.9v28.5c0,2.2,0,3.9-.2,5.1-.2,1.7-.8,3.3-1.9,5.1-3.3,6-11.7,6-14.5,6s-10.9,0-14.3-6.1c-1-1.7-1.6-3.5-1.8-5.2-.2-1.3-.2-3-.2-5.3V26.6c0-2.2,0-3.9.2-5.1.2-1.6.8-3.3,1.8-5.2h0c3.4-6,11.7-6,14.5-6s5.4.4,7.6,1.1c2.5.9,4.2,1.8,5.4,3.1l.9.9,25.7,33.8c12.4-16.4,20.9-27.5,25.5-33.3,2.5-3.8,7.3-5.6,14.5-5.6s11.3,0,14.5,6.2c1,1.8,1.6,3.5,1.8,5.2.2,1.3.2,2.9.2,5.2v72.1c0,10.4-4.6,14.1-8.4,15.3-2.2.7-4.7,1-7.7,1Z"/>
        <path class="cls-2" d="m101.2,15.3c5.5,0,8.9,1.2,10.1,3.5.7,1.3,1.1,2.5,1.2,3.5.1,1,.2,2.6.2,4.5v72.1c0,6-1.6,9.5-4.9,10.5-1.6.5-3.7.8-6.2.8s-4.5-.2-6-.7c-1.5-.4-2.6-1-3.4-1.6-.8-.6-1.4-1.5-1.8-2.6-.4-1.5-.6-3.7-.6-6.8v-43.5c-2.2,2.7-5.3,7-9.5,12.8-4.2,5.9-6.8,9.5-7.9,11-1.1,1.5-1.9,2.5-2.3,3.1-.4.6-1.5,1.3-3.2,2.3-1.7,1-3.5,1.5-5.5,1.5s-3.7-.5-5.3-1.4c-1.6-.9-2.8-1.8-3.4-2.7l-1-1.4c-1.7-2.2-5.2-6.8-10.3-13.8-5.1-7.1-7.9-10.9-8.3-11.4v43.8c0,2,0,3.5-.2,4.5-.1,1-.5,2.1-1.2,3.3-1.3,2.3-4.7,3.5-10.1,3.5s-8.6-1.2-9.9-3.5c-.7-1.2-1.1-2.3-1.2-3.4-.1-1-.2-2.6-.2-4.7V26.6c0-2,0-3.5.2-4.5.1-1,.5-2.1,1.2-3.4,1.3-2.3,4.7-3.4,10.1-3.4s4.4.3,6,.8c1.7.6,2.8,1.2,3.3,1.8l.8.8,29.5,38.7c14.7-19.5,24.6-32.4,29.5-38.6,1.5-2.3,5-3.5,10.5-3.5m0-10c-8.8,0-15.1,2.6-18.6,7.6-4.1,5.2-11.3,14.5-21.4,28l-21.5-28.3-.4-.5-.5-.5-.6-.6c-1.7-1.8-4.1-3.2-7.4-4.3-2.7-.9-5.8-1.4-9.2-1.4-9.3,0-15.6,2.8-18.8,8.4h0c0,.1,0,.3,0,.3-1.3,2.4-2,4.6-2.3,6.9-.2,1.5-.3,3.3-.3,5.8v72.1c0,2.6,0,4.4.3,5.9.3,2.3,1.1,4.7,2.5,7.1,3.2,5.7,9.5,8.6,18.6,8.6s15.6-2.9,18.8-8.6c1.3-2.3,2.1-4.7,2.4-6.9.2-1.5.3-3.3.3-5.8v-13.3c.2.3.4.6.6.8l.9,1.2v.2c.1,0,.3.2.3.2,1.5,1.9,3.6,3.6,6.3,5.1,3.1,1.8,6.6,2.7,10.3,2.7s7.3-1,10.5-2.9c2.9-1.7,4.7-3.2,6-4.9.4-.5,1-1.3,1.8-2.4v13c0,4.1.3,7.1,1.1,9.6v.4c.1,0,.3.4.3.4,1.1,2.9,2.8,5.2,5,6.9,1.8,1.4,4,2.5,6.7,3.3,2.4.7,5.3,1.1,8.8,1.1s6.6-.4,9.3-1.2c4.5-1.4,11.9-5.9,11.9-20.1V26.9c0-2.5,0-4.3-.3-5.8-.3-2.3-1-4.5-2.3-6.9-3.1-5.9-9.4-8.8-18.9-8.8h0Z"/>
      </g>
      <g>
        <path class="cls-1" d="m183.9,115.4c-2.5,0-9.6,0-13.3-4.4-.3.2-.5.4-.8.6h-.1c-3.8,2.5-7.9,3.8-12.3,3.8-10.2,0-18.8-3.9-25.5-11.7-6.5-7.5-9.9-16.8-9.9-27.5v-22.8c0-2.4,0-4,.2-5.2.2-1.5.7-3,1.5-4.8v-.2c3.3-6.2,11.9-6.2,14.7-6.2,10.4,0,14.1,4.5,15.4,8.3.7,2,1.1,4.6,1.1,8.3v22.8c0,3.2,1.2,4.4,1.6,4.7.7.7,1.9,1.6,4.7,1.6s4.1-1,4.8-1.7c.7-.7,1.7-2,1.7-4.6v-23c0-2.2,0-3.9.2-5.1.2-1.6.8-3.3,1.8-5.1,3.1-6.1,11.6-6.1,14.4-6.1s11.2,0,14.4,6.2v.2c.9,1.8,1.4,3.4,1.6,4.9.2,1.2.2,2.9.2,5.1v46c0,2.1,0,3.8-.2,5-.2,1.7-.8,3.3-1.9,5.1-3.4,5.9-11.6,5.9-14.4,5.9Z"/>
        <path class="cls-2" d="m184.1,41.9c5.5,0,8.8,1.2,10,3.5.6,1.3,1,2.4,1.1,3.4.1,1,.2,2.5.2,4.5v46c0,1.9,0,3.4-.2,4.4-.1,1-.5,2.1-1.2,3.3-1.3,2.3-4.6,3.4-10,3.4s-8.5-1-9.8-3.1c-.9-1.5-1.3-3.2-1.3-5.3-.3.6-1.1,1.5-2.3,2.6-1.2,1.1-2.4,2.1-3.5,2.9-2.9,1.9-6.2,2.9-9.6,2.9-8.8,0-16-3.3-21.8-9.9-5.8-6.6-8.6-14.7-8.6-24.2v-22.8c0-2.1,0-3.6.2-4.5.1-1,.5-2.1,1.1-3.4,1.2-2.3,4.6-3.5,10.1-3.5s9.6,1.6,10.7,4.9c.5,1.4.8,3.6.8,6.6v22.8c0,3.6,1,6.3,3.1,8.3,2,2,4.8,3,8.2,3s6.2-1,8.3-3.1c2.1-2.1,3.2-4.8,3.2-8.2v-23c0-2,0-3.5.2-4.5.1-1,.5-2.1,1.2-3.4,1.1-2.3,4.5-3.4,10-3.4m0-10c-9.5,0-15.9,3-18.9,8.8-1.2,2.4-2,4.6-2.3,6.8-.2,1.5-.3,3.3-.3,5.8v23c0,.2,0,.9-.2,1-.2.2-.9.3-1.3.3-.6,0-1,0-1.1-.1,0-.2-.1-.6-.1-1.2v-22.8c0-4.2-.4-7.4-1.3-9.9-1.5-4.5-6.1-11.7-20.1-11.7s-16,3-19,8.9v.2c0,0-.2.2-.2.2-1,2.2-1.7,4.3-2,6.3-.2,1.4-.3,3.3-.3,5.9v22.8c0,12,3.7,22.3,11.1,30.8,7.6,8.8,17.7,13.4,29.3,13.4s8.8-1,12.7-3.1c5,3.2,11.3,3.2,13.8,3.2,9.2,0,15.5-2.8,18.7-8.4,1.4-2.4,2.2-4.7,2.5-7,.2-1.5.3-3.2.3-5.6v-46c0-2.5,0-4.3-.3-5.8-.3-2-.9-4.1-2-6.4v-.2c0,0-.2-.2-.2-.2-3.1-5.9-9.4-8.9-18.9-8.9h0Z"/>
      </g>
      <g>
        <path class="cls-1" d="m234.3,116.7c-9.3,0-18.3-2.7-26.8-8-3.1-2-4.8-5.2-4.8-9.2s1.8-7.5,5.8-13.1c1.2-1.8,2.8-3,4.8-3.7-2.1-1.9-3.9-4.3-5.3-7.3-2-4-3-8.8-3-14.1,0-11.7,5.8-25.5,33.2-25.5s13.9,1.6,21,4.9c6.2,2.8,7.5,6.9,7.5,9.8s-1.2,6.4-3.6,10.3c-1.8,2.9-3.8,4.8-6,5.9.3.2.7.3,1,.5,3.4,1.6,6.2,4.4,8.4,8.3,2.1,3.7,3.2,8.3,3.2,13.7s-1.1,10-3.1,13.9c-2.2,4.1-5.3,7.1-9.2,9.2h-.1c-6.2,3.1-14,4.6-23,4.6Z"/>
        <path class="cls-2" d="m238.3,40.7c6.2,0,12.5,1.5,19,4.4,3,1.4,4.6,3.1,4.6,5.2s-1,4.6-2.9,7.7c-1.9,3-3.9,4.5-5.9,4.5s-3-.7-5.8-2c-2.8-1.3-5.9-2-9.2-2-5.1,0-7.7,1-7.7,2.9s2.9,4.3,8.8,5.1c5.7.6,11.3,2.3,16.6,4.9,2.5,1.2,4.6,3.3,6.3,6.3,1.7,3,2.5,6.7,2.5,11.2s-.8,8.3-2.5,11.5c-1.7,3.2-4.1,5.5-7.1,7.1-5.5,2.7-12.5,4-20.9,4s-16.4-2.4-24.1-7.3c-1.6-1-2.5-2.7-2.5-4.9s1.6-5.7,4.9-10.3c1-1.5,2.5-2.2,4.6-2.2s5,1.1,8.6,3.2c3.6,2.1,6.9,3.2,9.9,3.2,5.3,0,7.9-1,7.9-3.1s-2.9-2.9-8.7-3.6c-5.5-.8-10.9-2.8-16.2-6.1-2.5-1.6-4.6-4-6.2-7.3-1.6-3.3-2.5-7.3-2.5-11.9,0-13.7,9.4-20.5,28.2-20.5m0-10c-11.7,0-20.5,2.3-27,7.1-5.1,3.7-11.2,10.8-11.2,23.5s1.2,11.6,3.5,16.3c.7,1.5,1.5,2.8,2.4,4.1-.5.6-1.1,1.2-1.5,1.9-4.6,6.5-6.7,11.4-6.7,15.9s2.6,10.5,7.1,13.4c9.3,5.9,19.2,8.8,29.5,8.8s18.3-1.7,25.2-5h.1c0,0,.1-.1.1-.1,4.9-2.5,8.7-6.3,11.3-11.3,2.5-4.6,3.7-10.1,3.7-16.2s-1.3-11.7-3.8-16.2c-1.5-2.7-3.4-5-5.5-6.9.6-.8,1.3-1.7,1.9-2.7,3-4.7,4.4-9,4.4-13s-1.4-10.2-10.4-14.3c-7.8-3.5-15.6-5.3-23.1-5.3h0Z"/>
      </g>
      <g>
        <path class="cls-1" d="m288.5,115.5c-2.8,0-11.2,0-14.4-6.2v-.2c-.9-1.8-1.4-3.4-1.6-4.8-.2-1.2-.2-2.9-.2-5.2v-45.6c0-2.2,0-3.9.2-5.1.2-1.5.7-3.1,1.5-4.9h0c0-.1,0-.3,0-.3,2-3.7,6.1-5.2,9.5-5.7-1.1-.2-2.2-.4-3.1-.7-3.7-1.2-5.5-3.5-6.4-5.3-.9-1.8-1.5-3.5-1.7-5-.2-1.2-.2-2.9-.2-5.1s0-3.9.2-5.1c.2-1.6.7-3.2,1.6-4.9,3.3-6.3,11.8-6.3,14.6-6.3s11.2,0,14.3,6.2c1,1.8,1.5,3.5,1.7,5.1.2,1.2.2,2.9.2,5.1s0,3.9-.2,5.1c-.2,1.6-.8,3.2-1.7,5-.9,1.7-2.7,4-6.4,5.1-1,.3-2.1.5-3.3.7,3.1.5,5.5,1.5,7.3,3.1,1.7,1.4,3.9,4.2,4.1,9.1,0,1,.1,2.4.1,4.1v45.5c0,2.2,0,3.9-.2,5.1-.2,1.6-.8,3.3-1.8,5.1-3.1,6.1-11.6,6.1-14.4,6.1Z"/>
        <path class="cls-2" d="m288.6,10c5.5,0,8.8,1.2,9.9,3.5.7,1.3,1.1,2.5,1.2,3.4.1,1,.2,2.5.2,4.5s0,3.5-.2,4.5c-.1,1-.5,2.1-1.2,3.4-.6,1.3-1.8,2.1-3.4,2.7-1.6.5-3.8.8-6.6.8s-4.9-.3-6.6-.8c-1.6-.5-2.8-1.4-3.4-2.7-.6-1.3-1-2.4-1.2-3.4-.1-1-.2-2.5-.2-4.5s0-3.5.2-4.5c.1-1,.5-2.1,1.1-3.3,1.2-2.3,4.6-3.5,10.1-3.5m0,32.1c4.2,0,7.1.7,8.8,2.2,1.5,1.2,2.3,3.1,2.3,5.6,0,.9.1,2.1.1,3.8v45.5c0,2,0,3.5-.2,4.5-.1,1-.5,2.1-1.2,3.4-1.1,2.3-4.5,3.4-10,3.4s-8.8-1.2-10-3.5c-.6-1.3-1-2.4-1.1-3.4-.1-1-.2-2.5-.2-4.6v-45.6c0-2,0-3.5.2-4.5.1-1,.5-2.1,1.1-3.4,1.2-2.3,4.6-3.4,10.1-3.4m0-42.1c-9.6,0-16,3-19,8.9h0c0,0,0,.1,0,.1-1.1,2.2-1.8,4.4-2.1,6.5-.2,1.5-.3,3.3-.3,5.8s0,4.3.3,5.8c.3,2.1,1,4.3,2.1,6.6.6,1.1,1.4,2.4,2.6,3.7-1,1-1.8,2.1-2.5,3.4v.2c-.1,0-.3.3-.3.3-1.1,2.3-1.7,4.3-2,6.4-.2,1.5-.3,3.3-.3,5.8v45.6c0,2.6,0,4.5.3,5.9.3,2,.9,4,2,6.3v.2c0,0,.2.2.2.2,3.1,5.9,9.4,8.9,18.9,8.9s15.9-3,18.9-8.8c1.2-2.4,2-4.6,2.3-6.8.2-1.5.3-3.3.3-5.8v-45.5c0-1.8,0-3.3-.1-4.4-.3-5.8-2.7-9.5-5-11.7,1.2-1.2,2-2.5,2.6-3.6,1.2-2.3,1.9-4.5,2.2-6.7.2-1.5.3-3.3.3-5.8s0-4.3-.3-5.8c-.3-2.2-1-4.4-2.2-6.7-3-5.9-9.3-9-18.8-9h0Z"/>
      </g>
      <g>
        <path class="cls-1" d="m347.6,116.1c-9.2,0-18-3.3-26.3-9.8-4.1-3.2-7.6-7.6-10.1-12.9-2.6-5.3-3.9-11.2-3.9-17.5s1.3-12.2,3.9-17.4c2.6-5.2,6-9.5,10.1-12.7,8-6.4,16.8-9.6,26.1-9.6s7.5.5,11,1.6c3.5,1,6.2,2.1,8,3.2l2.3,1.5c1.6,1.1,2.8,1.9,3.7,2.5h.2c4.4,3.5,5.3,7.4,5.3,10s-1.2,6.6-3.5,10.2c-4.1,6.3-8.4,9.4-13.2,9.4s-5.7-1.2-9.7-3.6l-.4-.3-.4-.3c-.7-.7-2.2-.8-3.3-.8-1.7,0-3.3.6-4.9,2-.9.8-2,2-2,4.8s1,4,1.9,4.7c1.5,1.3,3,1.9,4.5,1.9s3.3-.5,4.9-1.6c3.3-2.2,6-3.3,8.6-3.3,4.3,0,8.5,2.8,13.4,8.7,2.8,3.5,4.1,6.7,4.1,9.9,0,5.1-3.2,9.6-9.4,13.4-5.7,4-12.8,6-20.9,6Z"/>
        <path class="cls-2" d="m347.3,41.2c3.3,0,6.5.5,9.6,1.4,3.1.9,5.4,1.8,6.9,2.7l2.1,1.3c1.6,1,2.8,1.9,3.6,2.5,2.3,1.7,3.4,3.7,3.4,5.9s-.9,4.7-2.7,7.5c-3.1,4.8-6.1,7.1-9,7.1s-4-1-7-2.9c-1.6-1.5-3.8-2.2-6.7-2.2s-5.6,1-8.1,3.1c-2.5,2.1-3.8,5-3.8,8.6s1.2,6.5,3.6,8.6c2.4,2,5,3.1,7.7,3.1s5.3-.8,7.7-2.4c2.4-1.6,4.3-2.4,5.8-2.4,2.6,0,5.8,2.3,9.5,6.9,2,2.5,3,4.8,3,6.8,0,3.3-2.4,6.4-7.1,9.2-4.9,3.5-11,5.2-18.2,5.2s-15.8-2.9-23.3-8.7c-3.6-2.8-6.5-6.5-8.7-11.1-2.3-4.6-3.4-9.8-3.4-15.3s1.1-10.7,3.4-15.2c2.3-4.6,5.2-8.2,8.7-11,7.2-5.7,14.9-8.6,23-8.6m0-10c-10.4,0-20.2,3.6-29.2,10.7-4.7,3.7-8.6,8.5-11.5,14.4-2.9,5.9-4.4,12.5-4.4,19.6s1.5,13.7,4.4,19.7c2.9,6,6.8,10.9,11.6,14.6,9.2,7.2,19.1,10.8,29.4,10.8s17.1-2.3,23.6-6.8c9.7-5.9,11.7-12.8,11.7-17.6s-1.7-8.7-5.2-13h0s0,0,0,0c-1.9-2.3-4.3-5-7.2-7.1,2.9-1.9,5.6-4.9,8.1-8.7,2.9-4.4,4.4-8.8,4.4-13s-2.6-10.2-7.3-13.8h-.2c0-.1-.2-.3-.2-.3-1-.7-2.2-1.5-3.8-2.6h-.1c0,0-.1-.2-.1-.2l-2.1-1.3h-.1c0,0-.1-.1-.1-.1-2.2-1.3-5.2-2.5-9.1-3.6-4-1.2-8.2-1.8-12.4-1.8h0Zm-1.6,44.1s0,0,0,0c1-.8,1.5-.8,1.8-.8s.3,0,.4,0h.1c0,.1.8.7.8.7.6.4,1.2.7,1.7,1-.5.3-1,.6-1.5,1-.9.6-1.6.7-2.1.7s-1-.4-1.3-.7c0-.1,0-.4,0-.9s0-.8,0-.9h0Z"/>
      </g>
    </g>
  </g>
</svg>