<?xml version="1.0" encoding="UTF-8"?>
<svg id="Layer_2" data-name="Layer 2" xmlns="http://www.w3.org/2000/svg" width="520.1" height="213.4" viewBox="0 0 520.1 213.4">
  <defs>
    <style>
      .cls-1 {
        fill: #fff;
      }

      .cls-2 {
        fill: #894d6c;
      }

      .cls-3 {
        fill: #3d0020;
      }

      .cls-4 {
        fill: #ffb1e2;
      }

      .cls-5 {
        fill: #fffeff;
      }

      .cls-6 {
        fill: #ff71ca;
      }

      .cls-7 {
        fill: #e35aa9;
      }

      .cls-8 {
        fill: #c13d8e;
      }
    </style>
  </defs>
  <g id="Top">
    <g>
      <g>
        <path class="cls-5" d="m265.9,213.2c64.7,0,129.4-.3,194.1.2,15.1.1,27.7-13.3,29-26.8.3-3.1,1.1-4.1,4.4-4.4,12.4-.8,26.8-12.9,26.7-27.4-.3-31.9,0-63.8,0-95.7,0-1.7.2-3.4-.3-4.9-4.5-12.9-13.3-20.7-27-22.3-3.3-.4-4.3-1.2-4.7-4.6-2.3-17.3-12.4-26.7-29.1-27-38.2-.6-76.4-.1-114.5,0-38.2,0-76.5,0-114.7,0-46.2,0-92.5-.1-138.7,0-11.4,0-22.9-.6-34.4.6-12.8,1.3-22.7,12.3-24.4,24.1-.6,4.4-2.3,6.1-6.7,7C10.7,34.9.8,44.3.4,59.4-.2,89,0,118.6.2,148.1c0,4.3.4,8.8,2.2,12.9,4.4,10.2,12.2,16.3,23,18.2,4.3.7,5.9,2.6,6.7,6.4,2.3,11.5,8.7,19.7,19.8,24,6.9,2.7,14.1,3.7,21.5,3.7,64.2,0,128.4,0,192.6,0Z"/>
        <path class="cls-3" d="m265.9,213.2c-64.2,0-128.4,0-192.6,0-7.4,0-14.6-1-21.5-3.7-11.1-4.3-17.5-12.5-19.8-24-.8-3.8-2.4-5.7-6.7-6.4-10.8-1.8-18.6-8-23-18.2-1.8-4.1-2.2-8.5-2.2-12.9-.1-29.6-.4-59.1.3-88.7.3-15.1,10.3-24.5,25-27.5,4.4-.9,6.1-2.6,6.7-7,1.7-11.8,11.6-22.8,24.4-24.1,11.5-1.2,22.9-.6,34.4-.6,46.2,0,92.5,0,138.7,0,38.2,0,76.5,0,114.7,0,38.2,0,76.4-.5,114.5,0,16.8.3,26.8,9.7,29.1,27,.5,3.4,1.4,4.3,4.7,4.6,13.7,1.6,22.6,9.4,27,22.3.5,1.5.3,3.3.3,4.9,0,31.9-.2,63.8,0,95.7.1,14.6-14.3,26.6-26.7,27.4-3.3.2-4.1,1.2-4.4,4.4-1.3,13.5-13.9,26.9-29,26.8-64.7-.5-129.4-.2-194.1-.2ZM14,159.4c2.6,5.4,7.9,6.7,13,7.9,5,1.2,10.5,1.2,14,5.9.6.7,1.3,1.5,1.9,2.2,0,1.3-.2,2.7,0,3.9,1.9,11.9,5.8,21.9,20.9,20.8.7,0,1.4,0,2.1-.1,7.9,0,15.8,0,23.8,0,3.7.5,7.4.5,11.1,0,1.3,0,2.6,0,3.8,0,3.4.5,6.8.5,10.1,0,1.9,0,3.9,0,5.8,0h5c2.4.5,4.8.5,7.1,0,2.3,0,4.6,0,6.8,0,4.4.5,8.8.5,13.1,0,28.2,0,56.4,0,84.7,0,15,.5,30,.5,45.1,0,28.2,0,56.4,0,84.7,0,5,.5,10.1.5,15.1,0,1.6,0,3.2,0,4.8,0,2.4.5,4.8.5,7.1,0,3.6,0,7.2,0,10.8,0,3.4.5,6.8.5,10.1,0,1.3,0,2.6,0,3.8,0,4.4.5,8.8.5,13.1,0,12.6,0,25.1,0,37.7,0,.6.1.9-.1.9-.7,5.2-5.2,6.6-11.7,6.3-18.8h0c.6,0,1-.4.8-1.1.4-.9.8-1.9,1.2-2.8,4.1-5.1,10.2-5.6,15.9-6.7,1-.2,2.1-.1,2.9-.6,3.6-2,8.6-2.7,8.9-8,.3-4.6-.2-9.2-.3-13.8,0-8.3.1-16.5.2-24.8.3-.9.4-1.7-.7-2.1.3-.6.7-1.2.7-1.8,0-21.6,0-43.2.1-64.8,0-2.5-1.1-4.3-2.9-5.4-3.8-2.4-8-4.4-12.6-4.7-9.1-.6-14.9-6.2-15.4-15-.6-11-5.1-15.2-16.1-15.2-76.2,0-152.3,0-228.5,0-57.9,0-115.7,0-173.6,0-8.3,0-13.4,4.8-13.9,13.2-.2,3.4-1,6.7-1.9,10-.2.3-.2.6-.2.9-1.9,0-2.8,1.5-3.9,2.6-2.3,2.4-4.9,3.4-8.2,3.5-13.3.4-17.4,4.9-16.6,17.8,0,.3,0,.7,0,1,0,5.4-.3,10.9-.1,16.3.2,6.9-.9,13.8.8,20.7,0,4.6,0,9.2,0,13.8-1.4,8.7-1.1,17.4-.3,26.1,0,.6,0,1.2,0,1.7-.7,6-1.4,12.1.4,18Z"/>
        <path class="cls-6" d="m13.2,62.6c0-.3,0-.7,0-1,4.8-2.7,8.7-6.8,14.6-8,9.2-1.9,12.8-6.3,14.2-16,0-.3,0-.6.2-.9,1.9,0,2.3-1.8,3.2-2.9,5.4-6.6,11.8-9.3,20.8-9.3,128.9.3,257.8.2,386.7.2,1.3,0,2.7-.3,4,0,6.6,1.7,13.5,3.2,16.5,10.4,2.5,6.1,6.9,10.2,12.8,12.4,7,2.6,10,7.7,11.1,14.5.9,5.9,1.7,11.7,2.5,17.6,1.8,13.9,5.5,27.6,5.5,41.7.3.8,1,1.1,1.8,1.1,0,8.3-.1,16.5-.2,24.8-.9.2-1.3.8-1.6,1.6-2,6.7-6.6,10-13.4,11.4-10.4,2.1-12.7,5.5-12.4,16.1-.4.9-.8,1.9-1.2,2.8-.3.4-.5.7-.8,1.1,0,0,0,0,0,0-2.3,0-2.8,2.1-3.8,3.5-3.4,4.9-8,7.3-13.9,7.4-130.3,0-260.6,0-390.8,0-8.2,0-15.1-2.9-19.9-10.1-1.5-2.2-2.9-4.8-5.8-5.8-.6-.7-1.3-1.5-1.9-2.2-.5-5.3-.3-12.2-6.3-13.3-9.5-1.8-16.4-5.7-20.5-14.5-.2-1.3-.4-2.7-.7-4,0-.6,0-1.2,0-1.7.8-8.7.5-17.4.3-26.1,0-4.6,0-9.2,0-13.8,0-9.4.2-18.9,0-28.3,0-2.9.9-5.9-.8-8.7Z"/>
        <path class="cls-4" d="m505.1,121.4c0-14.1-3.6-27.8-5.5-41.7-.8-5.9-1.5-11.8-2.5-17.6-1.1-6.8-4.1-11.9-11.1-14.5-5.9-2.2-10.3-6.3-12.8-12.4-3-7.1-9.9-8.7-16.5-10.4-1.2-.3-2.6,0-4,0-128.9,0-257.8,0-386.7-.2-8.9,0-15.4,2.6-20.8,9.3-.9,1.1-1.3,2.8-3.2,2.9.9-3.3,1.7-6.5,1.9-10,.4-8.5,5.5-13.2,13.9-13.2,57.9,0,115.7,0,173.6,0,76.2,0,152.3,0,228.5,0,10.9,0,15.4,4.2,16.1,15.2.5,8.8,6.3,14.5,15.4,15,4.7.3,8.8,2.3,12.6,4.7,1.8,1.1,2.9,2.9,2.9,5.4-.1,21.6,0,43.2-.1,64.8,0,.6-.5,1.2-.7,1.8-.4.3-.7.7-1.1,1Z"/>
        <path class="cls-7" d="m479.2,176.5c-.3-10.5,2.1-14,12.4-16.1,6.8-1.4,11.4-4.8,13.4-11.4.3-.9.7-1.4,1.6-1.6.1,4.6.6,9.2.3,13.8-.3,5.2-5.3,6-8.9,8-.8.4-1.9.4-2.9.6-5.8,1.2-11.8,1.6-15.9,6.7Z"/>
        <path class="cls-4" d="m42,37.6c-1.3,9.7-5,14.1-14.2,16-5.8,1.2-9.7,5.3-14.6,8-.8-12.9,3.4-17.4,16.6-17.8,3.2,0,5.9-1.1,8.2-3.5,1.1-1.1,2-2.7,3.9-2.6Z"/>
        <path class="cls-7" d="m14.3,145.3c4,8.8,10.9,12.7,20.5,14.5,6,1.1,5.8,8,6.3,13.3-3.6-4.7-9-4.7-14-5.9-5.1-1.2-10.4-2.5-13-7.9,0-4.7.2-9.4.3-14Z"/>
        <path class="cls-2" d="m13.2,62.6c1.7,2.8.7,5.8.8,8.7.1,9.4,0,18.9,0,28.3-1.7-6.8-.6-13.8-.8-20.7-.2-5.4,0-10.9.1-16.3Z"/>
        <path class="cls-2" d="m13.8,113.4c.2,8.7.5,17.4-.3,26.1-.9-8.7-1.1-17.4.3-26.1Z"/>
        <path class="cls-2" d="m14.3,145.3c0,4.7-.2,9.4-.3,14-1.8-6-1.1-12-.4-18,.2,1.3.4,2.7.7,4Z"/>
        <path class="cls-7" d="m505.1,121.4c.4-.3.7-.7,1.1-1,1,.5.9,1.3.7,2.1-.8,0-1.4-.3-1.8-1.1Z"/>
        <path class="cls-7" d="m477.2,180.4c.3-.4.5-.7.8-1.1.2.7-.2,1-.8,1.1Z"/>
        <path class="cls-7" d="m477.2,180.4c-2.3,0-2.8,2.1-3.8,3.5-3.4,4.9-8,7.3-13.9,7.4-130.3,0-260.6,0-390.8,0-8.2,0-15.1-2.9-19.9-10.1-1.5-2.2-2.9-4.8-5.8-5.8,0,1.3-.2,2.7,0,3.9,1.9,11.9,5.8,21.9,20.9,20.8.7,0,1.4,0,2.1-.1,7.9,0,15.8,0,23.8,0,3.7.5,7.4.5,11.1,0,1.3,0,2.6,0,3.8,0,3.4.5,6.8.5,10.1,0,1.9,0,3.9,0,5.8,0,.4,0,.8,0,1.2,0,1.3,0,2.5,0,3.8,0,2.4.5,4.8.5,7.1,0,2.3,0,4.6,0,6.8,0,4.4.5,8.8.5,13.1,0,28.2,0,56.4,0,84.7,0,15,.5,30,.5,45.1,0,28.2,0,56.4,0,84.7,0,5,.5,10.1.5,15.1,0,1.6,0,3.2,0,4.8,0,2.4.5,4.8.5,7.1,0,3.6,0,7.2,0,10.8,0,3.4.5,6.8.5,10.1,0-1.3-.4-2.5-.7-3.8-.8,1.3.1,2.5.4,3.8.8,1.3,0,2.6,0,3.8,0,1.6-.4,3.3-.7,4.9-.8-1.6.1-3.3.4-4.9.8,4.4.5,8.8.5,13.1,0,12.6,0,25.1,0,37.7,0,.3-.2.6-.5.9-.7,5.2-5.2,6.6-11.7,6.3-18.8Z"/>
        <path class="cls-2" d="m470,199.9c.3-.2.6-.5.9-.7,0,.6-.3.9-.9.7Z"/>
      </g>
      <g>
        <g>
          <path class="cls-1" d="m141.9,160.7c-14.8,0-27.4-5.3-37.6-15.8-10.1-10.5-15.3-23.1-15.3-37.5s1.4-15.3,4.3-22.1c2.8-6.9,6.7-12.8,11.5-17.5,4.8-4.7,10.3-8.4,16.5-11,6.2-2.7,12.8-4,19.4-4,14.1,0,26.5,5.2,36.9,15.3,10.4,10.2,15.7,23.3,15.7,38.8s-1.2,13.1-3.6,19.6c2.3,1.6,4.1,2.8,5.3,3.6h.1c4.4,3.4,6.7,7,6.7,10.8s-1.5,7-4.8,11.7c-3.6,5.2-7.6,7.9-12.1,7.9s-5.9-1.3-10.3-4.3c-.4-.3-1.3-.9-3.8-2.6-.6-.4-1.2-.8-1.7-1.2-8.2,5.5-17.4,8.3-27.3,8.3Zm-.8-75c-4.8,0-9.1,1.9-13.2,5.8-4,3.9-5.9,8.8-5.9,15.2s1.9,11.3,5.9,15.2c4.1,3.9,8.4,5.8,13.2,5.8s9.2-1.8,13.2-5.6c3.9-3.7,5.8-8.7,5.8-15.2s-1.9-11.5-5.9-15.4c-4.1-3.9-8.4-5.8-13.2-5.8Z"/>
          <path class="cls-8" d="m140.7,57.7c12.8,0,24,4.6,33.4,13.9,9.4,9.3,14.2,21,14.2,35.2s-1.6,14.3-4.8,21.4c4,2.7,6.8,4.6,8.6,5.9,3.1,2.3,4.7,4.6,4.7,6.7s-1.3,5.1-3.9,8.9c-2.6,3.8-5.2,5.7-7.9,5.7s-4.2-1.2-7.5-3.5c-.4-.3-1.6-1.1-3.6-2.5-2-1.4-3.6-2.4-4.7-3.1-8.1,6.2-17.1,9.4-27.2,9.4s-24.8-4.8-34-14.3c-9.2-9.5-13.8-20.9-13.8-34.1s1.3-13.9,3.9-20.2c2.6-6.3,6.1-11.5,10.4-15.8,4.3-4.2,9.3-7.6,15-10,5.6-2.4,11.4-3.6,17.4-3.6m.5,75c6.2,0,11.7-2.3,16.6-7,4.9-4.7,7.4-11,7.4-18.8s-2.5-14.2-7.5-19c-5-4.8-10.6-7.2-16.7-7.2s-11.7,2.4-16.6,7.2-7.4,11.1-7.4,18.8,2.5,14,7.5,18.8c5,4.8,10.6,7.2,16.7,7.2m-.5-85c-7.3,0-14.5,1.5-21.4,4.5-6.7,2.9-12.8,7-18,12.1-5.3,5.2-9.5,11.6-12.6,19.1-3.1,7.5-4.7,15.6-4.7,24,0,15.8,5.6,29.6,16.7,41,11.1,11.5,25,17.3,41.2,17.3s18.9-2.5,27.2-7.3c1.6,1.1,2.4,1.6,2.8,1.9,5.2,3.6,9.2,5.1,13,5.1s10.5-1.8,16.2-10.1c3.8-5.6,5.6-10.3,5.6-14.5s-2.9-10.4-8.7-14.7h-.1c0-.1-.1-.2-.1-.2-.6-.4-1.3-.9-2.2-1.5,1.8-5.8,2.7-11.7,2.7-17.6,0-16.9-5.8-31.2-17.2-42.4-11.3-11.1-24.9-16.8-40.4-16.8h0Zm.5,75c-3.5,0-6.6-1.4-9.8-4.4-3-2.9-4.4-6.6-4.4-11.6s1.4-8.7,4.4-11.6c3.1-3,6.1-4.4,9.7-4.4s6.7,1.4,9.8,4.4c3,2.9,4.4,6.6,4.4,11.8s-2.4,9.8-4.3,11.6c-3.1,2.9-6.2,4.3-9.8,4.3h0Z"/>
        </g>
        <g>
          <path class="cls-1" d="m244.4,160.7c-7.4,0-14.2-1.6-20.3-4.7-6.1-3.1-11.1-7.3-14.9-12.4-7.6-10-11.5-21.5-11.5-34.2v-39.1c0-2.3,0-4,.2-5.3.2-1.6.8-3.3,1.8-5.2,1.3-2.5,3.5-4.2,6.4-5.1,2.2-.7,4.8-1,8.1-1s6,.3,8.1,1c3.7,1.2,5.5,3.5,6.4,5.3,1.4,2.7,2.1,6.1,2.1,10.4v39c0,4.5,1.1,8.6,3.3,12.7.9,1.6,2.1,2.9,3.9,3.9,1.9,1.1,4.1,1.6,6.8,1.6,4.6,0,7.8-1.5,10-4.8,2.6-3.9,3.8-8.3,3.8-13.5v-39.8c0-4.4.7-7.6,2.1-9.8,1.5-2.4,3.7-4.1,6.5-5,2.2-.7,4.7-1,7.7-1s5.4.3,7.3.9c2.1.6,3.8,1.4,5,2.4,1.6,1.2,2.7,3,3.4,5.2.7,2,1,4.7,1,8.3v39.3c0,12.5-3.9,24-11.7,34.2-4,5-9,9.1-15.1,12.2-6.1,3.1-13,4.6-20.4,4.6Z"/>
          <path class="cls-8" d="m274.8,58.7c2.5,0,4.4.2,5.9.6,1.5.4,2.6,1,3.4,1.6.8.6,1.3,1.5,1.7,2.7.5,1.5.8,3.7.8,6.8v39.3c0,11.4-3.6,21.8-10.7,31.2-3.5,4.4-7.9,8-13.4,10.7s-11.5,4.1-18.1,4.1-12.7-1.4-18.1-4.2c-5.4-2.8-9.8-6.4-13.2-10.9-7-9.2-10.5-19.6-10.5-31.2v-39.1c0-2.1,0-3.6.2-4.6.1-1,.5-2.1,1.2-3.4.7-1.3,1.9-2.2,3.5-2.7,1.6-.5,3.9-.8,6.6-.8s5,.3,6.6.8c1.6.5,2.8,1.4,3.4,2.7,1,2,1.6,4.7,1.6,8.2v39c0,5.3,1.3,10.3,3.9,15.1,1.3,2.4,3.2,4.4,5.8,5.9,2.6,1.5,5.7,2.2,9.2,2.2,6.3,0,11.1-2.3,14.2-7,3.1-4.7,4.7-10.1,4.7-16.2v-39.8c0-3.4.4-5.8,1.3-7.1.9-1.4,2.1-2.3,3.8-2.9,1.6-.5,3.7-.8,6.2-.8m0-10c-3.5,0-6.5.4-9.2,1.2-3.9,1.2-7.1,3.7-9.2,7.1-1.9,3.1-2.8,7-2.8,12.4v39.8c0,4.2-1,7.7-3,10.7-.8,1.2-2,2.6-5.8,2.6s-3.2-.3-4.3-.9c-1.2-.7-1.7-1.4-2-1.9h0s0,0,0,0c-1.8-3.3-2.7-6.7-2.7-10.3v-39c0-5.1-.9-9.2-2.6-12.6-1.8-3.7-5.1-6.5-9.3-7.8-2.7-.8-5.8-1.2-9.6-1.2s-7,.4-9.6,1.2c-4.2,1.3-7.4,3.9-9.3,7.6-1.3,2.4-2,4.6-2.3,6.9-.2,1.5-.3,3.3-.3,5.9v39.1c0,13.8,4.2,26.3,12.6,37.2,4.3,5.7,9.9,10.3,16.6,13.8,6.8,3.5,14.4,5.3,22.6,5.3s15.8-1.7,22.6-5.2c6.8-3.4,12.4-7.9,16.8-13.5h0c0,0,0-.1,0-.1,8.4-11.1,12.7-23.6,12.7-37.2v-39.3c0-4.1-.4-7.2-1.3-9.8-.9-3.1-2.7-5.7-5.1-7.6-1.8-1.4-4-2.5-6.7-3.3-2.4-.7-5.3-1.1-8.7-1.1h0Z"/>
        </g>
        <g>
          <path class="cls-1" d="m312.3,159.1c-10.4,0-14.1-4.5-15.4-8.3-.7-2-1.1-4.6-1.1-8.3v-72.3c0-2.2,0-3.9.2-5.1.2-1.6.8-3.3,1.8-5.2,3.2-6.2,11.7-6.2,14.6-6.2,10.4,0,14.2,4.4,15.5,8.2h0c0,.1,0,.3,0,.3.6,2,.9,4.6.9,8.2v72.3c0,2.4,0,4-.2,5.2-.2,1.6-.8,3.2-1.8,5.1-3.2,6.2-11.7,6.2-14.6,6.2Z"/>
          <path class="cls-8" d="m312.4,58.9c6.1,0,9.7,1.6,10.8,4.8.4,1.5.6,3.7.6,6.8v72.3c0,2.1,0,3.6-.2,4.5-.1,1-.5,2.1-1.2,3.4-1.2,2.3-4.6,3.5-10.1,3.5s-9.6-1.6-10.7-4.9c-.5-1.4-.8-3.6-.8-6.6v-72.3c0-2,0-3.5.2-4.5.1-1,.5-2.1,1.2-3.4,1.2-2.3,4.6-3.5,10.1-3.5m0-10c-9.5,0-15.9,3-19,8.8-1.3,2.4-2,4.6-2.3,6.8-.2,1.5-.3,3.3-.3,5.8v72.3c0,4.2.4,7.4,1.3,9.9,1.5,4.5,6.1,11.7,20.1,11.7s15.9-3,19-8.9c1.3-2.4,2-4.5,2.3-6.7.2-1.4.3-3.3.3-5.9v-72.3c0-4.1-.3-7.1-1.1-9.6v-.3c0,0-.2-.2-.2-.2-1.5-4.3-6.1-11.5-20.2-11.5h0Z"/>
        </g>
        <g>
          <path class="cls-1" d="m380.4,159.1c-3.2,0-5.9-.3-8-1-3.6-1.2-5.4-3.4-6.3-5.1-.9-1.8-1.5-3.4-1.7-5-.2-1.2-.2-2.9-.2-5.1v-60.3h-20c-3.6,0-6.3-.5-8.3-1.5-2.5-1.3-4.3-3.3-5.1-6-.6-1.9-.9-4.2-.9-6.9s.3-5.1.9-6.9c1.1-3.3,3.2-4.9,4.7-5.7,2.3-1.1,5.2-1.7,8.9-1.7h72.3c3.6,0,6.3.5,8.3,1.5,2.5,1.3,4.3,3.3,5.1,6,.6,1.9.9,4.2.9,7s-.3,5.1-.9,6.9c-1.1,3.3-3.2,5-4.7,5.7-2.3,1.1-5.2,1.7-8.9,1.7h-19.8v60.4c0,2.2,0,3.9-.2,5.1-.2,1.5-.8,3.2-1.7,4.9-.9,1.7-2.7,4-6.4,5.1-2.2.7-4.8,1-8,1Z"/>
          <path class="cls-8" d="m416.7,58.7c2.8,0,4.8.3,6.1,1,1.3.6,2.2,1.7,2.6,3.1.4,1.4.6,3.2.6,5.5s-.2,4.1-.6,5.4c-.4,1.3-1.2,2.3-2.2,2.8-1.6.8-3.8,1.2-6.6,1.2h-24.8v65.4c0,2,0,3.5-.2,4.4-.1,1-.5,2.1-1.2,3.3-.6,1.3-1.8,2.1-3.4,2.7-1.6.5-3.8.8-6.5.8s-4.8-.3-6.4-.8c-1.6-.5-2.7-1.4-3.4-2.7-.6-1.3-1-2.4-1.2-3.4-.1-1-.2-2.5-.2-4.5v-65.3h-25c-2.8,0-4.8-.3-6.1-1-1.3-.6-2.2-1.7-2.6-3.1-.4-1.4-.6-3.2-.6-5.5s.2-4.1.6-5.4c.4-1.3,1.2-2.3,2.2-2.8,1.6-.8,3.8-1.2,6.6-1.2h72.3m0-10h-72.3c-4.5,0-8.1.7-11.1,2.2-3.4,1.7-6,4.8-7.3,8.7-.8,2.4-1.1,5.1-1.1,8.5s.4,6.1,1.1,8.5c1.2,3.9,4,7.2,7.7,9,2.8,1.4,6.1,2,10.6,2h15v55.3c0,2.5,0,4.3.3,5.8.3,2.2,1,4.4,2.2,6.7,1.9,3.6,5,6.2,9.2,7.6,2.6.9,5.7,1.3,9.5,1.3s6.9-.4,9.5-1.2c5.3-1.7,8-5.1,9.3-7.6,1.2-2.3,1.9-4.4,2.2-6.6.2-1.4.3-3.3.3-5.8v-55.4h14.8c4.5,0,8.1-.7,11.1-2.2,2.4-1.2,5.6-3.7,7.3-8.7.8-2.4,1.1-5.1,1.1-8.5s-.4-6.1-1.1-8.4c-1.2-4-4-7.2-7.7-9-2.8-1.4-6.1-2-10.6-2h0Z"/>
        </g>
      </g>
    </g>
  </g>
</svg>