<?xml version="1.0" encoding="UTF-8"?>
<svg id="Layer_2" data-name="Layer 2" xmlns="http://www.w3.org/2000/svg" width="304.8" height="119.1" viewBox="0 0 304.8 119.1">
  <defs>
    <style>
      .cls-1 {
        fill: #fff;
      }

      .cls-2 {
        fill: #d67bb8;
      }
    </style>
  </defs>
  <g id="Middle">
    <g>
      <g>
        <path class="cls-1" d="m58.4,112.6c-3.1,0-6-.8-8.7-2.5-2.8-1.7-4.9-3.9-6.3-6.7L7.5,30.7c-1.7-3.6-2.5-6.3-2.5-8.5,0-5.1,3.5-9.4,10.5-12.8,3.6-1.8,6.4-2.7,8.8-2.7s4,.3,5.5.9c1.5.7,2.9,1.8,4.1,3.3h0c.9,1.4,1.8,2.8,2.6,4.3.4.9,1.5,2.9,5.1,11,2.6,5.8,5.5,12.1,8.6,18.9,3.1,6.7,8.7,19,8.7,19l21.5-47c.8-1.8,1.4-3.2,2-4.3v-.2c.1,0,.2-.2.2-.2,3.2-4.7,7.1-5.7,9.9-5.7s6.4.9,10,2.8c6.9,3.4,10.4,7.7,10.4,12.8s-.8,4.8-2.4,8.4l-35.9,72.9c-1.4,2.8-3.5,5-6.3,6.7-2.7,1.6-5.6,2.5-8.6,2.5h-1.3Z"/>
        <path class="cls-2" d="m92.5,11.7c2.3,0,4.8.7,7.7,2.2,5.1,2.5,7.7,5.3,7.7,8.3s-.6,3.5-1.9,6.2l-35.9,72.8c-1,1.9-2.4,3.4-4.4,4.6-1.9,1.2-4,1.8-6,1.8h-1.3c-2.2,0-4.2-.6-6.2-1.8-1.9-1.2-3.4-2.7-4.4-4.6L11.9,28.5c-1.3-2.8-1.9-4.9-1.9-6.2,0-3,2.6-5.8,7.7-8.3,2.9-1.5,5-2.2,6.6-2.2s2.7.2,3.4.5c.8.3,1.5,1,2.2,1.8.8,1,1.5,2.2,2.1,3.4.6,1.3,2.3,4.9,5,10.8,2.7,5.9,5.6,12.2,8.6,18.9,3.1,6.7,6,13,8.7,18.9,2.7,5.9,4.3,9.3,4.6,9.9l26-56.9c.7-1.6,1.3-2.9,1.8-3.9,1.6-2.3,3.5-3.5,5.7-3.5m0-10c-5.6,0-10.6,2.8-14,8l-.2.4-.2.4c-.7,1.2-1.4,2.8-2.2,4.7l-16.9,37c-1.4-2.9-2.8-6-4.2-9.1-3.1-6.7-6-13.1-8.6-18.9-3.7-8.2-4.8-10.4-5.2-11.3-.9-1.8-1.9-3.4-3-4.9h0c0-.1-.1-.3-.1-.3-1.7-2.1-3.7-3.7-5.9-4.7-2.1-.9-4.6-1.4-7.5-1.4s-6.7,1-11.1,3.3C2.3,10.3,0,17.3,0,22.2s.9,6.2,2.9,10.5h0c0,0,0,.2,0,.2l35.9,72.8h0s0,0,0,0c1.8,3.6,4.6,6.6,8.2,8.7,3.5,2.1,7.3,3.2,11.3,3.2h1.3c3.9,0,7.7-1.1,11.2-3.2,3.6-2.2,6.3-5.1,8.2-8.7h0s0,0,0,0l35.9-72.8h0c0,0,0-.2,0-.2,2-4.3,2.9-7.5,2.9-10.5,0-4.9-2.3-11.9-13.2-17.3-4.2-2.2-8.3-3.3-12.2-3.3h0Z"/>
      </g>
      <g>
        <path class="cls-1" d="m130.4,112.8c-10.4,0-14.1-4.5-15.4-8.3-.7-2-1.1-4.6-1.1-8.3V23.9c0-5.9,1.3-10,4-12.6,2.6-2.6,6.8-3.8,12.8-3.8h51.2c2.2,0,3.9,0,5.1.2,1.6.2,3.3.8,5.1,1.8,2.4,1.3,4.1,3.5,5,6.4.7,2.2,1,4.8,1,8.1s-.3,6-1,8.1c-1.2,3.7-3.5,5.5-5.3,6.4-1.8.9-3.5,1.4-5,1.7-1.2.2-2.9.2-5.3.2h-34.8v3.1h20.6c2.3,0,4,0,5.3.2,1.6.2,3.3.8,5.2,1.8h.1c5.9,3.5,5.9,11.9,5.9,14.7,0,10.5-4.5,14.2-8.3,15.5h-.1c-1.9.6-4.5.9-8.1.9h-20.5v19.6c0,2.4,0,4-.2,5.2-.2,1.6-.8,3.2-1.8,5.1-3.2,6.2-11.7,6.2-14.6,6.2Z"/>
        <path class="cls-2" d="m182,12.5c2,0,3.5,0,4.5.2,1,.1,2.1.5,3.4,1.2,1.3.7,2.1,1.9,2.7,3.5.5,1.6.8,3.9.8,6.6s-.3,5-.8,6.6c-.5,1.6-1.4,2.8-2.7,3.4-1.3.6-2.4,1-3.4,1.2-1,.1-2.5.2-4.6.2h-39.8v13.1h25.6c2.1,0,3.6,0,4.6.2,1,.1,2.1.5,3.4,1.2,2.3,1.3,3.4,4.7,3.4,10.3s-1.6,9.7-4.9,10.8c-1.4.4-3.6.7-6.6.7h-25.5v24.6c0,2.1,0,3.6-.2,4.6-.1,1-.5,2.1-1.2,3.4-1.2,2.3-4.6,3.5-10.1,3.5s-9.6-1.6-10.7-4.9c-.5-1.4-.8-3.6-.8-6.6V23.9c0-4.4.8-7.4,2.5-9,1.6-1.6,4.8-2.4,9.4-2.4h51.2m0-10h-51.2c-7.4,0-12.7,1.7-16.3,5.2-3.7,3.6-5.5,8.9-5.5,16.2v72.3c0,4.2.4,7.4,1.3,9.9,1.5,4.5,6.1,11.7,20.1,11.7s15.9-3,19-8.8c1.3-2.4,2-4.5,2.3-6.7.2-1.4.3-3.3.3-5.9v-14.6h15.5c4.2,0,7.2-.4,9.6-1.1h.1s.1,0,.1,0c4.4-1.5,11.7-6.1,11.7-20.3s-1.3-11.4-3.9-14.9c1,0,1.8-.1,2.5-.2,2.1-.3,4.3-1,6.6-2.1,2.6-1.3,6.1-4,7.8-9.4.8-2.6,1.2-5.8,1.2-9.6s-.4-7-1.2-9.6c-1.3-4.1-3.8-7.3-7.4-9.2-2.4-1.3-4.7-2.1-6.9-2.4-1.5-.2-3.3-.3-5.8-.3h0Z"/>
      </g>
      <g>
        <path class="cls-1" d="m281.4,114.1c-3.8,0-7.7-2.3-11.8-6.9l-20.9-24-20.9,24c-4.3,4.7-8,6.9-11.8,6.9s-7.3-1.9-11.8-5.9c-4.6-4.2-6.8-7.8-6.8-11.6s1.9-7.2,5.8-11.7l23.1-25.4-23-25.3c-4-4.2-5.9-8-5.9-11.6s2.2-7.6,6.7-11.7c4.4-4,8.3-5.9,11.9-5.9s7.7,2.3,11.8,6.9l20.9,24,20.9-24c4.3-4.7,8-6.9,11.8-6.9s7.3,1.9,11.7,5.8c4.5,4.1,6.7,7.9,6.7,11.8s-1.9,7.5-5.8,11.6l-23,25.3,23.1,25.4c3.9,4.3,5.7,8.1,5.7,11.7s-2.2,7.6-6.6,11.6c-4.3,3.9-8.2,5.8-11.8,5.8Z"/>
        <path class="cls-2" d="m281.4,10c2.2,0,5,1.5,8.4,4.5,3.4,3,5.1,5.7,5.1,8.1s-1.5,5.1-4.4,8.2l-26.1,28.7,26.1,28.7c2.9,3.3,4.4,6.1,4.4,8.3s-1.7,4.9-5,7.9c-3.3,3-6.2,4.5-8.5,4.5s-5-1.7-8-5.2l-24.7-28.3-24.7,28.3c-3.1,3.5-5.8,5.2-8,5.2s-5-1.5-8.5-4.6c-3.4-3.1-5.1-5.7-5.1-7.9s1.5-4.9,4.5-8.3l26.1-28.7-26.1-28.7c-3-3.2-4.5-5.9-4.5-8.2s1.7-4.9,5.1-8c3.4-3.1,6.2-4.6,8.5-4.6s5,1.7,8,5.2l24.7,28.3,24.7-28.3c3.1-3.5,5.8-5.2,8-5.2m0-10c-5.2,0-10.3,2.8-15.4,8.5h0c0,0,0,.1,0,.1l-17.2,19.7-17.2-19.7c-5.1-5.8-10.2-8.6-15.5-8.6s-9.9,2.4-15.2,7.2c-5.6,5.1-8.3,10.1-8.3,15.4s2.4,9.8,7.2,15l19.9,21.9-20,22h0s0,0,0,0c-4.9,5.4-7.1,10.2-7.1,15s2.8,10.2,8.5,15.3c5.4,4.9,10.3,7.2,15.1,7.2s10.3-2.8,15.4-8.5h0c0,0,0-.1,0-.1l17.2-19.7,17.2,19.7c5.1,5.8,10.2,8.6,15.5,8.6s9.9-2.3,15.2-7.2c5.6-5.1,8.3-10.1,8.3-15.3s-2.3-9.7-7-15h0s0,0,0,0l-20-22,20-21.9c4.8-5.1,7.1-10,7.1-15s-2.7-10.4-8.4-15.5c-5.4-4.9-10.2-7.1-15.1-7.1h0Z"/>
      </g>
    </g>
  </g>
</svg>