<?xml version="1.0" encoding="UTF-8"?>
<svg id="Layer_2" data-name="Layer 2" xmlns="http://www.w3.org/2000/svg" width="1139.9" height="345" viewBox="0 0 1139.9 345">
  <defs>
    <style>
      .cls-1 {
        fill: #fff;
      }

      .cls-2 {
        fill: #94bad6;
      }

      .cls-3 {
        fill: #3d0020;
      }

      .cls-4 {
        fill: #ace9ff;
      }

      .cls-5 {
        fill: #d2f3ff;
      }

      .cls-6 {
        fill: #58c1dd;
      }

      .cls-7 {
        fill: #400424;
      }
    </style>
  </defs>
  <g id="Top">
    <g>
      <g>
        <path class="cls-3" d="m1125.7,205c-3.9,3.1-8.1,5.7-12.6,7.8-2.1.9-2.3,1.3-.9,3.3,4.1,5.9,7.1,12.9,7.2,19.7.2,9.9-2.5,19.7-9.5,27.5-7.7,8.6-17.2,13.4-28.9,13.5-4.3,0-7.3-.8-6.7,6.3.6,6.5-3.8,12.8-8.4,18.1-.8.9-1.5,1.7-2.3,2.6-.3.4-.5.7-.8,1.1-8.8,6.9-18.7,10.7-30,9.7-.3-.3-.7-.5-1-.8-1.3,0-2.6-.1-3.9-.2-.1-1.2-.5-2.5-1.8-2.4-1.6,0-1,1.7-1.2,2.7-3.2,4.7-5.9,9.8-10.3,13.7-9.2,8.2-19.7,13.3-31.9,15.2-12.8,1.9-25.6,2.4-38.5,2.4-255.3,0-510.6,0-766-.2-11,0-22.2-.7-32.6-5.4-.3-.3-.7-.5-1-.8-3.6-2-7.7-2.8-11-5.2-.4-.3-.8-.5-1.2-.8l-1.8-1.2-1.1-.8c-6.1-4.2-10.9-9.5-12.9-16.8,0-1.1.4-2.4-1-2.9-1.3-.4-1.7.5-1.9,1.5-5.5,2.2-11.4,1.1-17,2-.4-.3-.7-.5-1.1-.8-10.9-1.5-18.6-7.7-24.5-16.4-3.4-5-5.7-10.4-5.3-16.6,0-1.5.3-3-2-3.1-2.8-3.3-5.9-2-9-.7-15.4-1.5-24.3-11.2-30.9-24.1,1.1-2.3.4-4-1.9-5-2.7-11.4-.8-21.8,6-31.4,2.5-3.5-1.3-3.5-2.7-4.2-11.6-5.3-18.6-14.4-22.4-26.2-.3-.3-.5-.7-.8-1-3.5-7.9-1.6-15.9-.2-23.8,0-.4,0-.8,0-1.2.4-6.3,3.8-11.4,7.3-16.1,5-6.7,11.2-12.4,19.7-14.8.5-.1.9-.2,1.4-.4-.4-.2-.8-.4-1.2-.6-1.8-3.3-4.3-6.1-5.2-9.9-.2-.3-.5-.7-.7-1,0-.6-.2-1.3-.3-1.9-.3-.4-.5-.7-.8-1.1,0-.3,0-.7,0-1,1.1-1.7,1.5-3.2-1.1-4,0-3.3,0-6.6,0-10,1.3-.2,2.3-.6.8-2,3.7-16,13.3-26.5,29.4-30.6,3.4-.9,7.3-.4,10.9-.3,2.5,0,3.6-.9,3.6-3.5-.1-13.9,11.3-28.5,25.6-32.6,6.4-1.8,13-1.3,19.5-.2,3,.5,4.7.4,6-2.7,2.2-5.6,5.8-10.2,10.6-13.9.4-.3.8-.6,1.3-.9,8.3-6.5,17.7-9.8,28.2-10.2,128.3-4.7,256.7-1.2,385-1.8,136.4-.6,272.7-.3,409.1-.2,14.7,0,29.6.3,43.9,4.2,12.9,3.5,23.8,10.6,28.8,23.9,1.3,3.4,3.2,1.7,4.6,1.4,21-4.1,38.4,4.8,45,25.4.7,2.2.6,4.3.4,6.4-.2,3.5,1.1,4.8,4.6,4.5,8.4-.7,16.1,1.4,23.2,5.9,17.9,11.4,23,37.1,10.5,54-1.9,2.5-.6,2.9,1.1,3.7,14.1,6.1,22.4,16.9,25.6,31.6,3.4,15.6-.7,29.3-11.3,41.2-.3.4-.6.8-.9,1.2-.3.4-.5.7-.8,1.1Zm-62.9-128.7c-.3,0-.6-.2-.9-.2,0,0,.1.1.1.1,0-.6-.2-1.2-.2-1.8-.3-.3-.5-.7-.8-1,0-1,0-2,0-3,.3-.4.5-.7.8-1.1,0-3.3,0-6.5,0-9.8-.2-.4-.5-.7-.7-1.1-.5-3.3-2.1-6.1-4.4-8.5-8.5-9.2-18.9-10.1-30.3-6.7-2.4.7-4.9,2-7.6,1.1-.3-.3-.7-.5-1-.8-2.2-1.4-4.2-3-3.9-6,1.5-1.4.4-1.7-.9-2,0-1.9-.8-3.4-1.8-5-5.5-9.3-15.1-11-24.4-13.1-.4-.3-.8-.5-1.1-.8-3.6,0-7.2-.1-10.9-.2-.4-.3-.7-.5-1.1-.8-8.6.3-17-1.8-25.7-1.8-142.4,0-284.9,0-427.3,0-101.5,0-203,0-304.5,0-22.6,0-45.1,0-67.5,4.6-14.1,2.9-22.2,10.2-22.9,23.1h-.5c-.2.2-.5.5-.7.9,0,.3-.1.6-.2.9-6.2,2.4-12-.3-17.9-1.5-14.8-2.9-28.4,7.9-28.7,21.6-1,4.3,2.7,8.6-.2,12.9-2.4,1.6-4.9,2-7.8,2.1-6.2.2-12.5-1.1-18.6,1-14.7,4.9-21.5,21.1-15.6,35,.9,1.9,1.3,4.3,2.7,5.6,4.7,4.5,6.2,9.9,5.6,16.2-1.7,1.9-3.5,3.5-6.3,4-14.6,2.8-23.4,14.6-25,27.9-2.6,2.9-.5,6,.3,8.7,3,11.2,8.7,20.3,20.3,24.6,4.3,1.6,9.4,1.8,11.9,6.7-.8,5.9-3.3,10.9-7.2,15.4-1.9,2.2-2.7,4.7-3.2,7.5-2.7,4.5-2.4,9.1-.9,13.9,4.2,13.4,14.5,20.2,28.1,20.8,4.4.2,9.1-.9,13.7-.7,2.1,2.2,3.9,4.5,3.5,7.8-1.9,2.8-2.1,6.2-1.2,9.1,2.7,9.2,8.1,15.9,17.6,19,6.9,2.2,13.3,0,19.8-1.6,6.9-1.7,10.1.2,11.4,7,1,5.3,4,9.2,8,12.5,12.2,10.2,27.2,11.2,41.9,12.6,9.4.9,19,.2,28.5.2,117.6.1,235.2.3,352.8.3,124.3,0,248.7-.2,373-.3,2.3,0,4.7.1,7,.2.3,1.4.7,2.3,2.1.7,2.5.3,4.7-1.1,7.2-1,9.7.4,19.4.2,29-1.8,9.2-1.9,18.8-2.7,26.6-9,5.4-4.4,10.7-8.7,11.2-16.5,0-1.5,1.2-2.9,1.9-4.4.3,0,.5,0,.8,0,.4-.2.8-.5,1.1-.7,2,0,4-.2,6-.3,1.5,1.7,3.8,1.3,5.7,2,8.8,3.2,22.7-.8,28.8-9.8,3.7-5.5,3.5-11.2,3.5-17.1-.3-.3-.5-.7-.8-1-1.2-3.5,1-5.6,2.9-7.9,1.9,0,3.9-.1,5.8-.2,5.4.6,10.6,1,16.3-.4,21.7-5.3,27.5-32,11.6-46.2,0-.3,0-.6,0-.9-.3-1.8,1.3-4.3-1.7-5.2-.2-1-.4-1.9-.7-2.9.7-5.5,5.4-5.9,9.3-7.1,12.6-3.8,22-14.7,22-25.9,1.5-3.3,1.7-6.7-.1-10,0-1,0-1.9.1-2.9-.2-.4-.5-.7-.7-1.1-1.1-4.5-3.5-8.3-6.3-11.9.3-2.3-.7-3.4-3.1-3.1-3.7-3.4-8-5.4-12.9-6.2-.3-.3-.7-.5-1-.8-.7,0-1.3-.1-2-.2-.3-.3-.7-.5-1-.8-2.1-.6-3.4-2-4.2-4,1.4-1.6-.4-3.4.4-5,2.7-.6,1.6-2.6,1.7-4.3,2.3-3.6,4.5-7.1,6.8-10.7.2-.7.4-1.3.5-2,.2-.4.5-.7.7-1.1,0-3.6,1.7-7.1,1-10.9,1.5-1.4.5-1.8-.8-2,0-1-.1-1.9-.2-2.9-.3-.4-.5-.7-.8-1.1-2.2-6.5-6.7-10.7-12.6-14.1-6.6-3.9-13.6-2.5-20.6-2.7-1.3-1.6-1.8-.6-2,.7-1,0-2,0-3,0-.8-1.7-2.4-2.2-4-2.8Z"/>
        <path class="cls-7" d="m54.7,276.8c3.1-1.3,6.3-2.5,9,.7-3-.1-6.2,1.2-9-.7Z"/>
        <path class="cls-7" d="m21.9,247.8c2.4,1,3,2.6,1.9,5-1.5-1.3-1.8-3.1-1.9-5Z"/>
        <path class="cls-7" d="m1024.8,313.7c.1-1-.4-2.6,1.2-2.7,1.3,0,1.7,1.2,1.8,2.4-1,0-2,.2-3,.3Z"/>
        <path class="cls-7" d="m113.7,312.4c.2-1.1.7-2,1.9-1.5,1.5.5,1,1.8,1,2.9-.8-.7-1.7-1.5-2.9-1.4Z"/>
        <path class="cls-7" d="m21,109.2c2.6.7,2.2,2.2,1.1,4,.3-1.5-1.8-2.3-1.1-4Z"/>
        <path class="cls-7" d="m21.8,97.3c1.5,1.4.4,1.7-.8,2-.2-.8-.4-1.7.8-2Z"/>
        <path class="cls-7" d="m28.9,128.1c.4.2.8.4,1.2.6-.5.1-.9.2-1.4.4,0-.3.1-.7.2-1Z"/>
        <path class="cls-7" d="m128.7,12.7c-.4.3-.8.6-1.3.9.2-.5.5-1.1,1.3-.9Z"/>
        <path class="cls-7" d="m1.8,160c0,.4,0,.8,0,1.2-.2-.3-.5-.5-.7-.8.3-.1.5-.3.8-.4Z"/>
        <path class="cls-7" d="m2,185c.3.3.5.7.8,1-.6,0-1-.3-.8-1Z"/>
        <path class="cls-7" d="m1125.7,205c.3-.4.5-.7.8-1.1.2.7-.3.9-.8,1.1Z"/>
        <path class="cls-7" d="m1062.8,304.7c.3-.4.5-.7.8-1.1.2.7-.3.9-.8,1.1Z"/>
        <path class="cls-7" d="m22,114.2c.3.4.5.7.8,1.1-.6,0-1-.4-.8-1.1Z"/>
        <path class="cls-7" d="m23,117.2c.2.3.5.7.7,1-.6,0-1-.3-.7-1Z"/>
        <path class="cls-7" d="m95.6,313.6c.4.3.7.5,1.1.8-.7.2-1-.2-1.1-.8Z"/>
        <path class="cls-7" d="m1031.7,313.6c.3.3.7.5,1,.8-.7.2-1-.2-1-.8Z"/>
        <path class="cls-7" d="m129.5,330.6l1.1.8c-.7.2-1-.2-1.1-.8Z"/>
        <path class="cls-7" d="m132.4,332.5c.4.3.8.5,1.2.8-.7.3-1-.3-1.2-.8Z"/>
        <path class="cls-7" d="m144.6,338.5c.3.3.7.5,1,.8-.7.2-.9-.2-1-.8Z"/>
        <path class="cls-4" d="m1104.4,115.2c-2.3,3.6-4.5,7.1-6.8,10.7-1.5,1-2.3,2.4-1.7,4.3-.8,1.6,1,3.4-.4,5-4.2,5.1-2.7,10.4,4.2,12.7,6.1,2.1,12.1,4.2,17.3,8.2,3.7,2.9,6,6.9,9.6,9.9,1.8,3.3,1.7,6.6.1,10-2.3,0-3.4,2-4.7,3.4-4.3,4.5-9.4,7.7-15.1,10.1-3.2,1.3-6.5,2.6-9.5,4.3-5.5,3.1-6.6,11.6-2,15.3.2,1,.4,1.9.7,2.9-.5,2.1-.5,4,1.7,5.2,0,.3,0,.6,0,.9,3.2,6.8-.1,13.2-1.4,19.6-2.8,13.8-10.6,22.8-25,25.2-1,.2-1.3.9-1.5,1.7-1.9,0-3.9.1-5.8.2-6.7,0-10.1,2.3-12.2,9.2-2.7,8.9-6.9,16.4-15.7,20.7-3.9,1.9-8.3,1.9-12.1,3.8-2,0-4,.2-6,.3-.7-.3-1,.2-1.1.7-.3,0-.5,0-.8,0-3.2-.2-5.7,1.6-7.1,3.8-2.8,4.4-7.1,6-11.6,7-20.5,4.8-41.2,6.4-62.4,6.4-249.1-.4-498.1-.3-747.2-.2-11.2,0-22.1-1.7-33.2-2.2-8.4-.4-15.7-3.6-21-10.6-1.4-1.8-3.3-3.3-4.9-5-4.9-5.5-10.5-8.5-18.2-7.3-3.9.6-8,.3-12,0-6.3-.4-11.4-2.5-14.3-8.9-1.5-3.4-1.8-7.4-4.8-10.1.5-3.3-1.4-5.6-3.5-7.8-1.7-6.1-6.9-7.3-11.9-7.9-13.9-1.7-22.7-8.9-26.4-22.4-.4-1.4-.2-3.6-2.6-3.7.5-2.7,1.3-5.3,3.2-7.5,3.8-4.5,6.4-9.5,7.2-15.4,2.3-.7,1.2-2.1,1-3.6-1.5-8.6-8.1-13-14.8-17.1-7.2-4.4-12.1-10.6-15.7-18.1.4-.5,1-1,1.2-1.5,3.2-10.4,10.1-16.6,20.9-18.9,3.1-.6,5.8-2.5,7.8-5.1,2.3-3,1.6-6.3-1.6-7.6.6-6.2-1-11.7-5.6-16.2-1.4-1.4-1.8-3.7-2.7-5.6,4-3.4,3.6-8.7,5.2-13.1,3.9-10.7,6.8-13,18.2-13,4.6,0,9.3.6,13.7-1.4,4.8-2.2,6.7-6,5-10.6,2.9-4.3-.8-8.6.2-12.9,3.8-1,5.5-4.6,8.2-6.9,5.3-4.6,10.9-7.6,18.4-6.2,3.6.6,7.1,1.4,10.7,2,3.6.6,7-.3,9.4-3.3,1.5-1.8,1.9-3.8,0-5.7,0-.3.1-.6.2-.9.6,0,1-.3.7-1,0,0,.5,0,.5,0,1.2,0,2.5,0,3.2-1.1,6.4-9.7,16-13.1,27-14.2,12.7-1.3,25-3.9,38-4,257.9-.3,515.7,1.5,773.6-.6,16-.1,30.2,5.5,39.5,20,1.9,3,4.4,5.1,9,5.9,5.9,1,11.6-.9,17.4.8,7.4,2.1,14.4,4.4,18.1,11.8,1.6,3.2,2.1,7,3.5,10.3,1.2,3.1,2.7,6.3,7,5.8,0,0-.1-.1-.1-.1.2.4.5.8.7,1.2.7.7,1.4,1.4,2.1,2.2,5.2,3,11.1,4.1,16.8,5.6,10.4,2.7,16.8,9.1,19.3,19.6.9,3.6.3,7.7,3.6,10.5Z"/>
        <path class="cls-2" d="m79.2,272.6c3,2.7,3.3,6.7,4.8,10.1,2.9,6.4,8,8.6,14.3,8.9,4,.2,8.1.5,12,0,7.7-1.2,13.4,1.8,18.2,7.3,1.5,1.7,3.5,3.2,4.9,5,5.3,7,12.5,10.2,21,10.6,11.1.5,22.1,2.2,33.2,2.2,249.1,0,498.1-.2,747.2.2,21.2,0,41.9-1.7,62.4-6.4,4.5-1.1,8.8-2.6,11.6-7,1.4-2.2,4-4.1,7.1-3.8-.7,1.5-1.8,2.9-1.9,4.4-.5,7.8-5.8,12.1-11.2,16.5-7.8,6.3-17.4,7.1-26.6,9-9.6,2-19.3,2.3-29,1.8-2.6-.1-4.7,1.3-7.2,1-.4-1.1-1.2-.9-2.1-.7-2.3,0-4.7-.2-7-.2-124.3,0-248.7.3-373,.3-117.6,0-235.2-.2-352.8-.3-9.5,0-19.1.7-28.5-.2-14.7-1.4-29.8-2.4-41.9-12.6-4-3.4-7-7.2-8-12.5-1.3-6.8-4.5-8.6-11.4-7-6.5,1.6-12.8,3.8-19.8,1.6-9.5-3.1-15-9.9-17.6-19-.8-2.9-.6-6.3,1.2-9.1Z"/>
        <path class="cls-5" d="m1062,76.2c-4.3.5-5.8-2.7-7-5.8-1.3-3.4-1.9-7.1-3.5-10.3-3.6-7.4-10.7-9.7-18.1-11.8-5.8-1.6-11.5.2-17.4-.8-4.6-.8-7-2.9-9-5.9-9.3-14.5-23.5-20.1-39.5-20-257.9,2-515.7.3-773.6.6-13,0-25.3,2.7-38,4-11,1.1-20.6,4.5-27,14.2-.7,1.1-2,1-3.2,1.1.7-13,8.8-20.2,22.9-23.1,22.4-4.6,44.9-4.6,67.5-4.6,101.5,0,203,0,304.5,0,142.4,0,284.9.1,427.3,0,8.6,0,17.1,2.1,25.7,1.8.1.6.4,1,1.1.8,3.6,0,7.2.1,10.9.2.2.6.4,1,1.1.8,9.3,2.2,18.9,3.9,24.4,13.1.9,1.6,1.8,3.1,1.8,5-.1.8-.4,1.7.9,2-.3,3,1.7,4.6,3.9,6,0,.6.4,1,1,.8,2.7.9,5.1-.4,7.6-1.1,11.4-3.4,21.7-2.5,30.3,6.7,2.3,2.4,3.9,5.2,4.4,8.5-.3.7.1.9.7,1.1,0,3.3,0,6.5,0,9.8-.6.1-1,.4-.8,1.1,0,1,0,2,0,3-.2.7.2,1,.8,1,0,.6.2,1.2.2,1.8Z"/>
        <path class="cls-5" d="m77.7,76.2c1.7,4.6-.2,8.3-5,10.6-4.4,2-9.1,1.4-13.7,1.4-11.4,0-14.3,2.3-18.2,13-1.6,4.4-1.2,9.6-5.2,13.1-5.9-13.9.9-30.1,15.6-35,6.1-2,12.4-.7,18.6-1,2.9-.1,5.5-.5,7.8-2.1Z"/>
        <path class="cls-2" d="m1023.8,298.6c3.8-1.9,8.2-1.9,12.1-3.8,8.8-4.3,13-11.8,15.7-20.7,2.1-7,5.5-9.3,12.2-9.2-1.9,2.3-4.2,4.5-2.9,7.9-.1.6.2.9.8,1,0,5.9.2,11.6-3.5,17.1-6.1,8.9-20,13-28.8,9.8-1.9-.7-4.2-.3-5.7-2Z"/>
        <path class="cls-2" d="m1069.7,264.6c.2-.8.5-1.6,1.5-1.7,14.4-2.4,22.2-11.5,25-25.2,1.3-6.4,4.6-12.8,1.4-19.6,15.8,14.1,10.1,40.8-11.6,46.2-5.7,1.4-10.9,1-16.3.4Z"/>
        <path class="cls-2" d="m34.8,230.8c2.4,0,2.2,2.3,2.6,3.7,3.7,13.5,12.5,20.7,26.4,22.4,5,.6,10.2,1.8,11.9,7.9-4.6-.2-9.2.9-13.7.7-13.6-.6-23.9-7.4-28.1-20.8-1.5-4.7-1.8-9.4.9-13.9Z"/>
        <path class="cls-2" d="m15.6,169.3c3.5,7.5,8.4,13.7,15.7,18.1,6.7,4.1,13.3,8.4,14.8,17.1.3,1.4,1.4,2.9-1,3.6-2.4-4.9-7.6-5.1-11.9-6.7-11.6-4.3-17.3-13.3-20.3-24.6-.7-2.7-2.9-5.7-.3-8.7,1.2-.2,2,.7,2.9,1.2Z"/>
        <path class="cls-5" d="m124.5,43.3c2,1.9,1.6,3.9,0,5.7-2.4,2.9-5.8,3.8-9.4,3.3-3.6-.6-7.1-1.4-10.7-2-7.5-1.3-13.1,1.6-18.4,6.2-2.7,2.3-4.4,5.9-8.2,6.9.3-13.6,13.9-24.5,28.7-21.6,5.9,1.2,11.7,3.9,17.9,1.5Z"/>
        <path class="cls-2" d="m1095.3,209c-4.5-3.7-3.5-12.2,2-15.3,3-1.7,6.3-2.9,9.5-4.3,5.7-2.4,10.8-5.6,15.1-10.1,1.3-1.4,2.4-3.3,4.7-3.4,0,11.2-9.4,22.2-22,25.9-4,1.2-8.6,1.6-9.3,7.1Z"/>
        <path class="cls-5" d="m1104.4,115.2c-3.3-2.8-2.7-6.9-3.6-10.5-2.6-10.5-8.9-16.9-19.3-19.6-5.7-1.5-11.6-2.6-16.8-5.6l2-.3c1,0,2,0,3,0,.8.2,1.7.3,2-.7,6.9.2,13.9-1.2,20.6,2.7,5.9,3.5,10.4,7.7,12.6,14.1-.2.7.2,1,.8,1.1,0,1,.1,1.9.2,2.9-.2.8-.4,1.7.8,2,.7,3.7-1,7.2-1,10.9-.5.2-1,.4-.7,1.1-.2.7-.4,1.3-.5,2Z"/>
        <path class="cls-5" d="m15.6,169.3c-.9-.6-1.7-1.4-2.9-1.2,1.5-13.4,10.4-25.1,25-27.9,2.8-.5,4.6-2.1,6.3-4,3.2,1.3,3.9,4.6,1.6,7.6-2,2.6-4.7,4.5-7.8,5.1-10.8,2.2-17.7,8.4-20.9,18.9-.2.6-.8,1-1.2,1.5Z"/>
        <path class="cls-5" d="m1126.5,166c-3.5-3-5.8-7-9.6-9.9-5.2-4-11.2-6.1-17.3-8.2-6.8-2.3-8.4-7.6-4.2-12.7.8,2,2.1,3.4,4.2,4,0,.6.3,1,1,.8.7,0,1.3.1,2,.2,0,.6.3,1,1,.8,4.9.8,9.2,2.8,12.9,6.2,1,1,2.1,2,3.1,3.1,2.8,3.6,5.1,7.4,6.3,11.9-.3.7.1.9.7,1.1,0,1,0,1.9-.1,2.9Z"/>
        <path class="cls-7" d="m1097.6,217.1c-2.2-1.2-2.1-3.2-1.7-5.2,3,1,1.4,3.4,1.7,5.2Z"/>
        <path class="cls-7" d="m1066.8,79.1c-.7.1-1.3.2-2,.3-.7-.7-1.4-1.4-2.1-2.2.1-.3.2-.6.2-1,1.5.6,3.2,1.2,4,2.8Z"/>
        <path class="cls-7" d="m1095.9,130.1c-.6-1.9.2-3.2,1.7-4.3-.1,1.6.9,3.7-1.7,4.3Z"/>
        <path class="cls-7" d="m1119.7,150.2c-1-1-2.1-2-3.1-3.1,2.3-.3,3.4.7,3.1,3.1Z"/>
        <path class="cls-7" d="m1071.8,78.4c-.4,1.1-1.2.9-2,.7.3-1.4.7-2.3,2-.7Z"/>
        <path class="cls-7" d="m1013.8,37.4c-1.2-.3-1-1.1-.9-2,1.3.2,2.3.6.9,2Z"/>
        <path class="cls-7" d="m1106.7,101.2c-1.2-.3-1-1.2-.8-2,1.3.3,2.4.6.8,2Z"/>
        <path class="cls-7" d="m937.9,331.7c.8-.2,1.7-.4,2.1.7-1.3,1.6-1.8.7-2.1-.7Z"/>
        <path class="cls-7" d="m1126.7,163.1c-.6-.1-1-.4-.7-1.1.2.4.5.7.7,1.1Z"/>
        <path class="cls-7" d="m974.8,16.3c-.7.2-1-.2-1.1-.8.4.3.7.5,1.1.8Z"/>
        <path class="cls-7" d="m986.8,17.3c-.7.2-1-.2-1.1-.8.4.3.8.5,1.1.8Z"/>
        <path class="cls-7" d="m125.4,41.4c.3.7,0,.9-.7,1,.2-.3.5-.6.7-1Z"/>
        <path class="cls-7" d="m1018.8,44.2c-.7.2-1-.2-1-.8.3.3.7.5,1,.8Z"/>
        <path class="cls-7" d="m1061.7,59.4c-.6-.1-1-.4-.7-1.1.2.4.5.7.7,1.1Z"/>
        <path class="cls-7" d="m1060.9,70.3c-.2-.7.2-1,.8-1.1-.3.4-.5.7-.8,1.1Z"/>
        <path class="cls-7" d="m1061.8,74.3c-.6,0-1-.3-.8-1,.3.3.5.7.8,1Z"/>
        <path class="cls-5" d="m1062.8,76.3c0,.3,0,.7-.2,1-.2-.4-.5-.8-.7-1.2.3,0,.6.1.9.2Z"/>
        <path class="cls-7" d="m1105.7,96.3c-.6-.1-1-.4-.8-1.1.3.4.5.7.8,1.1Z"/>
        <path class="cls-7" d="m1016.6,299.6c.2-.5.5-1,1.1-.7-.4.2-.8.5-1.1.7Z"/>
        <path class="cls-7" d="m1105,113.2c-.3-.7.2-.9.7-1.1-.2.4-.5.7-.7,1.1Z"/>
        <path class="cls-7" d="m1061.7,273.8c-.6,0-.9-.4-.8-1,.3.3.5.7.8,1Z"/>
        <path class="cls-7" d="m1100.7,140c-.7.2-1-.2-1-.8.3.3.7.5,1,.8Z"/>
        <path class="cls-7" d="m1103.7,140.9c-.7.2-1-.2-1-.8.3.3.7.5,1,.8Z"/>
      </g>
      <g>
        <g>
          <path class="cls-1" d="m306.3,248.2c-15.4,0-20.8-6.6-22.7-12.1-1-3-1.5-6.9-1.5-12.3v-105.4c0-3.3.1-5.7.3-7.5.3-2.4,1.2-4.9,2.6-7.6,4.7-9.1,17.3-9.1,21.4-9.1h40.7c12.8,0,25.3,4.6,37.1,13.7,6.1,4.6,11.1,10.9,14.9,18.6,3.8,7.7,5.7,16.4,5.7,25.7s-1.9,18-5.7,25.7c-3.8,7.7-8.8,13.9-14.9,18.5-11.8,9.1-24.3,13.7-37.2,13.7h-16.2v14c0,3.3-.1,5.7-.3,7.5-.3,2.4-1.2,4.9-2.6,7.6-4.7,9.1-17.3,9.1-21.4,9.1Zm40.9-86.8c2.1,0,4.3-.9,6.7-2.7,1.2-.9,2.5-2.5,2.5-6.6s-1.4-5.8-2.6-6.7c-2.3-1.8-4.6-2.7-6.8-2.7h-16.2v18.6h16.4Z"/>
          <path class="cls-6" d="m347.2,101.6c11.1,0,22,4.1,32.5,12.2,5.2,3.9,9.4,9.2,12.7,16,3.3,6.7,4.9,14.2,4.9,22.4s-1.6,15.7-4.9,22.3c-3.3,6.6-7.5,11.9-12.7,15.9-10.5,8.1-21.4,12.2-32.7,12.2h-23.8v21.5c0,2.9,0,5.1-.3,6.6-.2,1.5-.8,3.1-1.8,5-1.8,3.4-6.7,5.1-14.8,5.1s-14.1-2.3-15.6-7c-.8-2.2-1.1-5.4-1.1-9.9v-105.4c0-2.9,0-5.1.3-6.6.2-1.5.8-3.1,1.8-5,1.8-3.4,6.7-5.1,14.8-5.1h40.7m-23.9,67.3h23.9c3.8,0,7.5-1.4,11.2-4.2,3.7-2.8,5.5-7,5.5-12.5s-1.8-9.8-5.5-12.6c-3.7-2.8-7.5-4.3-11.4-4.3h-23.8v33.6m23.9-82.3h-40.7c-14.1,0-23.5,4.4-28.1,13.1-1.9,3.5-3,6.8-3.4,10.1-.3,2.2-.4,4.9-.4,8.5v105.4c0,6.2.6,10.9,1.9,14.7,2.2,6.5,8.9,17.2,29.8,17.2s23.5-4.4,28.1-13.1c1.9-3.5,3-6.8,3.4-10.1.3-2.1.4-4.8.4-8.5v-6.5h8.8c14.6,0,28.6-5.1,41.8-15.2,7-5.3,12.8-12.4,17.1-21.1,4.3-8.7,6.5-18.5,6.5-29s-2.2-20.3-6.5-29c-4.3-8.8-10.1-15.9-17.1-21.3-13.1-10.1-27.1-15.2-41.6-15.2h0Zm-8.9,63.6h8.8c.4,0,1.1.3,1.8.9,0,.2,0,.6,0,1.1s0,.7,0,.9c-.9.6-1.5.8-1.7.8h-8.9v-3.6h0Z"/>
        </g>
        <g>
          <path class="cls-1" d="m498.5,248c-8.7,0-14.5-1.3-18.3-4-.6-.4-1.2-.9-1.7-1.4-5.7,3.6-12.8,5.4-21.4,5.4-13.1,0-25.2-5.8-36-17.4-10.7-11.4-16.1-24.8-16.1-40s5.5-28.6,16.2-39.9c10.9-11.4,23.1-17.3,36.5-17.3s10.3,1,14.7,2.9c2.2,1,4.1,1.9,5.7,2.8,3.3-3.3,8.6-5.9,17.2-5.9s10.1.5,13.3,1.5c5.5,1.7,8.2,5.2,9.5,7.8,1.3,2.7,2.1,5.1,2.4,7.4.2,1.8.3,4.3.3,7.5v66.5c0,3.3-.1,5.7-.3,7.5-.3,2.2-1,4.6-2.3,7.2v.2c0,0-.2.2-.2.2-3.2,5.9-9.8,8.9-19.6,8.9Zm-35.9-66.5c-2.8,0-4.8.9-6.5,2.8-1.9,2.2-2.8,4.3-2.8,6.6s.3,3.5,2.8,6c1.9,1.9,3.9,2.8,6.6,2.8s4.5-.8,6.1-2.7c1.8-2,2.7-4,2.7-6.3s-.9-4.5-2.7-6.7c-1-1.2-2.7-2.6-6.2-2.6Z"/>
          <path class="cls-6" d="m495.4,140.7c4.9,0,8.6.4,11,1.1,2.4.8,4.1,2.1,5,4,1,1.9,1.5,3.6,1.7,5,.2,1.5.3,3.6.3,6.6v66.5c0,2.9,0,5.1-.3,6.6-.2,1.5-.7,3.1-1.6,5-1.8,3.3-6.1,4.9-13,4.9s-11.5-.9-13.9-2.6c-2.3-1.7-3.7-4.2-4.1-7.5-4.7,6.7-12.5,10.1-23.5,10.1s-21.1-5-30.5-15c-9.4-10-14.1-21.6-14.1-34.9s4.7-24.8,14.2-34.8c9.4-9.9,19.8-14.9,31.1-14.9s8.2.8,11.8,2.3c3.5,1.5,6,2.9,7.4,4.3,1.4,1.3,2.5,2.6,3.4,3.9.8-7.1,5.8-10.6,15-10.6m-32.7,66.5c4.7,0,8.6-1.7,11.7-5.1,3.1-3.4,4.7-7.2,4.7-11.3s-1.5-7.9-4.5-11.5c-3-3.5-7-5.3-12-5.3s-9.1,1.8-12.2,5.3c-3.1,3.5-4.7,7.4-4.7,11.6s1.6,8,4.9,11.3c3.3,3.4,7.3,5,12,5m32.7-81.5c-7.6,0-13.5,1.7-18,4.5-.6-.3-1.3-.6-1.9-.9-5.4-2.3-11.4-3.5-17.7-3.5-15.5,0-29.6,6.6-41.9,19.6-12.1,12.8-18.3,28-18.3,45.1s6.1,32.3,18.1,45.1c12.3,13.1,26.2,19.8,41.4,19.8s15.4-1.6,20.8-4.1c4.9,2.8,11.4,4.1,20.6,4.1,16,0,23.1-7,26.2-12.8l.2-.4.2-.4c1.6-3.3,2.5-6.4,2.9-9.4.3-2.1.4-4.8.4-8.5v-66.5c0-3.6-.1-6.3-.4-8.5-.4-3.2-1.4-6.4-3.2-9.8-2.8-5.6-7.6-9.6-13.9-11.6-4-1.3-8.9-1.8-15.5-1.8h0Zm-33.5,63.3c0,0,.3,0,.7,0s.4,0,.5,0c.9,1.1.9,1.6.9,1.8,0,.3-.5.9-.8,1.2,0,0-.1.1-.2.2,0,0-.2,0-.4,0-.6,0-.8,0-1.3-.5-.4-.4-.6-.7-.6-.8,0-.2,0-.7.9-1.7,0,0,.1-.1.1-.1h0Z"/>
        </g>
        <g>
          <path class="cls-1" d="m617.5,248.2c-3.6,0-14,0-19.4-6.4-.3.2-.7.5-1,.7h-.2c-5.5,3.7-11.6,5.5-18.1,5.5-15,0-27.6-5.8-37.5-17.1-9.6-11-14.5-24.6-14.5-40.4v-33.2c0-3.5.1-5.9.4-7.7.3-2.2,1-4.5,2.3-7.1v-.3c4.9-9.2,17.5-9.2,21.6-9.2,15.4,0,20.8,6.6,22.7,12.3,1.1,2.9,1.5,6.8,1.5,12.1v33.2c0,4.6,1.7,6.3,2.2,6.8,1,1,2.7,2.2,6.7,2.2s5.9-1.4,6.9-2.4c1-1,2.4-2.8,2.4-6.6v-33.6c0-3.3.1-5.7.3-7.5.3-2.4,1.2-4.8,2.6-7.5,4.6-9,17.1-9,21.3-9s16.5,0,21.3,9.2h0c0,.1,0,.3,0,.3,1.2,2.6,2,5,2.3,7.2.2,1.8.3,4.3.3,7.5v67.3c0,3.1-.1,5.5-.3,7.3-.3,2.5-1.2,4.9-2.7,7.6-5,8.7-17.2,8.7-21.1,8.7Z"/>
          <path class="cls-6" d="m617.7,140.6c8,0,12.9,1.7,14.6,5.1.9,1.9,1.4,3.6,1.6,5,.2,1.5.3,3.6.3,6.6v67.3c0,2.8,0,4.9-.3,6.4-.2,1.5-.8,3.1-1.8,4.8-1.9,3.3-6.8,4.9-14.6,4.9s-12.5-1.5-14.2-4.6c-1.3-2.2-1.9-4.8-1.9-7.8-.5.9-1.6,2.2-3.4,3.8-1.8,1.6-3.5,3-5.1,4.2-4.3,2.8-9,4.2-14.1,4.2-12.8,0-23.4-4.8-31.8-14.5-8.4-9.7-12.6-21.5-12.6-35.4v-33.2c0-3,0-5.3.3-6.6.2-1.4.7-3,1.6-4.9,1.8-3.4,6.7-5.1,14.8-5.1s14.1,2.4,15.6,7.2c.8,2,1.1,5.3,1.1,9.7v33.2c0,5.2,1.5,9.2,4.5,12.2,3,2.9,7,4.4,12,4.4s9.1-1.5,12.2-4.6c3.1-3,4.7-7,4.7-12v-33.6c0-2.9,0-5.1.3-6.6.2-1.5.8-3.1,1.8-5,1.6-3.3,6.5-4.9,14.6-4.9m0-15c-14.1,0-23.5,4.4-27.9,13-1.8,3.5-2.9,6.8-3.4,10-.3,2.1-.4,4.8-.4,8.5v33.6c0,.8-.1,1.1-.1,1.2,0,0,0,0,0,0-.2.2-1.1.3-1.7.3s-1.1,0-1.3-.1c0-.3-.1-.7-.1-1.4v-33.2c0-6.2-.6-10.8-2-14.6-2.2-6.6-9-17.3-29.8-17.3s-23.6,4.5-28.1,13.2v.3c-.1,0-.3.3-.3.3-1.5,3.3-2.5,6.3-2.9,9.3-.3,2.1-.4,4.9-.4,8.7v33.2c0,17.6,5.5,32.8,16.3,45.3,11.2,12.9,26.1,19.7,43.1,19.7s12.8-1.5,18.6-4.5c7.4,4.7,16.5,4.7,20.1,4.7,13.6,0,22.9-4.2,27.6-12.4h0s0,0,0,0c2-3.5,3.2-7,3.7-10.3.3-2.1.4-4.8.4-8.3v-67.3c0-3.6-.1-6.3-.4-8.5-.4-3-1.3-6.1-2.9-9.4v-.3c-.1,0-.3-.3-.3-.3-4.6-8.8-14-13.2-27.9-13.2h0Z"/>
        </g>
        <g>
          <path class="cls-1" d="m691.1,250.1c-13.6,0-26.8-4-39.2-11.8-4.6-2.9-7.1-7.7-7.1-13.6s2.6-11,8.5-19.3c1.7-2.5,4-4.4,6.8-5.4-3-2.8-5.5-6.3-7.6-10.5-2.9-5.9-4.4-12.9-4.4-20.7,0-12.5,4.5-22.1,13.4-28.6,8.3-6,19.8-8.9,35.3-8.9s20.4,2.4,30.8,7.1c9.1,4.2,11.1,10.2,11.1,14.4s-1.7,9.5-5.3,15.2c-2.5,4.1-5.4,6.9-8.4,8.5.4.2.7.4,1.1.5,5,2.4,9.2,6.5,12.4,12.2,3.1,5.5,4.7,12.3,4.7,20.1s-1.5,14.6-4.6,20.3c-3.2,6-7.7,10.5-13.5,13.5h-.2c-9.1,4.5-20.5,6.7-33.8,6.7Z"/>
          <path class="cls-6" d="m696.9,138.8c9,0,18.2,2.2,27.7,6.5,4.4,2,6.6,4.6,6.6,7.6s-1.4,6.8-4.2,11.2c-2.8,4.4-5.6,6.6-8.5,6.6s-4.3-1-8.5-2.9c-4.1-1.9-8.6-2.9-13.4-2.9-7.5,0-11.2,1.4-11.2,4.2s4.3,6.3,12.9,7.4c8.4.9,16.5,3.3,24.3,7.2,3.7,1.8,6.7,4.8,9.2,9.2,2.5,4.4,3.7,9.9,3.7,16.4s-1.2,12.2-3.7,16.8c-2.5,4.6-5.9,8.1-10.4,10.4-8.1,3.9-18.3,5.9-30.5,5.9s-24-3.5-35.2-10.6c-2.4-1.5-3.6-3.9-3.6-7.2s2.4-8.3,7.2-15c1.4-2.2,3.6-3.2,6.7-3.2s7.3,1.6,12.6,4.7c5.3,3.1,10.1,4.7,14.4,4.7,7.7,0,11.6-1.5,11.6-4.6s-4.2-4.2-12.7-5.3c-8-1.1-15.9-4.1-23.8-8.9-3.7-2.3-6.7-5.9-9.1-10.7-2.4-4.9-3.6-10.7-3.6-17.4,0-20,13.7-30,41.2-30m0-15c-17.2,0-30.2,3.4-39.8,10.4-7.5,5.5-16.5,15.9-16.5,34.6s1.7,17.1,5.2,24c1,2,2.1,4,3.3,5.7-.7.8-1.4,1.7-2,2.6-6.8,9.6-9.9,16.8-9.9,23.5s3.9,15.6,10.6,19.9c13.7,8.6,28.2,13,43.3,13s26.9-2.5,37-7.4h.2c0,0,.2-.2.2-.2,7.2-3.7,12.8-9.3,16.7-16.6,3.6-6.8,5.5-14.8,5.5-23.9s-1.9-17.2-5.6-23.8c-2.2-3.9-4.8-7.2-7.8-9.9.9-1.1,1.7-2.3,2.6-3.7,4.4-6.9,6.5-13.2,6.5-19.2s-1.5-14.9-15.4-21.2h0s0,0,0,0c-11.4-5.2-22.8-7.8-33.9-7.8h0Z"/>
        </g>
        <g>
          <path class="cls-1" d="m804.9,250.8c-10.4,0-19.8-1.8-28-5.5-8.4-3.7-15.1-8.8-19.9-15.1-8.9-11.5-13.5-24.6-13.5-38.9s6-32.8,17.9-43.8c11.7-10.8,26.4-16.3,43.8-16.3s35.3,7.4,45,22c5.1,7.8,7.7,16.5,7.7,25.7s-2.7,17.5-8.1,22.7c-1.9,1.9-4,3.4-6.1,4.6,2.1,1.9,4.1,4.5,6,8.1v.2c2.2,4.5,3.3,8.4,3.3,12,0,16.2-16.1,24.4-48,24.4Zm4.1-73.9c-.6-.3-1.9-.8-4.4-.8s-2.3.3-3.5.8h7.9Z"/>
          <path class="cls-6" d="m805,138.7c17.6,0,30.5,6.2,38.8,18.6,4.3,6.6,6.5,13.8,6.5,21.6s-1.9,13.6-5.8,17.3c-3.9,3.7-8.1,5.6-12.8,5.6h-45c0,3.5,2.1,6.5,6.3,8.9,4.2,2.4,8.4,3.6,12.5,3.6,7.3,0,13.1-.8,17.3-2.3l2.1-.8c3-1.4,5.6-2.1,7.6-2.1,4.1,0,7.5,2.9,10.5,8.5,1.6,3.4,2.5,6.3,2.5,8.7,0,11.3-13.5,16.9-40.5,16.9s-17.7-1.6-25-4.8c-7.3-3.2-13-7.5-17-12.8-8-10.3-12-21.7-12-34.4s5.2-28.7,15.5-38.3c10.3-9.6,23.2-14.3,38.7-14.3m-18.8,45.8h23.9c4.8,0,7.2-2,7.2-6.1s-1.1-5.3-3.3-7c-2.2-1.8-5.4-2.7-9.5-2.7s-8.2,1.7-12.3,5c-4.1,3.4-6.1,6.9-6.1,10.7m18.8-60.8c-19.3,0-35.7,6.2-48.9,18.3-13.5,12.5-20.3,29.1-20.3,49.3s5.1,30.6,15.1,43.5c5.6,7.3,13.3,13.2,22.8,17.4,9.2,4.1,19.6,6.1,31.1,6.1s27.5-1.8,36.1-5.4c12.3-5.1,19.3-14.8,19.3-26.5s-1.3-9.7-4-15.2v-.2c0,0-.2-.2-.2-.2-.6-1.2-1.3-2.3-1.9-3.4.2-.2.4-.4.6-.6,6.9-6.7,10.4-16.1,10.4-28.1s-3-20.7-8.9-29.8h0s0,0,0,0c-7.7-11.6-22.8-25.3-51.3-25.3h0Z"/>
        </g>
      </g>
    </g>
  </g>
</svg>