<?xml version="1.0" encoding="UTF-8"?>
<svg id="Layer_2" data-name="Layer 2" xmlns="http://www.w3.org/2000/svg" width="1151.5" height="130.6" viewBox="0 0 1151.5 130.6">
  <defs>
    <style>
      .cls-1 {
        fill: #af7296;
      }

      .cls-2 {
        fill: #71425a;
      }

      .cls-3 {
        fill: #ffdaee;
      }

      .cls-4 {
        fill: #ffbbe1;
      }

      .cls-5 {
        fill: #d896bb;
      }
    </style>
  </defs>
  <g id="Top">
    <g>
      <path class="cls-1" d="m1082.4,128.9c-143.8.8-287.6.7-431.5.3-21.6,0-43.3,0-64.9.7-5.6.2-11.2.9-16.8.8-164.1-3.3-328.2.1-492.2-1.2-9.8,0-19.3-.8-28.7-2.9-11.7-2.5-24.4-14.6-25.1-27.4-.2-2.7-2-3.3-3.6-4.1-9.7-4.7-15.8-12.1-18.6-22.4-3.7-13.8,3-29.7,15.7-36.7,3.6-2,6-4.2,7.1-8.8,3.3-14,13.5-21.6,27.1-24.7,8.1-1.8,16.4-1.8,24.6-1.8,136.7,0,273.4,0,410.1,0,33.1,0,66.3-1,99.4-.6,90.7,1.2,181.5,0,272.2.3,72.6.3,145.2.1,217.8.1,9.6,0,19.1.9,28.4,2.9,11.3,2.3,24.5,13.5,24.7,26.5,0,3.6,3.3,4.1,5.5,5.3,8.4,4.7,14,11.5,16.8,20.7,3.8,12.5-2.5,29.2-13.8,36-4.5,2.7-7.9,5.3-9.1,11.8-2.2,11.7-16.6,22.5-27.7,22.9-5.9.2-11.5,3-17.5,2.2Zm-1008.3-11.8c.6.9,1.3.9,1.9,0,120.6,0,241.2,0,361.8,0,.6,1,1.2,1,1.9,0,27.3,0,54.7,0,82,0,.6.9,1.3.9,1.9,0,38.4-.7,76.9,0,115.3,0,94.5.1,189.1,0,283.6-.1,55.8,0,111.5,0,167.3-.2,15.1,0,25.7-7.2,27.1-22.8,1.6-3.4,4-5.6,7.5-7.1,3.4-1.4,6.6-3.5,8.7-6.7,4.1-4,6.7-8.7,6.9-14.5.3-10.7-5.4-17.7-14.3-22.3-5.5-2.8-9.2-6.1-9.9-12.7-.4-3.4-1.8-6.6-4.4-9.6-5.9-6.7-13.8-7.3-21.5-7.6-26.3-1.2-52.6-.2-78.9-.2-124-.2-248-.3-372.1-.4-18.5,0-36.9.7-55.4.7-49.4-.1-98.9-.8-148.3-.6-120.2.7-240.4.5-360.6,0-7.8,0-15.6.5-23.3,1.6-7.6,1.1-13.7,6.2-14.8,12.7-1.5,8.9-5.4,14.1-13.2,17.3-.6.3-1.2.5-1.7.9-7.1,4.8-11.9,15.9-9.8,22.8,0,2.1.9,4,1.8,5.9,3.9,8.4,11.5,12.4,19.4,15.9,1,2.9,2,5.7,2.5,8.8,1,6.1,4.4,10.8,9.8,13.8,4.7,2.6,9.3,5.7,15,2.6,4.1,3.8,9.1,1.6,13.8,2Z"/>
      <path class="cls-4" d="m33,89.9c-7.9-3.5-15.5-7.5-19.4-15.9-.9-1.9-1.7-3.8-1.8-5.9,2.2-10.1,9.3-15.8,18-20.2,3.4-1.7,5.4-4.6,6.6-8.3,3.7-11.4,12.1-17.3,24.2-17.3,340.9,0,681.9,0,1022.8,0,13.5,0,24.2,5.1,30.4,17.6,2.3,4.5,5.6,8,9.6,11.1,6.6,5,10.9,11.6,10.4,20.3-.2,2.9-.6,5.9-.9,8.8-2.1,3.2-5.3,5.3-8.7,6.7-3.5,1.5-6,3.7-7.5,7.1-2.3.2-3.5,1.9-4.5,3.6-3.4,5.1-7.6,8.6-14,9.1-3,.2-6,.1-9,.4-14,1.2-27.9,3.4-41.9,3.7-56.7,1-113.4.4-170.2.8-86.8.7-173.7.1-260.5-.3-179.9-1-359.9-.3-539.8-.2-6.7,0-12.5-1.5-18.6-4.2-7.8-3.4-14.3-7.6-17.8-15.6-.4-.9-1.2-1.7-2-2.2-2-1.2-4.2-2.4-5.5.9Z"/>
      <path class="cls-5" d="m1133.1,80c.3-2.9.7-5.9.9-8.8.4-8.7-3.8-15.3-10.4-20.3-4.1-3.1-7.4-6.6-9.6-11.1-6.3-12.5-16.9-17.6-30.4-17.6-340.9,0-681.9,0-1022.8,0-12.1,0-20.5,5.9-24.2,17.3-1.2,3.7-3.1,6.6-6.6,8.3-8.7,4.4-15.8,10.1-18,20.2-2.1-6.9,2.7-17.9,9.8-22.8.5-.4,1.1-.6,1.7-.9,7.8-3.2,11.7-8.4,13.2-17.3,1.1-6.5,7.2-11.6,14.8-12.7,7.7-1.1,15.5-1.7,23.3-1.6,120.2.5,240.4.7,360.6,0,49.4-.3,98.9.4,148.3.6,18.5,0,36.9-.7,55.4-.7,124,0,248,.3,372.1.4,26.3,0,52.6-.9,78.9.2,7.8.3,15.7.9,21.5,7.6,2.6,2.9,4,6.2,4.4,9.6.7,6.5,4.4,9.8,9.9,12.7,8.9,4.6,14.6,11.6,14.3,22.3-.2,5.9-2.8,10.5-6.9,14.5Z"/>
      <path class="cls-3" d="m33,89.9c1.3-3.4,3.5-2.2,5.5-.9.8.5,1.6,1.3,2,2.2,3.5,8,10,12.2,17.8,15.6,6.1,2.6,11.9,4.2,18.6,4.2,179.9-.1,359.9-.8,539.8.2,86.8.5,173.7,1,260.5.3,56.7-.4,113.4.2,170.2-.8,14-.2,28-2.4,41.9-3.7,3-.3,6-.2,9-.4,6.3-.5,10.6-4.1,14-9.1,1.1-1.6,2.3-3.3,4.5-3.6-1.4,15.6-12,22.8-27.1,22.8-55.8.2-111.5.2-167.3.2-94.5,0-189.1.3-283.6.1-38.4,0-76.9-.7-115.3,0-.2-.4-.4-1-.7-1-.8-.2-1.1.4-1.2,1.1-27.3,0-54.7,0-82,0,0-.7-.4-1.3-1.2-1.1-.3,0-.5.7-.7,1-120.6,0-241.2,0-361.8,0-.2-.4-.4-1-.7-1-.8-.2-1.1.3-1.2,1.1-4.6-.4-9.6,1.8-13.8-2-5.7,3.1-10.3,0-15-2.6-5.5-3-8.8-7.7-9.8-13.8-.5-3.1-1.5-5.9-2.5-8.8Z"/>
      <path class="cls-2" d="m74.1,117c0-.7.4-1.3,1.2-1.1.3,0,.5.7.7,1-.6,1-1.2,1-1.9,0Z"/>
      <path class="cls-2" d="m437.7,117c.2-.4.4-.9.7-1,.8-.2,1.1.3,1.2,1.1-.7.9-1.3,1-1.9,0Z"/>
      <path class="cls-2" d="m521.7,117.1c0-.7.4-1.3,1.2-1.1.3,0,.5.7.7,1-.6,1-1.2,1-1.9,0Z"/>
    </g>
  </g>
</svg>