<?xml version="1.0" encoding="UTF-8"?>
<svg id="Layer_2" data-name="Layer 2" xmlns="http://www.w3.org/2000/svg" width="511" height="129.7" viewBox="0 0 511 129.7">
  <defs>
    <style>
      .cls-1 {
        fill: #af7296;
      }

      .cls-2 {
        fill: #71425a;
      }

      .cls-3 {
        fill: #ffdaee;
      }

      .cls-4 {
        fill: #ffbbe1;
      }

      .cls-5 {
        fill: #d896bb;
      }
    </style>
  </defs>
  <g id="Top">
    <g>
      <path class="cls-1" d="m441.8,128.3c-143.8.8-254.6.4-276.2,1-5.6.2,75.4.9-88.7-.4-9.8,0-19.3-.8-28.7-2.9-11.7-2.5-24.4-14.6-25.1-27.4-.2-2.7-2-3.3-3.6-4.1-9.7-4.7-15.8-12.1-18.6-22.4-3.7-13.8,3-29.7,15.7-36.7,3.6-2,6-4.2,7.1-8.8,3.3-14,13.5-21.6,27.1-24.7C59,0,67.3,0,75.5,0,212.2,0,361.8,0,434.4,0c9.6,0,19.1.9,28.4,2.9,11.3,2.3,24.5,13.5,24.7,26.5,0,3.6,3.3,4.1,5.5,5.3,8.4,4.7,14,11.5,16.8,20.7,3.8,12.5-2.5,29.2-13.8,36-4.5,2.7-7.9,5.3-9.1,11.8-2.2,11.7-16.6,22.5-27.7,22.9-5.9.2-11.5,3-17.5,2.2Zm-367.8-11.8c.6.9,1.3.9,1.9,0,120.6,0,201.5,0,296.1-.1,55.8,0,21.4,0,77.2-.2,15.1,0,25.7-7.2,27.1-22.8,1.6-3.4,4-5.6,7.5-7.1,3.4-1.4,6.6-3.5,8.7-6.7,4.1-4,6.7-8.7,6.9-14.5.3-10.7-5.4-17.7-14.3-22.3-5.5-2.8-9.2-6.1-9.9-12.7-.4-3.4-1.8-6.6-4.4-9.6-5.9-6.7-13.8-7.3-21.5-7.6-26.3-1.2-22.6-.2-48.9-.2-124-.2-156-.6-205.4-.3-120.2.7-.2.5-120.4,0-7.8,0-15.6.5-23.3,1.6-7.6,1.1-13.7,6.2-14.8,12.7-1.5,8.9-5.4,14.1-13.2,17.3-.6.3-1.2.5-1.7.9-7.1,4.8-11.9,15.9-9.8,22.8,0,2.1.9,4,1.8,5.9,3.9,8.4,11.5,12.4,19.4,15.9,1,2.9,2,5.7,2.5,8.8,1,6.1,4.4,10.8,9.8,13.8,4.7,2.6,9.3,5.7,15,2.6,4.1,3.8,9.1,1.6,13.8,2Z"/>
      <path class="cls-4" d="m33,89.4c-7.9-3.5-15.5-7.5-19.4-15.9-.9-1.9-1.7-3.8-1.8-5.9,2.2-10.1,9.3-15.8,18-20.2,3.4-1.7,5.4-4.6,6.6-8.3,3.7-11.4,12.1-17.3,24.2-17.3,340.9,0,41.4,0,382.3,0,13.5,0,24.2,5.1,30.4,17.6,2.3,4.5,5.6,8,9.6,11.1,6.6,5,10.9,11.6,10.4,20.3-.2,2.9-.6,5.9-.9,8.8-2.1,3.2-5.3,5.3-8.7,6.7-3.5,1.5-6,3.7-7.5,7.1-2.3.2-3.5,1.9-4.5,3.6-3.4,5.1-7.6,8.6-14,9.1-3,.2-6,.1-9,.4-14,1.2-27.9,3.4-41.9,3.7-56.7,1-23.4.4-80.1.8-86.8.7-43.6.1-130.4-.3-179.9-1,60.5-.3-119.4-.2-6.7,0-12.5-1.5-18.6-4.2-7.8-3.4-14.3-7.6-17.8-15.6-.4-.9-1.2-1.7-2-2.2-2-1.2-4.2-2.4-5.5.9Z"/>
      <path class="cls-5" d="m492.6,79.5c.3-2.9.7-5.9.9-8.8.4-8.7-3.8-15.3-10.4-20.3-4.1-3.1-7.4-6.6-9.6-11.1-6.3-12.5-16.9-17.6-30.4-17.6-340.9,0-41.4,0-382.3,0-12.1,0-20.5,5.9-24.2,17.3-1.2,3.7-3.1,6.6-6.6,8.3-8.7,4.4-15.8,10.1-18,20.2-2.1-6.9,2.7-17.9,9.8-22.8.5-.4,1.1-.6,1.7-.9,7.8-3.2,11.7-8.4,13.2-17.3,1.1-6.5,7.2-11.6,14.8-12.7,7.7-1.1,15.5-1.7,23.3-1.6,120.2.5,348.4-.5,374.7.6,7.8.3,15.7.9,21.5,7.6,2.6,2.9,4,6.2,4.4,9.6.7,6.5,4.4,9.8,9.9,12.7,8.9,4.6,14.6,11.6,14.3,22.3-.2,5.9-2.8,10.5-6.9,14.5Z"/>
      <path class="cls-3" d="m33,89.4c1.3-3.4,3.5-2.2,5.5-.9.8.5,1.6,1.3,2,2.2,3.5,8,10,12.2,17.8,15.6,6.1,2.6,11.9,4.2,18.6,4.2,179.9-.1-60.5-.8,119.4.2,86.8.5,43.6,1,130.4.3,56.7-.4,23.4.2,80.1-.8,14-.2,28-2.4,41.9-3.7,3-.3,6-.2,9-.4,6.3-.5,10.6-4.1,14-9.1,1.1-1.6,2.3-3.3,4.5-3.6-1.4,15.6-12,22.8-27.1,22.8-55.8.2-252.7.3-373.3.3-.2-.4-.4-1-.7-1-.8-.2-1.1.3-1.2,1.1-4.6-.4-9.6,1.8-13.8-2-5.7,3.1-10.3,0-15-2.6-5.5-3-8.8-7.7-9.8-13.8-.5-3.1-1.5-5.9-2.5-8.8Z"/>
      <path class="cls-2" d="m74.1,116.5c0-.7.4-1.3,1.2-1.1.3,0,.5.7.7,1-.6,1-1.2,1-1.9,0Z"/>
    </g>
  </g>
</svg>