<?xml version="1.0" encoding="UTF-8"?>
<svg id="Layer_2" data-name="Layer 2" xmlns="http://www.w3.org/2000/svg" width="514.6" height="235.4" viewBox="0 0 514.6 235.4">
  <defs>
    <style>
      .cls-1 {
        fill: #fff;
      }

      .cls-2 {
        fill: #94bad6;
      }

      .cls-3 {
        fill: #3d0020;
      }

      .cls-4 {
        fill: #ace9ff;
      }

      .cls-5 {
        fill: #d2f3ff;
      }

      .cls-6 {
        fill: #58c1dd;
      }
    </style>
  </defs>
  <g id="Top">
    <g>
      <g>
        <path class="cls-3" d="m257.4,0c50.9,0,101.8,0,152.7,0,14.8,0,28.1,4.5,39.8,13.5,2.6,2,5.1,4.8,5.7,7.8,1.1,5.6,5,6.2,9.2,6.5,16,1.3,28.8,14.4,31.3,29.9,1.2,7.1.5,13.6-2.2,19.9-1.4,3.2-.5,4.6,2.2,6.2,12.2,7.4,18.3,18.9,18.5,32.5.2,14.2-6.5,26-18.5,34-2.8,1.9-3,3.4-2.1,5.7,8.4,21.9-4.3,44.3-26.2,50-.2,0-.3.1-.5.2-2.9.8-12.3,7-13.7,9.1-4.4,6.6-11.2,9.8-18.2,13.1-12.9,5.9-26.6,5.9-40.3,5.9-91.5,0-182.9,0-274.4,0-4.3,0-8.4,1.5-12.8.9-14.6-1.8-29-4.3-41-13.9-2.5-2-4.9-4.4-6.2-7.3-2.2-4.9-5.8-6.9-11-7.7-16.2-2.6-26.3-12.4-30.3-28-2-7.6-1.2-15.7,1.6-23.2.8-2,1.2-3.5-.8-4.6-11.1-5.6-15.8-15.8-19.3-26.8-4-12.7,6.3-35.2,18.3-40.1,2.9-1.2,3.2-2.3,1.9-5.6-4.6-11.2-3.1-28.4,6.4-38.9,7.6-8.2,17.2-10.8,27.2-13.1,2.2-.5,2.7-1.2,3.5-3,4.1-9,11.6-14.5,20.4-18C88.7,1.2,99.3,0,110.2,0c49.1.3,98.1.1,147.2.1h0Zm240.6,103.5h0c-.8-4.2-4.1-6.4-7.2-8.9-3.7-3-8.8-4-11.8-8-.9-5.5,3.1-9.8,3.7-14.9,2.5-8.2.7-15.6-3.8-22.7-4.6-7.3-11.4-9.5-19.7-9.2-8,.3-10.4-1.7-12.3-9.4-.7-2.6-1.9-4.8-3.7-6.8-6.2-6.6-14.4-9-22.8-9.5-13.4-.7-26.9-.2-40.3-.1-11.3-.4-22.6-.4-33.9,0-20.4,0-40.9-.4-61.3-.2-64.8.6-129.5-1.7-194.3,1.1-10.3.4-20.1,6.6-22.9,16.3-2,6.7-3.5,7.7-10.6,7.5-2.2,0-4.1.7-6.2,1-16.1,2.6-22.5,19.1-17.9,33.9.4,4.5,3.8,8.2,3,13-2,2.4-4.8,3.5-7.4,5.1-3.8,2.2-8.1,4.1-9.8,8.8-3.5,4.4-5.6,9.3-5.6,15-.3,2.3-.5,4.6.1,6.9,2.6,9.3,8.1,16.1,17,20.2,2.9,1.3,6.3,2.6,5.7,6.9-.1.3-.1.6,0,.9-2.1,6.5-6,12.6-5.1,19.7,1.9,15.7,12,24.8,27.4,25,5.3.1,8.1,1.7,9.6,6.8,2.1,7.1,6.5,12.5,13.9,14.9,7.4,2.4,14.7,3.9,22.8,3.9,102-.4,203.9-.2,305.9-.2,3.9,0,7.8.6,11.6-.3,11.5-2.8,22.2-6.6,25.7-19.6.5-1.7,1.6-2.8,2.1-4.3h0c2.4-1.6,5.1-.8,7.7-1,19.7-1.2,31.3-19.7,24.3-35.9-.2-4.4-4.3-8.2-2-12.9,2.3-2.5,5.1-4.2,7.9-6,9.5-6,15.7-13.8,13.7-26,.6-3.2-.4-6.1-1.9-8.9,0-1.2-1-1.6-1.8-2.1Z"/>
        <path class="cls-4" d="m482.8,71.9c-.6,5.1-4.7,9.4-3.7,14.9-4.6,3.2-4.4,7.5,1.2,10,5.8,2.6,12.1,4.1,17.8,7,0,0,0,0,0,0,0,1.3.4,2,1.8,2.1,1.5,2.8,2.5,5.7,1.9,8.9-.3,0-.8,0-.9.3-4.4,7.8-10.8,13.6-18.1,18.7-3.6,2.5-4.4,8.6-2.7,13-2.4,4.8,1.7,8.6,2,12.9-1.5,1-1.9,2.7-2.6,4.2-4.3,10.4-10.4,18.5-22.3,21.4-4.9,1.2-7.7,5.6-7.2,11.2,0,0,0,0,0,0-1.8-.3-3.2.8-4.7,1.3-4.5,1.5-8.7,3.9-13.5,4.8-11.8,2-23.7,2.3-35.6,2.6-26.5.6-52.9,2.5-79.4,3.2-39.5,1-79-.1-118.5.8-31.9.7-64,2.4-95.7-3.5-11.5-2.1-22.6-4.7-32.3-11.8-1.5-1.1-3.2-1.9-3.4-4-.7-7.6-6-10.9-12.4-13.3-6.8-2.5-11.3-7.1-13.6-14.1-1.3-4-1.9-8.4-4.8-11.8-.2-.3-.2-.6,0-.9,1.4-.3,1.7-1.3,1.8-2.5,1-6.5-.4-12-7-14.7-8.2-3.4-12.4-9.4-13.2-18.1-1.8.4-2.9,1.7-4.5,1.3,0-5.7,2.1-10.6,5.6-15,.9,3.4-2.1,6.8-.2,10.8,4.5-4.9,9.7-7.8,15.5-9.8,1.7-.6,3.2-1.6,4.4-3.1,4.1-4.8,2.9-10.5-2.5-11.7.8-4.8-2.6-8.5-3-13,3.2-2.6,2.2-6.4,2.7-9.6,1.5-9.6,9-16.6,18.7-17.3,9.3-.6,18-2.2,25.1-9.7,5.1-5.5,12.8-8.2,20.2-8.9,13.7-1.3,27.2-3.3,41.2-2.5,26.8,1.5,53.8-.6,80.7,1.2,16.2,1,32.5.2,48.8.8,31,1.2,62.1-.4,93.2,1.1,16.6.8,33.3.5,49.9,0,10.7-.3,20.2,3.1,29.6,7.2,1.3.5,2.8.9,2.8,3,.2,8,2.5,10.9,9.8,10.8,10.3,0,16.7,4.5,20.8,13.7,1.4,3,2.2,7.1,6.3,8.3Z"/>
        <path class="cls-5" d="m482.8,71.9c-4.1-1.2-5-5.3-6.3-8.3-4.1-9.2-10.5-13.8-20.8-13.7-7.3,0-9.6-2.8-9.8-10.8,0-2.1-1.6-2.4-2.8-3-9.5-4-18.9-7.5-29.6-7.2-16.6.5-33.3.8-49.9,0-31.1-1.5-62.1.1-93.2-1.1-16.3-.7-32.6.2-48.8-.8-26.9-1.7-53.8.4-80.7-1.2-14-.8-27.5,1.3-41.2,2.5-7.4.7-15.1,3.4-20.2,8.9-7,7.6-15.8,9.1-25.1,9.7-9.8.7-17.2,7.7-18.7,17.3-.5,3.2.5,7.1-2.7,9.6-4.5-14.8,1.9-31.3,17.9-33.9,2.1-.3,4-1.1,6.2-1,7,.2,8.6-.8,10.6-7.5,2.8-9.7,12.6-15.9,22.9-16.3,64.7-2.8,129.5-.5,194.3-1.1,20.4-.2,40.9,0,61.3.2,1.3,1.4,3.1.9,4.6.9,7.9,0,15.8,0,23.6,0,1.9,0,4,.7,5.6-.9,13.4,0,26.9-.6,40.3.1,8.4.4,16.6,2.9,22.8,9.5,1.8,2,3.1,4.2,3.7,6.8,2,7.7,4.3,9.7,12.3,9.4,8.2-.3,15.1,2,19.7,9.2,4.5,7.1,6.3,14.5,3.8,22.7Z"/>
        <path class="cls-2" d="m36,150.6c2.9,3.4,3.5,7.7,4.8,11.8,2.2,7,6.8,11.7,13.6,14.1,6.4,2.4,11.7,5.7,12.4,13.3.2,2.1,1.9,2.9,3.4,4,9.6,7.1,20.7,9.6,32.3,11.8,31.8,5.9,63.8,4.2,95.7,3.5,39.5-.9,79,.3,118.5-.8,26.5-.7,52.9-2.6,79.4-3.2,11.8-.3,23.8-.6,35.6-2.6,4.8-.8,9-3.3,13.5-4.8,1.6-.5,2.9-1.6,4.7-1.3-.6,1.5-1.7,2.6-2.1,4.3-3.5,13-14.3,16.9-25.7,19.6-3.8.9-7.7.3-11.6.3-102,0-203.9-.2-305.9.2-8.1,0-15.4-1.5-22.8-3.9-7.4-2.4-11.7-7.8-13.9-14.9-1.5-5.1-4.3-6.7-9.6-6.8-15.3-.3-25.5-9.4-27.4-25-.9-7.1,3.1-13.2,5.1-19.7Z"/>
        <path class="cls-2" d="m449.9,196.4c-.5-5.6,2.3-10,7.2-11.2,11.8-2.9,18-11,22.3-21.4.6-1.5,1.1-3.2,2.6-4.2,7,16.2-4.6,34.7-24.3,35.9-2.6.2-5.3-.6-7.7.9Z"/>
        <path class="cls-2" d="m13.1,115.7c1.6.4,2.7-.9,4.5-1.3.7,8.7,5,14.7,13.2,18.1,6.6,2.7,7.9,8.2,7,14.7-.2,1.3-.4,2.3-1.8,2.5.7-4.4-2.8-5.6-5.7-6.9-8.9-4.1-14.4-10.9-17-20.2-.7-2.3-.5-4.6-.1-6.9Z"/>
        <path class="cls-5" d="m36,86.8c5.4,1.3,6.6,6.9,2.5,11.7-1.2,1.4-2.7,2.5-4.4,3.1-5.8,2-11.1,5-15.5,9.8-1.8-4,1.2-7.3.2-10.8,1.6-4.7,6-6.6,9.8-8.8,2.6-1.5,5.4-2.7,7.4-5.1Z"/>
        <path class="cls-2" d="m480,146.6c-1.8-4.3-.9-10.4,2.7-13,7.2-5.1,13.6-10.9,18.1-18.7.1-.2.6-.2.9-.3,2,12.1-4.2,20-13.7,26-2.8,1.8-5.7,3.5-7.9,6Z"/>
        <path class="cls-5" d="m498,103.7c-5.7-2.8-12-4.3-17.8-7-5.5-2.5-5.7-6.8-1.2-10,3,4.1,8.1,5,11.8,8,3.1,2.5,6.4,4.7,7.2,8.9Z"/>
        <path class="cls-4" d="m380.1,14.1c-1.7,1.6-3.7.9-5.6.9-7.9,0-15.8,0-23.6,0-1.6,0-3.3.5-4.6-.9,11.3-.4,22.6-.4,33.9,0Z"/>
        <path class="cls-5" d="m499.7,105.7c-1.3,0-1.9-.8-1.8-2.1.8.5,1.8.9,1.8,2.1Z"/>
      </g>
      <g>
        <g>
          <path class="cls-1" d="m192.8,171.5c-3.4,0-6.2-.3-8.4-1.1-3.2-1-5.6-3-7-5.8-1-2-1.6-3.8-1.9-5.5-.2-1.3-.2-3-.2-5.4v-22.7l-27.1-40.5c-2.7-4-4-7.3-4-10.2,0-4.9,2.8-9.3,8.4-13,5.1-3.4,8.5-4.9,11.5-4.9s5.3.7,7.3,2.1c2.2,1.5,4.3,3.8,6.4,7.1l15.1,24.1,15.1-24.1c2.2-3.4,4.1-5.6,6-6.9,2.2-1.5,4.8-2.3,7.6-2.3s6.2,1.3,10.8,4.2h.1c0,0,.1.2.1.2,5.9,4.1,8.9,8.7,8.9,13.5s-1.3,6.2-4,10.3l-27,40.5v23c0,2.3,0,4-.2,5.3-.2,1.7-.8,3.5-1.9,5.5-1.4,2.7-3.9,4.6-7,5.6-2.3.7-5,1.1-8.4,1.1Z"/>
          <path class="cls-6" d="m221.5,68.5c1.6,0,4.1,1.1,7.6,3.2,4.2,2.9,6.4,5.8,6.4,8.6s-1,3.9-3,6.9l-28.1,42v24.8c0,2,0,3.5-.2,4.5-.1,1-.5,2.1-1.2,3.4-.7,1.3-1.9,2.2-3.5,2.7-1.6.5-3.9.8-6.6.8s-5-.3-6.6-.8c-1.6-.5-2.8-1.5-3.5-2.8-.7-1.3-1.1-2.5-1.2-3.5-.1-1-.2-2.5-.2-4.6v-24.6l-28.1-42c-2-2.9-3-5.2-3-6.9,0-2.8,1.9-5.4,5.7-8,3.8-2.6,6.5-3.8,8.2-3.8s2.9.3,3.9,1c1.5,1,3,2.7,4.7,5.3l20.1,32.2,20.2-32.2c1.6-2.6,3.1-4.3,4.3-5.1,1.2-.8,2.6-1.2,4.2-1.2m0-12c-4,0-7.8,1.1-11,3.3-2.7,1.8-5.1,4.6-7.7,8.6h0s0,0,0,0l-10,16-10-16h0s0,0,0,0c-2.5-4-5.2-6.9-8-8.8-3-2.1-6.6-3.1-10.7-3.1s-8.7,1.8-14.9,5.9c-9.1,6.1-11,13.1-11,18s1.6,8.5,5,13.6l26,38.9v20.9c0,2.7,0,4.6.3,6.2.3,2.4,1.1,4.9,2.5,7.5,2.1,4.1,5.9,7.2,10.6,8.7,2.8.9,6.2,1.3,10.2,1.3s7.4-.4,10.2-1.3c4.7-1.5,8.3-4.4,10.5-8.5,1.4-2.6,2.2-5.1,2.6-7.6.2-1.5.3-3.5.3-6v-21.2l26-38.9c3.4-5.1,5-9.4,5-13.6,0-6.9-3.9-13.1-11.5-18.4l-.2-.2-.2-.2c-5.7-3.6-9.9-5.1-14-5.1h0Z"/>
        </g>
        <g>
          <path class="cls-1" d="m265.9,172.9c-7.2,0-13.8-1.3-19.5-3.8-5.9-2.6-10.6-6.2-14-10.6-6.2-8-9.4-17.2-9.4-27.2s4.2-22.9,12.5-30.6c8.2-7.6,18.4-11.4,30.5-11.4s24.7,5.2,31.5,15.4c3.6,5.5,5.4,11.6,5.4,18.1s-1.9,12.4-5.8,16.1c-1.1,1-2.2,1.9-3.4,2.7,1.2,1.3,2.4,2.9,3.5,5h0c1.5,3.3,2.3,6.1,2.3,8.7,0,11.7-11.3,17.6-33.7,17.6Z"/>
          <path class="cls-6" d="m266,95.3c12,0,20.9,4.2,26.5,12.7,2.9,4.5,4.4,9.4,4.4,14.8s-1.3,9.3-4,11.8c-2.6,2.6-5.6,3.8-8.8,3.8h-30.8c0,2.4,1.4,4.5,4.3,6.1,2.9,1.6,5.7,2.5,8.6,2.5,5,0,9-.5,11.8-1.6l1.4-.5c2.1-1,3.8-1.4,5.2-1.4,2.8,0,5.2,2,7.1,5.9,1.1,2.3,1.7,4.3,1.7,6,0,7.7-9.2,11.6-27.7,11.6s-12.1-1.1-17.1-3.3c-5-2.2-8.9-5.1-11.6-8.8-5.5-7-8.2-14.9-8.2-23.5s3.5-19.6,10.6-26.2c7.1-6.5,15.9-9.8,26.5-9.8m-12.9,31.3h16.4c3.3,0,4.9-1.4,4.9-4.2s-.8-3.6-2.3-4.8c-1.5-1.2-3.7-1.8-6.5-1.8s-5.6,1.1-8.4,3.4c-2.8,2.3-4.2,4.7-4.2,7.3m12.9-43.3c-13.6,0-25.3,4.4-34.6,13-9.6,8.9-14.4,20.7-14.4,35s3.6,21.7,10.7,30.9c4,5.2,9.5,9.4,16.3,12.4,6.5,2.9,13.9,4.3,22,4.3s19.2-1.2,25.4-3.8c9.1-3.8,14.3-11,14.3-19.8s-.9-7.2-2.9-11.2h0c0-.1,0-.3,0-.3-.2-.4-.4-.8-.7-1.2,4.7-4.8,7.1-11.5,7.1-19.9s-2.1-14.8-6.4-21.3h0s0,0,0,0c-5.5-8.3-16.3-18.1-36.5-18.1h0Z"/>
        </g>
        <g>
          <path class="cls-1" d="m333.9,172.4c-9.5,0-18.7-2.8-27.3-8.2-3.4-2.1-5.3-5.7-5.3-10s1.8-7.9,6-13.7c1-1.5,2.3-2.7,3.9-3.5-1.7-1.8-3.2-4-4.4-6.5-2-4.1-3.1-9-3.1-14.5,0-9.9,4.4-26.5,34.2-26.5s14.2,1.7,21.5,5c7,3.2,8.1,8.1,8.1,10.7s-1.2,6.8-3.8,10.9c-1.4,2.3-3,4.1-4.7,5.3,3.3,1.8,6,4.6,8.2,8.4,2.2,3.9,3.3,8.7,3.3,14.2s-1.1,10.3-3.2,14.3c-2.3,4.2-5.5,7.5-9.6,9.6h-.1c-6.3,3.1-14.2,4.7-23.5,4.7Z"/>
          <path class="cls-6" d="m337.9,95.4c6.2,0,12.5,1.5,19,4.4,3,1.4,4.6,3.1,4.6,5.2s-1,4.6-2.9,7.7c-1.9,3-3.9,4.5-5.9,4.5s-3-.6-5.8-1.9c-2.8-1.3-5.9-2-9.2-2-5.1,0-7.7,1-7.7,2.9s2.9,4.3,8.8,5.1c5.7.6,11.3,2.3,16.6,4.9,2.5,1.2,4.6,3.3,6.3,6.3,1.7,3,2.5,6.7,2.5,11.2s-.8,8.3-2.5,11.5c-1.7,3.2-4.1,5.5-7.1,7.1-5.5,2.7-12.5,4-20.9,4s-16.4-2.4-24.1-7.3c-1.6-1-2.5-2.7-2.5-4.9s1.6-5.7,4.9-10.3c1-1.5,2.5-2.2,4.6-2.2s5,1.1,8.6,3.2c3.6,2.1,6.9,3.2,9.9,3.2,5.3,0,7.9-1,7.9-3.1s-2.9-2.9-8.7-3.6c-5.5-.8-10.9-2.8-16.2-6.1-2.5-1.6-4.6-4-6.2-7.3-1.6-3.3-2.5-7.3-2.5-11.9,0-13.7,9.4-20.5,28.2-20.5m0-12c-36.3,0-40.2,22.8-40.2,32.5s1.2,12.2,3.7,17.2c.5,1.1,1.1,2.1,1.7,3-.2.3-.4.6-.7.9-4.9,6.8-7.1,12.1-7.1,17.1s2.9,11.9,8.1,15.1c9.6,6.1,19.9,9.1,30.5,9.1s18.9-1.8,26.1-5.2h.1c0,0,.1-.1.1-.1,5.2-2.7,9.3-6.8,12.2-12.1,2.6-4.9,3.9-10.7,3.9-17.2s-1.4-12.4-4.1-17.1c-1.3-2.3-2.8-4.4-4.5-6.1.3-.4.6-.9.9-1.4,3.2-5,4.7-9.6,4.7-14.1s-1.1-11.3-11.6-16.1c-8.1-3.7-16.1-5.5-24-5.5h0Z"/>
        </g>
      </g>
    </g>
  </g>
</svg>