<?xml version="1.0" encoding="UTF-8"?>
<svg id="Layer_2" data-name="Layer 2" xmlns="http://www.w3.org/2000/svg" width="520.1" height="213.4" viewBox="0 0 520.1 213.4">
  <defs>
    <style>
      .cls-1 {
        fill: #894d6c;
      }

      .cls-2 {
        fill: #3d0020;
      }

      .cls-3 {
        fill: #ffb1e2;
      }

      .cls-4 {
        fill: #fffeff;
      }

      .cls-5 {
        fill: #ff71ca;
      }

      .cls-6 {
        fill: #e35aa9;
      }
    </style>
  </defs>
  <g id="Top">
    <g>
      <path class="cls-4" d="m265.9,213.2c64.7,0,129.4-.3,194.1.2,15.1.1,27.7-13.3,29-26.8.3-3.1,1.1-4.1,4.4-4.4,12.4-.8,26.8-12.9,26.7-27.4-.3-31.9,0-63.8,0-95.7,0-1.7.2-3.4-.3-4.9-4.5-12.9-13.3-20.7-27-22.3-3.3-.4-4.3-1.2-4.7-4.6-2.3-17.3-12.4-26.7-29.1-27-38.2-.6-76.4-.1-114.5,0-38.2,0-76.5,0-114.7,0-46.2,0-92.5-.1-138.7,0-11.4,0-22.9-.6-34.4.6-12.8,1.3-22.7,12.3-24.4,24.1-.6,4.4-2.3,6.1-6.7,7C10.7,34.9.8,44.3.4,59.4-.2,89,0,118.6.2,148.1c0,4.3.4,8.8,2.2,12.9,4.4,10.2,12.2,16.3,23,18.2,4.3.7,5.9,2.6,6.7,6.4,2.3,11.5,8.7,19.7,19.8,24,6.9,2.7,14.1,3.7,21.5,3.7,64.2,0,128.4,0,192.6,0Z"/>
      <path class="cls-2" d="m265.9,213.2c-64.2,0-128.4,0-192.6,0-7.4,0-14.6-1-21.5-3.7-11.1-4.3-17.5-12.5-19.8-24-.8-3.8-2.4-5.7-6.7-6.4-10.8-1.8-18.6-8-23-18.2-1.8-4.1-2.2-8.5-2.2-12.9-.1-29.6-.4-59.1.3-88.7.3-15.1,10.3-24.5,25-27.5,4.4-.9,6.1-2.6,6.7-7,1.7-11.8,11.6-22.8,24.4-24.1,11.5-1.2,22.9-.6,34.4-.6,46.2,0,92.5,0,138.7,0,38.2,0,76.5,0,114.7,0,38.2,0,76.4-.5,114.5,0,16.8.3,26.8,9.7,29.1,27,.5,3.4,1.4,4.3,4.7,4.6,13.7,1.6,22.6,9.4,27,22.3.5,1.5.3,3.3.3,4.9,0,31.9-.2,63.8,0,95.7.1,14.6-14.3,26.6-26.7,27.4-3.3.2-4.1,1.2-4.4,4.4-1.3,13.5-13.9,26.9-29,26.8-64.7-.5-129.4-.2-194.1-.2ZM14,159.4c2.6,5.4,7.9,6.7,13,7.9,5,1.2,10.5,1.2,14,5.9.6.7,1.3,1.5,1.9,2.2,0,1.3-.2,2.7,0,3.9,1.9,11.9,5.8,21.9,20.9,20.8.7,0,1.4,0,2.1-.1,7.9,0,15.8,0,23.8,0,3.7.5,7.4.5,11.1,0,1.3,0,2.6,0,3.8,0,3.4.5,6.8.5,10.1,0,1.9,0,3.9,0,5.8,0h5c2.4.5,4.8.5,7.1,0,2.3,0,4.6,0,6.8,0,4.4.5,8.8.5,13.1,0,28.2,0,56.4,0,84.7,0,15,.5,30,.5,45.1,0,28.2,0,56.4,0,84.7,0,5,.5,10.1.5,15.1,0,1.6,0,3.2,0,4.8,0,2.4.5,4.8.5,7.1,0,3.6,0,7.2,0,10.8,0,3.4.5,6.8.5,10.1,0,1.3,0,2.6,0,3.8,0,4.4.5,8.8.5,13.1,0,12.6,0,25.1,0,37.7,0,.6.1.9-.1.9-.7,5.2-5.2,6.6-11.7,6.3-18.8h0c.6,0,1-.4.8-1.1.4-.9.8-1.9,1.2-2.8,4.1-5.1,10.2-5.6,15.9-6.7,1-.2,2.1-.1,2.9-.6,3.6-2,8.6-2.7,8.9-8,.3-4.6-.2-9.2-.3-13.8,0-8.3.1-16.5.2-24.8.3-.9.4-1.7-.7-2.1.3-.6.7-1.2.7-1.8,0-21.6,0-43.2.1-64.8,0-2.5-1.1-4.3-2.9-5.4-3.8-2.4-8-4.4-12.6-4.7-9.1-.6-14.9-6.2-15.4-15-.6-11-5.1-15.2-16.1-15.2-76.2,0-152.3,0-228.5,0-57.9,0-115.7,0-173.6,0-8.3,0-13.4,4.8-13.9,13.2-.2,3.4-1,6.7-1.9,10-.2.3-.2.6-.2.9-1.9,0-2.8,1.5-3.9,2.6-2.3,2.4-4.9,3.4-8.2,3.5-13.3.4-17.4,4.9-16.6,17.8,0,.3,0,.7,0,1,0,5.4-.3,10.9-.1,16.3.2,6.9-.9,13.8.8,20.7,0,4.6,0,9.2,0,13.8-1.4,8.7-1.1,17.4-.3,26.1,0,.6,0,1.2,0,1.7-.7,6-1.4,12.1.4,18Z"/>
      <path class="cls-5" d="m13.2,62.6c0-.3,0-.7,0-1,4.8-2.7,8.7-6.8,14.6-8,9.2-1.9,12.8-6.3,14.2-16,0-.3,0-.6.2-.9,1.9,0,2.3-1.8,3.2-2.9,5.4-6.6,11.8-9.3,20.8-9.3,128.9.3,257.8.2,386.7.2,1.3,0,2.7-.3,4,0,6.6,1.7,13.5,3.2,16.5,10.4,2.5,6.1,6.9,10.2,12.8,12.4,7,2.6,10,7.7,11.1,14.5.9,5.9,1.7,11.7,2.5,17.6,1.8,13.9,5.5,27.6,5.5,41.7.3.8,1,1.1,1.8,1.1,0,8.3-.1,16.5-.2,24.8-.9.2-1.3.8-1.6,1.6-2,6.7-6.6,10-13.4,11.4-10.4,2.1-12.7,5.5-12.4,16.1-.4.9-.8,1.9-1.2,2.8-.3.4-.5.7-.8,1.1,0,0,0,0,0,0-2.3,0-2.8,2.1-3.8,3.5-3.4,4.9-8,7.3-13.9,7.4-130.3,0-260.6,0-390.8,0-8.2,0-15.1-2.9-19.9-10.1-1.5-2.2-2.9-4.8-5.8-5.8-.6-.7-1.3-1.5-1.9-2.2-.5-5.3-.3-12.2-6.3-13.3-9.5-1.8-16.4-5.7-20.5-14.5-.2-1.3-.4-2.7-.7-4,0-.6,0-1.2,0-1.7.8-8.7.5-17.4.3-26.1,0-4.6,0-9.2,0-13.8,0-9.4.2-18.9,0-28.3,0-2.9.9-5.9-.8-8.7Z"/>
      <path class="cls-3" d="m505.1,121.4c0-14.1-3.6-27.8-5.5-41.7-.8-5.9-1.5-11.8-2.5-17.6-1.1-6.8-4.1-11.9-11.1-14.5-5.9-2.2-10.3-6.3-12.8-12.4-3-7.1-9.9-8.7-16.5-10.4-1.2-.3-2.6,0-4,0-128.9,0-257.8,0-386.7-.2-8.9,0-15.4,2.6-20.8,9.3-.9,1.1-1.3,2.8-3.2,2.9.9-3.3,1.7-6.5,1.9-10,.4-8.5,5.5-13.2,13.9-13.2,57.9,0,115.7,0,173.6,0,76.2,0,152.3,0,228.5,0,10.9,0,15.4,4.2,16.1,15.2.5,8.8,6.3,14.5,15.4,15,4.7.3,8.8,2.3,12.6,4.7,1.8,1.1,2.9,2.9,2.9,5.4-.1,21.6,0,43.2-.1,64.8,0,.6-.5,1.2-.7,1.8-.4.3-.7.7-1.1,1Z"/>
      <path class="cls-6" d="m479.2,176.5c-.3-10.5,2.1-14,12.4-16.1,6.8-1.4,11.4-4.8,13.4-11.4.3-.9.7-1.4,1.6-1.6.1,4.6.6,9.2.3,13.8-.3,5.2-5.3,6-8.9,8-.8.4-1.9.4-2.9.6-5.8,1.2-11.8,1.6-15.9,6.7Z"/>
      <path class="cls-3" d="m42,37.6c-1.3,9.7-5,14.1-14.2,16-5.8,1.2-9.7,5.3-14.6,8-.8-12.9,3.4-17.4,16.6-17.8,3.2,0,5.9-1.1,8.2-3.5,1.1-1.1,2-2.7,3.9-2.6Z"/>
      <path class="cls-6" d="m14.3,145.3c4,8.8,10.9,12.7,20.5,14.5,6,1.1,5.8,8,6.3,13.3-3.6-4.7-9-4.7-14-5.9-5.1-1.2-10.4-2.5-13-7.9,0-4.7.2-9.4.3-14Z"/>
      <path class="cls-1" d="m13.2,62.6c1.7,2.8.7,5.8.8,8.7.1,9.4,0,18.9,0,28.3-1.7-6.8-.6-13.8-.8-20.7-.2-5.4,0-10.9.1-16.3Z"/>
      <path class="cls-1" d="m13.8,113.4c.2,8.7.5,17.4-.3,26.1-.9-8.7-1.1-17.4.3-26.1Z"/>
      <path class="cls-1" d="m14.3,145.3c0,4.7-.2,9.4-.3,14-1.8-6-1.1-12-.4-18,.2,1.3.4,2.7.7,4Z"/>
      <path class="cls-6" d="m505.1,121.4c.4-.3.7-.7,1.1-1,1,.5.9,1.3.7,2.1-.8,0-1.4-.3-1.8-1.1Z"/>
      <path class="cls-6" d="m477.2,180.4c.3-.4.5-.7.8-1.1.2.7-.2,1-.8,1.1Z"/>
      <path class="cls-6" d="m477.2,180.4c-2.3,0-2.8,2.1-3.8,3.5-3.4,4.9-8,7.3-13.9,7.4-130.3,0-260.6,0-390.8,0-8.2,0-15.1-2.9-19.9-10.1-1.5-2.2-2.9-4.8-5.8-5.8,0,1.3-.2,2.7,0,3.9,1.9,11.9,5.8,21.9,20.9,20.8.7,0,1.4,0,2.1-.1,7.9,0,15.8,0,23.8,0,3.7.5,7.4.5,11.1,0,1.3,0,2.6,0,3.8,0,3.4.5,6.8.5,10.1,0,1.9,0,3.9,0,5.8,0,.4,0,.8,0,1.2,0,1.3,0,2.5,0,3.8,0,2.4.5,4.8.5,7.1,0,2.3,0,4.6,0,6.8,0,4.4.5,8.8.5,13.1,0,28.2,0,56.4,0,84.7,0,15,.5,30,.5,45.1,0,28.2,0,56.4,0,84.7,0,5,.5,10.1.5,15.1,0,1.6,0,3.2,0,4.8,0,2.4.5,4.8.5,7.1,0,3.6,0,7.2,0,10.8,0,3.4.5,6.8.5,10.1,0-1.3-.4-2.5-.7-3.8-.8,1.3.1,2.5.4,3.8.8,1.3,0,2.6,0,3.8,0,1.6-.4,3.3-.7,4.9-.8-1.6.1-3.3.4-4.9.8,4.4.5,8.8.5,13.1,0,12.6,0,25.1,0,37.7,0,.3-.2.6-.5.9-.7,5.2-5.2,6.6-11.7,6.3-18.8Z"/>
      <path class="cls-1" d="m470,199.9c.3-.2.6-.5.9-.7,0,.6-.3.9-.9.7Z"/>
    </g>
  </g>
</svg>