<?xml version="1.0" encoding="UTF-8"?>
<svg id="Layer_2" data-name="Layer 2" xmlns="http://www.w3.org/2000/svg" width="1173.5" height="372.6" viewBox="0 0 1173.5 372.6">
  <defs>
    <style>
      .cls-1 {
        fill: #72b14c;
      }

      .cls-2 {
        fill: #dbfbc8;
      }

      .cls-3 {
        fill: #3d0020;
      }

      .cls-4 {
        fill: #400323;
      }

      .cls-5 {
        fill: #ffdaee;
      }

      .cls-6 {
        fill: #8b5570;
      }

      .cls-7 {
        fill: #ffbbe1;
      }

      .cls-8 {
        fill: #fe89d0;
      }

      .cls-9 {
        fill: #c0f99e;
      }

      .cls-10 {
        fill: #d896bb;
      }

      .cls-11 {
        fill: #ca067e;
      }
    </style>
  </defs>
  <g id="Examples">
    <g>
      <path class="cls-3" d="m16.8,241.2c.1-2.3.4-4.6.4-6.9,0-21.9,0-43.9,0-65.8,0-1.6,1.2-4.1-1.6-4.5-4.7-.8-6.6-4.3-8.3-7.9-10.7-21.9-9.6-43.3,3.5-63.9,2.5-3.9,5.6-7.6,10.5-8.7,2.4-.6,2.1-2,2-3.7-.6-6.2.6-11.9,4.2-17.1,1.2-1.7.9-2.6-.5-4.1-12-12.4-9.3-31,5.7-39.2,6.9-3.8,14.2-3,21.3-.7,2.2.7,2.9.4,4-1.7,6.5-12.5,18.1-16.6,31.2-11.3,4.2,1.7,8,4,11.6,6.7,1.1.8,2,2.2,3.6.3C116.1-.8,131.5-1.2,147.5,1c11.9,1.6,22.9,5.8,31.8,14.3,2,1.9,4.3,1.4,6.5,1.4,110.9,0,221.8-.1,332.7-.1,176.7,0,353.3.1,530,.2,7.8,0,15.7,0,23.5,0,55.7-.3,81.7,39.1,86.7,74.9.9,6.4,1.1,12.9,1.1,19.4.1,24.8.2,49.5.1,74.3,0,2.9.6,4.1,3.8,4.1,4.7,0,8,2.8,8.5,7.6,2.1,20.8,2.6,41.4-6.5,61.1-4.1,9-9.8,16.5-18,22.9,2.4,1,4.6,1.7,6.5,2.7,14.6,8.2,18.1,27.5,7.2,40.3-1.5,1.8-1.8,2.8-.7,5,5.2,9.7,4,19.5-3,27.8-9.2,11-26,12.1-36.5,2.2-1.5-1.4-2-1.9-3.6,0-9.9,12.4-26.4,13.3-37.4,1.9-2.5-2.5-3.6-2.8-6.5-.5-16.2,12.8-34.7,13.9-54,10-7.5-1.5-15-3.3-20-10-1.3-1.7-3.4-.8-5.2-.8-69.1,0-138.2,0-207.3,0-223.1,0-446.2.1-669.4-.3-23.8,0-46.9-5.5-65.9-21.8-11-9.5-19.1-21.1-25-34.4-.2-1.5-.4-3-1.7-4-3.5-11.5-5.1-23.3-7.2-35-.5-7.6-.9-15.3-1.4-22.9ZM116.4,48.7h0c0,.6.4.9,1,.8,1.3.7,1.3,2.6,2.9,3.1,3.7-.3,7.5.7,11.1-.8.3,0,.7,0,1-.1,1.2.3,2.2,0,3-.9,13.4-2.4,22-11.5,29.9-21.5,4.4-5.6,4.3-5.7-1.9-9.2-2.5-1.8-5.3-2.7-8.2-3.3-.5-.5-1-.9-1.7-.6-.7-.2-1.4-.3-2-.5-.9-1-2-1.1-3.2-.7-.9-.1-1.9-.2-2.8-.3-.9-1-2.1-1-3.2-.6-4.4-.2-8.7-.6-13,.3-.7-.3-1.2,0-1.7.4-1,0-2,.2-2.9.3-.9-.3-1.6,0-2.2.7-3,1.1-5.8,2.7-8.2,4.8-2.3.8-3.8,2.4-5.1,4.4-1.3,1.4-.6,3.1-.6,4.7,0,.4-.2.7-.3,1.1-.5.2-.8.6-.5,1.2l-.4,1.1c-.8.6-.8,1.3-.3,2-.5,1.2,0,1.9,1.2,2,.5,4.8,2.5,8.7,7.1,10.7h0c0,.7.3,1,1,1Zm1042.9,184.4c0-.5,0-1,0-1.5,0-.4.2-.9.3-1.3,1.5-5.7,1.2-11.3.2-17h-.3c0-.8.2-1.8.3-2.8,1-1.1.4-2.5.7-3.8-.2-.4-.5-.9-.7-1.3-.2-.6-.3-1.2-.5-1.8-2.5-2-5.1-1.2-7.7-.3l-1,.4-1.2.3c-.3,0-.6.2-.8.3-.6,0-1.3.1-1.9.2-.9-.3-1.6,0-2.1.8-.6.1-1.1.3-1.7.4-.4.2-.9.4-1.3.5-13,6.6-21.3,16.9-25.1,31-1.2,1.2-1,2.7-.6,4.2.2,4.8-.9,9.7.6,14.5.4.1.8.3,1.1.4.9.9,1.9,1,3.1.8,1,.4,2,.8,3,1.1.4.7.7.6,1-.1.3-.3.6-.6.9-1,1.6,2.5,3.9,4.2,6.2,5.9,1.2,2,2.8,3.8,3.6,5.9,1.4,3.5,2.8,3,5.3,1.1,8.6-6.7,12.8-15.9,16-25.8.9-.8,1.2-1.8.9-3,0-.3,0-.7.2-1,1-.8,1.1-1.9.8-3,0-.3,0-.7.1-1,.9-.9,1.1-2,.7-3.1Zm-109.6,89.1c-1.2-.3-2.3-.2-3.2.7-.9.2-1.8.3-2.7.5-.6-.2-1,0-1.3.5-10.6,3.3-19.1,9.5-25.9,18.1-3.1,3-2.8,7.3-4.1,11-.1,0-.3.2-.3.3,0,.2.2.5.3.7,1.9,2,4.5,2.5,7.1,3.1.6.7,1.3,1,2.2.7.6,0,1.2.2,1.8.3.8,1,1.9,1.1,3.1.8.3,0,.7,0,1,.1,1.2,1.1,2.7,1.1,4.1.7,5.2-.2,10.4,1,15.4-.7.8,0,1.5,0,2.3-.1.9.3,1.6.1,2.2-.7,7.9-1.4,13.6-7.3,20.7-10.3,1.5-.5,1.2-1.6,1.1-2.8,0-.3.1-.6.2-1,1.4-1.2,1.3-2.7.6-4.2,0-.7,0-1.4,0-2.1.2-.2.3-.4,0-.6-.2-1.5,2.2-2.8.2-4.4-.5-.7-1.3-.8-2.1-.7-1.8-1.4-3.6-2.7-5.9-3-.3-.3-.7-.7-1-1-1-1-1.9-1.9-2.9-2.9-.7-1.1-1.3-2.2-2-3.3-.5-1.1-1.3-1-2.1-.6-.6,0-1.1.1-1.7.2-.9-.4-1.7-.3-2.3.5-1.3.2-2.7.4-4,.5-.2-.2-.5-.2-.8-.2Zm50.8,1.8c.3.4.7.7,1,1.1.1.3.2.6.3.9,0,.7-.1,1.3-.2,2,0,.3-.1.6-.1.9-3.2,2.1-6.3,4.3-9.5,6.2-4.6,2.8-6,7-5.1,11.9.7,4.1,5.6,8.2,9.8,8.7,5.8.8,9.1-.8,11.8-6,2-3.8,3.5-7.8,5.2-11.7.3-.5.8-1,1-1.6,1-2.7,1.5-5.9,5.5-5.7,3.7.2,4,3.3,4.8,5.8.8,3.2,1.3,6.5,2.5,9.6,2.9,7,8.9,8.8,15.3,5,1.7-1,3.3-2.2,4.9-3.4,3.1-2.5,4.4-5.7,3.3-9.7-1.1-4-3.7-6.3-7.7-6.7-3.8-.3-7-1.8-9.9-4.2-1.6-3.3-1.5-6,2.2-7.7,2.8-.2,5.6-.5,8.4-.5,6.1,0,10-3.4,10.7-9.3.7-5.8-.6-10.9-6.1-14.1-5.5-3.2-10.2-.9-14.6,2.6-3,2.4-5.9,4.8-9.5,6.2-1.4.7-2.7.8-3.9-.4-3.3-4.8-2-9.2,1.1-13.5,1-1.5,1.9-3.1,2.6-4.8,2.6-5.4,1.8-9.3-2.9-13.6-.6-1.2-1.6-1.8-3-1.9-7.5-2.8-16.9.6-19,6.9-.7.5-.8,1.2-.7,2-.8,2.3-1,4.5.5,6.6.2.5.4.9.6,1.4.3.5.6,1,.9,1.5h0c1.9,5.1,6.3,9.4,4.5,15.6-2.5-.5-5.1-1.9-7.6,0-3.1-1.1-4.9-3.9-7.6-5.5h0c-.5-.3-1-.7-1.5-1-.5-.3-1-.5-1.5-.8-2-1.2-4-1.2-5.9,0-6.4,2.1-8.2,7.1-8.2,13.2-.6,6,1,8.7,6.8,10.1,5.8,1.5,11.7,2.2,17.7,2.2.6,1.5,1.6,2.1,3.2,1.8,0,0,0,0,0,0ZM85.4,47.6c1.1-1.6,1-3.4.3-5.1,1.1-4.1,4.6-6.3,7.2-9.2,1.9-2.1,3.1-4.3,2-7.1-2.1-5.5-14.2-10-19.9-7.5-5.2,3.1-6,5.3-4.5,13.1-.3,2.1,0,4.3-1.1,6.2-1.2,2.1-.8,5.5-4.4,5.8-3.7.3-5-2.6-6.6-5-1.4-2.2-2.4-4.7-5.2-5.6l-3.8-1.7c-3-1.4-6-.9-9.1-.5-6.6,2.6-8.6,6.4-7,12.8-.2,3.8,2.5,5.4,5.4,6.8,3.8,1.8,7.7,3.5,11.5,5.3.4.6.8,1.2,1.1,1.8-.2,1.2-.2,2.4.9,3.3l-.9,2.8c-3.3,1.1-6.7,1.9-9.8,3.3-4.2,1.8-5.2,5.6-5.3,9.8-.1,4.1,2.6,5.7,5.8,7.1,6.6,3,10.6,2.3,15.6-2.9,1.8-1.9,3.4-4.1,5-6.1,2.4-1,4.8-2.7,6.7.7-1,4.8-.8,9.6,1,14.2,1.7,4.3,9.2,7.7,13.4,6.3,3.4-1.2,5.8-6.9,4.6-11.5-.5-1.7-1.5-3.3-2.5-4.8-1.9-2.8-3.2-5.8-3.2-9.3.2-.3.5-.5.7-.8.3-.1.4-.3.3-.6l.8-.9c3.4-1.2,6,1.1,9,1.8,3.8.9,7.9,2.5,10.8-1.7,5.9-8.7,2.3-16.1-8.2-16.7-2-.1-4,.2-5.9.3-2,0-4.1.4-5-2.2,0-.7.2-1.4.3-2.1Zm-30.8,49c-1.4,0-2.8,0-4.1.1-4.3-4.9-9.6-4.6-15.1-2.7-.7,0-1.4-.2-2.1-.3-2.3.5-3.3-5.2-6.4-1.1-5,6.7-9.6,13.5-11.5,21.8-1,.9-1.1,2-.7,3.2l-.3,2.8c-1.3,5-1.4,10,0,15,0,.6.1,1.3.2,1.9-.3.9-.1,1.6.6,2.2.1.6.2,1.2.3,1.8-.2.9,0,1.6.8,2.1.1.3.2.6.2.9-.2.9,0,1.6.8,2.1.1.3.2.6.2.9-.2.9.1,1.6.8,2.1.4,1,.8,1.9,1.2,2.9.8,1.8,1.9,1.1,2.9.2.4-.1.8-.2,1.3-.3,1.5.2,3,.2,4.4-.7.8,0,1.5-.1,2.3-.2.9.2,1.6,0,2.1-.8,1.7-.7,3.5-1.5,5.2-2.2,6.3-2.4,10.8-6.6,13.8-12.5,3.3-3.9,5.7-8.3,7.1-13.2.8-.5,1-1.3.7-2.1.4-2.3.8-4.6,1.3-7,.9-.6.9-1.3,0-1.9-.1-1-.2-1.9-.4-2.9.3-1.5.4-2.9-.7-4.1,0-.6-.1-1.3-.2-1.9.3-.9.1-1.6-.6-2.2-.2-.7-.4-1.4-.6-2.1,0-3-1.9-2-3.5-1.7Zm19.9,11.2c-.8-.3-1.2-.2-1.1.8.9,7.9-1.2,15.3-3.2,22.8-1.5,2.6-3,5.2-4.4,7.7-7.1,12.3-17.1,21.1-31,24.8-3.5,1-4.2,2.5-4.2,5.8.1,23.9-.4,47.8.3,71.6.3,10.2-.8,20.6,1.7,30.7,2.4,23.7,11.7,43.9,31.3,58.2,16.6,12.1,35.6,15.9,56.1,15.9,278.1-.2,556.2-.1,834.3,0,14,0,28,0,42,0,1.5,0,3.8,1,4.2-1.4,1.6-9,8.3-14.5,14-20.6,10.1-7.6,21-13.4,34-14.2,2.3,0,4.7,0,7,0,2.2.2,3.5-.5,3.6-2.9.4-9.8,5.5-16.7,13.5-21.9,2.1-.8,4.3-1.6,6.4-2.3,1.9-.9,5.4,1.3,5.8-2.7.5-4.5,2.3-8.6,3.8-12.8,3.3-3.9,6.8-7.3,12-8.4,4-.8,4.2-2.9,3.5-6.5-1.3-7.2-2.2-14.4.2-21.7,6.3-19.3,18.2-33.3,38.1-39.4,2.5-.8,3.9-1.6,3.9-4.6-.1-28.7,0-57.4,0-86.1,0-.7,0-1.4,0-2.1.4-26.9-20.1-55-46.8-64.8-10.7-3.9-21.6-3.3-32.6-3.3-291.4,0-582.8,0-874.3,0-3,0-6,0-9,0-2,0-3.4.5-4.6,2.3-2.6,3.8-5.5,7.4-8.3,11.1-2.5,2.6-5,5.1-7.5,7.7-.8.6-1.6,1.1-2.4,1.7-11.4,8.3-23.8,13.9-38.4,11.5-2.8-.5-2.9,1.3-3.5,2.9-2.6,6.8-5.3,13.5-13.4,15.3-3.1.7-3.7,2.1-3.9,5-1.2,15.8-11.8,23.5-27,19.9Z"/>
      <path class="cls-7" d="m32.6,272.1c-2.5-10.1-1.4-20.5-1.7-30.7-.7-23.9-.2-47.7-.3-71.6,0-3.3.7-4.8,4.2-5.8,13.9-3.7,23.9-12.5,31-24.8,1.5-2.6,3-5.2,4.4-7.7,2.5.1,3.5-1.7,4.3-3.5,1.5-3.1,3.1-6.3,4.2-9.5.8-2.3,2.1-3.5,4.5-3.9,10.9-1.9,18.2-8.1,21.8-18.6.7-2,1.5-3.7,3.7-4.3,8.3-2.3,13.1-8,15.7-15.9.6-1.9,1.6-3.2,3.8-3.1,9.9.3,18.4-3.9,26.2-9.3,4-2.8,8.8-5.8,8.7-11.9,2.5-2.6,5-5.1,7.5-7.7.5,0,1,0,1.5,0,298.5,0,596.9,0,895.4.1,8.5,0,17.2,1.2,25.5,3.6,15.1,4.4,26.7,13.8,35.6,26.5,5.7,8.1,11.2,16.4,16.8,24.6.3.7.5,1.4.8,2,0,28.7,0,57.4,0,86.1,0,3-1.4,3.9-3.9,4.6-20,6.1-31.8,20-38.1,39.4-2.3,7.2-1.5,14.5-.2,21.7.7,3.5.4,5.7-3.5,6.5-5.2,1-8.8,4.5-12,8.4-6.8,3-8.9,8.8-9.7,15.5-2.1.8-4.3,1.6-6.4,2.3-.8-1.2-2.1-1.1-3.1-.7-9.9,3.4-21,14.9-20.9,25.4-13,.9-23.8,6.7-34,14.2-2.3-.2-4.3.5-6.1,1.8-6.3,4.8-13.3,6.3-21.4,6.3-281.4-.2-562.8-.1-844.1-.1-17.7,0-34.9-2.4-51.6-8.8-22.5-8.6-39.9-23.2-53.1-43.2-1.8-2.7-2.2-6.3-5.5-7.9Z"/>
      <path class="cls-10" d="m32.6,272.1c3.3,1.6,3.8,5.3,5.5,7.9,13.2,20,30.6,34.6,53.1,43.2,16.7,6.3,33.9,8.8,51.6,8.8,281.4,0,562.8,0,844.1.1,8.1,0,15-1.5,21.4-6.3,1.8-1.3,3.8-2.1,6.1-1.8-5.7,6.2-12.4,11.7-14,20.6-.4,2.4-2.7,1.4-4.2,1.4-14,0-28,0-42,0-278.1,0-556.2,0-834.3,0-20.4,0-39.4-3.8-56.1-15.9-19.7-14.3-28.9-34.5-31.3-58.2Z"/>
      <path class="cls-5" d="m1145.4,98.6c-5.6-8.2-11-16.5-16.8-24.6-9-12.7-20.5-22.1-35.6-26.5-8.3-2.4-16.9-3.6-25.5-3.6-298.5-.1-596.9-.1-895.4-.1-.5,0-1,0-1.5,0,2.8-3.7,5.7-7.3,8.4-11.1,1.2-1.8,2.6-2.3,4.6-2.3,3,0,6,0,9,0,291.4,0,582.8,0,874.3,0,10.9,0,21.9-.6,32.6,3.3,26.7,9.8,47.2,37.9,46.8,64.8-.3,0-.5,0-.8,0Z"/>
      <path class="cls-9" d="m14.3,120.5c0-.9.2-1.9.3-2.8.3-.4.6-.7.9-1.1,4.2,0,6.3-3,8.8-5.6,2.5-2.7,3.3-6.8,7.2-8.3-1.3,5.6-2.8,11.2-2.2,17.1.2,2-.7,4.8,2,5.6,2.8.8,4-1.8,5.1-3.8,3.1-5.8,5.8-11.9,9.1-17.6,1.3-2.3,1.7-5.5,5-6.3,1.4-.1,2.7-.2,4.1-.3,1.3-.1,2.5.3,3.5,1.1.2.7.4,1.4.6,2.1-.2.9,0,1.6.6,2.2,0,.6.1,1.3.2,1.9-.2,1.5-.3,2.9.7,4.1.1,1,.2,1.9.4,2.9,0,.6,0,1.3,0,1.9-.4,2.3-.8,4.6-1.3,7-.6.6-.9,1.3-.7,2.1-1.5,4.9-3.8,9.3-7.1,13.2-5.5,3.2-10.1,7.3-13.8,12.5-1.7.7-3.5,1.5-5.2,2.2-.9-.2-1.5.1-2.1.8-.8,0-1.5.1-2.2.2-1.5,0-3.1-.5-4.4.7-.4.1-.8.2-1.3.3-1,0-1.9-.2-2.9-.2-.4-1-.8-1.9-1.2-2.9.2-.9-.2-1.5-.8-2.1,0-.3-.1-.6-.2-.9.2-.9-.2-1.5-.8-2.1,0-.3-.1-.6-.2-.9.2-.9-.1-1.5-.8-2.1-.1-.6-.2-1.2-.3-1.8.2-.9,0-1.6-.6-2.2,0-.6-.1-1.3-.2-1.9,0-5,0-10,0-15Z"/>
      <path class="cls-9" d="m1123.5,258.3c-1-.4-2-.8-3-1.1-.9-.8-1.9-1.1-3.1-.8-.4-.1-.8-.3-1.1-.4,0-4.8,0-9.6,0-14.5.1-1.1.3-2.2.4-3.3,2.7-.5,5-1.5,6.9-3.5,10-10.3,21.8-17.6,35.8-21.3,0,0,.3-.1.3-.1,0,5.7-.2,11.4-.2,17,0,.4-.2.9-.3,1.3-.6.3-.7.9-.5,1.5,0,1.1-.1,2.1-.2,3.2,0,.3,0,.7-.1,1-.7.9-1.1,1.9-.8,3,0,.3-.1.6-.2,1-.8.8-1.1,1.8-.9,3-3.2,9.9-7.4,19.2-16,25.8-2.5,1.9-3.9,2.4-5.3-1.1-.8-2.1-2.4-3.9-3.6-5.9.7-.5,1.6-.8,2-1.4,5.9-9.4,11-19.2,12.9-30.3.3-1.9.4-4.2-2.1-5-2.4-.7-4.2.3-5.5,2.3-4.4,6.7-7.5,14-11.2,21-1.2,2.3-2.8,4.6-2.2,7.5l-.9,1c-.3,0-.7,0-1,.1Z"/>
      <path class="cls-7" d="m85.1,49.7c.9,2.5,3,2.2,5,2.2,2,0,4-.4,5.9-.3,10.5.6,14.2,8.1,8.2,16.7-2.9,4.2-7,2.6-10.8,1.7-3-.7-5.6-3-9-1.8,0-3.3,1.3-6.4.9-9.8-.6-6-3.7-10.6-8-11.7-.3-.1-.6-.2-1-.3-2.6-3.1-5.7-1.7-8.4-.4-6.1,2.9-12.9,4.7-17.8,9.9-3.8-1.8-7.7-3.4-11.5-5.3-2.8-1.4-5.5-3-5.4-6.8,5.8-.4,11.5.5,17.2,1,2.3.2,4.4-.3,5.4-2.6.8-2,.5-3.9-1.2-5.4-1-.9-1.6-2.1-1.5-3.5,2.8.8,3.8,3.4,5.2,5.6,1.6,2.4,2.9,5.4,6.6,5,3.5-.3,3.1-3.7,4.4-5.8,1.1-2,.8-4.1,1.1-6.2,4.3,0,8.6.1,12.8,0,4.1-.1,5.5-2.2,4.3-6.2-2-6.5-7.4-6.6-12.7-6.9,5.7-2.5,17.8,2.1,19.9,7.5,1.1,2.8-.1,5-2,7.1-2.6,2.9-6.1,5.1-7.2,9.2-.2,1-.5,2.1-.7,3.1-1,1.4-1.2,2.7,0,4.1Z"/>
      <path class="cls-9" d="m1074.5,332.8c2.1,1.6-.4,2.9-.2,4.4-.1,0-.3.1-.3.1,0,.2.1.3.2.5,0,.7,0,1.4,0,2.1-1.2,1.3-.9,2.7-.6,4.2,0,.3-.1.6-.2,1-.4.9-.7,1.9-1.1,2.8-7.1,3.1-12.8,8.9-20.7,10.3-.9-.2-1.6,0-2.2.7-.8,0-1.5,0-2.3.1-5.1,0-10.3.1-15.4.2-1.4,0-2.8-.1-4.2-.2-.3,0-.7-.1-1-.1-.9-.8-1.9-1.1-3.1-.8-.6,0-1.2-.2-1.8-.3-.6-.7-1.3-.9-2.2-.7-2.5-.7-5.1-1.2-7.1-3.1.1-.3.1-.7,0-1,1.3-3.7,1-8,4.1-11,1,0,2,.1,3,0,13.9-2.6,27.1-7.7,40.3-12.6,2-.7,2.9-2.1,2.8-4.2,1,1,1.9,1.9,2.9,2.9,0,.3-.1.6-.2.9-9.1,3.7-17.7,8.4-25.7,14.1-.9.6-2.3,1.1-1.6,2.6.6,1.2,1.7,1.3,3,1,2.9-.6,5.9-1,8.7-1.9,8.4-2.8,17.4-4.4,23.8-11.5.3-.2.7-.3,1-.5Z"/>
      <path class="cls-9" d="m163.3,20.1c6.2,3.5,6.4,3.6,1.9,9.2-7.9,10-16.5,19-29.9,21.5-1.2-.2-2.1.1-3,.9-.3,0-.7,0-1,.1-3.7,0-7.5-1-11.1.8-1.6-.4-1.6-2.3-2.9-3.1-.3-.3-.7-.6-1-.9,0,0,0,0,0,0,0-.6-.3-1-1-1,0,0,0,0,0,0,1.8-4.7,6.6-5,10.3-6.8,3.7-1.8,7.6-3.2,10.5-6.3,1.2-1.3,1.9-2.8.9-4.5-.9-1.6-2.5-1.3-4-1.1-3.9.6-7.9,1-11.7,1.9-4.7,1.2-9.8,1.8-13.1,6.1-1.2-.2-1.7-.8-1.2-2,.5-.6.6-1.3.3-2,.1-.4.2-.7.4-1.1.2-.4.3-.8.5-1.2,0-.4.2-.7.3-1.1,1.2-1.4.7-3.1.6-4.7,1.3-1.9,2.8-3.6,5.1-4.4.4,2.2,2,3.1,3.9,3.1,4.6.1,9.3.1,13.9,0,8.1-.3,16.1-.5,23.9,1.9,6.1,1.9,7.2,1.1,7.4-5.4Z"/>
      <path class="cls-10" d="m163.2,51.5c.1,6.1-4.6,9.1-8.7,11.9-7.8,5.4-16.3,9.5-26.2,9.3-2.3,0-3.2,1.2-3.8,3.1-2.5,7.9-7.4,13.6-15.7,15.9-2.2.6-3,2.3-3.7,4.3-3.5,10.5-10.9,16.7-21.8,18.6-2.4.4-3.7,1.6-4.5,3.9-1.2,3.3-2.7,6.4-4.2,9.5-.9,1.8-1.9,3.6-4.3,3.5,1.9-7.5,4.1-14.9,3.2-22.8.4-.3.7-.5,1.1-.8,15.2,3.6,25.9-4.1,27-19.9.2-2.9.9-4.4,3.9-5,8.1-1.8,10.9-8.5,13.4-15.3.6-1.7.7-3.4,3.5-2.9,14.6,2.4,26.9-3.2,38.4-11.5.8-.6,1.6-1.1,2.4-1.7Z"/>
      <path class="cls-7" d="m1097.3,322.2c-6,0-11.9-.7-17.7-2.2-5.7-1.5-7.4-4.1-6.8-10.1,10.1,2.6,15.5-.9,17.2-11.3,2.7,1.6,4.5,4.4,7.6,5.5,2.5,1.5,5.1,2.3,7.6,0,1.8-6.1-2.6-10.5-4.5-15.5,5.3-1,9.5-4.3,14.4-6.3,4.6-1.9,7.3-4.9,6.3-10.2,4.7,4.3,5.6,8.1,2.9,13.6-.8,1.6-1.6,3.3-2.6,4.8-3,4.3-4.4,8.7-1.1,13.5-2.1.3-4.2.7-6.3,1-9.6,1.7-14.9,7.7-14.9,17.1-.7,0-1.4,0-2.2,0Z"/>
      <path class="cls-8" d="m1099.5,322.2c0-9.4,5.2-15.4,14.9-17.1,2.1-.4,4.2-.7,6.3-1,1.2,1.1,2.5,1,3.9.4,7.5,2.3,11.8,6.9,11,15.1-3.7,1.7-3.9,4.5-2.2,7.7-2.8,3.1-5.6,6.3-8.4,9.4-.9-2.6-1.2-5.6-4.8-5.8-4-.3-4.5,3-5.5,5.7-.2.6-.7,1.1-1,1.6-6.3,0-8.3-5.8-12.2-9.1,0-.3,0-.6.1-.9.8-.6,1.1-1.2.2-2,0-.3-.1-.6-.3-.9,0-.7-.3-1.1-1-1.1,0,0,0,0,0,0-.3-.6-.7-1.3-1-1.9Zm14.9-7.9c.3,2.5.6,5.7,2.4,8.4,1.4,2,3.3,2.9,5.6,2,2.1-.8,2.9-2.5,3-4.7,0-3.1-1.5-5.7-2.7-8.4-1-2.3-2.4-4.2-5.2-3.4-2.8.7-3.1,3.1-3.1,6.2Zm-2.8,6.5c-.7-2.7-.4-7.1-5.2-7.6-3.1-.3-4,2.4-3.9,5.1,0,4.5,2.6,8.1,5.7,7.9,3.2-.1,3.6-2.3,3.5-5.5Z"/>
      <path class="cls-8" d="m50.3,55.8c4.9-5.2,11.7-7,17.8-9.9,2.7-1.3,5.7-2.7,8.4.4-5.4.9-8.3,5.5-6.9,11.2.6,2.6,2,4.5,5.1,4.4,2.9,0,4.2-1.9,4.6-4.3.7-3.8.5-7.5-1.8-10.9,4.3,1,7.4,5.7,8,11.7.3,3.4-1,6.5-.9,9.8-.3.3-.6.6-.8.9-.1,0-.3,0-.3,0,0,.2,0,.4,0,.6-.2.3-.5.5-.7.8-4.5,1.6-7.8,6.2-13.3,5.1-1.9-3.3-4.3-1.7-6.7-.7-4.2-3.3-9-6-11.2-11.3.3-.9.6-1.9.9-2.8.3-1.3.4-2.5-.9-3.3-.4-.6-.8-1.2-1.1-1.8Zm17.1,1.5c0-2.3-2.9-6.5-5.7-6.4-3.6,0-4.2,2.8-4.2,5.6,0,3.3,1,6.3,5.2,6.6,3,.2,4.7-1.3,4.7-5.7Z"/>
      <path class="cls-2" d="m1159.4,213.3c-14,3.7-25.8,11-35.8,21.3-2,2-4.3,3-6.9,3.5-.1-.3-.2-.6-.4-.9,3.7-14,12.1-24.4,25.1-31,.4-.2.9-.4,1.3-.5.6-.1,1.1-.3,1.7-.4.9.2,1.6,0,2.1-.8.6,0,1.3-.1,1.9-.2.3,0,.6,0,.8-.3.4-.1.8-.2,1.2-.3,2.8,2.1,7.1,1.8,8.7,5.7.2.3.3.7.5,1.1,0,1-.2,2-.3,2.9Z"/>
      <path class="cls-7" d="m1135.6,319.5c.7-8.2-3.6-12.8-11-15.1,3.6-1.4,6.5-3.8,9.5-6.2,4.3-3.4,9.1-5.7,14.6-2.6,5.5,3.1,6.7,8.2,6.1,14.1-.7,5.9-4.6,9.3-10.7,9.3-2.8,0-5.6.3-8.4.5Z"/>
      <path class="cls-7" d="m1101.5,329c3.9,3.3,5.9,9.1,12.2,9.1-1.7,3.9-3.3,7.9-5.2,11.7-2.7,5.2-6,6.8-11.8,6-4.3-.6-9.1-4.6-9.8-8.7-.8-4.9.5-9.1,5.1-11.9,3.2-2,6.3-4.2,9.5-6.2Z"/>
      <path class="cls-7" d="m1125,336.7c2.8-3.1,5.6-6.3,8.4-9.4,2.9,2.4,6.1,3.8,9.9,4.2,4,.4,6.6,2.7,7.7,6.7,1.1,4-.2,7.2-3.3,9.7-1.5,1.2-3.2,2.4-4.9,3.4-6.5,3.8-12.5,2-15.3-5-1.2-3-1.7-6.4-2.5-9.6Z"/>
      <path class="cls-2" d="m1062.6,325.2c.2,2.1-.8,3.5-2.8,4.2-13.2,4.9-26.4,10-40.3,12.6-1,.2-2,0-3,0,6.8-8.7,15.4-14.8,25.9-18.1.4-.2.9-.3,1.3-.5.9-.2,1.8-.3,2.7-.5,1,0,2,0,3.1-.1.3-.1.6-.3.9-.4,1.3-.2,2.7-.4,4-.5.9.3,1.6.2,2.3-.5.6,0,1.1-.1,1.7-.2.7.2,1.4.4,2.1.6.7,1.1,1.3,2.2,2,3.3Z"/>
      <path class="cls-2" d="m163.3,20.1c-.2,6.5-1.3,7.3-7.4,5.4-7.8-2.4-15.9-2.2-23.9-1.9-4.6.2-9.3.2-13.9,0-1.9,0-3.5-.9-3.9-3.1,2.5-2.1,5.2-3.7,8.2-4.8.9.2,1.6,0,2.2-.7,1,0,2-.2,2.9-.3.6-.1,1.1-.3,1.7-.4,4.3-.9,8.7-.5,13-.3,1,.8,2.1.9,3.2.6.9.1,1.9.2,2.8.3.9.8,2,1,3.2.7.7.2,1.4.3,2,.5.4.7,1,.8,1.7.6,2.9.6,5.7,1.6,8.2,3.3Z"/>
      <path class="cls-7" d="m51.4,63.7c2.2,5.3,7,8,11.2,11.3-1.7,2-3.2,4.2-5,6.1-5,5.2-9,5.8-15.6,2.9-3.1-1.4-5.9-3-5.8-7.1.1-4.2,1.2-8,5.3-9.8,3.1-1.4,6.5-2.2,9.8-3.3Z"/>
      <path class="cls-1" d="m1125.4,257.2c-.5-2.9,1-5.1,2.2-7.5,3.7-7,6.8-14.4,11.2-21,1.3-2,3.2-3,5.5-2.3,2.6.8,2.4,3,2.1,5-1.9,11.1-7,20.9-12.9,30.3-.4.6-1.3,1-2,1.4-2.3-1.7-4.6-3.4-6.2-5.9Z"/>
      <path class="cls-7" d="m69.3,75.7c5.5,1,8.8-3.5,13.3-5.1,0,3.4,1.3,6.4,3.2,9.3,1,1.5,2,3.1,2.5,4.8,1.2,4.7-1.1,10.4-4.6,11.5-4.2,1.4-11.7-2-13.4-6.3-1.8-4.6-2.1-9.4-1-14.2Z"/>
      <path class="cls-1" d="m50.5,97.6c-3.3.8-3.7,4-5,6.3-3.3,5.7-6,11.8-9.1,17.6-1,2-2.3,4.6-5.1,3.8-2.7-.8-1.8-3.5-2-5.6-.5-5.8.9-11.5,2.2-17.1,0,0,0,0,0,0,.8-.4,1-1.2,1-2h0c.8-.4,1-1.2,1-2,1-1.1,1.8-2.3,1.7-3.8.1-.2.2-.5.2-.7,5.5-2,10.8-2.2,15.1,2.7,0,.3,0,.5,0,.8Z"/>
      <path class="cls-1" d="m108.2,37c3.3-4.2,8.4-4.9,13.1-6.1,3.8-.9,7.8-1.3,11.7-1.9,1.5-.2,3.1-.5,4,1.1,1,1.7.4,3.1-.9,4.5-2.9,3.2-6.8,4.5-10.5,6.3-3.7,1.8-8.5,2.1-10.3,6.8-4.7-2.1-6.6-5.9-7.1-10.7Z"/>
      <path class="cls-1" d="m1073.5,333.3c-6.3,7.1-15.3,8.8-23.8,11.5-2.8.9-5.8,1.2-8.7,1.9-1.3.3-2.4.2-3-1-.7-1.5.7-1.9,1.6-2.6,8-5.7,16.6-10.3,25.7-14.1.4,0,.8,0,1.2,0,2.3.3,4.2,1.6,5.9,3,.4.4.7.8,1.1,1.2Z"/>
      <path class="cls-5" d="m53.3,33.2c-.1,1.4.5,2.6,1.5,3.5,1.7,1.5,2,3.5,1.2,5.4-1,2.3-3.1,2.8-5.4,2.6-5.7-.5-11.5-1.4-17.2-1-1.6-6.4.4-10.1,7-12.8,3,.8,6,1.9,9.1.5l3.8,1.7Z"/>
      <path class="cls-5" d="m1121.5,272.2c1,5.3-1.7,8.3-6.3,10.2-4.8,2-9.1,5.3-14.4,6.3,0,0,0,0,0,0,.6-1,0-1.3-.9-1.5-.2-.5-.4-.9-.6-1.4,0-2.2.8-4.5-.5-6.6-.1-.8,0-1.5.7-2,2.7.5,4.1-1.6,5.7-3.2,3.8-3.7,9-2,13.3-3.7,1.4,0,2.4.7,3,1.9Z"/>
      <path class="cls-2" d="m35.2,94.8c0,1.5-.8,2.7-1.7,3.8-.9.4-1.1,1.1-1,2,0,0,0,0,0,0-.9.4-1.1,1.2-1,2,0,0,0,0,0,0-3.9,1.5-4.7,5.6-7.2,8.3-2.5,2.7-4.6,5.7-8.8,5.6,0-.7,0-1.4-.1-2.1,1.9-8.3,6.5-15.1,11.5-21.8,3.1-4.1,4.1,1.6,6.4,1.1.4.8,1.2.9,2,1Z"/>
      <path class="cls-10" d="m1048.5,309.8c-.1-10.5,11-22,20.9-25.4,1.1-.4,2.3-.5,3.1.7-7.9,5.2-13.1,12.1-13.5,21.9,0,2.4-1.4,3.1-3.6,2.9-2.3-.2-4.6,0-7,0Z"/>
      <path class="cls-5" d="m75,18.6c5.3.3,10.8.4,12.7,6.9,1.2,3.9-.2,6-4.3,6.2-4.3.1-8.6,0-12.8,0-1.5-7.8-.8-9.9,4.5-13.1Z"/>
      <path class="cls-5" d="m1090,298.5c-1.7,10.4-7,13.9-17.2,11.3,0-6.1,1.8-11.1,8.2-13.2,2,0,4,0,5.9,0,.5.3,1,.5,1.5.8.2.8.5,1.4,1.5,1h0Z"/>
      <path class="cls-10" d="m1078.9,282.7c.7-6.7,2.9-12.5,9.7-15.5-1.5,4.2-3.3,8.3-3.8,12.8-.5,4.1-3.9,1.8-5.8,2.7Z"/>
      <path class="cls-7" d="m1118.5,270.3c-4.3,1.8-9.5,0-13.3,3.7-1.6,1.6-3,3.6-5.7,3.2,2.1-6.3,11.5-9.7,19-6.9Z"/>
      <path class="cls-1" d="m37.6,148.4c3.7-5.2,8.3-9.3,13.8-12.5-3,5.9-7.5,10.2-13.8,12.5Z"/>
      <path class="cls-9" d="m1159.2,209.4c-1.6-3.9-6-3.6-8.7-5.7.3-.1.7-.3,1-.4,2.6.1,5.1.2,7.7.3.2.6.3,1.2.5,1.8-.1.3-.2.6-.1,1l-.3,3Z"/>
      <path class="cls-6" d="m1159.5,230.2c0-5.7.2-11.4.2-17,1,5.7,1.2,11.4-.2,17Z"/>
      <path class="cls-10" d="m1031.8,359.2c5.1,0,10.3-.1,15.4-.2-5.1,1.8-10.3.6-15.4.7,0-.2,0-.4,0-.6Z"/>
      <path class="cls-6" d="m14.3,120.5c0,5,0,10,0,15-1.4-5-1.4-10,0-15Z"/>
      <path class="cls-10" d="m1116.3,241.4c0,4.8,0,9.6,0,14.5-1.5-4.8-.4-9.7-.6-14.5,0,0,.3,0,.3,0h.3Z"/>
      <path class="cls-11" d="m1105.3,304.1c-2.6,2.2-5.1,1.4-7.6,0,2.6-1.8,5.1-.4,7.6,0Z"/>
      <path class="cls-7" d="m49.5,31.4c-3.1,1.4-6.1.3-9.1-.5,3.1-.4,6.1-.9,9.1.5Z"/>
      <path class="cls-6" d="m120.2,52.6c3.6-1.8,7.4-.8,11.1-.8-3.6,1.5-7.4.6-11.1.8Z"/>
      <path class="cls-6" d="m1159.2,203.6c-2.6-.1-5.1-.2-7.7-.3,2.6-.9,5.2-1.7,7.7.3Z"/>
      <path class="cls-1" d="m58.1,98.4c-1-.8-2.2-1.2-3.5-1.1,0-.2,0-.4,0-.6,1.6-.2,3.5-1.2,3.5,1.7Z"/>
      <path class="cls-7" d="m1098.8,279.2c1.4,2.1.6,4.4.5,6.6-1.5-2.1-1.4-4.3-.5-6.6Z"/>
      <path class="cls-1" d="m109,24.9c.2,1.6.7,3.2-.6,4.7,0-1.6-.7-3.2.6-4.7Z"/>
      <path class="cls-10" d="m1087,296.7c-2,0-4,0-5.9,0,2-1.3,3.9-1.2,5.9,0Z"/>
      <path class="cls-6" d="m85.1,45.6c.2-1,.5-2.1.7-3.1.7,1.8.8,3.5-.3,5.1-.1-.7-.2-1.3-.4-2Z"/>
      <path class="cls-11" d="m1099.5,322.2l1,1.9c-1.6.3-2.6-.3-3.2-1.8.7,0,1.4,0,2.2,0Z"/>
      <path class="cls-10" d="m23.7,152.2c1.3-1.2,2.9-.7,4.4-.7-1.4.9-2.9.9-4.4.7Z"/>
      <path class="cls-8" d="m85.1,45.6c.1.7.2,1.3.4,2,0,.7-.2,1.4-.3,2.1-1.2-1.3-1-2.7,0-4.1Z"/>
      <path class="cls-6" d="m1116.3,241.4h-.3s-.3,0-.3,0c-.3-1.5-.6-2.9.6-4.2.1.3.2.6.4.9-.1,1.1-.3,2.2-.4,3.3Z"/>
      <path class="cls-6" d="m60.2,108.7c-1-1.3-1-2.7-.7-4.1,1.1,1.2,1,2.7.7,4.1Z"/>
      <path class="cls-6" d="m1031.8,359.2c0,.2,0,.4,0,.6-1.5.4-2.9.4-4.1-.7,1.4,0,2.8.1,4.2.2Z"/>
      <path class="cls-6" d="m1159.2,209.4c.1-1,.2-2,.3-3,.3.1.5.2.8.3-.2,1.2.4,2.6-.7,3.8-.2-.3-.3-.7-.5-1Z"/>
      <path class="cls-6" d="m54.6,96.6c0,.2-.1.4,0,.6-1.4.1-2.7.2-4.1.3,0-.3,0-.5,0-.8,1.4,0,2.8,0,4.2-.1Z"/>
      <path class="cls-1" d="m1073.7,344.1c-.3-1.5-.6-2.9.6-4.2.7,1.5.8,3-.6,4.2Z"/>
      <path class="cls-6" d="m132.3,51.7c.9-.7,1.8-1.1,3-.9-.8,1-1.8,1.1-3,.9Z"/>
      <path class="cls-6" d="m19.5,152.3c1,0,1.9.2,2.9.2-1,.9-2.1,1.5-2.9-.2Z"/>
      <path class="cls-6" d="m1049.6,322.8c-1,0-2,0-3.1.1.9-.9,2-1,3.2-.7,0,.2,0,.4,0,.6Z"/>
      <path class="cls-6" d="m1117.5,256.3c1.2-.3,2.2,0,3.1.8-1.2.3-2.2.1-3.1-.8Z"/>
      <path class="cls-6" d="m1158.5,236.3c0-1.1.1-2.1.2-3.2.2,0,.3,0,.5,0,.3,1.2.2,2.2-.7,3.1Z"/>
      <path class="cls-6" d="m1157.6,240.3c-.3-1.2,0-2.2.8-3,.3,1.2.2,2.2-.8,3Z"/>
      <path class="cls-11" d="m51.4,57.6c1.3.8,1.2,2,.9,3.3-1.1-.9-1.1-2.1-.9-3.3Z"/>
      <path class="cls-6" d="m151.4,15.6c-1.2.3-2.2.1-3.2-.7,1.2-.4,2.3-.2,3.2.7Z"/>
      <path class="cls-6" d="m145.4,14.6c-1.2.3-2.3.3-3.2-.6,1.2-.4,2.3-.4,3.2.6Z"/>
      <path class="cls-6" d="m15.3,114.5c0,.7,0,1.4.1,2.1-.3.4-.6.7-.9,1.1-.4-1.2-.2-2.3.7-3.2Z"/>
      <path class="cls-6" d="m1072.4,347.8c.4-.9.7-1.9,1.1-2.8.2,1.1.4,2.3-1.1,2.8Z"/>
      <path class="cls-6" d="m1023.5,358.1c1.2-.3,2.2,0,3.1.8-1.2.3-2.2.2-3.1-.8Z"/>
      <path class="cls-6" d="m1156.5,244.2c-.2-1.2.1-2.1.9-3,.3,1.2,0,2.2-.9,3Z"/>
      <path class="cls-6" d="m16.5,144.4c.6.5,1,1.2.8,2.1-.7-.5-1-1.2-.8-2.1Z"/>
      <path class="cls-6" d="m15.5,141.4c.6.6,1,1.2.8,2.1-.7-.5-1-1.2-.8-2.1Z"/>
      <path class="cls-6" d="m14.5,137.4c.6.6.9,1.3.6,2.2-.8-.6-.9-1.3-.6-2.2Z"/>
      <path class="cls-6" d="m30.3,151.4c.6-.6,1.2-1,2.1-.8-.5.7-1.2,1-2.1.8Z"/>
      <path class="cls-7" d="m1099.9,287.1c.8.2,1.5.5.9,1.5-.3-.5-.6-1-.9-1.5Z"/>
      <path class="cls-7" d="m1090,298.5c-1,.4-1.3-.2-1.5-1,.5.3,1,.7,1.5,1Z"/>
      <path class="cls-6" d="m58.6,122.6c-.2-.9.1-1.5.7-2.1.2.9,0,1.6-.7,2.1Z"/>
      <path class="cls-6" d="m59.3,102.6c-.6-.6-.9-1.3-.6-2.2.8.6.9,1.3.6,2.2Z"/>
      <path class="cls-10" d="m1145.4,98.6c.3-.1.5-.1.8,0,0,.7,0,1.4,0,2.1-.3-.7-.5-1.4-.8-2Z"/>
      <path class="cls-6" d="m1056.8,321.4c-.7.7-1.4.8-2.3.5.6-.8,1.4-.9,2.3-.5Z"/>
      <path class="cls-6" d="m1060.6,321.9c-.7-.2-1.4-.4-2.1-.6.9-.4,1.7-.4,2.1.6Z"/>
      <path class="cls-6" d="m124.5,15c-.6.7-1.3.9-2.2.7.6-.7,1.3-1.1,2.2-.7Z"/>
      <path class="cls-10" d="m155.1,16.8c-.7.2-1.3,0-1.7-.6.7-.3,1.3.1,1.7.6Z"/>
      <path class="cls-6" d="m1101.8,326.1c.9.8.6,1.4-.2,2,0-.7.1-1.3.2-2Z"/>
      <path class="cls-6" d="m107.3,32.9c.3.7.2,1.4-.3,2-.5-.8-.5-1.4.3-2Z"/>
      <path class="cls-9" d="m129.1,14.3c-.6.1-1.1.3-1.7.4.5-.5,1-.7,1.7-.4Z"/>
      <path class="cls-6" d="m35.2,94.8c-.8-.1-1.6-.2-2-1,.7,0,1.4.2,2.1.3,0,.3,0,.5-.2.7Z"/>
      <path class="cls-4" d="m1073.5,333.3c-.4-.4-.7-.8-1.1-1.2.8,0,1.6,0,2.1.7-.3.2-.7.3-1,.5Z"/>
      <path class="cls-6" d="m1146.6,204.5c-.5.7-1.2,1-2.1.8.5-.7,1.2-1.1,2.1-.8Z"/>
      <path class="cls-10" d="m1159.3,233.1c-.2,0-.3,0-.5,0-.2-.6-.2-1.2.5-1.5,0,.5,0,1,0,1.5Z"/>
      <path class="cls-6" d="m1019.5,357.1c.9-.2,1.6,0,2.2.7-.9.3-1.6,0-2.2-.7Z"/>
      <path class="cls-4" d="m60.5,113.5c0-.6,0-1.3,0-1.9.9.7.9,1.3,0,1.9Z"/>
      <path class="cls-6" d="m1049.5,358.9c.6-.6,1.3-.9,2.2-.7-.5.8-1.3.9-2.2.7Z"/>
      <path class="cls-6" d="m17.5,147.4c.7.5,1,1.2.8,2.1-.7-.5-1.1-1.2-.8-2.1Z"/>
      <path class="cls-4" d="m1160.4,206.6c-.3-.1-.5-.2-.8-.3,0-.3,0-.6.1-1,.2.4.5.9.7,1.3Z"/>
      <path class="cls-6" d="m1066.5,329c-.4,0-.8,0-1.2,0,0-.3.2-.6.2-.9.3.3.7.7,1,1Z"/>
      <path class="cls-1" d="m108.1,30.7c-.2.4-.3.8-.5,1.2-.3-.6,0-.9.5-1.2Z"/>
      <path class="cls-4" d="m1123.5,258.3c.3-.1.6-.2,1-.1-.3.7-.6.8-1,.1Z"/>
      <path class="cls-1" d="m116.4,48.7c.3.3.7.6,1,.9-.6,0-1-.2-1-.9Z"/>
      <path class="cls-6" d="m1043.8,323.4c-.4.2-.9.3-1.3.5.3-.5.7-.7,1.3-.5Z"/>
      <path class="cls-1" d="m1074.2,337.9c0-.2-.2-.3-.2-.5,0,0,.2,0,.3-.1.2.2.2.5,0,.6Z"/>
      <path class="cls-10" d="m1049.6,322.8c0-.2,0-.4,0-.6.3,0,.6,0,.8.2-.3.2-.6.3-.9.4Z"/>
      <path class="cls-1" d="m115.3,47.7c.7,0,1,.3,1,1-.7,0-1.1-.3-1-1Z"/>
      <path class="cls-4" d="m1012.4,353c.2.3.2.6,0,1-.1-.2-.3-.4-.3-.7,0,0,.2-.2.3-.3Z"/>
      <path class="cls-6" d="m1142.7,205.7c-.4.2-.9.4-1.3.5.4-.2.9-.4,1.3-.5Z"/>
      <path class="cls-9" d="m1149.3,204c-.2.3-.5.4-.8.3.3,0,.6-.2.8-.3Z"/>
      <path class="cls-11" d="m1100.5,324c.7,0,1,.4,1,1.1-.3-.4-.7-.7-1-1.1Z"/>
      <path class="cls-6" d="m74.5,107.8c-.4.3-.7.5-1.1.8-.2-1,.3-1.1,1.1-.8Z"/>
      <path class="cls-6" d="m83.3,69.7c0-.2,0-.4,0-.6,0,0,.2,0,.3,0,0,.3,0,.5-.3.6Z"/>
      <path class="cls-11" d="m77.4,46.7c2.3,3.3,2.5,7.1,1.8,10.9-.4,2.4-1.7,4.2-4.6,4.3-3.1,0-4.4-1.8-5.1-4.4-1.4-5.7,1.5-10.3,6.9-11.2.3.1.6.2,1,.3Z"/>
      <path class="cls-11" d="m1114.4,314.3c0-3.1.3-5.4,3.1-6.2,2.8-.7,4.2,1.1,5.2,3.4,1.2,2.7,2.8,5.3,2.7,8.4,0,2.2-.9,3.9-3,4.7-2.3.9-4.3,0-5.6-2-1.9-2.7-2.1-5.9-2.4-8.4Z"/>
      <path class="cls-11" d="m1111.6,320.8c.1,3.2-.2,5.4-3.5,5.5-3.1.1-5.7-3.4-5.7-7.9,0-2.7.9-5.4,3.9-5.1,4.8.4,4.5,4.9,5.2,7.6Z"/>
      <path class="cls-11" d="m67.3,57.3c0,4.4-1.7,5.9-4.7,5.7-4.1-.2-5.1-3.2-5.2-6.6,0-2.7.7-5.5,4.2-5.6,2.8,0,5.7,4.1,5.7,6.4Z"/>
      <path class="cls-9" d="m31.4,102.6c0-.9,0-1.6,1-2,0,.8-.1,1.6-1,2Z"/>
      <path class="cls-9" d="m32.4,100.6c0-.9.2-1.6,1-2,0,.8-.2,1.6-1,2Z"/>
    </g>
  </g>
</svg>