<?xml version="1.0" encoding="UTF-8"?>
<svg id="Layer_2" data-name="Layer 2" xmlns="http://www.w3.org/2000/svg" width="1130.4" height="507.6" viewBox="0 0 1130.4 507.6">
  <defs>
    <style>
      .cls-1 {
        fill: #c297d1;
      }

      .cls-2 {
        fill: #fff;
      }

      .cls-3 {
        fill: #f2d9fd;
      }

      .cls-4 {
        fill: #3d0020;
      }

      .cls-5 {
        fill: #e7bcfc;
      }

      .cls-6 {
        fill: #bf86e0;
      }
    </style>
  </defs>
  <g id="Middle">
    <g>
      <g>
        <path class="cls-4" d="m164.9,455.7c-6.3,1.7-12.6,3.5-18.9,5.2-.7-.2-1,.2-1.2.8-16.4,3.9-32.8,7.8-49,12.6-7.6,2.2-15.2,4.4-22.8,6.6-.7-.2-1,.2-1.1.8-4,1.4-7.9,2.9-11.9,4.3-.7-.3-1,.1-1.1.7-3,1.1-5.9,2.2-8.9,3.3-.7-.3-1,.1-1.1.7-2,.8-3.9,1.5-5.9,2.3-.7-.3-1,.1-1.1.7-1.3.4-2.6.8-3.9,1.3-.7-.3-1,.1-1.2.7-.6,0-1.2.2-1.8.2-.7-.2-1,.2-1.1.8-2,.8-3.9,1.5-5.9,2.3-.7-.3-.9.2-1,.7-.3,0-.7.2-1,.3-.7-.3-.9.2-1,.7-.3,0-.7.2-1,.3-.7-.3-.9.2-1,.7-.3,0-.7.2-1,.3-.7-.3-.9.1-1.1.7-.3,0-.6,0-.9.2-.7-.2-1,.1-1.1.7-.3,0-.6,0-.9.2-.7-.2-1,.1-1.2.7-1.3.4-2.5.8-3.8,1.3-.8-.2-1.7-.5-2.1.7-1.3.1-2.6.3-3.9.4-.9-.3-1.7-.5-2,.7-3.6-.7-5-3-5.1-6.6-.1-8.4,2.1-16.5,2.8-24.8.4-4.9.9-9.8,1.2-14.7.8-13.5,2-27,4-40.5,1.6-11,2.2-22.1,3.1-33.2.8-10.6,1.2-21.3,2.1-32,1.3-14.1.8-28-1-42-1-8.1-1.3-16.3-2.1-24.5-.9-8.9-2.3-17.7-3.5-26.6-1.3-10.2-3.8-20.2-3.4-30.6,2.3-1.2-.2-2-.3-3,0-.3,0-.7,0-1,.2-.7-.2-1-.8-1.1-4.6-11.5-2.1-19.9,8.5-27.8,14.3-10.6,30.2-18.4,46.6-25.2,8.1-3.3,15.9-7.3,24.5-9.2,1.4-.3,2.9-.5,4.3-.8q5.5.3,5.1-2.9c-.7-6.1-1.7-12.3-2-18.4-.9-18.2,7.5-31.6,22.4-41.3,22.1-14.3,46-25.1,70.7-34.1,33-12,66.5-22,100.6-30.4,19.4-4.7,38.9-8.9,58.5-12.7,15.9-3.1,31.9-5.5,47.8-8.6,3.5-.7,7.1-.9,10.7-1.3.7.2.9-.2,1.1-.8,9.9-.4,19.6-2.6,29.5-3.8,1.8-.2,3.6-.3,5.4-.4.8.2,1.7.4,2.1-.7,2-.1,4-.2,5.9-.3.8.2,1.6.4,2.1-.6,2.3-.1,4.6-.2,6.9-.4.8.2,1.6.4,2.1-.7l16.9-1.3c.7.2.9-.2,1.1-.8,3.3,0,6.6-.1,9.9-.2,1.4,0,2.9.9,4-.7,2.7,0,5.3-.2,8-.3,1.4,0,2.9.9,4-.7,3.3,0,6.6-.2,9.9-.3,2,0,4.2.9,6-.7,4.6,0,9.3-.2,13.9-.3,2.3-.2,4.9,1.1,7-.8,18.6-1.1,37.3-.7,55.9,0,3.6,1.9,7.4.5,11,.7,3.7,0,7.3.2,11,.2,2.5,1.8,5.3.6,8,.7l8,.2c1.8,1.7,4,.7,6,.8,3,.1,6,.2,8.9.3,1.1,1.5,2.7.6,4.1.7,2.3.1,4.6.2,6.9.3.8,1.4,2,.7,3.1.7l6,.3c1.1,1.7,2.7.7,4,.7,2.3.1,4.6.2,6.9.4.8,1.3,2,.7,3.1.6l4.9.3c.7,1.4,2,.7,3,.7,2,.1,3.9.2,5.9.4.4,1.1,1.3.8,2.1.6,1.7,0,3.3.2,5,.3.7,1.5,2,.7,3,.7,1.6.1,3.3.2,4.9.3.4,1.1,1.2.8,2.1.7,1.7,0,3.3.2,5,.3.7,1.5,2,.7,3,.7,1.3,0,2.6.2,4,.3.4,1.1,1.2.9,2,.7,1.6.1,3.3.2,4.9.3.4,1.1,1.2.8,2,.7,1.6.1,3.3.2,4.9.3.4,1.1,1.3.8,2.1.7.3,0,.7,0,1,0,1.7,0,3.1,1.9,5,1.1.3,0,.7,0,1,0,1.7.4,3.3.7,5,1.1,3.3.4,6.6.9,9.9,1.3.4,1.1,1.2.9,2,.7,3,.4,6,.8,9,1.3.4,1.2,1.2.9,2,.7,3.2.4,6.5.8,9.7,1.3.2.6.5.9,1.2.7,1,.1,2,.2,3,.3.4,1.2,1.2.9,2,.7.3,0,.7,0,1,0,1.5-.2,2.4,1.8,4,1,5.7,1.1,11.3,2.1,17,3.2.3,1.2,1.2.9,2,.8,4,.7,7.9,1.5,11.9,2.2.1.6.3,1,1.1.7,2.7,0,5.1,2,7.9,1.3.1.6.4,1,1.1.7,1,.1,1.9.2,2.9.3.1.6.4,1,1.1.7,1,.1,2,.2,2.9.3.1.6.3,1,1,.7,2.3.4,4.7.9,7,1.3.3,1.2,1.2.9,2,.8.6,0,1.3.1,1.9.2.2.5.4,1,1.1.6,1,.1,2,.2,3,.3.1.6.3,1,1,.7,1,.1,2,.2,3,.3.1.6.3,1,1,.7,1,.1,2,.2,2.9.3.1.6.4,1,1.1.7,1,.1,1.9.2,2.9.3.1.6.4,1,1.1.8.3,0,.7,0,1,0,.9.5,1.7,1.7,3,.7,2,.3,3.7,1.9,5.9,1.5.1.6.4,1,1.1.8,2,.4,3.9.8,5.9,1.2.1.6.4,1,1.1.8l5.9,1.2c.1.6.4,1,1.1.8,1.9.4,3.9.8,5.8,1.2.2.6.5,1,1.2.8.6,0,1.3.1,1.9.2.1.6.4,1,1.1.8,4.9,1.4,9.9,2.8,14.8,4.2.1.6.5,1,1.1.8.6,0,1.2.1,1.9.2.1.6.4,1,1.1.8,5.3,1.7,10.6,3.4,15.9,5.2,0,.6.3,1,1,.8l1.9.2c.1.6.4,1,1.1.8,2.3.7,4.6,1.5,7,2.2,0,.6.3,1,1,.8l6.9,2.2c.1.6.4,1,1.1.7,1.3.4,2.6.9,3.9,1.3.1.6.4,1,1.1.7,4,1.8,8,3.5,12,5.3.4,1.1,1.1,1,2,.7.3,0,.6.2.9.3.1.6.3,1,1,.7,6.3,3.1,12.7,6.2,19,9.2,0,.6.3,1,1,.8.3.1.6.2,1,.3,0,.6.3,1,1,.8.3.1.6.2.9.2.1.6.4,1,1.1.8,1.3.7,2.6,1.5,4,2.2,0,.6.3,1,1,.8.7.4,1.4.8,2,1.2,0,.6.3,1,1,.8,3.7,2.4,7.4,4.8,11,7.2,0,.6.3,1,1,.8.7.4,1.3.8,2,1.2.4,2.3,1.8,3.5,4,4,2.1,4.5,5.8,8.1,7.2,13-.2.7.2,1,.8,1.1.1,1,.2,2,.4,2.9-.4.7.1.9.7,1,0,1,.1,2,.2,3-.2.8-.4,1.7.8,2,0,3,0,6,0,8.9-1.9,1.8-.6,4-.8,6-.1,1.6-.2,3.3-.3,4.9-1.6,1.1-.6,2.7-.7,4.1-.3,2.4-.7,4.8,2.8,5.1.4,1.1,1.2.8,2.1.7,1,.1,2,.2,2.9.3.5,1.2,1.3.7,2.1.5,3.6,1.1,7.3,2.3,10.9,3.4.1.6.4,1,1.1.7,2.1.4,3.7,2.3,5.9,2.3.1.6.3,1,1,.7,2,.8,4,1.5,5.9,2.3.1.6.4,1,1.1.7l1,.2c0,.6.3,1,1,.8,1.3.4,2.6.8,3.9,1.2.1.6.4,1,1.1.7,2.6,1.1,5.3,2.2,7.9,3.3.1.6.4,1,1.1.8.3.1.6.2.9.2.1.6.4,1,1.1.8,3.3,1.7,6.6,3.5,10,5.2,0,.6.3,1,1,.8,1.3.7,2.7,1.5,4,2.2,0,.6.3,1,1,.8,1.7,1.1,3.3,2.1,5,3.2,0,.6.3,1,1,.8,4,3.7,9.1,6.2,12.4,10.8,1,1.4,1.8,2.7,1.9,4.4-.3.7.1.9.7,1.1.7,4.3-.7,8.5-1,12.7-.6.2-1,.4-.7,1.1-.1,1-.3,2-.4,3-1.7,1.5-.6,3.3-.7,5-.1,1.3-.2,2.6-.3,3.9-1.6,1.2-.7,2.7-.5,4.1-.1,1-.3,2-.4,3-1.8,1.4-.7,3.3-.8,5-.4,3.6-.9,7.3-1.3,10.9-1.5.7-.8,2-.7,3l-1.4,11.9c-1.1.4-.8,1.3-.6,2.1-.1,2-.2,3.9-.4,5.9-1.1.4-.8,1.3-.6,2.1-.1,2.3-.2,4.6-.3,6.9-1.4.7-.7,2-.7,3-.1,2.6-.3,5.3-.4,7.9-1,.4-.8,1.3-.6,2.1-.1,2.3-.2,4.6-.3,6.9-1.6,1.1-.6,2.7-.7,4.1-.4,16.6-.4,33.3,0,49.9,0,1.7-1,3.6.7,5.1.1,3.3.2,6.6.3,9.9.1,1.7-1,3.6.7,5,0,2.3.2,4.6.3,6.9,0,1.1-.7,2.3.7,3.1.4,5.3.9,10.6,1.3,15.9,0,1.1-.8,2.3.7,3,.4,4.6.9,9.3,1.3,13.9,0,1.1-.8,2.3.7,3,0,2,.2,4,.3,5.9,0,1.1-.7,2.3.7,3.1.1,2.3.2,4.6.3,6.9,0,1.7-1,3.6.7,5,0,3,.2,6,.3,8.9,0,1.4-.9,2.9.7,4.1.1,2.6.2,5.3.3,7.9,0,1.7-1,3.6.7,5,0,1,.2,2,.3,2.9,0,1.4-.9,2.9.7,4.1.1,1,.3,1.9.4,2.9-.1,1.1-.7,2.3.6,3.1.2,1,.3,1.9.5,2.9,0,2.3,0,4.7,0,7-.2,2.1-1.7,3.2-3.2,4.3-2.4.9-4.6-2.7-7-.3h-.4c0,0-.4,0-.4,0-1.1-3-3.4-3.4-6.1-2.7-12-5.1-24-10.2-36-15.3-1.1-1.1-2.4-1.9-4-1.9,0,0,0,0,0,0-.1-.3-.3-.5-.4-.8-.1.3-.3.5-.4.8-5.1-1.7-10.3-3.4-15-6-.4-1.1-1.2-1-2-.7-8-1-15.5-4.1-23.3-6.1-15.7-4.2-31.5-8.2-47.2-12.2-2.8-.7-5.4-2.3-8.5-1.8-1.5-2-3.8-1.8-5.9-2-2.7-2-5.9-2.8-9-3.8-.9-.6-1.7-1.4-2.9-1-2.6-1.3-5.2-2.6-7.7-4-5.6-3.2-6.5-5.8-5.3-14.1,1.3-.7,1.4-1.3,0-2v-1.9c.5-.2,1-.4.8-1.1.7-6.3,1.4-12.7,2.1-19,.3-.8-.3-.9-.9-1-15-5.5-30.6-9-46.1-12.8-17.6-4.3-35.2-8.3-52.9-11.9-22.8-4.7-45.8-8.8-68.7-13.1-14.9-2.8-29.9-5.4-44.9-8.1-1.3-.7-2.4-2.8-4.3-.9l-4-.9c-.6-1.4-1.2-1.5-2-.1-1.8.3-3.1-1.6-5-1l-.3-.7-.7.7c-7.2-1.1-14.4-2.1-21.6-3.2-8.7-1.3-17.4-2.5-26-3.8-9-1.3-18-3.1-27.1-3.8-6.9-.5-13.7-1.2-20.5-2.2-17.5-2.5-35.1-2.8-52.6-3.6-14-.6-28.1.2-42.1,1.5-6.2.6-12.5.8-18.8,1.2-.7-.2-.9.2-1.1.8-2.6,0-5.3.1-7.9.2-.8-.2-1.7-.4-2,.7l-7,.3c-.8-.2-1.7-.4-2,.7-7.3.8-14.6,1.5-21.9,2.3-.8-.2-1.7-.4-2,.8-1.7.3-3.4.2-5-.7-1.6-.5-2.4.5-3.1,1.7-5.6.8-11.3,1.6-16.9,2.4-.8-.3-1.7-.5-2,.7-3.6.4-7.3.8-10.9,1.3-4.9-.3-9.7,0-14.1,2.6-1.6.1-3.3.3-4.9.4-.7-.2-.9.2-1.1.8-5.6.7-11.3,1.5-16.9,2.2-.7-.2-.9.2-1.1.8-1.3,0-2.6.2-3.9.3-.8-.2-1.6-.5-2.1.5-14.5,2.7-29,5.4-43.6,7.9-13.5,2.3-26.6,6.1-40.2,7.5-.7-.2-.9.2-1.1.8-13.9,2-27.5,5.4-41.2,8.3-22.6,4.7-44.9,10.7-67.3,16.7-2.2.6-4.3,1.3-6.4,2-1.3.5-2.4,1.2-1.5,2.9-.2.8-.7,1.6.6,2,0,2.3.2,4.6.3,6.9-.2.8-.4,1.7.7,2,.1,1.6.2,3.3.3,4.9,0,1.4-.9,2.9.8,4l.2,1c-.2.8-.4,1.6.6,2.1,1.3,9-1.6,12.8-12.7,17.1-.7-.3-.9.1-1.1.7-2,.8-4,1.5-5.9,2.3-.7-.3-1,.1-1.1.7Zm937.9-109.8c0-1.3,0-2.7,0-4,0-10-1-20.2.6-30,1.7-10.9,2.2-21.8,3.6-32.7,1.6-12.3,4.1-24.3,5.9-36.6,1.3-8.6,3.8-17,3.2-25.8-.1-2-.4-3.4-2.4-4.9-8.4-6.6-17.5-11.8-26.9-16.7-8.1-4.2-16.4-8.2-24.9-11.4-6.2-2.4-11.9-6.2-18.8-6.7-2.7-1-6.4-2.8-6.8,1.7-1.9,17.1-6.6,33.7-8.2,50.8-1.5,14.8-5.4,29.3-7.2,44.2-1.5,12.7-1.7,25.3-1.4,38-.1,1.3-.3,2.6-.3,3.9-.3,22.9-.4,45.8,1,68.6.7,10.9.6,21.9.9,32.9.1,5.3-.7,10.5-2,15.6-1.1,4.1-3.2,8.4-8,8.6-7.5.4-15,.5-22.5-.5-8.2-1.1-16.5.5-24.8-1,5.3,2.9,10.7,4.7,16.4,6.3,18.9,5.3,38.1,9.4,57,15,15.9,4.8,31.8,9.4,47,15.9,9.5,4.1,19,8.1,27.8,13.5,1.2.8,2.3,2.6,3.7,1.5,1.2-.9.3-2.7,0-4.2-1.8-9.5-2.4-19.1-3.3-28.7-.5-5.5,0-11.4-2.4-16.7,0-1.7,0-3.3,0-5,.2-.2.5-.4.7-.6-.2-.1-.5-.2-.7-.3-3.3-28.5-7-57-7.2-85.8.3-1.7.4-3.4-.1-5ZM18.4,460.6c-2.6,3.7-.8,8.1-1.7,12.1-1.3,6.1-1.6,12.4-2.4,19.2,1.1-.5,1.6-.8,2.2-1.1,17.1-8.4,34.6-15.9,52.5-22.2,26.2-9.1,53.3-15,80.1-22.1,5.7-1.5,11.7-2.3,17.8-6.8-2.6,0-3.7-.1-4.8,0-13.6,2-27.3,2.2-41,2-1.8,0-3.5.3-5-1.4-3.3-4-6-8-6.2-13.5-.7-16.3,1.2-32.7-.3-49,0-1.6.2-3.3.3-4.9,1.6-.7,1-1.9.7-3.1.6-18.7,1.8-37.4,1-56.2-.3-8.1-.3-16.3-.9-24.3-.5-6.5-1.6-12.9-2.6-19.4-1.4-8.8-3.6-17.6-4.1-26.4-.6-10-3.2-19.5-4.8-29.3-1.5-9-3-17.9-4.5-26.9.3-1.8-.9-3.3-1-5.2-.2-5.9-1.5-6.7-7.2-5.1-8.8,2.4-17,6.5-25.4,10-15.6,6.6-30.8,13.8-44.1,24.4-2.2,1.7-3,3.4-3.2,6.1-.6,7.3,1.1,14.4,2.5,21.4,2.7,13.4,4.3,26.9,6.7,40.3,1,5.3-.6,10.9,2,15.9,0,2.5-.5,5,0,7.4,2.2,12.3,2.2,24.8,2.7,37.3.3,7.2-.4,14.5-.8,21.8-.9,13.7-1.6,27.5-3,41.2-.7,6.6-1.3,13.3-2.1,20-1.6,12.6-3.8,25.2-3.6,38Zm989.6-197.6c1-4.8,2-9.5,2.9-14.3,1.6-9.1,3.8-18.1,4.3-27.4.5-8.8,1.8-17.5,4.1-25.9,2-7.6,3.2-15.1,4-22.9.9-9.6,2-19.1,3.7-28.6,1.6-8.8-2.3-22.5-8.8-26.9-15.1-10.3-31.1-19-47.9-26-26.1-10.8-52.7-20.1-79.8-28.1-28.3-8.4-56.9-15.6-85.9-21.6-21.6-4.5-43.2-8.4-65-12.1-17.3-3-34.8-5.3-52.2-7.6-15.4-2.1-30.9-3.7-46.4-5-16.4-1.4-32.9-2.6-49.4-3-25.7-.5-51.5-.3-77.2.9-.5,0-1,0-1.5,0-13.8,2.5-27.8,2.1-41.6,3.8-8.1,1-16.3,1.8-24.5,2.4-10.7.8-21.3,3.4-32,4.7-15.6,1.8-31,4.6-46.4,7.3-18.2,3.2-36.2,7-54.3,10.8-19.7,4.2-39.4,9-58.8,14.5-23.3,6.6-46.3,13.6-69,22.2-23.4,8.9-46.2,19-67.7,32-11,6.7-16.1,15.9-16,28.7,0,4.7,1.9,8.9,2.2,13.5.6,9.1,1.9,18.2,3.5,27.1,1.7,9.9,3,19.8,4.5,29.8,1.3,8.2,3,16.3,3.8,24.5.8,8.8,3.5,17.2,4.4,25.9.6,6.1.8,12.3,2.9,18.2.4,8.6.8,17.1,1.2,25.7,1.5,29.3-1.2,58.4-1.7,87.7-.1,8.1-.5,16.3-.7,24.4,0,2.3,0,4.1,3.2,2.3,12.9-6.9,25.9-13.3,40.1-17.3,8.6-2.4,16.9-5.7,25.5-8.1,22.6-6.5,45.4-11.9,68.3-17.5,15.7-3.8,31.6-7.1,47.4-10.3,15.2-3.1,30.5-5.8,45.7-8.6,10.4-1.9,20.9-3.6,31.3-5.4,9.8-1.7,19.9-2.7,29.6-4.5,11.6-2.2,23.2-3.3,34.8-5.3,12.6-2.2,25.3-3.2,37.9-5.2,13.3-2.1,26.9-3.1,40.2-3.4,17.8-.4,35.6-2.3,53.6-.9,15.3,1.1,30.6,1.9,46,2.5,4.7.2,9.4.6,14.1,1.5,5.6,1.1,11.3,1.5,17,2.3,8.8,1.1,17.5,2.2,26.3,3.5,6.7,1,13.3,2.9,20,3.4,4.6.3,9.2.7,13.7,1.4,16.7,2.6,33.4,5.9,50.1,8.7,20.3,3.5,40.6,7.4,60.8,11.8,18.4,4,36.8,7.9,55.1,12.3,23.9,5.7,47.8,11.4,71.1,19,13.1,4.2,26.4,8.2,38.6,14.7,4.4,2.3,8.6,5,13.6,7.5,0-2.2,0-3.8,0-5.4.2-15.9-1.3-31.7-1.8-47.5-.8-24.2-.1-48.5,0-72.8,0-3.9,0-7.9.2-11.8.2-7.3,4.3-14,2.4-21.5Zm-19.1,165c.2-1.1-.6-1.5-1.3-1.9-7.7-4.8-16.7-6.7-24.8-10.7-1.6-.8-2.1.1-2.5,1.3-.6,2-1.5,4.1-1.4,6.1,0,1.9-.5,4.3,3.7,4.2,8.6-.4,17.3.6,26.2,1.1Zm-819.9-13.7c-9.6,4.9-19.1,7.7-28,13.3,9.9.9,19-1.4,28.1-.9,1.5,0,1.8-.5,1.4-2.1-.7-3.2-1.8-6.3-1.5-10.3Z"/>
        <path class="cls-5" d="m1008,263.1c1.9,7.4-2.2,14.2-2.4,21.5-.1,3.9-.2,7.9-.2,11.8-.1,24.3-.8,48.6,0,72.8.5,15.8,2,31.6,1.8,47.5,0,1.6,0,3.2,0,5.4-5-2.6-9.2-5.2-13.6-7.5-12.2-6.5-25.5-10.5-38.6-14.7-23.4-7.5-47.3-13.3-71.1-19-18.3-4.3-36.7-8.3-55.1-12.3-20.2-4.4-40.4-8.3-60.8-11.8-16.7-2.9-33.3-6.1-50.1-8.7-4.5-.7-9.1-1.1-13.7-1.4-6.7-.5-13.3-2.4-20-3.4-8.7-1.3-17.5-2.3-26.3-3.5-5.7-.7-11.4-1.2-17-2.3-4.7-.9-9.4-1.3-14.1-1.5-15.3-.6-30.7-1.4-46-2.5-18-1.3-35.8.6-53.6.9-13.3.3-26.9,1.3-40.2,3.4-12.6,2-25.4,3-37.9,5.2-11.6,2-23.2,3.1-34.8,5.3-9.7,1.8-19.8,2.9-29.6,4.5-10.4,1.8-20.9,3.5-31.3,5.4-15.3,2.8-30.5,5.5-45.7,8.6-15.8,3.2-31.7,6.5-47.4,10.3-22.8,5.5-45.7,11-68.3,17.5-8.6,2.4-16.9,5.7-25.5,8.1-14.2,4-27.2,10.4-40.1,17.3-3.3,1.8-3.3,0-3.2-2.3.2-8.1.6-16.3.7-24.4.4-29.2,3.2-58.4,1.7-87.7-.4-8.6-.8-17.1-1.2-25.7,2.5-.5,1.7-2.5,1.8-4,.5-9.5-.7-18.9-2.3-28.1-3.3-18.4-3.6-37.1-6.7-55.5-.6-3.7.5-8.1-1.2-10.9-2.4-4.2-2.4-8.9-2.2-12.5.4-6-1.5-12,.2-18.1,1-3.6,1.8-7.9,1.3-11.4-.7-5.9,1.6-8.9,6-11.8,31.4-21.1,65.5-36.4,101-49,38.5-13.6,77.9-23.7,118-31.5,23.5-4.6,47.2-8.3,70.9-11.4,20-2.7,40.1-4.5,60.2-6,20-1.5,40-2.8,60.1-2.9,22.9-.2,45.8-.6,68.8.6,19.2,1,38.4,1.8,57.6,3.1,15.7,1,31.3,2.5,46.9,4.4,21.9,2.7,43.9,5.8,65.6,9.8,36.2,6.6,71.9,14.9,107,25.8,44.6,13.9,87.3,31.7,127.3,56,6,3.6,9.5,8,10.7,14.5,2.4,13.2.7,26.4-.4,39.6-.2,2.4.7,4.7-.2,7.3-2.6,7.8-3.9,16-4.8,24.2-1,8.7-2.7,17.3-3.2,26.1-.5,8.5.7,16.7,1.4,25Z"/>
        <path class="cls-5" d="m110.1,372.9c0,1.6-.2,3.3-.3,4.9-3.4,2.6-2.1,6.7-2.6,10-2.9,18-6.3,35.8-12.3,53.1-.8,2.4-2.2,4.2-4.9,5.1-20,6.3-39.1,14.7-58.3,23-2.8,1.2-4.9.7-7.2-1.2-2.5-2-3-5.5-6-7-.2-12.8,2-25.3,3.6-38,.8-6.6,1.4-13.3,2.1-20,1.4-13.7,2.1-27.4,3-41.2.5-7.2,1.1-14.5.8-21.8-.5-12.4-.6-24.9-2.7-37.3-.4-2.4,0-5,0-7.4,1.1-.2,1.8-.8,1.8-2,0-1.3,0-2.7,0-4,.9-19.2-1.8-38.3-1.9-57.4,0-4.8.4-9.9,4.4-13.2,6.1-5,12.3-10.1,19.7-13.3,15-6.5,30.1-12.8,45.7-17.9,1.5,9,3.1,17.9,4.5,26.9,1.6,9.8,4.2,19.3,4.8,29.3.6,8.9,2.8,17.6,4.1,26.4,1,6.4,2.1,12.9,2.6,19.4.6,8.1.5,16.2.9,24.3.8,18.8-.5,37.5-1,56.2-2.1.6-2.2,1.7-.7,3.1Z"/>
        <path class="cls-5" d="m1110.1,437.7c0,1.7,0,3.3,0,5-1.5,3-1.9,6.2-2,9.5,0,6.1-1.9,11.7-4.8,17-1.5,2.7-3.2,3.9-6.4,2.5-3.6-1.6-7.4-2.9-11.2-4.1-15.8-4.9-31.6-9.8-47.6-14.4-4.3-1.2-6.4-3.6-6.8-7.8-.4-3.3-.7-6.6-1.1-9.8-1.7-14.9-3-29.9-4.1-44.9-1.6-20.6-3.6-41.2-3.9-61.9,0-4.9-.7-9.9-1-14.8,0-1.1-.6-1.9-1.7-2.1-.3-12.7-.1-25.3,1.4-38,1.8-14.9,5.8-29.4,7.2-44.2,1.7-17.1,6.4-33.7,8.2-50.8.5-4.5,4.1-2.7,6.8-1.7.6,3.3,3.2,4.8,5.7,6.4,9.1,5.9,19,10.2,28.5,15.1,3.3,1.7,6.3,4.1,9.8,5.3,6.8,2.4,11.3,6.9,14.1,13.5,2.9,6.9,1.5,13.9.8,20.8-.5,5-1.1,10.1-1.4,15-.6,8.8-2.3,17.4-3.6,26-1.1,7.2-2.3,14.5-1.7,21.7.6,6.2.4,12.5,1.7,18.7,1.9,9,2,18.3,4.9,27.1.3,1.3-.3,2.9.9,4,.2,28.8,3.8,57.3,7.2,85.8,0,.3,0,.6,0,1Z"/>
        <path class="cls-3" d="m1008,263.1c-.7-8.3-1.9-16.6-1.4-25,.5-8.8,2.3-17.4,3.2-26.1.9-8.2,2.2-16.4,4.8-24.2.9-2.6,0-4.8.2-7.3,1.1-13.2,2.8-26.4.4-39.6-1.2-6.5-4.8-10.9-10.7-14.5-40-24.2-82.8-42.1-127.3-56-35.1-10.9-70.9-19.2-107-25.8-21.8-4-43.7-7.1-65.6-9.8-15.6-1.9-31.2-3.3-46.9-4.4-19.2-1.3-38.4-2.1-57.6-3.1-23-1.2-45.9-.8-68.8-.6-20,.2-40.1,1.4-60.1,2.9-20.1,1.5-40.2,3.4-60.2,6-23.7,3.2-47.4,6.8-70.9,11.4-40.1,7.8-79.5,17.9-118,31.5-35.5,12.6-69.6,27.9-101,49-4.4,2.9-6.7,5.9-6,11.8.4,3.5-.3,7.8-1.3,11.4-1.7,6.1.2,12.1-.2,18.1-.2,3.6-.3,8.4,2.2,12.5,1.7,2.9.6,7.2,1.2,10.9,3.1,18.4,3.4,37.1,6.7,55.5,1.6,9.2,2.9,18.7,2.3,28.1,0,1.5.6,3.5-1.8,4-2.1-5.9-2.3-12.2-2.9-18.2-.9-8.8-3.6-17.2-4.4-25.9-.8-8.2-2.5-16.3-3.8-24.5-1.5-9.9-2.8-19.9-4.5-29.8-1.5-8.9-2.9-18-3.5-27.1-.3-4.6-2.1-8.8-2.2-13.5-.2-12.8,4.9-22,16-28.7,21.5-13,44.3-23,67.7-32,22.6-8.6,45.7-15.7,69-22.2,19.4-5.5,39-10.3,58.8-14.5,18-3.8,36.1-7.7,54.3-10.8,15.4-2.7,30.8-5.5,46.4-7.3,10.7-1.3,21.2-3.9,32-4.7,8.2-.6,16.4-1.4,24.5-2.4,13.9-1.7,27.9-1.3,41.6-3.8.5,0,1,0,1.5,0,25.7-1.2,51.5-1.4,77.2-.9,16.5.3,32.9,1.6,49.4,3,15.5,1.3,31,2.9,46.4,5,17.4,2.3,34.8,4.7,52.2,7.6,21.7,3.7,43.4,7.6,65,12.1,28.9,6,57.5,13.2,85.9,21.6,27.1,8,53.7,17.4,79.8,28.1,16.9,7,32.9,15.7,47.9,26,6.5,4.4,10.4,18.1,8.8,26.9-1.7,9.4-2.8,19-3.7,28.6-.7,7.8-2,15.3-4,22.9-2.2,8.4-3.6,17.1-4.1,25.9-.5,9.3-2.7,18.3-4.3,27.4-.9,4.8-1.9,9.5-2.9,14.3Z"/>
        <path class="cls-1" d="m18.4,460.6c3,1.5,3.5,5,6,7,2.4,2,4.5,2.5,7.2,1.2,19.2-8.3,38.3-16.7,58.3-23,2.8-.9,4.1-2.7,4.9-5.1,6-17.2,9.4-35.1,12.3-53.1.5-3.3-.8-7.3,2.6-10,1.5,16.3-.4,32.7.3,49,.2,5.5,2.9,9.5,6.2,13.5,1.5,1.7,3.2,1.4,5,1.4,13.7.2,27.4,0,41-2,1.1-.2,2.2,0,4.8,0-6.1,4.5-12.2,5.4-17.8,6.8-26.8,7-53.9,13-80.1,22.1-18,6.2-35.4,13.8-52.5,22.2-.6.3-1.1.6-2.2,1.1.8-6.7,1.1-13.1,2.4-19.2.9-4-.9-8.4,1.7-12.1Z"/>
        <path class="cls-1" d="m1019.4,311.9c1.2.2,1.6,1,1.7,2.1.3,4.9.9,9.9,1,14.8.3,20.7,2.4,41.3,3.9,61.9,1.1,15,2.4,30,4.1,44.9.4,3.3.8,6.6,1.1,9.8.5,4.2,2.5,6.6,6.8,7.8,15.9,4.6,31.7,9.5,47.6,14.4,3.8,1.2,7.6,2.5,11.2,4.1,3.2,1.4,4.9.2,6.4-2.5,2.9-5.3,4.8-10.9,4.8-17,0-3.3.5-6.5,2-9.5,2.5,5.3,1.9,11.2,2.4,16.7.9,9.6,1.6,19.2,3.3,28.7.3,1.5,1.2,3.3,0,4.2-1.4,1.1-2.5-.7-3.7-1.5-8.8-5.4-18.3-9.4-27.8-13.5-15.3-6.5-31.1-11.2-47-15.9-18.9-5.6-38.1-9.8-57-15-5.6-1.6-11.1-3.4-16.4-6.3,8.3,1.5,16.6,0,24.8,1,7.5,1,15,.9,22.5.5,4.7-.2,6.9-4.5,8-8.6,1.4-5.1,2.1-10.3,2-15.6-.2-11-.2-21.9-.9-32.9-1.4-22.9-1.3-45.7-1-68.6,0-1.3.2-2.6.3-3.9Z"/>
        <path class="cls-3" d="m1102,346.9c-3-8.8-3.1-18.1-4.9-27.1-1.3-6.2-1.1-12.5-1.7-18.7-.7-7.2.5-14.5,1.7-21.7,1.4-8.6,3.1-17.2,3.6-26,.3-4.9.9-10,1.4-15,.7-6.9,2.1-13.9-.8-20.8-2.8-6.6-7.3-11.1-14.1-13.5-3.5-1.2-6.5-3.6-9.8-5.3-9.6-4.9-19.5-9.2-28.5-15.1-2.5-1.6-5.1-3.1-5.7-6.4,6.9.5,12.6,4.3,18.8,6.7,8.5,3.3,16.8,7.3,24.9,11.4,9.4,4.8,18.6,10.1,26.9,16.7,1.9,1.5,2.2,2.9,2.4,4.9.6,8.8-1.9,17.2-3.2,25.8-1.8,12.2-4.4,24.3-5.9,36.6-1.4,10.9-1.8,21.8-3.6,32.7-1.5,9.8-.5,20-.6,30,0,1.3,0,2.7,0,4-.3.3-.5.7-.8,1Z"/>
        <path class="cls-3" d="m94.9,187.3c-15.6,5-30.6,11.4-45.7,17.9-7.4,3.2-13.5,8.3-19.7,13.3-4,3.3-4.4,8.5-4.4,13.2.1,19.2,2.8,38.2,1.9,57.4,0,1.3,0,2.7,0,4,0,1.2-.7,1.8-1.8,2-2.6-5-1-10.6-2-15.9-2.5-13.4-4.1-26.9-6.7-40.3-1.4-7-3.1-14.1-2.5-21.4.2-2.7,1-4.4,3.2-6.1,13.4-10.6,28.5-17.8,44.1-24.4,8.4-3.5,16.5-7.6,25.4-10,5.7-1.6,7-.8,7.2,5.1,0,1.9,1.2,3.4,1,5.2Z"/>
        <path class="cls-1" d="m988.9,428.1c-8.9-.4-17.6-1.4-26.2-1.1-4.3.2-3.7-2.2-3.7-4.2,0-2,.8-4.1,1.4-6.1.3-1.1.9-2,2.5-1.3,8.1,4,17.1,5.9,24.8,10.7.7.4,1.5.8,1.3,1.9Z"/>
        <path class="cls-1" d="m168.9,414.4c-.3,4.1.9,7.2,1.5,10.3.3,1.7.1,2.2-1.4,2.1-9.1-.6-18.2,1.8-28.1.9,8.9-5.6,18.5-8.4,28-13.3Z"/>
      </g>
      <g>
        <g>
          <path class="cls-2" d="m325.7,264.3c-6.2,0-10.8-1.9-13.7-5.6-1.6-2-2.8-4.2-3.5-6.4-.5-1.6-.9-3.8-1.4-6.7l-14.4-91c-.5-2.9-.7-5-.7-6.7,0-2.2.4-4.6,1.5-7.3v-.2c2.5-5.6,8.6-9.1,18.7-10.6,2.1-.3,4.1-.5,6-.5s3.1.1,4.5.3c3.6.6,6.1,1.4,7.9,2.8l1.5,1,.4.3c13.5,12.5,26.9,25.2,40,38,9.4-15,19.5-30.6,30.2-45.9,3.1-5.2,9.4-8.1,19.3-8.9,1.5-.1,3-.2,4.3-.2,7.9,0,13.4,2.2,16.3,6.7,1.6,2.3,2.6,4.5,3,6.8.3,1.6.6,3.8.8,6.7l6.7,91.9c1,13.6-4.7,18.9-9.7,20.9-2.7,1.1-6,1.8-9.9,2.1-1.5.1-2.9.2-4.2.2-2.1,0-3.9-.2-5.5-.5-2.8-.6-5.1-1.4-6.9-2.6-2.3-1.5-4.1-3.6-5.3-6.1-1.1-2.4-1.7-5.7-2.2-10.7l-3.2-34.9-3.2,5.3c-2.9,4.9-4.9,8.2-5.9,9.8l-2.6,4.2c-1,1.6-2.7,3.2-5.6,5.3-3,2.2-6.5,3.6-10.2,4-.9.1-1.8.2-2.6.2-2.8,0-5.4-.5-7.9-1.5-3.1-1.2-5.4-2.6-7.1-4.2h-.1c0-.1-1.6-1.7-1.6-1.7-2.4-2.3-6.7-6.6-13.1-13.1l-.9-.9,4.8,34.8c.4,2.8.6,5,.6,6.6,0,2.2-.5,4.5-1.5,7.1-3.3,8.5-14.2,10.1-17.7,10.6-2.2.3-4.2.5-6,.5Z"/>
          <path class="cls-6" d="m426.4,124c5.4,0,8.9,1.2,10.5,3.5,1.1,1.6,1.8,3,2,4.3.3,1.3.5,3.2.7,5.8,2.2,30.6,4.5,61.3,6.7,91.9.6,7.6-1.2,12.2-5.3,13.9-2.1.8-4.7,1.4-7.9,1.6-1.3.1-2.5.2-3.6.2-1.6,0-2.9-.1-4.1-.3-1.9-.4-3.4-.9-4.5-1.6-1.1-.7-2-1.7-2.6-3.1-.8-1.7-1.3-4.7-1.6-8.5-1.7-18.5-3.4-36.9-5.1-55.4-2.6,3.7-6.3,9.5-11,17.5-4.8,8-7.7,13-9,15-1.3,2-2.2,3.4-2.6,4.2-.5.8-1.8,1.9-3.8,3.4-2.1,1.5-4.4,2.4-6.9,2.7-.6,0-1.2.1-1.8.1-1.9,0-3.6-.3-5.3-1-2.2-.9-3.9-1.8-4.9-2.8-.6-.7-.9-1-1.6-1.6-2.6-2.5-7.8-7.8-15.7-15.8-7.9-8-12.3-12.3-13-12.9,2.6,18.5,5.1,36.9,7.7,55.4.4,2.5.5,4.4.5,5.7,0,1.3-.3,2.8-1,4.4-1.2,3.2-5.3,5.3-12.3,6.3-1.8.3-3.5.4-5,.4-4,0-6.7-1-8.2-2.9-1.1-1.4-1.9-2.7-2.2-4-.4-1.3-.8-3.2-1.2-5.9-4.8-30.3-9.6-60.7-14.4-91-.4-2.5-.6-4.4-.6-5.7,0-1.3.3-2.8,1-4.6,1.3-3.1,5.7-5.3,13.2-6.4,1.8-.3,3.4-.4,5-.4s2.4,0,3.5.3c2.4.4,4,.9,4.9,1.6.5.3.7.5,1.2.8,15.6,14.4,31,29.1,46.1,44,11.2-18,22.6-35.9,34.8-53.2,1.8-3.2,6.4-5.1,14-5.7,1.3-.1,2.6-.2,3.8-.2m0-14c-1.5,0-3.2,0-4.9.2-4.5.4-18.1,1.5-24.6,12.1-9.1,12.9-17.6,25.9-25.7,38.7-11.2-10.8-22.6-21.6-34-32.1l-.7-.7-.8-.6-1-.7c-2.8-2-6.2-3.3-10.9-4.1-1.8-.3-3.7-.4-5.6-.4s-4.6.2-7,.5c-4.7.7-19,2.8-24,14.8v.2c0,0-.2.2-.2.2-1.4,3.5-2,6.7-1.9,9.9,0,2,.3,4.4.8,7.7l14.4,91c.5,3.3,1,5.7,1.6,7.6.9,3.1,2.5,6,4.8,8.9,3,3.7,8.7,8.2,19.2,8.2s4.6-.2,7.1-.6c12.2-1.8,20-6.9,23.2-15,1.3-3.3,2-6.6,2-9.7,0-1.9-.2-4.3-.7-7.5l-2-14,.6.6.2.2.2.2c2.3,2.2,5.4,4.1,9.3,5.7,3.3,1.4,6.9,2,10.6,2s2.3,0,3.5-.2c5-.6,9.5-2.4,13.6-5.3,3.7-2.7,5.9-4.8,7.4-7.3l.6-1h0c0-.1,1.3,13.5,1.3,13.5.5,5.9,1.4,9.8,2.8,13,1.7,3.8,4.4,7,7.9,9.2,2.6,1.6,5.6,2.8,9.3,3.5,2.1.4,4.3.6,6.8.6s3.1,0,4.8-.2c4.7-.4,8.6-1.2,12-2.6,5.9-2.4,15.5-9.1,14.1-27.9l-3.4-46.7-3.3-45.1c-.2-3.2-.5-5.7-1-7.6-.7-3.1-2-6.2-4.1-9.3-4.3-6.5-11.7-9.7-22.1-9.7h0Z"/>
        </g>
        <g>
          <path class="cls-2" d="m478.3,249.1c-11.9,0-16.6-5.3-18.4-9.9-1.1-2.5-1.8-5.9-2.1-10.7l-5.7-92.1c-.5-7.8,1.1-13.4,4.7-17.1,3.5-3.5,9.1-5.4,17.4-5.9,23.6-1.1,47.4-1.9,71-2.2.5,0,.9,0,1.3,0,2.4,0,4.3,0,5.8.2,2.2.3,4.5,1,7,2.2,5.8,2.8,8.8,9.2,8.8,19.2,0,13.8-6.2,18.6-11.4,20.3-2.7.9-6.3,1.4-11.3,1.4-15.6.2-31.3.6-46.9,1.2v2.8c9.4-.3,18.6-.6,27.8-.9.8,0,1.6,0,2.3,0,1.9,0,3.4,0,4.6.2,2.2.2,4.5.9,7,2.2,5.7,2.7,8.7,9.1,8.8,19.1.2,13.8-5.9,18.7-11.1,20.4-2.7.9-6.2,1.4-11,1.5-8.8.2-17.7.5-26.5.8v2.8c15.3-.5,30.5-.9,45.6-1.1.4,0,.8,0,1.2,0,2.4,0,4.2,0,5.6.3,2.2.3,4.4,1,6.9,2.3,8.4,4.2,8.4,15.5,8.4,19.2,0,13.7-5.9,18.6-10.9,20.3-2.7.9-6.1,1.4-10.9,1.4-21.8.3-43.9,1-65.7,2.1-.8,0-1.6,0-2.4,0Z"/>
          <path class="cls-6" d="m546.4,118.3c2.2,0,3.8,0,5,.2,1.4.2,3,.7,4.8,1.6,3.2,1.5,4.8,5.9,4.9,12.9,0,7.7-2.2,12.3-6.5,13.6-2,.7-5.1,1-9.2,1.1-18.1.3-36.1.7-54.2,1.4.3,6.7.4,10.1.7,16.8,11.5-.5,23-.8,34.6-1.1.8,0,1.5,0,2.1,0,1.6,0,2.9,0,3.9.2,1.3.1,2.9.6,4.7,1.5,3.2,1.5,4.8,5.8,4.9,12.9,0,7.7-2,12.3-6.4,13.7-1.9.7-4.9,1.1-8.9,1.2-11.2.3-22.4.7-33.6,1.1.3,6.7.4,10.1.7,16.8,17.4-.7,34.9-1.1,52.3-1.4.4,0,.7,0,1.1,0,2.1,0,3.7,0,4.8.2,1.3.2,2.8.7,4.5,1.6,3.1,1.5,4.6,5.9,4.6,12.9,0,7.7-2.1,12.3-6.2,13.6-1.9.7-4.8,1-8.7,1.1-22,.3-44,1-66,2.1-.7,0-1.4,0-2.1,0-6.5,0-10.5-1.8-12-5.6-.8-1.7-1.3-4.5-1.5-8.4-1.9-30.7-3.8-61.4-5.7-92.1-.3-5.6.5-9.5,2.7-11.7,2.1-2.2,6.4-3.5,12.7-3.8,23.6-1.1,47.1-1.9,70.7-2.2.4,0,.8,0,1.2,0m0-14c-.4,0-.9,0-1.3,0-23.7.3-47.7,1.1-71.3,2.2-10.1.5-17.3,3.1-22,7.9-5,5.1-7.3,12.7-6.7,22.4l5.7,92.1c.3,5.5,1.2,9.6,2.6,12.9,2.2,5.5,8.4,14.2,24.9,14.2s1.8,0,2.8,0c21.7-1.1,43.7-1.7,65.5-2.1,5.5,0,9.6-.6,13-1.8,5.9-2,15.6-8.1,15.6-26.9,0-12.7-4.1-21.3-12.2-25.4-3.2-1.6-6.2-2.6-9.2-3-.5,0-1.1-.1-1.7-.2,2.4-4.1,4.1-9.8,4-17.6,0-5.2-.8-9.6-2.2-13.3-.6-1.7-1.4-3.1-2.2-4.4,2.8-.3,5.1-.8,7.2-1.4,6.1-2,16.2-8.1,16.2-27,0-16-6.9-22.7-12.8-25.5-3.3-1.6-6.3-2.5-9.3-2.9-1.7-.2-3.9-.3-6.6-.3h0Z"/>
        </g>
        <g>
          <path class="cls-2" d="m671.8,250.6c-1.1,0-2.2,0-3.4-.1-5.4-.4-8.9-1.1-11.4-2.2-2.8-1.3-5-3.2-6.8-5.8-9.7-14.4-21.9-32.3-35.4-50.8l-1,34.4c0,3-.2,5.2-.5,6.8-.3,2-1.2,4.2-2.5,6.6-4.3,7.7-14.8,7.7-18.3,7.7h0c-.3,0-.7,0-1,0-3.6,0-14.5-.3-18.7-8.5-1.2-2.4-2-4.7-2.3-6.9-.2-1.6-.3-3.8-.2-6.7l.8-92.6c0-5.5,1-9.7,2.8-12.7,2.1-3.5,5.3-5.9,9.3-7,2.7-.8,5.9-1.1,9.7-1.1s.7,0,1.1,0c4.3,0,7.7.5,10.5,1.4,3,.9,5.2,2.1,6.8,3.5.7.6,1.9,1.8,4.8,5.2v.2c.1,0,.3.2.3.2,12,16.2,23.6,32.4,35.3,48.8l2.1-36.1c.3-5.5,1.4-9.6,3.4-12.6,2.2-3.4,5.6-5.6,9.6-6.5,2.1-.5,4.5-.7,7.2-.7s2.2,0,3.4.1c4.1.3,7.3.9,10,1.8,3,1,5.2,2.2,6.9,3.7,1.9,1.7,3.2,4,4.1,7,.8,2.8,1,6.6.6,10.9l-7.1,91.9c-.2,3-.5,5.2-.8,6.7-.4,2-1.4,4.1-2.9,6.5-2.8,4.5-8.3,6.9-16.3,6.9Z"/>
          <path class="cls-6" d="m592.8,118.6c.3,0,.6,0,1,0,3.6,0,6.4.4,8.5,1.1,2.1.7,3.5,1.4,4.3,2.2.5.3,1.8,1.8,4,4.4,15.9,21.4,31.3,43.2,46.7,65,1.1-18.7,2.2-37.3,3.3-56,.2-4.2,1-7.2,2.2-9.1,1.2-1.9,3-3.1,5.3-3.6,1.6-.4,3.5-.5,5.6-.5s1.9,0,3,.1c3.4.2,6.1.7,8.2,1.4,2,.7,3.6,1.5,4.5,2.3,1,.8,1.6,2.1,2,3.6.5,1.8.7,4.7.4,8.5-2.4,30.6-4.7,61.2-7.1,91.9-.2,2.6-.4,4.6-.7,5.8-.3,1.2-.9,2.6-1.9,4.2-1.5,2.4-5,3.6-10.4,3.6s-1.9,0-2.9-.1c-4.3-.3-7.3-.8-8.9-1.6-1.6-.8-3-1.9-4-3.4-15.3-22.8-31-45.3-47.6-67.2-.5,18.2-1,36.4-1.5,54.6,0,2.7-.2,4.6-.4,5.8-.2,1.2-.8,2.6-1.7,4.3-1.6,2.8-5.6,4.2-12.2,4.2s-.6,0-.9,0c-6.9-.1-11.1-1.7-12.6-4.7-.9-1.7-1.4-3.2-1.5-4.5-.2-1.3-.2-3.3-.2-5.8.3-30.9.6-61.7.8-92.6,0-4.2.6-7.3,1.8-9.2,1.2-1.9,2.9-3.2,5.2-3.8,2.1-.6,4.7-.9,7.8-.9m0-14c-4.5,0-8.2.5-11.6,1.4-5.8,1.6-10.4,5.1-13.4,10.1-2.5,4.2-3.7,9.4-3.8,16.3l-.5,55.5-.3,37.1c0,3.2,0,5.6.3,7.6.4,3.1,1.3,6.1,3,9.3,4.1,7.9,12.4,12,24.8,12.2.4,0,.8,0,1.2,0,12,0,20.2-3.8,24.4-11.3,1.8-3.1,2.9-6,3.3-8.9.3-1.9.5-4.3.6-7.7l.4-13.7c8.6,12.3,16.5,23.8,23.2,33.7h0s0,0,0,0c2.4,3.6,5.7,6.3,9.6,8.2,3.4,1.6,7.5,2.4,14,2.9,1.3,0,2.7.1,3.9.1,10.5,0,18-3.4,22.2-10.2,1.9-3,3.2-5.9,3.8-8.7.4-1.9.7-4.3,1-7.7l7.1-91.9c.4-5.2.1-9.7-.9-13.3-1.2-4.3-3.3-7.8-6.2-10.4-2.4-2.1-5.4-3.8-9.3-5.1-3.3-1.1-7.1-1.8-11.8-2.1-1.3,0-2.6-.1-3.9-.1-3.2,0-6.1.3-8.7.9-5.8,1.3-10.6,4.6-13.9,9.5-2.7,4.1-4.2,9.2-4.6,16.1l-.9,16.2c-7.9-11-15.8-21.9-23.8-32.7l-.3-.3-.3-.3c-3-3.5-4.4-5.1-5.6-6-2.3-2.1-5.4-3.7-9.2-4.9-3.4-1.1-7.5-1.6-12.5-1.7-.4,0-.8,0-1.2,0h0Z"/>
        </g>
        <g>
          <path class="cls-2" d="m762.4,261.1c-2.7,0-5.4-.2-8.2-.5-9.5-1.2-18-4.2-25.4-9-7.4-4.8-13.3-10.8-17.6-17.8-8.6-13.5-12.6-29.6-11.1-45.3l4.4-49.7c.3-3,.6-5.2.9-6.8.5-2.2,1.5-4.3,3.2-6.7,1.5-2.1,4.4-4.9,9.5-5.9,1.7-.3,3.6-.5,5.8-.5s3.5,0,5.4.3c4.5.4,8.1,1.2,11,2.4,4.9,2,7.1,5.3,8.1,7.8,1.6,3.8,2.1,8.4,1.5,14l-5.3,49.5c-.6,5.5.2,10.8,2.5,16.2.9,2.1,2.3,3.8,4.4,5.3,2.2,1.6,5,2.6,8.4,3,1,.1,2,.2,3,.2,4.5,0,7.8-1.4,10.6-4.4,4-4.4,6.3-9.6,7.2-16l7-50.3c.8-5.8,2.3-9.8,4.8-12.5,2.5-2.8,5.9-4.6,9.9-5.1,1.3-.2,2.6-.3,4.1-.3s4.2.2,6.6.5c4,.6,7.2,1.4,9.8,2.6,2.7,1.2,4.8,2.5,6.4,4.1,1.9,1.9,3.2,4.4,3.7,7.6.5,2.9.4,6.7-.3,11l-7.8,49.5c-2.4,15.4-10.2,30.1-22,41.2-6,5.6-13.3,9.8-21.7,12.6-5.9,2-12.2,3-18.7,3Z"/>
          <path class="cls-6" d="m723.9,125.9c1.4,0,3,0,4.7.3,3.8.4,6.8,1,9,1.9,2.2.9,3.6,2.2,4.3,4,1.2,2.7,1.5,6.2,1,10.6-1.8,16.5-3.6,33-5.3,49.5-.7,6.7.3,13.3,3,19.7,1.4,3.3,3.6,6,6.8,8.3,3.2,2.3,7,3.7,11.7,4.2,1.3.2,2.6.2,3.8.2,6.4,0,11.7-2.2,15.8-6.7,4.9-5.4,7.9-11.9,9-19.7,2.3-16.8,4.7-33.5,7-50.3.6-4.3,1.6-7.2,3-8.8,1.4-1.6,3.3-2.6,5.7-2.9.9-.1,2-.2,3.1-.2,1.7,0,3.5.1,5.5.5,3.4.5,6,1.2,8,2,1.9.9,3.4,1.8,4.3,2.7.9.9,1.5,2.3,1.8,3.8.3,1.9.3,4.9-.3,8.7-2.6,16.5-5.2,33-7.8,49.5-2.2,14.3-9.5,27.3-19.9,37.2-5.3,4.9-11.7,8.6-19.1,11.1-5.2,1.8-10.7,2.6-16.4,2.6s-4.9-.2-7.4-.5c-8.4-1-15.9-3.7-22.5-7.9-6.6-4.3-11.7-9.5-15.5-15.6-7.8-12.2-11.4-26.6-10.1-41,1.5-16.6,2.9-33.2,4.4-49.8.2-2.6.5-4.6.8-5.8.3-1.3,1-2.7,2.1-4.2,1.1-1.6,2.8-2.6,5.1-3,1.3-.2,2.8-.4,4.5-.4m0-14c-2.6,0-5,.2-7.2.6-7.5,1.4-11.7,5.5-13.9,8.7-2.2,3.1-3.6,6.1-4.3,9.1-.4,1.9-.8,4.4-1.1,7.8l-3.8,42.8-.6,7c-1.6,17.2,2.7,34.8,12.2,49.6,4.9,7.8,11.5,14.5,19.7,19.9,8.3,5.4,17.9,8.8,28.4,10.1,3.1.4,6.1.6,9.1.6,7.2,0,14.2-1.1,20.9-3.3,9.3-3.1,17.5-7.9,24.2-14.1h0s0,0,0,0c12.9-12.2,21.5-28.3,24.1-45.2l7.8-49.5c.8-5.2.9-9.6.2-13.3-.8-4.6-2.7-8.4-5.7-11.3-2.2-2.1-5-3.9-8.5-5.5-3.1-1.4-6.9-2.4-11.6-3.1-2.7-.4-5.2-.6-7.6-.6s-3.5.1-5,.3c-5.6.8-10.5,3.3-14.1,7.4-3.4,3.8-5.5,9-6.5,16.2l-4.9,35.5-2.1,14.9c-.7,4.9-2.5,8.9-5.5,12.2-1.2,1.3-2.5,2.1-5.4,2.1s-1.4,0-2.1-.1c-2.3-.3-4-.9-5.2-1.7-1.3-1-1.8-1.8-2-2.3h0c0,0,0-.1,0-.1-1.8-4.3-2.5-8.4-2-12.7l2.7-24.8,2.7-24.8c.7-6.8,0-12.5-2-17.4-1.5-3.8-4.8-8.7-12-11.6-3.5-1.4-7.7-2.4-12.9-2.9-2.2-.2-4.2-.3-6.1-.3h0Z"/>
        </g>
      </g>
    </g>
  </g>
</svg>