<?xml version="1.0" encoding="UTF-8"?>
<svg id="Layer_2" data-name="Layer 2" xmlns="http://www.w3.org/2000/svg" width="1522.8" height="1520.7" viewBox="0 0 1522.8 1520.7">
  <defs>
    <style>
      .cls-1 {
        fill: #9660a6;
      }

      .cls-2 {
        fill: #3e0121;
      }

      .cls-3 {
        fill: #3d0020;
      }

      .cls-4 {
        fill: #e7bcfc;
      }

      .cls-5 {
        fill: #ffbbe1;
      }

      .cls-6 {
        fill: #d896bb;
      }

      .cls-7 {
        fill: #febe6d;
      }
    </style>
  </defs>
  <g id="Top">
    <g>
      <g>
        <path class="cls-3" d="m1522.7,799.7c-.1,4.5-.3,9-.3,13.5,0,184.7,0,369.4.1,554.1,0,11-.8,21.9-1.8,32.7-1.5,14.7-8.5,27.5-19.1,38.1-10.4,10.4-22.6,17.5-36.6,21.4-3.9,1.1-3.8,4.7-4.7,7.4-7.1,21-20.1,36.7-40.1,46.7-13,6.5-27.1,7-41,7-185.4.1-370.7,0-556.1,0-226.2,0-452.3,0-678.5,0-11.6,0-23.5.4-34.4-3.6-23.8-8.6-39.7-25.7-48-49.5-1.6-4.6-3.1-7.1-8.6-9-20.3-6.9-36.7-19.7-46.5-39.1-5.5-11-9.4-23-5.8-35.8.5-1.9.4-4,.4-6,0-189.5,0-379,0-568.6,0-26.8-.4-53.6-.3-80.4.8-184.9,0-369.7.3-554.6,0-16.4.7-32.9,1.8-49.3,1.4-20.9,12.2-37.8,29.1-50.6,8-6,16.9-10.6,26.5-13.2,2.7-.8,4.1-2,4.9-4.8,6-20.7,18.3-36.8,36.9-47.6C112.2,2.3,124.7,0,137.6,0c179.2,0,358.4,0,537.6,0,227,0,454,0,681,0,14,0,28,0,41.9,1.2,16.2,1.4,30.5,7.9,42.2,19.8,9.6,9.8,16.8,20.8,20.3,34.1,1,3.6,3.2,5.4,7,6.6,19.1,6,34.4,17.2,44.8,34.5,7.1,11.7,8.5,24.5,9,38,2.6,76.9.8,153.8,1,230.6.3,115.7,0,231.5,0,347.2,0,2.8.2,5.6.3,8.5-.4.2-.8.4-1.2.6l1.3.6c0,25.6,0,51.1,0,76.7-.6,0-1.2,0-1.1.8,0,.2.7.3,1.1.5Zm-14.6-81c.5-.3.9-.6.2-1.2,0-42.3,0-84.5,0-126.8,0-40.1.2-80.2.3-120.3.3.1.6.5.7-.2-.2,0-.5,0-.7,0,0-1.3-.1-2.7-.1-4,0-112.4,0-224.8-.1-337.2,0-5.9-.6-11.5-3-17.1-9.1-21.5-24.8-34.7-47.4-39.8-4.5-1-6.8-3.3-7.9-7.7-4.1-17.7-12.6-32.4-28.9-41.6-8-4.5-15.9-9.1-25.9-9.1-229.8.2-459.6.1-689.5.1-191,0-382,.1-573.1-.2-16.4,0-29.3,6.5-40.1,16.9-9.2,8.9-15.3,20.5-17.7,33.4-.9,4.8-3.3,7-8,8.1-16.2,3.7-29.9,11.6-39.7,25.3-7.3,10.2-11.8,21.3-11.8,34.3.1,226.8,0,453.6,0,680.5,0,192.2,0,384.4,0,576.6,0,3.2.3,6.3.4,9.5-1.1,7.1,1.1,13.4,4.6,19.3,9.8,16.4,24.4,26.3,42.8,30.6,3.2.8,6,1.9,7.9,4.6.3,1.1.6,2.2.8,3.4,0,4.5,1.9,8.4,3.6,12.3,10.6,25,31,38.4,58,38.4,198.3-.3,396.6.6,595-.3,27.5-.1,54.9.3,82.4.3,194.7,0,389.3,0,584,0,5.4,0,10.5-1,15.5-3,9.6-3.9,17.8-9.7,24.5-17.6,7.4-8.8,12.9-18.5,14.5-30.1,0-2.9,1.9-4.6,3.6-6.5,15.6-3.3,29.6-9.5,40.3-21.7,9.6-11,16.7-23.1,14.2-38.6.1-4.7.4-9.3.4-14,0-217.3-.1-434.7-.2-652,0-1.5,0-3,0-4.5Z"/>
        <path class="cls-1" d="m1522.7,721.8l-1.3-.6c.4-.2.8-.4,1.2-.6,0,.4,0,.8,0,1.3Z"/>
        <path class="cls-1" d="m1522.7,799.7c-.4-.2-1-.3-1.1-.5-.1-.7.5-.8,1.1-.8,0,.4,0,.8,0,1.3Z"/>
        <path class="cls-4" d="m16.2,1398.2c-.1-3.2-.4-6.3-.4-9.5,0-192.2,0-384.4,0-576.6,0-226.8,0-453.6,0-680.5,0-13,4.5-24.1,11.8-34.3,9.8-13.7,23.5-21.6,39.7-25.3,4.7-1.1,7.2-3.4,8-8.1,2.4-13,8.5-24.6,17.7-33.4,10.8-10.4,23.7-17,40.1-16.9,191,.3,382,.2,573.1.2,229.8,0,459.6,0,689.5-.1,10,0,17.9,4.5,25.9,9.1,16.3,9.2,24.8,23.9,28.9,41.6,1,4.5,3.4,6.7,7.9,7.7,22.6,5.1,38.3,18.3,47.4,39.8,2.4,5.7,3,11.2,3,17.1,0,112.4,0,224.8.1,337.2,0,1.3,0,2.7.1,4,0,0,0,.1,0,.1-.1,40.1-.2,80.2-.3,120.3,0,42.3,0,84.5,0,126.8,0,.4-.2.8-.2,1.2,0,1.5,0,3,0,4.5,0,217.3.1,434.7.2,652,0,4.7-.3,9.3-.4,14-3.3,3.3-3.9,8.1-5.7,12.1-7.5,17-19.6,28.8-37.8,33.8-8.3,2.3-10.9,5.6-11.2,14.5-1.6,1.9-3.6,3.7-3.6,6.5-2.1.1-2.4,2-3.4,3.3-4.2,6.1-6.9,13.2-12,18.8-13.1,14.4-30.1,19.8-48.8,19.8-172.6-.4-345.3.2-517.9-.6-240.1-1-480.2-.3-720.3-.3-3.8,0-7.6-.1-11.4-.9-24.9-4.9-46.1-15.5-60.6-37.3-.8-1.2-1.3-2.8-3.2-2.9-.3-1.1-.6-2.2-.8-3.4,1.5-4.8-.4-8.2-4.7-10.1-5.1-2.3-10.5-4.1-15.6-6.5-8.7-4.1-17.8-7.9-23.1-16.5-3.5-5.6-6.1-11.8-9-17.8-.7-1.4-.7-3.4-2.9-3.6Zm1036.3,88.7c108.2,0,216.4.1,324.6,0,14.6,0,26.7-6.6,37-16.4,10.1-9.7,15.4-22,17-36,.3-2.5,1.3-4.2,3.9-4.3,5.2-.2,10-2.2,14.8-3.8,14.9-4.9,25.3-14.7,32.5-28.5,3.6-6.9,3.5-14.6,6-21.7,1.5-1.9.8-4.2.8-6.3,0-100.7,0-201.4,0-302.1,0-1.8-.2-3.7-.2-5.5-.2-7.3-.5-14.6-.5-21.9,0-104.4-.3-208.8,0-313.2.2-89.7-.8-179.5.6-269.2,0-1.3.2-2.7.2-4,0-92.6,0-185.1,0-277.7,0-1.8.5-3.7-.8-5.3-.4-9.6-.7-19.2-1.3-28.8-1-15.1-6-28.3-18.3-38.3-9.5-7.7-20.4-11.7-32.2-13.6-3-.5-4.1-1.6-4.5-4.6-3.6-23.5-15.7-40.6-38.2-49.4-3.6-1.4-7.3-4.2-11.7-2.3-.6-.2-1.2-.7-1.8-.7-24.1,0-48.2.1-72.3.2-8.1.2-16.3.5-24.4.5-224,0-448,.3-672,.1-131.9,0-263.8.7-395.6-.7-21.8,0-43.5-.2-65.3-.2-.6,0-1.2.5-1.8.7-7.1-.7-13.6,1.6-20.1,4-19.5,7.2-30.4,22.1-34.5,41.8-1.6,7.4-4.1,10.2-11.7,11.8-22.3,4.6-37.6,18-43.9,40.3-2,7.1-2.1,14.8-3.1,22.3-1.3,2-.7,4.2-.7,6.3,0,97.7,0,195.4,0,293.1,0,2.2.2,4.3.2,6.5.2,5.1.5,10.3.5,15.4-.2,195,.8,390-.5,584.9,0,2.2-.2,4.3-.2,6.5,0,103.8,0,207.6,0,311.4,0,2.3,0,4.7.1,7,1.9,5.4,3.3,10.9,5.6,16.1,4.1,9.1,12.2,14.3,20.2,19.8,7.7,5.3,16,7.6,24.9,8.9,3.2.5,4,1.5,4.3,4.6,1.6,13.5,6.9,25.5,16.3,35.3,11.2,11.7,25.6,17,41.5,17,102.9.1,205.8,0,308.8,0,2.2,0,4.3.2,6.5.2,194.3,0,388.6,0,582.9,0,2.2,0,4.3-.1,6.5-.2Z"/>
        <path class="cls-6" d="m72.4,1456.1c1.8,0,2.3,1.6,3.2,2.9,14.4,21.8,35.7,32.4,60.6,37.3,3.8.8,7.6.9,11.4.9,240.1,0,480.2-.7,720.3.3,172.6.7,345.3.2,517.9.6,18.7,0,35.7-5.4,48.8-19.8,5.1-5.6,7.7-12.7,12-18.8.9-1.3,1.3-3.2,3.4-3.3-1.7,11.6-7.2,21.3-14.5,30.1-6.6,7.9-14.9,13.7-24.5,17.6-5,2-10.1,3-15.5,3-194.7,0-389.3,0-584,0-27.5,0-54.9-.5-82.4-.3-198.3.9-396.6,0-595,.3-27,0-47.4-13.4-58-38.4-1.7-3.9-3.6-7.8-3.6-12.3Z"/>
        <path class="cls-6" d="m1453.5,1449.6c.2-8.8,2.9-12.2,11.2-14.5,18.2-5,30.2-16.7,37.8-33.8,1.8-4.1,2.3-8.8,5.7-12.1,2.4,15.5-4.6,27.6-14.2,38.6-10.7,12.2-24.8,18.5-40.3,21.7Z"/>
        <path class="cls-6" d="m16.2,1398.2c2.2.2,2.2,2.1,2.9,3.6,2.9,6,5.5,12.1,9,17.8,5.3,8.7,14.5,12.4,23.1,16.5,5.1,2.4,10.4,4.2,15.6,6.5,4.4,2,6.2,5.3,4.7,10.1-1.9-2.7-4.7-3.8-7.9-4.6-18.4-4.3-33-14.3-42.8-30.6-3.5-5.9-5.8-12.2-4.6-19.3Z"/>
        <path class="cls-1" d="m1508.8,470.4s0-.1,0-.1c.2,0,.5,0,.7,0,0,.6-.4.3-.7.2Z"/>
        <path class="cls-1" d="m1508.2,718.7c0-.4.2-.8.2-1.2.7.6.2.9-.2,1.2Z"/>
        <path class="cls-1" d="m1488.9,457.9c-1.4,89.7-.4,179.5-.6,269.2-.2,104.4,0,208.8,0,313.2,0,7.3.4,14.6.5,21.9-1.3,2-.7,4.2-.7,6.3,0,80.6,0,161.1,0,241.7,0,22,0,43.9.1,65.9-2.5,7.1-2.4,14.8-6,21.7-7.1,13.9-17.6,23.7-32.5,28.5-4.9,1.6-9.6,3.6-14.8,3.8-2.6,0-3.6,1.9-3.9,4.3-1.5,13.9-6.8,26.3-17,36-10.3,9.8-22.4,16.4-37,16.4-108.2,0-216.4,0-324.6,0-1.7-1.2-3.5-.7-5.3-.7-195,0-390.1,0-585.1,0-1.8,0-3.7-.5-5.3.7-102.9,0-205.8.1-308.8,0-16,0-30.3-5.3-41.5-17-9.4-9.8-14.6-21.9-16.3-35.3-.4-3.1-1.1-4.1-4.3-4.6-8.8-1.3-17.2-3.6-24.9-8.9-8-5.5-16.1-10.7-20.2-19.8-2.3-5.2-3.8-10.7-5.6-16.1,1.5-1.6.8-3.5.8-5.3,0-104.6,0-209.2,0-313.8,0-1.9.6-4-.7-5.8,1.4-195,.3-390,.5-584.9,0-5.1-.3-10.3-.5-15.4,1.3-1.8.7-3.9.7-5.8,0-98.2,0-196.4,0-294.6,0-1.8-.1-3.6-.2-5.5,1-7.4,1.1-15.1,3.1-22.3,6.3-22.2,21.6-35.7,43.9-40.3,7.6-1.6,10.2-4.4,11.7-11.8,4.1-19.6,15-34.5,34.5-41.8,6.4-2.4,13-4.7,20.1-4,21.6,0,43.2.1,64.8.2.8,0,1.6-.4,2.3-.7,131.9,1.4,263.8.6,395.6.7,224,.1,448,0,672-.1,8.1,0,16.3-.3,24.4-.5.8.2,1.6.7,2.3.7,23.9,0,47.8,0,71.7-.2,4.4-1.9,8.1.9,11.7,2.3,22.5,8.8,34.6,25.9,38.2,49.4.5,3.1,1.5,4.1,4.5,4.6,11.8,1.9,22.7,5.9,32.2,13.6,12.2,10,17.2,23.2,18.3,38.3.7,9.6.9,19.2,1.3,28.8,0,1-.2,2-.2,3,0,93,0,186.1,0,279.1,0,1.6-.4,3.4.7,4.8Zm-14,14c0-1.8.2-3.6.2-5.5,0-107.5-.4-214.9.1-322.4,0-18.1-14.3-33.7-28.7-38.2-7.7-2.4-16.3-1.8-23.1-7-1.5-2-3.9-3.5-3.7-6.5,0-6.4-1.8-12.5-3.9-18.4-4.5-12.4-17.8-26.1-35.2-26.1-331.2.3-662.3.2-993.5.2-81.9,0-163.8,0-245.8,0-9.2,0-16.8,4.2-22.5,10.3-7.6,8.2-11.9,18.7-12.8,30.2-.6,7.3-7.3,13.9-14.1,14.5-5.9.5-11.5,2.1-16.8,4.3-13.6,5.5-23.5,15.8-24.6,30-1.6,21.8-.3,43.9-.2,65.9l-.3,69.7c-1.5,1.9-.8,4.2-.8,6.3,0,62.1,0,124.2,0,186.2,0,1.5.1,3,.2,4.5,0,2,0,4,0,6,0,126.4,0,252.8,0,379.1,0,65.4,0,130.9.1,196.3,0,1.2-.2,2.3-.2,3.5,0,106.9,0,213.7.1,320.6,0,1.6-.5,3.4.9,4.8-.3.6-.5,1.3-.8,1.9.3,8.3,2.3,15.9,8.3,22,8.1,8.3,18.6,12.1,29.6,13.7,5.4.8,9.2,3.1,12.9,6.3,1,4.3,2.1,8.6,3.1,12.9,1.9,8.3,4.8,16.2,10.4,22.7,5.2,6.1,11.2,11.6,19.7,12.2,6.9.5,13.9,0,20.9,0,3.9.1,7.8.2,11.8.3.8.3,1.5.8,2.3.8,22.6,0,45.2,0,67.8-.1,2.2,0,4.3,0,6.5,0,268.8,0,537.6.1,806.3.1,80.4,0,160.9-.1,241.3-.2,23.9,0,47.9.1,71.8.2.8,0,1.5-.5,2.3-.8,2-.2,3.9-.5,5.9-.7,9.3,1.5,18.5,1.6,27.2-2.3,3.8-1.7,8.6-3.2,10.4-7.3,1.5-3.3,3.3-6.4,5.1-9.6,1.6-2.8,3.3-5.8,3.1-9.3.9-2.6,2.2-5.2,2.6-7.9,1-6.6,3.2-12.5,8.7-16.7,12-1.6,23.5-4.1,33.5-11.6,8.2-6.2,13.2-14.1,13.1-24.7,0-.3.1-.6.2-.9,1.7-1.9.9-4.1.9-6.2,0-106.7.1-213.4.1-320.1,0-1.8-.1-3.7-.2-5.5,0-2,0-4,0-6,0-110.4.1-220.8,0-331.2,0-80.1-.1-160.2-.2-240.3Z"/>
        <path class="cls-6" d="m456.7,1486.9c1.7-1.2,3.5-.7,5.3-.7,195,0,390.1,0,585.1,0,1.8,0,3.7-.5,5.3.7-2.2,0-4.3.2-6.5.2-194.3,0-388.6,0-582.9,0-2.2,0-4.3-.1-6.5-.2Z"/>
        <path class="cls-6" d="m35.4,1060.3c1.3,1.8.7,3.9.7,5.8,0,104.6,0,209.2,0,313.8,0,1.8.6,3.7-.8,5.3,0-2.3-.1-4.7-.1-7,0-103.8,0-207.6,0-311.4,0-2.2.2-4.3.2-6.5Z"/>
        <path class="cls-6" d="m1488.3,1376.2c0-22-.1-43.9-.1-65.9,0-80.6,0-161.1,0-241.7,0-2.1-.6-4.3.7-6.3,0,1.8.2,3.7.2,5.5,0,100.7,0,201.4,0,302.1,0,2.1.7,4.3-.8,6.3Z"/>
        <path class="cls-6" d="m35.8,154c0,1.8.2,3.6.2,5.5,0,98.2,0,196.4,0,294.6,0,1.9.6,4-.7,5.8,0-2.2-.2-4.3-.2-6.5,0-97.7,0-195.4,0-293.1,0-2.1-.6-4.3.7-6.3Z"/>
        <path class="cls-6" d="m1488.9,457.9c-1.1-1.5-.7-3.2-.7-4.8,0-93,0-186.1,0-279.1,0-1,.1-2,.2-3,1.2,1.6.8,3.5.8,5.3,0,92.6,0,185.1,0,277.7,0,1.3-.2,2.7-.2,4Z"/>
        <path class="cls-6" d="m1382.2,33.9c-23.9,0-47.8.1-71.7.2-.8,0-1.6-.4-2.3-.7,24.1,0,48.2-.1,72.3-.2.6,0,1.2.5,1.8.7Z"/>
        <path class="cls-6" d="m216.1,33.4c-.8.2-1.6.7-2.3.7-21.6,0-43.2,0-64.8-.2.6-.2,1.2-.7,1.8-.7,21.8,0,43.5.1,65.3.2Z"/>
        <path class="cls-5" d="m1290.2,1472.9c-80.4,0-160.9.2-241.3.2-268.8,0-537.6,0-806.3-.1-2.2,0-4.3,0-6.5,0-.8-.3-1.5-.7-2.3-.7-22.6,0-45.2,0-67.8.1-3.9-.1-7.8-.2-11.8-.3-.4-2.4-2.5-1.8-3.9-2.2-17.2-4.8-32-13.4-43-27.9-1.2-1.6-1.3-4.3-4-4.8-1-4.3-2.1-8.6-3.1-12.9-.5-6.3-3.7-10.8-9.5-13.3-4-1.7-8-3.2-12.1-4.4-10.3-3-18.2-9.1-24.4-17.8-1.6-2.2-1.7-5.5-4.8-6.6.3-.6.5-1.3.8-1.9,0-.3,0-.7,0-1,0-107.8,0-215.7,0-323.5,0-1.5.3-3-.8-4.3,0-65.4-.1-130.9-.1-196.3,0-126.4,0-252.8,0-379.1,0-2,0-4,0-6,1.3-1.8.7-3.9.7-5.8,0-30.1,0-60.2,0-90.4,0-33.6,0-67.2,0-100.8.1-23.2.2-46.5.3-69.7,2.3-.7,1.7-2.6,1.7-4.2.4-12.3.3-24.6.7-36.9.4-10.6,3.3-19.8,8.2-28.8,4.9-8.8,11.3-15.5,21.5-18,2.9-.7,5.6-2.1,8.4-3.1,11.5-4.1,14.5-15.2,19.6-24.4,2.2-4,4.1-8.4,6.9-12,6.2-7.8,12.9-13,24.5-13,277.7-.2,555.4,1.2,833-.5,136.2-.8,272.4-.1,408.6-.2,4.5,0,8.4,1.3,12.3,3.4,9.2,4.9,15.7,12.1,19.9,21.5.9,2,1.4,4.6,4.1,5.3-.2,3,2.3,4.5,3.7,6.5-.6,5.2,2.8,8,6.6,10.1,4.5,2.4,9.3,4.3,14.1,6.3,10.2,4.3,17.2,11.3,21.2,21.8,3.7,9.6,2.8,19.7,3.5,29.5.9,12.2,1.4,24.5,2.1,36.7,1.3,23,2.8,46.1,2.9,69.1.4,64.6.2,129.2.3,193.8,0,1.9-.6,4,.7,5.8,0,80.1.2,160.2.2,240.3,0,110.4,0,220.8,0,331.2,0,2,0,4,0,6-1.1,1.3-.8,2.8-.8,4.3,0,109.2,0,218.3,0,327.5,0,.3,0,.6-.2.9-1.1.2-1.6.9-1.9,2-3.6,9.5-10.6,15.8-19.6,20-5.7,2.6-11.7,4.5-17.5,6.9-3.5,1.4-7,3.1-7.6,7.5-5.4,4.3-7.7,10.1-8.7,16.7-.4,2.7-1.7,5.3-2.6,7.9-2,.2-2.5,2.1-3.4,3.3-8.3,11.6-18.5,20.2-33.3,22-3.1.4-6.6.4-9.1,3.1-2,.2-3.9.5-5.9.7-23.8,0-47.5,0-71.3,0-.9,0-1.9.5-2.8.7Z"/>
        <path class="cls-6" d="m1419.8,92.3c-2.7-.7-3.2-3.3-4.1-5.3-4.2-9.5-10.7-16.7-19.9-21.5-3.9-2.1-7.8-3.4-12.3-3.4-136.2,0-272.4-.6-408.6.2-277.7,1.6-555.4.3-833,.5-11.6,0-18.3,5.2-24.5,13-2.9,3.6-4.7,8-6.9,12-5.1,9.2-8.1,20.3-19.6,24.4-2.8,1-5.5,2.4-8.4,3.1-10.1,2.5-16.6,9.2-21.5,18-5,9-7.9,18.2-8.2,28.8-.4,12.3-.3,24.6-.7,36.9,0,1.6.5,3.5-1.7,4.2,0-22-1.4-44,.2-65.9,1.1-14.3,10.9-24.5,24.6-30,5.4-2.2,11-3.8,16.8-4.3,6.8-.6,13.6-7.2,14.1-14.5.9-11.5,5.2-21.9,12.8-30.2,5.7-6.1,13.3-10.3,22.5-10.3,81.9,0,163.8,0,245.8,0,331.2,0,662.3.1,993.5-.2,17.4,0,30.7,13.7,35.2,26.1,2.1,5.9,3.8,12,3.9,18.4Z"/>
        <path class="cls-6" d="m1474.9,471.9c-1.3-1.8-.7-3.9-.7-5.8,0-64.6.1-129.2-.3-193.8-.2-23-1.6-46.1-2.9-69.1-.7-12.2-1.1-24.5-2.1-36.7-.7-9.8.2-19.8-3.5-29.5-4-10.5-11-17.5-21.2-21.8-4.7-2-9.6-3.9-14.1-6.3-3.8-2.1-7.2-4.9-6.6-10.1,6.8,5.2,15.4,4.6,23.1,7,14.4,4.5,28.8,20,28.7,38.2-.5,107.5-.2,214.9-.1,322.4,0,1.8-.1,3.6-.2,5.5Z"/>
        <path class="cls-6" d="m49.3,1382.1c3.1,1.1,3.2,4.4,4.8,6.6,6.2,8.7,14.1,14.7,24.4,17.8,4.1,1.2,8.2,2.8,12.1,4.4,5.8,2.4,9,6.9,9.5,13.3-3.7-3.2-7.5-5.5-12.9-6.3-11-1.6-21.4-5.4-29.6-13.7-6-6.2-8-13.8-8.3-22Z"/>
        <path class="cls-6" d="m103.2,1437c2.6.5,2.7,3.2,4,4.8,11,14.5,25.8,23.1,43,27.9,1.4.4,3.6-.1,3.9,2.2-7,0-14,.5-20.9,0-8.5-.6-14.5-6.1-19.7-12.2-5.5-6.6-8.5-14.4-10.4-22.7Z"/>
        <path class="cls-6" d="m1427.4,1418.4c.6-4.4,4.1-6.1,7.6-7.5,5.8-2.4,11.8-4.3,17.5-6.9,9-4.1,16-10.5,19.6-20,.4-1,.9-1.7,1.9-2,0,10.6-4.9,18.5-13.1,24.7-9.9,7.5-21.5,10.1-33.5,11.6Z"/>
        <path class="cls-6" d="m1474.1,1381.2c0-109.2,0-218.3,0-327.5,0-1.5-.3-3,.8-4.3,0,1.8.2,3.7.2,5.5,0,106.7,0,213.4-.1,320.1,0,2.1.8,4.4-.9,6.2Z"/>
        <path class="cls-6" d="m49.4,1051.4c1.1,1.3.8,2.8.8,4.3,0,107.8,0,215.7,0,323.5,0,.3,0,.7,0,1-1.3-1.4-.9-3.1-.9-4.8,0-106.9,0-213.7-.1-320.6,0-1.2.1-2.3.2-3.5Z"/>
        <path class="cls-6" d="m1370.2,1471.5c2.5-2.6,6.1-2.7,9.1-3.1,14.9-1.8,25-10.4,33.3-22,.9-1.3,1.4-3.1,3.4-3.3.1,3.5-1.5,6.5-3.1,9.3-1.8,3.1-3.6,6.3-5.1,9.6-1.9,4.1-6.6,5.6-10.4,7.3-8.7,3.9-18,3.7-27.2,2.3Z"/>
        <path class="cls-6" d="m50,272.9c0,33.6,0,67.2,0,100.8,0,30.1,0,60.2,0,90.4,0,1.9.6,4-.7,5.8,0-1.5-.2-3-.2-4.5,0-62.1,0-124.2,0-186.2,0-2.1-.6-4.4.8-6.3Z"/>
        <path class="cls-6" d="m1290.2,1472.9c.9-.3,1.9-.7,2.8-.7,23.8,0,47.5,0,71.3,0-.8.3-1.5.8-2.3.8-23.9,0-47.9,0-71.8-.2Z"/>
        <path class="cls-6" d="m165.9,1472.3c22.6,0,45.2-.1,67.8-.1.8,0,1.5.5,2.3.7-22.6,0-45.2.1-67.8.1-.8,0-1.5-.5-2.3-.8Z"/>
      </g>
      <g>
        <path class="cls-2" d="m154.4,151.5c-5.7-.4-8.6-3.9-10.9-7.9-4.7-7.9-5.6-17-7.6-25.8-.7-2.8-1.1-5.7-1.1-8.7,0-2.6-1.3-4.6-4.2-5.4-6.2-1.7-11.6-4.9-16.6-8.8-5.3-4.1-5.5-10.7-.2-14.5,4.4-3.1,8.8-6.7,14.3-7.7,5.1-.9,6.3-4.3,6.8-8.7,1.1-9.4,3.2-18.7,6.2-27.8,1.1-3.5,3-6.4,5.7-8.9,5.3-4.9,10.7-4.5,14.9,1.3,4.6,6.3,6.3,13.7,7.9,21.1,1.3,6.1,3.4,12.2,3.1,18.6,0,1.6.6,1.9,2.1,2.5,6.7,2.8,13.7,5.1,19.1,10.4,4.9,4.8,5.1,7.4.2,12.3-4.8,5-11,7.7-17.4,9.9-2.7.9-3.6,2.1-4.2,5.2-2.4,12.1-3,24.7-9.7,35.6-2,3.3-4.5,6.4-8.3,7.2Zm26.7-63.5c-2.1-2.2-4.3-2.8-6.2-3.1-8.5-1.5-12.4-7.1-14.2-14.8-1.9-7.8-3.7-15.7-5.7-23.5-.2-.9.5-2.8-1.4-2.5-1.2.1-1.5,1.3-1.8,2.6-1.5,6.8-3.4,13.5-4.9,20.3-1.8,8.5-4.5,15.9-14.5,17.7-2.1.4-4.1,1.5-6.3,2.4,2.2,3.2,5.6,3.7,8.7,4.5,5.3,1.5,9.1,4,10.2,9.8.7,3.8,1.7,7.6,2.9,11.2,2,6.1,2.3,12.7,5.6,19,.7-1.1,1.1-1.6,1.3-2.2,2.9-9.9,4.4-20.1,7.9-29.9,1.4-3.8,3.4-5.9,7.2-7,3.7-1.1,7.2-2.8,11.3-4.5Z"/>
        <path class="cls-2" d="m127.8,132.8c-.3,5.6-5.3,10.3-12,12.5-5.4,1.7-6.9,5.3-7.9,9.9-.9,4.1-2.4,8-4.2,11.8-2.2,4.6-6.2,6.8-10.9,6.7-4,0-7-3-9-6.6-3-5.4-4.3-11.4-5.8-17.3-.4-1.8-1-2.2-2.6-2.7-4.4-1.3-8.2-3.6-11.5-7.1-6.6-6.9-5.4-16.7,2.9-21.5,1.1-.6,2.2-1.6,3.4-1.7,7.5-.9,8.2-6.8,9.7-12.3,1.4-4.9,2.1-10.3,6.6-13.7,6.9-5.2,14.8-2.9,18,5.2,1.7,4.3,3.2,8.8,4.2,13.3.7,3.5,2,5.3,5.6,6.4,8.7,2.5,13.3,8,13.4,17.1Zm-34-32.5c-1.4,2.4-2.4,4.3-3,6.8-1.6,7.5-3.6,14.9-11.8,18.4-2.5,1.1-5.8,2.2-5.9,5.3-.1,3.2,3.6,3.9,5.8,5.2,5.3,3,9.8,6.4,10.3,13.2.1,1.7.9,3.4,1.6,5.1.9,2.1.4,5.9,3.1,5.8,2-.1,2.6-3.9,2.8-6.1,1.2-9.1,5.6-15.5,14.1-19.4,5.1-2.4,5-4.7,0-7.2-7.3-3.6-12.3-8.7-13.4-17.2-.4-3.2-1-6.7-3.7-9.7Z"/>
        <path class="cls-7" d="m181.1,88c-4.2,1.7-7.7,3.4-11.3,4.5-3.8,1.1-5.8,3.2-7.2,7-3.5,9.8-5,20-7.9,29.9-.2.6-.6,1.1-1.3,2.2-3.3-6.3-3.6-12.9-5.6-19-1.2-3.7-2.2-7.4-2.9-11.2-1.1-5.8-5-8.3-10.2-9.8-3-.9-6.4-1.3-8.7-4.5,2.2-.9,4.2-2,6.3-2.4,10-1.7,12.7-9.2,14.5-17.7,1.4-6.8,3.3-13.5,4.9-20.3.3-1.3.6-2.4,1.8-2.6,1.9-.2,1.2,1.7,1.4,2.5,2,7.8,3.9,15.6,5.7,23.5,1.8,7.7,5.8,13.3,14.2,14.8,1.8.3,4.1.9,6.2,3.1Z"/>
        <path class="cls-7" d="m93.8,100.3c2.7,3.1,3.3,6.6,3.7,9.7,1.2,8.5,6.1,13.6,13.4,17.2,5.1,2.5,5.2,4.8,0,7.2-8.5,3.9-12.9,10.3-14.1,19.4-.3,2.3-.8,6-2.8,6.1-2.8.2-2.3-3.6-3.1-5.8-.7-1.6-1.5-3.3-1.6-5.1-.5-6.8-4.9-10.2-10.3-13.2-2.3-1.3-6-1.9-5.8-5.2.1-3,3.4-4.2,5.9-5.3,8.2-3.5,10.2-10.9,11.8-18.4.5-2.5,1.6-4.4,3-6.8Z"/>
      </g>
      <g>
        <path class="cls-2" d="m1369.9,1486.8c-5.1-.6-7.9-3.9-10.2-7.8-4.8-7.9-5.6-17-7.7-25.8-.7-2.8-1.2-5.7-1.1-8.7,0-2.9-1.5-4.9-4.5-5.7-6.2-1.7-11.6-5-16.6-8.9-5.1-4-5.2-10.4,0-14.2,4.4-3.2,8.7-6.7,14.2-7.8,5-1,6.5-4.1,7-8.6,1.2-10.1,3.4-20,6.9-29.6,1.5-4.3,4.6-7.2,8-9.6,3.4-2.4,9-.6,11.9,3.6,4.7,6.6,6.4,14.3,8,22,1.2,6,3.3,11.9,3,18.2,0,1.5.7,1.6,1.9,2.1,5.7,2.3,11.6,4.3,16.5,8.1,8.4,6.7,9.1,9.7.2,17.2-4.2,3.5-9.4,6-14.9,7.5-2.4.7-3.4,1.9-3.8,4.9-1.7,11.4-3.3,23.1-8.3,33.6-1.9,4.1-4.9,8.6-10.4,9.4Zm27.2-63.6c-2.1-2.4-4.5-2.8-6.5-3.2-7.5-1.5-11.6-6.3-13.3-13.3-2-7.8-3.5-15.8-5.6-23.6-.3-1.2.2-3.9-2-3.8-1.8,0-1.5,2.1-1.8,3.6-1.5,6.6-3.4,13.2-4.8,19.8-1.9,8.3-4.8,15.5-14.5,17.2-2.1.4-4.3,1-6,2.6,2.1,3.1,5.5,3.4,8.6,4.3,5.1,1.5,8.7,3.9,10.1,9.4,2.2,9.1,5.8,17.8,6.9,27.1.1,1.1.9,2.1,1.6,3.6.7-1.1,1.1-1.6,1.3-2.2,2.6-10,4.4-20.1,7.9-29.9,1.4-3.8,3.4-5.9,7.2-7,3.7-1.1,7.2-2.8,11.2-4.4Z"/>
        <path class="cls-2" d="m1392.8,1362.4c-1.4-6.9,5.2-12.5,13.3-15.2,2.7-.9,4.2-1.5,4.9-5,1-4.9,2.3-9.9,4.5-14.6,2.3-4.8,5.8-8.1,11-8.1,4.9,0,8.1,3.5,10.4,7.7,2.4,4.4,3.3,9.4,4.5,14.2.8,3.3,2.1,5,5.5,6,9.4,2.8,14.2,8.6,13.4,16.1-.7,7.3-5.8,11.6-12.3,13.5-5.2,1.6-6.6,5.3-7.5,9.7-.9,4.1-2.4,8-4.1,11.8-1.9,4.2-5.5,7-9.6,7.2-4.5.3-8-2.9-10.3-7-3-5.2-4.2-11.1-5.6-16.8-.6-2.3-1.3-2.9-3.2-3.3-5.6-1.3-9.4-5.1-13-9.1-1.9-2.1-2.2-4.6-1.9-7.2Zm33.7-30.4c-1.5,2.5-2.5,4.5-3,7-1.6,7.8-3.9,15.2-12.4,18.5-2.3.9-5.4,2.2-5.2,5.2.1,2.8,3.2,3.5,5.3,4.5,6.5,3.1,10.5,8,11.4,15.2.2,1.3.5,2.5,1,3.7.8,2,.5,5.6,2.9,5.5,2.4-.2,2.7-3.9,2.9-6,1.2-9.2,5.5-15.8,14.3-19.6,5-2.2,4.8-4.7-.4-7.2-7.2-3.5-12-8.4-13.1-16.8-.4-3.1-.9-6.8-3.8-9.9Z"/>
        <path class="cls-7" d="m1397,1423.2c-4,1.6-7.5,3.4-11.2,4.4-3.8,1.1-5.8,3.2-7.2,7-3.4,9.8-5.2,20-7.9,29.9-.2.6-.6,1.1-1.3,2.2-.7-1.5-1.4-2.5-1.6-3.6-1.2-9.3-4.7-18.1-6.9-27.1-1.3-5.5-5-7.9-10.1-9.4-3-.9-6.5-1.2-8.6-4.3,1.7-1.6,4-2.2,6-2.6,9.7-1.7,12.7-8.8,14.5-17.2,1.5-6.6,3.3-13.2,4.8-19.8.3-1.4,0-3.5,1.8-3.6,2.2,0,1.7,2.6,2,3.8,2.1,7.8,3.6,15.7,5.6,23.6,1.8,7,5.8,11.8,13.3,13.3,2.1.4,4.5.8,6.5,3.2Z"/>
        <path class="cls-7" d="m1426.5,1331.9c2.8,3.1,3.3,6.7,3.8,9.9,1.1,8.4,6,13.3,13.1,16.8,5.2,2.6,5.4,5,.4,7.2-8.8,3.9-13.1,10.4-14.3,19.6-.3,2.2-.6,5.9-2.9,6-2.5.2-2.1-3.5-2.9-5.5-.5-1.2-.8-2.5-1-3.7-1-7.3-4.9-12.1-11.4-15.2-2.1-1-5.2-1.7-5.3-4.5-.1-3.1,2.9-4.3,5.2-5.2,8.5-3.3,10.8-10.7,12.4-18.5.5-2.5,1.6-4.5,3-7Z"/>
      </g>
    </g>
  </g>
</svg>