<?xml version="1.0" encoding="UTF-8"?>
<svg id="Layer_2" data-name="Layer 2" xmlns="http://www.w3.org/2000/svg" width="1167.1" height="173.5" viewBox="0 0 1167.1 173.5">
  <defs>
    <style>
      .cls-1 {
        fill: #3e0121;
      }

      .cls-2 {
        fill: #ff868a;
      }

      .cls-3 {
        fill: #ffbbbd;
      }

      .cls-4 {
        fill: #bff89d;
      }

      .cls-5 {
        fill: #e06a76;
      }

      .cls-6 {
        fill: #73b44d;
      }

      .cls-7 {
        fill: #b54755;
      }
    </style>
  </defs>
  <g id="Back">
    <g>
      <path class="cls-1" d="m4.8,58.8c0-14,5.1-19.5,18.9-23,14.8-3.7,29.6-3.3,44.5-1.3,8.6,1.1,17.3,0,25.9,0,29.1-.5,58.2-.5,87.3,2.1,12.4,1.1,24.9,1.3,37.4,1.4,39.4.3,78.9,1.5,118.2,4.8,25.2,2.1,50.3,5.3,75.4,8.2,11.7,1.4,23.6.5,35.4,1.6,30.1,2.9,60.3,5.5,90.5,7.9,36.9,2.9,73.8,2.6,110.7,0,8.6-.6,16.4-3.7,24.1-7.4,25.7-12.5,49.7-28.2,75.3-40.9,6.5-3.2,13-6.7,19.4-10.1,4.9-2.5,9.8-2.9,14.9-.7,4.2,1.7,8.2,3.7,11.9,6.2,7.6,5,9.2,12.3,4,19.7-3.2,4.6-7,8.8-11.6,12.2-10.4,7.8-20.9,15.3-31.8,22.4-.3.2-.5.4-.8.6.2.1.4.2.6.4,3.3,1.1,6.7,1.7,10.2,1.9,18.4,1.3,36.9,2,55.4,1.2,16.8-.7,33.6-.5,50.4-.7,1.8,0,3.7.4,5.3-.6-7.4-23.3-1-41.2,19.8-55.2,4.1-2.8,7.9-2.7,12,.1,6.7,4.7,8.5,11.9,10.4,19.8,9.2-6.1,19-10,29.6-11.9,10.2-1.9,20.5-2.4,30.7.3,8.1,2.2,11.3,8.5,8.5,16.5-2.5,7-7.1,12.7-11.7,18.4-1.8,2.2-3.7,4.2-5.8,6.7,2.1,1.1,4,.3,5.9.2,26.4-1.7,51.7-8.9,77.1-15.9,13.3-3.7,26.7-7,40.1-10.3,15.6-4,27,5.6,31.7,20.1,1.7,5.4-.9,9.7-5,13.1-5.5,4.7-12.2,7.4-18.9,9.8-2.9,1-6.2,1.3-8.8,3.1-.2.1-.3.2-.5.3.2,0,.3.2.5.3,14.5,2.6,29.2,1.9,43.7,3.2,6.8.6,13.5,1.7,20.1,3.5,7.7,2.1,11.4,7.5,11.3,16.1,0,8.6-3.6,14-11.2,16.1-2.2.6-3.3,1.2-3.5,3.8-.4,5.7-3.8,9.3-8.9,11.5-9.6,4.2-19.7,4.4-29.9,3.5-14.6-1.3-29.1-3.3-43.7-4.3-18-1.2-35.9-.6-53.6,3-13,2.6-26.1,2.2-39.2,3.6-25.3,2.8-50.7,3.9-76,7.4-9-.3-18,.8-26.9,2-44.3,1.2-88.4,4.3-132.5,7.8-30.9,2.4-61.9,2.3-92.8,1.8-21.2-.4-42.4-.8-63.7-3.2-22.6-2.6-45.1-6.3-67.9-7.4-7.9-.4-15.3-3.3-23-4.2-3.6-.5-6.2-.6-6,4.2,0,1.6-.8,3.2-1.3,4.8-1.2,2.3-2.3,4.5-3.5,6.8-5.9,7.3-14.3,7.1-22.3,7-12.5-.1-24.6-3.1-36.6-6.3-18-4.9-36-10.1-54-15.2-.2,0-.5,0-.7,0,.1.3.2.7.3,1,1.8,5.3,4.2,10.5,4.6,16.2.5,6.5-2,9.8-8.5,10.4-18.6,1.5-35.2-3.8-49.3-16-5.4-4.7-7.9-11.4-9-18.4-.4-2.6-1.4-3.2-3.8-3.2-42.4-.4-84.8-2.6-127.3-2.1-32.1.4-64.2-.8-96.3-2.4-15.9-.8-32-.1-47.8-2.6-3.1-.5-6.1-1.4-9.2-2.1-9.1-2.1-12.4-9.3-15.1-17-.2-1.3-.5-2.7-.7-4,0-3.3.1-6.6.2-9.9.2-1,1-1.9,0-2.9-.2-1.8-1.6-2.8-2.5-4.1-5.9-8.5-7.4-17.4-2.4-26.9,1.2-.6,2.2-1.3,1.7-2.9Zm749.6,17.5c-.8-.9-1.9-.8-3-.7-.6-.2-1.2-.3-1.8-.5-1.1-.4-2.2-.7-3.3-1.1-3.5-.2-6.2-4-10.2-1.7-4.9,2.9-10.3,4.9-15.8,6.5-2.2-.6-5.4,1-6.4-1.4-.9-2.3,1.7-4.3,3.2-6.2,5.4-6.8,12.7-10.9,20.1-15.1,15.6-8.8,30.5-18.6,44.1-30.2,6.9-6.4,6.8-6.9-1.6-10.6-.4-.2-.9-.3-1.4-.4-1.4-1.2-2.8-1.5-4.3-.2-21.3,10.8-42.5,22-63.4,33.7-23.5,13.1-47.2,26-75.5,25.9-21.1,0-42.2,2-63.4.8-24.1-1.4-48.1-3.7-72.1-5.3-28.4-2-56.7-4.8-85.1-6.3-37.4-2.1-74.5-7.7-111.9-9.3-31.8-1.4-63.5-3.3-95.3-3.4-8.3,0-16.7-.3-24.9-.9-32-2.5-64.1-3.8-96.3-2.2-7.1.4-14.3.3-21.4-.7-13.3-2-26.5-2.5-39.5,1.8-2.8.9-5.8,1.4-7.8,4,1,4.7-.6,9.4-.5,14.1-1.5.4-2.5,1.3-2.6,2.9-1.7,4.2-.9,8,1.6,11.5,1.8,2.5,3.6,5.1,5.3,7.6.2,2.3.5,4.5.7,6.8-1.5,3.1-1,6.5-1.1,9.8,0,5.7,1.8,7.9,7.5,9.4,3.7,1,7.5,1.5,11.3,1.9,12.3,1.4,24.6.8,36.9,1.4,31.3,1.5,62.5,3,93.8,3,20.5,0,40.9.5,61.4.3,18.1-.2,36.3.8,54.4,1.8,10.5.6,21,.3,31.4-.9.9,0,.9-.8,1.1-1.4,1.7-4.2,5.4-4.6,9.2-4.3,9.5.6,18.4,3,26,9,2.6,2,5.5,3,8.5,3.9,22.1,6.2,44,12.8,66.2,18.6,12,3.2,24.1,6.4,36.7,6.4,5.1,0,8.3-1.9,9-7.1,1.6-2,.7-3.4-1.2-4.3-3.4-1.7-6.7-3.6-10.3-4.9-12.2-4.5-24.4-9.1-36.3-14.6-.2-.8-.5-1.7-.7-2.5,3.1-2.1,6.6-2,10.1-1.8,14.3.8,27.5,5.8,40.6,11,1.7.7,3.2,1.8,5.2,1.5,5.9-.8,11.7.2,17.3,1.3,17.3,3.5,34.9,4.1,52.3,6.5,15.6,2.2,31.4,2.7,47.1,4.8,15.1,2,30.5,1.6,45.7,1.5,12.6.8,25.2.5,37.7.1,3.1-.1,6.2-1.1,9.3-.1,7.3,2.3,14.7,1.7,22.2,1.2,1.2,0,2.5,0,3.7,0,6.5.5,12.9,1,19.1-1.9,22.6-3,45.3-3.5,67.9-5.8,10.8-1.5,21.7-.8,32.5-1.1,1.6,0,3.3-.4,4.6-1.6,19.3.8,38.5-1.3,57.7-2.9,27.6-2.2,55.2-4.8,82.8-7.5,9.4-.9,19-.4,28.3-2.3,16.9-3.3,34-4.3,51.1-4,16.4.3,32.7,2.9,49.1,4.1,9.7.7,19.6,2.3,28.9-2.4.2-.3.4-.6.6-.8-.2,0-.5-.2-.7-.3-3.9-1.1-7.5-3-10.9-5.2-1.6-2-2.3-3.7,1.3-4.2,2.9-.4,5.7-1.1,8.6-1.7,1.8,0,3.6.4,5.1-.8,2.3-.5,4.5-1,6.8-1.5,2.3-.5,3.3-1.8,3.2-4.2,0-2.5-1.7-3-3.5-3.3-6.8-1.3-13.7-2.8-20.7-3.2-10.6-.6-21.3-.9-31.8-2.7-6.2-1.1-12.8-1.8-17.9-5.7-3.8-2.9-7.3-3.1-11.5-1.9-1.3.1-2.6.3-3.9.3-1.6,0-3.5.7-4.5-1.2-.8-1.6.8-2.7,1.7-3.8,3.3-4,7.5-6.9,12-9.3,7.9-4.1,16.4-6.8,24.9-9.5.4-.2.9-.3,1.3-.5,3.5-1.5,7.3-2.5,10-5.4.6-.3,1.1-.7,1-1.5-1.3-5.9-7-9.9-13.1-8.7-5.3,1.1-10.6,2.6-15.9,4-21.1,5.6-42.2,11.2-63.3,16.9-19.9,3.7-39.9,6.2-60.2,6.6-5.3.1-10.6.5-15.7,2.3-1.6-.9-3.1-.8-4.3.8-3.6.6-7.1,1.2-10.7,1.8-1.1-.3-2.1-.3-3.1.3-8.8-1.9-17.6-2.7-26.6-1.4-3.9.6-8,.7-11.9.8-37.1.4-74.1,2.1-111.2.2-3.3-.3-6.6-.6-9.9-1-.7,0-1.4-.2-2.1-.2-1-.1-2-.2-3-.3-1.4-1.2-3.1-.8-4.7-1h-.3Zm-394.6,83.9c1.8-1.3.9-2.5-.1-3.7-3-8.3-6.8-16.1-14.7-21.2-5.1-3.3-10.5-5.5-16.4-6.9l-1.1-.3c-1.9-.7-3.8-1.6-5.8-2.1-2.8-.7-1.7,1-1.3,2.2-1.3,3.4-.3,6.7.7,10,1.4,4.7,3.1,9.1,7.4,11.9,9.5,6.3,19.8,9.9,31.2,10.2ZM885.5,51c-.3.3-.2.5,0,.8.6,3.8,1.4,7.4,3.4,10.8,1.4,2.5,3.6,1.8,5.7,1.7,2.3,0,2.4-1.6,2.7-3.4.9-5.4,2.1-11.1,5.4-15.3,5.4-7,2.3-13.7.7-20.6-.6-2.3-1.5-3.1-3.7-1.2-8.1,7.3-14.5,15.5-14.2,27.2Zm79.7-21.9c-8.9.2-17.2,1.2-25.1,4.1-15.9,5.9-28.6,15.1-30.4,33.7-.1,1.1-1.2,2.9,1.3,2.6,12.3-1.6,24.9-1.9,36-8.5,9.3-5.6,16.4-13.4,22.7-22,1.9-2.6,5.7-5.7,4.2-8.3-1.3-2.3-6.1-1.1-8.8-1.5Z"/>
      <path class="cls-3" d="m755.1,62.9c-.2-.1-.4-.2-.6-.4.3-.2.5-.4.8-.6,0,.3-.1.7-.2,1Z"/>
      <path class="cls-5" d="m1091.9,80.3c-.2,0-.3-.2-.5-.3.2-.1.3-.2.5-.3,0,0,.3.3.3.3,0,0-.3.3-.3.3Z"/>
      <path class="cls-3" d="m370.2,146.7c-.1-.3-.2-.7-.3-1,.2,0,.5,0,.7,0-.1.3-.3.7-.4,1Z"/>
      <path class="cls-2" d="m781.4,25.9c-13.6,11.6-28.5,21.4-44.1,30.2-7.4,4.2-14.7,8.3-20.1,15.1-1.5,1.9-4.1,3.8-3.2,6.2,1,2.5,4.2.9,6.4,1.4.9,3.2,3.7,2.1,5.3,1.7,8.4-2.1,16.9-1.8,25.5-1.9,1.7,0,3.7.9,4.9-1.1,1.1,0,2.2,0,3.3,0,1,.1,2,.2,3,.3.6.6,1.3.8,2.1.2,3.3.3,6.6.6,9.9,1,.9,2.8,3.7,2.3,5.4,2.4,12.5,1.3,25,2.9,37.5,3.1,31.3.5,62.7.9,93.9-2,4.4-.4,8.9-.7,13-2.7,1-.3,2.2,0,3-.8,3.6-.6,7.1-1.2,10.7-1.8,1.6.5,3.1.6,4.3-.8,5.1-1.8,10.3-2.2,15.7-2.3,20.3-.4,40.3-3,60.2-6.6,1.3,1.6,3.1,1.1,4.6,1,8.1-.1,16.2,0,24.3-.7,14-1.4,27.8-3.7,41.5-6.8,6.9-1.6,13.6-4,20.8-4.2-2.7,2.9-6.5,3.9-10,5.4-.4.2-.9.3-1.3.5-8.5,2.7-17,5.4-24.9,9.5-4.6,2.4-8.8,5.3-12,9.3-.9,1.1-2.5,2.1-1.7,3.8.9,1.8,2.9,1.2,4.5,1.2,1.3,0,2.6-.2,3.9-.3,1,4.5,4.8,6.4,8.4,7.8,12,4.7,24.7,7.3,37.4,9.6,8.9,1.6,18,2,26.7,4.8-.7.4-1.4.7-2.2,1.1-2.9.6-5.7,1.3-8.6,1.7-3.6.5-2.9,2.1-1.3,4.2-1.1,1.5-2.7,1-4.1,1.1-12.8.9-25.4-1.5-37.9-3.7-15.4-2.7-30.7-3.5-46-1-25.9,4.2-51.6,9.8-78.1,9.9-6.2,0-12.6.1-18.8.9-17.3,2.1-34.6,2.4-51.9,3.6-11.9.9-23.8,1.5-35.8,1.4-10.1,0-20.1,1.2-30.2,1.8-1.4,0-2.7,0-3,1.8-7.1-.6-14-2.8-20.9-4.4-14.7-3.5-29.4-4.5-44.4-1.8-26.9,4.8-53.2,12.6-80.4,16-.4-1.4-1.4-1.8-2.7-1.6-4.6.5-9.1-1.1-13.7-1.1-1.6,0-3.5.5-3.8-2,13.4-2,26.8-4.1,40.3-5.9,5.9-.8,11.8-1.8,17.4-4,1.3-.5,2.4-1.3,2.1-2.9-.2-1-1.1-1.1-1.9-1.2-7.5-.2-14.9-1-22.4-.5-16.5,1.1-33,3.8-49.5,4.2-18.8.5-37.5,1.8-56.3,1.2-5.8-.2-11.6,0-17.5,0-5.6,0-10.8,1.6-16,3.2-8.1,0-16.2-1.1-24.1-3,1.7-.1,3.7-.1,3.7-2.3,0-2.2-2-2.3-3.6-2.6-7.8-1.6-15.5-3.2-23.3-4.6-8.3-1.5-16.5-3.9-25-3.4-4.6.3-9.2,1.3-13.7,1.9-.1-1.1-.7-1.7-1.9-1.9-5-.9-9.9-2.1-14.9-2.9-6.6-1.1-13-3.3-19.9-1.2-6.7,2-7.8,4.6-3.9,10.6.2.8.5,1.7.7,2.5-2.3,3.6.2,5,2.8,6.4,9.1,4.8,18.1,9.6,27.1,14.4-9.6-.5-19.1-1.5-28.4-3.9-13.3-3.5-26.8-5.7-39.6-11.2-13.2-5.7-27.2-9.6-40.5-15.1-12.2-5.1-24.8-2.5-37.2-3.3-24.7-1.5-49.5.7-74.2,1.7-23.1.9-46.2-1.2-69.3-1.1-14.9.1-29.9.3-44.9-.6-17.6-1.1-35.2-.4-52.8-1-9.8-.4-19.4-1.3-29.1-3-6.7-1.1-11.8-4.1-16-9.1-.7-.9-1.1-2.1-2.6-2.1-.2-2.3-.5-4.5-.7-6.8,2.2-.9,1.8-2.6,1.1-4.1-2.6-5-5.3-10-8-15,.2-1.6,1.1-2.5,2.6-2.9,9.5-.9,19-2.1,28.1-5,2.1-.7,4.8-.8,4.8-4,6,0,12,0,18,0-2.9,3.5-2.5,5.4,1.7,6.6,2.4.7,4.9,1.3,7.3,1.3,23.9-.5,47.7,1.6,71.5,1.9,5.6,0,11.1-.8,16.8,0,6.6.9,13.2-.6,19.7-1.7,1.2-.2,2.4-.5,2.5-1.9.1-1.4-.9-2.2-1.9-2.7-1.9-.9-3.9-1.6-5.9-2.3,4.5-.5,8.9.7,13.4.7,15.4.2,30.9,1.6,46.2,1.8,36.1.4,72.1.5,108,3.5,12.1,1,24.1,2.2,36.2,2,.5,0,1,.1,1.5.2,16.2,3.7,32.8,3.8,49.3,5.8,8.4,1,16.9.7,25.3,1.4,10.6.9,21,2.9,31.6,3.3,9.6.3,19.3,1.1,28.7,2.5,18.3,2.8,36.7,2.6,55.1,3.3,17.6.7,35.2.8,52.8-.6,11.6-.9,23.2-1.8,34.3-5.1,18.4-5.5,36.4-12.3,53.6-21.2,13.6-7,26.9-14.4,40.4-21.5,8-4.2,15.5-10,25.3-9.2Zm256.8,56.7c-.4-.5-.7-.5-1.1,0-15.8,1.6-31.6,3.7-47.4,4.8-18.7,1.3-37.4,1.8-55.9,5.1-7.8,1.4-15.7,2.6-23.3,5-1,.3-2.1.8-1.9,1.9.1,1.3,1.5,1,2.4,1.1,5.8.3,11.6,1.1,17.4.9,10.6-.3,21.2-1.8,31.8-1.6,21.8.3,43.3-2.4,64.7-6.3,7-1.3,14-2.6,20.3-6.4,1.2-.7,3-1.3,2.4-3.2-.5-1.5-2.1-1.4-3.4-1.4-2,0-4,0-6,0Zm-168.5,43.1c12-1.2,24.1-2.2,36.1-3.5,13-1.4,26-3.2,39-4.5,13.5-1.3,27.1-2.2,40.5-4.1,1.5-.2,3.4-.4,3.4-2.2,0-1.9-2.1-1.6-3.5-1.8-12.6-2.3-25.3-2.9-38.1-2-7,.5-14,.4-20.9,1.4-20.2,2.7-40.4,5.1-60.9,5.7-8.5.2-16.7,2.3-25,4.2-1.2.3-2.9.5-2.9,2.2,0,2.1,1.8,1.5,3,1.8,9.6,2.4,19.5,1.6,29.2,3Zm-61.6-8.1c1.3-.1,3.8.5,6.2-.5.9-.4,1.8-.9,1.8-2.1,0-1.2-.7-1.9-1.7-2.2-12.7-3.6-25-9.3-38.6-8-6.3.6-13.1,0-18.7,4-2.3,1.6-6.3,3.4-5,6.4,1.2,2.8,5,1.1,7.7.7,11.3-2,22.6-3.4,33.9,0,4.3,1.3,8.7,2,14.4,1.8Z"/>
      <path class="cls-3" d="m781.4,25.9c-9.9-.9-17.3,4.9-25.3,9.2-13.5,7.1-26.8,14.5-40.4,21.5-17.1,8.9-35.1,15.7-53.6,21.2-11.1,3.3-22.7,4.2-34.3,5.1-17.6,1.4-35.3,1.3-52.8.6-18.3-.8-36.7-.5-55.1-3.3-9.4-1.4-19.1-2.2-28.7-2.5-10.6-.4-21-2.3-31.6-3.3-8.4-.7-16.9-.4-25.3-1.4-16.4-2-33-2.2-49.3-5.8-.5-.1-1-.3-1.5-.2-12.1.2-24.2-1-36.2-2-36-2.9-72-3-108-3.5-15.4-.2-30.8-1.6-46.2-1.8-4.4,0-8.9-1.2-13.4-.7-.9,0-1.9-.1-2.8-.2-2.9-1.6-6-.7-9.1-.8-.6,0-1.3-.1-1.9-.2-1-1.1-2-1.1-3-.2-25.3-.6-50.6-3.5-75.9-2.5-6.3.3-13-.6-19,2.7-6,0-12,0-18,0-8.5-5.2-17.7-6.2-27.3-4.3-1.7.3-3.6,1.1-5.1-.7,2-2.6,5-3,7.8-4,13-4.3,26.2-3.8,39.5-1.8,7.1,1.1,14.3,1.1,21.4.7,32.1-1.6,64.2-.3,96.3,2.2,8.3.6,16.6.9,24.9.9,31.8.1,63.5,2.1,95.3,3.4,37.5,1.6,74.5,7.2,111.9,9.3,28.4,1.6,56.7,4.3,85.1,6.3,24,1.7,48.1,4,72.1,5.3,21.1,1.2,42.2-.9,63.4-.8,28.3,0,52-12.8,75.5-25.9,20.9-11.7,42-22.9,63.4-33.7,1.4,0,2.9.1,4.3.2.5.1,1,.2,1.4.4,8.4,3.8,8.5,4.2,1.6,10.6Z"/>
      <path class="cls-5" d="m22,95.5c1.4,0,1.8,1.2,2.6,2.1,4.2,5.1,9.3,8,16,9.1,9.7,1.6,19.3,2.6,29.1,3,17.6.7,35.3,0,52.8,1,15,.9,29.9.8,44.9.6,23.1-.2,46.2,2,69.3,1.1,24.7-1,49.5-3.2,74.2-1.7,12.4.7,25-1.8,37.2,3.3,13.3,5.5,27.3,9.4,40.5,15.1,12.8,5.5,26.3,7.7,39.6,11.2,9.3,2.5,18.8,3.4,28.4,3.9,5.8,1.5,11.5,3.9,17.7,3-.7,5.2-3.9,7.1-9,7.1-12.6,0-24.7-3.2-36.7-6.4-22.2-5.8-44.1-12.4-66.2-18.6-3.1-.9-6-1.8-8.5-3.9-7.6-6-16.5-8.4-26-9-3.8-.2-7.4.2-9.2,4.3-.2.6-.3,1.3-1.1,1.4-10.5,1.2-21,1.5-31.4.9-18.1-1.1-36.2-2-54.4-1.8-20.5.2-40.9-.3-61.4-.3-31.3,0-62.5-1.5-93.8-3-12.3-.6-24.6,0-36.9-1.4-3.8-.4-7.6-.9-11.3-1.9-5.6-1.4-7.6-3.7-7.5-9.4,0-3.3-.4-6.7,1.1-9.8Z"/>
      <path class="cls-5" d="m822.3,131.3c.3-1.8,1.6-1.7,3-1.8,10.1-.6,20.1-1.9,30.2-1.8,12,0,23.9-.6,35.8-1.4,17.3-1.2,34.7-1.5,51.9-3.6,6.2-.8,12.6-.9,18.8-.9,26.5-.1,52.2-5.7,78.1-9.9,15.3-2.5,30.6-1.7,46,1,12.5,2.2,25.1,4.6,37.9,3.7,1.4,0,3,.4,4.1-1.1,3.4,2.2,7,4,10.9,5.2,0,.4.1.7.2,1.1-9.3,4.7-19.2,3.1-28.9,2.4-16.4-1.2-32.7-3.8-49.1-4.1-17-.3-34.2.7-51.1,4-9.3,1.8-18.9,1.4-28.3,2.3-27.6,2.7-55.2,5.3-82.8,7.5-19.2,1.5-38.4,3.7-57.7,2.9-.5-1-1.5-1-2.5-1.2-5.5-1.3-11.3-1.7-16.5-4.1Z"/>
      <path class="cls-5" d="m656.4,136.4c.3,2.5,2.2,2,3.8,2,4.6,0,9.1,1.6,13.7,1.1,1.2-.1,2.3.3,2.7,1.6-6.1.5-12.1,1.2-18.3,1.5-4.7.2-9.8.1-14,3.3-15.3.2-30.6.5-45.7-1.5-15.7-2.1-31.4-2.6-47.1-4.8-17.4-2.4-35-3-52.3-6.5-5.6-1.1-11.5-2.1-17.3-1.3-2,.3-3.5-.9-5.2-1.5-13.1-5.2-26.3-10.2-40.6-11-3.5-.2-7-.3-10.1,1.8-4-5.9-2.8-8.5,3.9-10.6,6.9-2.1,13.3.1,19.9,1.2,5,.8,10,2,14.9,2.9,1.2.2,1.7.8,1.9,1.9-.4,2.3,1.1,3.2,2.9,4,5.5,2.8,11.5,4,17.6,5,13.8,2.4,27.7,2,41.6,2,7.9,2,15.9,3,24.1,3,1.4,3.1,4.2,4.1,7.2,4.7,8.3,1.8,16.6,2.9,25,3,23.9.5,47.7-.9,71.6-1.9Z"/>
      <path class="cls-7" d="m644.3,145.8c4.2-3.2,9.3-3.1,14-3.3,6.1-.2,12.2-1,18.3-1.5,27.2-3.4,53.5-11.2,80.4-16,15-2.7,29.7-1.7,44.4,1.8,6.9,1.6,13.7,3.8,20.9,4.4,5.2,2.4,11,2.8,16.5,4.1,1,.2,2,.2,2.5,1.2-1.3,1.2-2.9,1.5-4.6,1.6-10.8.3-21.7-.4-32.5,1.1-.3-.5-.5-1.5-.9-1.6-11.4-2.5-23-5.7-34.7-4-17.1,2.5-33.9,6.8-50.8,10.6-1.8.4-3.7.4-4.3,2.7-7.4.5-14.9,1.1-22.2-1.2-3.1-1-6.2,0-9.3.1-12.6.4-25.2.7-37.7-.1Z"/>
      <path class="cls-4" d="m965.2,29.1c2.7.4,7.5-.7,8.8,1.5,1.5,2.6-2.3,5.7-4.2,8.3-6.3,8.6-13.4,16.4-22.7,22-11.1,6.7-23.7,7-36,8.5-2.5.3-1.4-1.5-1.3-2.6,1.8-18.7,14.5-27.8,30.4-33.7,7.8-2.9,16.1-3.9,25.1-4.1Zm-47.8,34.6c.7,0,1.3,0,2-.2,12-2.6,20.9-10.3,29.7-18.1,1.1-1,1.5-2.3.8-3.6-1-1.6-2.7-1.2-4-.8-6.9,2.1-13.4,5-19.4,9-4.1,2.7-8.8,4.7-11.6,9.2-1.8,3-1.4,4.7,2.5,4.5Z"/>
      <path class="cls-3" d="m1109.3,56.9c-7.2.2-13.9,2.7-20.8,4.2-13.7,3.1-27.5,5.4-41.5,6.8-8.1.8-16.2.6-24.3.7-1.6,0-3.4.5-4.6-1,21.1-5.6,42.2-11.3,63.3-16.9,5.3-1.4,10.5-2.9,15.9-4,6-1.2,11.8,2.8,13.1,8.7.2.8-.3,1.2-1,1.5Z"/>
      <path class="cls-3" d="m924.1,79.8c-4.1,1.9-8.6,2.3-13,2.7-31.3,2.9-62.6,2.5-93.9,2-12.5-.2-25-1.8-37.5-3.1-1.7-.2-4.6.4-5.4-2.4,37.1,1.8,74.1.2,111.2-.2,4,0,8-.2,11.9-.8,9-1.3,17.8-.5,26.6,1.4,0,.2,0,.4,0,.5Z"/>
      <path class="cls-3" d="m1140.2,108.3c-8.7-2.8-17.8-3.2-26.7-4.8-12.7-2.3-25.3-4.9-37.4-9.6-3.6-1.4-7.4-3.3-8.4-7.8,4.1-1.2,7.7-1,11.5,1.9,5.1,3.9,11.6,4.5,17.9,5.7,10.5,1.9,21.2,2.1,31.8,2.7,7,.4,13.8,1.8,20.7,3.2,1.9.4,3.5.8,3.5,3.3,0,2.4-.9,3.7-3.2,4.2-2.3.5-4.5,1-6.8,1.5-1,0-2-.2-3-.3Z"/>
      <path class="cls-4" d="m885.5,51c-.3-11.7,6.1-19.8,14.2-27.2,2.1-1.9,3.1-1.1,3.7,1.2,1.6,6.9,4.7,13.5-.7,20.6-3.3,4.2-4.5,9.9-5.4,15.3-.3,1.7-.4,3.3-2.7,3.4-2.1,0-4.3.8-5.7-1.7-1.9-3.4-2.8-7-3.4-10.8,0,0,.3-.2.2-.2,0-.2-.2-.4-.3-.5Z"/>
      <path class="cls-5" d="m713.5,147c.6-2.3,2.5-2.3,4.3-2.7,16.9-3.8,33.6-8.2,50.8-10.6,11.8-1.7,23.3,1.5,34.7,4,.4,0,.6,1,.9,1.6-22.6,2.3-45.4,2.8-67.9,5.8-6.5-1.3-12.9-.6-19.1,1.9-1.2,0-2.5,0-3.7,0Z"/>
      <path class="cls-4" d="m320.5,128.2c-.4-1.2-1.5-3,1.3-2.2,2,.5,3.9,1.4,5.8,2.1.4,0,.7.2,1.1.3,5.8,1.5,11.3,3.6,16.4,6.9,7.8,5.1,11.6,12.9,14.7,21.2,0,1.2,0,2.5.1,3.7-11.4-.2-21.8-3.9-31.2-10.2-4.3-2.9-6.1-7.3-7.4-11.9,1.2.6,2.4,1.1,3.5,1.8,6.2,3.8,12.3,7.7,18.5,11.5,1.7,1,3.8,3.1,5.7.8,1.9-2.2-.3-4-1.4-5.7-4.3-6.5-11-10.3-17-15-3-2.3-6.1-3.8-10-3.4Z"/>
      <path class="cls-7" d="m17.4,52.7c1.5,1.8,3.3,1.1,5.1.7,9.7-1.9,18.8-.9,27.3,4.3,0,3.2-2.7,3.4-4.8,4-9.1,2.9-18.6,4-28.1,5-.2-4.7,1.5-9.3.5-14.1Z"/>
      <path class="cls-3" d="m474.4,147.2c-6.2.9-11.9-1.5-17.7-3-9-4.8-18.1-9.7-27.1-14.4-2.7-1.4-5.1-2.8-2.8-6.4,11.8,5.6,24,10.1,36.3,14.6,3.5,1.3,6.9,3.2,10.3,4.9,1.9,1,2.8,2.3,1.2,4.3Z"/>
      <path class="cls-6" d="m320.5,128.2c3.9-.4,7,1.1,10,3.4,6,4.7,12.7,8.5,17,15,1.1,1.7,3.3,3.5,1.4,5.7-2,2.3-4,.2-5.7-.8-6.2-3.7-12.4-7.7-18.5-11.5-1.1-.7-2.3-1.2-3.5-1.8-.9-3.3-1.9-6.6-.7-10Z"/>
      <path class="cls-5" d="m756.1,77.5c-1.3,2-3.3,1.1-4.9,1.1-8.5.1-17.1-.3-25.5,1.9-1.6.4-4.4,1.5-5.3-1.7,5.5-1.5,10.8-3.6,15.8-6.5,3.9-2.3,6.7,1.5,10.2,1.7.7,1.7,1.9,1.6,3.3,1.1.6.2,1.2.3,1.8.5.8,1,1.8,1.1,3,.7,0,0,.3,0,.3,0,0,.9.7,1,1.4,1.1Z"/>
      <path class="cls-5" d="m14.3,69.6c2.7,5,5.4,10,8,15,.8,1.5,1.1,3.2-1.1,4.1-1.8-2.5-3.5-5.1-5.3-7.6-2.6-3.6-3.3-7.4-1.6-11.5Z"/>
      <path class="cls-7" d="m717.2,147c6.2-2.5,12.5-3.2,19.1-1.9-6.1,2.9-12.6,2.4-19.1,1.9Z"/>
      <path class="cls-7" d="m942.2,76.5c-1.2,1.4-2.8,1.3-4.3.8,1.2-1.5,2.7-1.6,4.3-.8Z"/>
      <path class="cls-7" d="m749.6,75.1c-1.4.6-2.7.6-3.3-1.1,1.1.4,2.2.7,3.3,1.1Z"/>
      <path class="cls-7" d="m756.1,77.5c-.7,0-1.3-.2-1.4-1.1,1.6.2,3.3-.2,4.7,1-1.1,0-2.2,0-3.3,0Z"/>
      <path class="cls-5" d="m1140.2,108.3c1,0,2,.2,3,.3-1.6,1.2-3.4.9-5.1.8.7-.4,1.4-.7,2.2-1.1Z"/>
      <path class="cls-5" d="m778.4,14.9c-1.4,0-2.9-.1-4.3-.2,1.5-1.4,2.9-1,4.3.2Z"/>
      <path class="cls-5" d="m359.8,160.3c0-1.2,0-2.5-.1-3.7,1,1.2,1.9,2.4.1,3.7Z"/>
      <path class="cls-5" d="m924.1,79.8c-.1-.2-.2-.3,0-.5,1-.6,2-.5,3.1-.3-.8.9-2,.6-3,.8Z"/>
      <path class="cls-7" d="m754.4,76.3c-1.1.4-2.2.3-3-.7,1.1,0,2.1-.2,3,.7Z"/>
      <path class="cls-7" d="m764.4,77.9c-.8.6-1.4.3-2.1-.2.7,0,1.4.2,2.1.2Z"/>
      <path class="cls-7" d="m1098.1,62.7c.4-.2.9-.3,1.3-.5-.4.2-.9.3-1.3.5Z"/>
      <path class="cls-7" d="m1139.2,121.6c0-.4-.1-.7-.2-1.1.2,0,.5.2.7.3-.2.3-.4.6-.6.8Z"/>
      <path class="cls-6" d="m885.5,51c.1.2.2.4.3.5,0,0-.2.1-.2.2-.3-.2-.3-.5,0-.8Z"/>
      <path class="cls-6" d="m328.6,128.4c-.4,0-.7-.2-1.1-.3.4,0,.7.2,1.1.3Z"/>
      <path class="cls-7" d="m656.4,136.4c-23.8,1-47.7,2.4-71.6,1.9-8.4-.2-16.8-1.2-25-3-2.9-.6-5.8-1.7-7.2-4.7,5.2-1.6,10.4-3.2,16-3.2,5.8,0,11.7-.1,17.5,0,18.8.6,37.6-.7,56.3-1.2,16.5-.5,33-3.1,49.5-4.2,7.4-.5,14.9.3,22.4.5.8,0,1.7.2,1.9,1.2.3,1.6-.9,2.4-2.1,2.9-5.6,2.2-11.4,3.2-17.4,4-13.4,1.8-26.8,3.9-40.3,5.9Z"/>
      <path class="cls-7" d="m869.7,125.6c-9.8-1.3-19.6-.5-29.2-3-1.1-.3-3,.3-3-1.8,0-1.7,1.8-2,2.9-2.2,8.2-1.8,16.4-4,25-4.2,20.4-.5,40.6-2.9,60.9-5.7,6.9-.9,13.9-.9,20.9-1.4,12.8-.9,25.5-.3,38.1,2,1.4.3,3.5,0,3.5,1.8,0,1.8-1.9,1.9-3.4,2.2-13.5,1.9-27,2.8-40.5,4.1-13,1.3-26,3.1-39,4.5-12,1.3-24.1,2.4-36.1,3.5Z"/>
      <path class="cls-7" d="m1038.1,82.5c2,0,4,0,6,0,1.3,0,2.9,0,3.4,1.4.6,1.9-1.2,2.5-2.4,3.2-6.2,3.7-13.3,5.1-20.3,6.4-21.4,3.9-42.9,6.5-64.7,6.3-10.6-.1-21.2,1.3-31.8,1.6-5.8.2-11.6-.5-17.4-.9-.9,0-2.3.3-2.4-1.1-.1-1.1.9-1.6,1.9-1.9,7.6-2.5,15.5-3.6,23.3-5,18.5-3.4,37.2-3.8,55.9-5.1,15.8-1.1,31.6-3.2,47.4-4.8.4,0,.7,0,1.1,0Z"/>
      <path class="cls-7" d="m67.9,57.7c5.9-3.4,12.6-2.5,19-2.7,25.3-1,50.6,1.9,75.9,2.5,1,0,2,.1,3,.2.6,0,1.3.1,1.9.2,2.9,1.6,6,.7,9.1.8.9,0,1.9.1,2.8.2,2,.8,4,1.4,5.9,2.3,1,.5,2.1,1.3,1.9,2.7-.1,1.4-1.3,1.7-2.5,1.9-6.5,1.1-13.1,2.6-19.7,1.7-5.7-.8-11.2.1-16.8,0-23.9-.3-47.7-2.4-71.5-1.9-2.4,0-4.9-.6-7.3-1.3-4.2-1.2-4.6-3.1-1.7-6.6Z"/>
      <path class="cls-7" d="m528.6,127.5c-13.9,0-27.8.4-41.6-2-6-1.1-12-2.2-17.6-5-1.7-.9-3.2-1.8-2.9-4,4.6-.7,9.1-1.7,13.7-1.9,8.5-.5,16.7,1.9,25,3.4,7.8,1.4,15.6,3,23.3,4.6,1.6.3,3.7.5,3.6,2.6,0,2.2-2,2.2-3.7,2.3Z"/>
      <path class="cls-7" d="m808.1,117.5c-5.7.2-10.1-.5-14.4-1.8-11.3-3.4-22.6-1.9-33.9,0-2.7.5-6.5,2.1-7.7-.7-1.3-3,2.7-4.8,5-6.4,5.6-3.9,12.4-3.4,18.7-4,13.6-1.3,26,4.3,38.6,8,1,.3,1.7,1,1.7,2.2,0,1.2-1,1.7-1.8,2.1-2.4,1.1-4.9.4-6.2.5Z"/>
      <path class="cls-5" d="m1038.1,82.5c-.4,0-.7,0-1.1,0,.3-.5.7-.6,1.1,0Z"/>
      <path class="cls-2" d="m176.8,58.6c-3,0-6.2.8-9.1-.8,3,0,6.2-.9,9.1.8Z"/>
      <path class="cls-2" d="m165.8,57.6c-1,0-2-.1-3-.2,1.1-.9,2.1-.9,3,.2Z"/>
      <path class="cls-6" d="m917.4,63.7c-3.9.1-4.3-1.6-2.5-4.5,2.7-4.5,7.5-6.5,11.6-9.2,6-3.9,12.5-6.8,19.4-9,1.4-.4,3.1-.8,4,.8.7,1.3.3,2.6-.8,3.6-8.8,7.8-17.7,15.5-29.7,18.1-.6.1-1.3.1-2,.2Z"/>
    </g>
  </g>
</svg>