<?xml version="1.0" encoding="UTF-8"?>
<svg id="Layer_2" data-name="Layer 2" xmlns="http://www.w3.org/2000/svg" width="87.6" height="125.1" viewBox="0 0 87.6 125.1">
  <defs>
    <style>
      .cls-1 {
        fill: #dbfbc8;
      }

      .cls-2 {
        fill: #3e0121;
      }

      .cls-3 {
        fill: #3e0021;
      }

      .cls-4 {
        fill: #b9ee96;
      }

      .cls-5 {
        fill: #aad58b;
      }

      .cls-6 {
        fill: #c1fb9f;
      }

      .cls-7 {
        fill: #71b24b;
      }

      .cls-8 {
        fill: #c1fc9f;
      }
    </style>
  </defs>
  <g id="Top">
    <g>
      <path class="cls-2" d="m0,60.3C.9,36.6,10.6,17.6,29.1,3.3c6.4-4.9,13.6-4.1,20.7.4,18.1,11.3,30.3,27,35.9,47.6,4,14.8,1.4,29-4.3,43-5.6,13.6-16.1,22.1-28.7,28.4-10.7,5.3-19.5,1.1-27.4-6.6-12.1-11.8-20.8-25.6-24-42.4-.9-4.5-.9-9.1-1.3-13.4Zm69.8-13.8h0c-5.6-11.2-12.5-21.7-23-29-3.1-2.1-7.1-6.3-11.3-2.6-12.8,11.3-20.2,25.4-21.3,42.6-1,5.5-.2,11.1,1.2,16.1,4.1,14.9,11.8,27.7,24.3,37.4,3.4,2.6,5.4,2.9,8.4.3,7.5-6.1,16.2-11,20.4-20.4,1.8-4,3.1-8.2,3.8-12.5,1.3-8.6,3.2-17.3-.5-25.8,0-1-.2-2-.3-3,.2-.6-.2-.9-.7-1.2,0-.3,0-.6-.3-.8.2-.7-.3-.9-.8-1.1Z"/>
      <path class="cls-5" d="m71.8,52.5c3.7,8.5,1.8,17.2.5,25.8-.6,4.3-2,8.5-3.8,12.5-4.1,9.5-12.9,14.3-20.4,20.4-3.1,2.5-5.1,2.3-8.4-.3-12.5-9.7-20.2-22.5-24.3-37.4-1.4-5-2.2-10.6-1.2-16.1.6,0,1.2,0,1.8,0,5.1,14.7,13.1,27.4,24.6,39.2.2-2.2.2-3.3.3-4.4,1.8,1.9.3,4.4,1.3,6.4.7,1.5.8,4,2.8,4.1,1.8.1,2-2.2,2.9-3.5.3,0,.6,0,.9-.1,1.6,1,1.7,1,3.2-.6,9-9.4,13.8-21,17.9-33.2,1.4-4.3-.5-8.9,1.9-12.9Z"/>
      <path class="cls-6" d="m71.8,52.5c-2.4,4-.5,8.6-1.9,12.9-4,12.2-8.9,23.7-17.9,33.2-1.5,1.6-1.6,1.5-3.2.6,0-1.7,1.7-3,.9-4.9,1.4-5.2,2.8-10.4,3.1-15.7.8-16.3-1-32.3-6.1-47.9,2.9,1.9,5.7,3.9,8.6,5.8,5,3.1,8.9,7.7,14.5,10,0,0,0,0,0,0,.3.4.5.7.8,1.1.2.2.3.5.3.8.2.4.5.8.7,1.2,0,1,.2,2,.3,3Z"/>
      <path class="cls-1" d="m69.8,46.5c-5.6-2.3-9.5-6.9-14.5-10-2.9-1.8-5.7-3.8-8.6-5.8-2.2-2.1-2.8-7.4-7.9-4.1-.7.5-.9,1.2-.9,2h0c-1.9,0-3,1.3-4,2.6-6.5,8.3-12.6,17-17.9,26.3-.6,0-1.2,0-1.8,0,1.1-17.2,8.6-31.4,21.3-42.6,4.2-3.7,8.2.5,11.3,2.6,10.5,7.3,17.4,17.8,23,29.1Z"/>
      <path class="cls-1" d="m70.6,47.6c-.3-.4-.5-.7-.8-1.1.5.2,1,.4.8,1.1Z"/>
      <path class="cls-5" d="m71.5,49.6c-.2-.4-.5-.8-.7-1.2.5.2.9.5.7,1.2Z"/>
      <path class="cls-8" d="m16,57.5c5.2-9.2,11.3-17.9,17.9-26.3,1-1.3,2.1-2.6,4-2.6.7,9.3,1.4,18.5,2,27.8.3.4.5.7.8,1.1,1.3,11.6-1.6,23.2.2,34.8,0,1.1-.2,2.2-.3,4.4-11.5-11.8-19.6-24.5-24.6-39.2Z"/>
      <path class="cls-7" d="m40.9,92.3c-1.9-11.6,1-23.2-.2-34.8-.3-.4-.5-.7-.8-1.1-.7-9.3-1.4-18.5-2-27.8,0,0,0,0,0,0,1-.4,1-1.1.9-2,5.1-3.3,5.7,2,7.9,4.1,5,15.6,6.9,31.6,6.1,47.9-.3,5.4-1.6,10.6-3.1,15.7-3.6.5-1.2,3.3-1.9,5-.8,1.3-1.1,3.6-2.9,3.5-2-.2-2.1-2.6-2.8-4.1-1-2,.6-4.6-1.3-6.4Z"/>
      <path class="cls-3" d="m47.9,99.4c.7-1.6-1.7-4.4,1.9-5,.8,1.8-1,3.2-.9,4.9-.3,0-.6.1-.9.1Z"/>
      <path class="cls-8" d="m38.8,26.7c.1.9,0,1.6-.9,2,0-.8.2-1.5.9-2Z"/>
      <path class="cls-4" d="m39.9,56.4c.3.4.5.7.8,1.1-.3-.4-.5-.7-.8-1.1Z"/>
    </g>
  </g>
</svg>